# 3ds Max Wavefront OBJ Exporter v0.97b - (c)2007 guruware
# File Created: 22.12.2012 18:10:38

#
# object Hedra01
#

v  -0.5061 0.9990 0.4151
v  -0.5759 0.9990 0.4151
v  -0.5759 0.9990 0.4690
v  -0.5061 0.9990 0.4690
v  -0.1905 0.4885 -0.3571
v  -0.2470 0.4669 -0.3920
v  -0.2740 0.5105 -0.3753
v  -0.2175 0.5321 -0.3404
v  -1.0731 0.7824 0.1186
v  -1.0515 0.8174 0.1751
v  -1.0079 0.8340 0.1481
v  -1.0295 0.7991 0.0916
v  -0.0304 0.8174 0.1751
v  -0.0089 0.7824 0.1186
v  -0.0525 0.7991 0.0916
v  -0.0741 0.8340 0.1481
v  -0.8349 0.4669 -0.3920
v  -0.8914 0.4885 -0.3571
v  -0.8645 0.5321 -0.3404
v  -0.8080 0.5105 -0.3753
v  -0.8914 0.4885 1.2412
v  -0.8349 0.4669 1.2761
v  -0.8080 0.5105 1.2594
v  -0.8645 0.5321 1.2245
v  -0.0089 0.7824 0.7655
v  -0.0304 0.8174 0.7090
v  -0.0741 0.8340 0.7360
v  -0.0525 0.7991 0.7925
v  -1.0515 0.8174 0.7090
v  -1.0731 0.7824 0.7655
v  -1.0295 0.7991 0.7925
v  -1.0079 0.8340 0.7360
v  -0.2470 0.4669 1.2761
v  -0.1905 0.4885 1.2412
v  -0.2175 0.5321 1.2245
v  -0.2740 0.5105 1.2594
v  0.2764 -0.2670 0.9526
v  0.2415 -0.3235 0.9742
v  0.2581 -0.3505 0.9305
v  0.2930 -0.2940 0.9089
v  -0.5140 -0.0349 1.4411
v  -0.5140 0.0349 1.4411
v  -0.5680 0.0349 1.4411
v  -0.5680 -0.0349 1.4411
v  0.2415 0.3235 0.9742
v  0.2764 0.2670 0.9526
v  0.2930 0.2940 0.9089
v  0.2581 0.3505 0.9305
v  -0.1905 -0.4885 1.2412
v  -0.2470 -0.4669 1.2761
v  -0.2740 -0.5105 1.2594
v  -0.2175 -0.5321 1.2245
v  -1.0731 -0.7824 0.7655
v  -1.0515 -0.8174 0.7090
v  -1.0079 -0.8340 0.7360
v  -1.0295 -0.7991 0.7925
v  -0.0304 -0.8174 0.7090
v  -0.0089 -0.7824 0.7655
v  -0.0525 -0.7991 0.7925
v  -0.0741 -0.8340 0.7360
v  -0.8349 -0.4669 1.2761
v  -0.8914 -0.4885 1.2412
v  -0.8645 -0.5321 1.2245
v  -0.8080 -0.5105 1.2594
v  -0.5759 -0.9990 0.4151
v  -0.5061 -0.9990 0.4151
v  -0.5061 -0.9990 0.4690
v  -0.5759 -0.9990 0.4690
v  -0.2175 -0.5321 -0.3404
v  -0.2740 -0.5105 -0.3753
v  -0.2470 -0.4669 -0.3920
v  -0.1905 -0.4885 -0.3571
v  -1.0295 -0.7991 0.0916
v  -1.0079 -0.8340 0.1481
v  -1.0515 -0.8174 0.1751
v  -1.0731 -0.7824 0.1186
v  -0.0741 -0.8340 0.1481
v  -0.0525 -0.7991 0.0916
v  -0.0089 -0.7824 0.1186
v  -0.0304 -0.8174 0.1751
v  -0.8080 -0.5105 -0.3753
v  -0.8645 -0.5321 -0.3404
v  -0.8914 -0.4885 -0.3571
v  -0.8349 -0.4669 -0.3920
v  -1.3750 0.2940 -0.0249
v  -1.3401 0.3505 -0.0464
v  -1.3234 0.3235 -0.0901
v  -1.3583 0.2670 -0.0685
v  -0.5140 0.0349 -0.5570
v  -0.5140 -0.0349 -0.5570
v  -0.5680 -0.0349 -0.5570
v  -0.5680 0.0349 -0.5570
v  -1.3401 -0.3505 -0.0464
v  -1.3750 -0.2940 -0.0249
v  -1.3583 -0.2670 -0.0685
v  -1.3234 -0.3235 -0.0901
v  -1.3750 -0.2940 0.9089
v  -1.3401 -0.3505 0.9305
v  -1.3234 -0.3235 0.9742
v  -1.3583 -0.2670 0.9526
v  -1.5400 -0.0270 0.4071
v  -1.5400 -0.0270 0.4770
v  -1.5400 0.0270 0.4770
v  -1.5400 0.0270 0.4071
v  -1.3583 0.2670 0.9526
v  -1.3234 0.3235 0.9742
v  -1.3401 0.3505 0.9305
v  -1.3750 0.2940 0.9089
v  0.2415 -0.3235 -0.0901
v  0.2764 -0.2670 -0.0685
v  0.2930 -0.2940 -0.0249
v  0.2581 -0.3505 -0.0464
v  0.2764 0.2670 -0.0685
v  0.2415 0.3235 -0.0901
v  0.2581 0.3505 -0.0464
v  0.2930 0.2940 -0.0249
v  0.4580 -0.0270 0.4770
v  0.4580 -0.0270 0.4071
v  0.4580 0.0270 0.4071
v  0.4580 0.0270 0.4770
v  -0.5410 0.7350 -0.0122
v  -0.5410 0.7350 0.8963
v  -0.0868 0.0000 1.1770
v  -0.5410 -0.7350 0.8963
v  -0.5410 -0.7350 -0.0122
v  -0.9952 -0.0000 -0.2929
v  -1.2760 -0.4542 0.4420
v  -1.2760 0.4542 0.4420
v  -0.9952 -0.0000 1.1770
v  -0.0868 0.0000 -0.2929
v  0.1940 0.4542 0.4420
v  0.1940 -0.4542 0.4420
# 132 vertices

vn 0.0000 1.0000 -0.0000
vn 0.3090 0.5000 -0.8090
vn -0.5000 0.8090 -0.3090
vn 0.5000 0.8090 -0.3090
vn -0.3090 0.5000 -0.8090
vn -0.3090 0.5000 0.8090
vn 0.5000 0.8090 0.3090
vn -0.5000 0.8090 0.3090
vn 0.3090 0.5000 0.8090
vn 0.8090 -0.3090 0.5000
vn 0.0000 0.0000 1.0000
vn 0.8090 0.3090 0.5000
vn 0.3090 -0.5000 0.8090
vn -0.5000 -0.8090 0.3090
vn 0.5000 -0.8090 0.3090
vn -0.3090 -0.5000 0.8090
vn 0.0000 -1.0000 -0.0000
vn 0.3090 -0.5000 -0.8090
vn -0.5000 -0.8090 -0.3090
vn 0.5000 -0.8090 -0.3090
vn -0.3090 -0.5000 -0.8090
vn -0.8090 0.3090 -0.5000
vn 0.0000 0.0000 -1.0000
vn -0.8090 -0.3090 -0.5000
vn -0.8090 -0.3090 0.5000
vn -1.0000 0.0000 -0.0000
vn -0.8090 0.3090 0.5000
vn 0.8090 -0.3090 -0.5000
vn 0.8090 0.3090 -0.5000
vn 1.0000 0.0000 -0.0000
vn 0.8507 0.5257 -0.0000
vn 0.8507 0.5257 0.0000
vn -0.5257 0.0000 -0.8507
vn -0.5257 -0.0000 -0.8507
vn -0.0000 0.8507 0.5257
vn 0.0000 0.8507 0.5257
vn 0.5257 0.0000 -0.8507
vn 0.5257 -0.0000 -0.8507
vn -0.8507 0.5257 0.0000
vn -0.8507 0.5257 -0.0000
vn 0.5257 0.0000 0.8507
vn 0.5257 -0.0000 0.8507
vn 0.0000 0.8507 -0.5257
vn -0.0000 0.8507 -0.5257
vn -0.5257 0.0000 0.8507
vn -0.5257 -0.0000 0.8507
vn 0.0000 -0.8507 0.5257
vn -0.0000 -0.8507 0.5257
vn 0.8507 -0.5257 0.0000
vn 0.8507 -0.5257 -0.0000
vn -0.0000 -0.8507 -0.5257
vn 0.0000 -0.8507 -0.5257
vn -0.8507 -0.5257 -0.0000
vn -0.8507 -0.5257 0.0000
# 54 vertex normals

vt 0.0175 0.0135 0.5000
vt -0.0175 0.0135 0.5000
vt -0.0175 -0.0135 0.5000
vt 0.0175 -0.0135 0.5000
vt 0.2445 0.1754 0.3999
vt 0.2337 0.1471 0.4174
vt 0.2555 0.1336 0.4091
vt 0.2663 0.1619 0.3916
vt -0.2663 0.1619 0.3916
vt -0.2555 0.1336 0.4091
vt -0.2337 0.1471 0.4174
vt -0.2445 0.1754 0.3999
vt 0.2337 -0.1471 0.4174
vt 0.2445 -0.1754 0.3999
vt 0.2663 -0.1619 0.3916
vt 0.2555 -0.1336 0.4091
vt 0.2445 -0.1754 -0.3999
vt 0.2337 -0.1471 -0.4174
vt 0.2555 -0.1336 -0.4091
vt 0.2663 -0.1619 -0.3916
vt -0.2555 -0.1336 0.4091
vt -0.2663 -0.1619 0.3916
vt -0.2445 -0.1754 0.3999
vt -0.2337 -0.1471 0.4174
vt 0.2337 0.1471 -0.4174
vt 0.2445 0.1754 -0.3999
vt 0.2663 0.1619 -0.3916
vt 0.2555 0.1336 -0.4091
vt -0.0175 0.0135 -0.5000
vt 0.0175 0.0135 -0.5000
vt 0.0175 -0.0135 -0.5000
vt -0.0175 -0.0135 -0.5000
vt -0.2445 0.1754 -0.3999
vt -0.2337 0.1471 -0.4174
vt -0.2555 0.1336 -0.4091
vt -0.2663 0.1619 -0.3916
vt -0.2663 -0.1619 -0.3916
vt -0.2555 -0.1336 -0.4091
vt -0.2337 -0.1471 -0.4174
vt -0.2445 -0.1754 -0.3999
vt -0.0135 0.5000 0.0175
vt -0.3916 0.2663 0.1619
vt -0.3999 0.2445 0.1754
vt 0.3999 0.2445 0.1754
vt 0.3916 0.2663 0.1619
vt 0.0135 0.5000 0.0175
vt -0.3999 -0.2445 0.1754
vt -0.3916 -0.2663 0.1619
vt -0.0135 -0.5000 0.0175
vt 0.0135 -0.5000 0.0175
vt 0.3916 -0.2663 0.1619
vt 0.3999 -0.2445 0.1754
vt 0.3999 0.2445 -0.1754
vt -0.3999 0.2445 -0.1754
vt -0.3916 0.2663 -0.1619
vt -0.0135 0.5000 -0.0175
vt 0.0135 0.5000 -0.0175
vt 0.3916 0.2663 -0.1619
vt 0.3916 -0.2663 -0.1619
vt 0.0135 -0.5000 -0.0175
vt -0.0135 -0.5000 -0.0175
vt -0.3916 -0.2663 -0.1619
vt -0.3999 -0.2445 -0.1754
vt 0.3999 -0.2445 -0.1754
vt 0.0000 0.2273 0.3678
vt 0.1619 0.3916 0.2663
vt 0.1336 0.4091 0.2555
vt -0.1336 0.4091 0.2555
vt -0.1619 0.3916 0.2663
vt -0.0000 -0.2273 0.3678
vt -0.1619 -0.3916 0.2663
vt -0.1336 -0.4091 0.2555
vt 0.1336 -0.4091 0.2555
vt 0.1619 -0.3916 0.2663
vt 0.0000 0.2273 -0.3678
vt 0.1336 0.4091 -0.2555
vt 0.1619 0.3916 -0.2663
vt -0.1619 0.3916 -0.2663
vt -0.1336 0.4091 -0.2555
vt -0.0000 -0.2273 -0.3678
vt 0.1336 -0.4091 -0.2555
vt -0.1336 -0.4091 -0.2555
vt -0.1619 -0.3916 -0.2663
vt 0.1619 -0.3916 -0.2663
vt 0.0000 -0.2273 -0.3678
vt -0.0000 0.2273 0.3678
# 86 texture coords

g Hedra01
f 1/1/1 2/2/1 3/3/1 
f 1/1/1 3/3/1 4/4/1 
f 5/5/2 6/6/2 7/7/2 
f 5/5/2 7/7/2 8/8/2 
f 9/9/3 10/10/3 11/11/3 
f 9/9/3 11/11/3 12/12/3 
f 13/7/4 14/8/4 15/5/4 
f 13/7/4 15/5/4 16/6/4 
f 17/13/5 18/14/5 19/15/5 
f 17/13/5 19/15/5 20/16/5 
f 21/17/6 22/18/6 23/19/6 
f 21/17/6 23/19/6 24/20/6 
f 25/15/7 26/16/7 27/13/7 
f 25/15/7 27/13/7 28/14/7 
f 29/21/8 30/22/8 31/23/8 
f 29/21/8 31/23/8 32/24/8 
f 33/25/9 34/26/9 35/27/9 
f 33/25/9 35/27/9 36/28/9 
f 37/21/10 38/22/10 39/23/10 
f 37/21/10 39/23/10 40/24/10 
f 41/29/11 42/30/11 43/31/11 
f 41/29/11 43/31/11 44/32/11 
f 45/9/12 46/10/12 47/11/12 
f 45/9/12 47/11/12 48/12/12 
f 49/33/13 50/34/13 51/35/13 
f 49/33/13 51/35/13 52/36/13 
f 53/37/14 54/38/14 55/39/14 
f 53/37/14 55/39/14 56/40/14 
f 57/19/15 58/20/15 59/17/15 
f 57/19/15 59/17/15 60/18/15 
f 61/39/16 62/40/16 63/37/16 
f 61/39/16 63/37/16 64/38/16 
f 65/29/17 66/30/17 67/31/17 
f 65/29/17 67/31/17 68/32/17 
f 69/9/18 70/10/18 71/11/18 
f 69/9/18 71/11/18 72/12/18 
f 73/33/19 74/34/19 75/35/19 
f 73/33/19 75/35/19 76/36/19 
f 77/25/20 78/26/20 79/27/20 
f 77/25/20 79/27/20 80/28/20 
f 81/21/21 82/22/21 83/23/21 
f 81/21/21 83/23/21 84/24/21 
f 85/25/22 86/26/22 87/27/22 
f 85/25/22 87/27/22 88/28/22 
f 89/1/23 90/2/23 91/3/23 
f 89/1/23 91/3/23 92/4/23 
f 93/17/24 94/18/24 95/19/24 
f 93/17/24 95/19/24 96/20/24 
f 97/39/25 98/40/25 99/37/25 
f 97/39/25 99/37/25 100/38/25 
f 101/31/26 102/32/26 103/29/26 
f 101/31/26 103/29/26 104/30/26 
f 105/35/27 106/36/27 107/33/27 
f 105/35/27 107/33/27 108/34/27 
f 109/15/28 110/16/28 111/13/28 
f 109/15/28 111/13/28 112/14/28 
f 113/7/29 114/8/29 115/5/29 
f 113/7/29 115/5/29 116/6/29 
f 117/3/30 118/4/30 119/1/30 
f 117/3/30 119/1/30 120/2/30 
f 4/41/31 35/42/31 34/43/31 
f 4/41/32 34/43/32 37/21/32 
f 4/41/31 37/21/31 40/24/31 
f 4/41/31 40/24/31 111/13/31 
f 4/41/32 111/13/32 110/16/32 
f 4/41/31 110/16/31 5/44/31 
f 4/41/32 5/44/32 8/45/32 
f 4/41/31 8/45/31 1/46/31 
f 6/6/33 71/11/33 70/10/33 
f 6/6/33 70/10/33 73/47/33 
f 6/6/34 73/47/34 76/48/34 
f 6/6/33 76/48/33 101/49/33 
f 6/6/33 101/49/33 104/50/33 
f 6/6/33 104/50/33 9/51/33 
f 6/6/33 9/51/33 12/52/33 
f 6/6/33 12/52/33 7/7/33 
f 10/10/35 107/47/35 106/48/35 
f 10/10/36 106/48/36 43/49/36 
f 10/10/36 43/49/36 42/50/36 
f 10/10/35 42/50/35 45/51/35 
f 10/10/36 45/51/36 48/52/36 
f 10/10/36 48/52/36 13/7/36 
f 10/10/36 13/7/36 16/6/36 
f 10/10/36 16/6/36 11/11/36 
f 14/45/37 119/46/37 118/41/37 
f 14/45/37 118/41/37 79/42/37 
f 14/45/37 79/42/37 78/43/37 
f 14/45/38 78/43/38 81/21/38 
f 14/45/37 81/21/37 84/24/37 
f 14/45/37 84/24/37 17/13/37 
f 14/45/38 17/13/38 20/16/38 
f 14/45/37 20/16/37 15/44/37 
f 18/53/39 95/19/39 94/18/39 
f 18/53/40 94/18/40 97/39/40 
f 18/53/40 97/39/40 100/38/40 
f 18/53/40 100/38/40 21/54/40 
f 18/53/40 21/54/40 24/55/40 
f 18/53/40 24/55/40 3/56/40 
f 18/53/40 3/56/40 2/57/40 
f 18/53/40 2/57/40 19/58/40 
f 22/18/41 61/39/41 64/38/41 
f 22/18/41 64/38/41 59/54/41 
f 22/18/42 59/54/42 58/55/42 
f 22/18/41 58/55/41 117/56/41 
f 22/18/41 117/56/41 120/57/41 
f 22/18/41 120/57/41 25/58/41 
f 22/18/41 25/58/41 28/53/41 
f 22/18/41 28/53/41 23/19/41 
f 26/16/43 115/44/43 114/45/43 
f 26/16/44 114/45/44 89/46/44 
f 26/16/43 89/46/43 92/41/43 
f 26/16/43 92/41/43 87/42/43 
f 26/16/44 87/42/44 86/43/44 
f 26/16/43 86/43/43 29/21/43 
f 26/16/43 29/21/43 32/24/43 
f 26/16/43 32/24/43 27/13/43 
f 30/59/45 103/60/45 102/61/45 
f 30/59/45 102/61/45 53/62/45 
f 30/59/45 53/62/45 56/63/45 
f 30/59/46 56/63/46 51/35/46 
f 30/59/45 51/35/45 50/34/45 
f 30/59/45 50/34/45 33/25/45 
f 30/59/46 33/25/46 36/28/46 
f 30/59/45 36/28/45 31/64/45 
f 38/59/47 41/60/47 44/61/47 
f 38/59/47 44/61/47 99/62/47 
f 38/59/47 99/62/47 98/63/47 
f 38/59/48 98/63/48 75/35/48 
f 38/59/47 75/35/47 74/34/47 
f 38/59/47 74/34/47 77/25/47 
f 38/59/48 77/25/48 80/28/48 
f 38/59/47 80/28/47 39/64/47 
f 46/10/49 49/47/49 52/48/49 
f 46/10/50 52/48/50 67/49/50 
f 46/10/50 67/49/50 66/50/50 
f 46/10/49 66/50/49 69/51/49 
f 46/10/50 69/51/50 72/52/50 
f 46/10/50 72/52/50 113/7/50 
f 46/10/50 113/7/50 116/6/50 
f 46/10/50 116/6/50 47/11/50 
f 54/38/51 93/54/51 96/55/51 
f 54/38/52 96/55/52 91/56/52 
f 54/38/52 91/56/52 90/57/52 
f 54/38/51 90/57/51 109/58/51 
f 54/38/52 109/58/52 112/53/52 
f 54/38/52 112/53/52 57/19/52 
f 54/38/52 57/19/52 60/18/52 
f 54/38/52 60/18/52 55/39/52 
f 62/63/53 105/35/53 108/34/53 
f 62/63/53 108/34/53 85/25/53 
f 62/63/54 85/25/54 88/28/54 
f 62/63/53 88/28/53 83/64/53 
f 62/63/53 83/64/53 82/59/53 
f 62/63/54 82/59/54 65/60/54 
f 62/63/53 65/60/53 68/61/53 
f 62/63/53 68/61/53 63/62/53 
f 121/65/43 1/1/43 8/66/43 
f 121/65/43 8/66/43 7/67/43 
f 121/65/44 7/67/44 12/12/44 
f 121/65/43 12/12/43 11/11/43 
f 121/65/43 11/11/43 16/6/43 
f 121/65/44 16/6/44 15/5/44 
f 121/65/43 15/5/43 20/68/43 
f 121/65/44 20/68/44 19/69/44 
f 121/65/44 19/69/44 2/2/44 
f 121/65/43 2/2/43 1/1/43 
f 122/70/36 3/3/36 24/71/36 
f 122/70/35 24/71/35 23/72/35 
f 122/70/36 23/72/36 28/14/36 
f 122/70/35 28/14/35 27/13/35 
f 122/70/36 27/13/36 32/24/36 
f 122/70/36 32/24/36 31/23/36 
f 122/70/35 31/23/35 36/73/35 
f 122/70/36 36/73/36 35/74/36 
f 122/70/36 35/74/36 4/4/36 
f 122/70/36 4/4/36 3/3/36 
f 123/75/41 33/25/41 50/34/41 
f 123/75/41 50/34/41 49/33/41 
f 123/75/42 49/33/42 46/76/42 
f 123/75/41 46/76/41 45/77/41 
f 123/75/41 45/77/41 42/30/41 
f 123/75/41 42/30/41 41/29/41 
f 123/75/41 41/29/41 38/78/41 
f 123/75/42 38/78/42 37/79/42 
f 123/75/41 37/79/41 34/26/41 
f 123/75/42 34/26/42 33/25/42 
f 124/80/48 51/81/48 56/40/48 
f 124/80/47 56/40/47 55/39/47 
f 124/80/47 55/39/47 60/18/47 
f 124/80/48 60/18/48 59/17/48 
f 124/80/47 59/17/47 64/82/47 
f 124/80/48 64/82/48 63/83/48 
f 124/80/48 63/83/48 68/32/48 
f 124/80/47 68/32/47 67/31/47 
f 124/80/47 67/31/47 52/84/47 
f 124/80/47 52/84/47 51/81/47 
f 125/75/52 65/29/52 82/78/52 
f 125/75/51 82/78/51 81/79/51 
f 125/75/52 81/79/52 78/26/52 
f 125/75/51 78/26/51 77/25/51 
f 125/75/52 77/25/52 74/34/52 
f 125/75/52 74/34/52 73/33/52 
f 125/75/51 73/33/51 70/76/51 
f 125/75/52 70/76/52 69/77/52 
f 125/75/52 69/77/52 66/30/52 
f 125/75/52 66/30/52 65/29/52 
f 126/70/34 83/23/34 88/73/34 
f 126/70/33 88/73/33 87/74/33 
f 126/70/33 87/74/33 92/4/33 
f 126/70/33 92/4/33 91/3/33 
f 126/70/33 91/3/33 96/71/33 
f 126/70/34 96/71/34 95/72/34 
f 126/70/33 95/72/33 18/14/33 
f 126/70/34 18/14/34 17/13/34 
f 126/70/33 17/13/33 84/24/33 
f 126/70/33 84/24/33 83/23/33 
f 127/85/53 93/17/53 54/82/53 
f 127/85/54 54/82/54 53/83/54 
f 127/85/54 53/83/54 102/32/54 
f 127/85/53 102/32/53 101/31/53 
f 127/85/53 101/31/53 76/84/53 
f 127/85/53 76/84/53 75/81/53 
f 127/85/54 75/81/54 98/40/54 
f 127/85/53 98/40/53 97/39/53 
f 127/85/53 97/39/53 94/18/53 
f 127/85/54 94/18/54 93/17/54 
f 128/75/40 103/29/40 30/78/40 
f 128/75/39 30/78/39 29/79/39 
f 128/75/40 29/79/40 86/26/40 
f 128/75/39 86/26/39 85/25/39 
f 128/75/40 85/25/40 108/34/40 
f 128/75/40 108/34/40 107/33/40 
f 128/75/39 107/33/39 10/76/39 
f 128/75/40 10/76/40 9/77/40 
f 128/75/40 9/77/40 104/30/40 
f 128/75/40 104/30/40 103/29/40 
f 129/80/46 105/81/46 62/40/46 
f 129/80/45 62/40/45 61/39/45 
f 129/80/45 61/39/45 22/18/45 
f 129/80/46 22/18/46 21/17/46 
f 129/80/45 21/17/45 100/82/45 
f 129/80/46 100/82/46 99/83/46 
f 129/80/46 99/83/46 44/32/46 
f 129/80/45 44/32/45 43/31/45 
f 129/80/45 43/31/45 106/84/45 
f 129/80/45 106/84/45 105/81/45 
f 130/65/37 89/1/37 114/66/37 
f 130/65/37 114/66/37 113/67/37 
f 130/65/38 113/67/38 72/12/38 
f 130/65/37 72/12/37 71/11/37 
f 130/65/37 71/11/37 6/6/37 
f 130/65/38 6/6/38 5/5/38 
f 130/65/37 5/5/37 110/68/37 
f 130/65/38 110/68/38 109/69/38 
f 130/65/38 109/69/38 90/2/38 
f 130/65/37 90/2/37 89/1/37 
f 131/86/31 115/5/31 26/68/31 
f 131/86/32 26/68/32 25/69/32 
f 131/86/32 25/69/32 120/2/32 
f 131/86/31 120/2/31 119/1/31 
f 131/86/31 119/1/31 14/66/31 
f 131/86/31 14/66/31 13/67/31 
f 131/86/32 13/67/32 48/12/32 
f 131/86/31 48/12/31 47/11/31 
f 131/86/31 47/11/31 116/6/31 
f 131/86/32 116/6/32 115/5/32 
f 132/70/50 117/3/50 58/71/50 
f 132/70/49 58/71/49 57/72/49 
f 132/70/50 57/72/50 112/14/50 
f 132/70/49 112/14/49 111/13/49 
f 132/70/50 111/13/50 40/24/50 
f 132/70/50 40/24/50 39/23/50 
f 132/70/49 39/23/49 80/73/49 
f 132/70/50 80/73/50 79/74/50 
f 132/70/50 79/74/50 118/4/50 
f 132/70/50 118/4/50 117/3/50 
# 276 faces

