# 3ds Max Wavefront OBJ Exporter v0.97b - (c)2007 guruware
# File Created: 21.02.2011 11:31:19

#
# object sponza_95
#

v  -135.3347 78.7239 28.0560
v  -135.2714 79.3704 27.9738
v  -135.2714 79.3704 28.6670
v  -135.3347 78.7239 28.6670
v  -135.3810 78.3371 28.1143
v  -135.2022 78.5305 27.9019
v  -135.2022 78.5305 28.6670
v  -135.3810 78.3371 28.6670
v  -134.7869 81.3967 27.3835
v  -134.6203 81.6149 27.1867
v  -134.6203 81.6149 28.6670
v  -134.7869 81.3967 28.6670
v  -134.7869 81.8330 27.3912
v  -134.7869 81.8330 28.6670
v  -135.0574 80.2703 27.7137
v  -134.7869 80.9604 27.3799
v  -134.7869 80.9604 28.6670
v  -135.0574 80.2703 28.6670
v  -135.3838 78.7239 27.9956
v  -135.3188 79.3704 27.9156
v  -134.8348 80.9604 27.3211
v  -134.8362 81.3967 27.3228
v  -134.6729 81.6149 27.1222
v  -134.8394 81.8330 27.3267
v  -135.1060 80.2703 27.6542
v  -135.9304 78.3371 28.6670
v  -135.4806 78.3371 28.1144
v  -135.2549 78.5305 27.8372
v  -135.4308 78.3371 28.0532
v  -135.9304 81.8330 28.6670
v  -135.4330 78.7239 27.9351
v  -135.9304 78.7239 27.9351
v  -135.9304 79.3704 27.8575
v  -135.3661 79.3704 27.8575
v  -135.4805 78.3371 27.9921
v  -135.9304 78.3371 27.9921
v  -135.9304 78.5305 27.7724
v  -135.3076 78.5305 27.7724
v  -134.8856 81.3967 27.2622
v  -135.9304 81.3967 27.2622
v  -135.9304 81.6149 27.0576
v  -134.7254 81.6149 27.0576
v  -135.9304 81.8330 27.2622
v  -134.8919 81.8330 27.2622
v  -135.1544 80.2703 27.5946
v  -135.9304 80.2703 27.5946
v  -135.9304 80.9604 27.2622
v  -134.8827 80.9604 27.2622
# 48 vertices

vn 0.9952 -0.0974 -0.0000
vn 0.9849 -0.1729 -0.0000
vn 0.9863 -0.1647 -0.0000
vn 0.7344 -0.6787 -0.0000
vn 0.8252 0.5649 -0.0000
vn 0.7948 -0.6068 -0.0000
vn 0.7948 0.6068 -0.0000
vn 0.9497 -0.3131 -0.0000
vn 0.9310 -0.3650 -0.0000
vn 0.9543 -0.2989 -0.0000
vn 0.7664 -0.1542 -0.6236
vn 0.7508 -0.2505 -0.6112
vn 0.7513 -0.2473 -0.6119
vn 0.7756 0.0051 -0.6312
vn 0.7756 0.0051 -0.6313
vn 0.7755 0.0051 -0.6313
vn 0.7754 0.0051 -0.6314
vn 0.5060 -0.7578 -0.4119
vn 0.5060 -0.7578 -0.4120
vn 0.5059 -0.7578 -0.4121
vn 0.5003 0.7639 -0.4075
vn 0.5004 0.7639 -0.4074
vn 0.5006 0.7639 -0.4072
vn 0.6984 -0.4345 -0.5687
vn 0.6623 -0.5204 -0.5390
vn 0.6622 -0.5204 -0.5392
vn 0.7001 -0.4294 -0.5705
vn 1.0000 0.0000 -0.0000
vn 0.0000 -1.0000 -0.0000
vn 0.5393 0.7187 -0.4388
vn 0.5395 0.7187 -0.4386
vn 0.4489 -0.8157 -0.3650
vn 0.4487 -0.8156 -0.3652
vn 0.4486 -0.8157 -0.3652
vn 0.4487 -0.8157 -0.3651
vn 0.0000 1.0000 -0.0000
vn -0.0000 -0.1192 -0.9929
vn -0.0000 -0.2005 -0.9797
vn -0.0000 -0.2085 -0.9780
vn 0.0000 -0.7505 -0.6609
vn -0.0000 0.6437 -0.7653
vn 0.0000 0.6437 -0.7653
vn 0.0000 -0.6840 -0.7294
vn -0.0000 -0.6841 -0.7294
vn 0.0000 0.6841 -0.7294
vn -0.0000 -0.3717 -0.9284
vn -0.0000 -0.3584 -0.9336
vn -0.0000 -0.4340 -0.9009
vn 0.7503 -0.2535 -0.6105
vn 0.7757 0.0051 -0.6310
vn 0.5061 -0.7578 -0.4119
vn 0.5061 -0.7578 -0.4118
vn 0.5003 0.7639 -0.4076
vn 0.5005 0.7640 -0.4073
vn 0.6968 -0.4395 -0.5669
vn 0.6625 -0.5204 -0.5389
vn -0.0000 0.0000 -1.0000
vn 0.5391 0.7187 -0.4390
vn 0.5393 0.7188 -0.4388
vn 0.4485 -0.8157 -0.3653
# 60 vertex normals

vt 0.5504 0.8881 0.0000
vt 0.5526 0.9084 0.0000
vt 0.5337 0.9084 0.0000
vt 0.5337 0.8881 0.0000
vt 0.9865 0.7672 0.0000
vt 0.9959 0.7791 0.0000
vt 0.9632 0.7791 0.0000
vt 0.9619 0.7672 0.0000
vt 0.5337 0.8820 0.0000
vt 0.5546 0.8820 0.0000
vt 0.5687 0.9721 0.0000
vt 0.5741 0.9790 0.0000
vt 0.5337 0.9790 0.0000
vt 0.5337 0.9721 0.0000
vt 0.5685 0.9859 0.0000
vt 0.5337 0.9859 0.0000
vt 0.5597 0.9367 0.0000
vt 0.5688 0.9584 0.0000
vt 0.5337 0.9584 0.0000
vt 0.5337 0.9367 0.0000
vt 0.6071 0.8899 0.0000
vt 0.6050 0.9099 0.0000
vt 0.6028 0.9094 0.0000
vt 0.6050 0.8907 0.0000
vt 0.5887 0.9599 0.0000
vt 0.5888 0.9735 0.0000
vt 0.5867 0.9726 0.0000
vt 0.5865 0.9593 0.0000
vt 0.5834 0.9806 0.0000
vt 0.5815 0.9806 0.0000
vt 0.5890 0.9880 0.0000
vt 0.5871 0.9900 0.0000
vt 0.5978 0.9381 0.0000
vt 0.5957 0.9372 0.0000
vt 0.4476 0.6742 0.0000
vt 0.4270 0.6742 0.0000
vt 0.4439 0.6911 0.0000
vt 0.4476 0.6911 0.0000
vt 0.6007 0.8862 0.0000
vt 0.6028 0.8842 0.0000
vt 0.0078 0.7789 0.0000
vt 0.0079 0.7672 0.0000
vt 0.0107 0.7672 0.0000
vt 0.0104 0.7790 0.0000
vt 0.0091 0.8976 0.0000
vt 0.0091 0.8760 0.0000
vt 0.0105 0.8749 0.0000
vt 0.0406 0.8976 0.0000
vt 0.4457 0.6929 0.0000
# 49 texture coords

g sponza_95
f 1/1/1 2/2/2 3/3/3 
f 1/1/1 3/3/3 4/4/1 
f 5/5/4 6/6/4 7/7/4 
f 5/5/4 7/7/4 8/8/4 
f 1/1/5 4/4/5 7/9/5 
f 1/1/5 7/9/5 6/10/5 
f 9/11/6 10/12/6 11/13/6 
f 9/11/6 11/13/6 12/14/6 
f 13/15/7 14/16/7 11/13/7 
f 13/15/7 11/13/7 10/12/7 
f 15/17/8 16/18/9 17/19/9 
f 15/17/8 17/19/9 18/20/10 
f 2/2/2 15/17/8 18/20/10 
f 2/2/2 18/20/10 3/3/3 
f 19/21/11 20/22/12 2/23/13 
f 19/21/11 2/23/13 1/24/11 
f 21/25/14 22/26/15 9/27/16 
f 21/25/14 9/27/16 16/28/17 
f 22/26/18 23/29/19 10/30/20 
f 22/26/18 10/30/20 9/27/18 
f 10/30/21 23/29/22 24/31/22 
f 10/30/21 24/31/22 13/32/23 
f 25/33/24 21/25/25 16/28/26 
f 25/33/24 16/28/26 15/34/27 
f 20/22/12 25/33/24 15/34/27 
f 20/22/12 15/34/27 2/23/13 
f 17/19/28 16/18/28 9/11/28 
f 17/19/28 9/11/28 12/14/28 
f 8/35/29 26/36/29 27/37/29 
f 8/35/29 27/37/29 5/38/29 
f 19/21/30 1/24/30 6/39/31 
f 19/21/30 6/39/31 28/40/30 
f 6/41/32 5/42/33 29/43/34 
f 6/41/32 29/43/34 28/44/35 
f 14/45/36 13/46/36 24/47/36 
f 14/45/36 24/47/36 30/48/36 
f 29/49/29 5/38/29 27/37/29 
f 31/1/37 32/4/37 33/3/38 
f 31/1/37 33/3/38 34/2/39 
f 35/5/40 36/8/40 37/7/40 
f 35/5/40 37/7/40 38/6/40 
f 37/9/41 32/4/41 31/1/41 
f 37/9/41 31/1/41 38/10/42 
f 39/11/43 40/14/44 41/13/44 
f 39/11/43 41/13/44 42/12/43 
f 41/13/45 43/16/45 44/15/45 
f 41/13/45 44/15/45 42/12/45 
f 45/17/46 46/20/47 47/19/48 
f 45/17/46 47/19/48 48/18/48 
f 34/2/39 33/3/38 46/20/47 
f 34/2/39 46/20/47 45/17/46 
f 31/24/11 34/23/49 20/22/12 
f 31/24/11 20/22/12 19/21/11 
f 39/27/14 22/26/15 21/25/14 
f 39/27/14 21/25/14 48/28/50 
f 39/27/51 42/30/52 23/29/19 
f 39/27/51 23/29/19 22/26/18 
f 44/32/53 24/31/22 23/29/22 
f 44/32/53 23/29/22 42/30/54 
f 45/34/55 48/28/56 21/25/25 
f 45/34/55 21/25/25 25/33/24 
f 34/23/49 45/34/55 25/33/24 
f 34/23/49 25/33/24 20/22/12 
f 39/11/57 48/18/57 47/19/57 
f 39/11/57 47/19/57 40/14/57 
f 36/35/29 35/38/29 27/37/29 
f 36/35/29 27/37/29 26/36/29 
f 28/40/30 38/39/58 31/24/59 
f 28/40/30 31/24/59 19/21/30 
f 28/44/35 29/43/34 35/42/34 
f 28/44/35 35/42/34 38/41/60 
f 24/47/36 44/46/36 43/45/36 
f 24/47/36 43/45/36 30/48/36 
f 29/49/29 27/37/29 35/38/29 
# 74 faces

