# 3ds Max Wavefront OBJ Exporter v0.97b - (c)2007 guruware
# File Created: 21.02.2011 11:31:09

#
# object sponza_31
#

v  22.5221 81.8330 -60.2457
v  15.6366 81.8330 -60.2457
v  15.5553 81.8330 -60.1644
v  22.6034 81.8330 -53.2799
v  15.5553 81.8330 -53.2799
v  15.6366 81.8330 -53.1986
v  22.5221 81.8330 -53.1986
v  22.6034 81.8330 -60.1644
v  16.3524 64.3350 -59.5159
v  16.3598 78.3371 -59.5159
v  21.7989 78.3371 -59.5159
v  21.8063 64.3350 -59.5159
v  16.2852 64.3350 -53.9956
v  16.2852 78.3371 -54.0030
v  16.2852 78.3371 -59.4413
v  16.2852 64.3350 -59.4488
v  21.8063 64.3350 -53.9284
v  21.7989 78.3371 -53.9284
v  16.3598 78.3371 -53.9284
v  16.3524 64.3350 -53.9284
v  21.8735 64.3350 -59.4488
v  21.8735 78.3371 -59.4413
v  21.8735 78.3371 -54.0030
v  21.8735 64.3350 -53.9956
v  16.2193 79.3704 -59.6505
v  21.9394 79.3704 -59.6505
v  21.8572 78.7239 -59.5729
v  16.3015 78.7239 -59.5729
v  16.1506 79.3704 -53.8625
v  16.1506 79.3704 -59.5819
v  16.2283 78.7239 -59.4997
v  16.2283 78.7239 -53.9447
v  21.9394 79.3704 -53.7939
v  16.2193 79.3704 -53.7939
v  16.3015 78.7239 -53.8715
v  21.8572 78.7239 -53.8715
v  22.0081 79.3704 -59.5819
v  22.0081 79.3704 -53.8625
v  21.9304 78.7239 -53.9447
v  21.9304 78.7239 -59.4997
v  15.6253 80.9604 -60.2457
v  15.6288 81.3967 -60.2457
v  22.5299 81.3967 -60.2457
v  22.5334 80.9604 -60.2457
v  15.5553 80.9604 -53.2686
v  15.5553 81.3967 -53.2722
v  15.5553 81.3967 -60.1722
v  15.5553 80.9604 -60.1757
v  22.5334 80.9604 -53.1986
v  22.5299 81.3967 -53.1986
v  15.6288 81.3967 -53.1986
v  15.6253 80.9604 -53.1986
v  22.6034 80.9604 -60.1757
v  22.6034 81.3967 -60.1722
v  22.6034 81.3967 -53.2722
v  22.6034 80.9604 -53.2686
v  16.1474 78.5305 -59.7355
v  22.0113 78.5305 -59.7355
v  16.0656 78.5305 -53.7906
v  16.0656 78.5305 -59.6537
v  22.0113 78.5305 -53.7088
v  16.1474 78.5305 -53.7088
v  22.0931 78.5305 -59.6537
v  22.0931 78.5305 -53.7906
v  15.4321 81.6149 -60.4503
v  22.7267 81.6149 -60.4503
v  15.3507 81.6149 -53.0754
v  15.3507 81.6149 -60.3689
v  22.7267 81.6149 -52.9941
v  15.4321 81.6149 -52.9941
v  22.8080 81.6149 -60.3689
v  22.8080 81.6149 -53.0754
v  22.1996 80.2703 -59.9133
v  15.9592 80.2703 -59.9133
v  15.8878 80.2703 -59.8419
v  15.8878 80.2703 -53.6024
v  15.9592 80.2703 -53.5310
v  22.1996 80.2703 -53.5310
v  22.2710 80.2703 -53.6024
v  22.2710 80.2703 -59.8419
v  21.9351 64.1772 -53.9354
v  22.6289 63.4848 -53.2584
v  22.6289 63.4848 -60.1860
v  21.9351 64.1772 -59.5089
v  21.8665 64.1772 -53.8669
v  22.5437 63.4848 -53.1731
v  16.2922 64.1772 -53.8669
v  15.6150 63.4848 -53.1731
v  16.2236 64.1772 -53.9354
v  15.5298 63.4848 -53.2584
v  16.2236 64.1772 -59.5089
v  15.5298 63.4848 -60.1860
v  16.2922 64.1772 -59.5775
v  15.6150 63.4848 -60.2713
v  21.8665 64.1772 -59.5775
v  22.5437 63.4848 -60.2713
v  22.7746 63.4848 -53.1980
v  22.7746 63.2498 -53.1980
v  22.7746 63.2498 -60.2463
v  22.7746 63.4848 -60.2463
v  22.6040 63.4848 -53.0274
v  22.6040 63.2498 -53.0274
v  15.5547 63.4848 -53.0274
v  15.5547 63.2498 -53.0274
v  15.3841 63.4848 -53.1980
v  15.3841 63.2498 -53.1980
v  15.3841 63.4848 -60.2463
v  15.3841 63.2498 -60.2463
v  15.5547 63.4848 -60.4169
v  15.5547 63.2498 -60.4169
v  22.6040 63.4848 -60.4169
v  22.6040 63.2498 -60.4169
v  21.9863 64.2561 -59.5588
v  21.9863 64.2561 -53.8855
v  21.9164 64.2561 -53.8157
v  16.2423 64.2561 -53.8157
v  16.1724 64.2561 -53.8855
v  16.1724 64.2561 -59.5588
v  16.2423 64.2561 -59.6287
v  21.9164 64.2561 -59.6287
v  22.6289 63.0147 -53.2584
v  22.6289 63.0147 -60.1860
v  22.6289 63.2498 -60.1860
v  22.6289 63.2498 -53.2584
v  22.5437 63.0147 -53.1731
v  22.5437 63.2498 -53.1731
v  15.6150 63.0147 -53.1731
v  15.6150 63.2498 -53.1731
v  15.5298 63.0147 -53.2584
v  15.5298 63.2498 -53.2584
v  15.5298 63.0147 -60.1860
v  15.5298 63.2498 -60.1860
v  15.6150 63.0147 -60.2713
v  15.6150 63.2498 -60.2713
v  22.5437 63.0147 -60.2713
v  22.5437 63.2498 -60.2713
# 136 vertices

vn 0.0000 1.0000 -0.0000
vn 0.0000 0.0000 -1.0000
vn -1.0000 0.0000 -0.0000
vn 0.0000 0.0000 1.0000
vn 1.0000 0.0000 -0.0000
vn 0.0000 -0.2102 -0.9777
vn 0.0000 -0.1192 -0.9929
vn -0.9777 -0.2102 -0.0000
vn -0.9929 -0.1192 -0.0000
vn 0.0000 -0.2102 0.9777
vn 0.0000 -0.1192 0.9929
vn 0.9776 -0.2102 -0.0000
vn 0.9929 -0.1193 -0.0000
vn 0.0000 -0.7504 -0.6610
vn -0.6609 -0.7505 -0.0000
vn 0.0000 -0.7504 0.6610
vn 0.6609 -0.7504 -0.0000
vn 0.0000 0.6436 -0.7654
vn -0.7653 0.6437 -0.0000
vn 0.0000 0.6436 0.7654
vn 0.7653 0.6437 -0.0000
vn 0.0000 -0.6840 -0.7295
vn -0.7294 -0.6840 -0.0000
vn 0.0000 -0.6840 0.7295
vn 0.7295 -0.6840 -0.0000
vn 0.0000 0.6840 -0.7295
vn -0.7294 0.6840 -0.0000
vn 0.0000 0.6840 0.7295
vn 0.7295 0.6840 -0.0000
vn 0.0000 -0.4339 -0.9009
vn 0.0000 -0.3743 -0.9273
vn -0.9009 -0.4340 -0.0000
vn -0.9273 -0.3744 -0.0000
vn 0.0000 -0.4339 0.9009
vn 0.0000 -0.3743 0.9273
vn 0.9009 -0.4340 -0.0000
vn 0.9273 -0.3743 -0.0000
vn 0.9273 -0.3744 -0.0000
vn -0.7071 0.0004 -0.7071
vn 0.5840 -0.5638 -0.5840
vn 0.6224 -0.4746 -0.6225
vn 0.6224 -0.4745 -0.6225
vn -0.7071 0.0004 0.7071
vn 0.7071 0.0004 0.7071
vn -0.6965 -0.1722 -0.6966
vn -0.6792 -0.2777 -0.6794
vn 0.7071 0.0004 -0.7071
vn -0.6965 -0.1722 0.6966
vn -0.6793 -0.2777 0.6793
vn 0.6965 -0.1722 0.6966
vn 0.6792 -0.2777 0.6794
vn 0.7071 0.0057 -0.7071
vn -0.7071 0.0057 -0.7071
vn -0.7072 0.0057 -0.7070
vn -0.7071 0.0057 -0.7070
vn -0.7071 0.0057 0.7071
vn -0.7072 0.0057 0.7070
vn -0.7071 0.0057 0.7070
vn 0.7071 0.0057 0.7071
vn -0.4622 0.7568 -0.4622
vn 0.4622 0.7568 -0.4622
vn -0.4622 0.7568 0.4622
vn 0.4622 0.7568 0.4622
vn -0.3783 -0.8449 -0.3783
vn 0.3783 -0.8449 -0.3783
vn -0.3783 -0.8449 0.3783
vn 0.3783 -0.8449 0.3783
vn 0.4310 -0.7928 -0.4310
vn 0.4310 -0.7928 -0.4309
vn -0.4310 -0.7928 -0.4309
vn -0.4309 -0.7928 -0.4310
vn -0.4310 -0.7928 0.4309
vn -0.4309 -0.7928 0.4310
vn 0.4310 -0.7928 0.4309
vn 0.4310 -0.7928 0.4310
vn 0.4258 0.7984 -0.4257
vn 0.4257 0.7984 -0.4257
vn -0.4257 0.7984 -0.4258
vn -0.4258 0.7984 -0.4257
vn -0.4257 0.7984 0.4258
vn -0.4258 0.7984 0.4257
vn 0.4258 0.7984 0.4257
vn 0.4258 0.7984 0.4258
vn 0.6792 -0.2777 -0.6794
vn 0.6965 -0.1722 -0.6966
vn -0.6224 -0.4746 -0.6224
vn -0.5840 -0.5638 -0.5840
vn -0.6224 -0.4745 -0.6224
vn -0.6224 -0.4745 0.6224
vn -0.5840 -0.5638 0.5840
vn -0.6224 -0.4746 0.6224
vn 0.6224 -0.4746 0.6225
vn 0.5840 -0.5638 0.5840
vn 0.6224 -0.4745 0.6225
vn 0.7063 0.7079 -0.0000
vn 0.4110 0.8138 0.4110
vn 0.4110 0.8138 0.4109
vn 0.4109 0.8138 0.4110
vn 0.0000 0.7078 0.7064
vn -0.4109 0.8138 0.4110
vn -0.4110 0.8138 0.4110
vn -0.7063 0.7079 -0.0000
vn -0.4109 0.8138 -0.4110
vn -0.4110 0.8138 -0.4110
vn 0.0000 0.7078 -0.7064
vn 0.4109 0.8138 -0.4110
vn 0.4110 0.8138 -0.4110
vn 0.7071 0.0000 0.7071
vn -0.7071 0.0000 0.7071
vn -0.7072 0.0000 -0.7071
vn 0.7071 0.0000 -0.7071
vn 0.8389 -0.5444 -0.0000
vn 0.0000 -0.5442 0.8389
vn -0.8389 -0.5444 -0.0000
vn 0.0000 -0.5443 -0.8389
vn 0.5239 -0.6716 -0.5239
vn -0.5239 -0.6716 -0.5239
vn 0.5239 -0.6716 0.5239
vn -0.5239 -0.6716 0.5240
vn -0.5239 -0.6715 0.5239
vn -0.7071 0.0000 -0.7071
vn 0.4772 0.8686 -0.1336
vn 0.4772 0.8686 0.1336
vn 0.4187 0.8847 0.2052
vn 0.4187 0.8847 -0.2052
vn 0.1336 0.8685 0.4773
vn -0.1336 0.8685 0.4773
vn -0.2052 0.8846 0.4187
vn 0.2052 0.8847 0.4187
vn -0.4772 0.8686 0.1336
vn -0.4772 0.8686 -0.1336
vn -0.4186 0.8847 -0.2052
vn -0.4186 0.8847 0.2052
vn -0.1337 0.8686 -0.4772
vn 0.1336 0.8685 -0.4772
vn 0.2052 0.8847 -0.4186
vn -0.2052 0.8847 -0.4187
vn 0.0000 -1.0000 -0.0000
# 138 vertex normals

vt 0.1655 0.9938 0.0000
vt 0.0109 0.9938 0.0000
vt 0.0091 0.9924 0.0000
vt 0.1674 0.8760 0.0000
vt 0.0091 0.8760 0.0000
vt 0.0109 0.8746 0.0000
vt 0.1655 0.8746 0.0000
vt 0.1674 0.9924 0.0000
vt 0.7421 0.0122 0.0000
vt 0.7418 0.7672 0.0000
vt 0.5006 0.7672 0.0000
vt 0.5003 0.0122 0.0000
vt 0.9868 0.0122 0.0000
vt 0.9865 0.7672 0.0000
vt 0.7451 0.7672 0.0000
vt 0.7451 0.0122 0.0000
vt 0.2528 0.0122 0.0000
vt 0.2525 0.7672 0.0000
vt 0.0113 0.7672 0.0000
vt 0.0109 0.0122 0.0000
vt 0.4975 0.0122 0.0000
vt 0.4971 0.7672 0.0000
vt 0.2558 0.7672 0.0000
vt 0.2558 0.0122 0.0000
vt 0.3477 0.9089 0.0000
vt 0.1916 0.9089 0.0000
vt 0.1939 0.8885 0.0000
vt 0.3455 0.8885 0.0000
vt 0.5526 0.9084 0.0000
vt 0.3965 0.9084 0.0000
vt 0.3988 0.8881 0.0000
vt 0.5504 0.8881 0.0000
vt 0.7614 0.9100 0.0000
vt 0.6053 0.9100 0.0000
vt 0.6076 0.8897 0.0000
vt 0.7592 0.8897 0.0000
vt 0.9659 0.9096 0.0000
vt 0.8098 0.9096 0.0000
vt 0.8121 0.8892 0.0000
vt 0.9637 0.8892 0.0000
vt 0.3639 0.9589 0.0000
vt 0.3638 0.9726 0.0000
vt 0.1755 0.9726 0.0000
vt 0.1754 0.9589 0.0000
vt 0.5688 0.9584 0.0000
vt 0.5687 0.9721 0.0000
vt 0.3804 0.9721 0.0000
vt 0.3803 0.9584 0.0000
vt 0.7776 0.9600 0.0000
vt 0.7775 0.9737 0.0000
vt 0.5892 0.9737 0.0000
vt 0.5891 0.9600 0.0000
vt 0.9821 0.9596 0.0000
vt 0.9820 0.9733 0.0000
vt 0.7937 0.9733 0.0000
vt 0.7936 0.9596 0.0000
vt 0.7418 0.7790 0.0000
vt 0.5005 0.7793 0.0000
vt 0.9959 0.7791 0.0000
vt 0.7453 0.7792 0.0000
vt 0.2524 0.7790 0.0000
vt 0.0111 0.7790 0.0000
vt 0.4969 0.7793 0.0000
vt 0.2559 0.7790 0.0000
vt 0.1897 0.8825 0.0000
vt 0.3497 0.8825 0.0000
vt 0.3946 0.8820 0.0000
vt 0.5546 0.8820 0.0000
vt 0.6034 0.8836 0.0000
vt 0.7634 0.8836 0.0000
vt 0.8079 0.8832 0.0000
vt 0.9679 0.8832 0.0000
vt 0.3692 0.9794 0.0000
vt 0.1701 0.9794 0.0000
vt 0.5741 0.9790 0.0000
vt 0.3751 0.9790 0.0000
vt 0.7829 0.9806 0.0000
vt 0.5839 0.9806 0.0000
vt 0.9874 0.9801 0.0000
vt 0.7884 0.9801 0.0000
vt 0.3636 0.9863 0.0000
vt 0.1757 0.9863 0.0000
vt 0.5685 0.9859 0.0000
vt 0.3806 0.9859 0.0000
vt 0.7773 0.9875 0.0000
vt 0.5894 0.9875 0.0000
vt 0.9818 0.9870 0.0000
vt 0.7939 0.9870 0.0000
vt 0.1845 0.9372 0.0000
vt 0.3548 0.9372 0.0000
vt 0.3894 0.9367 0.0000
vt 0.5597 0.9367 0.0000
vt 0.5982 0.9383 0.0000
vt 0.7685 0.9383 0.0000
vt 0.8027 0.9379 0.0000
vt 0.9730 0.9379 0.0000
vt 0.9754 0.9368 0.0000
vt 0.9849 0.9589 0.0000
vt 0.0079 0.7672 0.0000
vt 0.0079 0.0122 0.0000
vt 0.3480 0.8895 0.0000
vt 0.3503 0.9083 0.0000
vt 0.6028 0.9094 0.0000
vt 0.6050 0.8907 0.0000
vt 0.8073 0.9090 0.0000
vt 0.8095 0.8902 0.0000
vt 0.9848 0.9721 0.0000
vt 0.3665 0.9582 0.0000
vt 0.3663 0.9714 0.0000
vt 0.5867 0.9726 0.0000
vt 0.5865 0.9593 0.0000
vt 0.7912 0.9721 0.0000
vt 0.7910 0.9589 0.0000
vt 0.3523 0.8850 0.0000
vt 0.9705 0.8857 0.0000
vt 0.9664 0.8902 0.0000
vt 0.6007 0.8862 0.0000
vt 0.8052 0.8857 0.0000
vt 0.0078 0.7789 0.0000
vt 0.9907 0.9801 0.0000
vt 0.3716 0.9794 0.0000
vt 0.5815 0.9806 0.0000
vt 0.7860 0.9801 0.0000
vt 0.9842 0.9896 0.0000
vt 0.3660 0.9889 0.0000
vt 0.5871 0.9900 0.0000
vt 0.7916 0.9896 0.0000
vt 0.9686 0.9090 0.0000
vt 0.3574 0.9360 0.0000
vt 0.5957 0.9372 0.0000
vt 0.8002 0.9367 0.0000
vt 0.7521 0.8673 0.0000
vt 0.7407 0.8440 0.0000
vt 0.9787 0.8440 0.0000
vt 0.9674 0.8673 0.0000
vt 0.7231 0.8673 0.0000
vt 0.7344 0.8440 0.0000
vt 0.5077 0.8685 0.0000
vt 0.4964 0.8440 0.0000
vt 0.4787 0.8685 0.0000
vt 0.4900 0.8440 0.0000
vt 0.2634 0.8683 0.0000
vt 0.2521 0.8440 0.0000
vt 0.2344 0.8683 0.0000
vt 0.2457 0.8440 0.0000
vt 0.0185 0.8682 0.0000
vt 0.0095 0.8447 0.0000
vt 0.9833 0.8433 0.0000
vt 0.9830 0.8665 0.0000
vt 0.7404 0.8398 0.0000
vt 0.7404 0.8318 0.0000
vt 0.9790 0.8318 0.0000
vt 0.9790 0.8398 0.0000
vt 0.7347 0.8398 0.0000
vt 0.7347 0.8318 0.0000
vt 0.4961 0.8398 0.0000
vt 0.4961 0.8318 0.0000
vt 0.4903 0.8398 0.0000
vt 0.4903 0.8318 0.0000
vt 0.2518 0.8398 0.0000
vt 0.2518 0.8318 0.0000
vt 0.2460 0.8398 0.0000
vt 0.2460 0.8318 0.0000
vt 0.0075 0.8398 0.0000
vt 0.0075 0.8318 0.0000
vt 0.9847 0.8318 0.0000
vt 0.9847 0.8398 0.0000
vt 0.9682 0.8705 0.0000
vt 0.7512 0.8699 0.0000
vt 0.7239 0.8699 0.0000
vt 0.5069 0.8711 0.0000
vt 0.4796 0.8711 0.0000
vt 0.2626 0.8709 0.0000
vt 0.2352 0.8709 0.0000
vt 0.0168 0.8708 0.0000
vt 0.9830 0.8702 0.0000
vt 0.7450 0.8179 0.0000
vt 0.5036 0.8179 0.0000
vt 0.5036 0.8097 0.0000
vt 0.7450 0.8097 0.0000
vt 0.7479 0.8179 0.0000
vt 0.7479 0.8097 0.0000
vt 0.9893 0.8179 0.0000
vt 0.9893 0.8097 0.0000
vt 0.9922 0.8179 0.0000
vt 0.9922 0.8097 0.0000
vt 0.2564 0.8179 0.0000
vt 0.0150 0.8179 0.0000
vt 0.0150 0.8097 0.0000
vt 0.2564 0.8097 0.0000
vt 0.2593 0.8179 0.0000
vt 0.2593 0.8097 0.0000
vt 0.5007 0.8179 0.0000
vt 0.5007 0.8097 0.0000
vt 0.2557 0.0062 0.0000
vt 0.4974 0.0062 0.0000
vt 0.0110 0.0062 0.0000
vt 0.2527 0.0062 0.0000
vt 0.7450 0.0062 0.0000
vt 0.9917 0.0062 0.0000
vt 0.5002 0.0062 0.0000
vt 0.7420 0.0062 0.0000
vt 0.0079 0.0062 0.0000
vt 0.9787 0.8276 0.0000
vt 0.7407 0.8276 0.0000
vt 0.9833 0.8276 0.0000
vt 0.2457 0.8276 0.0000
vt 0.0095 0.8276 0.0000
vt 0.2521 0.8276 0.0000
vt 0.4900 0.8276 0.0000
vt 0.4964 0.8276 0.0000
vt 0.7344 0.8276 0.0000
# 212 texture coords

g sponza_31
f 1/1/1 2/2/1 3/3/1 
f 1/1/1 3/3/1 4/4/1 
f 3/3/1 5/5/1 6/6/1 
f 3/3/1 6/6/1 4/4/1 
f 6/6/1 7/7/1 4/4/1 
f 8/8/1 1/1/1 4/4/1 
f 9/9/2 10/10/2 11/11/2 
f 9/9/2 11/11/2 12/12/2 
f 13/13/3 14/14/3 15/15/3 
f 13/13/3 15/15/3 16/16/3 
f 17/17/4 18/18/4 19/19/4 
f 17/17/4 19/19/4 20/20/4 
f 21/21/5 22/22/5 23/23/5 
f 21/21/5 23/23/5 24/24/5 
f 25/25/6 26/26/6 27/27/7 
f 25/25/6 27/27/7 28/28/7 
f 29/29/8 30/30/8 31/31/9 
f 29/29/8 31/31/9 32/32/9 
f 33/33/10 34/34/10 35/35/11 
f 33/33/10 35/35/11 36/36/11 
f 37/37/12 38/38/12 39/39/13 
f 37/37/12 39/39/13 40/40/13 
f 41/41/2 42/42/2 43/43/2 
f 41/41/2 43/43/2 44/44/2 
f 45/45/3 46/46/3 47/47/3 
f 45/45/3 47/47/3 48/48/3 
f 49/49/4 50/50/4 51/51/4 
f 49/49/4 51/51/4 52/52/4 
f 53/53/5 54/54/5 55/55/5 
f 53/53/5 55/55/5 56/56/5 
f 57/57/14 58/58/14 11/11/14 
f 57/57/14 11/11/14 10/10/14 
f 59/59/15 60/60/15 15/15/15 
f 59/59/15 15/15/15 14/14/15 
f 61/61/16 62/62/16 19/19/16 
f 61/61/16 19/19/16 18/18/16 
f 63/63/17 64/64/17 23/23/17 
f 63/63/17 23/23/17 22/22/17 
f 28/28/18 27/27/18 58/65/18 
f 28/28/18 58/65/18 57/66/18 
f 32/32/19 31/31/19 60/67/19 
f 32/32/19 60/67/19 59/68/19 
f 36/36/20 35/35/20 62/69/20 
f 36/36/20 62/69/20 61/70/20 
f 40/40/21 39/39/21 64/71/21 
f 40/40/21 64/71/21 63/72/21 
f 65/73/22 66/74/22 43/43/22 
f 65/73/22 43/43/22 42/42/22 
f 67/75/23 68/76/23 47/47/23 
f 67/75/23 47/47/23 46/46/23 
f 69/77/24 70/78/24 51/51/24 
f 69/77/24 51/51/24 50/50/24 
f 71/79/25 72/80/25 55/55/25 
f 71/79/25 55/55/25 54/54/25 
f 2/81/26 1/82/26 66/74/26 
f 2/81/26 66/74/26 65/73/26 
f 5/83/27 3/84/27 68/76/27 
f 5/83/27 68/76/27 67/75/27 
f 7/85/28 6/86/28 70/78/28 
f 7/85/28 70/78/28 69/77/28 
f 8/87/29 4/88/29 72/80/29 
f 8/87/29 72/80/29 71/79/29 
f 41/41/30 44/44/30 73/89/31 
f 41/41/30 73/89/31 74/90/31 
f 45/45/32 48/48/32 75/91/33 
f 45/45/32 75/91/33 76/92/33 
f 49/49/34 52/52/34 77/93/35 
f 49/49/34 77/93/35 78/94/35 
f 53/53/36 56/56/36 79/95/37 
f 53/53/36 79/95/37 80/96/38 
f 74/90/31 73/89/31 26/26/6 
f 74/90/31 26/26/6 25/25/6 
f 76/92/33 75/91/33 30/30/8 
f 76/92/33 30/30/8 29/29/8 
f 78/94/35 77/93/35 34/34/10 
f 78/94/35 34/34/10 33/33/10 
f 80/96/38 79/95/37 38/38/12 
f 80/96/38 38/38/12 37/37/12 
f 16/16/39 15/15/39 10/10/39 
f 16/16/39 10/10/39 9/9/39 
f 53/53/40 80/96/41 73/97/42 
f 53/53/40 73/97/42 44/98/40 
f 20/20/43 19/19/43 14/99/43 
f 20/20/43 14/99/43 13/100/43 
f 24/24/44 23/23/44 18/18/44 
f 24/24/44 18/18/44 17/17/44 
f 31/101/45 30/102/46 25/25/46 
f 31/101/45 25/25/46 28/28/45 
f 22/22/47 21/21/47 12/12/47 
f 22/22/47 12/12/47 11/11/47 
f 35/35/48 34/34/49 29/103/49 
f 35/35/48 29/103/49 32/104/48 
f 39/39/50 38/38/51 33/105/51 
f 39/39/50 33/105/51 36/106/50 
f 44/98/52 43/107/52 54/54/52 
f 44/98/52 54/54/52 53/53/52 
f 48/108/53 47/109/54 42/42/55 
f 48/108/53 42/42/55 41/41/53 
f 52/52/56 51/51/57 46/110/58 
f 52/52/56 46/110/58 45/111/56 
f 56/56/59 55/55/59 50/112/59 
f 56/56/59 50/112/59 49/113/59 
f 28/28/60 57/66/60 60/114/60 
f 28/28/60 60/114/60 31/101/60 
f 40/40/61 63/72/61 58/115/61 
f 40/40/61 58/115/61 27/116/61 
f 32/104/62 59/117/62 62/69/62 
f 32/104/62 62/69/62 35/35/62 
f 36/106/63 61/118/63 64/71/63 
f 36/106/63 64/71/63 39/39/63 
f 57/57/64 10/10/64 15/15/64 
f 57/57/64 15/15/64 60/60/64 
f 63/63/65 22/22/65 11/11/65 
f 63/63/65 11/11/65 58/58/65 
f 59/119/66 14/99/66 19/19/66 
f 59/119/66 19/19/66 62/62/66 
f 61/61/67 18/18/67 23/23/67 
f 61/61/67 23/23/67 64/64/67 
f 43/107/68 66/120/69 71/79/69 
f 43/107/68 71/79/69 54/54/68 
f 47/109/70 68/121/71 65/73/71 
f 47/109/70 65/73/71 42/42/70 
f 51/51/72 70/78/73 67/122/73 
f 51/51/72 67/122/73 46/110/72 
f 55/55/74 72/80/74 69/123/74 
f 55/55/74 69/123/74 50/112/75 
f 66/120/76 1/124/77 8/87/76 
f 66/120/76 8/87/76 71/79/76 
f 68/121/78 3/125/79 2/81/79 
f 68/121/78 2/81/79 65/73/78 
f 70/78/80 6/86/81 5/126/81 
f 70/78/80 5/126/81 67/122/80 
f 72/80/82 4/88/83 7/127/82 
f 72/80/82 7/127/82 69/123/82 
f 37/37/84 40/40/85 27/116/85 
f 37/37/84 27/116/85 26/128/84 
f 75/129/86 48/108/87 41/41/87 
f 75/129/86 41/41/87 74/90/88 
f 77/93/89 52/52/90 45/111/90 
f 77/93/89 45/111/90 76/130/91 
f 79/95/92 56/56/93 49/113/93 
f 79/95/92 49/113/93 78/131/94 
f 26/128/84 73/97/42 80/96/41 
f 26/128/84 80/96/41 37/37/84 
f 30/102/46 75/129/86 74/90/88 
f 30/102/46 74/90/88 25/25/46 
f 34/34/49 77/93/89 76/130/91 
f 34/34/49 76/130/91 29/103/49 
f 38/38/51 79/95/92 78/131/94 
f 38/38/51 78/131/94 33/105/51 
f 81/132/95 82/133/95 83/134/95 
f 81/132/95 83/134/95 84/135/95 
f 85/136/96 86/137/97 82/133/96 
f 85/136/96 82/133/96 81/132/98 
f 87/138/99 88/139/99 86/137/99 
f 87/138/99 86/137/99 85/136/99 
f 89/140/100 90/141/101 88/139/101 
f 89/140/100 88/139/101 87/138/100 
f 91/142/102 92/143/102 90/141/102 
f 91/142/102 90/141/102 89/140/102 
f 93/144/103 94/145/104 92/143/103 
f 93/144/103 92/143/103 91/142/103 
f 95/146/105 96/147/105 94/145/105 
f 95/146/105 94/145/105 93/144/105 
f 84/135/106 83/134/107 96/148/107 
f 84/135/106 96/148/107 95/149/106 
f 97/150/5 98/151/5 99/152/5 
f 97/150/5 99/152/5 100/153/5 
f 101/154/108 102/155/108 98/151/108 
f 101/154/108 98/151/108 97/150/108 
f 103/156/4 104/157/4 102/155/4 
f 103/156/4 102/155/4 101/154/4 
f 105/158/109 106/159/109 104/157/109 
f 105/158/109 104/157/109 103/156/109 
f 107/160/3 108/161/3 106/159/3 
f 107/160/3 106/159/3 105/158/3 
f 109/162/110 110/163/110 108/161/110 
f 109/162/110 108/161/110 107/160/110 
f 111/164/2 112/165/2 110/163/2 
f 111/164/2 110/163/2 109/162/2 
f 100/153/111 99/152/111 112/166/111 
f 100/153/111 112/166/111 111/167/111 
f 113/168/112 114/169/112 81/132/112 
f 113/168/112 81/132/112 84/135/112 
f 115/170/113 116/171/113 87/138/113 
f 115/170/113 87/138/113 85/136/113 
f 117/172/114 118/173/114 91/142/114 
f 117/172/114 91/142/114 89/140/114 
f 119/174/115 120/175/115 95/146/115 
f 119/174/115 95/146/115 93/144/115 
f 120/176/116 113/168/116 84/135/116 
f 120/176/116 84/135/116 95/149/116 
f 118/173/117 119/174/117 93/144/117 
f 118/173/117 93/144/117 91/142/117 
f 114/169/118 115/170/118 85/136/118 
f 114/169/118 85/136/118 81/132/118 
f 116/171/119 117/172/119 89/140/119 
f 116/171/119 89/140/119 87/138/120 
f 121/177/5 122/178/5 123/179/5 
f 121/177/5 123/179/5 124/180/5 
f 125/181/108 121/177/108 124/180/108 
f 125/181/108 124/180/108 126/182/108 
f 127/183/4 125/181/4 126/182/4 
f 127/183/4 126/182/4 128/184/4 
f 129/185/109 127/183/109 128/184/109 
f 129/185/109 128/184/109 130/186/109 
f 131/187/3 129/188/3 130/189/3 
f 131/187/3 130/189/3 132/190/3 
f 133/191/121 131/187/121 132/190/121 
f 133/191/121 132/190/121 134/192/121 
f 135/193/2 133/191/2 134/192/2 
f 135/193/2 134/192/2 136/194/2 
f 122/178/111 135/193/111 136/194/111 
f 122/178/111 136/194/111 123/179/111 
f 21/21/122 24/24/123 114/195/124 
f 21/21/122 114/195/124 113/196/125 
f 17/17/126 20/20/127 116/197/128 
f 17/17/126 116/197/128 115/198/129 
f 13/13/130 16/16/131 118/199/132 
f 13/13/130 118/199/132 117/200/133 
f 9/9/134 12/12/135 120/201/136 
f 9/9/134 120/201/136 119/202/137 
f 12/12/135 21/21/122 113/196/125 
f 12/12/135 113/196/125 120/201/136 
f 16/16/131 9/9/134 119/202/137 
f 16/16/131 119/202/137 118/199/132 
f 24/24/123 17/17/126 115/198/129 
f 24/24/123 115/198/129 114/195/124 
f 20/20/127 13/100/130 117/203/133 
f 20/20/127 117/203/133 116/197/128 
f 82/133/1 97/150/1 100/153/1 
f 82/133/1 100/153/1 83/134/1 
f 86/137/1 101/154/1 97/150/1 
f 86/137/1 97/150/1 82/133/1 
f 88/139/1 103/156/1 101/154/1 
f 88/139/1 101/154/1 86/137/1 
f 90/141/1 105/158/1 103/156/1 
f 90/141/1 103/156/1 88/139/1 
f 92/143/1 107/160/1 105/158/1 
f 92/143/1 105/158/1 90/141/1 
f 94/145/1 109/162/1 107/160/1 
f 94/145/1 107/160/1 92/143/1 
f 96/147/1 111/164/1 109/162/1 
f 96/147/1 109/162/1 94/145/1 
f 83/134/1 100/153/1 111/167/1 
f 83/134/1 111/167/1 96/148/1 
f 123/204/138 99/152/138 98/151/138 
f 123/204/138 98/151/138 124/205/138 
f 136/206/138 112/166/138 99/152/138 
f 136/206/138 99/152/138 123/204/138 
f 134/207/138 110/163/138 112/165/138 
f 134/207/138 112/165/138 136/208/138 
f 132/209/138 108/161/138 110/163/138 
f 132/209/138 110/163/138 134/207/138 
f 130/210/138 106/159/138 108/161/138 
f 130/210/138 108/161/138 132/209/138 
f 128/211/138 104/157/138 106/159/138 
f 128/211/138 106/159/138 130/210/138 
f 126/212/138 102/155/138 104/157/138 
f 126/212/138 104/157/138 128/211/138 
f 124/205/138 98/151/138 102/155/138 
f 124/205/138 102/155/138 126/212/138 
# 262 faces

