# 3ds Max Wavefront OBJ Exporter v0.97b - (c)2007 guruware
# File Created: 21.02.2011 11:31:19

#
# object sponza_101
#

v  -90.2056 30.9529 28.0323
v  -90.1157 31.5993 27.9501
v  -90.1157 31.5993 28.6433
v  -90.2056 30.9529 28.6433
v  -96.8157 31.5993 27.8815
v  -90.1952 31.5993 27.8815
v  -90.2903 30.9529 27.9591
v  -96.7205 30.9529 27.9591
v  -97.5031 33.1893 27.2862
v  -97.4990 33.6256 27.2862
v  -89.5118 33.6256 27.2862
v  -89.5077 33.1893 27.2862
v  -97.5841 33.1893 28.6433
v  -97.5841 33.6256 28.6433
v  -97.5841 33.6256 27.3598
v  -97.5841 33.1893 27.3563
v  -90.2715 30.5660 28.0906
v  -90.0173 30.7594 27.8783
v  -90.0173 30.7594 28.6433
v  -90.2715 30.5660 28.6433
v  -96.8988 30.7594 27.7964
v  -90.1120 30.7594 27.7964
v  -90.3578 30.5660 28.0160
v  -96.6530 30.5660 28.0160
v  -89.4267 33.6256 27.3598
v  -89.1899 33.8438 27.1630
v  -89.1899 33.8438 28.6433
v  -89.4267 33.6256 28.6433
v  -97.7268 33.8438 27.0817
v  -89.2840 33.8438 27.0817
v  -89.4267 34.0619 27.3676
v  -89.4267 34.0619 28.6433
v  -97.4900 34.0619 27.2862
v  -89.5208 34.0619 27.2862
v  -89.8114 32.4992 27.6900
v  -89.4267 33.1893 27.3563
v  -89.4267 33.1893 28.6433
v  -89.8114 32.4992 28.6433
v  -89.8941 32.4992 27.6186
v  -97.1167 32.4992 27.6186
v  -96.8053 30.9529 28.0323
v  -96.8951 31.5993 27.9501
v  -96.9935 30.7594 27.8783
v  -96.7393 30.5660 28.0906
v  -97.8209 33.8438 27.1630
v  -97.5841 34.0619 27.3676
v  -97.1994 32.4992 27.6900
v  -97.5841 34.0619 28.6433
v  -96.8951 31.5993 28.6433
v  -96.8053 30.9529 28.6433
v  -96.9936 30.7594 28.6433
v  -96.7394 30.5660 28.6433
v  -97.8209 33.8438 28.6433
v  -97.1994 32.4992 28.6433
# 54 vertices

vn 0.9905 -0.1376 -0.0000
vn 0.9705 -0.2409 -0.0000
vn 0.9732 -0.2300 -0.0000
vn 0.0000 -0.2116 -0.9774
vn 0.0000 -0.1192 -0.9929
vn 0.0000 0.0000 -1.0000
vn -1.0000 0.0000 -0.0000
vn 0.6056 -0.7958 -0.0000
vn 0.0000 -0.7504 -0.6610
vn 0.7166 0.6975 -0.0000
vn 0.0000 0.6436 -0.7654
vn 0.6776 -0.7355 -0.0000
vn 0.0000 -0.6840 -0.7295
vn 0.6776 0.7355 -0.0000
vn 0.0000 0.6840 -0.7295
vn 0.9065 -0.4223 -0.0000
vn 0.8734 -0.4869 -0.0000
vn 0.9142 -0.4053 -0.0000
vn 0.0000 -0.4339 -0.9009
vn 0.0000 -0.3765 -0.9264
vn 0.6427 -0.1839 -0.7438
vn 0.6254 -0.2920 -0.7236
vn 0.6242 -0.2980 -0.7222
vn -0.6425 -0.1839 -0.7439
vn -0.6240 -0.2980 -0.7223
vn -0.6253 -0.2920 -0.7237
vn -0.6424 -0.1839 -0.7439
vn 0.6538 0.0061 -0.7566
vn 0.6537 0.0061 -0.7567
vn -0.6538 0.0062 -0.7567
vn -0.6536 0.0061 -0.7568
vn -0.6538 0.0062 -0.7566
vn 0.4106 0.7782 -0.4753
vn 0.4106 0.7782 -0.4752
vn -0.4105 0.7782 -0.4753
vn -0.4106 0.7782 -0.4753
vn 0.3329 -0.8606 -0.3854
vn -0.3329 -0.8606 -0.3854
vn -0.3329 -0.8606 -0.3853
vn 0.3814 -0.8122 -0.4415
vn -0.3814 -0.8122 -0.4415
vn -0.3815 -0.8122 -0.4414
vn -0.3815 -0.8122 -0.4415
vn -0.3813 -0.8122 -0.4415
vn 0.3766 0.8174 -0.4359
vn 0.3767 0.8174 -0.4358
vn 0.3765 0.8174 -0.4359
vn -0.3766 0.8174 -0.4359
vn -0.3767 0.8174 -0.4358
vn -0.3765 0.8174 -0.4359
vn 0.5648 -0.5035 -0.6538
vn 0.5681 -0.4947 -0.6576
vn 0.5280 -0.5898 -0.6110
vn -0.5648 -0.5035 -0.6538
vn -0.5280 -0.5899 -0.6110
vn -0.5681 -0.4947 -0.6576
vn 0.0000 1.0000 -0.0000
vn -0.9732 -0.2300 -0.0000
vn -0.9705 -0.2409 -0.0000
vn -0.9905 -0.1377 -0.0000
vn 1.0000 0.0000 -0.0000
vn -0.6055 -0.7958 -0.0000
vn -0.6056 -0.7958 -0.0001
vn -0.7166 0.6975 -0.0000
vn -0.7165 0.6975 -0.0000
vn -0.6776 -0.7354 -0.0000
vn -0.6776 0.7354 -0.0000
vn -0.8734 -0.4870 -0.0000
vn -0.9065 -0.4223 -0.0000
vn -0.9142 -0.4053 -0.0000
vn 0.0000 -1.0000 -0.0000
# 71 vertex normals

vt 0.5504 0.8881 0.0000
vt 0.5526 0.9084 0.0000
vt 0.5337 0.9084 0.0000
vt 0.5337 0.8881 0.0000
vt 0.7614 0.9100 0.0000
vt 0.6053 0.9100 0.0000
vt 0.6076 0.8897 0.0000
vt 0.7592 0.8897 0.0000
vt 0.7776 0.9600 0.0000
vt 0.7775 0.9737 0.0000
vt 0.5892 0.9737 0.0000
vt 0.5891 0.9600 0.0000
vt 0.8288 0.9596 0.0000
vt 0.8288 0.9733 0.0000
vt 0.7937 0.9733 0.0000
vt 0.7936 0.9596 0.0000
vt 0.9865 0.7672 0.0000
vt 0.9959 0.7791 0.0000
vt 0.9632 0.7791 0.0000
vt 0.9619 0.7672 0.0000
vt 0.2524 0.7790 0.0000
vt 0.0111 0.7790 0.0000
vt 0.0113 0.7672 0.0000
vt 0.2525 0.7672 0.0000
vt 0.5337 0.8820 0.0000
vt 0.5546 0.8820 0.0000
vt 0.6034 0.8836 0.0000
vt 0.7634 0.8836 0.0000
vt 0.5687 0.9721 0.0000
vt 0.5741 0.9790 0.0000
vt 0.5337 0.9790 0.0000
vt 0.5337 0.9721 0.0000
vt 0.7829 0.9806 0.0000
vt 0.5839 0.9806 0.0000
vt 0.5685 0.9859 0.0000
vt 0.5337 0.9859 0.0000
vt 0.7773 0.9875 0.0000
vt 0.5894 0.9875 0.0000
vt 0.5597 0.9367 0.0000
vt 0.5688 0.9584 0.0000
vt 0.5337 0.9584 0.0000
vt 0.5337 0.9367 0.0000
vt 0.5982 0.9383 0.0000
vt 0.7685 0.9383 0.0000
vt 0.6050 0.8907 0.0000
vt 0.6028 0.9094 0.0000
vt 0.8121 0.8892 0.0000
vt 0.8098 0.9096 0.0000
vt 0.8073 0.9090 0.0000
vt 0.8095 0.8902 0.0000
vt 0.5867 0.9726 0.0000
vt 0.5865 0.9593 0.0000
vt 0.7912 0.9721 0.0000
vt 0.7910 0.9589 0.0000
vt 0.6007 0.8862 0.0000
vt 0.8052 0.8857 0.0000
vt 0.8079 0.8832 0.0000
vt 0.0078 0.7789 0.0000
vt 0.0079 0.7672 0.0000
vt 0.2558 0.7672 0.0000
vt 0.2559 0.7790 0.0000
vt 0.5815 0.9806 0.0000
vt 0.7884 0.9801 0.0000
vt 0.7860 0.9801 0.0000
vt 0.5871 0.9900 0.0000
vt 0.7939 0.9870 0.0000
vt 0.7916 0.9896 0.0000
vt 0.5957 0.9372 0.0000
vt 0.8027 0.9379 0.0000
vt 0.8002 0.9367 0.0000
vt 0.0091 0.8976 0.0000
vt 0.0091 0.8760 0.0000
vt 0.0109 0.8746 0.0000
vt 0.1674 0.8760 0.0000
vt 0.1655 0.8746 0.0000
vt 0.1674 0.8976 0.0000
vt 0.8288 0.9096 0.0000
vt 0.8288 0.8892 0.0000
vt 0.2874 0.7790 0.0000
vt 0.2803 0.7672 0.0000
vt 0.8288 0.8832 0.0000
vt 0.8288 0.9801 0.0000
vt 0.8288 0.9870 0.0000
vt 0.8288 0.9379 0.0000
vt 0.2773 0.6742 0.0000
vt 0.2773 0.6911 0.0000
vt 0.4476 0.6911 0.0000
vt 0.4476 0.6742 0.0000
vt 0.4453 0.6933 0.0000
vt 0.2795 0.6933 0.0000
# 90 texture coords

g sponza_101
f 1/1/1 2/2/2 3/3/3 
f 1/1/1 3/3/3 4/4/1 
f 5/5/4 6/6/4 7/7/5 
f 5/5/4 7/7/5 8/8/5 
f 9/9/6 10/10/6 11/11/6 
f 9/9/6 11/11/6 12/12/6 
f 13/13/7 14/14/7 15/15/7 
f 13/13/7 15/15/7 16/16/7 
f 17/17/8 18/18/8 19/19/8 
f 17/17/8 19/19/8 20/20/8 
f 21/21/9 22/22/9 23/23/9 
f 21/21/9 23/23/9 24/24/9 
f 1/1/10 4/4/10 19/25/10 
f 1/1/10 19/25/10 18/26/10 
f 8/8/11 7/7/11 22/27/11 
f 8/8/11 22/27/11 21/28/11 
f 25/29/12 26/30/12 27/31/12 
f 25/29/12 27/31/12 28/32/12 
f 29/33/13 30/34/13 11/11/13 
f 29/33/13 11/11/13 10/10/13 
f 31/35/14 32/36/14 27/31/14 
f 31/35/14 27/31/14 26/30/14 
f 33/37/15 34/38/15 30/34/15 
f 33/37/15 30/34/15 29/33/15 
f 35/39/16 36/40/17 37/41/17 
f 35/39/16 37/41/17 38/42/18 
f 9/9/19 12/12/19 39/43/20 
f 9/9/19 39/43/20 40/44/20 
f 2/2/2 35/39/16 38/42/18 
f 2/2/2 38/42/18 3/3/3 
f 40/44/20 39/43/20 6/6/4 
f 40/44/20 6/6/4 5/5/4 
f 1/45/21 7/7/21 6/6/22 
f 1/45/21 6/6/22 2/46/23 
f 41/47/24 42/48/25 5/49/26 
f 41/47/24 5/49/26 8/50/27 
f 12/12/28 11/11/29 25/51/29 
f 12/12/28 25/51/29 36/52/28 
f 16/16/30 15/15/31 10/53/31 
f 16/16/30 10/53/31 9/54/32 
f 1/45/33 18/55/33 22/27/33 
f 1/45/33 22/27/33 7/7/34 
f 41/47/35 8/50/35 21/56/36 
f 41/47/35 21/56/36 43/57/36 
f 22/22/37 18/58/37 17/59/37 
f 22/22/37 17/59/37 23/23/37 
f 21/21/38 24/24/39 44/60/38 
f 21/21/38 44/60/38 43/61/38 
f 25/51/40 11/11/40 30/34/40 
f 25/51/40 30/34/40 26/62/40 
f 15/15/41 45/63/42 29/64/43 
f 15/15/41 29/64/43 10/53/44 
f 30/34/45 34/38/46 31/65/45 
f 30/34/45 31/65/45 26/62/47 
f 29/64/48 45/63/49 46/66/48 
f 29/64/48 46/66/48 33/67/50 
f 35/68/51 39/43/52 12/12/53 
f 35/68/51 12/12/53 36/52/53 
f 47/69/54 16/16/55 9/54/55 
f 47/69/54 9/54/55 40/70/56 
f 2/46/23 6/6/22 39/43/52 
f 2/46/23 39/43/52 35/68/51 
f 42/48/25 47/69/54 40/70/56 
f 42/48/25 40/70/56 5/49/26 
f 32/71/57 31/72/57 34/73/57 
f 32/71/57 34/73/57 46/74/57 
f 34/73/57 33/75/57 46/74/57 
f 48/76/57 32/71/57 46/74/57 
f 49/77/58 42/48/59 41/47/60 
f 49/77/58 41/47/60 50/78/60 
f 37/41/61 36/40/61 25/29/61 
f 37/41/61 25/29/61 28/32/61 
f 51/79/62 43/61/62 44/60/62 
f 51/79/62 44/60/62 52/80/63 
f 51/81/64 50/78/65 41/47/64 
f 51/81/64 41/47/64 43/57/64 
f 53/82/66 45/63/66 15/15/66 
f 53/82/66 15/15/66 14/14/66 
f 53/82/67 48/83/67 46/66/67 
f 53/82/67 46/66/67 45/63/67 
f 13/13/68 16/16/68 47/69/69 
f 13/13/68 47/69/69 54/84/70 
f 54/84/70 47/69/69 42/48/59 
f 54/84/70 42/48/59 49/77/58 
f 52/85/71 44/86/71 17/87/71 
f 52/85/71 17/87/71 20/88/71 
f 23/89/71 17/87/71 44/86/71 
f 23/89/71 44/86/71 24/90/71 
# 88 faces

