# 3ds Max Wavefront OBJ Exporter v0.97b - (c)2007 guruware
# File Created: 21.02.2011 11:31:09

#
# object sponza_30
#

v  -21.3182 81.8330 -53.2799
v  -21.2369 81.8330 -53.1986
v  -14.3514 81.8330 -53.1986
v  -21.2369 81.8330 -60.2457
v  -14.2701 81.8330 -53.2799
v  -14.2701 81.8330 -60.1644
v  -14.3514 81.8330 -60.2457
v  -21.3182 81.8330 -60.1644
v  -20.5137 78.3371 -59.5159
v  -15.0746 78.3371 -59.5159
v  -15.0672 64.3350 -59.5159
v  -20.5211 64.3350 -59.5159
v  -15.0000 78.3371 -59.4413
v  -15.0000 78.3371 -54.0030
v  -15.0000 64.3350 -53.9956
v  -15.0000 64.3350 -59.4488
v  -15.0746 78.3371 -53.9284
v  -20.5137 78.3371 -53.9284
v  -20.5211 64.3350 -53.9284
v  -15.0672 64.3350 -53.9284
v  -20.5883 78.3371 -54.0030
v  -20.5883 78.3371 -59.4413
v  -20.5883 64.3350 -59.4488
v  -20.5883 64.3350 -53.9956
v  -20.5720 78.7239 -59.5729
v  -20.6542 79.3704 -59.6505
v  -14.9341 79.3704 -59.6505
v  -15.0163 78.7239 -59.5729
v  -14.9431 78.7239 -59.4997
v  -14.8654 79.3704 -59.5819
v  -14.8654 79.3704 -53.8625
v  -14.9431 78.7239 -53.9447
v  -15.0163 78.7239 -53.8715
v  -14.9341 79.3704 -53.7939
v  -20.6542 79.3704 -53.7939
v  -20.5720 78.7239 -53.8715
v  -20.6452 78.7239 -53.9447
v  -20.7229 79.3704 -53.8625
v  -20.7229 79.3704 -59.5819
v  -20.6452 78.7239 -59.4997
v  -21.2447 81.3967 -60.2457
v  -14.3437 81.3967 -60.2457
v  -14.3401 80.9604 -60.2457
v  -21.2482 80.9604 -60.2457
v  -14.2701 81.3967 -60.1722
v  -14.2701 81.3967 -53.2722
v  -14.2701 80.9604 -53.2686
v  -14.2701 80.9604 -60.1757
v  -14.3437 81.3967 -53.1986
v  -21.2447 81.3967 -53.1986
v  -21.2482 80.9604 -53.1986
v  -14.3401 80.9604 -53.1986
v  -21.3182 81.3967 -53.2722
v  -21.3182 81.3967 -60.1722
v  -21.3182 80.9604 -60.1757
v  -21.3182 80.9604 -53.2686
v  -20.7261 78.5305 -59.7355
v  -14.8622 78.5305 -59.7355
v  -14.7804 78.5305 -59.6537
v  -14.7804 78.5305 -53.7906
v  -14.8622 78.5305 -53.7088
v  -20.7261 78.5305 -53.7088
v  -20.8079 78.5305 -53.7906
v  -20.8079 78.5305 -59.6537
v  -21.4415 81.6149 -60.4503
v  -14.1469 81.6149 -60.4503
v  -14.0655 81.6149 -60.3689
v  -14.0655 81.6149 -53.0754
v  -14.1469 81.6149 -52.9941
v  -21.4415 81.6149 -52.9941
v  -21.5228 81.6149 -53.0754
v  -21.5228 81.6149 -60.3689
v  -20.9144 80.2703 -59.9133
v  -14.6739 80.2703 -59.9133
v  -14.6026 80.2703 -59.8419
v  -14.6026 80.2703 -53.6024
v  -14.6739 80.2703 -53.5310
v  -20.9144 80.2703 -53.5310
v  -20.9858 80.2703 -53.6024
v  -20.9858 80.2703 -59.8419
v  -21.3437 63.4848 -60.1860
v  -21.3437 63.4848 -53.2584
v  -20.6499 64.1772 -53.9354
v  -20.6499 64.1772 -59.5089
v  -21.2585 63.4848 -53.1731
v  -20.5813 64.1772 -53.8669
v  -14.3298 63.4848 -53.1731
v  -15.0070 64.1772 -53.8669
v  -14.2446 63.4848 -53.2584
v  -14.9384 64.1772 -53.9354
v  -14.2446 63.4848 -60.1860
v  -14.9384 64.1772 -59.5089
v  -14.3298 63.4848 -60.2713
v  -15.0070 64.1772 -59.5775
v  -21.2585 63.4848 -60.2713
v  -20.5813 64.1772 -59.5775
v  -21.4894 63.2498 -60.2463
v  -21.4894 63.2498 -53.1980
v  -21.4894 63.4848 -53.1980
v  -21.4894 63.4848 -60.2463
v  -21.3188 63.2498 -53.0274
v  -21.3188 63.4848 -53.0274
v  -14.2695 63.2498 -53.0274
v  -14.2695 63.4848 -53.0274
v  -14.0989 63.2498 -53.1980
v  -14.0989 63.4848 -53.1980
v  -14.0989 63.2498 -60.2463
v  -14.0989 63.4848 -60.2463
v  -14.2695 63.2498 -60.4169
v  -14.2695 63.4848 -60.4169
v  -21.3188 63.2498 -60.4169
v  -21.3188 63.4848 -60.4169
v  -20.7011 64.2561 -53.8855
v  -20.7011 64.2561 -59.5588
v  -14.9571 64.2561 -53.8157
v  -20.6312 64.2561 -53.8157
v  -14.8872 64.2561 -59.5588
v  -14.8872 64.2561 -53.8855
v  -20.6312 64.2561 -59.6287
v  -14.9571 64.2561 -59.6287
v  -21.3437 63.2498 -60.1860
v  -21.3437 63.0147 -60.1860
v  -21.3437 63.0147 -53.2584
v  -21.3437 63.2498 -53.2584
v  -21.2585 63.0147 -53.1731
v  -21.2585 63.2498 -53.1731
v  -14.3298 63.0147 -53.1731
v  -14.3298 63.2498 -53.1731
v  -14.2446 63.0147 -53.2584
v  -14.2446 63.2498 -53.2584
v  -14.2446 63.0147 -60.1860
v  -14.2446 63.2498 -60.1860
v  -14.3298 63.0147 -60.2713
v  -14.3298 63.2498 -60.2713
v  -21.2585 63.0147 -60.2713
v  -21.2585 63.2498 -60.2713
# 136 vertices

vn 0.0000 1.0000 -0.0000
vn 0.0000 0.0000 -1.0000
vn 1.0000 0.0000 -0.0000
vn 0.0000 0.0000 1.0000
vn -1.0000 0.0000 -0.0000
vn 0.0000 -0.1192 -0.9929
vn 0.0000 -0.2102 -0.9777
vn 0.9929 -0.1192 -0.0000
vn 0.9777 -0.2102 -0.0000
vn 0.0000 -0.1192 0.9929
vn 0.0000 -0.2102 0.9777
vn -0.9929 -0.1192 -0.0000
vn -0.9776 -0.2102 -0.0000
vn 0.0000 -0.7504 -0.6610
vn 0.6609 -0.7505 -0.0000
vn 0.0000 -0.7504 0.6610
vn -0.6609 -0.7504 -0.0000
vn 0.0000 0.6436 -0.7654
vn 0.7653 0.6437 -0.0000
vn 0.0000 0.6436 0.7654
vn -0.7653 0.6437 -0.0000
vn 0.0000 -0.6840 -0.7295
vn 0.7294 -0.6841 -0.0000
vn 0.0000 -0.6840 0.7295
vn -0.7295 -0.6840 -0.0000
vn 0.0000 0.6840 -0.7295
vn 0.7294 0.6841 -0.0000
vn 0.0000 0.6840 0.7295
vn -0.7295 0.6840 -0.0000
vn 0.0000 -0.3743 -0.9273
vn 0.0000 -0.4339 -0.9009
vn 0.9273 -0.3744 -0.0000
vn 0.9009 -0.4340 -0.0000
vn 0.0000 -0.3743 0.9273
vn 0.0000 -0.4339 0.9009
vn -0.9273 -0.3744 -0.0000
vn -0.9009 -0.4340 -0.0000
vn 0.7071 0.0004 -0.7071
vn -0.6223 -0.4746 -0.6225
vn -0.5840 -0.5638 -0.5840
vn 0.7071 0.0004 0.7071
vn -0.7070 0.0004 0.7072
vn 0.6794 -0.2777 -0.6792
vn 0.6965 -0.1722 -0.6966
vn -0.7070 0.0004 -0.7072
vn 0.6794 -0.2777 0.6792
vn 0.6965 -0.1722 0.6966
vn -0.6792 -0.2777 0.6794
vn -0.6966 -0.1722 0.6965
vn -0.7070 0.0057 -0.7072
vn -0.7071 0.0057 -0.7071
vn 0.7071 0.0057 -0.7071
vn 0.7071 0.0057 0.7071
vn -0.7070 0.0057 0.7072
vn -0.7071 0.0057 0.7071
vn 0.4622 0.7568 -0.4622
vn -0.4621 0.7568 -0.4622
vn -0.4622 0.7568 -0.4622
vn 0.4622 0.7568 0.4622
vn -0.4621 0.7568 0.4622
vn -0.4621 0.7568 0.4623
vn -0.4622 0.7568 0.4622
vn 0.3783 -0.8449 -0.3783
vn -0.3782 -0.8449 -0.3784
vn -0.3782 -0.8449 -0.3783
vn 0.3783 -0.8449 0.3783
vn -0.3782 -0.8449 0.3784
vn -0.4309 -0.7928 -0.4310
vn 0.4309 -0.7928 -0.4310
vn 0.4310 -0.7928 -0.4309
vn 0.4309 -0.7928 0.4310
vn 0.4309 -0.7928 0.4309
vn 0.4310 -0.7928 0.4309
vn -0.4309 -0.7928 0.4310
vn -0.4257 0.7984 -0.4258
vn 0.4257 0.7984 -0.4257
vn 0.4258 0.7984 -0.4257
vn 0.4257 0.7984 -0.4258
vn 0.4258 0.7984 0.4257
vn 0.4257 0.7984 0.4258
vn -0.4257 0.7984 0.4258
vn -0.6966 -0.1722 -0.6965
vn -0.6792 -0.2777 -0.6794
vn 0.5840 -0.5638 -0.5840
vn 0.6224 -0.4746 -0.6224
vn 0.5840 -0.5638 0.5840
vn 0.6224 -0.4745 0.6224
vn -0.5840 -0.5638 0.5840
vn -0.6223 -0.4746 0.6225
vn -0.7063 0.7079 -0.0000
vn -0.4110 0.8138 0.4109
vn 0.0000 0.7078 0.7064
vn 0.4110 0.8138 0.4109
vn 0.4110 0.8138 0.4110
vn 0.7063 0.7079 -0.0000
vn 0.4110 0.8138 -0.4109
vn 0.4110 0.8138 -0.4110
vn 0.0000 0.7078 -0.7064
vn -0.4110 0.8138 -0.4109
vn -0.7071 0.0000 0.7071
vn 0.7071 0.0000 0.7071
vn 0.7071 0.0000 -0.7071
vn -0.0000 0.0000 -1.0000
vn -0.7071 0.0000 -0.7071
vn -0.8389 -0.5443 -0.0000
vn 0.0000 -0.5442 0.8389
vn 0.8389 -0.5443 -0.0000
vn 0.0000 -0.5443 -0.8389
vn -0.5240 -0.6715 -0.5239
vn -0.5240 -0.6716 -0.5239
vn -0.5241 -0.6715 -0.5239
vn 0.5240 -0.6716 -0.5239
vn 0.5240 -0.6715 -0.5239
vn -0.5240 -0.6715 0.5239
vn -0.5240 -0.6715 0.5240
vn -0.5240 -0.6716 0.5238
vn 0.5240 -0.6715 0.5239
vn 0.5239 -0.6716 0.5239
vn -0.7072 0.0000 0.7071
vn 0.7072 0.0000 0.7071
vn 0.7072 0.0000 -0.7071
vn -0.7072 0.0000 -0.7071
vn -0.4187 0.8847 0.2052
vn -0.4772 0.8686 0.1337
vn -0.4772 0.8686 -0.1337
vn -0.4186 0.8847 -0.2052
vn 0.2052 0.8847 0.4187
vn 0.1336 0.8685 0.4773
vn -0.1336 0.8685 0.4773
vn -0.2052 0.8847 0.4187
vn 0.4187 0.8847 -0.2052
vn 0.4772 0.8686 -0.1336
vn 0.4772 0.8686 0.1336
vn 0.4187 0.8847 0.2052
vn -0.2052 0.8847 -0.4186
vn -0.1336 0.8685 -0.4773
vn 0.1336 0.8686 -0.4772
vn 0.2052 0.8847 -0.4186
vn 0.0000 -1.0000 -0.0000
# 139 vertex normals

vt 0.1674 0.8760 0.0000
vt 0.1655 0.8746 0.0000
vt 0.0109 0.8746 0.0000
vt 0.1655 0.9938 0.0000
vt 0.0091 0.8760 0.0000
vt 0.0091 0.9924 0.0000
vt 0.0109 0.9938 0.0000
vt 0.1674 0.9924 0.0000
vt 0.5006 0.7672 0.0000
vt 0.7418 0.7672 0.0000
vt 0.7421 0.0122 0.0000
vt 0.5003 0.0122 0.0000
vt 0.7451 0.7672 0.0000
vt 0.9865 0.7672 0.0000
vt 0.9868 0.0122 0.0000
vt 0.7451 0.0122 0.0000
vt 0.0113 0.7672 0.0000
vt 0.2525 0.7672 0.0000
vt 0.2528 0.0122 0.0000
vt 0.0109 0.0122 0.0000
vt 0.2558 0.7672 0.0000
vt 0.4971 0.7672 0.0000
vt 0.4975 0.0122 0.0000
vt 0.2558 0.0122 0.0000
vt 0.1939 0.8885 0.0000
vt 0.1916 0.9089 0.0000
vt 0.3477 0.9089 0.0000
vt 0.3455 0.8885 0.0000
vt 0.3988 0.8881 0.0000
vt 0.3965 0.9084 0.0000
vt 0.5526 0.9084 0.0000
vt 0.5504 0.8881 0.0000
vt 0.6076 0.8897 0.0000
vt 0.6053 0.9100 0.0000
vt 0.7614 0.9100 0.0000
vt 0.7592 0.8897 0.0000
vt 0.8121 0.8892 0.0000
vt 0.8098 0.9096 0.0000
vt 0.9659 0.9096 0.0000
vt 0.9637 0.8892 0.0000
vt 0.1755 0.9726 0.0000
vt 0.3638 0.9726 0.0000
vt 0.3639 0.9589 0.0000
vt 0.1754 0.9589 0.0000
vt 0.3804 0.9721 0.0000
vt 0.5687 0.9721 0.0000
vt 0.5688 0.9584 0.0000
vt 0.3803 0.9584 0.0000
vt 0.5892 0.9737 0.0000
vt 0.7775 0.9737 0.0000
vt 0.7776 0.9600 0.0000
vt 0.5891 0.9600 0.0000
vt 0.7937 0.9733 0.0000
vt 0.9820 0.9733 0.0000
vt 0.9821 0.9596 0.0000
vt 0.7936 0.9596 0.0000
vt 0.5005 0.7793 0.0000
vt 0.7418 0.7790 0.0000
vt 0.7453 0.7792 0.0000
vt 0.9959 0.7791 0.0000
vt 0.0111 0.7790 0.0000
vt 0.2524 0.7790 0.0000
vt 0.2559 0.7790 0.0000
vt 0.4969 0.7793 0.0000
vt 0.1897 0.8825 0.0000
vt 0.3497 0.8825 0.0000
vt 0.3946 0.8820 0.0000
vt 0.5546 0.8820 0.0000
vt 0.6034 0.8836 0.0000
vt 0.7634 0.8836 0.0000
vt 0.8079 0.8832 0.0000
vt 0.9679 0.8832 0.0000
vt 0.1701 0.9794 0.0000
vt 0.3692 0.9794 0.0000
vt 0.3751 0.9790 0.0000
vt 0.5741 0.9790 0.0000
vt 0.5839 0.9806 0.0000
vt 0.7829 0.9806 0.0000
vt 0.7884 0.9801 0.0000
vt 0.9874 0.9801 0.0000
vt 0.1757 0.9863 0.0000
vt 0.3636 0.9863 0.0000
vt 0.3806 0.9859 0.0000
vt 0.5685 0.9859 0.0000
vt 0.5894 0.9875 0.0000
vt 0.7773 0.9875 0.0000
vt 0.7939 0.9870 0.0000
vt 0.9818 0.9870 0.0000
vt 0.1845 0.9372 0.0000
vt 0.3548 0.9372 0.0000
vt 0.3894 0.9367 0.0000
vt 0.5597 0.9367 0.0000
vt 0.5982 0.9383 0.0000
vt 0.7685 0.9383 0.0000
vt 0.8027 0.9379 0.0000
vt 0.9730 0.9379 0.0000
vt 0.9754 0.9368 0.0000
vt 0.9849 0.9589 0.0000
vt 0.0079 0.7672 0.0000
vt 0.0079 0.0122 0.0000
vt 0.3503 0.9083 0.0000
vt 0.3480 0.8895 0.0000
vt 0.6028 0.9094 0.0000
vt 0.6050 0.8907 0.0000
vt 0.8073 0.9090 0.0000
vt 0.8095 0.8902 0.0000
vt 0.9848 0.9721 0.0000
vt 0.3663 0.9714 0.0000
vt 0.3665 0.9582 0.0000
vt 0.5867 0.9726 0.0000
vt 0.5865 0.9593 0.0000
vt 0.7912 0.9721 0.0000
vt 0.7910 0.9589 0.0000
vt 0.3523 0.8850 0.0000
vt 0.9705 0.8857 0.0000
vt 0.9664 0.8902 0.0000
vt 0.6007 0.8862 0.0000
vt 0.8052 0.8857 0.0000
vt 0.0078 0.7789 0.0000
vt 0.9907 0.9801 0.0000
vt 0.3716 0.9794 0.0000
vt 0.5815 0.9806 0.0000
vt 0.7860 0.9801 0.0000
vt 0.9842 0.9896 0.0000
vt 0.3660 0.9889 0.0000
vt 0.5871 0.9900 0.0000
vt 0.7916 0.9896 0.0000
vt 0.9686 0.9090 0.0000
vt 0.3574 0.9360 0.0000
vt 0.5957 0.9372 0.0000
vt 0.8002 0.9367 0.0000
vt 0.9787 0.8440 0.0000
vt 0.7407 0.8440 0.0000
vt 0.7521 0.8673 0.0000
vt 0.9674 0.8673 0.0000
vt 0.7344 0.8440 0.0000
vt 0.7231 0.8673 0.0000
vt 0.4964 0.8440 0.0000
vt 0.5077 0.8685 0.0000
vt 0.4900 0.8440 0.0000
vt 0.4787 0.8685 0.0000
vt 0.2521 0.8440 0.0000
vt 0.2634 0.8683 0.0000
vt 0.2457 0.8440 0.0000
vt 0.2344 0.8683 0.0000
vt 0.0095 0.8447 0.0000
vt 0.0185 0.8682 0.0000
vt 0.9833 0.8433 0.0000
vt 0.9830 0.8665 0.0000
vt 0.9790 0.8318 0.0000
vt 0.7404 0.8318 0.0000
vt 0.7404 0.8398 0.0000
vt 0.9790 0.8398 0.0000
vt 0.7347 0.8318 0.0000
vt 0.7347 0.8398 0.0000
vt 0.4961 0.8318 0.0000
vt 0.4961 0.8398 0.0000
vt 0.4903 0.8318 0.0000
vt 0.4903 0.8398 0.0000
vt 0.2518 0.8318 0.0000
vt 0.2518 0.8398 0.0000
vt 0.2460 0.8318 0.0000
vt 0.2460 0.8398 0.0000
vt 0.0075 0.8318 0.0000
vt 0.0075 0.8398 0.0000
vt 0.9847 0.8318 0.0000
vt 0.9847 0.8398 0.0000
vt 0.7512 0.8699 0.0000
vt 0.9682 0.8705 0.0000
vt 0.5069 0.8711 0.0000
vt 0.7239 0.8699 0.0000
vt 0.2626 0.8709 0.0000
vt 0.4796 0.8711 0.0000
vt 0.0168 0.8708 0.0000
vt 0.2352 0.8709 0.0000
vt 0.9830 0.8702 0.0000
vt 0.5036 0.8097 0.0000
vt 0.5036 0.8179 0.0000
vt 0.7450 0.8179 0.0000
vt 0.7450 0.8097 0.0000
vt 0.7479 0.8179 0.0000
vt 0.7479 0.8097 0.0000
vt 0.9893 0.8179 0.0000
vt 0.9893 0.8097 0.0000
vt 0.9922 0.8179 0.0000
vt 0.9922 0.8097 0.0000
vt 0.0150 0.8097 0.0000
vt 0.0150 0.8179 0.0000
vt 0.2564 0.8179 0.0000
vt 0.2564 0.8097 0.0000
vt 0.2593 0.8179 0.0000
vt 0.2593 0.8097 0.0000
vt 0.5007 0.8179 0.0000
vt 0.5007 0.8097 0.0000
vt 0.2557 0.0062 0.0000
vt 0.4974 0.0062 0.0000
vt 0.0110 0.0062 0.0000
vt 0.2527 0.0062 0.0000
vt 0.7450 0.0062 0.0000
vt 0.9917 0.0062 0.0000
vt 0.5002 0.0062 0.0000
vt 0.7420 0.0062 0.0000
vt 0.0079 0.0062 0.0000
vt 0.9787 0.8276 0.0000
vt 0.7407 0.8276 0.0000
vt 0.9833 0.8276 0.0000
vt 0.2457 0.8276 0.0000
vt 0.0095 0.8276 0.0000
vt 0.2521 0.8276 0.0000
vt 0.4900 0.8276 0.0000
vt 0.4964 0.8276 0.0000
vt 0.7344 0.8276 0.0000
# 212 texture coords

g sponza_30
f 1/1/1 2/2/1 3/3/1 
f 1/1/1 3/3/1 4/4/1 
f 3/3/1 5/5/1 6/6/1 
f 3/3/1 6/6/1 4/4/1 
f 6/6/1 7/7/1 4/4/1 
f 8/8/1 1/1/1 4/4/1 
f 9/9/2 10/10/2 11/11/2 
f 9/9/2 11/11/2 12/12/2 
f 13/13/3 14/14/3 15/15/3 
f 13/13/3 15/15/3 16/16/3 
f 17/17/4 18/18/4 19/19/4 
f 17/17/4 19/19/4 20/20/4 
f 21/21/5 22/22/5 23/23/5 
f 21/21/5 23/23/5 24/24/5 
f 25/25/6 26/26/7 27/27/7 
f 25/25/6 27/27/7 28/28/6 
f 29/29/8 30/30/9 31/31/9 
f 29/29/8 31/31/9 32/32/8 
f 33/33/10 34/34/11 35/35/11 
f 33/33/10 35/35/11 36/36/10 
f 37/37/12 38/38/13 39/39/13 
f 37/37/12 39/39/13 40/40/12 
f 41/41/2 42/42/2 43/43/2 
f 41/41/2 43/43/2 44/44/2 
f 45/45/3 46/46/3 47/47/3 
f 45/45/3 47/47/3 48/48/3 
f 49/49/4 50/50/4 51/51/4 
f 49/49/4 51/51/4 52/52/4 
f 53/53/5 54/54/5 55/55/5 
f 53/53/5 55/55/5 56/56/5 
f 9/9/14 57/57/14 58/58/14 
f 9/9/14 58/58/14 10/10/14 
f 13/13/15 59/59/15 60/60/15 
f 13/13/15 60/60/15 14/14/15 
f 17/17/16 61/61/16 62/62/16 
f 17/17/16 62/62/16 18/18/16 
f 21/21/17 63/63/17 64/64/17 
f 21/21/17 64/64/17 22/22/17 
f 57/65/18 25/25/18 28/28/18 
f 57/65/18 28/28/18 58/66/18 
f 59/67/19 29/29/19 32/32/19 
f 59/67/19 32/32/19 60/68/19 
f 61/69/20 33/33/20 36/36/20 
f 61/69/20 36/36/20 62/70/20 
f 63/71/21 37/37/21 40/40/21 
f 63/71/21 40/40/21 64/72/21 
f 41/41/22 65/73/22 66/74/22 
f 41/41/22 66/74/22 42/42/22 
f 45/45/23 67/75/23 68/76/23 
f 45/45/23 68/76/23 46/46/23 
f 49/49/24 69/77/24 70/78/24 
f 49/49/24 70/78/24 50/50/24 
f 53/53/25 71/79/25 72/80/25 
f 53/53/25 72/80/25 54/54/25 
f 65/73/26 4/81/26 7/82/26 
f 65/73/26 7/82/26 66/74/26 
f 67/75/27 6/83/27 5/84/27 
f 67/75/27 5/84/27 68/76/27 
f 69/77/28 3/85/28 2/86/28 
f 69/77/28 2/86/28 70/78/28 
f 71/79/29 1/87/29 8/88/29 
f 71/79/29 8/88/29 72/80/29 
f 73/89/30 44/44/31 43/43/31 
f 73/89/30 43/43/31 74/90/30 
f 75/91/32 48/48/33 47/47/33 
f 75/91/32 47/47/33 76/92/32 
f 77/93/34 52/52/35 51/51/35 
f 77/93/34 51/51/35 78/94/34 
f 79/95/36 56/56/37 55/55/37 
f 79/95/36 55/55/37 80/96/36 
f 26/26/7 73/89/30 74/90/30 
f 26/26/7 74/90/30 27/27/7 
f 30/30/9 75/91/32 76/92/32 
f 30/30/9 76/92/32 31/31/9 
f 34/34/11 77/93/34 78/94/34 
f 34/34/11 78/94/34 35/35/11 
f 38/38/13 79/95/36 80/96/36 
f 38/38/13 80/96/36 39/39/13 
f 10/10/38 13/13/38 16/16/38 
f 10/10/38 16/16/38 11/11/38 
f 73/97/39 80/96/39 55/55/40 
f 73/97/39 55/55/40 44/98/40 
f 14/99/41 17/17/41 20/20/41 
f 14/99/41 20/20/41 15/100/41 
f 18/18/42 21/21/42 24/24/42 
f 18/18/42 24/24/42 19/19/42 
f 27/27/43 30/101/43 29/102/44 
f 27/27/43 29/102/44 28/28/44 
f 12/12/45 23/23/45 22/22/45 
f 12/12/45 22/22/45 9/9/45 
f 31/103/46 34/34/46 33/33/47 
f 31/103/46 33/33/47 32/104/47 
f 35/105/48 38/38/48 37/37/49 
f 35/105/48 37/37/49 36/106/49 
f 54/54/50 41/107/50 44/98/51 
f 54/54/50 44/98/51 55/55/51 
f 42/42/52 45/108/52 48/109/52 
f 42/42/52 48/109/52 43/43/52 
f 46/110/53 49/49/53 52/52/53 
f 46/110/53 52/52/53 47/111/53 
f 50/112/54 53/53/54 56/56/55 
f 50/112/54 56/56/55 51/113/55 
f 59/114/56 58/66/56 28/28/56 
f 59/114/56 28/28/56 29/102/56 
f 57/115/57 64/72/57 40/40/58 
f 57/115/57 40/40/58 25/116/58 
f 61/69/59 60/117/59 32/104/59 
f 61/69/59 32/104/59 33/33/59 
f 63/71/60 62/118/61 36/106/62 
f 63/71/60 36/106/62 37/37/62 
f 13/13/63 10/10/63 58/58/63 
f 13/13/63 58/58/63 59/59/63 
f 9/9/64 22/22/64 64/64/64 
f 9/9/64 64/64/64 57/57/65 
f 17/17/66 14/99/66 60/119/66 
f 17/17/66 60/119/66 61/61/66 
f 21/21/67 18/18/67 62/62/67 
f 21/21/67 62/62/67 63/63/67 
f 72/80/68 65/120/68 41/107/68 
f 72/80/68 41/107/68 54/54/68 
f 66/74/69 67/121/69 45/108/70 
f 66/74/69 45/108/70 42/42/70 
f 68/122/71 69/77/71 49/49/72 
f 68/122/71 49/49/72 46/110/73 
f 70/123/74 71/79/74 53/53/74 
f 70/123/74 53/53/74 50/112/74 
f 8/88/75 4/124/75 65/120/75 
f 8/88/75 65/120/75 72/80/75 
f 7/82/76 6/125/77 67/121/78 
f 7/82/76 67/121/78 66/74/78 
f 5/126/79 3/85/79 69/77/80 
f 5/126/79 69/77/80 68/122/80 
f 2/127/81 1/87/81 71/79/81 
f 2/127/81 71/79/81 70/123/81 
f 25/116/82 40/40/82 39/39/83 
f 25/116/82 39/39/83 26/128/83 
f 43/43/84 48/109/84 75/129/85 
f 43/43/84 75/129/85 74/90/85 
f 47/111/86 52/52/86 77/93/87 
f 47/111/86 77/93/87 76/130/87 
f 51/113/88 56/56/88 79/95/89 
f 51/113/88 79/95/89 78/131/89 
f 80/96/39 73/97/39 26/128/83 
f 80/96/39 26/128/83 39/39/83 
f 74/90/85 75/129/85 30/101/43 
f 74/90/85 30/101/43 27/27/43 
f 76/130/87 77/93/87 34/34/46 
f 76/130/87 34/34/46 31/103/46 
f 78/131/89 79/95/89 38/38/48 
f 78/131/89 38/38/48 35/105/48 
f 81/132/90 82/133/90 83/134/90 
f 81/132/90 83/134/90 84/135/90 
f 82/133/91 85/136/91 86/137/91 
f 82/133/91 86/137/91 83/134/91 
f 85/136/92 87/138/92 88/139/92 
f 85/136/92 88/139/92 86/137/92 
f 87/138/93 89/140/93 90/141/94 
f 87/138/93 90/141/94 88/139/94 
f 89/140/95 91/142/95 92/143/95 
f 89/140/95 92/143/95 90/141/95 
f 91/142/96 93/144/96 94/145/97 
f 91/142/96 94/145/97 92/143/97 
f 93/144/98 95/146/98 96/147/98 
f 93/144/98 96/147/98 94/145/98 
f 95/148/99 81/132/99 84/135/99 
f 95/148/99 84/135/99 96/149/99 
f 97/150/5 98/151/5 99/152/5 
f 97/150/5 99/152/5 100/153/5 
f 98/151/100 101/154/100 102/155/100 
f 98/151/100 102/155/100 99/152/100 
f 101/154/4 103/156/4 104/157/4 
f 101/154/4 104/157/4 102/155/4 
f 103/156/101 105/158/101 106/159/101 
f 103/156/101 106/159/101 104/157/101 
f 105/158/3 107/160/3 108/161/3 
f 105/158/3 108/161/3 106/159/3 
f 107/160/102 109/162/102 110/163/102 
f 107/160/102 110/163/102 108/161/102 
f 109/162/103 111/164/103 112/165/103 
f 109/162/103 112/165/103 110/163/103 
f 111/166/104 97/150/104 100/153/104 
f 111/166/104 100/153/104 112/167/104 
f 83/134/105 113/168/105 114/169/105 
f 83/134/105 114/169/105 84/135/105 
f 88/139/106 115/170/106 116/171/106 
f 88/139/106 116/171/106 86/137/106 
f 92/143/107 117/172/107 118/173/107 
f 92/143/107 118/173/107 90/141/107 
f 96/147/108 119/174/108 120/175/108 
f 96/147/108 120/175/108 94/145/108 
f 84/135/109 114/169/110 119/176/109 
f 84/135/109 119/176/109 96/149/111 
f 94/145/112 120/175/113 117/172/113 
f 94/145/112 117/172/113 92/143/112 
f 86/137/114 116/171/115 113/168/114 
f 86/137/114 113/168/114 83/134/116 
f 90/141/117 118/173/118 115/170/117 
f 90/141/117 115/170/117 88/139/117 
f 121/177/5 122/178/5 123/179/5 
f 121/177/5 123/179/5 124/180/5 
f 124/180/119 123/179/119 125/181/119 
f 124/180/119 125/181/119 126/182/119 
f 126/182/4 125/181/4 127/183/4 
f 126/182/4 127/183/4 128/184/4 
f 128/184/120 127/183/120 129/185/120 
f 128/184/120 129/185/120 130/186/120 
f 130/187/3 129/188/3 131/189/3 
f 130/187/3 131/189/3 132/190/3 
f 132/190/121 131/189/121 133/191/121 
f 132/190/121 133/191/121 134/192/121 
f 134/192/2 133/191/2 135/193/2 
f 134/192/2 135/193/2 136/194/2 
f 136/194/122 135/193/122 122/178/122 
f 136/194/122 122/178/122 121/177/122 
f 113/195/123 24/24/124 23/23/125 
f 113/195/123 23/23/125 114/196/126 
f 115/197/127 20/20/128 19/19/129 
f 115/197/127 19/19/129 116/198/130 
f 117/199/131 16/16/132 15/15/133 
f 117/199/131 15/15/133 118/200/134 
f 119/201/135 12/12/136 11/11/137 
f 119/201/135 11/11/137 120/202/138 
f 114/196/126 23/23/125 12/12/136 
f 114/196/126 12/12/136 119/201/135 
f 120/202/138 11/11/137 16/16/132 
f 120/202/138 16/16/132 117/199/131 
f 116/198/130 19/19/129 24/24/124 
f 116/198/130 24/24/124 113/195/123 
f 118/203/134 15/100/133 20/20/128 
f 118/203/134 20/20/128 115/197/127 
f 100/153/1 99/152/1 82/133/1 
f 100/153/1 82/133/1 81/132/1 
f 99/152/1 102/155/1 85/136/1 
f 99/152/1 85/136/1 82/133/1 
f 102/155/1 104/157/1 87/138/1 
f 102/155/1 87/138/1 85/136/1 
f 104/157/1 106/159/1 89/140/1 
f 104/157/1 89/140/1 87/138/1 
f 106/159/1 108/161/1 91/142/1 
f 106/159/1 91/142/1 89/140/1 
f 108/161/1 110/163/1 93/144/1 
f 108/161/1 93/144/1 91/142/1 
f 110/163/1 112/165/1 95/146/1 
f 110/163/1 95/146/1 93/144/1 
f 112/167/1 100/153/1 81/132/1 
f 112/167/1 81/132/1 95/148/1 
f 98/151/139 97/150/139 121/204/139 
f 98/151/139 121/204/139 124/205/139 
f 97/150/139 111/166/139 136/206/139 
f 97/150/139 136/206/139 121/204/139 
f 111/164/139 109/162/139 134/207/139 
f 111/164/139 134/207/139 136/208/139 
f 109/162/139 107/160/139 132/209/139 
f 109/162/139 132/209/139 134/207/139 
f 107/160/139 105/158/139 130/210/139 
f 107/160/139 130/210/139 132/209/139 
f 105/158/139 103/156/139 128/211/139 
f 105/158/139 128/211/139 130/210/139 
f 103/156/139 101/154/139 126/212/139 
f 103/156/139 126/212/139 128/211/139 
f 101/154/139 98/151/139 124/205/139 
f 101/154/139 124/205/139 126/212/139 
# 262 faces

