# 3ds Max Wavefront OBJ Exporter v0.97b - (c)2007 guruware
# File Created: 21.02.2011 11:31:14

#
# object sponza_66
#

v  -101.5577 142.9239 2.9846
v  -97.4646 143.7498 -3.8019
v  100.5850 143.7498 -3.8019
v  106.8442 142.9239 2.9846
v  100.5850 143.7498 -62.1108
v  106.8442 142.9239 -69.7202
v  -97.4646 143.7498 -62.1108
v  -101.5577 142.9239 -69.7202
v  -101.5577 103.0752 2.9846
v  -101.5577 103.0752 -69.7202
v  106.8442 103.0752 2.9846
v  94.3258 103.0752 -10.5884
v  -93.3715 103.0752 -10.5884
v  106.8442 103.0752 -69.7202
v  94.3258 103.0752 -54.5014
v  -93.3715 103.0752 -54.5014
v  -93.3715 142.6205 -10.5884
v  94.3258 142.6205 -10.5884
v  94.3258 142.6205 -54.5014
v  -93.3715 142.6205 -54.5014
# 20 vertices

vn 0.0000 -0.9927 -0.1208
vn -0.1308 -0.9914 -0.0000
vn 0.0000 -0.9942 0.1079
vn 0.1978 -0.9802 -0.0000
vn 1.0000 0.0000 -0.0000
vn 0.0000 1.0000 -0.0000
vn 0.0000 0.0000 -1.0000
vn -1.0000 0.0000 -0.0000
vn 0.0000 0.0000 1.0000
vn 0.0000 -0.9864 0.1641
vn 0.1776 -0.9841 -0.0000
vn 0.0000 -0.9892 -0.1468
vn -0.2660 -0.9640 -0.0000
# 13 vertex normals

vt 0.8033 2.3417 0.0000
vt 0.8899 2.4853 0.0000
vt 5.0805 2.4853 0.0000
vt 5.2130 2.3417 0.0000
vt 5.0805 3.7191 0.0000
vt 5.2130 3.8801 0.0000
vt 0.8899 3.7191 0.0000
vt 0.8033 3.8801 0.0000
vt 0.0000 2.3417 0.0000
vt 0.0000 3.8801 0.0000
vt 0.8033 1.5384 0.0000
vt 5.2130 1.5384 0.0000
vt 4.9481 1.2512 0.0000
vt 0.9765 1.2512 0.0000
vt 5.2130 0.0000 0.0000
vt 4.9481 0.3220 0.0000
vt 0.8033 0.0000 0.0000
vt 0.9765 0.3220 0.0000
vt 6.0163 3.8801 0.0000
vt 6.0163 2.3417 0.0000
vt 0.8033 4.6834 0.0000
vt 5.2130 4.6834 0.0000
vt 0.9765 2.6289 0.0000
vt 4.9481 2.6289 0.0000
vt 4.9481 3.5581 0.0000
vt 0.9765 3.5581 0.0000
# 26 texture coords

g sponza_66
f 1/1/1 2/2/1 3/3/1 
f 1/1/1 3/3/1 4/4/1 
f 4/4/2 3/3/2 5/5/2 
f 4/4/2 5/5/2 6/6/2 
f 5/5/3 7/7/3 8/8/3 
f 5/5/3 8/8/3 6/6/3 
f 7/7/4 2/2/4 1/1/4 
f 7/7/4 1/1/4 8/8/4 
f 9/9/5 10/10/5 8/8/5 
f 9/9/5 8/8/5 1/1/5 
f 9/11/6 11/12/6 12/13/6 
f 9/11/6 12/13/6 13/14/6 
f 11/12/6 14/15/6 15/16/6 
f 11/12/6 15/16/6 12/13/6 
f 10/17/6 16/18/6 15/16/6 
f 10/17/6 15/16/6 14/15/6 
f 9/11/6 13/14/6 16/18/6 
f 9/11/6 16/18/6 10/17/6 
f 11/12/7 9/11/7 1/1/7 
f 11/12/7 1/1/7 4/4/7 
f 14/19/8 11/20/8 4/4/8 
f 14/19/8 4/4/8 6/6/8 
f 10/21/9 14/22/9 6/6/9 
f 10/21/9 6/6/9 8/8/9 
f 2/2/10 17/23/10 18/24/10 
f 2/2/10 18/24/10 3/3/10 
f 3/3/11 18/24/11 19/25/11 
f 3/3/11 19/25/11 5/5/11 
f 19/25/12 20/26/12 7/7/12 
f 19/25/12 7/7/12 5/5/12 
f 20/26/13 17/23/13 2/2/13 
f 20/26/13 2/2/13 7/7/13 
# 32 faces

