# 3ds Max Wavefront OBJ Exporter v0.97b - (c)2007 guruware
# File Created: 21.02.2011 11:31:43

#
# object sponza_257
#

v  6.2583 37.9739 27.9603
v  5.5525 38.3584 28.2442
v  5.5525 46.2753 28.2442
v  6.2583 47.1205 27.9603
v  -4.8562 37.9739 28.6450
v  -4.8562 37.9739 27.9603
v  6.2583 37.9739 28.6450
v  -4.8562 47.1205 28.6450
v  -4.8562 47.1205 27.9603
v  6.2583 47.1205 28.6450
v  -4.1052 38.3583 28.2442
v  -4.1052 46.2753 28.2442
# 12 vertices

vn -0.3731 0.0000 -0.9278
vn 0.0000 -1.0000 -0.0000
vn -1.0000 0.0000 -0.0000
vn 0.0000 1.0000 -0.0000
vn 1.0000 0.0000 -0.0000
vn 0.0000 0.0000 -1.0000
vn 0.0000 -0.3183 -0.9480
vn -0.0000 0.5939 -0.8045
vn 0.0000 0.5939 -0.8045
vn 0.3535 0.0000 -0.9354
# 10 vertex normals

vt 0.0684 0.1763 0.0000
vt 0.0929 0.2085 0.0000
vt 0.0929 0.8714 0.0000
vt 0.0684 0.9037 0.0000
vt 0.9370 0.1190 0.0000
vt 0.9370 0.1763 0.0000
vt 0.0684 0.1190 0.0000
vt 0.9943 0.9037 0.0000
vt 0.9370 0.9037 0.0000
vt 0.9943 0.1763 0.0000
vt 0.0684 0.9610 0.0000
vt 0.9370 0.9610 0.0000
vt 0.0111 0.1763 0.0000
vt 0.0111 0.9037 0.0000
vt 0.9015 0.2085 0.0000
vt 0.9015 0.8714 0.0000
# 16 texture coords

g sponza_257
f 1/1/1 2/2/1 3/3/1 
f 1/1/1 3/3/1 4/4/1 
f 5/5/2 6/6/2 1/1/2 
f 5/5/2 1/1/2 7/7/2 
f 8/8/3 9/9/3 6/6/3 
f 8/8/3 6/6/3 5/10/3 
f 10/11/4 4/4/4 9/9/4 
f 10/11/4 9/9/4 8/12/4 
f 7/13/5 1/1/5 4/4/5 
f 7/13/5 4/4/5 10/14/5 
f 3/3/6 2/2/6 11/15/6 
f 3/3/6 11/15/6 12/16/6 
f 4/4/7 3/3/7 12/16/7 
f 4/4/7 12/16/7 9/9/7 
f 6/6/8 11/15/8 2/2/9 
f 6/6/8 2/2/9 1/1/9 
f 6/6/10 9/9/10 12/16/10 
f 6/6/10 12/16/10 11/15/10 
# 18 faces

