# 3ds Max Wavefront OBJ Exporter v0.97b - (c)2007 guruware
# File Created: 21.02.2011 11:31:08

#
# object sponza_26
#

v  52.7437 81.8330 -4.8564
v  52.8250 81.8330 -4.7750
v  59.7105 81.8330 -4.7750
v  52.8250 81.8330 -11.8221
v  59.7918 81.8330 -4.8564
v  59.7918 81.8330 -11.7408
v  59.7105 81.8330 -11.8221
v  52.7437 81.8330 -11.7408
v  53.5482 78.3371 -11.0923
v  58.9873 78.3371 -11.0923
v  58.9947 64.3350 -11.0923
v  53.5408 64.3350 -11.0923
v  59.0619 78.3371 -11.0178
v  59.0619 78.3371 -5.5794
v  59.0619 64.3350 -5.5720
v  59.0619 64.3350 -11.0252
v  58.9873 78.3371 -5.5048
v  53.5482 78.3371 -5.5048
v  53.5408 64.3350 -5.5048
v  58.9947 64.3350 -5.5048
v  53.4736 78.3371 -5.5794
v  53.4736 78.3371 -11.0178
v  53.4736 64.3350 -11.0252
v  53.4736 64.3350 -5.5720
v  53.4899 78.7239 -11.1493
v  53.4077 79.3704 -11.2269
v  59.1278 79.3704 -11.2269
v  59.0457 78.7239 -11.1493
v  59.1188 78.7239 -11.0761
v  59.1965 79.3704 -11.1583
v  59.1965 79.3704 -5.4389
v  59.1188 78.7239 -5.5211
v  59.0457 78.7239 -5.4479
v  59.1278 79.3704 -5.3703
v  53.4077 79.3704 -5.3703
v  53.4899 78.7239 -5.4479
v  53.4167 78.7239 -5.5211
v  53.3390 79.3704 -5.4389
v  53.3390 79.3704 -11.1583
v  53.4167 78.7239 -11.0761
v  52.8173 81.3967 -11.8221
v  59.7183 81.3967 -11.8221
v  59.7218 80.9604 -11.8221
v  52.8137 80.9604 -11.8221
v  59.7918 81.3967 -11.7486
v  59.7918 81.3967 -4.8486
v  59.7918 80.9604 -4.8451
v  59.7918 80.9604 -11.7521
v  59.7183 81.3967 -4.7750
v  52.8173 81.3967 -4.7750
v  52.8137 80.9604 -4.7750
v  59.7218 80.9604 -4.7750
v  52.7437 81.3967 -4.8486
v  52.7437 81.3967 -11.7486
v  52.7437 80.9604 -11.7521
v  52.7437 80.9604 -4.8451
v  53.3358 78.5305 -11.3119
v  59.1997 78.5305 -11.3119
v  59.2815 78.5305 -11.2301
v  59.2815 78.5305 -5.3671
v  59.1997 78.5305 -5.2852
v  53.3358 78.5305 -5.2852
v  53.2540 78.5305 -5.3671
v  53.2540 78.5305 -11.2301
v  52.6205 81.6149 -12.0267
v  59.9150 81.6149 -12.0267
v  59.9964 81.6149 -11.9454
v  59.9964 81.6149 -4.6518
v  59.9150 81.6149 -4.5705
v  52.6205 81.6149 -4.5705
v  52.5391 81.6149 -4.6518
v  52.5391 81.6149 -11.9454
v  53.1476 80.2703 -11.4897
v  59.3880 80.2703 -11.4897
v  59.4594 80.2703 -11.4184
v  59.4594 80.2703 -5.1788
v  59.3880 80.2703 -5.1074
v  53.1476 80.2703 -5.1074
v  53.0762 80.2703 -5.1788
v  53.0762 80.2703 -11.4184
v  52.7182 63.4848 -11.7624
v  52.7182 63.4848 -4.8348
v  53.4120 64.1772 -5.5119
v  53.4120 64.1772 -11.0853
v  52.8034 63.4848 -4.7495
v  53.4806 64.1772 -5.4433
v  59.7321 63.4848 -4.7495
v  59.0549 64.1772 -5.4433
v  59.8173 63.4848 -4.8348
v  59.1235 64.1772 -5.5119
v  59.8173 63.4848 -11.7624
v  59.1235 64.1772 -11.0853
v  59.7321 63.4848 -11.8477
v  59.0549 64.1772 -11.1539
v  52.8034 63.4848 -11.8477
v  53.4806 64.1772 -11.1539
v  52.5725 63.2498 -11.8227
v  52.5725 63.2498 -4.7745
v  52.5725 63.4848 -4.7745
v  52.5725 63.4848 -11.8227
v  52.7431 63.2498 -4.6038
v  52.7431 63.4848 -4.6038
v  59.7924 63.2498 -4.6038
v  59.7924 63.4848 -4.6038
v  59.9630 63.2498 -4.7744
v  59.9630 63.4848 -4.7744
v  59.9630 63.2498 -11.8227
v  59.9630 63.4848 -11.8227
v  59.7924 63.2498 -11.9933
v  59.7924 63.4848 -11.9933
v  52.7431 63.2498 -11.9933
v  52.7431 63.4848 -11.9933
v  53.3608 64.2561 -5.4619
v  53.3608 64.2561 -11.1353
v  59.1048 64.2561 -5.3921
v  53.4307 64.2561 -5.3921
v  59.1747 64.2561 -11.1353
v  59.1747 64.2561 -5.4619
v  53.4307 64.2561 -11.2051
v  59.1048 64.2561 -11.2051
v  52.7182 63.2498 -11.7624
v  52.7182 63.0147 -11.7624
v  52.7182 63.0147 -4.8348
v  52.7182 63.2498 -4.8348
v  52.8034 63.0147 -4.7495
v  52.8034 63.2498 -4.7495
v  59.7321 63.0147 -4.7495
v  59.7321 63.2498 -4.7495
v  59.8173 63.0147 -4.8348
v  59.8173 63.2498 -4.8348
v  59.8173 63.0147 -11.7624
v  59.8173 63.2498 -11.7624
v  59.7321 63.0147 -11.8477
v  59.7321 63.2498 -11.8477
v  52.8034 63.0147 -11.8477
v  52.8034 63.2498 -11.8477
# 136 vertices

vn 0.0000 1.0000 -0.0000
vn 0.0000 0.0000 -1.0000
vn 1.0000 0.0000 -0.0000
vn 0.0000 0.0000 1.0000
vn -1.0000 0.0000 -0.0000
vn 0.0000 -0.1192 -0.9929
vn 0.0000 -0.2102 -0.9777
vn 0.9929 -0.1192 -0.0000
vn 0.9777 -0.2102 -0.0000
vn 0.0000 -0.1192 0.9929
vn 0.0000 -0.2102 0.9777
vn -0.9929 -0.1192 -0.0000
vn -0.9777 -0.2102 -0.0000
vn 0.0000 -0.7504 -0.6610
vn 0.6609 -0.7504 -0.0000
vn 0.0000 -0.7504 0.6610
vn -0.6610 -0.7504 -0.0000
vn 0.0000 0.6436 -0.7653
vn 0.7653 0.6436 -0.0000
vn 0.0000 0.6436 0.7653
vn -0.7653 0.6436 -0.0000
vn 0.0000 -0.6840 -0.7295
vn 0.7294 -0.6840 -0.0000
vn 0.0000 -0.6840 0.7295
vn -0.7294 -0.6840 -0.0000
vn 0.0000 0.6840 -0.7295
vn 0.7294 0.6840 -0.0000
vn 0.0000 0.6840 0.7295
vn -0.7294 0.6840 -0.0000
vn 0.0000 -0.3743 -0.9273
vn 0.0000 -0.4339 -0.9009
vn 0.9273 -0.3744 -0.0000
vn 0.9009 -0.4340 -0.0000
vn 0.0000 -0.3743 0.9273
vn 0.0000 -0.4339 0.9009
vn -0.9273 -0.3744 -0.0000
vn -0.9009 -0.4340 -0.0000
vn 0.7070 0.0004 -0.7072
vn 0.7072 0.0004 -0.7070
vn -0.6224 -0.4745 -0.6224
vn -0.6224 -0.4746 -0.6224
vn -0.5840 -0.5638 -0.5840
vn 0.7070 0.0004 0.7072
vn 0.7072 0.0004 0.7070
vn -0.7070 0.0004 0.7072
vn -0.7071 0.0004 0.7071
vn 0.6792 -0.2777 -0.6794
vn 0.6965 -0.1722 -0.6966
vn -0.7071 0.0004 -0.7071
vn -0.7070 0.0004 -0.7072
vn 0.6792 -0.2777 0.6794
vn 0.6965 -0.1722 0.6966
vn -0.6793 -0.2777 0.6793
vn -0.6965 -0.1722 0.6966
vn -0.7071 0.0057 -0.7071
vn 0.7071 0.0057 -0.7071
vn 0.7071 0.0057 0.7071
vn -0.7071 0.0057 0.7071
vn 0.4622 0.7568 -0.4622
vn -0.4622 0.7568 -0.4622
vn 0.4622 0.7568 0.4622
vn -0.4622 0.7568 0.4622
vn 0.3783 -0.8449 -0.3783
vn -0.3783 -0.8449 -0.3783
vn 0.3783 -0.8449 0.3783
vn -0.3783 -0.8449 0.3783
vn -0.4309 -0.7928 -0.4310
vn 0.4309 -0.7928 -0.4310
vn 0.4309 -0.7928 0.4310
vn -0.4309 -0.7928 0.4310
vn -0.4257 0.7984 -0.4258
vn 0.4257 0.7984 -0.4258
vn 0.4257 0.7984 0.4258
vn -0.4257 0.7984 0.4258
vn -0.6965 -0.1722 -0.6966
vn -0.6793 -0.2777 -0.6793
vn 0.5840 -0.5638 -0.5840
vn 0.6224 -0.4746 -0.6225
vn 0.6224 -0.4745 -0.6225
vn 0.5840 -0.5638 0.5840
vn 0.6224 -0.4745 0.6224
vn 0.6224 -0.4746 0.6224
vn -0.5840 -0.5638 0.5840
vn -0.6224 -0.4746 0.6224
vn -0.6224 -0.4745 0.6224
vn -0.7063 0.7079 -0.0000
vn -0.4110 0.8138 0.4110
vn -0.4109 0.8138 0.4110
vn 0.0000 0.7078 0.7064
vn 0.4110 0.8138 0.4110
vn 0.4109 0.8138 0.4110
vn 0.7063 0.7079 -0.0000
vn 0.4110 0.8138 -0.4110
vn 0.0000 0.7078 -0.7064
vn -0.4110 0.8138 -0.4109
vn -0.4109 0.8138 -0.4110
vn -0.7071 0.0000 0.7071
vn 0.7071 0.0000 0.7071
vn 0.7071 0.0000 -0.7071
vn -0.7071 0.0000 -0.7071
vn -0.8389 -0.5443 -0.0000
vn 0.0000 -0.5443 0.8389
vn 0.8389 -0.5443 -0.0000
vn 0.0000 -0.5443 -0.8389
vn -0.5239 -0.6716 -0.5239
vn -0.5240 -0.6715 -0.5239
vn -0.5239 -0.6715 -0.5239
vn 0.5240 -0.6715 -0.5239
vn -0.5239 -0.6715 0.5239
vn -0.5239 -0.6716 0.5239
vn -0.5239 -0.6715 0.5240
vn 0.5240 -0.6715 0.5239
vn -0.4187 0.8847 0.2052
vn -0.4772 0.8686 0.1336
vn -0.4772 0.8686 -0.1336
vn -0.4187 0.8847 -0.2052
vn 0.2052 0.8847 0.4187
vn 0.1337 0.8686 0.4772
vn -0.1337 0.8686 0.4772
vn -0.2052 0.8847 0.4187
vn 0.4187 0.8847 -0.2052
vn 0.4772 0.8686 -0.1336
vn 0.4772 0.8686 0.1336
vn 0.4187 0.8847 0.2052
vn -0.2052 0.8847 -0.4187
vn -0.1337 0.8686 -0.4772
vn 0.1337 0.8686 -0.4772
vn 0.2052 0.8847 -0.4187
vn 0.0000 -1.0000 -0.0000
# 129 vertex normals

vt 0.1674 0.8760 0.0000
vt 0.1655 0.8746 0.0000
vt 0.0109 0.8746 0.0000
vt 0.1655 0.9938 0.0000
vt 0.0091 0.8760 0.0000
vt 0.0091 0.9924 0.0000
vt 0.0109 0.9938 0.0000
vt 0.1674 0.9924 0.0000
vt 0.5006 0.7672 0.0000
vt 0.7418 0.7672 0.0000
vt 0.7421 0.0122 0.0000
vt 0.5003 0.0122 0.0000
vt 0.7451 0.7672 0.0000
vt 0.9865 0.7672 0.0000
vt 0.9868 0.0122 0.0000
vt 0.7451 0.0122 0.0000
vt 0.0113 0.7672 0.0000
vt 0.2525 0.7672 0.0000
vt 0.2528 0.0122 0.0000
vt 0.0109 0.0122 0.0000
vt 0.2558 0.7672 0.0000
vt 0.4971 0.7672 0.0000
vt 0.4975 0.0122 0.0000
vt 0.2558 0.0122 0.0000
vt 0.1939 0.8885 0.0000
vt 0.1916 0.9089 0.0000
vt 0.3477 0.9089 0.0000
vt 0.3455 0.8885 0.0000
vt 0.3988 0.8881 0.0000
vt 0.3965 0.9084 0.0000
vt 0.5526 0.9084 0.0000
vt 0.5504 0.8881 0.0000
vt 0.6076 0.8897 0.0000
vt 0.6053 0.9100 0.0000
vt 0.7614 0.9100 0.0000
vt 0.7592 0.8897 0.0000
vt 0.8121 0.8892 0.0000
vt 0.8098 0.9096 0.0000
vt 0.9659 0.9096 0.0000
vt 0.9637 0.8892 0.0000
vt 0.1755 0.9726 0.0000
vt 0.3638 0.9726 0.0000
vt 0.3639 0.9589 0.0000
vt 0.1754 0.9589 0.0000
vt 0.3804 0.9721 0.0000
vt 0.5687 0.9721 0.0000
vt 0.5688 0.9584 0.0000
vt 0.3803 0.9584 0.0000
vt 0.5892 0.9737 0.0000
vt 0.7775 0.9737 0.0000
vt 0.7776 0.9600 0.0000
vt 0.5891 0.9600 0.0000
vt 0.7937 0.9733 0.0000
vt 0.9820 0.9733 0.0000
vt 0.9821 0.9596 0.0000
vt 0.7936 0.9596 0.0000
vt 0.5005 0.7793 0.0000
vt 0.7418 0.7790 0.0000
vt 0.7453 0.7792 0.0000
vt 0.9959 0.7791 0.0000
vt 0.0111 0.7790 0.0000
vt 0.2524 0.7790 0.0000
vt 0.2559 0.7790 0.0000
vt 0.4969 0.7793 0.0000
vt 0.1897 0.8825 0.0000
vt 0.3497 0.8825 0.0000
vt 0.3946 0.8820 0.0000
vt 0.5546 0.8820 0.0000
vt 0.6034 0.8836 0.0000
vt 0.7634 0.8836 0.0000
vt 0.8079 0.8832 0.0000
vt 0.9679 0.8832 0.0000
vt 0.1701 0.9794 0.0000
vt 0.3692 0.9794 0.0000
vt 0.3751 0.9790 0.0000
vt 0.5741 0.9790 0.0000
vt 0.5839 0.9806 0.0000
vt 0.7829 0.9806 0.0000
vt 0.7884 0.9801 0.0000
vt 0.9874 0.9801 0.0000
vt 0.1757 0.9863 0.0000
vt 0.3636 0.9863 0.0000
vt 0.3806 0.9859 0.0000
vt 0.5685 0.9859 0.0000
vt 0.5894 0.9875 0.0000
vt 0.7773 0.9875 0.0000
vt 0.7939 0.9870 0.0000
vt 0.9818 0.9870 0.0000
vt 0.1845 0.9372 0.0000
vt 0.3548 0.9372 0.0000
vt 0.3894 0.9367 0.0000
vt 0.5597 0.9367 0.0000
vt 0.5982 0.9383 0.0000
vt 0.7685 0.9383 0.0000
vt 0.8027 0.9379 0.0000
vt 0.9730 0.9379 0.0000
vt 0.9754 0.9368 0.0000
vt 0.9849 0.9589 0.0000
vt 0.0079 0.7672 0.0000
vt 0.0079 0.0122 0.0000
vt 0.3503 0.9083 0.0000
vt 0.3480 0.8895 0.0000
vt 0.6028 0.9094 0.0000
vt 0.6050 0.8907 0.0000
vt 0.8073 0.9090 0.0000
vt 0.8095 0.8902 0.0000
vt 0.9848 0.9721 0.0000
vt 0.3663 0.9714 0.0000
vt 0.3665 0.9582 0.0000
vt 0.5867 0.9726 0.0000
vt 0.5865 0.9593 0.0000
vt 0.7912 0.9721 0.0000
vt 0.7910 0.9589 0.0000
vt 0.3523 0.8850 0.0000
vt 0.9705 0.8857 0.0000
vt 0.9664 0.8902 0.0000
vt 0.6007 0.8862 0.0000
vt 0.8052 0.8857 0.0000
vt 0.0078 0.7789 0.0000
vt 0.9907 0.9801 0.0000
vt 0.3716 0.9794 0.0000
vt 0.5815 0.9806 0.0000
vt 0.7860 0.9801 0.0000
vt 0.9842 0.9896 0.0000
vt 0.3660 0.9889 0.0000
vt 0.5871 0.9900 0.0000
vt 0.7916 0.9896 0.0000
vt 0.9686 0.9090 0.0000
vt 0.3574 0.9360 0.0000
vt 0.5957 0.9372 0.0000
vt 0.8002 0.9367 0.0000
vt 0.9787 0.8440 0.0000
vt 0.7407 0.8440 0.0000
vt 0.7521 0.8673 0.0000
vt 0.9674 0.8673 0.0000
vt 0.7344 0.8440 0.0000
vt 0.7231 0.8673 0.0000
vt 0.4964 0.8440 0.0000
vt 0.5077 0.8685 0.0000
vt 0.4900 0.8440 0.0000
vt 0.4787 0.8685 0.0000
vt 0.2521 0.8440 0.0000
vt 0.2634 0.8683 0.0000
vt 0.2457 0.8440 0.0000
vt 0.2344 0.8683 0.0000
vt 0.0095 0.8447 0.0000
vt 0.0185 0.8682 0.0000
vt 0.9833 0.8433 0.0000
vt 0.9830 0.8665 0.0000
vt 0.9790 0.8318 0.0000
vt 0.7404 0.8318 0.0000
vt 0.7404 0.8398 0.0000
vt 0.9790 0.8398 0.0000
vt 0.7347 0.8318 0.0000
vt 0.7347 0.8398 0.0000
vt 0.4961 0.8318 0.0000
vt 0.4961 0.8398 0.0000
vt 0.4903 0.8318 0.0000
vt 0.4903 0.8398 0.0000
vt 0.2518 0.8318 0.0000
vt 0.2518 0.8398 0.0000
vt 0.2460 0.8318 0.0000
vt 0.2460 0.8398 0.0000
vt 0.0075 0.8318 0.0000
vt 0.0075 0.8398 0.0000
vt 0.9847 0.8318 0.0000
vt 0.9847 0.8398 0.0000
vt 0.7512 0.8699 0.0000
vt 0.9682 0.8705 0.0000
vt 0.5069 0.8711 0.0000
vt 0.7239 0.8699 0.0000
vt 0.2626 0.8709 0.0000
vt 0.4796 0.8711 0.0000
vt 0.0168 0.8708 0.0000
vt 0.2352 0.8709 0.0000
vt 0.9830 0.8702 0.0000
vt 0.5036 0.8097 0.0000
vt 0.5036 0.8179 0.0000
vt 0.7450 0.8179 0.0000
vt 0.7450 0.8097 0.0000
vt 0.7479 0.8179 0.0000
vt 0.7479 0.8097 0.0000
vt 0.9893 0.8179 0.0000
vt 0.9893 0.8097 0.0000
vt 0.9922 0.8179 0.0000
vt 0.9922 0.8097 0.0000
vt 0.0150 0.8097 0.0000
vt 0.0150 0.8179 0.0000
vt 0.2564 0.8179 0.0000
vt 0.2564 0.8097 0.0000
vt 0.2593 0.8179 0.0000
vt 0.2593 0.8097 0.0000
vt 0.5007 0.8179 0.0000
vt 0.5007 0.8097 0.0000
vt 0.2557 0.0062 0.0000
vt 0.4974 0.0062 0.0000
vt 0.0110 0.0062 0.0000
vt 0.2527 0.0062 0.0000
vt 0.7450 0.0062 0.0000
vt 0.9917 0.0062 0.0000
vt 0.5002 0.0062 0.0000
vt 0.7420 0.0062 0.0000
vt 0.0079 0.0062 0.0000
vt 0.9787 0.8276 0.0000
vt 0.7407 0.8276 0.0000
vt 0.9833 0.8276 0.0000
vt 0.2457 0.8276 0.0000
vt 0.0095 0.8276 0.0000
vt 0.2521 0.8276 0.0000
vt 0.4900 0.8276 0.0000
vt 0.4964 0.8276 0.0000
vt 0.7344 0.8276 0.0000
# 212 texture coords

g sponza_26
f 1/1/1 2/2/1 3/3/1 
f 1/1/1 3/3/1 4/4/1 
f 3/3/1 5/5/1 6/6/1 
f 3/3/1 6/6/1 4/4/1 
f 6/6/1 7/7/1 4/4/1 
f 8/8/1 1/1/1 4/4/1 
f 9/9/2 10/10/2 11/11/2 
f 9/9/2 11/11/2 12/12/2 
f 13/13/3 14/14/3 15/15/3 
f 13/13/3 15/15/3 16/16/3 
f 17/17/4 18/18/4 19/19/4 
f 17/17/4 19/19/4 20/20/4 
f 21/21/5 22/22/5 23/23/5 
f 21/21/5 23/23/5 24/24/5 
f 25/25/6 26/26/7 27/27/7 
f 25/25/6 27/27/7 28/28/6 
f 29/29/8 30/30/9 31/31/9 
f 29/29/8 31/31/9 32/32/8 
f 33/33/10 34/34/11 35/35/11 
f 33/33/10 35/35/11 36/36/10 
f 37/37/12 38/38/13 39/39/13 
f 37/37/12 39/39/13 40/40/12 
f 41/41/2 42/42/2 43/43/2 
f 41/41/2 43/43/2 44/44/2 
f 45/45/3 46/46/3 47/47/3 
f 45/45/3 47/47/3 48/48/3 
f 49/49/4 50/50/4 51/51/4 
f 49/49/4 51/51/4 52/52/4 
f 53/53/5 54/54/5 55/55/5 
f 53/53/5 55/55/5 56/56/5 
f 9/9/14 57/57/14 58/58/14 
f 9/9/14 58/58/14 10/10/14 
f 13/13/15 59/59/15 60/60/15 
f 13/13/15 60/60/15 14/14/15 
f 17/17/16 61/61/16 62/62/16 
f 17/17/16 62/62/16 18/18/16 
f 21/21/17 63/63/17 64/64/17 
f 21/21/17 64/64/17 22/22/17 
f 57/65/18 25/25/18 28/28/18 
f 57/65/18 28/28/18 58/66/18 
f 59/67/19 29/29/19 32/32/19 
f 59/67/19 32/32/19 60/68/19 
f 61/69/20 33/33/20 36/36/20 
f 61/69/20 36/36/20 62/70/20 
f 63/71/21 37/37/21 40/40/21 
f 63/71/21 40/40/21 64/72/21 
f 41/41/22 65/73/22 66/74/22 
f 41/41/22 66/74/22 42/42/22 
f 45/45/23 67/75/23 68/76/23 
f 45/45/23 68/76/23 46/46/23 
f 49/49/24 69/77/24 70/78/24 
f 49/49/24 70/78/24 50/50/24 
f 53/53/25 71/79/25 72/80/25 
f 53/53/25 72/80/25 54/54/25 
f 65/73/26 4/81/26 7/82/26 
f 65/73/26 7/82/26 66/74/26 
f 67/75/27 6/83/27 5/84/27 
f 67/75/27 5/84/27 68/76/27 
f 69/77/28 3/85/28 2/86/28 
f 69/77/28 2/86/28 70/78/28 
f 71/79/29 1/87/29 8/88/29 
f 71/79/29 8/88/29 72/80/29 
f 73/89/30 44/44/31 43/43/31 
f 73/89/30 43/43/31 74/90/30 
f 75/91/32 48/48/33 47/47/33 
f 75/91/32 47/47/33 76/92/32 
f 77/93/34 52/52/35 51/51/35 
f 77/93/34 51/51/35 78/94/34 
f 79/95/36 56/56/37 55/55/37 
f 79/95/36 55/55/37 80/96/36 
f 26/26/7 73/89/30 74/90/30 
f 26/26/7 74/90/30 27/27/7 
f 30/30/9 75/91/32 76/92/32 
f 30/30/9 76/92/32 31/31/9 
f 34/34/11 77/93/34 78/94/34 
f 34/34/11 78/94/34 35/35/11 
f 38/38/13 79/95/36 80/96/36 
f 38/38/13 80/96/36 39/39/13 
f 10/10/38 13/13/38 16/16/39 
f 10/10/38 16/16/39 11/11/39 
f 73/97/40 80/96/41 55/55/42 
f 73/97/40 55/55/42 44/98/42 
f 14/99/43 17/17/43 20/20/44 
f 14/99/43 20/20/44 15/100/44 
f 18/18/45 21/21/45 24/24/46 
f 18/18/45 24/24/46 19/19/46 
f 27/27/47 30/101/47 29/102/48 
f 27/27/47 29/102/48 28/28/48 
f 12/12/49 23/23/49 22/22/50 
f 12/12/49 22/22/50 9/9/50 
f 31/103/51 34/34/51 33/33/52 
f 31/103/51 33/33/52 32/104/52 
f 35/105/53 38/38/53 37/37/54 
f 35/105/53 37/37/54 36/106/54 
f 54/54/55 41/107/55 44/98/55 
f 54/54/55 44/98/55 55/55/55 
f 42/42/56 45/108/56 48/109/56 
f 42/42/56 48/109/56 43/43/56 
f 46/110/57 49/49/57 52/52/57 
f 46/110/57 52/52/57 47/111/57 
f 50/112/58 53/53/58 56/56/58 
f 50/112/58 56/56/58 51/113/58 
f 59/114/59 58/66/59 28/28/59 
f 59/114/59 28/28/59 29/102/59 
f 57/115/60 64/72/60 40/40/60 
f 57/115/60 40/40/60 25/116/60 
f 61/69/61 60/117/61 32/104/61 
f 61/69/61 32/104/61 33/33/61 
f 63/71/62 62/118/62 36/106/62 
f 63/71/62 36/106/62 37/37/62 
f 13/13/63 10/10/63 58/58/63 
f 13/13/63 58/58/63 59/59/63 
f 9/9/64 22/22/64 64/64/64 
f 9/9/64 64/64/64 57/57/64 
f 17/17/65 14/99/65 60/119/65 
f 17/17/65 60/119/65 61/61/65 
f 21/21/66 18/18/66 62/62/66 
f 21/21/66 62/62/66 63/63/66 
f 72/80/67 65/120/67 41/107/67 
f 72/80/67 41/107/67 54/54/67 
f 66/74/68 67/121/68 45/108/68 
f 66/74/68 45/108/68 42/42/68 
f 68/122/69 69/77/69 49/49/69 
f 68/122/69 49/49/69 46/110/69 
f 70/123/70 71/79/70 53/53/70 
f 70/123/70 53/53/70 50/112/70 
f 8/88/71 4/124/71 65/120/71 
f 8/88/71 65/120/71 72/80/71 
f 7/82/72 6/125/72 67/121/72 
f 7/82/72 67/121/72 66/74/72 
f 5/126/73 3/85/73 69/77/73 
f 5/126/73 69/77/73 68/122/73 
f 2/127/74 1/87/74 71/79/74 
f 2/127/74 71/79/74 70/123/74 
f 25/116/75 40/40/75 39/39/76 
f 25/116/75 39/39/76 26/128/76 
f 43/43/77 48/109/77 75/129/78 
f 43/43/77 75/129/78 74/90/79 
f 47/111/80 52/52/80 77/93/81 
f 47/111/80 77/93/81 76/130/82 
f 51/113/83 56/56/83 79/95/84 
f 51/113/83 79/95/84 78/131/85 
f 80/96/41 73/97/40 26/128/76 
f 80/96/41 26/128/76 39/39/76 
f 74/90/79 75/129/78 30/101/47 
f 74/90/79 30/101/47 27/27/47 
f 76/130/82 77/93/81 34/34/51 
f 76/130/82 34/34/51 31/103/51 
f 78/131/85 79/95/84 38/38/53 
f 78/131/85 38/38/53 35/105/53 
f 81/132/86 82/133/86 83/134/86 
f 81/132/86 83/134/86 84/135/86 
f 82/133/87 85/136/87 86/137/88 
f 82/133/87 86/137/88 83/134/88 
f 85/136/89 87/138/89 88/139/89 
f 85/136/89 88/139/89 86/137/89 
f 87/138/90 89/140/90 90/141/91 
f 87/138/90 90/141/91 88/139/91 
f 89/140/92 91/142/92 92/143/92 
f 89/140/92 92/143/92 90/141/92 
f 91/142/93 93/144/93 94/145/93 
f 91/142/93 94/145/93 92/143/93 
f 93/144/94 95/146/94 96/147/94 
f 93/144/94 96/147/94 94/145/94 
f 95/148/95 81/132/95 84/135/96 
f 95/148/95 84/135/96 96/149/96 
f 97/150/5 98/151/5 99/152/5 
f 97/150/5 99/152/5 100/153/5 
f 98/151/97 101/154/97 102/155/97 
f 98/151/97 102/155/97 99/152/97 
f 101/154/4 103/156/4 104/157/4 
f 101/154/4 104/157/4 102/155/4 
f 103/156/98 105/158/98 106/159/98 
f 103/156/98 106/159/98 104/157/98 
f 105/158/3 107/160/3 108/161/3 
f 105/158/3 108/161/3 106/159/3 
f 107/160/99 109/162/99 110/163/99 
f 107/160/99 110/163/99 108/161/99 
f 109/162/2 111/164/2 112/165/2 
f 109/162/2 112/165/2 110/163/2 
f 111/166/100 97/150/100 100/153/100 
f 111/166/100 100/153/100 112/167/100 
f 83/134/101 113/168/101 114/169/101 
f 83/134/101 114/169/101 84/135/101 
f 88/139/102 115/170/102 116/171/102 
f 88/139/102 116/171/102 86/137/102 
f 92/143/103 117/172/103 118/173/103 
f 92/143/103 118/173/103 90/141/103 
f 96/147/104 119/174/104 120/175/104 
f 96/147/104 120/175/104 94/145/104 
f 84/135/105 114/169/106 119/176/107 
f 84/135/105 119/176/107 96/149/105 
f 94/145/108 120/175/108 117/172/108 
f 94/145/108 117/172/108 92/143/108 
f 86/137/109 116/171/110 113/168/110 
f 86/137/109 113/168/110 83/134/111 
f 90/141/112 118/173/112 115/170/112 
f 90/141/112 115/170/112 88/139/112 
f 121/177/5 122/178/5 123/179/5 
f 121/177/5 123/179/5 124/180/5 
f 124/180/97 123/179/97 125/181/97 
f 124/180/97 125/181/97 126/182/97 
f 126/182/4 125/181/4 127/183/4 
f 126/182/4 127/183/4 128/184/4 
f 128/184/98 127/183/98 129/185/98 
f 128/184/98 129/185/98 130/186/98 
f 130/187/3 129/188/3 131/189/3 
f 130/187/3 131/189/3 132/190/3 
f 132/190/99 131/189/99 133/191/99 
f 132/190/99 133/191/99 134/192/99 
f 134/192/2 133/191/2 135/193/2 
f 134/192/2 135/193/2 136/194/2 
f 136/194/100 135/193/100 122/178/100 
f 136/194/100 122/178/100 121/177/100 
f 113/195/113 24/24/114 23/23/115 
f 113/195/113 23/23/115 114/196/116 
f 115/197/117 20/20/118 19/19/119 
f 115/197/117 19/19/119 116/198/120 
f 117/199/121 16/16/122 15/15/123 
f 117/199/121 15/15/123 118/200/124 
f 119/201/125 12/12/126 11/11/127 
f 119/201/125 11/11/127 120/202/128 
f 114/196/116 23/23/115 12/12/126 
f 114/196/116 12/12/126 119/201/125 
f 120/202/128 11/11/127 16/16/122 
f 120/202/128 16/16/122 117/199/121 
f 116/198/120 19/19/119 24/24/114 
f 116/198/120 24/24/114 113/195/113 
f 118/203/124 15/100/123 20/20/118 
f 118/203/124 20/20/118 115/197/117 
f 100/153/1 99/152/1 82/133/1 
f 100/153/1 82/133/1 81/132/1 
f 99/152/1 102/155/1 85/136/1 
f 99/152/1 85/136/1 82/133/1 
f 102/155/1 104/157/1 87/138/1 
f 102/155/1 87/138/1 85/136/1 
f 104/157/1 106/159/1 89/140/1 
f 104/157/1 89/140/1 87/138/1 
f 106/159/1 108/161/1 91/142/1 
f 106/159/1 91/142/1 89/140/1 
f 108/161/1 110/163/1 93/144/1 
f 108/161/1 93/144/1 91/142/1 
f 110/163/1 112/165/1 95/146/1 
f 110/163/1 95/146/1 93/144/1 
f 112/167/1 100/153/1 81/132/1 
f 112/167/1 81/132/1 95/148/1 
f 98/151/129 97/150/129 121/204/129 
f 98/151/129 121/204/129 124/205/129 
f 97/150/129 111/166/129 136/206/129 
f 97/150/129 136/206/129 121/204/129 
f 111/164/129 109/162/129 134/207/129 
f 111/164/129 134/207/129 136/208/129 
f 109/162/129 107/160/129 132/209/129 
f 109/162/129 132/209/129 134/207/129 
f 107/160/129 105/158/129 130/210/129 
f 107/160/129 130/210/129 132/209/129 
f 105/158/129 103/156/129 128/211/129 
f 105/158/129 128/211/129 130/210/129 
f 103/156/129 101/154/129 126/212/129 
f 103/156/129 126/212/129 128/211/129 
f 101/154/129 98/151/129 124/205/129 
f 101/154/129 124/205/129 126/212/129 
# 262 faces

