# 3ds Max Wavefront OBJ Exporter v0.97b - (c)2007 guruware
# File Created: 21.02.2011 11:31:35

#
# object sponza_209
#

v  40.1825 79.7131 -8.8914
v  40.1825 79.7131 -7.9689
v  39.0236 79.7131 -7.9689
v  39.0236 79.7131 -8.8914
v  39.0236 81.0227 -7.9689
v  40.5237 81.0227 -7.9689
v  40.5237 81.0227 -8.8914
v  39.0236 81.0227 -8.8914
v  40.2991 79.9036 -8.8914
v  40.2991 79.9036 -7.9689
v  40.5237 80.0071 -7.9689
v  40.5237 80.0071 -8.8914
# 12 vertices

vn 0.0000 -1.0000 -0.0000
vn 0.0000 1.0000 -0.0000
vn 0.0000 0.0000 -1.0000
vn 0.8527 -0.5224 -0.0000
vn 0.6642 -0.7475 -0.0000
vn 0.0000 0.0000 1.0000
vn 1.0000 0.0000 -0.0000
vn 0.4185 -0.9082 -0.0000
# 8 vertex normals

vt 0.6529 0.9132 0.0000
vt 0.5979 0.9132 0.0000
vt 0.5979 0.9823 0.0000
vt 0.6529 0.9823 0.0000
vt 0.5979 0.7366 0.0000
vt 0.5979 0.8260 0.0000
vt 0.6529 0.8260 0.0000
vt 0.6529 0.7366 0.0000
vt 0.5153 0.8138 0.0000
vt 0.5153 0.8829 0.0000
vt 0.5266 0.8068 0.0000
vt 0.6529 0.8999 0.0000
vt 0.5979 0.8999 0.0000
vt 0.5866 0.9063 0.0000
vt 0.5933 0.8829 0.0000
vt 0.5933 0.7934 0.0000
vt 0.5979 0.8865 0.0000
vt 0.6529 0.8865 0.0000
vt 0.5198 0.9823 0.0000
vt 0.5199 0.8929 0.0000
vt 0.5328 0.7934 0.0000
vt 0.5804 0.8929 0.0000
# 22 texture coords

g sponza_209
f 1/1/1 2/2/1 3/3/1 
f 1/1/1 3/3/1 4/4/1 
f 5/5/2 6/6/2 7/7/2 
f 5/5/2 7/7/2 8/8/2 
f 1/9/3 4/10/3 9/11/3 
f 1/1/4 9/12/5 10/13/5 
f 1/1/4 10/13/5 2/2/4 
f 2/2/6 10/14/6 3/3/6 
f 9/11/3 4/10/3 8/15/3 
f 9/11/3 8/15/3 7/16/3 
f 11/17/7 12/18/7 7/7/7 
f 11/17/7 7/7/7 6/6/7 
f 5/19/6 3/3/6 10/14/6 
f 5/19/6 10/14/6 6/20/6 
f 7/16/3 12/21/3 9/11/3 
f 12/18/8 11/17/8 10/13/5 
f 12/18/8 10/13/5 9/12/5 
f 10/14/6 11/22/6 6/20/6 
# 18 faces

