# 3ds Max Wavefront OBJ Exporter v0.97b - (c)2007 guruware
# File Created: 21.02.2011 11:31:12

#
# object sponza_52
#

v  -19.3767 138.4495 -10.6784
v  -19.3767 138.4495 -9.1287
v  -19.7532 138.3486 -9.1287
v  -19.7532 138.3486 -10.6784
v  -20.0288 138.0730 -9.1287
v  -20.0288 138.0730 -10.6784
v  -20.1296 137.6966 -9.1287
v  -20.1296 137.6966 -10.6784
v  -20.0635 137.4496 -9.1287
v  -20.0635 137.4496 -10.6784
v  -20.6869 137.4149 -10.6784
v  -20.6869 137.4149 -9.1287
v  -20.9624 137.1394 -9.1287
v  -20.9624 137.1394 -10.6784
v  -20.3104 137.5158 -10.6784
v  -20.3104 137.5158 -9.1287
v  -19.0002 138.3486 -10.6784
v  -19.0002 138.3486 -9.1287
v  -18.7246 138.0730 -10.6784
v  -18.7246 138.0730 -9.1287
v  -18.6237 137.6966 -10.6784
v  -18.6237 137.6966 -9.1287
v  -18.6899 137.4496 -10.6784
v  -18.6899 137.4496 -9.1287
v  -17.6939 136.7771 -10.6784
v  -17.6939 136.7771 -9.1287
v  -17.7909 137.1394 -9.1287
v  -17.7909 137.1394 -10.6784
v  -18.0665 137.4149 -9.1287
v  -18.0665 137.4149 -10.6784
v  -18.4429 137.5158 -9.1287
v  -18.4429 137.5158 -10.6784
v  -21.0595 136.7771 -9.1287
v  -21.0595 136.7771 -10.6784
v  -19.7532 135.2056 -10.6784
v  -19.7532 135.2056 -9.1287
v  -19.3767 135.1048 -9.1287
v  -19.3767 135.1048 -10.6784
v  -20.0288 135.4812 -10.6784
v  -20.0288 135.4812 -9.1287
v  -20.1296 135.8577 -10.6784
v  -20.1296 135.8577 -9.1287
v  -20.0635 136.1046 -10.6784
v  -20.0635 136.1046 -9.1287
v  -20.9624 136.4149 -10.6784
v  -20.9624 136.4149 -9.1287
v  -20.6869 136.1393 -9.1287
v  -20.6869 136.1393 -10.6784
v  -20.3104 136.0384 -9.1287
v  -20.3104 136.0384 -10.6784
v  -19.0002 135.2056 -9.1287
v  -19.0002 135.2056 -10.6784
v  -18.7246 135.4812 -9.1287
v  -18.7246 135.4812 -10.6784
v  -18.6237 135.8577 -9.1287
v  -18.6237 135.8577 -10.6784
v  -18.6899 136.1046 -9.1287
v  -18.6899 136.1046 -10.6784
v  -18.0665 136.1393 -10.6784
v  -18.0665 136.1393 -9.1287
v  -17.7909 136.4149 -9.1287
v  -17.7909 136.4149 -10.6784
v  -18.4429 136.0384 -10.6784
v  -18.4429 136.0384 -9.1287
v  -17.7084 136.1721 -10.6784
v  -18.0835 135.5588 -10.6784
v  -18.6714 135.1451 -10.6784
v  -17.6080 136.8839 -10.6784
v  -17.7737 137.5260 -10.6784
v  -18.1639 138.0621 -10.6784
v  -18.7240 138.4171 -10.6784
v  -19.3753 138.5412 -10.6784
v  -20.0267 138.4171 -10.6784
v  -20.5867 138.0621 -10.6784
v  -20.9769 137.5260 -10.6784
v  -21.1427 136.8839 -10.6784
v  -21.0422 136.1721 -10.6784
v  -20.6672 135.5588 -10.6784
v  -20.0792 135.1451 -10.6784
v  -19.3753 134.9992 -10.6784
# 80 vertices

vn -0.0000 -1.0000 -0.0000
vn 0.0000 -1.0000 -0.0000
vn 0.5000 -0.8661 -0.0000
vn 0.8660 -0.5000 -0.0000
vn 1.0000 0.0000 -0.0000
vn 0.9659 0.2588 -0.0000
vn 0.5000 -0.8660 -0.0000
vn -0.2588 -0.9659 -0.0000
vn -0.5000 -0.8660 -0.0000
vn -0.5000 -0.8661 -0.0000
vn -0.8660 -0.5000 -0.0000
vn -1.0000 -0.0000 -0.0000
vn -0.9659 0.2588 -0.0000
vn -1.0000 0.0000 -0.0000
vn 0.2588 -0.9659 -0.0000
vn 0.5000 0.8660 -0.0000
vn 0.0000 1.0000 -0.0000
vn 0.8660 0.5000 -0.0000
vn 1.0000 -0.0000 -0.0000
vn 0.9659 -0.2588 -0.0000
vn -0.2588 0.9659 -0.0000
vn -0.5000 0.8660 -0.0000
vn -0.8660 0.5000 -0.0000
vn -0.9659 -0.2588 -0.0000
vn -0.0000 1.0000 -0.0000
vn 0.2588 0.9659 -0.0000
vn 0.0000 0.0000 -1.0000
# 27 vertex normals

vt 0.9551 0.5948 0.0000
vt 0.8159 0.5948 0.0000
vt 0.8159 0.6286 0.0000
vt 0.9551 0.6286 0.0000
vt 0.8159 0.6533 0.0000
vt 0.9551 0.6533 0.0000
vt 0.8159 0.6871 0.0000
vt 0.9551 0.6871 0.0000
vt 0.8159 0.7093 0.0000
vt 0.9551 0.7093 0.0000
vt 0.9551 0.7626 0.0000
vt 0.8159 0.7626 0.0000
vt 0.8159 0.7976 0.0000
vt 0.9551 0.7976 0.0000
vt 0.9551 0.7323 0.0000
vt 0.8159 0.7323 0.0000
vt 0.9551 0.5609 0.0000
vt 0.8159 0.5609 0.0000
vt 0.9551 0.5362 0.0000
vt 0.8159 0.5362 0.0000
vt 0.9551 0.5024 0.0000
vt 0.8159 0.5024 0.0000
vt 0.9551 0.4802 0.0000
vt 0.8159 0.4802 0.0000
vt 0.9551 0.3613 0.0000
vt 0.8159 0.3613 0.0000
vt 0.8159 0.3950 0.0000
vt 0.9551 0.3950 0.0000
vt 0.8159 0.4253 0.0000
vt 0.9551 0.4253 0.0000
vt 0.8159 0.4603 0.0000
vt 0.9551 0.4603 0.0000
vt 0.8159 0.8268 0.0000
vt 0.9551 0.8268 0.0000
vt 0.9551 0.0879 0.0000
vt 0.8159 0.0879 0.0000
vt 0.8159 0.1217 0.0000
vt 0.9551 0.1217 0.0000
vt 0.9551 0.0529 0.0000
vt 0.8159 0.0529 0.0000
vt 0.9551 0.0226 0.0000
vt 0.8159 0.0226 0.0000
vt 0.9551 0.9442 0.0000
vt 0.8159 0.9442 0.0000
vt 0.8159 0.9672 0.0000
vt 0.9551 0.9672 0.0000
vt 0.9551 0.8560 0.0000
vt 0.8159 0.8560 0.0000
vt 0.8159 0.8910 0.0000
vt 0.9551 0.8910 0.0000
vt 0.8159 0.9213 0.0000
vt 0.9551 0.9213 0.0000
vt 0.8159 0.1556 0.0000
vt 0.9551 0.1556 0.0000
vt 0.8159 0.1906 0.0000
vt 0.9551 0.1906 0.0000
vt 0.8159 0.2209 0.0000
vt 0.9551 0.2209 0.0000
vt 0.8159 0.2438 0.0000
vt 0.9551 0.2438 0.0000
vt 0.9551 0.2971 0.0000
vt 0.8159 0.2971 0.0000
vt 0.8159 0.3321 0.0000
vt 0.9551 0.3321 0.0000
vt 0.9551 0.2668 0.0000
vt 0.8159 0.2668 0.0000
vt 0.5804 0.6036 0.0000
vt 0.5460 0.5976 0.0000
vt 0.5524 0.6197 0.0000
vt 0.6117 0.6454 0.0000
vt 0.6133 0.5916 0.0000
vt 0.6762 0.6454 0.0000
vt 0.5201 0.5760 0.0000
vt 0.5083 0.5726 0.0000
vt 0.5085 0.5443 0.0000
vt 0.4873 0.5168 0.0000
vt 0.5146 0.5098 0.0000
vt 0.4883 0.4573 0.0000
vt 0.5370 0.4830 0.0000
vt 0.5111 0.4022 0.0000
vt 0.5410 0.4604 0.0000
vt 0.5289 0.4275 0.0000
vt 0.5349 0.3930 0.0000
vt 0.5526 0.3595 0.0000
vt 0.5903 0.3541 0.0000
vt 0.6068 0.3350 0.0000
vt 0.5574 0.3662 0.0000
vt 0.6248 0.3601 0.0000
vt 0.6663 0.3321 0.0000
vt 0.6516 0.3826 0.0000
vt 0.7227 0.3514 0.0000
vt 0.6742 0.3865 0.0000
vt 0.7071 0.3745 0.0000
vt 0.7416 0.3805 0.0000
vt 0.7674 0.4021 0.0000
vt 0.7680 0.3900 0.0000
vt 0.7790 0.4338 0.0000
vt 0.7974 0.4475 0.0000
vt 0.7730 0.4682 0.0000
vt 0.8015 0.5119 0.0000
vt 0.7506 0.4951 0.0000
vt 0.7797 0.5727 0.0000
vt 0.7466 0.5177 0.0000
vt 0.7586 0.5506 0.0000
vt 0.7526 0.5851 0.0000
vt 0.7355 0.6198 0.0000
vt 0.7302 0.6119 0.0000
vt 0.6973 0.6240 0.0000
vt 0.6628 0.6180 0.0000
vt 0.6359 0.5955 0.0000
vt 0.6595 0.4042 0.0000
vt 0.5586 0.4751 0.0000
vt 0.7290 0.5030 0.0000
vt 0.6280 0.5739 0.0000
# 114 texture coords

g sponza_52
f 1/1/1 2/2/2 3/3/3 
f 1/1/1 3/3/3 4/4/3 
f 4/4/3 3/3/3 5/5/4 
f 4/4/3 5/5/4 6/6/4 
f 6/6/4 5/5/4 7/7/5 
f 6/6/4 7/7/5 8/8/5 
f 8/8/5 7/7/5 9/9/6 
f 8/8/5 9/9/6 10/10/6 
f 11/11/7 12/12/7 13/13/4 
f 11/11/7 13/13/4 14/14/4 
f 15/15/2 16/16/2 12/12/7 
f 15/15/2 12/12/7 11/11/7 
f 10/10/8 9/9/8 16/16/2 
f 10/10/8 16/16/2 15/15/2 
f 17/17/9 18/18/10 2/2/2 
f 17/17/9 2/2/2 1/1/1 
f 19/19/11 20/20/11 18/18/10 
f 19/19/11 18/18/10 17/17/9 
f 21/21/12 22/22/12 20/20/11 
f 21/21/12 20/20/11 19/19/11 
f 23/23/13 24/24/13 22/22/12 
f 23/23/13 22/22/12 21/21/12 
f 25/25/14 26/26/14 27/27/11 
f 25/25/14 27/27/11 28/28/11 
f 28/28/11 27/27/11 29/29/9 
f 28/28/11 29/29/9 30/30/9 
f 30/30/9 29/29/9 31/31/1 
f 30/30/9 31/31/1 32/32/1 
f 32/32/1 31/31/1 24/24/15 
f 32/32/1 24/24/15 23/23/15 
f 14/14/4 13/13/4 33/33/5 
f 14/14/4 33/33/5 34/34/5 
f 35/35/16 36/36/16 37/37/17 
f 35/35/16 37/37/17 38/38/17 
f 39/39/18 40/40/18 36/36/16 
f 39/39/18 36/36/16 35/35/16 
f 41/41/19 42/42/19 40/40/18 
f 41/41/19 40/40/18 39/39/18 
f 43/43/20 44/44/20 42/45/19 
f 43/43/20 42/45/19 41/46/19 
f 45/47/18 46/48/18 47/49/16 
f 45/47/18 47/49/16 48/50/16 
f 48/50/16 47/49/16 49/51/17 
f 48/50/16 49/51/17 50/52/17 
f 50/52/17 49/51/17 44/44/21 
f 50/52/17 44/44/21 43/43/21 
f 38/38/17 37/37/17 51/53/22 
f 38/38/17 51/53/22 52/54/22 
f 52/54/22 51/53/22 53/55/23 
f 52/54/22 53/55/23 54/56/23 
f 54/56/23 53/55/23 55/57/12 
f 54/56/23 55/57/12 56/58/12 
f 56/58/12 55/57/12 57/59/24 
f 56/58/12 57/59/24 58/60/24 
f 59/61/22 60/62/22 61/63/23 
f 59/61/22 61/63/23 62/64/23 
f 63/65/25 64/66/25 60/62/22 
f 63/65/25 60/62/22 59/61/22 
f 58/60/26 57/59/26 64/66/25 
f 58/60/26 64/66/25 63/65/25 
f 34/34/5 33/33/5 46/48/18 
f 34/34/5 46/48/18 45/47/18 
f 62/64/23 61/63/23 26/26/14 
f 62/64/23 26/26/14 25/25/14 
f 59/67/27 62/68/27 65/69/27 
f 59/67/27 65/69/27 66/70/27 
f 63/71/27 59/67/27 66/70/27 
f 63/71/27 66/70/27 67/72/27 
f 62/68/27 25/73/27 68/74/27 
f 62/68/27 68/74/27 65/69/27 
f 68/74/27 25/73/27 28/75/27 
f 68/74/27 28/75/27 69/76/27 
f 69/76/27 28/75/27 30/77/27 
f 69/76/27 30/77/27 70/78/27 
f 70/78/27 30/77/27 32/79/27 
f 70/78/27 32/79/27 71/80/27 
f 32/79/27 21/81/27 19/82/27 
f 32/79/27 19/82/27 71/80/27 
f 71/80/27 19/82/27 17/83/27 
f 71/80/27 17/83/27 72/84/27 
f 4/85/27 73/86/27 72/84/27 
f 4/85/27 72/84/27 1/87/27 
f 73/86/27 4/85/27 6/88/27 
f 73/86/27 6/88/27 74/89/27 
f 74/89/27 6/88/27 8/90/27 
f 74/89/27 8/90/27 75/91/27 
f 8/90/27 15/92/27 11/93/27 
f 8/90/27 11/93/27 75/91/27 
f 14/94/27 34/95/27 76/96/27 
f 14/94/27 76/96/27 75/91/27 
f 76/96/27 34/95/27 45/97/27 
f 76/96/27 45/97/27 77/98/27 
f 77/98/27 45/97/27 48/99/27 
f 77/98/27 48/99/27 78/100/27 
f 78/100/27 48/99/27 50/101/27 
f 78/100/27 50/101/27 79/102/27 
f 50/101/27 41/103/27 39/104/27 
f 50/101/27 39/104/27 79/102/27 
f 35/105/27 80/106/27 79/102/27 
f 35/105/27 79/102/27 39/104/27 
f 80/106/27 38/107/27 52/108/27 
f 80/106/27 52/108/27 67/72/27 
f 54/109/27 56/110/27 63/71/27 
f 54/109/27 63/71/27 67/72/27 
f 8/90/27 10/111/27 15/92/27 
f 11/93/27 14/94/27 75/91/27 
f 17/83/27 1/87/27 72/84/27 
f 23/112/27 21/81/27 32/79/27 
f 35/105/27 38/107/27 80/106/27 
f 43/113/27 41/103/27 50/101/27 
f 52/108/27 54/109/27 67/72/27 
f 56/110/27 58/114/27 63/71/27 
# 112 faces

