# 3ds Max Wavefront OBJ Exporter v0.97b - (c)2007 guruware
# File Created: 21.02.2011 11:31:20

#
# object sponza_104
#

v  58.7070 30.9529 28.0323
v  58.7702 31.5993 27.9501
v  58.7702 31.5993 28.6433
v  58.7070 30.9529 28.6433
v  54.0580 31.5993 27.8815
v  58.7144 31.5993 27.8815
v  58.6474 30.9529 27.9591
v  54.1250 30.9529 27.9591
v  53.5746 33.1893 27.2862
v  53.5774 33.6256 27.2862
v  59.1950 33.6256 27.2862
v  59.1978 33.1893 27.2862
v  53.5176 33.1893 28.6433
v  53.5176 33.6256 28.6433
v  53.5176 33.6256 27.3598
v  53.5176 33.1893 27.3563
v  58.6607 30.5660 28.0906
v  58.8395 30.7594 27.8783
v  58.8395 30.7594 28.6433
v  58.6607 30.5660 28.6433
v  53.9995 30.7594 27.7964
v  58.7729 30.7594 27.7964
v  58.6000 30.5660 28.0160
v  54.1725 30.5660 28.0160
v  59.2548 33.6256 27.3598
v  59.4214 33.8438 27.1630
v  59.4214 33.8438 28.6433
v  59.2548 33.6256 28.6433
v  53.4172 33.8438 27.0817
v  59.3551 33.8438 27.0817
v  59.2548 34.0619 27.3676
v  59.2548 34.0619 28.6433
v  53.5838 34.0619 27.2862
v  59.1886 34.0619 27.2862
v  58.9842 32.4992 27.6900
v  59.2548 33.1893 27.3563
v  59.2548 33.1893 28.6433
v  58.9842 32.4992 28.6433
v  58.9261 32.4992 27.6186
v  53.8463 32.4992 27.6186
v  54.0654 30.9529 28.0323
v  54.0022 31.5993 27.9501
v  53.9329 30.7594 27.8783
v  54.1117 30.5660 28.0906
v  53.3510 33.8438 27.1630
v  53.5176 34.0619 27.3676
v  53.7882 32.4992 27.6900
v  53.5176 34.0619 28.6433
v  54.0022 31.5993 28.6433
v  54.0654 30.9529 28.6433
v  53.9329 30.7594 28.6433
v  54.1117 30.5660 28.6433
v  53.3510 33.8438 28.6433
v  53.7882 32.4992 28.6433
# 54 vertices

vn 0.9953 -0.0973 -0.0000
vn 0.9849 -0.1729 -0.0000
vn 0.9863 -0.1647 -0.0000
vn 0.0000 -0.2085 -0.9780
vn 0.0000 -0.1192 -0.9929
vn 0.0000 0.0000 -1.0000
vn -1.0000 0.0000 -0.0000
vn 0.7344 -0.6788 -0.0000
vn 0.0000 -0.7504 -0.6610
vn 0.8252 0.5649 -0.0000
vn 0.0000 0.6436 -0.7654
vn 0.7949 -0.6068 -0.0000
vn 0.0000 -0.6840 -0.7295
vn 0.7949 0.6068 -0.0000
vn 0.0000 0.6840 -0.7295
vn 0.9497 -0.3131 -0.0000
vn 0.9310 -0.3651 -0.0000
vn 0.9543 -0.2989 -0.0000
vn 0.0000 -0.4339 -0.9009
vn 0.0000 -0.3716 -0.9284
vn 0.7662 -0.1542 -0.6238
vn 0.7502 -0.2535 -0.6106
vn 0.7515 -0.2473 -0.6116
vn -0.7662 -0.1542 -0.6238
vn -0.7514 -0.2473 -0.6118
vn -0.7501 -0.2536 -0.6108
vn 0.7756 0.0051 -0.6312
vn 0.7755 0.0051 -0.6313
vn -0.7756 0.0051 -0.6312
vn -0.7755 0.0051 -0.6313
vn 0.5392 0.7187 -0.4390
vn -0.5392 0.7187 -0.4390
vn 0.4487 -0.8157 -0.3652
vn -0.4486 -0.8157 -0.3653
vn -0.4487 -0.8157 -0.3652
vn 0.5060 -0.7578 -0.4119
vn 0.5060 -0.7578 -0.4120
vn -0.5060 -0.7578 -0.4119
vn -0.5060 -0.7578 -0.4120
vn 0.5004 0.7639 -0.4074
vn 0.5005 0.7639 -0.4073
vn -0.5004 0.7639 -0.4074
vn -0.5005 0.7639 -0.4073
vn 0.6967 -0.4395 -0.5670
vn 0.6623 -0.5204 -0.5390
vn 0.7004 -0.4294 -0.5701
vn -0.6966 -0.4395 -0.5671
vn -0.7003 -0.4294 -0.5702
vn -0.6623 -0.5204 -0.5390
vn 0.0000 1.0000 -0.0000
vn -0.9863 -0.1647 -0.0000
vn -0.9849 -0.1729 0.0000
vn -0.9953 -0.0973 -0.0000
vn 1.0000 0.0000 -0.0000
vn -0.7344 -0.6787 -0.0000
vn -0.8252 0.5649 -0.0000
vn -0.7949 -0.6068 -0.0000
vn -0.7949 0.6068 -0.0000
vn -0.9310 -0.3651 0.0000
vn -0.9310 -0.3651 -0.0000
vn -0.9497 -0.3131 0.0000
vn -0.9543 -0.2989 0.0000
vn 0.0000 -1.0000 -0.0000
# 63 vertex normals

vt 0.5504 0.8881 0.0000
vt 0.5526 0.9084 0.0000
vt 0.5337 0.9084 0.0000
vt 0.5337 0.8881 0.0000
vt 0.7614 0.9100 0.0000
vt 0.6053 0.9100 0.0000
vt 0.6076 0.8897 0.0000
vt 0.7592 0.8897 0.0000
vt 0.7776 0.9600 0.0000
vt 0.7775 0.9737 0.0000
vt 0.5892 0.9737 0.0000
vt 0.5891 0.9600 0.0000
vt 0.8288 0.9596 0.0000
vt 0.8288 0.9733 0.0000
vt 0.7937 0.9733 0.0000
vt 0.7936 0.9596 0.0000
vt 0.9865 0.7672 0.0000
vt 0.9959 0.7791 0.0000
vt 0.9632 0.7791 0.0000
vt 0.9619 0.7672 0.0000
vt 0.2524 0.7790 0.0000
vt 0.0111 0.7790 0.0000
vt 0.0113 0.7672 0.0000
vt 0.2525 0.7672 0.0000
vt 0.5337 0.8820 0.0000
vt 0.5546 0.8820 0.0000
vt 0.6034 0.8836 0.0000
vt 0.7634 0.8836 0.0000
vt 0.5687 0.9721 0.0000
vt 0.5741 0.9790 0.0000
vt 0.5337 0.9790 0.0000
vt 0.5337 0.9721 0.0000
vt 0.7829 0.9806 0.0000
vt 0.5839 0.9806 0.0000
vt 0.5685 0.9859 0.0000
vt 0.5337 0.9859 0.0000
vt 0.7773 0.9875 0.0000
vt 0.5894 0.9875 0.0000
vt 0.5597 0.9367 0.0000
vt 0.5688 0.9584 0.0000
vt 0.5337 0.9584 0.0000
vt 0.5337 0.9367 0.0000
vt 0.5982 0.9383 0.0000
vt 0.7685 0.9383 0.0000
vt 0.6028 0.9094 0.0000
vt 0.6050 0.8907 0.0000
vt 0.8095 0.8902 0.0000
vt 0.8121 0.8892 0.0000
vt 0.8098 0.9096 0.0000
vt 0.8073 0.9090 0.0000
vt 0.5867 0.9726 0.0000
vt 0.5865 0.9593 0.0000
vt 0.7912 0.9721 0.0000
vt 0.7910 0.9589 0.0000
vt 0.6007 0.8862 0.0000
vt 0.8052 0.8857 0.0000
vt 0.8079 0.8832 0.0000
vt 0.0078 0.7789 0.0000
vt 0.0079 0.7672 0.0000
vt 0.2559 0.7790 0.0000
vt 0.2558 0.7672 0.0000
vt 0.5815 0.9806 0.0000
vt 0.7884 0.9801 0.0000
vt 0.7860 0.9801 0.0000
vt 0.5871 0.9900 0.0000
vt 0.7939 0.9870 0.0000
vt 0.7916 0.9896 0.0000
vt 0.5957 0.9372 0.0000
vt 0.8002 0.9367 0.0000
vt 0.8027 0.9379 0.0000
vt 0.0091 0.8976 0.0000
vt 0.0091 0.8760 0.0000
vt 0.0109 0.8746 0.0000
vt 0.1674 0.8760 0.0000
vt 0.1655 0.8746 0.0000
vt 0.1674 0.8976 0.0000
vt 0.8288 0.9096 0.0000
vt 0.8288 0.8892 0.0000
vt 0.2874 0.7790 0.0000
vt 0.2803 0.7672 0.0000
vt 0.8288 0.8832 0.0000
vt 0.8288 0.9801 0.0000
vt 0.8288 0.9870 0.0000
vt 0.8288 0.9379 0.0000
vt 0.2773 0.6742 0.0000
vt 0.2773 0.6911 0.0000
vt 0.4476 0.6911 0.0000
vt 0.4476 0.6742 0.0000
vt 0.4453 0.6933 0.0000
vt 0.2795 0.6933 0.0000
# 90 texture coords

g sponza_104
f 1/1/1 2/2/2 3/3/3 
f 1/1/1 3/3/3 4/4/1 
f 5/5/4 6/6/4 7/7/5 
f 5/5/4 7/7/5 8/8/5 
f 9/9/6 10/10/6 11/11/6 
f 9/9/6 11/11/6 12/12/6 
f 13/13/7 14/14/7 15/15/7 
f 13/13/7 15/15/7 16/16/7 
f 17/17/8 18/18/8 19/19/8 
f 17/17/8 19/19/8 20/20/8 
f 21/21/9 22/22/9 23/23/9 
f 21/21/9 23/23/9 24/24/9 
f 1/1/10 4/4/10 19/25/10 
f 1/1/10 19/25/10 18/26/10 
f 8/8/11 7/7/11 22/27/11 
f 8/8/11 22/27/11 21/28/11 
f 25/29/12 26/30/12 27/31/12 
f 25/29/12 27/31/12 28/32/12 
f 29/33/13 30/34/13 11/11/13 
f 29/33/13 11/11/13 10/10/13 
f 31/35/14 32/36/14 27/31/14 
f 31/35/14 27/31/14 26/30/14 
f 33/37/15 34/38/15 30/34/15 
f 33/37/15 30/34/15 29/33/15 
f 35/39/16 36/40/17 37/41/17 
f 35/39/16 37/41/17 38/42/18 
f 9/9/19 12/12/19 39/43/20 
f 9/9/19 39/43/20 40/44/20 
f 2/2/2 35/39/16 38/42/18 
f 2/2/2 38/42/18 3/3/3 
f 40/44/20 39/43/20 6/6/4 
f 40/44/20 6/6/4 5/5/4 
f 7/7/21 6/6/22 2/45/23 
f 7/7/21 2/45/23 1/46/21 
f 8/47/24 41/48/24 42/49/25 
f 8/47/24 42/49/25 5/50/26 
f 12/12/27 11/11/28 25/51/28 
f 12/12/27 25/51/28 36/52/27 
f 16/16/29 15/15/30 10/53/30 
f 16/16/29 10/53/30 9/54/29 
f 7/7/31 1/46/31 18/55/31 
f 7/7/31 18/55/31 22/27/31 
f 8/47/32 21/56/32 43/57/32 
f 8/47/32 43/57/32 41/48/32 
f 18/58/33 17/59/33 23/23/33 
f 18/58/33 23/23/33 22/22/33 
f 43/60/34 21/21/35 24/24/34 
f 43/60/34 24/24/34 44/61/34 
f 11/11/36 30/34/37 26/62/37 
f 11/11/36 26/62/37 25/51/36 
f 10/53/38 15/15/38 45/63/39 
f 10/53/38 45/63/39 29/64/39 
f 26/62/40 30/34/40 34/38/40 
f 26/62/40 34/38/40 31/65/41 
f 45/63/42 46/66/43 33/67/42 
f 45/63/42 33/67/42 29/64/42 
f 39/43/44 12/12/45 36/52/45 
f 39/43/44 36/52/45 35/68/46 
f 40/69/47 47/70/48 16/16/49 
f 40/69/47 16/16/49 9/54/49 
f 6/6/22 39/43/44 35/68/46 
f 6/6/22 35/68/46 2/45/23 
f 5/50/26 42/49/25 47/70/48 
f 5/50/26 47/70/48 40/69/47 
f 32/71/50 31/72/50 34/73/50 
f 32/71/50 34/73/50 46/74/50 
f 34/73/50 33/75/50 46/74/50 
f 48/76/50 32/71/50 46/74/50 
f 49/77/51 42/49/52 41/48/53 
f 49/77/51 41/48/53 50/78/53 
f 37/41/54 36/40/54 25/29/54 
f 37/41/54 25/29/54 28/32/54 
f 51/79/55 43/60/55 44/61/55 
f 51/79/55 44/61/55 52/80/55 
f 51/81/56 50/78/56 41/48/56 
f 51/81/56 41/48/56 43/57/56 
f 53/82/57 45/63/57 15/15/57 
f 53/82/57 15/15/57 14/14/57 
f 53/82/58 48/83/58 46/66/58 
f 53/82/58 46/66/58 45/63/58 
f 13/13/59 16/16/60 47/70/61 
f 13/13/59 47/70/61 54/84/62 
f 54/84/62 47/70/61 42/49/52 
f 54/84/62 42/49/52 49/77/51 
f 52/85/63 44/86/63 17/87/63 
f 52/85/63 17/87/63 20/88/63 
f 23/89/63 17/87/63 44/86/63 
f 23/89/63 44/86/63 24/90/63 
# 88 faces

