# 3ds Max Wavefront OBJ Exporter v0.97b - (c)2007 guruware
# File Created: 21.02.2011 11:31:58

#
# object sponza_340
#

v  -57.0609 25.6759 -50.8756
v  -54.6918 33.6328 -50.8756
v  -55.0396 33.7362 -50.8756
v  -57.4087 25.7794 -50.8756
# 4 vertices

vn 0.0000 0.0000 1.0000
vn -0.0000 0.0000 1.0000
# 2 vertex normals

vt 0.6770 0.0000 0.0000
vt 0.6789 3.1013 0.0000
vt 0.1485 3.1033 0.0000
vt 0.1467 0.0000 0.0000
# 4 texture coords

g sponza_340
f 1/1/1 2/2/1 3/3/1 
f 1/1/1 3/3/1 4/4/2 
# 2 faces

