# 3ds Max Wavefront OBJ Exporter v0.97b - (c)2007 guruware
# File Created: 21.02.2011 11:31:28

#
# object sponza_157
#

v  39.6721 63.9440 -54.9152
v  39.6721 63.9440 -58.8981
v  39.6465 64.0409 -58.8726
v  39.6465 64.0409 -54.9408
v  39.6326 63.9440 -54.8757
v  39.6071 64.0409 -54.9013
v  40.1502 63.3643 -54.3580
v  40.1897 63.3643 -54.3975
v  40.0219 63.4893 -54.5653
v  39.9825 63.4893 -54.5258
v  39.7027 63.8716 -54.8845
v  39.6633 63.8716 -54.8451
v  39.7173 63.7847 -54.7911
v  39.7568 63.7847 -54.8305
v  39.8825 63.5811 -54.6258
v  39.9220 63.5811 -54.6653
v  39.8433 63.6687 -54.7439
v  39.8039 63.6687 -54.7045
v  39.9220 63.5811 -59.1481
v  39.8433 63.6687 -59.0694
v  39.7027 63.8716 -58.9288
v  39.6326 63.9440 -58.9376
v  39.6071 64.0409 -58.9121
v  40.0219 63.4893 -59.2481
v  40.1897 63.3643 -59.4159
v  40.1502 63.3643 -59.4553
v  39.9825 63.4893 -59.2875
v  39.7173 63.7847 -59.0223
v  39.6633 63.8716 -58.9683
v  39.7568 63.7847 -58.9828
v  39.8825 63.5811 -59.1875
v  39.8039 63.6687 -59.1089
v  35.1329 63.3643 -59.4553
v  35.3007 63.4893 -59.2875
v  35.5659 63.7847 -59.0223
v  35.6199 63.8716 -58.9683
v  35.4793 63.6687 -59.1089
v  35.4007 63.5811 -59.1875
v  35.6505 63.9440 -58.9376
v  35.6111 63.9440 -58.8981
v  35.6366 64.0409 -58.8726
v  35.6761 64.0409 -58.9121
v  35.0935 63.3643 -59.4159
v  35.2612 63.4893 -59.2481
v  35.5804 63.8716 -58.9288
v  35.5264 63.7847 -58.9828
v  35.3612 63.5811 -59.1481
v  35.4398 63.6687 -59.0694
v  40.1502 63.2813 -54.3580
v  40.1897 63.2813 -54.3975
v  40.1897 63.2813 -59.4159
v  40.1502 63.2813 -59.4553
v  35.1329 63.2813 -59.4553
v  35.0935 63.2813 -59.4159
v  40.3460 63.2813 -54.1591
v  40.3886 63.2813 -54.2016
v  40.3886 63.2813 -59.6117
v  40.3460 63.2813 -59.6542
v  34.9371 63.2813 -59.6542
v  34.8946 63.2813 -59.6117
v  40.3460 62.9641 -54.1591
v  40.3886 62.9641 -54.2016
v  40.3886 62.9641 -59.6117
v  40.3460 62.9641 -59.6542
v  34.9371 62.9641 -59.6542
v  34.8946 62.9641 -59.6117
v  35.6111 63.9440 -54.9152
v  35.6366 64.0409 -54.9408
v  35.3612 63.5811 -54.6653
v  35.4398 63.6687 -54.7439
v  35.5804 63.8716 -54.8845
v  35.6505 63.9440 -54.8757
v  35.6761 64.0409 -54.9013
v  35.2612 63.4893 -54.5653
v  35.0935 63.3643 -54.3975
v  35.1329 63.3643 -54.3580
v  35.3007 63.4893 -54.5258
v  35.5659 63.7847 -54.7911
v  35.6199 63.8716 -54.8451
v  35.5264 63.7847 -54.8305
v  35.4007 63.5811 -54.6258
v  35.4793 63.6687 -54.7045
v  35.0935 63.2813 -54.3975
v  35.1329 63.2813 -54.3580
v  34.8946 63.2813 -54.2016
v  34.9371 63.2813 -54.1591
v  34.8946 62.9641 -54.2016
v  34.9371 62.9641 -54.1591
# 88 vertices

vn 0.8483 0.4106 0.3343
vn 0.8483 0.4106 -0.3343
vn 0.8877 0.3211 -0.3298
vn 0.8878 0.3211 0.3298
vn 0.3343 0.4106 0.8483
vn 0.3298 0.3211 0.8877
vn 0.2147 0.8737 0.4364
vn 0.4365 0.8737 0.2147
vn 0.5035 0.8445 0.1825
vn 0.1824 0.8445 0.5035
vn 0.7704 0.5643 0.2968
vn 0.2968 0.5643 0.7703
vn 0.2649 0.6653 0.6980
vn 0.6980 0.6653 0.2649
vn 0.2114 0.7904 0.5750
vn 0.5751 0.7903 0.2114
vn 0.6399 0.7303 0.2390
vn 0.2390 0.7304 0.6399
vn 0.5750 0.7903 -0.2114
vn 0.6399 0.7303 -0.2390
vn 0.7704 0.5643 -0.2968
vn 0.3342 0.4106 -0.8483
vn 0.3298 0.3211 -0.8877
vn 0.5035 0.8445 -0.1825
vn 0.4365 0.8737 -0.2147
vn 0.2147 0.8737 -0.4364
vn 0.1824 0.8445 -0.5035
vn 0.2649 0.6653 -0.6980
vn 0.2968 0.5643 -0.7703
vn 0.6980 0.6653 -0.2649
vn 0.2114 0.7904 -0.5750
vn 0.2390 0.7304 -0.6399
vn -0.2147 0.8737 -0.4364
vn -0.1825 0.8445 -0.5035
vn -0.2649 0.6653 -0.6980
vn -0.2968 0.5643 -0.7703
vn -0.2390 0.7304 -0.6399
vn -0.2114 0.7904 -0.5750
vn -0.3343 0.4106 -0.8483
vn -0.8483 0.4106 -0.3343
vn -0.8878 0.3211 -0.3298
vn -0.3298 0.3211 -0.8877
vn -0.4364 0.8737 -0.2147
vn -0.5035 0.8445 -0.1825
vn -0.7704 0.5643 -0.2968
vn -0.6980 0.6653 -0.2649
vn -0.5750 0.7903 -0.2114
vn -0.6399 0.7303 -0.2390
vn 0.7071 0.0000 0.7071
vn 0.9239 0.0000 0.3827
vn 0.9239 0.0000 -0.3827
vn -0.0000 0.0000 -1.0000
vn -0.3827 0.0000 -0.9239
vn 0.7071 0.0000 -0.7071
vn -0.7071 0.0000 -0.7071
vn -0.0000 1.0000 -0.0000
vn -0.0000 1.0000 0.0000
vn 0.0000 1.0000 0.0000
vn -0.8483 0.4106 0.3343
vn -0.8878 0.3211 0.3298
vn -0.5750 0.7903 0.2114
vn -0.6399 0.7303 0.2390
vn -0.7704 0.5643 0.2968
vn -0.3343 0.4106 0.8483
vn -0.3298 0.3211 0.8877
vn -0.5035 0.8445 0.1824
vn -0.4365 0.8737 0.2147
vn -0.2147 0.8737 0.4364
vn -0.1825 0.8445 0.5035
vn -0.2649 0.6653 0.6980
vn -0.2968 0.5643 0.7703
vn -0.6980 0.6653 0.2649
vn -0.2114 0.7904 0.5750
vn -0.2390 0.7304 0.6399
vn -1.0000 0.0000 0.0000
vn -0.9239 0.0000 0.3827
vn 0.0000 0.0000 1.0000
vn -0.7071 0.0000 0.7071
vn 0.0000 1.0000 -0.0000
vn -1.0000 0.0000 -0.0000
vn -0.3827 0.0000 0.9239
# 81 vertex normals

vt 0.2788 0.9490 0.0000
vt 0.2788 0.7224 0.0000
vt 0.2734 0.7237 0.0000
vt 0.2733 0.9476 0.0000
vt 0.2778 0.9519 0.0000
vt 0.2712 0.9499 0.0000
vt 0.3144 0.9807 0.0000
vt 0.3147 0.9785 0.0000
vt 0.3052 0.9689 0.0000
vt 0.3029 0.9712 0.0000
vt 0.2829 0.9508 0.0000
vt 0.2816 0.9534 0.0000
vt 0.2860 0.9566 0.0000
vt 0.2879 0.9539 0.0000
vt 0.2972 0.9656 0.0000
vt 0.2995 0.9633 0.0000
vt 0.2945 0.9588 0.0000
vt 0.2922 0.9615 0.0000
vt 0.2995 0.7081 0.0000
vt 0.2945 0.7126 0.0000
vt 0.2829 0.7206 0.0000
vt 0.2755 0.7168 0.0000
vt 0.2725 0.7161 0.0000
vt 0.2711 0.7216 0.0000
vt 0.2947 0.6920 0.0000
vt 0.3045 0.6818 0.0000
vt 0.3020 0.6802 0.0000
vt 0.2924 0.6897 0.0000
vt 0.2773 0.7070 0.0000
vt 0.2743 0.7119 0.0000
vt 0.2768 0.7135 0.0000
vt 0.2801 0.7089 0.0000
vt 0.2850 0.7026 0.0000
vt 0.2891 0.6976 0.0000
vt 0.2867 0.6954 0.0000
vt 0.2823 0.7004 0.0000
vt 0.0164 0.6802 0.0000
vt 0.0260 0.6897 0.0000
vt 0.0411 0.7070 0.0000
vt 0.0441 0.7119 0.0000
vt 0.0361 0.7004 0.0000
vt 0.0317 0.6953 0.0000
vt 0.0459 0.7161 0.0000
vt 0.0440 0.7173 0.0000
vt 0.0451 0.7238 0.0000
vt 0.0473 0.7216 0.0000
vt 0.0140 0.6812 0.0000
vt 0.0237 0.6920 0.0000
vt 0.0416 0.7135 0.0000
vt 0.0383 0.7089 0.0000
vt 0.0293 0.6976 0.0000
vt 0.0334 0.7026 0.0000
vt 0.3147 0.6929 0.0000
vt 0.3052 0.7024 0.0000
vt 0.2879 0.7175 0.0000
vt 0.3184 0.9812 0.0000
vt 0.3194 0.9785 0.0000
vt 0.3194 0.6929 0.0000
vt 0.3020 0.6754 0.0000
vt 0.0164 0.6754 0.0000
vt 0.3048 0.6767 0.0000
vt 0.0138 0.6766 0.0000
vt 0.3283 0.9921 0.0000
vt 0.3307 0.9896 0.0000
vt 0.3307 0.6817 0.0000
vt 0.3131 0.6641 0.0000
vt 0.0053 0.6641 0.0000
vt 0.3160 0.6653 0.0000
vt 0.0029 0.6653 0.0000
vt 0.3307 0.9921 0.0000
vt 0.3488 0.9921 0.0000
vt 0.3488 0.9896 0.0000
vt 0.3488 0.6817 0.0000
vt 0.3131 0.6461 0.0000
vt 0.0053 0.6461 0.0000
vt 0.3155 0.6461 0.0000
vt 0.0029 0.6461 0.0000
vt 0.0451 0.9476 0.0000
vt 0.0473 0.9498 0.0000
# 79 texture coords

g sponza_157
f 1/1/1 2/2/2 3/3/3 
f 1/1/1 3/3/3 4/4/4 
f 5/5/5 1/1/1 4/4/4 
f 5/5/5 4/4/4 6/6/6 
f 7/7/7 8/8/8 9/9/9 
f 7/7/7 9/9/9 10/10/10 
f 11/11/11 12/12/12 13/13/13 
f 11/11/11 13/13/13 14/14/14 
f 15/15/15 16/16/16 17/17/17 
f 15/15/15 17/17/17 18/18/18 
f 10/10/10 9/9/9 16/16/16 
f 10/10/10 16/16/16 15/15/15 
f 14/14/14 13/13/13 18/18/18 
f 14/14/14 18/18/18 17/17/17 
f 1/1/1 5/5/5 12/12/12 
f 1/1/1 12/12/12 11/11/11 
f 16/16/16 19/19/19 20/20/20 
f 16/16/16 20/20/20 17/17/17 
f 11/11/11 21/21/21 2/2/2 
f 11/11/11 2/2/2 1/1/1 
f 3/3/3 2/22/2 22/23/22 
f 3/3/3 22/23/22 23/24/23 
f 24/25/24 25/26/25 26/27/26 
f 24/25/24 26/27/26 27/28/27 
f 28/29/28 29/30/29 21/31/21 
f 28/29/28 21/31/21 30/32/30 
f 20/33/20 19/34/19 31/35/31 
f 20/33/20 31/35/31 32/36/32 
f 19/34/19 24/25/24 27/28/27 
f 19/34/19 27/28/27 31/35/31 
f 32/36/32 28/29/28 30/32/30 
f 32/36/32 30/32/30 20/33/20 
f 29/30/29 22/23/22 2/22/2 
f 29/30/29 2/22/2 21/31/21 
f 27/28/27 26/27/26 33/37/33 
f 27/28/27 33/37/33 34/38/34 
f 29/30/29 28/29/28 35/39/35 
f 29/30/29 35/39/35 36/40/36 
f 37/41/37 32/36/32 31/35/31 
f 37/41/37 31/35/31 38/42/38 
f 28/29/28 32/36/32 37/41/37 
f 28/29/28 37/41/37 35/39/35 
f 31/35/31 27/28/27 34/38/34 
f 31/35/31 34/38/34 38/42/38 
f 22/23/22 29/30/29 36/40/36 
f 22/23/22 36/40/36 39/43/39 
f 39/43/39 40/44/40 41/45/41 
f 39/43/39 41/45/41 42/46/42 
f 33/37/33 43/47/43 44/48/44 
f 33/37/33 44/48/44 34/38/34 
f 45/49/45 36/40/36 35/39/35 
f 45/49/45 35/39/35 46/50/46 
f 38/42/38 47/51/47 48/52/48 
f 38/42/38 48/52/48 37/41/37 
f 34/38/34 44/48/44 47/51/47 
f 34/38/34 47/51/47 38/42/38 
f 46/50/46 35/39/35 37/41/37 
f 46/50/46 37/41/37 48/52/48 
f 40/44/40 39/43/39 36/40/36 
f 40/44/40 36/40/36 45/49/45 
f 42/46/42 23/24/23 22/23/22 
f 42/46/42 22/23/22 39/43/39 
f 8/8/8 25/53/25 24/54/24 
f 8/8/8 24/54/24 9/9/9 
f 14/14/14 30/55/30 21/21/21 
f 14/14/14 21/21/21 11/11/11 
f 17/17/17 20/20/20 30/55/30 
f 17/17/17 30/55/30 14/14/14 
f 9/9/9 24/54/24 19/19/19 
f 9/9/9 19/19/19 16/16/16 
f 49/56/49 50/57/50 8/8/50 
f 49/56/49 8/8/50 7/7/49 
f 8/8/50 50/57/50 51/58/51 
f 8/8/50 51/58/51 25/53/51 
f 52/59/52 53/60/53 33/37/53 
f 52/59/52 33/37/53 26/27/52 
f 51/61/51 52/59/54 26/27/54 
f 51/61/51 26/27/54 25/26/51 
f 53/60/53 54/62/55 43/47/55 
f 53/60/53 43/47/55 33/37/53 
f 55/63/56 56/64/56 50/57/56 
f 55/63/56 50/57/56 49/56/56 
f 56/64/56 57/65/57 51/58/57 
f 56/64/56 51/58/57 50/57/56 
f 58/66/57 59/67/58 53/60/58 
f 58/66/57 53/60/58 52/59/57 
f 57/68/57 58/66/57 52/59/57 
f 57/68/57 52/59/57 51/61/57 
f 59/67/58 60/69/58 54/62/58 
f 59/67/58 54/62/58 53/60/58 
f 55/70/49 61/71/49 62/72/50 
f 55/70/49 62/72/50 56/64/50 
f 56/64/50 62/72/50 63/73/51 
f 56/64/50 63/73/51 57/65/51 
f 58/66/52 64/74/52 65/75/53 
f 58/66/52 65/75/53 59/67/53 
f 57/68/51 63/76/51 64/74/54 
f 57/68/51 64/74/54 58/66/54 
f 59/67/53 65/75/53 66/77/55 
f 59/67/53 66/77/55 60/69/55 
f 40/1/40 67/2/59 68/3/60 
f 40/1/40 68/3/60 41/4/41 
f 47/16/47 69/19/61 70/20/62 
f 47/16/47 70/20/62 48/17/48 
f 45/11/45 71/21/63 67/2/59 
f 45/11/45 67/2/59 40/1/40 
f 68/3/60 67/22/59 72/23/64 
f 68/3/60 72/23/64 73/24/65 
f 74/25/66 75/26/67 76/27/68 
f 74/25/66 76/27/68 77/28/69 
f 78/29/70 79/30/71 71/31/63 
f 78/29/70 71/31/63 80/32/72 
f 70/33/62 69/34/61 81/35/73 
f 70/33/62 81/35/73 82/36/74 
f 69/34/61 74/25/66 77/28/69 
f 69/34/61 77/28/69 81/35/73 
f 82/36/74 78/29/70 80/32/72 
f 82/36/74 80/32/72 70/33/62 
f 79/30/71 72/23/64 67/22/59 
f 79/30/71 67/22/59 71/31/63 
f 77/28/69 76/27/68 7/37/7 
f 77/28/69 7/37/7 10/38/10 
f 79/30/71 78/29/70 13/39/13 
f 79/30/71 13/39/13 12/40/12 
f 18/41/18 82/36/74 81/35/73 
f 18/41/18 81/35/73 15/42/15 
f 78/29/70 82/36/74 18/41/18 
f 78/29/70 18/41/18 13/39/13 
f 81/35/73 77/28/69 10/38/10 
f 81/35/73 10/38/10 15/42/15 
f 72/23/64 79/30/71 12/40/12 
f 72/23/64 12/40/12 5/43/5 
f 6/46/6 73/24/65 72/23/64 
f 6/46/6 72/23/64 5/43/5 
f 43/8/43 75/53/67 74/54/66 
f 43/8/43 74/54/66 44/9/44 
f 46/14/46 80/55/72 71/21/63 
f 46/14/46 71/21/63 45/11/45 
f 48/17/48 70/20/62 80/55/72 
f 48/17/48 80/55/72 46/14/46 
f 44/9/44 74/54/66 69/19/61 
f 44/9/44 69/19/61 47/16/47 
f 43/8/75 54/57/75 83/58/76 
f 43/8/75 83/58/76 75/53/76 
f 84/59/77 49/60/77 7/37/77 
f 84/59/77 7/37/77 76/27/77 
f 83/61/76 84/59/78 76/27/78 
f 83/61/76 76/27/78 75/26/76 
f 60/64/58 85/65/79 83/58/79 
f 60/64/58 83/58/79 54/57/58 
f 86/66/79 55/67/56 49/60/56 
f 86/66/79 49/60/56 84/59/79 
f 85/68/79 86/66/79 84/59/79 
f 85/68/79 84/59/79 83/61/79 
f 60/64/80 66/72/80 87/73/80 
f 60/64/80 87/73/80 85/65/80 
f 86/66/81 88/74/81 61/75/77 
f 86/66/81 61/75/77 55/67/77 
f 85/68/78 87/76/78 88/74/81 
f 85/68/78 88/74/81 86/66/81 
f 41/45/79 68/78/79 73/79/79 
f 41/45/79 73/79/79 42/46/79 
f 73/79/79 6/6/79 4/4/79 
f 73/79/79 4/4/79 42/46/79 
f 4/4/79 3/3/79 23/24/79 
f 4/4/79 23/24/79 42/46/79 
# 166 faces

