# 3ds Max Wavefront OBJ Exporter v0.97b - (c)2007 guruware
# File Created: 21.02.2011 11:31:07

#
# object sponza_18
#

v  137.3067 53.8538 -93.4486
v  97.1017 53.8538 -93.4486
v  97.1017 53.8538 -59.0818
v  137.3067 53.8538 -59.0818
v  -95.9329 53.8538 -59.0818
v  -95.9329 53.8538 -93.4486
v  -136.1379 53.8538 -93.4486
v  -136.1379 53.8538 -59.0818
v  -95.9329 53.8538 -5.8538
v  -136.1379 53.8538 -5.8538
v  97.1017 53.8538 -5.8538
v  97.1017 53.8538 28.5130
v  137.3067 53.8538 28.5130
v  137.3067 53.8538 -5.8538
v  -136.1379 53.8538 28.5130
v  -95.9329 53.8538 28.5130
# 16 vertices

vn 0.0000 1.0000 -0.0000
# 1 vertex normals

vt 6.7189 3.1852 0.0000
vt 5.7310 3.1852 0.0000
vt 5.7310 2.3274 0.0000
vt 6.7189 2.3274 0.0000
vt 0.9879 2.3274 0.0000
vt 0.9879 3.1852 0.0000
vt 0.0000 3.1852 0.0000
vt 0.0000 2.3274 0.0000
vt 0.9879 1.0173 0.0000
vt 0.0000 1.0173 0.0000
vt 5.7310 1.0173 0.0000
vt 5.7310 0.1409 0.0000
vt 6.7189 0.1409 0.0000
vt 6.7189 1.0173 0.0000
vt 0.0000 0.1409 0.0000
vt 0.9879 0.1409 0.0000
# 16 texture coords

g sponza_18
f 1/1/1 2/2/1 3/3/1 
f 1/1/1 3/3/1 4/4/1 
f 5/5/1 6/6/1 7/7/1 
f 5/5/1 7/7/1 8/8/1 
f 9/9/1 5/5/1 8/8/1 
f 9/9/1 8/8/1 10/10/1 
f 2/2/1 6/6/1 5/5/1 
f 2/2/1 5/5/1 3/3/1 
f 11/11/1 12/12/1 13/13/1 
f 11/11/1 13/13/1 14/14/1 
f 3/3/1 11/11/1 14/14/1 
f 3/3/1 14/14/1 4/4/1 
f 15/15/1 16/16/1 9/9/1 
f 15/15/1 9/9/1 10/10/1 
f 16/16/1 12/12/1 11/11/1 
f 16/16/1 11/11/1 9/9/1 
# 16 faces

