# 3ds Max Wavefront OBJ Exporter v0.97b - (c)2007 guruware
# File Created: 21.02.2011 11:31:15

#
# object sponza_71
#

v  -35.9621 41.2325 28.4049
v  -33.4971 40.9832 28.4049
v  -34.8966 39.1301 28.4049
v  -36.2961 39.2290 28.4049
v  -40.4945 38.7020 30.0698
v  -38.3476 39.1025 30.0698
v  -36.2961 39.2290 30.0698
v  -31.0003 38.2710 30.0698
v  -34.8966 39.1301 30.0698
v  -32.8610 38.7992 30.0698
v  -41.7986 38.2056 30.0698
v  -41.7986 38.2056 28.4049
v  -43.8838 40.0312 28.4049
v  -42.5620 40.0243 28.4049
v  -40.4945 38.7020 28.4049
v  -41.0193 40.5347 28.4049
v  -39.1269 40.9822 28.4049
v  -38.3476 39.1025 28.4049
v  -37.0595 41.2325 28.4049
v  -31.7000 40.5621 28.4049
v  -32.8610 38.7992 28.4049
v  -30.4755 40.1134 28.4049
v  -31.0003 38.2710 28.4049
v  -28.6282 40.1495 28.4049
v  -42.8079 25.4412 28.8403
v  -42.7700 37.0005 28.8403
v  -41.8134 36.1039 29.3083
v  -41.8894 26.2752 29.3083
v  -41.8894 26.2752 30.0698
v  -41.8134 36.1039 30.0698
v  -30.7657 36.0825 30.0697
v  -30.6708 26.3621 30.0698
v  -30.7657 36.0825 29.3083
v  -30.6708 26.3621 29.3083
v  -28.9623 24.6216 28.4049
v  -28.9482 24.6072 28.4049
v  -28.9623 24.6072 28.4049
v  -29.3894 25.0567 28.4049
v  -29.4131 37.4434 28.4049
v  -28.9623 37.8971 28.4049
v  -28.6282 24.2813 28.4049
v  -43.8838 24.2813 28.4049
v  -43.7265 24.6072 28.4049
v  -43.7265 37.8971 28.4049
v  -29.8166 25.4918 28.8403
v  -43.2482 37.4488 28.4049
v  -43.2672 25.0242 28.4049
v  -29.8640 36.9898 28.8403
v  -28.6282 24.2813 29.4617
v  -43.8838 24.2813 29.4617
v  -43.8838 40.0312 29.4617
v  -28.6282 40.1495 29.4617
v  -30.4755 40.1134 29.4617
v  -31.7000 40.5621 29.4617
v  -33.4971 40.9832 29.4617
v  -35.9621 41.2325 29.4617
v  -37.0595 41.2325 29.4617
v  -39.1269 40.9822 29.4617
v  -41.0193 40.5347 29.4617
v  -42.5620 40.0243 29.4617
# 60 vertices

vn 0.0000 0.0000 -1.0000
vn -0.0000 0.0000 -1.0000
vn -0.0000 -0.0000 -1.0000
vn 0.0000 -0.0000 -1.0000
vn 0.6260 -0.0026 -0.7798
vn 0.6108 -0.0012 -0.7918
vn 0.4392 -0.0015 -0.8984
vn 0.4565 -0.0035 -0.8897
vn -0.2731 -0.9620 -0.0000
vn -0.2171 -0.9761 -0.0000
vn -0.0061 1.0000 0.0000
vn 0.2707 -0.9627 -0.0000
vn 0.3557 -0.9346 -0.0000
vn 0.1227 -0.9924 -0.0000
vn -0.0045 -1.0000 -0.0000
vn -0.1156 -0.9933 -0.0000
vn -0.0019 -1.0000 -0.0000
vn -1.0000 -0.0098 -0.0000
vn -0.0077 1.0000 -0.0000
vn 1.0000 -0.0077 -0.0000
vn -0.0020 0.4903 -0.8716
vn -0.0036 0.4709 -0.8822
vn -0.0030 0.6454 -0.7639
vn -0.0018 0.6669 -0.7451
vn 0.6882 -0.0022 -0.7255
vn 0.6727 -0.0010 -0.7400
vn -0.4810 -0.0021 -0.8767
vn -0.4571 -0.0045 -0.8894
vn -0.6335 -0.0033 -0.7737
vn -0.6555 -0.0016 -0.7552
vn -0.0027 0.7068 -0.7074
vn -0.0017 0.7231 -0.6907
vn -0.0004 -0.4583 -0.8888
vn -0.0009 -0.4635 -0.8861
vn -0.0007 -0.6397 -0.7687
vn -0.0003 -0.6323 -0.7747
vn -0.6943 -0.0028 -0.7197
vn -0.7145 -0.0014 -0.6996
vn -0.0006 -0.6968 -0.7173
vn -0.0003 -0.6923 -0.7216
vn 0.0000 -1.0000 -0.0000
vn -1.0000 0.0000 -0.0000
vn 1.0000 0.0000 -0.0000
vn -0.0195 0.9998 0.0000
vn 0.3440 0.9390 0.0000
vn 0.2282 0.9736 0.0000
vn 0.1006 0.9949 0.0000
vn 0.0000 1.0000 -0.0000
vn -0.1202 0.9928 -0.0000
vn -0.2301 0.9732 -0.0000
vn -0.3141 0.9494 0.0000
vn 0.0052 1.0000 0.0000
# 52 vertex normals

vt 0.6641 0.4155 0.0000
vt 0.6068 0.4094 0.0000
vt 0.6394 0.3640 0.0000
vt 0.6719 0.3664 0.0000
vt 0.7694 0.3535 0.0000
vt 0.7195 0.3633 0.0000
vt 0.5488 0.3429 0.0000
vt 0.5921 0.3559 0.0000
vt 0.7997 0.3413 0.0000
vt 0.8481 0.3861 0.0000
vt 0.8174 0.3859 0.0000
vt 0.7816 0.3984 0.0000
vt 0.7376 0.4094 0.0000
vt 0.6896 0.4155 0.0000
vt 0.5651 0.3991 0.0000
vt 0.5366 0.3881 0.0000
vt 0.4937 0.3890 0.0000
vt 0.8231 0.0284 0.0000
vt 0.8223 0.3118 0.0000
vt 0.8000 0.2898 0.0000
vt 0.8018 0.0489 0.0000
vt 0.5434 0.2893 0.0000
vt 0.5412 0.0510 0.0000
vt 0.4408 0.1672 0.0000
vt 0.4726 0.1672 0.0000
vt 0.4726 0.2037 0.0000
vt 0.4408 0.2037 0.0000
vt 0.4408 0.3751 0.0000
vt 0.4726 0.3751 0.0000
vt 0.4726 0.5781 0.0000
vt 0.4408 0.5781 0.0000
vt 0.4408 0.3487 0.0000
vt 0.4726 0.3487 0.0000
vt 0.4408 0.3076 0.0000
vt 0.4726 0.3076 0.0000
vt 0.4408 0.2689 0.0000
vt 0.4726 0.2689 0.0000
vt 0.4408 0.2426 0.0000
vt 0.4726 0.2426 0.0000
vt 0.4408 0.0817 0.0000
vt 0.4726 0.0817 0.0000
vt 0.4726 0.2893 0.0000
vt 0.4408 0.2893 0.0000
vt 0.4408 0.0891 0.0000
vt 0.4726 0.0891 0.0000
vt 0.4726 0.2819 0.0000
vt 0.4408 0.2819 0.0000
vt 0.4408 0.0801 0.0000
vt 0.4726 0.0801 0.0000
vt 0.4726 0.2909 0.0000
vt 0.4408 0.2909 0.0000
vt 0.4408 0.0880 0.0000
vt 0.4726 0.0880 0.0000
vt 0.4726 0.2830 0.0000
vt 0.4408 0.2830 0.0000
vt 0.5015 0.0083 0.0000
vt 0.5012 0.0080 0.0000
vt 0.5015 0.0080 0.0000
vt 0.5114 0.0190 0.0000
vt 0.5120 0.3227 0.0000
vt 0.5015 0.3338 0.0000
vt 0.4937 0.0000 0.0000
vt 0.8481 0.0000 0.0000
vt 0.8445 0.0080 0.0000
vt 0.8445 0.3338 0.0000
vt 0.5213 0.0297 0.0000
vt 0.8334 0.3228 0.0000
vt 0.8338 0.0182 0.0000
vt 0.5224 0.3115 0.0000
# 69 texture coords

g sponza_71
f 1/1/1 2/2/1 3/3/1 
f 1/1/1 3/3/1 4/4/1 
f 5/5/2 6/6/2 7/4/3 
f 5/5/2 7/4/3 8/7/3 
f 7/4/3 9/3/1 10/8/1 
f 7/4/3 10/8/1 8/7/3 
f 11/9/2 5/5/2 8/7/3 
f 12/9/3 13/10/2 14/11/1 
f 12/9/3 14/11/1 15/5/2 
f 15/5/2 14/11/1 16/12/2 
f 15/5/2 16/12/2 17/13/1 
f 18/6/1 15/5/2 17/13/1 
f 18/6/1 17/13/1 19/14/1 
f 18/6/1 19/14/1 4/4/1 
f 4/4/1 19/14/1 1/1/1 
f 2/2/1 20/15/1 21/8/1 
f 2/2/1 21/8/1 3/3/1 
f 20/15/1 22/16/1 23/7/4 
f 20/15/1 23/7/4 21/8/1 
f 22/16/1 24/17/1 23/7/4 
f 25/18/5 26/19/6 27/20/7 
f 25/18/5 27/20/7 28/21/8 
f 29/21/4 30/20/2 31/22/4 
f 29/21/4 31/22/4 32/23/4 
f 23/24/9 8/25/9 10/26/10 
f 23/24/9 10/26/10 21/27/10 
f 12/28/11 11/29/11 8/30/11 
f 12/28/11 8/30/11 23/31/11 
f 15/32/12 5/33/12 11/29/13 
f 15/32/12 11/29/13 12/28/13 
f 18/34/14 6/35/14 5/33/12 
f 18/34/14 5/33/12 15/32/12 
f 4/36/15 7/37/15 6/35/14 
f 4/36/15 6/35/14 18/34/14 
f 3/38/16 9/39/16 7/37/15 
f 3/38/16 7/37/15 4/36/15 
f 21/27/10 10/26/10 9/39/16 
f 21/27/10 9/39/16 3/38/16 
f 33/40/17 31/41/17 30/42/17 
f 33/40/17 30/42/17 27/43/17 
f 34/44/18 32/45/18 31/46/18 
f 34/44/18 31/46/18 33/47/18 
f 28/48/19 29/49/19 32/50/19 
f 28/48/19 32/50/19 34/51/19 
f 27/52/20 30/53/20 29/54/20 
f 27/52/20 29/54/20 28/55/20 
f 35/56/1 36/57/1 37/58/1 
f 38/59/1 39/60/1 40/61/1 
f 38/59/1 40/61/1 35/56/1 
f 37/58/1 36/57/1 41/62/1 
f 37/58/1 41/62/1 42/63/1 
f 37/58/1 42/63/1 43/64/1 
f 24/17/1 41/62/1 36/57/1 
f 24/17/1 36/57/1 35/56/1 
f 24/17/1 35/56/1 40/61/1 
f 13/10/2 12/9/3 44/65/1 
f 28/21/21 34/23/22 45/66/23 
f 28/21/21 45/66/23 25/18/24 
f 42/63/1 13/10/2 44/65/1 
f 42/63/1 44/65/1 43/64/1 
f 40/61/1 39/60/1 46/67/1 
f 40/61/1 46/67/1 44/65/1 
f 23/7/4 40/61/1 44/65/1 
f 23/7/4 44/65/1 12/9/3 
f 23/7/4 24/17/1 40/61/1 
f 47/68/25 46/67/26 26/19/6 
f 47/68/25 26/19/6 25/18/5 
f 34/23/27 33/22/28 48/69/29 
f 34/23/27 48/69/29 45/66/30 
f 38/59/31 47/68/32 25/18/24 
f 38/59/31 25/18/24 45/66/23 
f 33/22/33 27/20/34 26/19/35 
f 33/22/33 26/19/35 48/69/36 
f 45/66/30 48/69/29 39/60/37 
f 45/66/30 39/60/37 38/59/38 
f 48/69/36 26/19/35 46/67/39 
f 48/69/36 46/67/39 39/60/40 
f 43/64/1 44/65/1 46/67/1 
f 43/64/1 46/67/1 47/68/1 
f 37/58/1 43/64/1 47/68/1 
f 37/58/1 47/68/1 35/56/1 
f 38/59/1 35/56/1 47/68/1 
f 41/62/41 49/62/41 50/63/41 
f 41/62/41 50/63/41 42/63/41 
f 42/63/42 50/63/42 51/10/42 
f 42/63/42 51/10/42 13/10/42 
f 24/17/43 52/17/43 49/62/43 
f 24/17/43 49/62/43 41/62/43 
f 22/16/44 53/16/44 52/17/44 
f 22/16/44 52/17/44 24/17/44 
f 20/15/45 54/15/45 53/16/45 
f 20/15/45 53/16/45 22/16/45 
f 2/2/46 55/2/46 54/15/46 
f 2/2/46 54/15/46 20/15/46 
f 1/1/47 56/1/47 55/2/47 
f 1/1/47 55/2/47 2/2/47 
f 19/14/48 57/14/48 56/1/48 
f 19/14/48 56/1/48 1/1/48 
f 17/13/49 58/13/49 57/14/49 
f 17/13/49 57/14/49 19/14/49 
f 16/12/50 59/12/50 58/13/50 
f 16/12/50 58/13/50 17/13/50 
f 14/11/51 60/11/51 59/12/51 
f 14/11/51 59/12/51 16/12/51 
f 13/10/52 51/10/52 60/11/52 
f 13/10/52 60/11/52 14/11/52 
# 106 faces

