# 3ds Max Wavefront OBJ Exporter v0.97b - (c)2007 guruware
# File Created: 21.02.2011 11:31:21

#
# object sponza_111
#

v  98.4161 30.9529 -92.9913
v  98.4161 30.9529 -93.6023
v  98.5083 31.5993 -93.6023
v  98.5083 31.5993 -92.9091
v  98.3292 30.9529 -92.9181
v  98.4268 31.5993 -92.8405
v  91.6371 31.5993 -92.8405
v  91.7347 30.9529 -92.9181
v  99.1276 33.6256 -92.2453
v  90.9363 33.6256 -92.2453
v  90.9321 33.1893 -92.2453
v  99.1318 33.1893 -92.2453
v  90.8490 33.6256 -92.3188
v  90.8490 33.6256 -93.6023
v  90.8490 33.1893 -93.6023
v  90.8490 33.1893 -92.3153
v  98.3485 30.5660 -93.0496
v  98.3485 30.5660 -93.6023
v  98.6092 30.7594 -93.6023
v  98.6092 30.7594 -92.8373
v  98.2600 30.5660 -92.9751
v  98.5121 30.7594 -92.7555
v  91.5518 30.7594 -92.7555
v  91.8039 30.5660 -92.9751
v  99.2149 33.6256 -92.3188
v  99.2149 33.6256 -93.6023
v  99.4577 33.8438 -93.6023
v  99.4577 33.8438 -92.1220
v  99.3612 33.8438 -92.0407
v  90.7027 33.8438 -92.0407
v  99.2149 34.0619 -93.6023
v  99.2149 34.0619 -92.3266
v  99.1184 34.0619 -92.2453
v  90.9455 34.0619 -92.2453
v  98.8203 32.4992 -92.6490
v  98.8203 32.4992 -93.6023
v  99.2149 33.1893 -93.6023
v  99.2149 33.1893 -92.3153
v  98.7356 32.4992 -92.5777
v  91.3284 32.4992 -92.5777
v  91.5556 31.5993 -92.9091
v  91.6478 30.9529 -92.9913
v  91.4547 30.7594 -92.8373
v  91.7154 30.5660 -93.0496
v  90.6062 33.8438 -92.1220
v  90.8490 34.0619 -92.3266
v  91.2436 32.4992 -92.6490
v  90.8490 34.0619 -93.6023
v  91.5556 31.5993 -93.6023
v  91.6478 30.9529 -93.6023
v  91.4547 30.7594 -93.6023
v  91.7154 30.5660 -93.6023
v  90.6062 33.8438 -93.6023
v  91.2436 32.4992 -93.6023
# 54 vertices

vn 0.9900 -0.1411 -0.0000
vn 0.9719 -0.2354 -0.0000
vn 0.9691 -0.2466 -0.0000
vn 0.0000 -0.1192 0.9929
vn 0.0000 -0.2119 0.9773
vn 0.0000 0.0000 1.0000
vn -1.0000 0.0000 -0.0000
vn 0.5959 -0.8031 -0.0000
vn 0.0000 -0.7504 0.6610
vn 0.7077 0.7065 -0.0000
vn 0.0000 0.6436 0.7654
vn 0.6683 -0.7439 -0.0000
vn 0.0000 -0.6840 0.7295
vn 0.6683 0.7439 -0.0000
vn 0.0000 0.6840 0.7295
vn 0.9024 -0.4309 -0.0000
vn 0.9104 -0.4138 -0.0000
vn 0.8681 -0.4964 -0.0000
vn 0.0000 -0.3769 0.9263
vn 0.0000 -0.4339 0.9009
vn 0.6331 -0.1858 0.7515
vn 0.6144 -0.3014 0.7291
vn 0.6159 -0.2942 0.7308
vn -0.6157 -0.2942 0.7310
vn -0.6142 -0.3014 0.7293
vn -0.6331 -0.1858 0.7515
vn 0.6443 0.0062 0.7647
vn -0.6442 0.0062 0.7648
vn 0.4020 0.7814 0.4773
vn 0.4020 0.7814 0.4772
vn -0.4020 0.7814 0.4772
vn -0.4020 0.7814 0.4773
vn 0.3255 -0.8630 0.3864
vn -0.3255 -0.8630 0.3864
vn 0.3733 -0.8151 0.4430
vn 0.3732 -0.8151 0.4431
vn -0.3733 -0.8151 0.4431
vn -0.3733 -0.8151 0.4430
vn -0.3732 -0.8151 0.4431
vn 0.3685 0.8203 0.4374
vn 0.3686 0.8203 0.4374
vn -0.3685 0.8203 0.4374
vn -0.3684 0.8203 0.4374
vn 0.5551 -0.5082 0.6586
vn 0.5184 -0.5939 0.6152
vn 0.5589 -0.4978 0.6632
vn -0.5183 -0.5940 0.6153
vn -0.5549 -0.5082 0.6587
vn -0.5588 -0.4978 0.6633
vn 0.0000 1.0000 -0.0000
vn -0.9900 -0.1411 -0.0000
vn -0.9691 -0.2466 -0.0000
vn -0.9719 -0.2355 -0.0000
vn 1.0000 0.0000 -0.0000
vn -0.5959 -0.8031 0.0000
vn -0.7077 0.7065 0.0000
vn -0.7077 0.7065 -0.0000
vn -0.6683 -0.7439 -0.0000
vn -0.6683 0.7439 -0.0000
vn -0.9024 -0.4309 -0.0000
vn -0.8681 -0.4964 -0.0000
vn -0.9104 -0.4138 -0.0000
vn 0.0000 -1.0000 -0.0000
# 63 vertex normals

vt 0.5504 0.8881 0.0000
vt 0.5337 0.8881 0.0000
vt 0.5337 0.9084 0.0000
vt 0.5526 0.9084 0.0000
vt 0.6076 0.8897 0.0000
vt 0.6053 0.9100 0.0000
vt 0.7614 0.9100 0.0000
vt 0.7592 0.8897 0.0000
vt 0.5892 0.9737 0.0000
vt 0.7775 0.9737 0.0000
vt 0.7776 0.9600 0.0000
vt 0.5891 0.9600 0.0000
vt 0.7937 0.9733 0.0000
vt 0.8288 0.9733 0.0000
vt 0.8288 0.9596 0.0000
vt 0.7936 0.9596 0.0000
vt 0.9865 0.7672 0.0000
vt 0.9619 0.7672 0.0000
vt 0.9632 0.7791 0.0000
vt 0.9959 0.7791 0.0000
vt 0.0113 0.7672 0.0000
vt 0.0111 0.7790 0.0000
vt 0.2524 0.7790 0.0000
vt 0.2525 0.7672 0.0000
vt 0.5337 0.8820 0.0000
vt 0.5546 0.8820 0.0000
vt 0.6034 0.8836 0.0000
vt 0.7634 0.8836 0.0000
vt 0.5687 0.9721 0.0000
vt 0.5337 0.9721 0.0000
vt 0.5337 0.9790 0.0000
vt 0.5741 0.9790 0.0000
vt 0.5839 0.9806 0.0000
vt 0.7829 0.9806 0.0000
vt 0.5337 0.9859 0.0000
vt 0.5685 0.9859 0.0000
vt 0.5894 0.9875 0.0000
vt 0.7773 0.9875 0.0000
vt 0.5597 0.9367 0.0000
vt 0.5337 0.9367 0.0000
vt 0.5337 0.9584 0.0000
vt 0.5688 0.9584 0.0000
vt 0.5982 0.9383 0.0000
vt 0.7685 0.9383 0.0000
vt 0.6050 0.8907 0.0000
vt 0.6028 0.9094 0.0000
vt 0.8073 0.9090 0.0000
vt 0.8098 0.9096 0.0000
vt 0.8121 0.8892 0.0000
vt 0.8095 0.8902 0.0000
vt 0.5867 0.9726 0.0000
vt 0.5865 0.9593 0.0000
vt 0.7912 0.9721 0.0000
vt 0.7910 0.9589 0.0000
vt 0.6007 0.8862 0.0000
vt 0.8079 0.8832 0.0000
vt 0.8052 0.8857 0.0000
vt 0.0079 0.7672 0.0000
vt 0.0078 0.7789 0.0000
vt 0.2558 0.7672 0.0000
vt 0.2559 0.7790 0.0000
vt 0.5815 0.9806 0.0000
vt 0.7860 0.9801 0.0000
vt 0.7884 0.9801 0.0000
vt 0.5871 0.9900 0.0000
vt 0.7916 0.9896 0.0000
vt 0.7939 0.9870 0.0000
vt 0.5957 0.9372 0.0000
vt 0.8027 0.9379 0.0000
vt 0.8002 0.9367 0.0000
vt 0.1674 0.8760 0.0000
vt 0.1655 0.8746 0.0000
vt 0.0109 0.8746 0.0000
vt 0.0091 0.8976 0.0000
vt 0.0091 0.8760 0.0000
vt 0.1674 0.8976 0.0000
vt 0.8288 0.9096 0.0000
vt 0.8288 0.8892 0.0000
vt 0.2874 0.7790 0.0000
vt 0.2803 0.7672 0.0000
vt 0.8288 0.8832 0.0000
vt 0.8288 0.9801 0.0000
vt 0.8288 0.9870 0.0000
vt 0.8288 0.9379 0.0000
vt 0.4476 0.6911 0.0000
vt 0.2773 0.6911 0.0000
vt 0.2773 0.6742 0.0000
vt 0.4476 0.6742 0.0000
vt 0.4453 0.6933 0.0000
vt 0.2795 0.6933 0.0000
# 90 texture coords

g sponza_111
f 1/1/1 2/2/1 3/3/2 
f 1/1/1 3/3/2 4/4/3 
f 5/5/4 6/6/5 7/7/5 
f 5/5/4 7/7/5 8/8/4 
f 9/9/6 10/10/6 11/11/6 
f 9/9/6 11/11/6 12/12/6 
f 13/13/7 14/14/7 15/15/7 
f 13/13/7 15/15/7 16/16/7 
f 17/17/8 18/18/8 19/19/8 
f 17/17/8 19/19/8 20/20/8 
f 21/21/9 22/22/9 23/23/9 
f 21/21/9 23/23/9 24/24/9 
f 19/25/10 2/2/10 1/1/10 
f 19/25/10 1/1/10 20/26/10 
f 22/27/11 5/5/11 8/8/11 
f 22/27/11 8/8/11 23/28/11 
f 25/29/12 26/30/12 27/31/12 
f 25/29/12 27/31/12 28/32/12 
f 9/9/13 29/33/13 30/34/13 
f 9/9/13 30/34/13 10/10/13 
f 27/31/14 31/35/14 32/36/14 
f 27/31/14 32/36/14 28/32/14 
f 29/33/15 33/37/15 34/38/15 
f 29/33/15 34/38/15 30/34/15 
f 35/39/16 36/40/17 37/41/18 
f 35/39/16 37/41/18 38/42/18 
f 39/43/19 12/12/20 11/11/20 
f 39/43/19 11/11/20 40/44/19 
f 4/4/3 3/3/2 36/40/17 
f 4/4/3 36/40/17 35/39/16 
f 6/6/5 39/43/19 40/44/19 
f 6/6/5 40/44/19 7/7/5 
f 1/45/21 4/46/22 6/6/23 
f 1/45/21 6/6/23 5/5/21 
f 7/47/24 41/48/25 42/49/26 
f 7/47/24 42/49/26 8/50/26 
f 25/51/27 9/9/27 12/12/27 
f 25/51/27 12/12/27 38/52/27 
f 10/53/28 13/13/28 16/16/28 
f 10/53/28 16/16/28 11/54/28 
f 22/27/29 20/55/29 1/45/30 
f 22/27/29 1/45/30 5/5/30 
f 42/49/31 43/56/32 23/57/32 
f 42/49/31 23/57/32 8/50/31 
f 22/22/33 21/21/33 17/58/33 
f 22/22/33 17/58/33 20/59/33 
f 44/60/34 24/24/34 23/23/34 
f 44/60/34 23/23/34 43/61/34 
f 25/51/35 28/62/36 29/33/36 
f 25/51/35 29/33/36 9/9/35 
f 30/63/37 45/64/38 13/13/39 
f 30/63/37 13/13/39 10/53/39 
f 32/65/40 33/37/41 29/33/40 
f 32/65/40 29/33/40 28/62/40 
f 30/63/42 34/66/43 46/67/42 
f 30/63/42 46/67/42 45/64/42 
f 35/68/44 38/52/45 12/12/45 
f 35/68/44 12/12/45 39/43/46 
f 11/54/47 16/16/47 47/69/48 
f 11/54/47 47/69/48 40/70/49 
f 4/46/22 35/68/44 39/43/46 
f 4/46/22 39/43/46 6/6/23 
f 40/70/49 47/69/48 41/48/25 
f 40/70/49 41/48/25 7/47/24 
f 46/71/50 34/72/50 33/73/50 
f 46/71/50 33/73/50 31/74/50 
f 33/73/50 32/75/50 31/74/50 
f 48/76/50 46/71/50 31/74/50 
f 42/49/51 41/48/52 49/77/53 
f 42/49/51 49/77/53 50/78/51 
f 25/29/54 38/42/54 37/41/54 
f 25/29/54 37/41/54 26/30/54 
f 44/60/55 43/61/55 51/79/55 
f 44/60/55 51/79/55 52/80/55 
f 51/81/56 43/56/56 42/49/56 
f 51/81/56 42/49/56 50/78/57 
f 13/13/58 45/64/58 53/82/58 
f 13/13/58 53/82/58 14/14/58 
f 53/82/59 45/64/59 46/67/59 
f 53/82/59 46/67/59 48/83/59 
f 47/69/60 16/16/61 15/15/61 
f 47/69/60 15/15/61 54/84/62 
f 41/48/52 47/69/60 54/84/62 
f 41/48/52 54/84/62 49/77/53 
f 17/85/63 44/86/63 52/87/63 
f 17/85/63 52/87/63 18/88/63 
f 44/86/63 17/85/63 21/89/63 
f 44/86/63 21/89/63 24/90/63 
# 88 faces

