# 3ds Max Wavefront OBJ Exporter v0.97b - (c)2007 guruware
# File Created: 21.02.2011 11:31:13

#
# object sponza_56
#

v  -34.5912 111.3803 -8.6268
v  -34.5912 111.3803 -11.3946
v  -34.5912 105.0371 -11.3946
v  -34.5912 105.0371 -8.6268
v  -32.0966 113.4368 -11.9736
v  -31.7856 113.7479 -11.9736
v  -31.7856 105.0371 -11.9736
v  -32.0966 105.0371 -11.9736
v  -31.7856 113.7479 -8.6268
v  -31.7856 105.0371 -8.6268
v  -32.5716 112.9618 -11.3946
v  -32.5716 105.0371 -11.3946
v  -36.4434 111.3803 -11.3946
v  -36.4434 112.9618 -11.3946
v  -36.4434 113.4368 -11.9736
v  -36.4434 111.3803 -8.6268
v  -36.4434 113.7479 -11.9736
v  -36.4434 113.7479 -8.6268
v  -38.2955 105.0371 -11.3946
v  -38.2955 111.3803 -11.3946
v  -38.2955 111.3803 -8.6268
v  -38.2955 105.0371 -8.6268
v  -40.8185 105.0371 -11.9736
v  -40.8185 113.7479 -11.9736
v  -40.5074 113.4368 -11.9736
v  -40.5074 105.0371 -11.9736
v  -40.8185 113.7479 -8.6268
v  -40.8185 105.0371 -8.6268
v  -40.0324 105.0371 -11.3946
v  -40.0324 112.9618 -11.3946
# 30 vertices

vn -1.0000 -0.0000 -0.0000
vn -0.0000 -0.0000 -1.0000
vn 0.0000 0.0000 -1.0000
vn 1.0000 -0.0000 -0.0000
vn -0.7731 0.0000 -0.6342
vn -0.0000 0.0000 -1.0000
vn 0.0000 -0.7731 -0.6342
vn 0.0000 -1.0000 -0.0000
vn 0.0000 1.0000 -0.0000
vn -1.0000 0.0000 -0.0000
vn 0.7731 0.0000 -0.6342
vn -0.0000 -0.7731 -0.6342
# 12 vertex normals

vt 0.7878 0.0638 0.0000
vt 0.7878 0.1543 0.0000
vt 0.9965 0.1543 0.0000
vt 0.9965 0.0638 0.0000
vt 0.7384 0.2067 0.0000
vt 0.7282 0.2169 0.0000
vt 0.9965 0.2169 0.0000
vt 0.9965 0.2067 0.0000
vt 0.7282 0.3263 0.0000
vt 0.9965 0.3263 0.0000
vt 0.7541 0.1878 0.0000
vt 0.9965 0.1878 0.0000
vt 0.8487 0.1543 0.0000
vt 0.8487 0.1878 0.0000
vt 0.8487 0.2067 0.0000
vt 0.8487 0.0638 0.0000
vt 0.8487 0.2169 0.0000
vt 0.8487 0.3263 0.0000
# 18 texture coords

g sponza_56
f 1/1/1 2/2/1 3/3/1 
f 1/1/1 3/3/1 4/4/1 
f 5/5/2 6/6/2 7/7/3 
f 5/5/2 7/7/3 8/8/3 
f 7/7/4 6/6/4 9/9/4 
f 7/7/4 9/9/4 10/10/4 
f 2/2/3 11/11/3 12/12/3 
f 2/2/3 12/12/3 3/3/3 
f 11/11/5 5/5/5 8/8/5 
f 11/11/5 8/8/5 12/12/5 
f 2/2/3 13/13/6 14/14/6 
f 2/2/3 14/14/6 11/11/3 
f 11/11/7 14/14/7 15/15/7 
f 11/11/7 15/15/7 5/5/7 
f 13/13/8 2/2/8 1/1/8 
f 13/13/8 1/1/8 16/16/8 
f 17/17/3 6/6/2 5/5/2 
f 17/17/3 5/5/2 15/15/3 
f 18/18/9 9/9/9 6/6/9 
f 18/18/9 6/6/9 17/17/9 
f 19/3/4 20/2/4 21/1/4 
f 19/3/4 21/1/4 22/4/4 
f 23/7/3 24/6/3 25/5/3 
f 23/7/3 25/5/3 26/8/3 
f 27/9/10 24/6/10 23/7/10 
f 27/9/10 23/7/10 28/10/10 
f 20/2/3 19/3/3 29/12/3 
f 20/2/3 29/12/3 30/11/3 
f 30/11/11 29/12/11 26/8/11 
f 30/11/11 26/8/11 25/5/11 
f 20/2/3 30/11/3 14/14/6 
f 20/2/3 14/14/6 13/13/6 
f 30/11/12 25/5/12 15/15/7 
f 30/11/12 15/15/7 14/14/7 
f 21/1/8 20/2/8 13/13/8 
f 21/1/8 13/13/8 16/16/8 
f 25/5/3 24/6/3 17/17/3 
f 25/5/3 17/17/3 15/15/3 
f 24/6/9 27/9/9 18/18/9 
f 24/6/9 18/18/9 17/17/9 
# 40 faces

