# 3ds Max Wavefront OBJ Exporter v0.97b - (c)2007 guruware
# File Created: 21.02.2011 11:31:15

#
# object sponza_73
#

v  8.3869 22.9098 -92.1690
v  7.8404 22.9098 -92.7478
v  7.8453 12.0792 -92.7478
v  8.3869 12.0792 -92.1690
v  -6.3021 22.9098 -92.7478
v  -6.9601 22.9098 -92.1690
v  -6.9601 12.0792 -92.1690
v  -6.2849 12.0792 -92.7478
v  0.6190 39.7436 -93.9982
v  0.6190 33.7405 -93.9982
v  5.6987 33.7405 -93.9982
v  3.7286 37.9146 -93.9982
v  5.5389 34.7418 -93.9982
v  4.9044 36.3096 -93.9982
v  2.3102 38.9971 -93.9982
v  -3.6434 36.3282 -93.9982
v  -4.2406 34.8538 -93.9982
v  -4.3854 33.7405 -93.9982
v  -0.6946 39.1650 -93.9982
v  -2.4303 37.9333 -93.9982
v  -6.3141 30.4813 -92.7478
v  -6.9601 30.4813 -92.1690
v  0.6190 32.9875 -93.9982
v  5.8189 32.9875 -93.9982
v  -4.4832 32.9875 -93.9982
v  5.8484 12.7534 -93.8877
v  5.8935 22.9098 -93.8877
v  0.6190 22.9098 -93.8877
v  0.6190 12.7534 -93.8877
v  -4.4589 12.7534 -93.8877
v  -4.5491 22.9098 -93.8877
v  8.3869 30.4813 -92.1690
v  7.8174 30.4813 -92.7478
v  -3.5751 29.6327 -93.2342
v  -3.4348 29.8121 -93.2342
v  -3.5078 29.9916 -93.2342
v  -3.4236 30.4813 -93.2342
v  -3.4348 30.0814 -93.2342
v  -4.6163 30.4813 -93.2342
v  -4.5974 28.3539 -93.2342
v  -4.0686 28.8530 -93.2342
v  -4.3042 28.4773 -93.2342
v  -3.9060 29.2120 -93.2342
v  -3.4461 29.3803 -93.2342
v  -3.6031 29.2064 -93.2342
v  -4.3042 28.4773 -93.8877
v  -4.5974 28.3539 -93.8877
v  0.6190 30.4813 -93.8877
v  -3.4236 30.4813 -93.8877
v  -3.4348 30.0814 -93.8877
v  -3.4348 29.8121 -93.8877
v  -3.5078 29.9916 -93.8877
v  -3.5751 29.6327 -93.8877
v  -3.4461 29.3803 -93.8877
v  -3.6031 29.2064 -93.8877
v  -4.0686 28.8530 -93.8877
v  -3.9060 29.2120 -93.8877
v  4.7696 30.1364 -93.8877
v  4.7581 30.4813 -93.8877
v  4.7810 29.8154 -93.8877
v  5.7842 28.3537 -93.8877
v  5.9176 28.3364 -93.8877
v  5.5262 28.5887 -93.8877
v  4.9301 29.3511 -93.8877
v  5.3829 29.0301 -93.8877
v  5.1536 29.3625 -93.8877
v  4.8383 29.4715 -93.8877
v  4.9243 29.7179 -93.8877
v  4.8498 30.0504 -93.8877
v  5.7842 28.3537 -93.2341
v  5.9176 28.3364 -93.2341
v  5.9271 30.4813 -93.2341
v  5.3829 29.0301 -93.2341
v  4.7581 30.4813 -93.2341
v  4.7696 30.1364 -93.2341
v  4.8498 30.0504 -93.2341
v  4.7810 29.8154 -93.2341
v  4.9243 29.7179 -93.2341
v  4.8383 29.4715 -93.2341
v  4.9301 29.3511 -93.2341
v  5.1536 29.3625 -93.2341
v  5.5262 28.5887 -93.2341
v  5.9271 30.4813 -92.7478
v  5.8935 22.9098 -92.7478
v  -4.6163 30.4813 -92.7478
v  0.6190 30.4813 -92.7478
v  5.8484 12.7534 -92.7478
v  0.6190 12.7534 -92.7478
v  -4.4589 12.7534 -92.7478
v  -4.5491 22.9098 -92.7478
v  -6.3193 33.7405 -92.7478
v  -6.9601 33.7405 -92.1690
v  8.3869 33.7405 -92.1690
v  7.8075 33.7405 -92.7478
v  0.6190 32.9875 -92.7478
v  5.8189 32.9875 -92.7478
v  -4.4832 32.9875 -92.7478
v  -4.3854 33.7405 -92.7478
v  -4.2406 34.8538 -92.7478
v  -3.6434 36.3282 -92.7478
v  -2.4303 37.9333 -92.7478
v  -0.6946 39.1650 -92.7478
v  0.6190 39.7436 -92.7478
v  2.3102 38.9971 -92.7478
v  3.7286 37.9146 -92.7478
v  4.9044 36.3096 -92.7478
v  5.5389 34.7418 -92.7478
v  5.6987 33.7405 -92.7478
v  8.3869 12.0792 -94.0593
v  0.6190 12.0792 -94.0593
v  0.6190 12.0792 -92.7478
v  -6.9601 22.9098 -94.0593
v  -6.9601 12.0792 -94.0593
v  8.3869 30.4813 -94.0593
v  8.3869 33.7405 -94.0593
v  2.3340 41.8771 -94.0593
v  0.6190 42.3393 -94.0593
v  0.6190 42.3393 -92.1690
v  2.3340 41.8771 -92.1690
v  4.3665 40.8603 -94.0593
v  4.3665 40.8603 -92.1690
v  5.8909 39.4367 -94.0593
v  5.8909 39.4367 -92.1690
v  7.4152 37.1626 -94.0593
v  7.4152 37.1626 -92.1690
v  8.1774 34.9071 -94.0593
v  8.1774 34.9071 -92.1690
v  -0.8163 41.9511 -94.0593
v  -0.8163 41.9511 -92.1690
v  -2.3407 41.2855 -94.0593
v  -2.3407 41.2855 -92.1690
v  -4.0006 40.0653 -94.0593
v  -4.0006 40.0653 -92.1690
v  -5.4910 38.2349 -94.0593
v  -5.4910 38.2349 -92.1690
v  -6.5073 36.1273 -94.0593
v  -6.9601 33.7405 -94.0593
v  -6.5073 36.1273 -92.1690
v  -6.9601 30.4813 -94.0593
v  8.3869 22.9098 -94.0593
v  2.2393 41.3413 -92.7478
v  3.9579 40.3789 -92.7478
v  0.6190 41.6850 -92.7478
v  -5.8037 35.9793 -92.7478
v  -4.8413 37.8354 -92.7478
v  -3.4320 39.6571 -92.7478
v  -1.8509 40.8257 -92.7478
v  5.4359 39.0040 -92.7478
v  7.0513 36.8730 -92.7478
v  7.5772 34.6947 -92.7478
# 150 vertices

vn -0.7271 -0.0002 0.6865
vn -0.7266 -0.0002 0.6871
vn -0.7300 -0.0000 0.6834
vn -0.7301 0.0000 0.6833
vn 0.6604 0.0001 0.7509
vn 0.6604 0.0000 0.7509
vn 0.6513 0.0010 0.7588
vn 0.6508 0.0010 0.7593
vn 0.0000 0.0000 1.0000
vn -0.0000 0.0000 1.0000
vn 0.0000 -0.0000 1.0000
vn 0.6673 0.0011 0.7448
vn 0.6673 0.0009 0.7448
vn -0.7133 -0.0010 0.7009
vn -0.7123 -0.0012 0.7019
vn -1.0000 0.0044 -0.0000
vn -1.0000 0.0044 0.0000
vn 0.0000 -1.0000 -0.0000
vn 0.9376 -0.3478 -0.0000
vn 0.9996 -0.0280 -0.0000
vn -0.9994 -0.0332 -0.0000
vn -0.9241 -0.3821 -0.0000
vn -0.7310 -0.6824 -0.0000
vn -0.9597 0.2809 -0.0000
vn -0.5623 -0.8269 -0.0000
vn -0.9442 0.3294 -0.0000
vn -0.7954 -0.6061 -0.0000
vn 0.0512 -0.9987 -0.0000
vn -0.8232 -0.5677 -0.0000
vn -0.8966 -0.4429 -0.0000
vn -0.8403 -0.5421 -0.0000
vn -0.4204 -0.9073 -0.0000
vn -0.1285 -0.9917 -0.0000
vn 0.0000 1.0000 -0.0000
vn 1.0000 0.0089 -0.0000
vn 1.0000 0.0089 0.0000
vn 0.3878 -0.9217 -0.0000
vn 0.6477 -0.7619 -0.0000
vn 0.8811 -0.4730 -0.0000
vn 0.9108 -0.4127 -0.0000
vn -0.0185 -0.9998 -0.0000
vn 0.7421 -0.6703 -0.0000
vn 0.8904 0.4551 -0.0000
vn 0.7880 -0.6157 -0.0000
vn 0.9265 0.3764 -0.0000
vn 0.7761 -0.6306 -0.0000
vn 0.6625 -0.0680 0.7459
vn 0.6690 -0.0603 0.7408
vn -0.7059 -0.0614 0.7057
vn -0.6962 -0.0741 0.7140
vn 0.9917 -0.1289 -0.0000
vn 0.9671 -0.2542 -0.0000
vn 0.8698 -0.4934 0.0000
vn 0.6964 -0.7176 0.0000
vn 0.4934 -0.8698 0.0000
vn 0.4031 -0.9152 -0.0000
vn 0.4031 -0.9152 0.0000
vn -0.4038 -0.9148 -0.0000
vn -0.5088 -0.8609 0.0000
vn -0.7140 -0.7001 0.0000
vn -0.8735 -0.4868 0.0000
vn -0.9634 -0.2681 -0.0000
vn -0.9875 -0.1576 -0.0000
vn -1.0000 0.0000 -0.0000
vn 1.0000 0.0000 -0.0000
vn 0.9961 0.0887 -0.0000
vn 0.3556 0.9346 -0.0000
vn -0.0005 1.0000 -0.0000
vn 0.5709 0.8210 -0.0000
vn 0.7616 0.6481 -0.0000
vn 0.8969 0.4423 -0.0000
vn 0.9685 0.2491 -0.0000
vn -0.3315 0.9434 -0.0000
vn -0.4993 0.8664 -0.0000
vn -0.6894 0.7244 -0.0000
vn -0.8439 0.5366 -0.0000
vn -0.9497 0.3130 -0.0000
vn -0.9956 0.0936 -0.0000
vn -0.2500 -0.6823 0.6870
vn -0.3968 -0.5486 0.7359
vn -0.4021 -0.5531 0.7297
vn -0.2391 -0.6838 0.6894
vn 0.5887 -0.2143 0.7794
vn 0.6024 -0.2038 0.7718
vn 0.5089 -0.3331 0.7938
vn 0.5108 -0.3314 0.7933
vn 0.4441 -0.4669 0.7647
vn 0.4494 -0.4536 0.7696
vn 0.3129 -0.5812 0.7512
vn 0.3419 -0.5726 0.7451
vn 0.0134 -0.6601 0.7511
vn 0.2123 -0.6093 0.7640
vn 0.0003 -0.6626 0.7490
vn -0.5218 -0.4470 0.7266
vn -0.5148 -0.4411 0.7351
vn -0.6902 -0.3468 0.6351
vn -0.6827 -0.3666 0.6321
vn -0.6558 -0.1583 0.7382
vn -0.6771 -0.1618 0.7179
vn -0.0000 -0.0000 1.0000
# 100 vertex normals

vt -0.0000 0.3361 0.0000
vt 0.0175 0.3361 0.0000
vt 0.0174 -0.0000 0.0000
vt 0.0000 0.0000 0.0000
vt 0.4715 0.3361 0.0000
vt 0.4926 0.3361 0.0000
vt 0.4926 0.0000 0.0000
vt 0.4709 0.0000 0.0000
vt 0.2493 0.8585 0.0000
vt 0.2493 0.6722 0.0000
vt 0.0863 0.6722 0.0000
vt 0.1495 0.8017 0.0000
vt 0.0914 0.7033 0.0000
vt 0.1118 0.7519 0.0000
vt 0.1950 0.8353 0.0000
vt 0.3861 0.7525 0.0000
vt 0.4053 0.7068 0.0000
vt 0.4099 0.6722 0.0000
vt 0.2915 0.8406 0.0000
vt 0.3472 0.8023 0.0000
vt 0.4718 0.5711 0.0000
vt 0.4926 0.5711 0.0000
vt 0.2493 0.6488 0.0000
vt 0.0824 0.6488 0.0000
vt 0.4131 0.6488 0.0000
vt 0.0815 0.0209 0.0000
vt 0.0800 0.3361 0.0000
vt 0.2493 0.3361 0.0000
vt 0.2493 0.0209 0.0000
vt 0.4123 0.0209 0.0000
vt 0.4152 0.3361 0.0000
vt -0.0000 0.5711 0.0000
vt 0.0183 0.5711 0.0000
vt 0.3839 0.5447 0.0000
vt 0.3794 0.5503 0.0000
vt 0.3818 0.5559 0.0000
vt 0.3791 0.5711 0.0000
vt 0.3794 0.5587 0.0000
vt 0.4173 0.5711 0.0000
vt 0.4167 0.5051 0.0000
vt 0.3998 0.5205 0.0000
vt 0.4073 0.5089 0.0000
vt 0.3945 0.5317 0.0000
vt 0.3798 0.5369 0.0000
vt 0.3848 0.5315 0.0000
vt 0.2493 0.5711 0.0000
vt 0.1161 0.5604 0.0000
vt 0.1165 0.5711 0.0000
vt 0.1157 0.5504 0.0000
vt 0.0835 0.5050 0.0000
vt 0.0793 0.5045 0.0000
vt 0.0918 0.5123 0.0000
vt 0.1110 0.5360 0.0000
vt 0.0964 0.5260 0.0000
vt 0.1038 0.5364 0.0000
vt 0.1139 0.5397 0.0000
vt 0.1111 0.5474 0.0000
vt 0.1135 0.5577 0.0000
vt 0.0790 0.5711 0.0000
vt 0.0261 0.5672 0.0000
vt 0.0410 0.5672 0.0000
vt 0.0410 0.5015 0.0000
vt 0.0261 0.3353 0.0000
vt 0.4345 0.5207 0.0000
vt 0.4544 0.5207 0.0000
vt 0.4544 0.4719 0.0000
vt 0.4345 0.3062 0.0000
vt 0.0224 0.3478 0.0000
vt 0.0224 0.3716 0.0000
vt 0.0611 0.3716 0.0000
vt 0.0611 0.3478 0.0000
vt 0.4812 0.4719 0.0000
vt 0.4812 0.3062 0.0000
vt 0.4812 0.1366 0.0000
vt 0.4544 0.1366 0.0000
vt 0.0611 0.3700 0.0000
vt 0.0611 0.3494 0.0000
vt 0.0224 0.3494 0.0000
vt 0.0224 0.3700 0.0000
vt 0.0611 0.3632 0.0000
vt 0.0611 0.3562 0.0000
vt 0.0224 0.3562 0.0000
vt 0.0224 0.3632 0.0000
vt 0.0611 0.3670 0.0000
vt 0.0611 0.3524 0.0000
vt 0.0224 0.3524 0.0000
vt 0.0224 0.3670 0.0000
vt 0.0611 0.3648 0.0000
vt 0.0611 0.3546 0.0000
vt 0.0224 0.3546 0.0000
vt 0.0224 0.3648 0.0000
vt 0.0611 0.3674 0.0000
vt 0.0611 0.3520 0.0000
vt 0.0224 0.3520 0.0000
vt 0.0224 0.3674 0.0000
vt 0.0611 0.3642 0.0000
vt 0.0611 0.3552 0.0000
vt 0.0224 0.3552 0.0000
vt 0.0224 0.3642 0.0000
vt 0.0224 0.3531 0.0000
vt 0.0224 0.3663 0.0000
vt 0.0611 0.3663 0.0000
vt 0.0611 0.3531 0.0000
vt 0.0611 0.3734 0.0000
vt 0.0611 0.3459 0.0000
vt 0.0224 0.3459 0.0000
vt 0.0224 0.3734 0.0000
vt 0.0611 0.3637 0.0000
vt 0.0611 0.3557 0.0000
vt 0.0224 0.3557 0.0000
vt 0.0224 0.3637 0.0000
vt 0.0610 0.5015 0.0000
vt 0.0610 0.3353 0.0000
vt 0.0610 0.0241 0.0000
vt 0.0261 0.0241 0.0000
vt 0.1511 0.0190 0.0000
vt 0.2554 0.0190 0.0000
vt 0.2554 0.0037 0.0000
vt 0.1511 0.0037 0.0000
vt 0.3566 0.0190 0.0000
vt 0.3566 0.0037 0.0000
vt 0.4350 0.0212 0.0000
vt 0.4350 0.3371 0.0000
vt 0.4704 0.3371 0.0000
vt 0.4704 0.0212 0.0000
vt 0.4350 0.5064 0.0000
vt 0.4553 0.5064 0.0000
vt 0.0224 0.1989 0.0000
vt 0.0224 0.2177 0.0000
vt 0.0611 0.2177 0.0000
vt 0.0611 0.1989 0.0000
vt 0.0224 0.2440 0.0000
vt 0.0611 0.2440 0.0000
vt 0.0224 0.2674 0.0000
vt 0.0611 0.2674 0.0000
vt 0.0224 0.2853 0.0000
vt 0.0611 0.2853 0.0000
vt 0.0224 0.2992 0.0000
vt 0.0611 0.2992 0.0000
vt 0.0224 0.3160 0.0000
vt 0.0611 0.3160 0.0000
vt 0.0224 0.3295 0.0000
vt 0.0611 0.3295 0.0000
vt 0.0224 0.3410 0.0000
vt 0.0611 0.3410 0.0000
vt 0.4553 0.5726 0.0000
vt 0.4704 0.5726 0.0000
vt 0.4544 0.0887 0.0000
vt 0.4345 0.0887 0.0000
vt 0.4720 0.6722 0.0000
vt 0.4926 0.6722 0.0000
vt -0.0000 0.6722 0.0000
vt 0.0186 0.6722 0.0000
vt 0.0686 0.4293 0.0000
vt 0.0686 0.2905 0.0000
vt 0.0282 0.2905 0.0000
vt 0.0282 0.4293 0.0000
vt 0.0686 0.1542 0.0000
vt 0.0282 0.1542 0.0000
vt 0.0686 0.1341 0.0000
vt 0.0282 0.1341 0.0000
vt 0.0686 0.1044 0.0000
vt 0.0282 0.1044 0.0000
vt 0.0686 0.0650 0.0000
vt 0.0282 0.0650 0.0000
vt 0.0686 0.0222 0.0000
vt 0.0282 0.0222 0.0000
vt 0.0686 0.7252 0.0000
vt 0.0686 0.6789 0.0000
vt 0.0282 0.6789 0.0000
vt 0.0282 0.7252 0.0000
vt 0.0686 0.6438 0.0000
vt 0.0282 0.6438 0.0000
vt 0.0686 0.5987 0.0000
vt 0.0282 0.5987 0.0000
vt 0.0686 0.5608 0.0000
vt 0.0282 0.5608 0.0000
vt 0.0686 0.5180 0.0000
vt 0.0282 0.5180 0.0000
vt 0.0686 0.4761 0.0000
vt 0.0282 0.4761 0.0000
vt 0.0686 0.4494 0.0000
vt 0.0282 0.4494 0.0000
vt 0.0177 0.5497 0.0000
vt 0.0636 0.5497 0.0000
vt 0.0636 0.5308 0.0000
vt 0.0177 0.2777 0.0000
vt 0.0636 0.2777 0.0000
vt 0.0177 0.4157 0.0000
vt 0.0177 0.7082 0.0000
vt 0.0636 0.7082 0.0000
vt 0.0636 0.4157 0.0000
vt 0.0177 0.0007 0.0000
vt 0.0177 0.1149 0.0000
vt 0.0636 0.1149 0.0000
vt 0.0636 0.0007 0.0000
vt 0.0177 0.0123 0.0000
vt 0.0636 0.0360 0.0000
vt 0.0636 0.0123 0.0000
vt 0.0177 0.4389 0.0000
vt 0.0177 0.4989 0.0000
vt 0.0636 0.4989 0.0000
vt 0.0636 0.4389 0.0000
vt 0.0177 0.3677 0.0000
vt 0.0636 0.3677 0.0000
vt 0.0177 0.3143 0.0000
vt 0.0636 0.3143 0.0000
vt 0.0177 0.2347 0.0000
vt 0.0636 0.2347 0.0000
vt 0.0177 0.1557 0.0000
vt 0.0636 0.1557 0.0000
vt 0.0177 0.5492 0.0000
vt 0.0636 0.5492 0.0000
vt 0.0177 0.6026 0.0000
vt 0.0636 0.6026 0.0000
vt 0.0177 0.6607 0.0000
vt 0.0636 0.6607 0.0000
vt 0.0177 0.7248 0.0000
vt 0.0636 0.7248 0.0000
vt 0.0177 0.0588 0.0000
vt 0.0177 0.1233 0.0000
vt 0.0636 0.1233 0.0000
vt 0.0636 0.0588 0.0000
vt 0.0177 0.0019 0.0000
vt 0.0636 0.0019 0.0000
vt 0.0177 0.2113 0.0000
vt 0.0636 0.2113 0.0000
vt 0.0177 0.0083 0.0000
vt 0.0177 0.3876 0.0000
vt 0.0636 0.3876 0.0000
vt 0.0636 0.0083 0.0000
vt 0.0177 0.6527 0.0000
vt 0.0636 0.6527 0.0000
vt 0.1973 0.9081 0.0000
vt 0.1422 0.8782 0.0000
vt 0.1290 0.8932 0.0000
vt 0.1943 0.9247 0.0000
vt 0.2493 0.9188 0.0000
vt 0.4555 0.7417 0.0000
vt 0.4780 0.7463 0.0000
vt 0.2493 -0.0000 0.0000
vt 0.4246 0.7993 0.0000
vt 0.4454 0.8117 0.0000
vt 0.3793 0.8558 0.0000
vt 0.3976 0.8685 0.0000
vt 0.3286 0.8921 0.0000
vt 0.3443 0.9064 0.0000
vt 0.2954 0.9270 0.0000
vt 0.2493 0.9391 0.0000
vt 0.0947 0.8356 0.0000
vt 0.0801 0.8490 0.0000
vt 0.0429 0.7694 0.0000
vt 0.0312 0.7784 0.0000
vt 0.0260 0.7018 0.0000
vt 0.0067 0.7084 0.0000
# 255 texture coords

g sponza_73
f 1/1/1 2/2/2 3/3/3 
f 1/1/1 3/3/3 4/4/4 
f 5/5/5 6/6/6 7/7/7 
f 5/5/5 7/7/7 8/8/8 
f 9/9/9 10/10/10 11/11/10 
f 9/9/9 11/11/10 12/12/9 
f 11/11/10 13/13/9 14/14/9 
f 11/11/10 14/14/9 12/12/9 
f 15/15/9 9/9/9 12/12/9 
f 16/16/11 17/17/10 18/18/10 
f 16/16/11 18/18/10 9/9/9 
f 18/18/10 10/10/10 9/9/9 
f 16/16/11 9/9/9 19/19/9 
f 16/16/11 19/19/9 20/20/9 
f 5/5/5 21/21/12 22/22/13 
f 5/5/5 22/22/13 6/6/6 
f 23/23/10 24/24/10 11/11/10 
f 23/23/10 11/11/10 10/10/10 
f 23/23/10 10/10/10 18/18/10 
f 23/23/10 18/18/10 25/25/10 
f 26/26/9 27/27/9 28/28/9 
f 26/26/9 28/28/9 29/29/9 
f 30/30/9 29/29/9 28/28/9 
f 30/30/9 28/28/9 31/31/9 
f 2/2/2 1/1/1 32/32/14 
f 2/2/2 32/32/14 33/33/15 
f 34/34/9 35/35/9 36/36/9 
f 34/34/9 36/36/9 37/37/9 
f 36/36/9 38/38/9 37/37/9 
f 37/37/9 39/39/9 40/40/9 
f 37/37/9 40/40/9 41/41/9 
f 40/40/9 42/42/9 41/41/9 
f 37/37/9 41/41/9 43/43/9 
f 37/37/9 43/43/9 34/34/9 
f 44/44/9 34/34/9 43/43/9 
f 44/44/9 43/43/9 45/45/9 
f 46/42/9 47/40/9 31/31/9 
f 46/42/9 31/31/9 48/46/9 
f 31/31/9 28/28/9 48/46/9 
f 48/46/9 49/37/9 50/38/9 
f 48/46/9 50/38/9 51/35/9 
f 50/38/9 52/36/9 51/35/9 
f 51/35/9 53/34/9 54/44/9 
f 51/35/9 54/44/9 48/46/9 
f 48/46/9 54/44/9 55/45/9 
f 48/46/9 55/45/9 46/42/9 
f 56/41/9 46/42/9 55/45/9 
f 56/41/9 55/45/9 57/43/9 
f 58/47/9 59/48/9 48/46/9 
f 58/47/9 48/46/9 60/49/9 
f 48/46/9 28/28/9 27/27/9 
f 48/46/9 27/27/9 61/50/9 
f 27/27/9 62/51/9 61/50/9 
f 48/46/9 61/50/9 63/52/9 
f 48/46/9 63/52/9 64/53/9 
f 63/52/9 65/54/9 66/55/9 
f 63/52/9 66/55/9 64/53/9 
f 48/46/9 64/53/9 67/56/9 
f 48/46/9 67/56/9 60/49/9 
f 67/56/9 68/57/9 60/49/9 
f 69/58/9 58/47/9 60/49/9 
f 70/50/9 71/51/9 72/59/9 
f 70/50/9 72/59/9 73/54/9 
f 72/59/9 74/48/9 75/47/9 
f 72/59/9 75/47/9 76/58/9 
f 76/58/9 77/49/9 78/57/9 
f 76/58/9 78/57/9 72/59/9 
f 78/57/9 79/56/9 80/53/9 
f 78/57/9 80/53/9 81/55/9 
f 72/59/9 78/57/9 81/55/9 
f 72/59/9 81/55/9 73/54/9 
f 70/50/9 73/54/9 82/52/9 
f 83/60/16 72/61/16 71/62/17 
f 83/60/16 71/62/17 84/63/16 
f 85/64/18 39/65/18 37/66/18 
f 85/64/18 37/66/18 86/67/18 
f 50/68/19 49/69/20 37/70/20 
f 50/68/19 37/70/20 38/71/19 
f 37/66/18 49/72/18 48/73/18 
f 37/66/18 48/73/18 86/67/18 
f 48/73/18 59/74/18 74/75/18 
f 48/73/18 74/75/18 86/67/18 
f 59/76/21 58/77/22 75/78/22 
f 59/76/21 75/78/22 74/79/21 
f 58/80/22 69/81/23 76/82/23 
f 58/80/22 76/82/23 75/83/22 
f 69/84/24 60/85/24 77/86/24 
f 69/84/24 77/86/24 76/87/24 
f 60/88/25 68/89/25 78/90/25 
f 60/88/25 78/90/25 77/91/25 
f 68/92/26 67/93/26 79/94/26 
f 68/92/26 79/94/26 78/95/26 
f 67/96/27 64/97/27 80/98/27 
f 67/96/27 80/98/27 79/99/27 
f 64/100/28 66/101/28 81/102/28 
f 64/100/28 81/102/28 80/103/28 
f 66/70/29 65/71/30 73/68/30 
f 66/70/29 73/68/30 81/69/29 
f 65/104/30 63/105/31 82/106/31 
f 65/104/30 82/106/31 73/107/30 
f 63/76/31 61/77/32 70/78/32 
f 63/76/31 70/78/32 82/79/31 
f 61/108/32 62/109/33 71/110/33 
f 61/108/32 71/110/33 70/111/32 
f 71/62/17 62/112/16 27/113/16 
f 71/62/17 27/113/16 84/63/16 
f 27/113/16 26/114/16 87/115/16 
f 27/113/16 87/115/16 84/63/16 
f 26/116/34 29/117/34 88/118/34 
f 26/116/34 88/118/34 87/119/34 
f 29/117/34 30/120/34 89/121/34 
f 29/117/34 89/121/34 88/118/34 
f 30/122/35 31/123/35 90/124/35 
f 30/122/35 90/124/35 89/125/35 
f 31/123/35 47/126/35 40/127/36 
f 31/123/35 40/127/36 90/124/35 
f 47/128/37 46/129/38 42/130/38 
f 47/128/37 42/130/38 40/131/37 
f 46/129/38 56/132/39 41/133/39 
f 46/129/38 41/133/39 42/130/38 
f 56/132/39 57/134/40 43/135/40 
f 56/132/39 43/135/40 41/133/39 
f 57/134/41 55/136/41 45/137/41 
f 57/134/41 45/137/41 43/135/41 
f 55/136/42 54/138/42 44/139/42 
f 55/136/42 44/139/42 45/137/42 
f 54/138/43 53/140/43 34/141/43 
f 54/138/43 34/141/43 44/139/43 
f 53/140/44 51/142/44 35/143/44 
f 53/140/44 35/143/44 34/141/44 
f 51/142/45 52/144/45 36/145/45 
f 51/142/45 36/145/45 35/143/45 
f 52/144/46 50/68/19 38/71/19 
f 52/144/46 38/71/19 36/145/46 
f 40/127/36 39/146/35 85/147/36 
f 40/127/36 85/147/36 90/124/35 
f 74/75/18 72/148/18 83/149/18 
f 74/75/18 83/149/18 86/67/18 
f 91/150/47 92/151/48 22/22/13 
f 91/150/47 22/22/13 21/21/12 
f 33/33/15 32/32/14 93/152/49 
f 33/33/15 93/152/49 94/153/50 
f 24/154/34 23/155/34 95/156/34 
f 24/154/34 95/156/34 96/157/34 
f 23/155/34 25/158/34 97/159/34 
f 23/155/34 97/159/34 95/156/34 
f 25/158/51 18/160/51 98/161/51 
f 25/158/51 98/161/51 97/159/51 
f 18/160/51 17/162/52 99/163/52 
f 18/160/51 99/163/52 98/161/51 
f 17/162/52 16/164/53 100/165/53 
f 17/162/52 100/165/53 99/163/52 
f 16/164/53 20/166/54 101/167/54 
f 16/164/53 101/167/54 100/165/53 
f 20/168/54 19/169/55 102/170/55 
f 20/168/54 102/170/55 101/171/54 
f 19/169/55 9/172/56 103/173/57 
f 19/169/55 103/173/57 102/170/55 
f 9/172/58 15/174/59 104/175/59 
f 9/172/58 104/175/59 103/173/58 
f 15/174/59 12/176/60 105/177/60 
f 15/174/59 105/177/60 104/175/59 
f 12/176/60 14/178/61 106/179/61 
f 12/176/60 106/179/61 105/177/60 
f 14/178/61 13/180/62 107/181/62 
f 14/178/61 107/181/62 106/179/61 
f 13/180/62 11/182/63 108/183/63 
f 13/180/62 108/183/63 107/181/62 
f 11/182/63 24/154/63 96/157/63 
f 11/182/63 96/157/63 108/183/63 
f 109/184/18 4/185/18 3/186/18 
f 109/184/18 3/186/18 110/187/18 
f 111/188/18 110/187/18 3/186/18 
f 112/189/64 113/190/64 7/191/64 
f 112/189/64 7/191/64 6/192/64 
f 114/193/65 115/194/66 93/195/66 
f 114/193/65 93/195/66 32/196/65 
f 113/197/18 110/187/18 111/188/18 
f 113/197/18 111/188/18 8/198/18 
f 7/199/18 113/197/18 8/198/18 
f 116/200/67 117/201/68 118/202/68 
f 116/200/67 118/202/68 119/203/67 
f 120/204/69 116/200/67 119/203/67 
f 120/204/69 119/203/67 121/205/69 
f 122/206/70 120/204/69 121/205/69 
f 122/206/70 121/205/69 123/207/70 
f 124/208/71 122/206/70 123/207/70 
f 124/208/71 123/207/70 125/209/71 
f 115/194/66 126/210/72 127/211/72 
f 115/194/66 127/211/72 93/195/66 
f 126/210/72 124/208/71 125/209/71 
f 126/210/72 125/209/71 127/211/72 
f 117/201/68 128/212/73 129/213/73 
f 117/201/68 129/213/73 118/202/68 
f 128/212/73 130/214/74 131/215/74 
f 128/212/73 131/215/74 129/213/73 
f 130/214/74 132/216/75 133/217/75 
f 130/214/74 133/217/75 131/215/74 
f 132/216/75 134/218/76 135/219/76 
f 132/216/75 135/219/76 133/217/75 
f 136/220/77 137/221/78 92/222/78 
f 136/220/77 92/222/78 138/223/77 
f 134/224/76 136/220/77 138/223/77 
f 134/224/76 138/223/77 135/225/76 
f 139/226/64 112/189/64 6/192/64 
f 139/226/64 6/192/64 22/227/64 
f 109/228/65 140/229/65 1/230/65 
f 109/228/65 1/230/65 4/231/65 
f 140/229/65 114/232/65 32/233/65 
f 140/229/65 32/233/65 1/230/65 
f 137/221/78 139/226/64 22/227/64 
f 137/221/78 22/227/64 92/222/78 
f 2/2/9 84/27/9 87/26/9 
f 2/2/9 87/26/9 3/3/9 
f 33/33/11 83/59/11 84/27/9 
f 33/33/11 84/27/9 2/2/9 
f 33/33/11 94/153/9 96/24/9 
f 33/33/11 96/24/9 83/59/11 
f 141/234/79 142/235/80 121/236/81 
f 141/234/79 121/236/81 119/237/82 
f 141/234/9 143/238/9 103/9/9 
f 141/234/9 103/9/9 104/15/9 
f 91/150/47 144/239/83 138/240/84 
f 91/150/47 138/240/84 92/151/48 
f 91/150/9 98/18/9 99/17/9 
f 91/150/9 99/17/9 144/239/9 
f 21/21/9 85/39/9 97/25/9 
f 21/21/9 97/25/9 91/150/9 
f 5/5/9 90/31/9 85/39/9 
f 5/5/9 85/39/9 21/21/9 
f 5/5/9 8/8/9 89/30/9 
f 5/5/9 89/30/9 90/31/9 
f 87/26/9 88/29/9 111/241/9 
f 87/26/9 111/241/9 3/3/9 
f 89/30/9 8/8/9 111/241/9 
f 89/30/9 111/241/9 88/29/9 
f 144/239/83 145/242/85 135/243/86 
f 144/239/83 135/243/86 138/240/84 
f 145/242/85 146/244/87 133/245/88 
f 145/242/85 133/245/88 135/243/86 
f 146/244/87 147/246/89 131/247/90 
f 146/244/87 131/247/90 133/245/88 
f 147/246/89 143/238/91 129/248/92 
f 147/246/89 129/248/92 131/247/90 
f 129/248/92 143/238/91 118/249/93 
f 119/237/82 118/249/93 143/238/91 
f 119/237/82 143/238/91 141/234/79 
f 142/235/80 148/250/94 123/251/95 
f 142/235/80 123/251/95 121/236/81 
f 148/250/94 149/252/96 125/253/97 
f 148/250/94 125/253/97 123/251/95 
f 149/252/96 150/254/98 127/255/99 
f 149/252/96 127/255/99 125/253/97 
f 127/255/99 150/254/98 94/153/50 
f 127/255/99 94/153/50 93/152/49 
f 97/25/9 85/39/9 86/46/100 
f 97/25/9 86/46/100 95/23/10 
f 96/24/9 95/23/10 86/46/100 
f 96/24/9 86/46/100 83/59/11 
f 91/150/9 97/25/9 98/18/9 
f 96/24/9 94/153/9 108/11/9 
f 147/246/9 102/19/9 103/9/9 
f 147/246/9 103/9/9 143/238/9 
f 146/244/9 101/20/9 102/19/9 
f 146/244/9 102/19/9 147/246/9 
f 145/242/9 100/16/9 101/20/9 
f 145/242/9 101/20/9 146/244/9 
f 144/239/9 99/17/9 100/16/9 
f 144/239/9 100/16/9 145/242/9 
f 104/15/9 105/12/9 142/235/9 
f 104/15/9 142/235/9 141/234/9 
f 105/12/9 106/14/9 148/250/9 
f 105/12/9 148/250/9 142/235/9 
f 106/14/9 107/13/9 149/252/9 
f 106/14/9 149/252/9 148/250/9 
f 107/13/9 108/11/9 150/254/9 
f 107/13/9 150/254/9 149/252/9 
f 150/254/9 108/11/9 94/153/9 
# 278 faces

