# 3ds Max Wavefront OBJ Exporter v0.97b - (c)2007 guruware
# File Created: 21.02.2011 11:31:16

#
# object sponza_75
#

v  -135.6500 54.2971 -92.6031
v  -135.6318 54.2971 28.1691
v  -135.6318 53.8469 28.1691
v  -135.6500 53.8469 -92.6031
v  136.8482 54.2971 28.1692
v  136.8482 54.2971 -24.6791
v  136.8482 53.8469 -24.6607
v  136.8482 53.8469 28.1692
v  -136.0871 54.7473 28.6245
v  -136.1053 54.7473 -93.0585
v  137.3036 54.7473 -24.7007
v  137.3036 54.7473 28.6245
v  -136.1053 54.2971 -93.0585
v  -136.1053 53.8469 -93.0585
v  -136.0871 53.8469 28.6245
v  -136.0871 54.2971 28.6245
v  137.3036 54.2971 -39.9124
v  137.3036 53.8469 -39.9124
v  137.3036 53.8469 -93.0658
v  137.3036 54.2971 -93.0658
v  137.3036 53.8469 28.6245
v  137.3036 54.2971 28.6245
v  137.3036 54.7473 -93.0658
v  137.3036 54.7473 -39.9124
v  137.3036 53.8469 -24.6639
v  136.8482 53.8469 -92.6105
v  136.8482 54.2971 -92.6105
v  136.8482 53.8469 -39.9204
v  136.8482 54.2971 -39.9204
v  137.3036 54.2971 -24.6823
# 30 vertices

vn 1.0000 0.0000 -0.0002
vn -1.0000 0.0000 -0.0000
vn 0.0000 0.0000 -1.0000
vn 0.4051 0.8196 -0.4052
vn 0.4053 0.8196 0.4050
vn 0.4052 0.8196 0.4052
vn -0.7031 0.7111 -0.0000
vn -0.4052 0.8196 -0.4052
vn -1.0000 0.0000 0.0001
vn 1.0000 0.0000 -0.0000
vn -0.0000 0.0000 -1.0000
vn 0.0000 0.0000 1.0000
vn 0.0000 -1.0000 -0.0000
vn -0.4051 0.8196 0.4052
vn -0.4052 0.8196 0.4051
vn -1.0000 0.0000 0.0000
vn -0.7031 0.7111 0.0000
# 17 vertex normals

vt 18.4629 1.0961 0.0000
vt 22.1504 1.0961 0.0000
vt 22.1504 1.1206 0.0000
vt 18.4629 1.1206 0.0000
vt 6.4790 1.0961 0.0000
vt 8.0867 1.0961 0.0000
vt 8.0861 1.1206 0.0000
vt 6.4790 1.1206 0.0000
vt -1.8204 1.0961 0.0000
vt -1.8204 1.1206 0.0000
vt 22.1643 1.0716 0.0000
vt 18.4491 1.0716 0.0000
vt 8.0873 1.0716 0.0000
vt 6.4651 1.0716 0.0000
vt 6.4929 1.0716 0.0000
vt -1.8343 1.0716 0.0000
vt 18.4491 1.0471 0.0000
vt 18.4491 1.0226 0.0000
vt 22.1643 1.0226 0.0000
vt 22.1643 1.0471 0.0000
vt 8.5512 1.0471 0.0000
vt 8.5512 1.0226 0.0000
vt 10.1775 1.0226 0.0000
vt 10.1775 1.0471 0.0000
vt 11.0295 1.0471 0.0000
vt 11.0295 1.0226 0.0000
vt 18.4768 1.0226 0.0000
vt 18.4768 1.0471 0.0000
vt -1.8343 1.0471 0.0000
vt -1.8343 1.0226 0.0000
vt 6.4929 1.0226 0.0000
vt 6.4929 1.0471 0.0000
vt 10.1775 1.0716 0.0000
vt 8.5512 1.0716 0.0000
vt 18.4768 1.0716 0.0000
vt 11.0295 1.0716 0.0000
vt 22.1643 1.1257 0.0000
vt 18.4491 1.1257 0.0000
vt 8.0862 1.1257 0.0000
vt 6.4651 1.1257 0.0000
vt 6.4929 1.1257 0.0000
vt -1.8343 1.1257 0.0000
vt 11.0432 1.1206 0.0000
vt 11.0432 1.0961 0.0000
vt 11.0419 1.1029 0.0000
vt 11.0295 1.0784 0.0000
vt 18.4768 1.1262 0.0000
vt 11.0308 1.1229 0.0000
vt 11.0432 1.1178 0.0000
vt 10.1636 1.0961 0.0000
vt 10.1636 1.1206 0.0000
vt 8.5515 1.1206 0.0000
vt 8.5515 1.0961 0.0000
vt 10.1775 1.1257 0.0000
vt 8.5512 1.1257 0.0000
vt 6.4651 1.0471 0.0000
vt 6.4651 1.0226 0.0000
vt 8.0862 1.0226 0.0000
vt 8.0868 1.0471 0.0000
# 59 texture coords

g sponza_75
f 1/1/1 2/2/1 3/3/1 
f 1/1/1 3/3/1 4/4/1 
f 5/5/2 6/6/2 7/7/2 
f 5/5/2 7/7/2 8/8/2 
f 2/9/3 5/5/3 8/8/3 
f 2/9/3 8/8/3 3/10/3 
f 9/11/4 2/2/4 1/1/5 
f 9/11/4 1/1/5 10/12/6 
f 11/13/7 6/6/7 5/5/8 
f 11/13/7 5/5/8 12/14/8 
f 12/15/8 5/5/8 2/9/4 
f 12/15/8 2/9/4 9/16/4 
f 13/17/9 14/18/9 15/19/9 
f 13/17/9 15/19/9 16/20/9 
f 17/21/10 18/22/10 19/23/10 
f 17/21/10 19/23/10 20/24/10 
f 20/25/11 19/26/11 14/27/11 
f 20/25/11 14/27/11 13/28/11 
f 16/29/12 15/30/12 21/31/12 
f 16/29/12 21/31/12 22/32/12 
f 9/11/9 10/12/9 13/17/9 
f 9/11/9 13/17/9 16/20/9 
f 23/33/10 24/34/10 17/21/10 
f 23/33/10 17/21/10 20/24/10 
f 10/35/11 23/36/11 20/25/11 
f 10/35/11 20/25/11 13/28/11 
f 12/15/12 9/16/12 16/29/12 
f 12/15/12 16/29/12 22/32/12 
f 3/3/13 15/37/13 14/38/13 
f 3/3/13 14/38/13 4/4/13 
f 8/8/13 7/7/13 25/39/13 
f 8/8/13 25/39/13 21/40/13 
f 8/8/13 21/41/13 15/42/13 
f 8/8/13 15/42/13 3/10/13 
f 4/4/12 26/43/12 27/44/12 
f 4/4/12 27/44/12 1/1/12 
f 1/1/5 27/45/14 23/46/15 
f 1/1/5 23/46/15 10/35/6 
f 14/47/13 19/48/13 26/49/13 
f 14/47/13 26/49/13 4/4/13 
f 27/50/16 26/51/16 28/52/16 
f 27/50/16 28/52/16 29/53/16 
f 24/34/17 23/33/15 27/50/14 
f 24/34/17 27/50/14 29/53/17 
f 26/51/13 19/54/13 18/55/13 
f 26/51/13 18/55/13 28/52/13 
f 22/56/10 21/57/10 25/58/10 
f 22/56/10 25/58/10 30/59/10 
f 12/14/10 22/56/10 30/59/10 
f 12/14/10 30/59/10 11/13/10 
# 50 faces

