# 3ds Max Wavefront OBJ Exporter v0.97b - (c)2007 guruware
# File Created: 21.02.2011 11:31:25

#
# object sponza_139
#

v  76.2349 79.7131 -57.3833
v  77.3937 79.7131 -57.3833
v  77.3937 79.7131 -56.4608
v  76.2349 79.7131 -56.4608
v  77.7350 81.0227 -56.4608
v  77.7350 81.0227 -57.3833
v  76.2349 81.0227 -57.3833
v  76.2349 81.0227 -56.4608
v  77.5104 79.9036 -56.4608
v  77.5104 79.9036 -57.3833
v  77.7350 80.0071 -56.4608
v  77.7350 80.0071 -57.3833
# 12 vertices

vn 0.0000 -1.0000 -0.0000
vn 0.0000 1.0000 -0.0000
vn 0.0000 0.0000 1.0000
vn 0.6642 -0.7475 -0.0000
vn 0.8527 -0.5224 -0.0000
vn 0.0000 0.0000 -1.0000
vn 1.0000 0.0000 -0.0000
vn 0.4185 -0.9082 -0.0000
# 8 vertex normals

vt 0.5979 0.9823 0.0000
vt 0.5979 0.9132 0.0000
vt 0.6529 0.9132 0.0000
vt 0.6529 0.9823 0.0000
vt 0.6529 0.8260 0.0000
vt 0.5979 0.8260 0.0000
vt 0.5979 0.7366 0.0000
vt 0.6529 0.7366 0.0000
vt 0.5153 0.8138 0.0000
vt 0.5266 0.8068 0.0000
vt 0.5153 0.8829 0.0000
vt 0.5979 0.8999 0.0000
vt 0.6529 0.8999 0.0000
vt 0.5866 0.9063 0.0000
vt 0.5933 0.8829 0.0000
vt 0.5933 0.7934 0.0000
vt 0.6529 0.8865 0.0000
vt 0.5979 0.8865 0.0000
vt 0.5198 0.9823 0.0000
vt 0.5199 0.8929 0.0000
vt 0.5328 0.7934 0.0000
vt 0.5804 0.8929 0.0000
# 22 texture coords

g sponza_139
f 1/1/1 2/2/1 3/3/1 
f 1/1/1 3/3/1 4/4/1 
f 5/5/2 6/6/2 7/7/2 
f 5/5/2 7/7/2 8/8/2 
f 3/9/3 9/10/3 4/11/3 
f 10/12/4 9/13/4 3/3/5 
f 10/12/4 3/3/5 2/2/5 
f 2/2/6 1/1/6 10/14/6 
f 8/15/3 4/11/3 9/10/3 
f 8/15/3 9/10/3 5/16/3 
f 5/5/7 11/17/7 12/18/7 
f 5/5/7 12/18/7 6/6/7 
f 7/19/6 6/20/6 10/14/6 
f 7/19/6 10/14/6 1/1/6 
f 5/16/3 9/10/3 11/21/3 
f 10/12/4 12/18/8 11/17/8 
f 10/12/4 11/17/8 9/13/4 
f 10/14/6 6/20/6 12/22/6 
# 18 faces

