# 3ds Max Wavefront OBJ Exporter v0.97b - (c)2007 guruware
# File Created: 21.02.2011 11:31:16

#
# object sponza_78
#

v  136.8008 78.7239 -58.8698
v  136.7186 79.3704 -58.9620
v  137.4118 79.3704 -58.9620
v  137.4118 78.7239 -58.8698
v  136.6500 79.3704 -52.0908
v  136.6500 79.3704 -58.8805
v  136.7276 78.7239 -58.7829
v  136.7276 78.7239 -52.1884
v  136.0547 80.9604 -51.3858
v  136.0547 81.3967 -51.3900
v  136.0547 81.3967 -59.5813
v  136.0547 80.9604 -59.5855
v  137.4118 80.9604 -51.3027
v  137.4118 81.3967 -51.3027
v  136.1283 81.3967 -51.3027
v  136.1247 80.9604 -51.3027
v  136.8591 78.3371 -58.8022
v  136.6467 78.5305 -59.0630
v  137.4118 78.5305 -59.0630
v  137.4118 78.3371 -58.8022
v  136.5649 78.5305 -52.0055
v  136.5649 78.5305 -58.9658
v  136.7845 78.3371 -58.7137
v  136.7845 78.3371 -52.2576
v  136.1283 81.3967 -59.6686
v  135.9315 81.6149 -59.9114
v  137.4118 81.6149 -59.9114
v  137.4118 81.3967 -59.6686
v  135.8502 81.6149 -51.1564
v  135.8502 81.6149 -59.8149
v  136.1360 81.8330 -59.6686
v  137.4118 81.8330 -59.6686
v  136.0547 81.8330 -51.3992
v  136.0547 81.8330 -59.5721
v  136.4585 80.2703 -59.2740
v  136.1247 80.9604 -59.6686
v  137.4118 80.9604 -59.6686
v  137.4118 80.2703 -59.2740
v  136.3871 80.2703 -59.1893
v  136.3871 80.2703 -51.7821
v  136.8008 78.7239 -52.1015
v  136.7186 79.3704 -52.0093
v  136.6467 78.5305 -51.9084
v  136.8591 78.3371 -52.1691
v  135.9315 81.6149 -51.0599
v  136.1360 81.8330 -51.3027
v  136.4585 80.2703 -51.6973
v  137.4118 81.8330 -51.3027
v  137.4118 79.3704 -52.0093
v  137.4118 78.7239 -52.1015
v  137.4118 78.5305 -51.9084
v  137.4118 78.3371 -52.1691
v  137.4118 81.6149 -51.0599
v  137.4118 80.2703 -51.6973
# 54 vertices

vn 0.0000 -0.1411 -0.9900
vn 0.0000 -0.2466 -0.9691
vn 0.0000 -0.2354 -0.9719
vn -0.9773 -0.2119 -0.0000
vn -0.9929 -0.1192 -0.0000
vn -1.0000 0.0000 -0.0000
vn 0.0000 0.0000 1.0000
vn 0.0000 -0.8031 -0.5958
vn -0.6610 -0.7504 -0.0000
vn 0.0000 0.7065 -0.7077
vn -0.7653 0.6436 -0.0000
vn 0.0000 -0.7439 -0.6683
vn -0.7295 -0.6840 -0.0000
vn 0.0000 0.7439 -0.6683
vn -0.7295 0.6840 -0.0000
vn 0.0000 -0.4309 -0.9024
vn 0.0000 -0.4963 -0.8681
vn 0.0000 -0.4138 -0.9104
vn -0.9010 -0.4339 -0.0000
vn -0.9263 -0.3769 -0.0000
vn -0.7515 -0.1858 -0.6331
vn -0.7515 -0.1858 -0.6330
vn -0.7308 -0.2942 -0.6159
vn -0.7291 -0.3014 -0.6145
vn -0.7515 -0.1858 0.6330
vn -0.7293 -0.3014 0.6142
vn -0.7310 -0.2942 0.6157
vn -0.7515 -0.1858 0.6331
vn -0.7647 0.0062 -0.6443
vn -0.7648 0.0062 0.6442
vn -0.4773 0.7814 -0.4020
vn -0.4772 0.7814 0.4020
vn -0.4772 0.7814 0.4021
vn -0.3864 -0.8630 -0.3255
vn -0.3864 -0.8630 0.3255
vn -0.3865 -0.8630 0.3255
vn -0.3864 -0.8630 0.3256
vn -0.4431 -0.8151 -0.3733
vn -0.4431 -0.8151 -0.3732
vn -0.4431 -0.8151 0.3732
vn -0.4374 0.8203 -0.3684
vn -0.4374 0.8203 -0.3685
vn -0.4375 0.8203 -0.3684
vn -0.4375 0.8203 0.3685
vn -0.4374 0.8203 0.3685
vn -0.6586 -0.5082 -0.5550
vn -0.6632 -0.4978 -0.5588
vn -0.6152 -0.5939 -0.5184
vn -0.6587 -0.5082 0.5549
vn -0.6153 -0.5939 0.5183
vn -0.6633 -0.4978 0.5588
vn 0.0000 1.0000 -0.0000
vn 0.0000 -0.2355 0.9719
vn 0.0000 -0.2466 0.9691
vn 0.0000 -0.1412 0.9900
vn 0.0000 0.0000 -1.0000
vn -0.0000 -0.8031 0.5959
vn -0.0000 0.7065 0.7077
vn 0.0000 0.7065 0.7077
vn 0.0000 -0.7439 0.6683
vn 0.0000 0.7439 0.6683
vn 0.0000 -0.4964 0.8681
vn 0.0000 -0.4309 0.9024
vn 0.0000 -0.4138 0.9104
vn 0.0000 -1.0000 -0.0000
# 65 vertex normals

vt 0.5504 0.8881 0.0000
vt 0.5526 0.9084 0.0000
vt 0.5337 0.9084 0.0000
vt 0.5337 0.8881 0.0000
vt 0.7614 0.9100 0.0000
vt 0.6053 0.9100 0.0000
vt 0.6076 0.8897 0.0000
vt 0.7592 0.8897 0.0000
vt 0.7776 0.9600 0.0000
vt 0.7775 0.9737 0.0000
vt 0.5892 0.9737 0.0000
vt 0.5891 0.9600 0.0000
vt 0.8288 0.9596 0.0000
vt 0.8288 0.9733 0.0000
vt 0.7937 0.9733 0.0000
vt 0.7936 0.9596 0.0000
vt 0.9865 0.7672 0.0000
vt 0.9959 0.7791 0.0000
vt 0.9632 0.7791 0.0000
vt 0.9619 0.7672 0.0000
vt 0.2524 0.7790 0.0000
vt 0.0111 0.7790 0.0000
vt 0.0113 0.7672 0.0000
vt 0.2525 0.7672 0.0000
vt 0.5337 0.8820 0.0000
vt 0.5546 0.8820 0.0000
vt 0.6034 0.8836 0.0000
vt 0.7634 0.8836 0.0000
vt 0.5687 0.9721 0.0000
vt 0.5741 0.9790 0.0000
vt 0.5337 0.9790 0.0000
vt 0.5337 0.9721 0.0000
vt 0.7829 0.9806 0.0000
vt 0.5839 0.9806 0.0000
vt 0.5685 0.9859 0.0000
vt 0.5337 0.9859 0.0000
vt 0.7773 0.9875 0.0000
vt 0.5894 0.9875 0.0000
vt 0.5597 0.9367 0.0000
vt 0.5688 0.9584 0.0000
vt 0.5337 0.9584 0.0000
vt 0.5337 0.9367 0.0000
vt 0.5982 0.9383 0.0000
vt 0.7685 0.9383 0.0000
vt 0.6050 0.8907 0.0000
vt 0.6028 0.9094 0.0000
vt 0.8121 0.8892 0.0000
vt 0.8098 0.9096 0.0000
vt 0.8073 0.9090 0.0000
vt 0.8095 0.8902 0.0000
vt 0.5867 0.9726 0.0000
vt 0.5865 0.9593 0.0000
vt 0.7912 0.9721 0.0000
vt 0.7910 0.9589 0.0000
vt 0.6007 0.8862 0.0000
vt 0.8052 0.8857 0.0000
vt 0.8079 0.8832 0.0000
vt 0.0078 0.7789 0.0000
vt 0.0079 0.7672 0.0000
vt 0.2558 0.7672 0.0000
vt 0.2559 0.7790 0.0000
vt 0.5815 0.9806 0.0000
vt 0.7884 0.9801 0.0000
vt 0.7860 0.9801 0.0000
vt 0.5871 0.9900 0.0000
vt 0.7939 0.9870 0.0000
vt 0.7916 0.9896 0.0000
vt 0.5957 0.9372 0.0000
vt 0.8027 0.9379 0.0000
vt 0.8002 0.9367 0.0000
vt 0.0091 0.8976 0.0000
vt 0.0091 0.8760 0.0000
vt 0.0109 0.8746 0.0000
vt 0.1674 0.8760 0.0000
vt 0.1655 0.8746 0.0000
vt 0.1674 0.8976 0.0000
vt 0.8288 0.9096 0.0000
vt 0.8288 0.8892 0.0000
vt 0.2874 0.7790 0.0000
vt 0.2803 0.7672 0.0000
vt 0.8288 0.8832 0.0000
vt 0.8288 0.9801 0.0000
vt 0.8288 0.9870 0.0000
vt 0.8288 0.9379 0.0000
vt 0.2773 0.6742 0.0000
vt 0.2773 0.6911 0.0000
vt 0.4476 0.6911 0.0000
vt 0.4476 0.6742 0.0000
vt 0.4453 0.6933 0.0000
vt 0.2795 0.6933 0.0000
# 90 texture coords

g sponza_78
f 1/1/1 2/2/2 3/3/3 
f 1/1/1 3/3/3 4/4/1 
f 5/5/4 6/6/4 7/7/5 
f 5/5/4 7/7/5 8/8/5 
f 9/9/6 10/10/6 11/11/6 
f 9/9/6 11/11/6 12/12/6 
f 13/13/7 14/14/7 15/15/7 
f 13/13/7 15/15/7 16/16/7 
f 17/17/8 18/18/8 19/19/8 
f 17/17/8 19/19/8 20/20/8 
f 21/21/9 22/22/9 23/23/9 
f 21/21/9 23/23/9 24/24/9 
f 1/1/10 4/4/10 19/25/10 
f 1/1/10 19/25/10 18/26/10 
f 8/8/11 7/7/11 22/27/11 
f 8/8/11 22/27/11 21/28/11 
f 25/29/12 26/30/12 27/31/12 
f 25/29/12 27/31/12 28/32/12 
f 29/33/13 30/34/13 11/11/13 
f 29/33/13 11/11/13 10/10/13 
f 31/35/14 32/36/14 27/31/14 
f 31/35/14 27/31/14 26/30/14 
f 33/37/15 34/38/15 30/34/15 
f 33/37/15 30/34/15 29/33/15 
f 35/39/16 36/40/17 37/41/17 
f 35/39/16 37/41/17 38/42/18 
f 9/9/19 12/12/19 39/43/20 
f 9/9/19 39/43/20 40/44/20 
f 2/2/2 35/39/16 38/42/18 
f 2/2/2 38/42/18 3/3/3 
f 40/44/20 39/43/20 6/6/4 
f 40/44/20 6/6/4 5/5/4 
f 1/45/21 7/7/22 6/6/23 
f 1/45/21 6/6/23 2/46/24 
f 41/47/25 42/48/26 5/49/27 
f 41/47/25 5/49/27 8/50/28 
f 12/12/29 11/11/29 25/51/29 
f 12/12/29 25/51/29 36/52/29 
f 16/16/30 15/15/30 10/53/30 
f 16/16/30 10/53/30 9/54/30 
f 1/45/31 18/55/31 22/27/31 
f 1/45/31 22/27/31 7/7/31 
f 41/47/32 8/50/32 21/56/33 
f 41/47/32 21/56/33 43/57/33 
f 22/22/34 18/58/34 17/59/34 
f 22/22/34 17/59/34 23/23/34 
f 21/21/35 24/24/36 44/60/35 
f 21/21/35 44/60/35 43/61/37 
f 25/51/38 11/11/38 30/34/39 
f 25/51/38 30/34/39 26/62/39 
f 15/15/40 45/63/40 29/64/40 
f 15/15/40 29/64/40 10/53/40 
f 30/34/41 34/38/42 31/65/42 
f 30/34/41 31/65/42 26/62/43 
f 29/64/44 45/63/44 46/66/45 
f 29/64/44 46/66/45 33/67/45 
f 35/68/46 39/43/47 12/12/48 
f 35/68/46 12/12/48 36/52/48 
f 47/69/49 16/16/50 9/54/50 
f 47/69/49 9/54/50 40/70/51 
f 2/46/24 6/6/23 39/43/47 
f 2/46/24 39/43/47 35/68/46 
f 42/48/26 47/69/49 40/70/51 
f 42/48/26 40/70/51 5/49/27 
f 32/71/52 31/72/52 34/73/52 
f 32/71/52 34/73/52 46/74/52 
f 34/73/52 33/75/52 46/74/52 
f 48/76/52 32/71/52 46/74/52 
f 49/77/53 42/48/54 41/47/55 
f 49/77/53 41/47/55 50/78/55 
f 37/41/56 36/40/56 25/29/56 
f 37/41/56 25/29/56 28/32/56 
f 51/79/57 43/61/57 44/60/57 
f 51/79/57 44/60/57 52/80/57 
f 51/81/58 50/78/59 41/47/58 
f 51/81/58 41/47/58 43/57/58 
f 53/82/60 45/63/60 15/15/60 
f 53/82/60 15/15/60 14/14/60 
f 53/82/61 48/83/61 46/66/61 
f 53/82/61 46/66/61 45/63/61 
f 13/13/62 16/16/62 47/69/63 
f 13/13/62 47/69/63 54/84/64 
f 54/84/64 47/69/63 42/48/54 
f 54/84/64 42/48/54 49/77/53 
f 52/85/65 44/86/65 17/87/65 
f 52/85/65 17/87/65 20/88/65 
f 23/89/65 17/87/65 44/86/65 
f 23/89/65 44/86/65 24/90/65 
# 88 faces

