# 3ds Max Wavefront OBJ Exporter v0.97b - (c)2007 guruware
# File Created: 21.02.2011 11:31:12

#
# object sponza_50
#

v  20.7934 138.4495 -10.6784
v  20.7934 138.4495 -9.1287
v  20.4168 138.3486 -9.1287
v  20.4168 138.3486 -10.6784
v  20.1413 138.0730 -9.1287
v  20.1413 138.0730 -10.6784
v  20.0404 137.6966 -9.1287
v  20.0404 137.6966 -10.6784
v  20.1066 137.4496 -9.1287
v  20.1066 137.4496 -10.6784
v  19.4832 137.4149 -10.6784
v  19.4832 137.4149 -9.1287
v  19.2076 137.1394 -9.1287
v  19.2076 137.1394 -10.6784
v  19.8596 137.5158 -10.6784
v  19.8596 137.5158 -9.1287
v  21.1699 138.3486 -10.6784
v  21.1699 138.3486 -9.1287
v  21.4454 138.0730 -10.6784
v  21.4454 138.0730 -9.1287
v  21.5463 137.6966 -10.6784
v  21.5463 137.6966 -9.1287
v  21.4801 137.4496 -10.6784
v  21.4801 137.4496 -9.1287
v  22.4762 136.7771 -10.6784
v  22.4762 136.7771 -9.1287
v  22.3791 137.1394 -9.1287
v  22.3791 137.1394 -10.6784
v  22.1035 137.4149 -9.1287
v  22.1035 137.4149 -10.6784
v  21.7271 137.5158 -9.1287
v  21.7271 137.5158 -10.6784
v  19.1105 136.7771 -9.1287
v  19.1105 136.7771 -10.6784
v  20.4168 135.2056 -10.6784
v  20.4168 135.2056 -9.1287
v  20.7934 135.1048 -9.1287
v  20.7934 135.1048 -10.6784
v  20.1413 135.4812 -10.6784
v  20.1413 135.4812 -9.1287
v  20.0404 135.8577 -10.6784
v  20.0404 135.8577 -9.1287
v  20.1066 136.1046 -10.6784
v  20.1066 136.1046 -9.1287
v  19.2076 136.4149 -10.6784
v  19.2076 136.4149 -9.1287
v  19.4832 136.1393 -9.1287
v  19.4832 136.1393 -10.6784
v  19.8596 136.0384 -9.1287
v  19.8596 136.0384 -10.6784
v  21.1699 135.2056 -9.1287
v  21.1699 135.2056 -10.6784
v  21.4454 135.4812 -9.1287
v  21.4454 135.4812 -10.6784
v  21.5463 135.8577 -9.1287
v  21.5463 135.8577 -10.6784
v  21.4801 136.1046 -9.1287
v  21.4801 136.1046 -10.6784
v  22.1035 136.1393 -10.6784
v  22.1035 136.1393 -9.1287
v  22.3791 136.4149 -9.1287
v  22.3791 136.4149 -10.6784
v  21.7271 136.0384 -10.6784
v  21.7271 136.0384 -9.1287
v  22.4616 136.1721 -10.6784
v  22.0866 135.5588 -10.6784
v  21.4986 135.1451 -10.6784
v  22.5621 136.8839 -10.6784
v  22.3963 137.5260 -10.6784
v  22.0061 138.0621 -10.6784
v  21.4461 138.4171 -10.6784
v  20.7947 138.5412 -10.6784
v  20.1434 138.4171 -10.6784
v  19.5833 138.0621 -10.6784
v  19.1931 137.5260 -10.6784
v  19.0274 136.8839 -10.6784
v  19.1278 136.1721 -10.6784
v  19.5029 135.5588 -10.6784
v  20.0908 135.1451 -10.6784
v  20.7947 134.9992 -10.6784
# 80 vertices

vn -0.0000 -1.0000 -0.0000
vn 0.0000 -1.0000 -0.0000
vn 0.5000 -0.8661 -0.0000
vn 0.8660 -0.5000 -0.0000
vn 1.0000 -0.0000 -0.0000
vn 0.9659 0.2588 -0.0000
vn 0.5000 -0.8660 -0.0000
vn -0.2588 -0.9659 -0.0000
vn -0.5000 -0.8660 -0.0000
vn -0.8660 -0.5000 -0.0000
vn -1.0000 -0.0000 -0.0000
vn -0.9659 0.2588 -0.0000
vn -1.0000 0.0000 -0.0000
vn 0.2588 -0.9659 -0.0000
vn 1.0000 0.0000 -0.0000
vn 0.5000 0.8660 -0.0000
vn 0.0000 1.0000 -0.0000
vn 0.8660 0.5000 -0.0000
vn 0.9659 -0.2588 -0.0000
vn -0.2588 0.9659 -0.0000
vn -0.5000 0.8660 -0.0000
vn -0.8660 0.5000 -0.0000
vn -0.9659 -0.2588 -0.0000
vn -0.0000 1.0000 -0.0000
vn 0.2588 0.9659 -0.0000
vn 0.0000 0.0000 -1.0000
# 26 vertex normals

vt 0.9551 0.5948 0.0000
vt 0.8159 0.5948 0.0000
vt 0.8159 0.6286 0.0000
vt 0.9551 0.6286 0.0000
vt 0.8159 0.6533 0.0000
vt 0.9551 0.6533 0.0000
vt 0.8159 0.6871 0.0000
vt 0.9551 0.6871 0.0000
vt 0.8159 0.7093 0.0000
vt 0.9551 0.7093 0.0000
vt 0.9551 0.7626 0.0000
vt 0.8159 0.7626 0.0000
vt 0.8159 0.7976 0.0000
vt 0.9551 0.7976 0.0000
vt 0.9551 0.7323 0.0000
vt 0.8159 0.7323 0.0000
vt 0.9551 0.5609 0.0000
vt 0.8159 0.5609 0.0000
vt 0.9551 0.5362 0.0000
vt 0.8159 0.5362 0.0000
vt 0.9551 0.5024 0.0000
vt 0.8159 0.5024 0.0000
vt 0.9551 0.4802 0.0000
vt 0.8159 0.4802 0.0000
vt 0.9551 0.3613 0.0000
vt 0.8159 0.3613 0.0000
vt 0.8159 0.3950 0.0000
vt 0.9551 0.3950 0.0000
vt 0.8159 0.4253 0.0000
vt 0.9551 0.4253 0.0000
vt 0.8159 0.4603 0.0000
vt 0.9551 0.4603 0.0000
vt 0.8159 0.8268 0.0000
vt 0.9551 0.8268 0.0000
vt 0.9551 0.0879 0.0000
vt 0.8159 0.0879 0.0000
vt 0.8159 0.1217 0.0000
vt 0.9551 0.1217 0.0000
vt 0.9551 0.0529 0.0000
vt 0.8159 0.0529 0.0000
vt 0.9551 0.0226 0.0000
vt 0.8159 0.0226 0.0000
vt 0.9551 0.9442 0.0000
vt 0.8159 0.9442 0.0000
vt 0.8159 0.9672 0.0000
vt 0.9551 0.9672 0.0000
vt 0.9551 0.8560 0.0000
vt 0.8159 0.8560 0.0000
vt 0.8159 0.8910 0.0000
vt 0.9551 0.8910 0.0000
vt 0.8159 0.9213 0.0000
vt 0.9551 0.9213 0.0000
vt 0.8159 0.1556 0.0000
vt 0.9551 0.1556 0.0000
vt 0.8159 0.1906 0.0000
vt 0.9551 0.1906 0.0000
vt 0.8159 0.2209 0.0000
vt 0.9551 0.2209 0.0000
vt 0.8159 0.2438 0.0000
vt 0.9551 0.2438 0.0000
vt 0.9551 0.2971 0.0000
vt 0.8159 0.2971 0.0000
vt 0.8159 0.3321 0.0000
vt 0.9551 0.3321 0.0000
vt 0.9551 0.2668 0.0000
vt 0.8159 0.2668 0.0000
vt 0.5804 0.6036 0.0000
vt 0.5460 0.5976 0.0000
vt 0.5524 0.6197 0.0000
vt 0.6117 0.6454 0.0000
vt 0.6133 0.5916 0.0000
vt 0.6762 0.6454 0.0000
vt 0.5201 0.5760 0.0000
vt 0.5083 0.5726 0.0000
vt 0.5085 0.5443 0.0000
vt 0.4873 0.5168 0.0000
vt 0.5146 0.5098 0.0000
vt 0.4883 0.4573 0.0000
vt 0.5370 0.4830 0.0000
vt 0.5111 0.4022 0.0000
vt 0.5410 0.4604 0.0000
vt 0.5289 0.4275 0.0000
vt 0.5349 0.3930 0.0000
vt 0.5526 0.3595 0.0000
vt 0.5903 0.3541 0.0000
vt 0.6068 0.3350 0.0000
vt 0.5574 0.3662 0.0000
vt 0.6248 0.3601 0.0000
vt 0.6663 0.3321 0.0000
vt 0.6516 0.3826 0.0000
vt 0.7227 0.3514 0.0000
vt 0.6742 0.3865 0.0000
vt 0.7071 0.3745 0.0000
vt 0.7416 0.3805 0.0000
vt 0.7674 0.4021 0.0000
vt 0.7680 0.3900 0.0000
vt 0.7790 0.4338 0.0000
vt 0.7974 0.4475 0.0000
vt 0.7730 0.4682 0.0000
vt 0.8015 0.5119 0.0000
vt 0.7506 0.4951 0.0000
vt 0.7797 0.5727 0.0000
vt 0.7466 0.5177 0.0000
vt 0.7586 0.5506 0.0000
vt 0.7526 0.5851 0.0000
vt 0.7355 0.6198 0.0000
vt 0.7302 0.6119 0.0000
vt 0.6973 0.6240 0.0000
vt 0.6628 0.6180 0.0000
vt 0.6359 0.5955 0.0000
vt 0.6595 0.4042 0.0000
vt 0.5586 0.4751 0.0000
vt 0.7290 0.5030 0.0000
vt 0.6280 0.5739 0.0000
# 114 texture coords

g sponza_50
f 1/1/1 2/2/2 3/3/3 
f 1/1/1 3/3/3 4/4/3 
f 4/4/3 3/3/3 5/5/4 
f 4/4/3 5/5/4 6/6/4 
f 6/6/4 5/5/4 7/7/5 
f 6/6/4 7/7/5 8/8/5 
f 8/8/5 7/7/5 9/9/6 
f 8/8/5 9/9/6 10/10/6 
f 11/11/7 12/12/7 13/13/4 
f 11/11/7 13/13/4 14/14/4 
f 15/15/2 16/16/2 12/12/7 
f 15/15/2 12/12/7 11/11/7 
f 10/10/8 9/9/8 16/16/2 
f 10/10/8 16/16/2 15/15/2 
f 17/17/9 18/18/9 2/2/2 
f 17/17/9 2/2/2 1/1/1 
f 19/19/10 20/20/10 18/18/9 
f 19/19/10 18/18/9 17/17/9 
f 21/21/11 22/22/11 20/20/10 
f 21/21/11 20/20/10 19/19/10 
f 23/23/12 24/24/12 22/22/11 
f 23/23/12 22/22/11 21/21/11 
f 25/25/13 26/26/13 27/27/10 
f 25/25/13 27/27/10 28/28/10 
f 28/28/10 27/27/10 29/29/9 
f 28/28/10 29/29/9 30/30/9 
f 30/30/9 29/29/9 31/31/1 
f 30/30/9 31/31/1 32/32/1 
f 32/32/1 31/31/1 24/24/14 
f 32/32/1 24/24/14 23/23/14 
f 14/14/4 13/13/4 33/33/15 
f 14/14/4 33/33/15 34/34/15 
f 35/35/16 36/36/16 37/37/17 
f 35/35/16 37/37/17 38/38/17 
f 39/39/18 40/40/18 36/36/16 
f 39/39/18 36/36/16 35/35/16 
f 41/41/5 42/42/5 40/40/18 
f 41/41/5 40/40/18 39/39/18 
f 43/43/19 44/44/19 42/45/5 
f 43/43/19 42/45/5 41/46/5 
f 45/47/18 46/48/18 47/49/16 
f 45/47/18 47/49/16 48/50/16 
f 48/50/16 47/49/16 49/51/17 
f 48/50/16 49/51/17 50/52/17 
f 50/52/17 49/51/17 44/44/20 
f 50/52/17 44/44/20 43/43/20 
f 38/38/17 37/37/17 51/53/21 
f 38/38/17 51/53/21 52/54/21 
f 52/54/21 51/53/21 53/55/22 
f 52/54/21 53/55/22 54/56/22 
f 54/56/22 53/55/22 55/57/11 
f 54/56/22 55/57/11 56/58/11 
f 56/58/11 55/57/11 57/59/23 
f 56/58/11 57/59/23 58/60/23 
f 59/61/21 60/62/21 61/63/22 
f 59/61/21 61/63/22 62/64/22 
f 63/65/24 64/66/24 60/62/21 
f 63/65/24 60/62/21 59/61/21 
f 58/60/25 57/59/25 64/66/24 
f 58/60/25 64/66/24 63/65/24 
f 34/34/15 33/33/15 46/48/18 
f 34/34/15 46/48/18 45/47/18 
f 62/64/22 61/63/22 26/26/13 
f 62/64/22 26/26/13 25/25/13 
f 59/67/26 62/68/26 65/69/26 
f 59/67/26 65/69/26 66/70/26 
f 63/71/26 59/67/26 66/70/26 
f 63/71/26 66/70/26 67/72/26 
f 62/68/26 25/73/26 68/74/26 
f 62/68/26 68/74/26 65/69/26 
f 68/74/26 25/73/26 28/75/26 
f 68/74/26 28/75/26 69/76/26 
f 69/76/26 28/75/26 30/77/26 
f 69/76/26 30/77/26 70/78/26 
f 70/78/26 30/77/26 32/79/26 
f 70/78/26 32/79/26 71/80/26 
f 32/79/26 21/81/26 19/82/26 
f 32/79/26 19/82/26 71/80/26 
f 71/80/26 19/82/26 17/83/26 
f 71/80/26 17/83/26 72/84/26 
f 4/85/26 73/86/26 72/84/26 
f 4/85/26 72/84/26 1/87/26 
f 73/86/26 4/85/26 6/88/26 
f 73/86/26 6/88/26 74/89/26 
f 74/89/26 6/88/26 8/90/26 
f 74/89/26 8/90/26 75/91/26 
f 8/90/26 15/92/26 11/93/26 
f 8/90/26 11/93/26 75/91/26 
f 14/94/26 34/95/26 76/96/26 
f 14/94/26 76/96/26 75/91/26 
f 76/96/26 34/95/26 45/97/26 
f 76/96/26 45/97/26 77/98/26 
f 77/98/26 45/97/26 48/99/26 
f 77/98/26 48/99/26 78/100/26 
f 78/100/26 48/99/26 50/101/26 
f 78/100/26 50/101/26 79/102/26 
f 50/101/26 41/103/26 39/104/26 
f 50/101/26 39/104/26 79/102/26 
f 35/105/26 80/106/26 79/102/26 
f 35/105/26 79/102/26 39/104/26 
f 80/106/26 38/107/26 52/108/26 
f 80/106/26 52/108/26 67/72/26 
f 54/109/26 56/110/26 63/71/26 
f 54/109/26 63/71/26 67/72/26 
f 8/90/26 10/111/26 15/92/26 
f 11/93/26 14/94/26 75/91/26 
f 17/83/26 1/87/26 72/84/26 
f 23/112/26 21/81/26 32/79/26 
f 35/105/26 38/107/26 80/106/26 
f 43/113/26 41/103/26 50/101/26 
f 52/108/26 54/109/26 67/72/26 
f 56/110/26 58/114/26 63/71/26 
# 112 faces

