# 3ds Max Wavefront OBJ Exporter v0.97b - (c)2007 guruware
# File Created: 21.02.2011 11:31:42

#
# object sponza_256
#

v  93.4640 63.8696 -34.1265
v  93.4640 63.8696 -30.6774
v  93.4861 63.9534 -30.6996
v  93.4861 63.9534 -34.1044
v  93.4981 63.8696 -34.1606
v  93.5203 63.9534 -34.1385
v  93.0499 63.3675 -34.6089
v  93.0158 63.3675 -34.5748
v  93.1610 63.4757 -34.4295
v  93.1952 63.4757 -34.4637
v  93.4374 63.8068 -34.1530
v  93.4716 63.8068 -34.1872
v  93.4248 63.7316 -34.2340
v  93.3907 63.7316 -34.1998
v  93.2818 63.5553 -34.3771
v  93.2476 63.5553 -34.3429
v  93.3157 63.6312 -34.2748
v  93.3499 63.6312 -34.3090
v  93.2476 63.5553 -30.4610
v  93.3157 63.6312 -30.5291
v  93.4374 63.8068 -30.6509
v  93.4981 63.8696 -30.6433
v  93.5203 63.9534 -30.6654
v  93.1610 63.4757 -30.3744
v  93.0158 63.3675 -30.2291
v  93.0499 63.3675 -30.1950
v  93.1952 63.4757 -30.3402
v  93.4248 63.7316 -30.5699
v  93.4716 63.8068 -30.6167
v  93.3907 63.7316 -30.6041
v  93.2818 63.5553 -30.4268
v  93.3499 63.6312 -30.4950
v  97.3947 63.3675 -30.1950
v  97.2494 63.4757 -30.3402
v  97.0198 63.7316 -30.5699
v  96.9730 63.8068 -30.6167
v  97.0947 63.6312 -30.4950
v  97.1628 63.5553 -30.4268
v  96.9465 63.8696 -30.6433
v  96.9806 63.8696 -30.6774
v  96.9585 63.9534 -30.6996
v  96.9243 63.9534 -30.6654
v  97.4288 63.3675 -30.2291
v  97.2836 63.4757 -30.3744
v  97.0071 63.8068 -30.6509
v  97.0539 63.7316 -30.6041
v  97.1970 63.5553 -30.4610
v  97.1289 63.6312 -30.5291
v  93.0499 63.2957 -34.6089
v  93.0158 63.2957 -34.5748
v  93.0158 63.2957 -30.2291
v  93.0499 63.2957 -30.1950
v  97.3947 63.2957 -30.1950
v  97.4288 63.2957 -30.2291
v  92.8804 63.2957 -34.7812
v  92.8435 63.2957 -34.7444
v  92.8435 63.2957 -30.0595
v  92.8804 63.2957 -30.0227
v  97.5642 63.2957 -30.0227
v  97.6011 63.2957 -30.0595
v  92.8804 63.0209 -34.7812
v  92.8435 63.0209 -34.7444
v  92.8435 63.0209 -30.0595
v  92.8804 63.0209 -30.0227
v  97.5642 63.0209 -30.0227
v  97.6011 63.0209 -30.0595
v  96.9806 63.8696 -34.1265
v  96.9585 63.9534 -34.1044
v  97.1970 63.5553 -34.3429
v  97.1289 63.6312 -34.2748
v  97.0071 63.8068 -34.1530
v  96.9465 63.8696 -34.1606
v  96.9243 63.9534 -34.1385
v  97.2836 63.4757 -34.4295
v  97.4288 63.3675 -34.5748
v  97.3947 63.3675 -34.6089
v  97.2494 63.4757 -34.4637
v  97.0198 63.7316 -34.2340
v  96.9730 63.8068 -34.1872
v  97.0539 63.7316 -34.1998
v  97.1628 63.5553 -34.3771
v  97.0947 63.6312 -34.3090
v  97.4288 63.2957 -34.5748
v  97.3947 63.2957 -34.6089
v  97.6011 63.2957 -34.7444
v  97.5642 63.2957 -34.7812
v  97.6011 63.0209 -34.7444
v  97.5642 63.0209 -34.7812
# 88 vertices

vn -0.8483 0.4106 -0.3342
vn -0.8483 0.4106 0.3343
vn -0.8877 0.3212 0.3298
vn -0.8877 0.3212 -0.3298
vn -0.3343 0.4107 -0.8483
vn -0.3299 0.3212 -0.8877
vn -0.2147 0.8737 -0.4365
vn -0.4365 0.8737 -0.2147
vn -0.5035 0.8445 -0.1825
vn -0.1824 0.8445 -0.5035
vn -0.7704 0.5642 -0.2968
vn -0.2969 0.5643 -0.7703
vn -0.2649 0.6653 -0.6980
vn -0.6980 0.6653 -0.2650
vn -0.2114 0.7904 -0.5750
vn -0.5750 0.7903 -0.2114
vn -0.6399 0.7303 -0.2390
vn -0.2390 0.7304 -0.6399
vn -0.5750 0.7903 0.2114
vn -0.6399 0.7303 0.2390
vn -0.7704 0.5642 0.2969
vn -0.3343 0.4106 0.8483
vn -0.3299 0.3211 0.8877
vn -0.5035 0.8445 0.1825
vn -0.4365 0.8737 0.2147
vn -0.2147 0.8737 0.4365
vn -0.1824 0.8445 0.5035
vn -0.2648 0.6653 0.6980
vn -0.2968 0.5643 0.7704
vn -0.6980 0.6653 0.2650
vn -0.2114 0.7904 0.5750
vn -0.2390 0.7304 0.6399
vn 0.2147 0.8737 0.4365
vn 0.1824 0.8445 0.5035
vn 0.2649 0.6653 0.6980
vn 0.2969 0.5643 0.7703
vn 0.2391 0.7304 0.6398
vn 0.2114 0.7904 0.5750
vn 0.3343 0.4106 0.8483
vn 0.8484 0.4106 0.3343
vn 0.8877 0.3212 0.3298
vn 0.3299 0.3211 0.8877
vn 0.4365 0.8737 0.2147
vn 0.5035 0.8445 0.1824
vn 0.7704 0.5642 0.2968
vn 0.6980 0.6653 0.2649
vn 0.5750 0.7904 0.2114
vn 0.6399 0.7303 0.2390
vn -0.3827 0.0000 -0.9239
vn -0.9239 0.0000 -0.3827
vn -1.0000 0.0000 -0.0000
vn -0.3827 0.0000 0.9239
vn 0.3827 0.0000 0.9239
vn -0.7071 0.0000 0.7071
vn 0.7071 0.0000 0.7071
vn 0.0000 1.0000 0.0000
vn 0.0000 1.0000 -0.0000
vn -0.0000 1.0000 -0.0000
vn -0.7071 0.0000 -0.7072
vn -0.3826 0.0000 0.9239
vn 0.3826 0.0000 0.9239
vn -0.7070 0.0000 0.7072
vn 0.7070 0.0000 0.7072
vn 0.8484 0.4106 -0.3343
vn 0.8877 0.3212 -0.3298
vn 0.5750 0.7904 -0.2114
vn 0.6399 0.7303 -0.2390
vn 0.7704 0.5642 -0.2968
vn 0.3343 0.4106 -0.8483
vn 0.3299 0.3211 -0.8877
vn 0.5035 0.8445 -0.1825
vn 0.4365 0.8737 -0.2147
vn 0.2147 0.8737 -0.4365
vn 0.1824 0.8445 -0.5035
vn 0.2649 0.6653 -0.6980
vn 0.2969 0.5643 -0.7703
vn 0.6980 0.6653 -0.2649
vn 0.2114 0.7904 -0.5750
vn 0.2390 0.7304 -0.6399
vn 1.0000 0.0000 -0.0000
vn 0.3827 0.0000 -0.9239
vn 0.7071 0.0000 -0.7071
vn -0.0000 1.0000 0.0000
vn 0.3826 0.0000 -0.9239
vn 0.7070 0.0000 -0.7072
# 85 vertex normals

vt 0.2788 0.9490 0.0000
vt 0.2788 0.7224 0.0000
vt 0.2734 0.7237 0.0000
vt 0.2733 0.9476 0.0000
vt 0.2778 0.9519 0.0000
vt 0.2712 0.9499 0.0000
vt 0.3144 0.9807 0.0000
vt 0.3147 0.9785 0.0000
vt 0.3052 0.9689 0.0000
vt 0.3029 0.9712 0.0000
vt 0.2829 0.9508 0.0000
vt 0.2816 0.9534 0.0000
vt 0.2860 0.9566 0.0000
vt 0.2879 0.9539 0.0000
vt 0.2972 0.9656 0.0000
vt 0.2995 0.9633 0.0000
vt 0.2945 0.9588 0.0000
vt 0.2922 0.9615 0.0000
vt 0.2995 0.7081 0.0000
vt 0.2945 0.7126 0.0000
vt 0.2829 0.7206 0.0000
vt 0.2755 0.7168 0.0000
vt 0.2725 0.7161 0.0000
vt 0.2711 0.7216 0.0000
vt 0.2947 0.6920 0.0000
vt 0.3045 0.6818 0.0000
vt 0.3020 0.6802 0.0000
vt 0.2924 0.6897 0.0000
vt 0.2773 0.7070 0.0000
vt 0.2743 0.7119 0.0000
vt 0.2768 0.7135 0.0000
vt 0.2801 0.7089 0.0000
vt 0.2850 0.7026 0.0000
vt 0.2891 0.6976 0.0000
vt 0.2867 0.6954 0.0000
vt 0.2823 0.7004 0.0000
vt 0.0164 0.6802 0.0000
vt 0.0260 0.6897 0.0000
vt 0.0411 0.7070 0.0000
vt 0.0441 0.7119 0.0000
vt 0.0361 0.7004 0.0000
vt 0.0317 0.6953 0.0000
vt 0.0459 0.7161 0.0000
vt 0.0440 0.7173 0.0000
vt 0.0451 0.7238 0.0000
vt 0.0473 0.7216 0.0000
vt 0.0140 0.6812 0.0000
vt 0.0237 0.6920 0.0000
vt 0.0416 0.7135 0.0000
vt 0.0383 0.7089 0.0000
vt 0.0293 0.6976 0.0000
vt 0.0334 0.7026 0.0000
vt 0.3147 0.6929 0.0000
vt 0.3052 0.7024 0.0000
vt 0.2879 0.7175 0.0000
vt 0.3184 0.9812 0.0000
vt 0.3194 0.9785 0.0000
vt 0.3194 0.6929 0.0000
vt 0.3020 0.6754 0.0000
vt 0.0164 0.6754 0.0000
vt 0.3048 0.6767 0.0000
vt 0.0138 0.6766 0.0000
vt 0.3283 0.9921 0.0000
vt 0.3307 0.9896 0.0000
vt 0.3307 0.6817 0.0000
vt 0.3131 0.6641 0.0000
vt 0.0053 0.6641 0.0000
vt 0.3160 0.6653 0.0000
vt 0.0029 0.6653 0.0000
vt 0.3307 0.9921 0.0000
vt 0.3488 0.9921 0.0000
vt 0.3488 0.9896 0.0000
vt 0.3488 0.6817 0.0000
vt 0.3131 0.6461 0.0000
vt 0.0053 0.6461 0.0000
vt 0.3155 0.6461 0.0000
vt 0.0029 0.6461 0.0000
vt 0.0451 0.9476 0.0000
vt 0.0473 0.9498 0.0000
# 79 texture coords

g sponza_256
f 1/1/1 2/2/2 3/3/3 
f 1/1/1 3/3/3 4/4/4 
f 5/5/5 1/1/1 4/4/4 
f 5/5/5 4/4/4 6/6/6 
f 7/7/7 8/8/8 9/9/9 
f 7/7/7 9/9/9 10/10/10 
f 11/11/11 12/12/12 13/13/13 
f 11/11/11 13/13/13 14/14/14 
f 15/15/15 16/16/16 17/17/17 
f 15/15/15 17/17/17 18/18/18 
f 10/10/10 9/9/9 16/16/16 
f 10/10/10 16/16/16 15/15/15 
f 14/14/14 13/13/13 18/18/18 
f 14/14/14 18/18/18 17/17/17 
f 1/1/1 5/5/5 12/12/12 
f 1/1/1 12/12/12 11/11/11 
f 16/16/16 19/19/19 20/20/20 
f 16/16/16 20/20/20 17/17/17 
f 11/11/11 21/21/21 2/2/2 
f 11/11/11 2/2/2 1/1/1 
f 3/3/3 2/22/2 22/23/22 
f 3/3/3 22/23/22 23/24/23 
f 24/25/24 25/26/25 26/27/26 
f 24/25/24 26/27/26 27/28/27 
f 28/29/28 29/30/29 21/31/21 
f 28/29/28 21/31/21 30/32/30 
f 20/33/20 19/34/19 31/35/31 
f 20/33/20 31/35/31 32/36/32 
f 19/34/19 24/25/24 27/28/27 
f 19/34/19 27/28/27 31/35/31 
f 32/36/32 28/29/28 30/32/30 
f 32/36/32 30/32/30 20/33/20 
f 29/30/29 22/23/22 2/22/2 
f 29/30/29 2/22/2 21/31/21 
f 27/28/27 26/27/26 33/37/33 
f 27/28/27 33/37/33 34/38/34 
f 29/30/29 28/29/28 35/39/35 
f 29/30/29 35/39/35 36/40/36 
f 37/41/37 32/36/32 31/35/31 
f 37/41/37 31/35/31 38/42/38 
f 28/29/28 32/36/32 37/41/37 
f 28/29/28 37/41/37 35/39/35 
f 31/35/31 27/28/27 34/38/34 
f 31/35/31 34/38/34 38/42/38 
f 22/23/22 29/30/29 36/40/36 
f 22/23/22 36/40/36 39/43/39 
f 39/43/39 40/44/40 41/45/41 
f 39/43/39 41/45/41 42/46/42 
f 33/37/33 43/47/43 44/48/44 
f 33/37/33 44/48/44 34/38/34 
f 45/49/45 36/40/36 35/39/35 
f 45/49/45 35/39/35 46/50/46 
f 38/42/38 47/51/47 48/52/48 
f 38/42/38 48/52/48 37/41/37 
f 34/38/34 44/48/44 47/51/47 
f 34/38/34 47/51/47 38/42/38 
f 46/50/46 35/39/35 37/41/37 
f 46/50/46 37/41/37 48/52/48 
f 40/44/40 39/43/39 36/40/36 
f 40/44/40 36/40/36 45/49/45 
f 42/46/42 23/24/23 22/23/22 
f 42/46/42 22/23/22 39/43/39 
f 8/8/8 25/53/25 24/54/24 
f 8/8/8 24/54/24 9/9/9 
f 14/14/14 30/55/30 21/21/21 
f 14/14/14 21/21/21 11/11/11 
f 17/17/17 20/20/20 30/55/30 
f 17/17/17 30/55/30 14/14/14 
f 9/9/9 24/54/24 19/19/19 
f 9/9/9 19/19/19 16/16/16 
f 49/56/49 50/57/50 8/8/50 
f 49/56/49 8/8/50 7/7/49 
f 8/8/50 50/57/50 51/58/51 
f 8/8/50 51/58/51 25/53/51 
f 52/59/52 53/60/53 33/37/53 
f 52/59/52 33/37/53 26/27/52 
f 51/61/54 52/59/52 26/27/52 
f 51/61/54 26/27/52 25/26/54 
f 53/60/53 54/62/55 43/47/55 
f 53/60/53 43/47/55 33/37/53 
f 55/63/56 56/64/56 50/57/56 
f 55/63/56 50/57/56 49/56/56 
f 56/64/56 57/65/57 51/58/57 
f 56/64/56 51/58/57 50/57/56 
f 58/66/57 59/67/58 53/60/58 
f 58/66/57 53/60/58 52/59/57 
f 57/68/57 58/66/57 52/59/57 
f 57/68/57 52/59/57 51/61/57 
f 59/67/58 60/69/58 54/62/58 
f 59/67/58 54/62/58 53/60/58 
f 55/70/49 61/71/49 62/72/59 
f 55/70/49 62/72/59 56/64/59 
f 56/64/51 62/72/51 63/73/51 
f 56/64/51 63/73/51 57/65/51 
f 58/66/60 64/74/60 65/75/61 
f 58/66/60 65/75/61 59/67/61 
f 57/68/62 63/76/62 64/74/60 
f 57/68/62 64/74/60 58/66/60 
f 59/67/61 65/75/61 66/77/63 
f 59/67/61 66/77/63 60/69/63 
f 40/1/40 67/2/64 68/3/65 
f 40/1/40 68/3/65 41/4/41 
f 47/16/47 69/19/66 70/20/67 
f 47/16/47 70/20/67 48/17/48 
f 45/11/45 71/21/68 67/2/64 
f 45/11/45 67/2/64 40/1/40 
f 68/3/65 67/22/64 72/23/69 
f 68/3/65 72/23/69 73/24/70 
f 74/25/71 75/26/72 76/27/73 
f 74/25/71 76/27/73 77/28/74 
f 78/29/75 79/30/76 71/31/68 
f 78/29/75 71/31/68 80/32/77 
f 70/33/67 69/34/66 81/35/78 
f 70/33/67 81/35/78 82/36/79 
f 69/34/66 74/25/71 77/28/74 
f 69/34/66 77/28/74 81/35/78 
f 82/36/79 78/29/75 80/32/77 
f 82/36/79 80/32/77 70/33/67 
f 79/30/76 72/23/69 67/22/64 
f 79/30/76 67/22/64 71/31/68 
f 77/28/74 76/27/73 7/37/7 
f 77/28/74 7/37/7 10/38/10 
f 79/30/76 78/29/75 13/39/13 
f 79/30/76 13/39/13 12/40/12 
f 18/41/18 82/36/79 81/35/78 
f 18/41/18 81/35/78 15/42/15 
f 78/29/75 82/36/79 18/41/18 
f 78/29/75 18/41/18 13/39/13 
f 81/35/78 77/28/74 10/38/10 
f 81/35/78 10/38/10 15/42/15 
f 72/23/69 79/30/76 12/40/12 
f 72/23/69 12/40/12 5/43/5 
f 6/46/6 73/24/70 72/23/69 
f 6/46/6 72/23/69 5/43/5 
f 43/8/43 75/53/72 74/54/71 
f 43/8/43 74/54/71 44/9/44 
f 46/14/46 80/55/77 71/21/68 
f 46/14/46 71/21/68 45/11/45 
f 48/17/48 70/20/67 80/55/77 
f 48/17/48 80/55/77 46/14/46 
f 44/9/44 74/54/71 69/19/66 
f 44/9/44 69/19/66 47/16/47 
f 43/8/80 54/57/80 83/58/80 
f 43/8/80 83/58/80 75/53/80 
f 84/59/81 49/60/49 7/37/49 
f 84/59/81 7/37/49 76/27/81 
f 83/61/82 84/59/81 76/27/81 
f 83/61/82 76/27/81 75/26/82 
f 60/64/58 85/65/83 83/58/83 
f 60/64/58 83/58/83 54/57/58 
f 86/66/83 55/67/56 49/60/56 
f 86/66/83 49/60/56 84/59/83 
f 85/68/83 86/66/83 84/59/83 
f 85/68/83 84/59/83 83/61/83 
f 60/64/80 66/72/80 87/73/80 
f 60/64/80 87/73/80 85/65/80 
f 86/66/84 88/74/84 61/75/49 
f 86/66/84 61/75/49 55/67/49 
f 85/68/85 87/76/85 88/74/84 
f 85/68/85 88/74/84 86/66/84 
f 41/45/57 68/78/57 73/79/57 
f 41/45/57 73/79/57 42/46/57 
f 73/79/57 6/6/57 4/4/57 
f 73/79/57 4/4/57 42/46/57 
f 4/4/57 3/3/57 23/24/57 
f 4/4/57 23/24/57 42/46/57 
# 166 faces

