# 3ds Max Wavefront OBJ Exporter v0.97b - (c)2007 guruware
# File Created: 21.02.2011 11:31:42

#
# object sponza_251
#

v  95.6290 80.3965 -30.1922
v  94.8302 80.3965 -30.1922
v  94.8302 80.3965 -31.1957
v  95.6290 80.3965 -31.1957
v  94.8302 81.5305 -31.1957
v  94.8302 81.5305 -29.8967
v  95.6290 81.5305 -29.8967
v  95.6290 81.5305 -31.1957
v  95.6290 80.5614 -30.0912
v  94.8302 80.5614 -30.0912
v  94.8302 80.6510 -29.8967
v  95.6290 80.6510 -29.8967
# 12 vertices

vn 0.0000 -1.0000 -0.0000
vn 0.0000 1.0000 -0.0000
vn 1.0000 0.0000 -0.0000
vn 0.0000 -0.5224 0.8527
vn 0.0000 -0.7475 0.6642
vn -1.0000 -0.0000 0.0000
vn 0.0000 0.0000 1.0000
vn 0.0000 -0.9082 0.4185
vn -1.0000 0.0000 -0.0000
# 9 vertex normals

vt 0.3593 0.8072 0.0000
vt 0.4143 0.8072 0.0000
vt 0.4143 0.7381 0.0000
vt 0.3593 0.7381 0.0000
vt 0.4143 0.9839 0.0000
vt 0.4143 0.8945 0.0000
vt 0.3593 0.8945 0.0000
vt 0.3593 0.9839 0.0000
vt 0.4915 0.9031 0.0000
vt 0.4224 0.9031 0.0000
vt 0.4984 0.9145 0.0000
vt 0.3593 0.8205 0.0000
vt 0.4143 0.8205 0.0000
vt 0.4346 0.8164 0.0000
vt 0.4277 0.8278 0.0000
vt 0.5037 0.8164 0.0000
vt 0.4224 0.9812 0.0000
vt 0.5118 0.9812 0.0000
vt 0.4143 0.8339 0.0000
vt 0.3593 0.8339 0.0000
vt 0.5037 0.8945 0.0000
vt 0.5118 0.9206 0.0000
# 22 texture coords

g sponza_251
f 1/1/1 2/2/1 3/3/1 
f 1/1/1 3/3/1 4/4/1 
f 5/5/2 6/6/2 7/7/2 
f 5/5/2 7/7/2 8/8/2 
f 1/9/3 4/10/3 9/11/3 
f 1/1/4 9/12/5 10/13/5 
f 1/1/4 10/13/5 2/2/4 
f 2/14/6 10/15/6 3/16/6 
f 9/11/3 4/10/3 8/17/3 
f 9/11/3 8/17/3 7/18/3 
f 11/19/7 12/20/7 7/7/7 
f 11/19/7 7/7/7 6/6/7 
f 5/21/6 3/16/6 10/15/6 
f 5/21/6 10/15/6 6/6/6 
f 7/18/3 12/22/3 9/11/3 
f 12/20/8 11/19/8 10/13/5 
f 12/20/8 10/13/5 9/12/5 
f 10/15/6 11/19/9 6/6/6 
# 18 faces

