# 3ds Max Wavefront OBJ Exporter v0.97b - (c)2007 guruware
# File Created: 21.02.2011 11:31:18

#
# object sponza_92
#

v  -135.3350 78.7239 -58.8698
v  -135.9459 78.7239 -58.8698
v  -135.9459 79.3704 -58.9620
v  -135.2528 79.3704 -58.9620
v  -135.2618 78.7239 -58.7829
v  -135.1842 79.3704 -58.8805
v  -135.1842 79.3704 -52.0908
v  -135.2618 78.7239 -52.1884
v  -134.5889 81.3967 -59.5813
v  -134.5889 81.3967 -51.3900
v  -134.5889 80.9604 -51.3858
v  -134.5889 80.9604 -59.5855
v  -134.6624 81.3967 -51.3027
v  -135.9459 81.3967 -51.3027
v  -135.9459 80.9604 -51.3027
v  -134.6589 80.9604 -51.3027
v  -135.3933 78.3371 -58.8022
v  -135.9459 78.3371 -58.8022
v  -135.9459 78.5305 -59.0630
v  -135.1810 78.5305 -59.0630
v  -135.3187 78.3371 -58.7137
v  -135.0991 78.5305 -58.9658
v  -135.0991 78.5305 -52.0055
v  -135.3187 78.3371 -52.2576
v  -134.6624 81.3967 -59.6686
v  -135.9459 81.3967 -59.6686
v  -135.9459 81.6149 -59.9114
v  -134.4657 81.6149 -59.9114
v  -134.3844 81.6149 -59.8149
v  -134.3844 81.6149 -51.1564
v  -135.9459 81.8330 -59.6686
v  -134.6703 81.8330 -59.6686
v  -134.5889 81.8330 -59.5721
v  -134.5889 81.8330 -51.3992
v  -134.9927 80.2703 -59.2740
v  -135.9459 80.2703 -59.2740
v  -135.9459 80.9604 -59.6686
v  -134.6589 80.9604 -59.6686
v  -134.9213 80.2703 -59.1893
v  -134.9213 80.2703 -51.7821
v  -135.2528 79.3704 -52.0093
v  -135.3350 78.7239 -52.1015
v  -135.1810 78.5305 -51.9084
v  -135.3933 78.3371 -52.1691
v  -134.4657 81.6149 -51.0599
v  -134.6703 81.8330 -51.3027
v  -134.9927 80.2703 -51.6973
v  -135.9459 81.8330 -51.3027
v  -135.9459 79.3704 -52.0093
v  -135.9459 78.7239 -52.1015
v  -135.9459 78.5305 -51.9084
v  -135.9459 78.3371 -52.1691
v  -135.9459 81.6149 -51.0599
v  -135.9459 80.2703 -51.6973
# 54 vertices

vn 0.0000 -0.1411 -0.9900
vn 0.0000 -0.2354 -0.9719
vn 0.0000 -0.2466 -0.9691
vn 0.9929 -0.1192 -0.0000
vn 0.9773 -0.2119 -0.0000
vn 1.0000 0.0000 -0.0000
vn 0.0000 0.0000 1.0000
vn 0.0000 -0.8031 -0.5958
vn 0.6609 -0.7504 -0.0000
vn 0.0000 0.7065 -0.7077
vn 0.7653 0.6437 -0.0000
vn 0.0000 -0.7439 -0.6683
vn 0.7296 -0.6839 -0.0000
vn 0.0000 0.7439 -0.6683
vn 0.7296 0.6839 -0.0000
vn 0.0000 -0.4309 -0.9024
vn 0.0000 -0.4138 -0.9104
vn 0.0000 -0.4963 -0.8681
vn 0.9263 -0.3769 -0.0000
vn 0.9009 -0.4340 -0.0000
vn 0.7517 -0.1858 -0.6328
vn 0.7293 -0.3014 -0.6143
vn 0.7310 -0.2942 -0.6157
vn 0.7312 -0.2942 0.6155
vn 0.7295 -0.3014 0.6140
vn 0.7517 -0.1858 0.6328
vn 0.7647 0.0062 -0.6443
vn 0.7647 0.0062 -0.6444
vn 0.7648 0.0062 0.6442
vn 0.7648 0.0062 0.6443
vn 0.4773 0.7814 -0.4020
vn 0.4773 0.7814 -0.4021
vn 0.4773 0.7814 -0.4019
vn 0.4774 0.7814 -0.4019
vn 0.4773 0.7814 0.4019
vn 0.4772 0.7814 0.4021
vn 0.4774 0.7814 0.4019
vn 0.3864 -0.8630 -0.3255
vn 0.3865 -0.8630 0.3255
vn 0.3865 -0.8630 0.3254
vn 0.3864 -0.8630 0.3256
vn 0.4431 -0.8151 -0.3733
vn 0.4432 -0.8151 -0.3732
vn 0.4432 -0.8150 0.3732
vn 0.4432 -0.8150 0.3733
vn 0.4374 0.8203 -0.3686
vn 0.4373 0.8203 -0.3687
vn 0.4375 0.8203 -0.3684
vn 0.4375 0.8203 0.3685
vn 0.4374 0.8203 0.3686
vn 0.4375 0.8203 0.3684
vn 0.6587 -0.5082 -0.5549
vn 0.6152 -0.5940 -0.5184
vn 0.6633 -0.4978 -0.5588
vn 0.6153 -0.5940 0.5183
vn 0.6587 -0.5082 0.5549
vn 0.6633 -0.4978 0.5587
vn 0.0000 1.0000 -0.0000
vn 0.0000 -0.1412 0.9900
vn -0.0000 -0.2466 0.9691
vn 0.0000 -0.2355 0.9719
vn 0.0000 0.0000 -1.0000
vn 0.0000 -0.8031 0.5959
vn 0.0000 0.7065 0.7077
vn 0.0000 -0.7439 0.6683
vn 0.0000 0.7439 0.6683
vn -0.0000 -0.4309 0.9024
vn 0.0000 -0.4964 0.8681
vn -0.0000 -0.4964 0.8681
vn -0.0000 -0.4138 0.9104
vn 0.0000 -1.0000 -0.0000
# 71 vertex normals

vt 0.5504 0.8881 0.0000
vt 0.5337 0.8881 0.0000
vt 0.5337 0.9084 0.0000
vt 0.5526 0.9084 0.0000
vt 0.6076 0.8897 0.0000
vt 0.6053 0.9100 0.0000
vt 0.7614 0.9100 0.0000
vt 0.7592 0.8897 0.0000
vt 0.5892 0.9737 0.0000
vt 0.7775 0.9737 0.0000
vt 0.7776 0.9600 0.0000
vt 0.5891 0.9600 0.0000
vt 0.7937 0.9733 0.0000
vt 0.8288 0.9733 0.0000
vt 0.8288 0.9596 0.0000
vt 0.7936 0.9596 0.0000
vt 0.9865 0.7672 0.0000
vt 0.9619 0.7672 0.0000
vt 0.9632 0.7791 0.0000
vt 0.9959 0.7791 0.0000
vt 0.0113 0.7672 0.0000
vt 0.0111 0.7790 0.0000
vt 0.2524 0.7790 0.0000
vt 0.2525 0.7672 0.0000
vt 0.5337 0.8820 0.0000
vt 0.5546 0.8820 0.0000
vt 0.6034 0.8836 0.0000
vt 0.7634 0.8836 0.0000
vt 0.5687 0.9721 0.0000
vt 0.5337 0.9721 0.0000
vt 0.5337 0.9790 0.0000
vt 0.5741 0.9790 0.0000
vt 0.5839 0.9806 0.0000
vt 0.7829 0.9806 0.0000
vt 0.5337 0.9859 0.0000
vt 0.5685 0.9859 0.0000
vt 0.5894 0.9875 0.0000
vt 0.7773 0.9875 0.0000
vt 0.5597 0.9367 0.0000
vt 0.5337 0.9367 0.0000
vt 0.5337 0.9584 0.0000
vt 0.5688 0.9584 0.0000
vt 0.5982 0.9383 0.0000
vt 0.7685 0.9383 0.0000
vt 0.6050 0.8907 0.0000
vt 0.6028 0.9094 0.0000
vt 0.8073 0.9090 0.0000
vt 0.8098 0.9096 0.0000
vt 0.8121 0.8892 0.0000
vt 0.8095 0.8902 0.0000
vt 0.5867 0.9726 0.0000
vt 0.5865 0.9593 0.0000
vt 0.7912 0.9721 0.0000
vt 0.7910 0.9589 0.0000
vt 0.6007 0.8862 0.0000
vt 0.8079 0.8832 0.0000
vt 0.8052 0.8857 0.0000
vt 0.0079 0.7672 0.0000
vt 0.0078 0.7789 0.0000
vt 0.2558 0.7672 0.0000
vt 0.2559 0.7790 0.0000
vt 0.5815 0.9806 0.0000
vt 0.7860 0.9801 0.0000
vt 0.7884 0.9801 0.0000
vt 0.5871 0.9900 0.0000
vt 0.7916 0.9896 0.0000
vt 0.7939 0.9870 0.0000
vt 0.5957 0.9372 0.0000
vt 0.8027 0.9379 0.0000
vt 0.8002 0.9367 0.0000
vt 0.1674 0.8760 0.0000
vt 0.1655 0.8746 0.0000
vt 0.0109 0.8746 0.0000
vt 0.0091 0.8976 0.0000
vt 0.0091 0.8760 0.0000
vt 0.1674 0.8976 0.0000
vt 0.8288 0.9096 0.0000
vt 0.8288 0.8892 0.0000
vt 0.2874 0.7790 0.0000
vt 0.2803 0.7672 0.0000
vt 0.8288 0.8832 0.0000
vt 0.8288 0.9801 0.0000
vt 0.8288 0.9870 0.0000
vt 0.8288 0.9379 0.0000
vt 0.4476 0.6911 0.0000
vt 0.2773 0.6911 0.0000
vt 0.2773 0.6742 0.0000
vt 0.4476 0.6742 0.0000
vt 0.4453 0.6933 0.0000
vt 0.2795 0.6933 0.0000
# 90 texture coords

g sponza_92
f 1/1/1 2/2/1 3/3/2 
f 1/1/1 3/3/2 4/4/3 
f 5/5/4 6/6/5 7/7/5 
f 5/5/4 7/7/5 8/8/4 
f 9/9/6 10/10/6 11/11/6 
f 9/9/6 11/11/6 12/12/6 
f 13/13/7 14/14/7 15/15/7 
f 13/13/7 15/15/7 16/16/7 
f 17/17/8 18/18/8 19/19/8 
f 17/17/8 19/19/8 20/20/8 
f 21/21/9 22/22/9 23/23/9 
f 21/21/9 23/23/9 24/24/9 
f 19/25/10 2/2/10 1/1/10 
f 19/25/10 1/1/10 20/26/10 
f 22/27/11 5/5/11 8/8/11 
f 22/27/11 8/8/11 23/28/11 
f 25/29/12 26/30/12 27/31/12 
f 25/29/12 27/31/12 28/32/12 
f 9/9/13 29/33/13 30/34/13 
f 9/9/13 30/34/13 10/10/13 
f 27/31/14 31/35/14 32/36/14 
f 27/31/14 32/36/14 28/32/14 
f 29/33/15 33/37/15 34/38/15 
f 29/33/15 34/38/15 30/34/15 
f 35/39/16 36/40/17 37/41/18 
f 35/39/16 37/41/18 38/42/18 
f 39/43/19 12/12/20 11/11/20 
f 39/43/19 11/11/20 40/44/19 
f 4/4/3 3/3/2 36/40/17 
f 4/4/3 36/40/17 35/39/16 
f 6/6/5 39/43/19 40/44/19 
f 6/6/5 40/44/19 7/7/5 
f 1/45/21 4/46/22 6/6/23 
f 1/45/21 6/6/23 5/5/21 
f 7/47/24 41/48/25 42/49/26 
f 7/47/24 42/49/26 8/50/26 
f 25/51/27 9/9/27 12/12/28 
f 25/51/27 12/12/28 38/52/28 
f 10/53/29 13/13/29 16/16/30 
f 10/53/29 16/16/30 11/54/30 
f 22/27/31 20/55/32 1/45/33 
f 22/27/31 1/45/33 5/5/34 
f 42/49/35 43/56/36 23/57/36 
f 42/49/35 23/57/36 8/50/37 
f 22/22/38 21/21/38 17/58/38 
f 22/22/38 17/58/38 20/59/38 
f 44/60/39 24/24/40 23/23/41 
f 44/60/39 23/23/41 43/61/41 
f 25/51/42 28/62/43 29/33/43 
f 25/51/42 29/33/43 9/9/42 
f 30/63/44 45/64/44 13/13/45 
f 30/63/44 13/13/45 10/53/45 
f 32/65/46 33/37/47 29/33/48 
f 32/65/46 29/33/48 28/62/48 
f 30/63/49 34/66/50 46/67/50 
f 30/63/49 46/67/50 45/64/51 
f 35/68/52 38/52/53 12/12/53 
f 35/68/52 12/12/53 39/43/54 
f 11/54/55 16/16/55 47/69/56 
f 11/54/55 47/69/56 40/70/57 
f 4/46/22 35/68/52 39/43/54 
f 4/46/22 39/43/54 6/6/23 
f 40/70/57 47/69/56 41/48/25 
f 40/70/57 41/48/25 7/47/24 
f 46/71/58 34/72/58 33/73/58 
f 46/71/58 33/73/58 31/74/58 
f 33/73/58 32/75/58 31/74/58 
f 48/76/58 46/71/58 31/74/58 
f 42/49/59 41/48/60 49/77/61 
f 42/49/59 49/77/61 50/78/59 
f 25/29/62 38/42/62 37/41/62 
f 25/29/62 37/41/62 26/30/62 
f 44/60/63 43/61/63 51/79/63 
f 44/60/63 51/79/63 52/80/63 
f 51/81/64 43/56/64 42/49/64 
f 51/81/64 42/49/64 50/78/64 
f 13/13/65 45/64/65 53/82/65 
f 13/13/65 53/82/65 14/14/65 
f 53/82/66 45/64/66 46/67/66 
f 53/82/66 46/67/66 48/83/66 
f 47/69/67 16/16/68 15/15/69 
f 47/69/67 15/15/69 54/84/70 
f 41/48/60 47/69/67 54/84/70 
f 41/48/60 54/84/70 49/77/61 
f 17/85/71 44/86/71 52/87/71 
f 17/85/71 52/87/71 18/88/71 
f 44/86/71 17/85/71 21/89/71 
f 44/86/71 21/89/71 24/90/71 
# 88 faces

