# 3ds Max Wavefront OBJ Exporter v0.97b - (c)2007 guruware
# File Created: 21.02.2011 11:31:43

#
# object sponza_259
#

v  56.3936 96.5058 -51.9924
v  56.2810 96.5349 -52.0002
v  56.2810 95.4954 -55.8798
v  56.3936 95.4662 -55.8720
v  56.1986 96.6145 -52.0215
v  56.1986 95.5750 -55.9011
v  56.1684 96.7233 -52.0507
v  56.1684 95.6838 -55.9303
v  56.1986 96.8321 -52.0798
v  56.1986 95.7925 -55.9594
v  56.2810 96.9117 -52.1011
v  56.2810 95.8722 -55.9807
v  56.3936 96.9409 -52.1089
v  56.3936 95.9013 -55.9885
v  56.5062 96.9117 -52.1011
v  56.5062 95.8722 -55.9807
v  56.5887 96.8321 -52.0798
v  56.5887 95.7925 -55.9594
v  56.6188 96.7233 -52.0507
v  56.6188 95.6838 -55.9303
v  56.5887 96.6145 -52.0215
v  56.5887 95.5750 -55.9011
v  56.5062 96.5349 -52.0002
v  56.5062 95.4954 -55.8798
v  56.3936 97.5453 -48.1128
v  56.2810 97.5744 -48.1206
v  56.1986 97.6541 -48.1419
v  56.1684 97.7628 -48.1711
v  56.1986 97.8716 -48.2002
v  56.2810 97.9512 -48.2215
v  56.3936 97.9804 -48.2293
v  56.5062 97.9512 -48.2215
v  56.5887 97.8716 -48.2002
v  56.6188 97.7628 -48.1711
v  56.5887 97.6541 -48.1419
v  56.5062 97.5744 -48.1206
v  56.3936 98.5848 -44.2332
v  56.2810 98.6140 -44.2410
v  56.1986 98.6936 -44.2623
v  56.1684 98.8024 -44.2914
v  56.1986 98.9112 -44.3206
v  56.2810 98.9908 -44.3419
v  56.3936 99.0199 -44.3497
v  56.5062 98.9908 -44.3419
v  56.5887 98.9112 -44.3206
v  56.6188 98.8024 -44.2914
v  56.5887 98.6936 -44.2623
v  56.5062 98.6140 -44.2410
v  56.3408 100.7363 -36.8371
v  56.3631 100.7148 -36.8313
v  56.3936 100.7069 -36.8292
v  56.4464 100.7363 -36.8371
v  56.3408 100.7952 -36.8529
v  56.4545 100.7658 -36.8450
v  56.4464 100.7952 -36.8529
v  56.4241 100.8167 -36.8587
v  56.3936 100.8246 -36.8608
v  56.3631 100.8167 -36.8587
v  56.3327 100.7658 -36.8450
v  56.4241 100.7148 -36.8313
v  56.3936 99.8660 -39.1274
v  56.2390 99.9060 -39.1381
v  56.2810 99.8889 -39.4827
v  56.3936 99.8598 -39.4749
v  56.1258 100.0153 -39.1674
v  56.1986 99.9686 -39.5041
v  56.0844 100.1646 -39.2074
v  56.1684 100.0773 -39.5332
v  56.1258 100.3140 -39.2474
v  56.1986 100.1861 -39.5623
v  56.2390 100.4233 -39.2767
v  56.2810 100.2658 -39.5837
v  56.3936 100.4633 -39.2875
v  56.3936 100.2949 -39.5915
v  56.5482 100.4233 -39.2767
v  56.5062 100.2658 -39.5837
v  56.6614 100.3140 -39.2474
v  56.5887 100.1861 -39.5623
v  56.7028 100.1646 -39.2074
v  56.6188 100.0773 -39.5332
v  56.6614 100.0153 -39.1674
v  56.5887 99.9686 -39.5041
v  56.5482 99.9060 -39.1381
v  56.5062 99.8889 -39.4827
v  56.3936 100.2776 -37.4522
v  56.2287 100.3203 -37.4637
v  56.2004 100.1032 -38.1435
v  56.3936 100.0532 -38.1301
v  56.1080 100.4369 -37.4949
v  56.0589 100.2399 -38.1801
v  56.0639 100.5961 -37.5376
v  56.0071 100.4265 -38.2301
v  56.1080 100.7554 -37.5802
v  56.0589 100.6132 -38.2801
v  56.2287 100.8720 -37.6115
v  56.2004 100.7498 -38.3168
v  56.3936 100.9146 -37.6229
v  56.3936 100.7998 -38.3302
v  56.5585 100.8720 -37.6115
v  56.5868 100.7498 -38.3168
v  56.6792 100.7554 -37.5802
v  56.7283 100.6132 -38.2801
v  56.7234 100.5961 -37.5376
v  56.7801 100.4265 -38.2301
v  56.6792 100.4369 -37.4949
v  56.7283 100.2399 -38.1801
v  56.5585 100.3203 -37.4637
v  56.5868 100.1032 -38.1435
v  56.2407 99.9961 -38.8131
v  56.3936 99.9565 -38.8025
v  56.1287 100.1042 -38.8421
v  56.0878 100.2519 -38.8817
v  56.1287 100.3996 -38.9212
v  56.2407 100.5078 -38.9502
v  56.3936 100.5474 -38.9608
v  56.5465 100.5078 -38.9502
v  56.6585 100.3996 -38.9212
v  56.6995 100.2519 -38.8817
v  56.6585 100.1042 -38.8421
v  56.5465 99.9961 -38.8131
# 120 vertices

vn 0.0000 -0.9659 0.2588
vn -0.5000 -0.8365 0.2241
vn -0.8660 -0.4830 0.1294
vn -1.0000 0.0000 -0.0000
vn -1.0000 -0.0000 -0.0000
vn -0.8660 0.4830 -0.1294
vn -0.5000 0.8365 -0.2241
vn 0.0000 0.9659 -0.2588
vn 0.5000 0.8365 -0.2241
vn 0.8660 0.4830 -0.1294
vn 1.0000 0.0000 -0.0000
vn 1.0000 -0.0000 -0.0000
vn 0.8660 -0.4830 0.1294
vn 0.5000 -0.8365 0.2241
vn -0.0000 0.2588 0.9659
vn 0.0000 0.2588 0.9659
vn 0.0001 0.2588 0.9659
vn -0.0001 0.2588 0.9659
vn 0.0000 -0.9892 0.1466
vn -0.4967 -0.8606 0.1121
vn -0.4961 -0.8622 0.1024
vn 0.0000 -0.9906 0.1368
vn -0.8603 -0.5094 0.0180
vn -0.8593 -0.5114 0.0084
vn -0.9934 -0.0296 -0.1105
vn -0.9923 -0.0321 -0.1200
vn -0.8603 0.4502 -0.2391
vn -0.8593 0.4471 -0.2484
vn -0.4967 0.8014 -0.3332
vn -0.4961 0.7979 -0.3424
vn 0.0000 0.9300 -0.3677
vn 0.0000 0.9263 -0.3768
vn 0.4967 0.8014 -0.3332
vn 0.4961 0.7979 -0.3424
vn 0.8603 0.4502 -0.2391
vn 0.8593 0.4471 -0.2484
vn 0.9934 -0.0296 -0.1105
vn 0.9923 -0.0322 -0.1200
vn 0.8603 -0.5094 0.0180
vn 0.8593 -0.5114 0.0084
vn 0.4967 -0.8606 0.1121
vn 0.4961 -0.8622 0.1024
vn 0.0000 -0.8974 0.4413
vn -0.4900 -0.7694 0.4097
vn -0.5006 -0.8432 0.1963
vn 0.0000 -0.9733 0.2296
vn -0.8477 -0.4204 0.3236
vn -0.8665 -0.4879 0.1051
vn -0.9770 0.0548 0.2063
vn -0.9998 -0.0033 -0.0192
vn -0.8444 0.5282 0.0895
vn -0.8652 0.4805 -0.1434
vn -0.4868 0.8735 0.0042
vn -0.4992 0.8342 -0.2342
vn 0.0000 0.9996 -0.0270
vn 0.0000 0.9636 -0.2674
vn 0.4868 0.8735 0.0042
vn 0.4992 0.8342 -0.2342
vn 0.8444 0.5282 0.0895
vn 0.8652 0.4805 -0.1434
vn 0.9770 0.0548 0.2063
vn 0.9998 -0.0033 -0.0192
vn 0.8477 -0.4204 0.3236
vn 0.8665 -0.4879 0.1051
vn 0.4900 -0.7694 0.4097
vn 0.5006 -0.8432 0.1963
vn 0.0000 -0.8234 0.5674
vn -0.4692 -0.7010 0.5371
vn -0.8117 -0.3669 0.4543
vn -0.9357 0.0880 0.3416
vn -0.8089 0.5414 0.2293
vn -0.4664 0.8722 0.1473
vn 0.0000 0.9931 0.1173
vn 0.4664 0.8722 0.1473
vn 0.8089 0.5414 0.2293
vn 0.9357 0.0880 0.3416
vn 0.8117 -0.3670 0.4544
vn 0.4692 -0.7010 0.5371
vn -0.4992 -0.8495 0.1706
vn 0.0000 -0.9787 0.2052
vn -0.8647 -0.4965 0.0760
vn -0.9985 -0.0143 -0.0532
vn -0.8647 0.4680 -0.1824
vn -0.4992 0.8210 -0.2770
vn 0.0000 0.9502 -0.3116
vn 0.4992 0.8210 -0.2770
vn 0.8647 0.4680 -0.1824
vn 0.9985 -0.0143 -0.0532
vn 0.8647 -0.4965 0.0760
vn 0.4992 -0.8495 0.1706
# 90 vertex normals

vt 0.9876 0.5241 0.0000
vt 0.9633 0.5241 0.0000
vt 0.9633 0.0053 0.0000
vt 0.9876 0.0053 0.0000
vt 0.9391 0.5241 0.0000
vt 0.9391 0.0053 0.0000
vt 0.9148 0.5241 0.0000
vt 0.9148 0.0053 0.0000
vt 0.8906 0.5241 0.0000
vt 0.8906 0.0053 0.0000
vt 0.8663 0.5241 0.0000
vt 0.8663 0.0053 0.0000
vt 0.8421 0.5241 0.0000
vt 0.8421 0.0053 0.0000
vt 0.8178 0.5241 0.0000
vt 0.8178 0.0053 0.0000
vt 0.7936 0.5241 0.0000
vt 0.7936 0.0053 0.0000
vt 0.7694 0.5241 0.0000
vt 0.7694 0.0053 0.0000
vt 0.7451 0.5241 0.0000
vt 0.7451 0.0053 0.0000
vt 0.7209 0.5241 0.0000
vt 0.7209 0.0053 0.0000
vt 0.6966 0.5241 0.0000
vt 0.6966 0.0053 0.0000
vt 0.9918 0.0129 0.0000
vt 0.9876 0.6851 0.0000
vt 0.9633 0.6851 0.0000
vt 0.9633 0.6416 0.0000
vt 0.9876 0.6416 0.0000
vt 0.9391 0.6851 0.0000
vt 0.9391 0.6416 0.0000
vt 0.9148 0.6851 0.0000
vt 0.9148 0.6416 0.0000
vt 0.8906 0.6851 0.0000
vt 0.8906 0.6416 0.0000
vt 0.8663 0.6851 0.0000
vt 0.8663 0.6416 0.0000
vt 0.8421 0.6851 0.0000
vt 0.8421 0.6416 0.0000
vt 0.8178 0.6851 0.0000
vt 0.8178 0.6416 0.0000
vt 0.7936 0.6851 0.0000
vt 0.7936 0.6416 0.0000
vt 0.7694 0.6851 0.0000
vt 0.7694 0.6416 0.0000
vt 0.7451 0.6851 0.0000
vt 0.7451 0.6416 0.0000
vt 0.7209 0.6851 0.0000
vt 0.7209 0.6416 0.0000
vt 0.6966 0.6851 0.0000
vt 0.6966 0.6416 0.0000
vt 0.9876 0.9029 0.0000
vt 0.9633 0.9029 0.0000
vt 0.9633 0.8158 0.0000
vt 0.9876 0.8158 0.0000
vt 0.9391 0.9029 0.0000
vt 0.9391 0.8158 0.0000
vt 0.9148 0.9029 0.0000
vt 0.9148 0.8158 0.0000
vt 0.8906 0.9029 0.0000
vt 0.8906 0.8158 0.0000
vt 0.8663 0.9029 0.0000
vt 0.8663 0.8158 0.0000
vt 0.8421 0.9029 0.0000
vt 0.8421 0.8158 0.0000
vt 0.8178 0.9029 0.0000
vt 0.8178 0.8158 0.0000
vt 0.7936 0.9029 0.0000
vt 0.7936 0.8158 0.0000
vt 0.7694 0.9029 0.0000
vt 0.7694 0.8158 0.0000
vt 0.7451 0.9029 0.0000
vt 0.7451 0.8158 0.0000
vt 0.7209 0.9029 0.0000
vt 0.7209 0.8158 0.0000
vt 0.6966 0.9029 0.0000
vt 0.6966 0.8158 0.0000
vt 0.9876 0.9900 0.0000
vt 0.9633 0.9900 0.0000
vt 0.9391 0.9900 0.0000
vt 0.9148 0.9900 0.0000
vt 0.8906 0.9900 0.0000
vt 0.8663 0.9900 0.0000
vt 0.8421 0.9900 0.0000
vt 0.8178 0.9900 0.0000
vt 0.7936 0.9900 0.0000
vt 0.7694 0.9900 0.0000
vt 0.7451 0.9900 0.0000
vt 0.7209 0.9900 0.0000
vt 0.6966 0.9900 0.0000
vt 0.9633 0.7287 0.0000
vt 0.9876 0.7287 0.0000
vt 0.9391 0.7287 0.0000
vt 0.9148 0.7287 0.0000
vt 0.8906 0.7287 0.0000
vt 0.8663 0.7287 0.0000
vt 0.8421 0.7287 0.0000
vt 0.8178 0.7287 0.0000
vt 0.7936 0.7287 0.0000
vt 0.7694 0.7287 0.0000
vt 0.7451 0.7287 0.0000
vt 0.7209 0.7287 0.0000
vt 0.6966 0.7287 0.0000
# 105 texture coords

g sponza_259
f 1/1/1 2/2/2 3/3/2 
f 1/1/1 3/3/2 4/4/1 
f 2/2/2 5/5/3 6/6/3 
f 2/2/2 6/6/3 3/3/2 
f 5/5/3 7/7/4 8/8/5 
f 5/5/3 8/8/5 6/6/3 
f 7/7/4 9/9/6 10/10/6 
f 7/7/4 10/10/6 8/8/5 
f 9/9/6 11/11/7 12/12/7 
f 9/9/6 12/12/7 10/10/6 
f 11/11/7 13/13/8 14/14/8 
f 11/11/7 14/14/8 12/12/7 
f 13/13/8 15/15/9 16/16/9 
f 13/13/8 16/16/9 14/14/8 
f 15/15/9 17/17/10 18/18/10 
f 15/15/9 18/18/10 16/16/9 
f 17/17/10 19/19/11 20/20/12 
f 17/17/10 20/20/12 18/18/10 
f 19/19/11 21/21/13 22/22/13 
f 19/19/11 22/22/13 20/20/12 
f 21/21/13 23/23/14 24/24/14 
f 21/21/13 24/24/14 22/22/13 
f 23/23/14 1/25/1 4/26/1 
f 23/23/14 4/26/1 24/24/14 
f 25/1/1 26/2/2 2/3/2 
f 25/1/1 2/3/2 1/4/1 
f 26/2/2 27/5/3 5/6/3 
f 26/2/2 5/6/3 2/3/2 
f 27/5/3 28/7/4 7/8/4 
f 27/5/3 7/8/4 5/6/3 
f 28/7/4 29/9/6 9/10/6 
f 28/7/4 9/10/6 7/8/4 
f 29/9/6 30/11/7 11/12/7 
f 29/9/6 11/12/7 9/10/6 
f 30/11/7 31/13/8 13/14/8 
f 30/11/7 13/14/8 11/12/7 
f 31/13/8 32/15/9 15/16/9 
f 31/13/8 15/16/9 13/14/8 
f 32/15/9 33/17/10 17/18/10 
f 32/15/9 17/18/10 15/16/9 
f 33/17/10 34/19/11 19/20/11 
f 33/17/10 19/20/11 17/18/10 
f 34/19/11 35/21/13 21/22/13 
f 34/19/11 21/22/13 19/20/11 
f 35/21/13 36/23/14 23/24/14 
f 35/21/13 23/24/14 21/22/13 
f 36/23/14 25/25/1 1/26/1 
f 36/23/14 1/26/1 23/24/14 
f 37/1/1 38/2/2 26/3/2 
f 37/1/1 26/3/2 25/4/1 
f 38/2/2 39/5/3 27/6/3 
f 38/2/2 27/6/3 26/3/2 
f 39/5/3 40/7/4 28/8/4 
f 39/5/3 28/8/4 27/6/3 
f 40/7/4 41/9/6 29/10/6 
f 40/7/4 29/10/6 28/8/4 
f 41/9/6 42/11/7 30/12/7 
f 41/9/6 30/12/7 29/10/6 
f 42/11/7 43/13/8 31/14/8 
f 42/11/7 31/14/8 30/12/7 
f 43/13/8 44/15/9 32/16/9 
f 43/13/8 32/16/9 31/14/8 
f 44/15/9 45/17/10 33/18/10 
f 44/15/9 33/18/10 32/16/9 
f 45/17/10 46/19/11 34/20/11 
f 45/17/10 34/20/11 33/18/10 
f 46/19/11 47/21/13 35/22/13 
f 46/19/11 35/22/13 34/20/11 
f 47/21/13 48/23/14 36/24/14 
f 47/21/13 36/24/14 35/22/13 
f 48/23/14 37/25/1 25/26/1 
f 48/23/14 25/26/1 36/24/14 
f 49/27/15 50/27/15 51/27/16 
f 49/27/15 51/27/16 52/27/16 
f 49/27/15 52/27/16 53/27/15 
f 52/27/16 54/27/17 55/27/16 
f 52/27/16 55/27/16 53/27/15 
f 55/27/16 56/27/15 57/27/16 
f 55/27/16 57/27/16 53/27/15 
f 57/27/16 58/27/16 53/27/15 
f 59/27/18 49/27/15 53/27/15 
f 60/27/16 52/27/16 51/27/16 
f 61/28/19 62/29/20 63/30/21 
f 61/28/19 63/30/21 64/31/22 
f 62/29/20 65/32/23 66/33/24 
f 62/29/20 66/33/24 63/30/21 
f 65/32/23 67/34/25 68/35/26 
f 65/32/23 68/35/26 66/33/24 
f 67/34/25 69/36/27 70/37/28 
f 67/34/25 70/37/28 68/35/26 
f 69/36/27 71/38/29 72/39/30 
f 69/36/27 72/39/30 70/37/28 
f 71/38/29 73/40/31 74/41/32 
f 71/38/29 74/41/32 72/39/30 
f 73/40/31 75/42/33 76/43/34 
f 73/40/31 76/43/34 74/41/32 
f 75/42/33 77/44/35 78/45/36 
f 75/42/33 78/45/36 76/43/34 
f 77/44/35 79/46/37 80/47/38 
f 77/44/35 80/47/38 78/45/36 
f 79/46/37 81/48/39 82/49/40 
f 79/46/37 82/49/40 80/47/38 
f 81/48/39 83/50/41 84/51/42 
f 81/48/39 84/51/42 82/49/40 
f 83/50/41 61/52/19 64/53/22 
f 83/50/41 64/53/22 84/51/42 
f 85/54/43 86/55/44 87/56/45 
f 85/54/43 87/56/45 88/57/46 
f 87/56/45 86/55/44 89/58/47 
f 87/56/45 89/58/47 90/59/48 
f 90/59/48 89/58/47 91/60/49 
f 90/59/48 91/60/49 92/61/50 
f 92/61/50 91/60/49 93/62/51 
f 92/61/50 93/62/51 94/63/52 
f 94/63/52 93/62/51 95/64/53 
f 94/63/52 95/64/53 96/65/54 
f 95/64/53 97/66/55 98/67/56 
f 95/64/53 98/67/56 96/65/54 
f 97/66/55 99/68/57 100/69/58 
f 97/66/55 100/69/58 98/67/56 
f 99/68/57 101/70/59 102/71/60 
f 99/68/57 102/71/60 100/69/58 
f 101/70/59 103/72/61 104/73/62 
f 101/70/59 104/73/62 102/71/60 
f 103/72/61 105/74/63 106/75/64 
f 103/72/61 106/75/64 104/73/62 
f 105/74/63 107/76/65 108/77/66 
f 105/74/63 108/77/66 106/75/64 
f 107/76/65 85/78/43 88/79/46 
f 107/76/65 88/79/46 108/77/66 
f 51/80/67 50/81/68 86/55/44 
f 51/80/67 86/55/44 85/54/43 
f 50/81/68 49/82/69 89/58/47 
f 50/81/68 89/58/47 86/55/44 
f 89/58/47 49/82/69 59/83/70 
f 89/58/47 59/83/70 91/60/49 
f 91/60/49 59/83/70 53/84/71 
f 91/60/49 53/84/71 93/62/51 
f 53/84/71 58/85/72 95/64/53 
f 53/84/71 95/64/53 93/62/51 
f 58/85/72 57/86/73 97/66/55 
f 58/85/72 97/66/55 95/64/53 
f 57/86/73 56/87/74 99/68/57 
f 57/86/73 99/68/57 97/66/55 
f 56/87/74 55/88/75 101/70/59 
f 56/87/74 101/70/59 99/68/57 
f 55/88/75 54/89/76 103/72/61 
f 55/88/75 103/72/61 101/70/59 
f 54/89/76 52/90/77 105/74/63 
f 54/89/76 105/74/63 103/72/61 
f 52/90/77 60/91/78 107/76/65 
f 52/90/77 107/76/65 105/74/63 
f 60/91/78 51/92/67 85/78/43 
f 60/91/78 85/78/43 107/76/65 
f 88/57/46 87/56/45 109/93/79 
f 88/57/46 109/93/79 110/94/80 
f 87/56/45 90/59/48 111/95/81 
f 87/56/45 111/95/81 109/93/79 
f 90/59/48 92/61/50 112/96/82 
f 90/59/48 112/96/82 111/95/81 
f 92/61/50 94/63/52 113/97/83 
f 92/61/50 113/97/83 112/96/82 
f 94/63/52 96/65/54 114/98/84 
f 94/63/52 114/98/84 113/97/83 
f 96/65/54 98/67/56 115/99/85 
f 96/65/54 115/99/85 114/98/84 
f 98/67/56 100/69/58 116/100/86 
f 98/67/56 116/100/86 115/99/85 
f 100/69/58 102/71/60 117/101/87 
f 100/69/58 117/101/87 116/100/86 
f 102/71/60 104/73/62 118/102/88 
f 102/71/60 118/102/88 117/101/87 
f 104/73/62 106/75/64 119/103/89 
f 104/73/62 119/103/89 118/102/88 
f 106/75/64 108/77/66 120/104/90 
f 106/75/64 120/104/90 119/103/89 
f 108/77/66 88/79/46 110/105/80 
f 108/77/66 110/105/80 120/104/90 
f 110/94/80 109/93/79 62/29/20 
f 110/94/80 62/29/20 61/28/19 
f 109/93/79 111/95/81 65/32/23 
f 109/93/79 65/32/23 62/29/20 
f 111/95/81 112/96/82 67/34/25 
f 111/95/81 67/34/25 65/32/23 
f 112/96/82 113/97/83 69/36/27 
f 112/96/82 69/36/27 67/34/25 
f 113/97/83 114/98/84 71/38/29 
f 113/97/83 71/38/29 69/36/27 
f 114/98/84 115/99/85 73/40/31 
f 114/98/84 73/40/31 71/38/29 
f 115/99/85 116/100/86 75/42/33 
f 115/99/85 75/42/33 73/40/31 
f 116/100/86 117/101/87 77/44/35 
f 116/100/86 77/44/35 75/42/33 
f 117/101/87 118/102/88 79/46/37 
f 117/101/87 79/46/37 77/44/35 
f 118/102/88 119/103/89 81/48/39 
f 118/102/88 81/48/39 79/46/37 
f 119/103/89 120/104/90 83/50/41 
f 119/103/89 83/50/41 81/48/39 
f 120/104/90 110/105/80 61/52/19 
f 120/104/90 61/52/19 83/50/41 
f 64/31/22 63/30/21 38/3/2 
f 64/31/22 38/3/2 37/4/1 
f 63/30/21 66/33/24 39/6/3 
f 63/30/21 39/6/3 38/3/2 
f 66/33/24 68/35/26 40/8/4 
f 66/33/24 40/8/4 39/6/3 
f 68/35/26 70/37/28 41/10/6 
f 68/35/26 41/10/6 40/8/4 
f 70/37/28 72/39/30 42/12/7 
f 70/37/28 42/12/7 41/10/6 
f 72/39/30 74/41/32 43/14/8 
f 72/39/30 43/14/8 42/12/7 
f 74/41/32 76/43/34 44/16/9 
f 74/41/32 44/16/9 43/14/8 
f 76/43/34 78/45/36 45/18/10 
f 76/43/34 45/18/10 44/16/9 
f 78/45/36 80/47/38 46/20/11 
f 78/45/36 46/20/11 45/18/10 
f 80/47/38 82/49/40 47/22/13 
f 80/47/38 47/22/13 46/20/11 
f 82/49/40 84/51/42 48/24/14 
f 82/49/40 48/24/14 47/22/13 
f 84/51/42 64/53/22 37/26/1 
f 84/51/42 37/26/1 48/24/14 
# 226 faces

