# 3ds Max Wavefront OBJ Exporter v0.97b - (c)2007 guruware
# File Created: 21.02.2011 11:31:22

#
# object sponza_121
#

v  94.2868 34.4005 -9.6022
v  91.9571 34.4005 -11.9318
v  88.7185 34.4005 -11.9318
v  94.2868 34.4005 -4.2440
v  88.7185 34.4005 -4.2440
v  94.2868 33.0896 -4.2440
v  94.2868 33.5986 -4.2440
v  88.7185 33.5986 -4.2440
v  88.7185 33.0896 -4.2440
v  88.7185 33.5986 -11.9318
v  88.7185 33.0896 -11.9318
v  88.9670 32.7094 -11.7128
v  88.9670 32.7094 -4.4631
v  91.9571 33.0896 -11.9318
v  92.1762 32.7094 -11.7128
v  89.5949 32.4180 -11.1592
v  89.5949 32.4180 -5.0166
v  94.2868 32.4180 -5.0166
v  94.2868 32.7094 -4.4631
v  90.1724 12.0547 -9.1832
v  90.1724 30.9659 -9.1832
v  91.8889 30.9659 -10.6939
v  91.8889 12.0547 -10.6939
v  90.1724 12.0547 -7.0467
v  90.1724 30.9659 -7.0467
v  91.8889 12.0547 -5.5360
v  91.8889 30.9659 -5.5360
v  94.2868 12.0547 -5.5360
v  94.2868 30.9659 -5.5360
v  90.1724 31.4234 -9.1832
v  89.9935 31.5508 -9.2484
v  91.8148 31.5508 -10.8513
v  91.8889 31.4234 -10.6939
v  90.1724 31.4234 -7.0467
v  89.9935 31.5508 -6.9815
v  91.8889 31.4234 -5.5360
v  91.8148 31.5508 -5.3786
v  94.2868 31.4234 -5.5360
v  94.2868 31.5508 -5.3786
v  90.1173 31.9330 -9.2033
v  89.9173 32.2268 -9.2762
v  91.7833 32.2268 -10.9184
v  91.8661 31.9330 -10.7424
v  90.1173 31.9330 -7.0267
v  89.9173 32.2268 -6.9537
v  91.8661 31.9330 -5.4876
v  91.7833 32.2268 -5.3115
v  94.2868 31.9330 -5.4876
v  94.2868 32.2268 -5.3115
v  92.7297 32.4180 -11.1592
v  92.9705 32.2268 -10.9184
v  91.7715 31.1946 -10.9434
v  92.9456 31.1946 -10.9434
v  93.1951 30.9659 -10.6939
v  89.8889 31.1946 -9.2865
v  89.8889 31.1946 -6.9434
v  91.7715 31.1946 -5.2865
v  93.1951 31.4234 -10.6939
v  93.1466 31.9330 -10.7424
v  93.1327 31.6782 -10.7563
v  91.8596 31.6782 -10.7563
v  90.1016 31.6782 -9.2090
v  90.1016 31.6782 -7.0209
v  91.8596 31.6782 -5.4737
v  93.0376 31.5508 -10.8513
v  94.2868 33.5986 -4.3369
v  94.2868 33.8217 -4.3369
v  88.8240 33.8217 -4.3369
v  88.8240 33.5986 -4.3369
v  88.8240 33.8217 -11.8390
v  88.8240 33.5986 -11.8390
v  91.9571 33.8217 -11.9318
v  88.7185 33.8217 -11.9318
v  88.7185 33.8217 -4.2440
v  92.0500 33.8217 -11.8390
v  94.2868 31.1946 -5.2865
v  94.2868 31.6782 -5.4737
v  94.2868 33.8217 -4.2440
v  96.6847 30.9659 -5.5360
v  96.6847 12.0547 -5.5360
v  96.6847 31.4234 -5.5360
v  96.7588 31.5508 -5.3786
v  96.7075 31.9330 -5.4876
v  96.7904 32.2268 -5.3115
v  97.5720 30.9659 -6.3170
v  97.7597 31.1946 -6.1293
v  96.8021 31.1946 -5.2865
v  97.5720 31.4234 -6.3170
v  97.6189 31.6782 -6.2701
v  97.6085 31.9330 -6.2805
v  96.7141 31.6782 -5.4737
v  97.6904 31.5508 -6.1985
v  99.4259 32.7094 -4.4631
v  99.6450 33.0896 -4.2440
v  98.8558 32.4072 -5.0332
v  98.8724 32.4180 -5.0166
v  99.6450 33.8217 -4.2440
v  99.6450 34.4005 -4.2440
v  99.5521 33.8217 -4.3369
v  91.9571 33.5986 -11.9318
v  93.1951 12.0547 -10.6939
v  92.0500 33.5986 -11.8390
v  99.6450 33.5986 -4.2440
v  97.5720 12.0547 -6.3170
v  97.7409 32.2268 -6.1481
v  99.5521 33.5986 -4.3369
v  91.9571 34.4005 -15.1705
v  99.6450 34.4005 -9.6022
v  99.6450 34.4005 -15.1705
v  99.6450 33.5986 -15.1705
v  99.6450 33.5986 -9.6022
v  99.6450 33.0896 -9.6022
v  99.6450 33.0896 -15.1705
v  91.9571 33.5986 -15.1705
v  91.9571 33.0896 -15.1705
v  99.4259 32.7094 -14.9220
v  92.1762 32.7094 -14.9220
v  98.8724 32.4180 -14.2941
v  92.7297 32.4180 -14.2941
v  99.4259 32.7094 -9.6022
v  98.8724 32.4180 -9.6022
v  93.1951 30.9659 -12.0000
v  94.7058 30.9659 -13.7165
v  94.7058 12.0547 -13.7165
v  93.1951 12.0547 -12.0000
v  96.8422 30.9659 -13.7165
v  96.8422 12.0547 -13.7165
v  98.3529 30.9659 -12.0000
v  98.3529 12.0547 -12.0000
v  98.3529 30.9659 -9.6022
v  98.3529 12.0547 -9.6022
v  93.0376 31.5508 -12.0742
v  94.6406 31.5508 -13.8954
v  94.7058 31.4234 -13.7165
v  93.1951 31.4234 -12.0000
v  96.9074 31.5508 -13.8954
v  96.8422 31.4234 -13.7165
v  98.5104 31.5508 -12.0742
v  98.3529 31.4234 -12.0000
v  98.5104 31.5508 -9.6022
v  98.3529 31.4234 -9.6022
v  92.9705 32.2268 -12.1057
v  94.6128 32.2268 -13.9717
v  94.6857 31.9330 -13.7716
v  93.1466 31.9330 -12.0229
v  96.9352 32.2268 -13.9717
v  96.8623 31.9330 -13.7717
v  98.5775 32.2268 -12.1057
v  98.4014 31.9330 -12.0229
v  98.5775 32.2268 -9.6022
v  98.4014 31.9330 -9.6022
v  92.9456 31.1946 -12.1175
v  94.6024 31.1946 -14.0000
v  96.9456 31.1946 -14.0000
v  98.6024 31.1946 -12.1175
v  93.1327 31.6782 -12.0294
v  94.6799 31.6782 -13.7874
v  96.8681 31.6782 -13.7874
v  98.4153 31.6782 -12.0294
v  99.5521 33.8217 -15.0650
v  99.5521 33.8217 -9.6022
v  99.5521 33.5986 -9.6022
v  99.5521 33.5986 -15.0650
v  92.0500 33.8217 -15.0650
v  92.0500 33.5986 -15.0650
v  91.9571 33.8217 -15.1705
v  99.6450 33.8217 -15.1705
v  98.6024 31.1946 -9.6022
v  98.4153 31.6782 -9.6022
v  99.6450 33.8217 -9.6022
v  98.3529 30.9659 -7.2043
v  98.3529 12.0547 -7.2043
v  98.3529 31.4234 -7.2043
v  98.5104 31.5508 -7.1302
v  98.4014 31.9330 -7.1815
v  98.5775 32.2268 -7.0986
v  98.6024 31.1946 -7.0869
v  98.4153 31.6782 -7.1749
# 178 vertices

vn 0.0000 1.0000 -0.0000
vn 0.0000 -0.2584 0.9660
vn 0.0000 0.0000 1.0000
vn -0.7071 0.0000 0.7071
vn -0.6761 -0.3073 0.6696
vn -0.7071 0.0000 -0.7071
vn -0.6761 -0.3073 -0.6696
vn -0.4376 -0.7728 -0.4596
vn -0.4376 -0.7728 0.4596
vn -0.6494 -0.3957 -0.6494
vn -0.3433 -0.8743 -0.3433
vn -0.1928 -0.9566 -0.2187
vn -0.1918 -0.9569 0.2180
vn 0.0000 -0.8629 0.5054
vn 0.0000 -0.7204 0.6935
vn -0.6607 0.0000 -0.7507
vn -1.0000 0.0000 -0.0000
vn -0.6607 0.0000 0.7507
vn -0.5028 -0.8298 -0.2421
vn -0.5102 -0.8306 -0.2231
vn -0.2152 -0.8062 -0.5511
vn -0.1983 -0.8055 -0.5584
vn -0.5028 -0.8298 0.2421
vn -0.5102 -0.8306 0.2231
vn -0.1983 -0.8055 0.5584
vn -0.2152 -0.8062 0.5511
vn 0.0000 -0.7774 0.6291
vn -0.8652 -0.3031 -0.3994
vn -0.5588 -0.8161 -0.1473
vn -0.1386 -0.7507 -0.6460
vn -0.3334 -0.2783 -0.9008
vn -0.8652 -0.3031 0.3994
vn -0.5588 -0.8162 0.1469
vn -0.3334 -0.2783 0.9008
vn -0.1390 -0.7815 0.6082
vn 0.0000 -0.2404 0.9707
vn 0.0000 -0.6945 0.7195
vn -0.3186 -0.8927 -0.3186
vn -0.4817 -0.7320 -0.4817
vn -0.2150 -0.7682 -0.6030
vn -0.2322 -0.7690 -0.5956
vn -0.3846 -0.8391 -0.3846
vn -0.5463 -0.7955 -0.2620
vn -0.5541 -0.7963 -0.2425
vn -0.5541 -0.7963 0.2425
vn -0.5463 -0.7955 0.2620
vn -0.2322 -0.7690 0.5956
vn -0.2150 -0.7682 0.6030
vn -0.2150 0.7682 -0.6030
vn -0.3846 0.8391 -0.3846
vn -0.2322 0.7690 -0.5956
vn -0.5463 0.7955 -0.2620
vn -0.5541 0.7964 -0.2425
vn -0.5463 0.7955 0.2620
vn -0.5541 0.7964 0.2425
vn -0.2322 0.7690 0.5956
vn -0.2150 0.7682 0.6030
vn -0.6814 -0.2670 -0.6814
vn -0.6549 0.3772 -0.6549
vn -0.3195 0.3911 -0.8631
vn -0.8227 0.4229 -0.3798
vn -0.8227 0.4229 0.3798
vn -0.3195 0.3911 0.8631
vn -0.4864 0.7259 -0.4864
vn -0.2794 0.6353 -0.7199
vn -0.6803 0.6692 -0.2990
vn -0.6803 0.6692 0.2990
vn -0.2794 0.6353 0.7199
vn 0.0000 0.0000 -1.0000
vn 0.0000 -1.0000 -0.0000
vn 0.0000 -0.7371 0.6757
vn 0.0000 0.7371 0.6758
vn 0.0000 0.3408 0.9401
vn 0.0000 0.5980 0.8015
vn 0.1983 -0.8055 0.5584
vn 0.2152 -0.8062 0.5511
vn 0.3334 -0.2783 0.9008
vn 0.1390 -0.7815 0.6082
vn 0.2150 -0.7682 0.6030
vn 0.4616 -0.7575 0.4616
vn 0.2322 -0.7690 0.5956
vn 0.4616 0.7575 0.4616
vn 0.2150 0.7682 0.6030
vn 0.2322 0.7690 0.5956
vn 0.6595 0.3605 0.6595
vn 0.6837 -0.2552 0.6837
vn 0.3195 0.3911 0.8631
vn 0.5538 0.6217 0.5538
vn 0.2794 0.6353 0.7199
vn 0.4624 -0.7566 0.4624
vn 0.6756 -0.2953 0.6756
vn 0.2486 -0.9361 0.2487
vn 0.2598 -0.9300 0.2598
vn -0.3512 -0.8680 -0.3512
vn 0.7071 0.0000 0.7071
vn 0.6607 0.0000 0.7507
vn 0.4281 -0.7959 0.4281
vn 0.3657 -0.8558 0.3657
vn 0.7071 0.0000 -0.7071
vn 1.0000 0.0000 -0.0000
vn 0.9660 -0.2584 -0.0000
vn 0.6696 -0.3073 -0.6761
vn -0.6696 -0.3073 -0.6761
vn 0.4596 -0.7728 -0.4376
vn -0.4596 -0.7728 -0.4376
vn 0.2180 -0.9569 -0.1918
vn -0.2187 -0.9566 -0.1928
vn 0.6935 -0.7204 -0.0000
vn 0.5054 -0.8629 -0.0000
vn -0.7507 0.0000 -0.6607
vn 0.7507 0.0000 -0.6607
vn -0.5511 -0.8062 -0.2152
vn -0.2231 -0.8306 -0.5103
vn -0.2421 -0.8298 -0.5028
vn -0.5584 -0.8055 -0.1983
vn 0.2231 -0.8306 -0.5103
vn 0.2421 -0.8298 -0.5028
vn 0.5511 -0.8062 -0.2152
vn 0.5585 -0.8055 -0.1983
vn 0.6291 -0.7774 -0.0000
vn -0.6460 -0.7507 -0.1386
vn -0.1473 -0.8161 -0.5588
vn -0.3994 -0.3031 -0.8652
vn -0.9008 -0.2783 -0.3334
vn 0.1469 -0.8162 -0.5588
vn 0.3994 -0.3031 -0.8652
vn 0.6082 -0.7815 -0.1390
vn 0.9008 -0.2783 -0.3334
vn 0.7195 -0.6945 -0.0000
vn 0.9707 -0.2404 -0.0000
vn -0.6030 -0.7682 -0.2150
vn -0.5956 -0.7690 -0.2322
vn -0.2620 -0.7955 -0.5463
vn -0.2425 -0.7963 -0.5541
vn 0.2425 -0.7963 -0.5541
vn 0.2621 -0.7955 -0.5463
vn 0.5956 -0.7690 -0.2322
vn 0.6030 -0.7682 -0.2150
vn -0.6030 0.7682 -0.2150
vn -0.5956 0.7690 -0.2322
vn -0.2620 0.7955 -0.5463
vn -0.2425 0.7963 -0.5541
vn 0.2620 0.7955 -0.5463
vn 0.2425 0.7963 -0.5541
vn 0.5956 0.7690 -0.2322
vn 0.6030 0.7682 -0.2150
vn -0.8631 0.3911 -0.3195
vn -0.3798 0.4229 -0.8227
vn 0.3798 0.4229 -0.8227
vn 0.8631 0.3911 -0.3195
vn -0.7199 0.6353 -0.2794
vn -0.2990 0.6692 -0.6803
vn 0.2990 0.6692 -0.6803
vn 0.7199 0.6353 -0.2794
vn 0.6757 -0.7371 -0.0000
vn 0.6758 0.7371 -0.0000
vn 0.9401 0.3408 -0.0000
vn 0.8015 0.5980 -0.0000
vn 0.5585 -0.8055 0.1983
vn 0.5511 -0.8062 0.2152
vn 0.9008 -0.2783 0.3334
vn 0.6082 -0.7815 0.1390
vn 0.6030 -0.7682 0.2150
vn 0.5956 -0.7690 0.2322
vn 0.6030 0.7682 0.2150
vn 0.5956 0.7690 0.2322
vn 0.8631 0.3911 0.3195
vn 0.7199 0.6353 0.2794
vn 0.7507 0.0000 0.6607
# 169 vertex normals

vt 0.2388 0.7828 0.0000
vt 0.2969 0.8339 0.0000
vt 0.2969 0.9050 0.0000
vt 0.1052 0.7828 0.0000
vt 0.1052 0.9050 0.0000
vt 0.0579 0.1688 0.0000
vt 0.0419 0.1688 0.0000
vt 0.0419 0.0149 0.0000
vt 0.0579 0.0149 0.0000
vt 0.0579 0.9740 0.0000
vt 0.0419 0.9740 0.0000
vt 0.0419 0.7325 0.0000
vt 0.0577 0.7325 0.0000
vt 0.0698 0.7394 0.0000
vt 0.0698 0.9671 0.0000
vt 0.0577 0.6441 0.0000
vt 0.0694 0.6381 0.0000
vt 0.0694 0.7257 0.0000
vt 0.0871 0.7568 0.0000
vt 0.0871 0.9497 0.0000
vt 0.0872 0.0391 0.0000
vt 0.0872 0.1688 0.0000
vt 0.0698 0.1688 0.0000
vt 0.0698 0.0217 0.0000
vt 0.8929 0.0091 0.0000
vt 0.8929 0.9005 0.0000
vt 0.9967 0.9005 0.0000
vt 0.9967 0.0091 0.0000
vt 0.8048 0.0091 0.0000
vt 0.8048 0.9005 0.0000
vt 0.6490 0.0091 0.0000
vt 0.6490 0.9005 0.0000
vt 0.7184 0.9005 0.0000
vt 0.7184 0.0091 0.0000
vt 0.4750 0.0091 0.0000
vt 0.4750 0.9005 0.0000
vt 0.4571 0.9414 0.4935
vt 0.4571 0.9493 0.5236
vt 0.3500 0.9493 0.5236
vt 0.3500 0.9414 0.4935
vt 0.5643 0.9414 0.4935
vt 0.5643 0.9493 0.5236
vt 0.6715 0.9414 0.4935
vt 0.6715 0.9493 0.5236
vt 0.7774 0.9414 0.4935
vt 0.7744 0.9493 0.5236
vt 0.4571 0.9727 0.5027
vt 0.4571 0.9908 0.5364
vt 0.3500 0.9908 0.5364
vt 0.3500 0.9727 0.5027
vt 0.5643 0.9727 0.5027
vt 0.5643 0.9908 0.5364
vt 0.6715 0.9727 0.5027
vt 0.6715 0.9908 0.5364
vt 0.7764 0.9727 0.5027
vt 0.7732 0.9908 0.5364
vt 0.0866 0.6230 0.0000
vt 0.0941 0.6164 0.0000
vt 0.0941 0.6488 0.0000
vt 0.0866 0.7086 0.0000
vt 0.1480 0.0480 0.0000
vt 0.0964 0.0996 0.0000
vt 0.0961 0.8159 0.0000
vt 0.0961 0.8889 0.0000
vt 0.1450 0.6998 0.0000
vt 0.3500 0.9133 0.4935
vt 0.3500 0.9274 0.5412
vt 0.3027 0.9274 0.5412
vt 0.2923 0.9133 0.4935
vt 0.4571 0.9133 0.4935
vt 0.4571 0.9274 0.5412
vt 0.5643 0.9274 0.5412
vt 0.5643 0.9133 0.4935
vt 0.6715 0.9274 0.5412
vt 0.6715 0.9133 0.4935
vt 0.2923 0.9414 0.4935
vt 0.2945 0.9727 0.5027
vt 0.2951 0.9571 0.5054
vt 0.3500 0.9571 0.5054
vt 0.4571 0.9571 0.5054
vt 0.5643 0.9571 0.5054
vt 0.6715 0.9571 0.5054
vt 0.2991 0.9493 0.5236
vt 0.0389 0.1707 0.0000
vt 0.0318 0.1707 0.0000
vt 0.0318 0.0178 0.0000
vt 0.0389 0.0178 0.0000
vt 0.0389 0.9710 0.0000
vt 0.0318 0.9710 0.0000
vt 0.0318 0.7325 0.0000
vt 0.0389 0.7325 0.0000
vt 0.0059 0.2501 0.0000
vt 0.0059 0.1595 0.0000
vt 0.0243 0.1595 0.0000
vt 0.0243 0.2501 0.0000
vt 0.0059 0.4945 0.0000
vt 0.0243 0.4945 0.0000
vt 0.0272 0.2530 0.0000
vt 0.0272 0.4915 0.0000
vt 0.0272 0.1569 0.0000
vt 0.0272 0.2471 0.0000
vt 0.0964 0.1688 0.0000
vt 0.7728 0.9274 0.5412
vt 0.7774 0.9133 0.4935
vt 0.7761 0.9571 0.5054
vt 0.0243 0.6503 0.0000
vt 0.0059 0.6503 0.0000
vt 0.0272 0.4974 0.0000
vt 0.0272 0.6503 0.0000
vt 0.3698 0.9005 0.0000
vt 0.3698 0.0091 0.0000
vt 0.6161 0.9133 0.4935
vt 0.6170 0.9274 0.5412
vt 0.6161 0.9414 0.4935
vt 0.6163 0.9571 0.5054
vt 0.6163 0.9727 0.5027
vt 0.6167 0.9493 0.5236
vt 0.0698 0.0267 0.0000
vt 0.0579 0.0207 0.0000
vt 0.0877 0.0425 0.0000
vt 0.0872 0.0420 0.0000
vt 0.0243 0.5004 0.0000
vt 0.0059 0.5004 0.0000
vt 0.0272 0.5030 0.0000
vt 0.0419 0.6441 0.0000
vt 0.3177 0.0091 0.0000
vt 0.3177 0.9005 0.0000
vt 0.3563 0.9005 0.0000
vt 0.3563 0.0091 0.0000
vt 0.3017 0.9908 0.5364
vt 0.0318 0.6423 0.0000
vt 0.0389 0.6423 0.0000
vt 0.1052 0.9004 0.0000
vt 0.0419 0.0207 0.0000
vt 0.3161 0.0091 0.0000
vt 0.3161 0.9005 0.0000
vt 0.6169 0.9908 0.5364
vt 0.1227 0.0733 0.0000
vt 0.0389 0.0233 0.0000
vt 0.0318 0.0233 0.0000
vt 0.3800 0.9005 0.0000
vt 0.4800 0.9005 0.0000
vt 0.4800 0.0091 0.0000
vt 0.3800 0.0091 0.0000
vt 0.5472 0.9005 0.0000
vt 0.5472 0.0091 0.0000
vt 0.6467 0.9005 0.0000
vt 0.6467 0.0091 0.0000
vt 0.7432 0.9005 0.0000
vt 0.7432 0.0091 0.0000
vt 0.8931 0.9005 0.0000
vt 0.8931 0.0091 0.0000
vt 0.3390 0.9005 0.0000
vt 0.3390 0.0091 0.0000
vt 0.9972 0.0091 0.0000
vt 0.9972 0.9005 0.0000
# 156 texture coords

g sponza_121
f 1/1/1 2/2/1 3/3/1 
f 1/1/1 3/3/1 4/4/1 
f 5/5/1 4/4/1 3/3/1 
f 6/6/2 7/7/3 8/8/4 
f 6/6/2 8/8/4 9/9/5 
f 9/10/5 8/11/4 10/12/6 
f 9/10/5 10/12/6 11/13/7 
f 11/13/7 12/14/8 13/15/9 
f 11/13/7 13/15/9 9/10/5 
f 14/16/10 15/17/11 12/18/8 
f 14/16/10 12/18/8 11/13/7 
f 16/19/12 17/20/13 13/15/9 
f 16/19/12 13/15/9 12/14/8 
f 17/21/13 18/22/14 19/23/15 
f 17/21/13 19/23/15 13/24/9 
f 20/25/16 21/26/16 22/27/16 
f 20/25/16 22/27/16 23/28/16 
f 24/29/17 25/30/17 21/26/17 
f 24/29/17 21/26/17 20/25/17 
f 26/31/18 27/32/18 25/33/18 
f 26/31/18 25/33/18 24/34/18 
f 28/35/3 29/36/3 27/32/3 
f 28/35/3 27/32/3 26/31/3 
f 30/37/19 31/38/20 32/39/21 
f 30/37/19 32/39/21 33/40/22 
f 34/41/23 35/42/24 31/38/20 
f 34/41/23 31/38/20 30/37/19 
f 34/41/23 36/43/25 37/44/26 
f 34/41/23 37/44/26 35/42/24 
f 36/43/25 38/45/27 39/46/27 
f 36/43/25 39/46/27 37/44/26 
f 40/47/28 41/48/29 42/49/30 
f 40/47/28 42/49/30 43/50/31 
f 44/51/32 45/52/33 41/48/29 
f 44/51/32 41/48/29 40/47/28 
f 44/51/32 46/53/34 47/54/35 
f 44/51/32 47/54/35 45/52/33 
f 46/53/34 48/55/36 49/56/37 
f 46/53/34 49/56/37 47/54/35 
f 50/57/38 51/58/39 42/59/30 
f 50/57/38 42/59/30 16/60/12 
f 17/21/13 45/61/33 47/62/35 
f 16/19/12 41/63/29 45/64/33 
f 16/19/12 45/64/33 17/20/13 
f 16/60/12 42/59/30 41/65/29 
f 22/66/40 52/67/41 53/68/42 
f 22/66/40 53/68/42 54/69/42 
f 21/70/43 55/71/44 52/67/41 
f 21/70/43 52/67/41 22/66/40 
f 56/72/45 55/71/44 21/70/43 
f 56/72/45 21/70/43 25/73/46 
f 57/74/47 56/72/45 25/73/46 
f 57/74/47 25/73/46 27/75/48 
f 33/40/49 58/76/50 53/68/50 
f 33/40/49 53/68/50 52/67/51 
f 30/37/52 33/40/49 52/67/51 
f 30/37/52 52/67/51 55/71/53 
f 34/41/54 30/37/52 55/71/53 
f 34/41/54 55/71/53 56/72/55 
f 57/74/56 36/43/57 34/41/54 
f 57/74/56 34/41/54 56/72/55 
f 43/50/31 59/77/58 60/78/59 
f 43/50/31 60/78/59 61/79/60 
f 40/47/28 43/50/31 61/79/60 
f 40/47/28 61/79/60 62/80/61 
f 44/51/32 40/47/28 62/80/61 
f 44/51/32 62/80/61 63/81/62 
f 46/53/34 44/51/32 63/81/62 
f 46/53/34 63/81/62 64/82/63 
f 61/79/60 60/78/59 65/83/64 
f 61/79/60 65/83/64 32/39/65 
f 62/80/61 61/79/60 32/39/65 
f 62/80/61 32/39/65 31/38/66 
f 63/81/62 62/80/61 31/38/66 
f 63/81/62 31/38/66 35/42/67 
f 37/44/68 64/82/63 63/81/62 
f 37/44/68 63/81/62 35/42/67 
f 66/84/3 67/85/3 68/86/3 
f 66/84/3 68/86/3 69/87/3 
f 69/88/17 68/89/17 70/90/17 
f 69/88/17 70/90/17 71/91/17 
f 3/92/69 2/93/69 72/94/69 
f 3/92/69 72/94/69 73/95/69 
f 5/96/17 3/92/17 73/95/17 
f 5/96/17 73/95/17 74/97/17 
f 7/7/1 66/84/1 69/87/1 
f 7/7/1 69/87/1 8/8/1 
f 8/11/1 69/88/1 71/91/1 
f 8/11/1 71/91/1 10/12/1 
f 73/95/70 70/98/70 68/99/70 
f 73/95/70 68/99/70 74/97/70 
f 72/94/70 75/100/70 70/101/70 
f 72/94/70 70/101/70 73/95/70 
f 6/6/2 9/9/5 13/24/9 
f 6/6/2 13/24/9 19/23/15 
f 18/22/14 17/21/13 47/62/35 
f 18/22/14 47/62/35 49/102/37 
f 76/103/71 57/74/47 27/75/48 
f 76/103/71 27/75/48 29/104/71 
f 36/43/57 57/74/56 76/103/72 
f 36/43/57 76/103/72 38/45/72 
f 46/53/34 64/82/63 77/105/73 
f 46/53/34 77/105/73 48/55/36 
f 64/82/63 37/44/68 39/46/74 
f 64/82/63 39/46/74 77/105/73 
f 5/96/3 74/97/3 78/106/3 
f 5/96/3 78/106/3 4/107/3 
f 78/106/70 74/97/70 68/108/70 
f 78/106/70 68/108/70 67/109/70 
f 79/110/3 29/36/3 28/35/3 
f 79/110/3 28/35/3 80/111/3 
f 81/43/75 82/44/76 39/46/27 
f 81/43/75 39/46/27 38/45/27 
f 83/53/77 84/54/78 49/56/37 
f 83/53/77 49/56/37 48/55/36 
f 79/75/79 85/112/80 86/113/80 
f 79/75/79 86/113/80 87/74/81 
f 86/113/82 88/114/82 81/43/83 
f 86/113/82 81/43/83 87/74/84 
f 89/115/85 90/116/86 83/53/77 
f 89/115/85 83/53/77 91/82/87 
f 92/117/88 89/115/85 91/82/87 
f 92/117/88 91/82/87 82/44/89 
f 6/6/2 19/23/15 93/118/90 
f 6/6/2 93/118/90 94/119/91 
f 84/62/78 95/120/92 96/121/93 
f 84/62/78 96/121/93 49/102/37 
f 18/22/14 49/102/37 96/121/93 
f 76/103/71 29/104/71 79/75/79 
f 76/103/71 79/75/79 87/74/81 
f 76/103/72 87/74/84 81/43/83 
f 76/103/72 81/43/83 38/45/72 
f 77/105/73 91/82/87 83/53/77 
f 77/105/73 83/53/77 48/55/36 
f 39/46/74 82/44/89 91/82/87 
f 39/46/74 91/82/87 77/105/73 
f 78/106/3 97/122/3 98/123/3 
f 78/106/3 98/123/3 4/107/3 
f 78/106/70 67/109/70 99/124/70 
f 78/106/70 99/124/70 97/122/70 
f 11/13/7 10/12/6 100/125/6 
f 11/13/7 100/125/6 14/16/10 
f 16/60/12 12/18/8 15/17/11 
f 16/60/12 15/17/11 50/57/38 
f 23/126/69 22/127/69 54/128/69 
f 23/126/69 54/128/69 101/129/69 
f 33/40/22 32/39/21 65/83/94 
f 33/40/22 65/83/94 58/76/94 
f 43/50/31 42/49/30 51/130/39 
f 43/50/31 51/130/39 59/77/58 
f 71/91/69 70/90/69 75/131/69 
f 71/91/69 75/131/69 102/132/69 
f 100/125/1 10/12/1 71/91/1 
f 100/125/1 71/91/1 102/132/1 
f 1/1/1 4/4/1 98/133/1 
f 7/7/3 6/6/2 94/119/91 
f 7/7/3 94/119/91 103/134/95 
f 19/23/15 18/22/14 96/121/93 
f 19/23/15 96/121/93 93/118/90 
f 79/110/96 80/111/96 104/135/95 
f 79/110/96 104/135/95 85/136/95 
f 92/117/97 82/44/76 81/43/75 
f 92/117/97 81/43/75 88/114/97 
f 105/137/98 84/54/78 83/53/77 
f 105/137/98 83/53/77 90/116/86 
f 95/120/92 84/62/78 105/138/98 
f 67/85/3 66/84/3 106/139/3 
f 67/85/3 106/139/3 99/140/3 
f 106/139/1 66/84/1 7/7/1 
f 106/139/1 7/7/1 103/134/1 
f 107/3/1 2/2/1 1/1/1 
f 107/3/1 1/1/1 108/4/1 
f 109/5/1 107/3/1 108/4/1 
f 110/8/99 111/7/100 112/6/101 
f 110/8/99 112/6/101 113/9/102 
f 114/12/6 110/11/99 113/10/102 
f 114/12/6 113/10/102 115/13/103 
f 116/15/104 117/14/105 115/13/103 
f 116/15/104 115/13/103 113/10/102 
f 117/18/105 15/17/11 14/16/10 
f 117/18/105 14/16/10 115/13/103 
f 116/15/104 118/20/106 119/19/107 
f 116/15/104 119/19/107 117/14/105 
f 120/23/108 121/22/109 118/21/106 
f 120/23/108 118/21/106 116/24/104 
f 122/141/110 123/142/110 124/143/110 
f 122/141/110 124/143/110 125/144/110 
f 123/142/69 126/145/69 127/146/69 
f 123/142/69 127/146/69 124/143/69 
f 126/145/111 128/147/111 129/148/111 
f 126/145/111 129/148/111 127/146/111 
f 128/147/100 130/149/100 131/150/100 
f 128/147/100 131/150/100 129/148/100 
f 132/39/112 133/38/113 134/37/114 
f 132/39/112 134/37/114 135/40/115 
f 133/38/113 136/42/116 137/41/117 
f 133/38/113 137/41/117 134/37/114 
f 137/41/117 136/42/116 138/44/118 
f 137/41/117 138/44/118 139/43/119 
f 139/43/119 138/44/118 140/46/120 
f 139/43/119 140/46/120 141/45/120 
f 142/49/121 143/48/122 144/47/123 
f 142/49/121 144/47/123 145/50/124 
f 143/48/122 146/52/125 147/51/126 
f 143/48/122 147/51/126 144/47/123 
f 147/51/126 146/52/125 148/54/127 
f 147/51/126 148/54/127 149/53/128 
f 149/53/128 148/54/127 150/56/129 
f 149/53/128 150/56/129 151/55/130 
f 142/59/121 51/58/39 50/57/38 
f 142/59/121 50/57/38 119/60/107 
f 118/21/106 148/62/127 146/61/125 
f 146/64/125 143/63/122 119/19/107 
f 146/64/125 119/19/107 118/20/106 
f 119/60/107 143/65/122 142/59/121 
f 122/66/131 54/69/42 53/68/42 
f 122/66/131 53/68/42 152/67/132 
f 123/70/133 122/66/131 152/67/132 
f 123/70/133 152/67/132 153/71/134 
f 123/70/133 153/71/134 154/72/135 
f 123/70/133 154/72/135 126/73/136 
f 126/73/136 154/72/135 155/74/137 
f 126/73/136 155/74/137 128/75/138 
f 53/68/50 58/76/50 135/40/139 
f 53/68/50 135/40/139 152/67/140 
f 152/67/140 135/40/139 134/37/141 
f 152/67/140 134/37/141 153/71/142 
f 153/71/142 134/37/141 137/41/143 
f 153/71/142 137/41/143 154/72/144 
f 155/74/145 154/72/144 137/41/143 
f 155/74/145 137/41/143 139/43/146 
f 60/78/59 59/77/58 145/50/124 
f 60/78/59 145/50/124 156/79/147 
f 156/79/147 145/50/124 144/47/123 
f 156/79/147 144/47/123 157/80/148 
f 157/80/148 144/47/123 147/51/126 
f 157/80/148 147/51/126 158/81/149 
f 158/81/149 147/51/126 149/53/128 
f 158/81/149 149/53/128 159/82/150 
f 65/83/64 60/78/59 156/79/147 
f 65/83/64 156/79/147 132/39/151 
f 132/39/151 156/79/147 157/80/148 
f 132/39/151 157/80/148 133/38/152 
f 133/38/152 157/80/148 158/81/149 
f 133/38/152 158/81/149 136/42/153 
f 138/44/154 136/42/153 158/81/149 
f 138/44/154 158/81/149 159/82/150 
f 160/86/100 161/85/100 162/84/100 
f 160/86/100 162/84/100 163/87/100 
f 164/90/69 160/89/69 163/88/69 
f 164/90/69 163/88/69 165/91/69 
f 72/94/17 2/93/17 107/92/17 
f 72/94/17 107/92/17 166/95/17 
f 166/95/69 107/92/69 109/96/69 
f 166/95/69 109/96/69 167/97/69 
f 163/87/1 162/84/1 111/7/1 
f 163/87/1 111/7/1 110/8/1 
f 165/91/1 163/88/1 110/11/1 
f 165/91/1 110/11/1 114/12/1 
f 160/99/70 164/98/70 166/95/70 
f 160/99/70 166/95/70 167/97/70 
f 164/101/70 75/100/70 72/94/70 
f 164/101/70 72/94/70 166/95/70 
f 112/6/101 120/23/108 116/24/104 
f 112/6/101 116/24/104 113/9/102 
f 121/22/109 150/102/129 148/62/127 
f 121/22/109 148/62/127 118/21/106 
f 168/103/155 130/104/155 128/75/138 
f 168/103/155 128/75/138 155/74/137 
f 168/103/156 155/74/145 139/43/146 
f 168/103/156 139/43/146 141/45/156 
f 169/105/157 159/82/150 149/53/128 
f 169/105/157 149/53/128 151/55/130 
f 140/46/158 138/44/154 159/82/150 
f 140/46/158 159/82/150 169/105/157 
f 170/106/100 167/97/100 109/96/100 
f 170/106/100 109/96/100 108/107/100 
f 170/106/70 161/109/70 160/108/70 
f 170/106/70 160/108/70 167/97/70 
f 131/150/100 130/149/100 171/151/100 
f 131/150/100 171/151/100 172/152/100 
f 173/43/159 141/45/120 140/46/120 
f 173/43/159 140/46/120 174/44/160 
f 175/53/161 151/55/130 150/56/129 
f 175/53/161 150/56/129 176/54/162 
f 171/75/163 177/74/164 86/113/80 
f 171/75/163 86/113/80 85/112/80 
f 173/43/165 88/114/82 86/113/82 
f 173/43/165 86/113/82 177/74/166 
f 175/53/161 90/116/86 89/115/85 
f 175/53/161 89/115/85 178/82/167 
f 178/82/167 89/115/85 92/117/88 
f 178/82/167 92/117/88 174/44/168 
f 112/6/101 94/119/91 93/118/90 
f 112/6/101 93/118/90 120/23/108 
f 96/121/93 95/120/92 176/62/162 
f 96/121/93 176/62/162 150/102/129 
f 121/22/109 96/121/93 150/102/129 
f 168/103/155 177/74/164 171/75/163 
f 168/103/155 171/75/163 130/104/155 
f 173/43/165 177/74/166 168/103/156 
f 173/43/165 168/103/156 141/45/156 
f 175/53/161 178/82/167 169/105/157 
f 175/53/161 169/105/157 151/55/130 
f 178/82/167 174/44/168 140/46/158 
f 178/82/167 140/46/158 169/105/157 
f 98/123/100 97/122/100 170/106/100 
f 98/123/100 170/106/100 108/107/100 
f 170/106/70 97/122/70 99/124/70 
f 170/106/70 99/124/70 161/109/70 
f 100/125/6 114/12/6 115/13/103 
f 100/125/6 115/13/103 14/16/10 
f 15/17/11 117/18/105 119/60/107 
f 15/17/11 119/60/107 50/57/38 
f 54/153/17 122/141/17 125/144/17 
f 54/153/17 125/144/17 101/154/17 
f 65/83/94 132/39/112 135/40/115 
f 65/83/94 135/40/115 58/76/94 
f 51/130/39 142/49/121 145/50/124 
f 51/130/39 145/50/124 59/77/58 
f 75/131/17 164/90/17 165/91/17 
f 75/131/17 165/91/17 102/132/17 
f 100/125/1 102/132/1 165/91/1 
f 100/125/1 165/91/1 114/12/1 
f 1/1/1 98/133/1 108/4/1 
f 94/119/91 112/6/101 111/7/100 
f 94/119/91 111/7/100 103/134/95 
f 96/121/93 121/22/109 120/23/108 
f 96/121/93 120/23/108 93/118/90 
f 104/155/95 172/152/169 171/151/169 
f 104/155/95 171/151/169 85/156/95 
f 92/117/97 88/114/97 173/43/159 
f 92/117/97 173/43/159 174/44/160 
f 105/137/98 90/116/86 175/53/161 
f 105/137/98 175/53/161 176/54/162 
f 95/120/92 105/138/98 176/62/162 
f 106/139/100 162/84/100 161/85/100 
f 106/139/100 161/85/100 99/140/100 
f 106/139/1 103/134/1 111/7/1 
f 106/139/1 111/7/1 162/84/1 
# 340 faces

