# 3ds Max Wavefront OBJ Exporter v0.97b - (c)2007 guruware
# File Created: 21.02.2011 11:31:05

#
# object sponza_07
#

v  0.4783 61.5996 -11.7722
v  0.4783 61.5996 -4.5498
v  -38.6831 61.5996 -4.5497
v  -38.6831 61.5996 -11.7721
v  0.4783 62.8325 -4.5498
v  -38.6831 62.8325 -4.5497
v  0.4783 63.0811 -4.7983
v  0.4783 63.0811 -12.3489
v  -38.6831 63.0811 -12.3488
v  -38.6831 63.0811 -4.7983
v  0.4783 62.4249 -12.5974
v  -38.6831 62.4249 -12.5974
v  -77.7400 61.5996 -4.5498
v  -77.7400 61.5996 -11.7722
v  -77.7400 62.8325 -4.5498
v  -77.7400 63.0811 -12.3489
v  -77.7400 63.0811 -4.7983
v  -77.7400 62.4249 -12.5974
v  -38.6831 62.8325 -12.5974
v  0.4783 62.8325 -12.5974
v  -77.7400 62.8325 -12.5974
v  -89.6985 62.4249 -12.5974
v  -89.6985 62.8325 -12.5974
v  -89.9471 63.0811 -12.3489
v  -90.5238 61.5996 -11.7722
v  -97.7462 61.5996 -4.5497
v  -97.7462 62.8325 -4.5497
v  -97.4977 63.0811 -4.7983
v  -89.6985 62.4249 -24.5559
v  -89.6985 62.4249 -32.6329
v  -89.6985 62.8325 -32.6329
v  -89.6985 62.8325 -24.5559
v  -89.9471 63.0811 -32.6329
v  -89.9471 63.0811 -24.5559
v  -97.7461 61.5996 -24.5559
v  -90.5238 61.5996 -24.5559
v  -97.7461 62.8325 -24.5559
v  -97.4976 63.0811 -24.5559
v  -97.7461 61.5996 -32.6329
v  -90.5238 61.5996 -32.6329
v  -97.7461 62.8325 -32.6329
v  -97.4976 63.0811 -32.6329
v  -38.6831 61.5996 -60.7161
v  0.4783 61.5996 -60.7160
v  0.4783 61.5996 -53.4936
v  -38.6831 61.5996 -53.4937
v  -38.6831 62.8325 -60.7161
v  0.4783 62.8325 -60.7160
v  -38.6831 63.0811 -52.9170
v  0.4783 63.0811 -52.9169
v  0.4783 63.0811 -60.4675
v  -38.6831 63.0811 -60.4675
v  0.4783 62.4249 -52.6684
v  -38.6831 62.4249 -52.6684
v  -77.7400 61.5996 -53.4936
v  -77.7400 61.5996 -60.7160
v  -77.7400 62.8325 -60.7160
v  -77.7400 63.0811 -60.4675
v  -77.7400 63.0811 -52.9169
v  -77.7400 62.4249 -52.6684
v  0.4783 62.8325 -52.6684
v  -38.6831 62.8325 -52.6684
v  -77.7400 62.8325 -52.6684
v  -89.6985 62.8325 -52.6684
v  -89.6985 62.4249 -52.6684
v  -89.9471 63.0811 -52.9169
v  -90.5238 61.5996 -53.4936
v  -97.7462 61.5996 -60.7161
v  -97.7462 62.8325 -60.7161
v  -97.4976 63.0811 -60.4675
v  -89.6985 62.4249 -40.7099
v  -89.6985 62.8325 -40.7099
v  -89.9471 63.0811 -40.7099
v  -90.5238 61.5996 -40.7099
v  -97.7461 61.5996 -40.7099
v  -97.7461 62.8325 -40.7099
v  -97.4976 63.0811 -40.7099
v  39.6397 61.5996 -4.5497
v  39.6397 61.5996 -11.7721
v  39.6397 62.8325 -4.5497
v  39.6397 63.0811 -12.3488
v  39.6397 63.0811 -4.7983
v  39.6397 62.4249 -12.5974
v  78.6967 61.5996 -11.7722
v  78.6967 61.5996 -4.5498
v  78.6967 62.8325 -4.5498
v  78.6967 63.0811 -4.7983
v  78.6967 63.0811 -12.3489
v  78.6967 62.4249 -12.5974
v  39.6397 62.8325 -12.5974
v  78.6967 62.8325 -12.5974
v  90.8052 62.8325 -12.5975
v  90.8052 62.4249 -12.5975
v  91.0538 63.0811 -12.3489
v  91.6305 61.5996 -11.7722
v  98.8529 61.5996 -4.5497
v  98.8529 62.8325 -4.5497
v  98.6044 63.0811 -4.7983
v  90.8052 62.8325 -32.6329
v  90.8052 62.4249 -32.6329
v  90.8052 62.4249 -24.5559
v  90.8052 62.8325 -24.5559
v  91.0538 63.0811 -32.6329
v  91.0538 63.0811 -24.5559
v  91.6305 61.5996 -24.5559
v  98.8529 61.5996 -24.5559
v  98.8529 62.8325 -24.5559
v  98.6043 63.0811 -24.5559
v  98.8529 61.5996 -32.6329
v  91.6305 61.5996 -32.6329
v  98.8529 62.8325 -32.6329
v  98.6043 63.0811 -32.6329
v  39.6397 61.5996 -60.7161
v  39.6397 61.5996 -53.4937
v  39.6397 62.8325 -60.7161
v  39.6397 63.0811 -52.9170
v  39.6397 63.0811 -60.4675
v  39.6397 62.4249 -52.6684
v  78.6967 61.5996 -60.7160
v  78.6967 61.5996 -53.4936
v  78.6967 62.8325 -60.7160
v  78.6967 63.0811 -52.9169
v  78.6967 63.0811 -60.4675
v  78.6967 62.4249 -52.6684
v  39.6397 62.8325 -52.6684
v  78.6967 62.8325 -52.6684
v  90.8052 62.4249 -52.6684
v  90.8052 62.8325 -52.6684
v  91.0538 63.0811 -52.9169
v  91.6305 61.5996 -53.4936
v  98.8529 61.5996 -60.7161
v  98.8529 62.8325 -60.7161
v  98.6044 63.0811 -60.4675
v  90.8052 62.4249 -40.7099
v  90.8052 62.8325 -40.7099
v  91.0538 63.0811 -40.7099
v  98.8528 61.5996 -40.7099
v  91.6305 61.5996 -40.7099
v  98.8528 62.8325 -40.7099
v  98.6043 63.0811 -40.7099
# 140 vertices

vn 0.0000 -1.0000 -0.0000
vn 0.0000 -0.0000 1.0000
vn 0.0000 0.0000 1.0000
vn 0.0000 1.0000 -0.0000
vn 0.0000 -0.7071 -0.7071
vn 0.0000 0.7071 0.7071
vn 0.0000 0.0000 -1.0000
vn 0.0000 0.7071 -0.7071
vn 1.0000 0.0000 -0.0000
vn 0.7071 0.7071 -0.0000
vn -1.0000 -0.0000 -0.0000
vn -1.0000 0.0000 -0.0000
vn 0.7071 -0.7071 -0.0000
vn -0.7071 0.7071 -0.0000
vn 0.0000 -0.7071 0.7071
vn 0.0000 -0.0000 -1.0000
vn 1.0000 0.0000 0.0000
vn 0.7071 0.7071 0.0000
vn -1.0000 0.0000 0.0000
vn 0.7071 -0.7071 0.0000
vn -0.7071 0.7072 0.0000
vn -0.0000 0.0000 1.0000
vn -0.0000 -0.7071 -0.7071
vn -0.0000 0.0001 -1.0000
vn -0.0000 0.7071 -0.7071
vn -0.0000 0.0000 -1.0000
vn 0.0000 0.7072 -0.7071
vn -0.0000 -0.0000 1.0000
vn -0.0000 0.7072 0.7071
vn 1.0000 -0.0000 -0.0000
vn -0.7071 -0.7071 -0.0000
vn -0.0000 -0.7071 0.7071
vn -0.0000 0.7071 0.7071
vn -0.0000 -0.0000 -1.0000
vn -0.7071 0.7071 0.0000
vn -0.7071 -0.7071 0.0000
vn 0.7071 0.7072 0.0000
# 37 vertex normals

vt 0.9897 0.5705 0.0000
vt 0.9897 0.7513 0.0000
vt 0.0111 0.7513 0.0000
vt 0.0111 0.5705 0.0000
vt 0.9897 0.7821 0.0000
vt 0.0111 0.7821 0.0000
vt 0.9897 0.3444 0.0000
vt 0.9897 0.5334 0.0000
vt 0.0111 0.5334 0.0000
vt 0.0111 0.3444 0.0000
vt 0.9897 0.5498 0.0000
vt 0.0111 0.5498 0.0000
vt 0.9897 0.3382 0.0000
vt 0.0111 0.3382 0.0000
vt 0.9887 0.7513 0.0000
vt 0.9887 0.5705 0.0000
vt 0.9887 0.7821 0.0000
vt 0.9887 0.5334 0.0000
vt 0.9887 0.3444 0.0000
vt 0.9887 0.5498 0.0000
vt 0.9887 0.3382 0.0000
vt 0.0111 0.5396 0.0000
vt 0.9897 0.5396 0.0000
vt 0.9887 0.5396 0.0000
vt 0.6893 0.5498 0.0000
vt 0.6893 0.5396 0.0000
vt 0.6831 0.5334 0.0000
vt 0.6687 0.5705 0.0000
vt 0.4879 0.7513 0.0000
vt 0.4879 0.7821 0.0000
vt 0.4941 0.3444 0.0000
vt 0.4879 0.3382 0.0000
vt 0.7865 0.5498 0.0000
vt 0.7865 0.5396 0.0000
vt 0.7865 0.5334 0.0000
vt 0.7865 0.7513 0.0000
vt 0.7865 0.5705 0.0000
vt 0.7865 0.7821 0.0000
vt 0.7865 0.3444 0.0000
vt 0.7865 0.3382 0.0000
# 40 texture coords

g sponza_07
f 1/1/1 2/2/1 3/3/1 
f 1/1/1 3/3/1 4/4/1 
f 2/2/2 5/5/2 6/6/3 
f 2/2/2 6/6/3 3/3/3 
f 7/7/4 8/8/4 9/9/4 
f 7/7/4 9/9/4 10/10/4 
f 11/11/5 1/1/5 4/4/5 
f 11/11/5 4/4/5 12/12/5 
f 5/13/6 7/7/6 10/10/6 
f 5/13/6 10/10/6 6/14/6 
f 3/3/1 13/15/1 14/16/1 
f 3/3/1 14/16/1 4/4/1 
f 6/6/3 15/17/3 13/15/3 
f 6/6/3 13/15/3 3/3/3 
f 9/9/4 16/18/4 17/19/4 
f 9/9/4 17/19/4 10/10/4 
f 4/4/5 14/16/5 18/20/5 
f 4/4/5 18/20/5 12/12/5 
f 10/10/6 17/19/6 15/21/6 
f 10/10/6 15/21/6 6/14/6 
f 12/12/7 19/22/7 20/23/7 
f 12/12/7 20/23/7 11/11/7 
f 19/22/8 9/9/8 8/8/8 
f 19/22/8 8/8/8 20/23/8 
f 19/22/7 12/12/7 18/20/7 
f 19/22/7 18/20/7 21/24/7 
f 9/9/8 19/22/8 21/24/8 
f 9/9/8 21/24/8 16/18/8 
f 18/20/7 22/25/7 23/26/7 
f 18/20/7 23/26/7 21/24/7 
f 16/18/8 21/24/8 23/26/8 
f 16/18/8 23/26/8 24/27/8 
f 25/28/1 14/16/1 13/15/1 
f 25/28/1 13/15/1 26/29/1 
f 13/15/3 15/17/3 27/30/2 
f 13/15/3 27/30/2 26/29/2 
f 17/19/4 16/18/4 24/27/4 
f 17/19/4 24/27/4 28/31/4 
f 22/25/5 18/20/5 14/16/5 
f 22/25/5 14/16/5 25/28/5 
f 15/21/6 17/19/6 28/31/6 
f 15/21/6 28/31/6 27/32/6 
f 29/20/9 30/33/9 31/34/9 
f 29/20/9 31/34/9 32/24/9 
f 32/24/10 31/34/10 33/35/10 
f 32/24/10 33/35/10 34/18/10 
f 23/26/9 22/25/9 29/20/9 
f 23/26/9 29/20/9 32/24/9 
f 34/18/10 24/27/10 23/26/10 
f 34/18/10 23/26/10 32/24/10 
f 25/28/1 26/29/1 35/15/1 
f 25/28/1 35/15/1 36/16/1 
f 27/30/11 37/17/12 35/15/12 
f 27/30/11 35/15/12 26/29/11 
f 24/27/4 34/18/4 38/19/4 
f 24/27/4 38/19/4 28/31/4 
f 22/25/13 25/28/13 36/16/13 
f 22/25/13 36/16/13 29/20/13 
f 28/31/14 38/19/14 37/21/14 
f 28/31/14 37/21/14 27/32/14 
f 36/16/1 35/15/1 39/36/1 
f 36/16/1 39/36/1 40/37/1 
f 35/15/12 37/17/12 41/38/12 
f 35/15/12 41/38/12 39/36/12 
f 38/19/4 34/18/4 33/35/4 
f 38/19/4 33/35/4 42/39/4 
f 29/20/13 36/16/13 40/37/13 
f 29/20/13 40/37/13 30/33/13 
f 37/21/14 38/19/14 42/39/14 
f 37/21/14 42/39/14 41/40/14 
f 43/3/1 44/2/1 45/1/1 
f 43/3/1 45/1/1 46/4/1 
f 47/6/7 48/5/7 44/2/7 
f 47/6/7 44/2/7 43/3/7 
f 49/9/4 50/8/4 51/7/4 
f 49/9/4 51/7/4 52/10/4 
f 46/4/15 45/1/15 53/11/15 
f 46/4/15 53/11/15 54/12/15 
f 52/10/8 51/7/8 48/13/8 
f 52/10/8 48/13/8 47/14/8 
f 55/16/1 56/15/1 43/3/1 
f 55/16/1 43/3/1 46/4/1 
f 56/15/7 57/17/7 47/6/7 
f 56/15/7 47/6/7 43/3/7 
f 58/19/4 59/18/4 49/9/4 
f 58/19/4 49/9/4 52/10/4 
f 60/20/15 55/16/15 46/4/15 
f 60/20/15 46/4/15 54/12/15 
f 57/21/8 58/19/8 52/10/8 
f 57/21/8 52/10/8 47/14/8 
f 61/23/3 62/22/3 54/12/3 
f 61/23/3 54/12/3 53/11/3 
f 50/8/6 49/9/6 62/22/6 
f 50/8/6 62/22/6 61/23/6 
f 60/20/3 54/12/3 62/22/3 
f 60/20/3 62/22/3 63/24/3 
f 63/24/6 62/22/6 49/9/6 
f 63/24/6 49/9/6 59/18/6 
f 64/26/3 65/25/3 60/20/3 
f 64/26/3 60/20/3 63/24/3 
f 59/18/6 66/27/6 64/26/6 
f 59/18/6 64/26/6 63/24/6 
f 67/28/1 68/29/1 56/15/1 
f 67/28/1 56/15/1 55/16/1 
f 69/30/16 57/17/7 56/15/7 
f 69/30/16 56/15/7 68/29/16 
f 66/27/4 59/18/4 58/19/4 
f 66/27/4 58/19/4 70/31/4 
f 65/25/15 67/28/15 55/16/15 
f 65/25/15 55/16/15 60/20/15 
f 70/31/8 58/19/8 57/21/8 
f 70/31/8 57/21/8 69/32/8 
f 31/34/9 30/33/9 71/20/17 
f 31/34/9 71/20/17 72/24/17 
f 33/35/10 31/34/10 72/24/18 
f 33/35/10 72/24/18 73/18/18 
f 71/20/17 65/25/17 64/26/17 
f 71/20/17 64/26/17 72/24/17 
f 73/18/18 72/24/18 64/26/10 
f 73/18/18 64/26/10 66/27/10 
f 67/28/1 74/16/1 75/15/1 
f 67/28/1 75/15/1 68/29/1 
f 75/15/19 76/17/19 69/30/19 
f 75/15/19 69/30/19 68/29/19 
f 77/19/4 73/18/4 66/27/4 
f 77/19/4 66/27/4 70/31/4 
f 65/25/13 71/20/20 74/16/20 
f 65/25/13 74/16/20 67/28/13 
f 76/21/14 77/19/14 70/31/21 
f 76/21/14 70/31/21 69/32/21 
f 39/36/1 75/15/1 74/16/1 
f 39/36/1 74/16/1 40/37/1 
f 41/38/12 76/17/19 75/15/19 
f 41/38/12 75/15/19 39/36/12 
f 33/35/4 73/18/4 77/19/4 
f 33/35/4 77/19/4 42/39/4 
f 40/37/13 74/16/20 71/20/20 
f 40/37/13 71/20/20 30/33/13 
f 42/39/14 77/19/14 76/21/14 
f 42/39/14 76/21/14 41/40/14 
f 78/3/1 2/2/1 1/1/1 
f 78/3/1 1/1/1 79/4/1 
f 80/6/3 5/5/2 2/2/2 
f 80/6/3 2/2/2 78/3/3 
f 81/9/4 8/8/4 7/7/4 
f 81/9/4 7/7/4 82/10/4 
f 79/4/5 1/1/5 11/11/5 
f 79/4/5 11/11/5 83/12/5 
f 82/10/6 7/7/6 5/13/6 
f 82/10/6 5/13/6 80/14/6 
f 84/16/1 85/15/1 78/3/1 
f 84/16/1 78/3/1 79/4/1 
f 85/15/22 86/17/22 80/6/3 
f 85/15/22 80/6/3 78/3/3 
f 87/19/4 88/18/4 81/9/4 
f 87/19/4 81/9/4 82/10/4 
f 89/20/23 84/16/23 79/4/5 
f 89/20/23 79/4/5 83/12/5 
f 86/21/6 87/19/6 82/10/6 
f 86/21/6 82/10/6 80/14/6 
f 20/23/7 90/22/7 83/12/7 
f 20/23/7 83/12/7 11/11/7 
f 8/8/8 81/9/8 90/22/8 
f 8/8/8 90/22/8 20/23/8 
f 89/20/24 83/12/7 90/22/7 
f 89/20/24 90/22/7 91/24/24 
f 91/24/25 90/22/8 81/9/8 
f 91/24/25 81/9/8 88/18/25 
f 92/26/26 93/25/26 89/20/24 
f 92/26/26 89/20/24 91/24/24 
f 88/18/25 94/27/27 92/26/27 
f 88/18/25 92/26/27 91/24/25 
f 95/28/1 96/29/1 85/15/1 
f 95/28/1 85/15/1 84/16/1 
f 97/30/28 86/17/22 85/15/22 
f 97/30/28 85/15/22 96/29/28 
f 94/27/4 88/18/4 87/19/4 
f 94/27/4 87/19/4 98/31/4 
f 93/25/5 95/28/5 84/16/23 
f 93/25/5 84/16/23 89/20/23 
f 98/31/29 87/19/6 86/21/6 
f 98/31/29 86/21/6 97/32/29 
f 99/34/12 100/33/12 101/20/12 
f 99/34/12 101/20/12 102/24/12 
f 103/35/14 99/34/14 102/24/14 
f 103/35/14 102/24/14 104/18/14 
f 101/20/12 93/25/12 92/26/12 
f 101/20/12 92/26/12 102/24/12 
f 104/18/14 102/24/14 92/26/14 
f 104/18/14 92/26/14 94/27/14 
f 95/28/1 105/16/1 106/15/1 
f 95/28/1 106/15/1 96/29/1 
f 106/15/9 107/17/9 97/30/30 
f 106/15/9 97/30/30 96/29/30 
f 108/19/4 104/18/4 94/27/4 
f 108/19/4 94/27/4 98/31/4 
f 93/25/31 101/20/31 105/16/31 
f 93/25/31 105/16/31 95/28/31 
f 107/21/10 108/19/10 98/31/10 
f 107/21/10 98/31/10 97/32/10 
f 109/36/1 106/15/1 105/16/1 
f 109/36/1 105/16/1 110/37/1 
f 111/38/9 107/17/9 106/15/9 
f 111/38/9 106/15/9 109/36/9 
f 103/35/4 104/18/4 108/19/4 
f 103/35/4 108/19/4 112/39/4 
f 110/37/31 105/16/31 101/20/31 
f 110/37/31 101/20/31 100/33/31 
f 112/39/10 108/19/10 107/21/10 
f 112/39/10 107/21/10 111/40/10 
f 45/1/1 44/2/1 113/3/1 
f 45/1/1 113/3/1 114/4/1 
f 44/2/7 48/5/7 115/6/7 
f 44/2/7 115/6/7 113/3/7 
f 51/7/4 50/8/4 116/9/4 
f 51/7/4 116/9/4 117/10/4 
f 53/11/15 45/1/15 114/4/15 
f 53/11/15 114/4/15 118/12/15 
f 48/13/8 51/7/8 117/10/8 
f 48/13/8 117/10/8 115/14/8 
f 113/3/1 119/15/1 120/16/1 
f 113/3/1 120/16/1 114/4/1 
f 115/6/7 121/17/26 119/15/26 
f 115/6/7 119/15/26 113/3/7 
f 116/9/4 122/18/4 123/19/4 
f 116/9/4 123/19/4 117/10/4 
f 114/4/15 120/16/32 124/20/32 
f 114/4/15 124/20/32 118/12/15 
f 117/10/8 123/19/25 121/21/25 
f 117/10/8 121/21/25 115/14/8 
f 118/12/3 125/22/3 61/23/3 
f 118/12/3 61/23/3 53/11/3 
f 125/22/6 116/9/6 50/8/6 
f 125/22/6 50/8/6 61/23/6 
f 125/22/3 118/12/3 124/20/22 
f 125/22/3 124/20/22 126/24/22 
f 116/9/6 125/22/6 126/24/33 
f 116/9/6 126/24/33 122/18/33 
f 124/20/22 127/25/22 128/26/22 
f 124/20/22 128/26/22 126/24/22 
f 122/18/33 126/24/33 128/26/33 
f 122/18/33 128/26/33 129/27/33 
f 130/28/1 120/16/1 119/15/1 
f 130/28/1 119/15/1 131/29/1 
f 119/15/26 121/17/26 132/30/34 
f 119/15/26 132/30/34 131/29/34 
f 123/19/4 122/18/4 129/27/4 
f 123/19/4 129/27/4 133/31/4 
f 127/25/15 124/20/32 120/16/32 
f 127/25/15 120/16/32 130/28/15 
f 121/21/25 123/19/25 133/31/25 
f 121/21/25 133/31/25 132/32/25 
f 134/20/19 100/33/12 99/34/12 
f 134/20/19 99/34/12 135/24/19 
f 135/24/35 99/34/14 103/35/14 
f 135/24/35 103/35/14 136/18/35 
f 128/26/19 127/25/19 134/20/19 
f 128/26/19 134/20/19 135/24/19 
f 136/18/35 129/27/14 128/26/14 
f 136/18/35 128/26/14 135/24/35 
f 130/28/1 131/29/1 137/15/1 
f 130/28/1 137/15/1 138/16/1 
f 132/30/17 139/17/17 137/15/17 
f 132/30/17 137/15/17 131/29/17 
f 129/27/4 136/18/4 140/19/4 
f 129/27/4 140/19/4 133/31/4 
f 127/25/31 130/28/31 138/16/36 
f 127/25/31 138/16/36 134/20/36 
f 133/31/37 140/19/18 139/21/18 
f 133/31/37 139/21/18 132/32/37 
f 138/16/1 137/15/1 109/36/1 
f 138/16/1 109/36/1 110/37/1 
f 137/15/17 139/17/17 111/38/9 
f 137/15/17 111/38/9 109/36/9 
f 140/19/4 136/18/4 103/35/4 
f 140/19/4 103/35/4 112/39/4 
f 134/20/36 138/16/36 110/37/31 
f 134/20/36 110/37/31 100/33/31 
f 139/21/18 140/19/18 112/39/10 
f 139/21/18 112/39/10 111/40/10 
# 280 faces

