# 3ds Max Wavefront OBJ Exporter v0.97b - (c)2007 guruware
# File Created: 21.02.2011 11:31:21

#
# object sponza_114
#

v  -135.3347 30.9529 -92.8233
v  -135.3347 30.9529 -93.4343
v  -135.2714 31.5993 -93.4343
v  -135.2714 31.5993 -92.7411
v  -135.3810 30.5660 -92.8816
v  -135.3810 30.5660 -93.4343
v  -135.2022 30.7594 -93.4343
v  -135.2022 30.7594 -92.6693
v  -134.7869 33.6256 -92.1508
v  -134.7869 33.6256 -93.4343
v  -134.6203 33.8438 -93.4343
v  -134.6203 33.8438 -91.9540
v  -134.7869 34.0619 -93.4343
v  -134.7869 34.0619 -92.1586
v  -135.0574 32.4992 -92.4810
v  -135.0574 32.4992 -93.4343
v  -134.7869 33.1893 -93.4343
v  -134.7869 33.1893 -92.1473
v  -135.3188 31.5993 -92.6830
v  -135.3838 30.9529 -92.7629
v  -134.8362 33.6256 -92.0902
v  -134.8348 33.1893 -92.0884
v  -134.6729 33.8438 -91.8895
v  -134.8394 34.0619 -92.0940
v  -135.1060 32.4992 -92.4215
v  -135.4806 30.5660 -92.8817
v  -135.9304 30.5660 -93.4344
v  -135.2549 30.7594 -92.6045
v  -135.4308 30.5660 -92.8205
v  -135.9304 34.0619 -93.4344
v  -135.4330 30.9529 -92.7025
v  -135.3661 31.5993 -92.6248
v  -135.9304 31.5993 -92.6248
v  -135.9304 30.9529 -92.7025
v  -135.4805 30.5660 -92.7594
v  -135.3076 30.7594 -92.5398
v  -135.9304 30.7594 -92.5398
v  -135.9304 30.5660 -92.7594
v  -134.8856 33.6256 -92.0295
v  -134.7254 33.8438 -91.8249
v  -135.9304 33.8438 -91.8249
v  -135.9304 33.6256 -92.0295
v  -134.8919 34.0619 -92.0295
v  -135.9304 34.0619 -92.0295
v  -135.1544 32.4992 -92.3620
v  -134.8827 33.1893 -92.0295
v  -135.9304 33.1893 -92.0295
v  -135.9304 32.4992 -92.3620
# 48 vertices

vn 0.9952 -0.0974 -0.0000
vn 0.9863 -0.1647 -0.0000
vn 0.9849 -0.1729 -0.0000
vn 0.7344 -0.6787 -0.0000
vn 0.8252 0.5649 -0.0000
vn 0.7948 -0.6068 -0.0000
vn 0.7948 0.6068 -0.0000
vn 0.9497 -0.3131 -0.0000
vn 0.9543 -0.2989 -0.0000
vn 0.9310 -0.3650 -0.0000
vn 0.7513 -0.2473 0.6119
vn 0.7508 -0.2505 0.6112
vn 0.7664 -0.1542 0.6236
vn 0.7755 0.0051 0.6313
vn 0.7756 0.0051 0.6312
vn 0.7754 0.0051 0.6314
vn 0.5059 -0.7578 0.4121
vn 0.5060 -0.7578 0.4120
vn 0.5060 -0.7578 0.4119
vn 0.5003 0.7639 0.4075
vn 0.5006 0.7639 0.4072
vn 0.5004 0.7639 0.4074
vn 0.5004 0.7639 0.4075
vn 0.6622 -0.5204 0.5392
vn 0.6623 -0.5204 0.5390
vn 0.6984 -0.4345 0.5687
vn 0.7000 -0.4295 0.5705
vn 1.0000 0.0000 -0.0000
vn 0.0000 -1.0000 -0.0000
vn 0.5393 0.7187 0.4388
vn 0.5395 0.7187 0.4386
vn 0.4486 -0.8157 0.3652
vn 0.4487 -0.8156 0.3653
vn 0.4489 -0.8157 0.3650
vn 0.4487 -0.8157 0.3651
vn 0.0000 1.0000 -0.0000
vn -0.0000 -0.1192 0.9929
vn -0.0000 -0.2085 0.9780
vn -0.0000 -0.2005 0.9797
vn 0.0000 -0.7505 0.6609
vn -0.0000 0.6437 0.7653
vn 0.0000 0.6437 0.7653
vn 0.0000 -0.6840 0.7294
vn -0.0000 -0.6841 0.7294
vn 0.0000 0.6841 0.7294
vn 0.0000 -0.3717 0.9284
vn -0.0000 -0.4340 0.9009
vn 0.0000 -0.4340 0.9009
vn 0.0000 -0.3584 0.9336
vn 0.7503 -0.2535 0.6105
vn 0.7757 0.0051 0.6310
vn 0.5061 -0.7578 0.4119
vn 0.5061 -0.7578 0.4118
vn 0.5002 0.7639 0.4076
vn 0.5005 0.7640 0.4073
vn 0.6968 -0.4395 0.5669
vn 0.6625 -0.5204 0.5389
vn -0.0000 0.0000 1.0000
vn 0.5393 0.7188 0.4388
vn 0.5391 0.7187 0.4391
vn 0.4485 -0.8157 0.3653
# 61 vertex normals

vt 0.5504 0.8881 0.0000
vt 0.5337 0.8881 0.0000
vt 0.5337 0.9084 0.0000
vt 0.5526 0.9084 0.0000
vt 0.9865 0.7672 0.0000
vt 0.9619 0.7672 0.0000
vt 0.9632 0.7791 0.0000
vt 0.9959 0.7791 0.0000
vt 0.5337 0.8820 0.0000
vt 0.5546 0.8820 0.0000
vt 0.5687 0.9721 0.0000
vt 0.5337 0.9721 0.0000
vt 0.5337 0.9790 0.0000
vt 0.5741 0.9790 0.0000
vt 0.5337 0.9859 0.0000
vt 0.5685 0.9859 0.0000
vt 0.5597 0.9367 0.0000
vt 0.5337 0.9367 0.0000
vt 0.5337 0.9584 0.0000
vt 0.5688 0.9584 0.0000
vt 0.6028 0.9094 0.0000
vt 0.6050 0.9099 0.0000
vt 0.6071 0.8899 0.0000
vt 0.6050 0.8907 0.0000
vt 0.5867 0.9726 0.0000
vt 0.5888 0.9735 0.0000
vt 0.5887 0.9599 0.0000
vt 0.5865 0.9593 0.0000
vt 0.5815 0.9806 0.0000
vt 0.5834 0.9806 0.0000
vt 0.5871 0.9900 0.0000
vt 0.5890 0.9880 0.0000
vt 0.5978 0.9381 0.0000
vt 0.5957 0.9372 0.0000
vt 0.4476 0.6742 0.0000
vt 0.4476 0.6911 0.0000
vt 0.4439 0.6911 0.0000
vt 0.4270 0.6742 0.0000
vt 0.6028 0.8842 0.0000
vt 0.6007 0.8862 0.0000
vt 0.0107 0.7672 0.0000
vt 0.0079 0.7672 0.0000
vt 0.0078 0.7789 0.0000
vt 0.0104 0.7790 0.0000
vt 0.0105 0.8749 0.0000
vt 0.0091 0.8760 0.0000
vt 0.0091 0.8976 0.0000
vt 0.0406 0.8976 0.0000
vt 0.4457 0.6929 0.0000
# 49 texture coords

g sponza_114
f 1/1/1 2/2/1 3/3/2 
f 1/1/1 3/3/2 4/4/3 
f 5/5/4 6/6/4 7/7/4 
f 5/5/4 7/7/4 8/8/4 
f 7/9/5 2/2/5 1/1/5 
f 7/9/5 1/1/5 8/10/5 
f 9/11/6 10/12/6 11/13/6 
f 9/11/6 11/13/6 12/14/6 
f 11/13/7 13/15/7 14/16/7 
f 11/13/7 14/16/7 12/14/7 
f 15/17/8 16/18/9 17/19/10 
f 15/17/8 17/19/10 18/20/10 
f 4/4/3 3/3/2 16/18/9 
f 4/4/3 16/18/9 15/17/8 
f 4/21/11 19/22/12 20/23/13 
f 4/21/11 20/23/13 1/24/13 
f 9/25/14 21/26/14 22/27/15 
f 9/25/14 22/27/15 18/28/16 
f 12/29/17 23/30/18 21/26/19 
f 12/29/17 21/26/19 9/25/19 
f 12/29/20 14/31/21 24/32/22 
f 12/29/20 24/32/22 23/30/23 
f 18/28/24 22/27/25 25/33/26 
f 18/28/24 25/33/26 15/34/27 
f 15/34/27 25/33/26 19/22/12 
f 15/34/27 19/22/12 4/21/11 
f 9/11/28 18/20/28 17/19/28 
f 9/11/28 17/19/28 10/12/28 
f 6/35/29 5/36/29 26/37/29 
f 6/35/29 26/37/29 27/38/29 
f 20/23/30 28/39/30 8/40/31 
f 20/23/30 8/40/31 1/24/30 
f 29/41/32 5/42/33 8/43/34 
f 29/41/32 8/43/34 28/44/35 
f 24/45/36 14/46/36 13/47/36 
f 24/45/36 13/47/36 30/48/36 
f 29/49/29 26/37/29 5/36/29 
f 31/1/37 32/4/38 33/3/39 
f 31/1/37 33/3/39 34/2/37 
f 35/5/40 36/8/40 37/7/40 
f 35/5/40 37/7/40 38/6/40 
f 31/1/41 34/2/41 37/9/41 
f 31/1/41 37/9/41 36/10/42 
f 39/11/43 40/14/43 41/13/44 
f 39/11/43 41/13/44 42/12/44 
f 43/16/45 44/15/45 41/13/45 
f 43/16/45 41/13/45 40/14/45 
f 45/17/46 46/20/47 47/19/48 
f 45/17/46 47/19/48 48/18/49 
f 32/4/38 45/17/46 48/18/49 
f 32/4/38 48/18/49 33/3/39 
f 31/24/13 20/23/13 19/22/12 
f 31/24/13 19/22/12 32/21/50 
f 22/27/15 21/26/14 39/25/15 
f 22/27/15 39/25/15 46/28/51 
f 39/25/52 21/26/19 23/30/18 
f 39/25/52 23/30/18 40/29/53 
f 23/30/23 24/32/22 43/31/54 
f 23/30/23 43/31/54 40/29/55 
f 45/34/56 25/33/26 22/27/25 
f 45/34/56 22/27/25 46/28/57 
f 32/21/50 19/22/12 25/33/26 
f 32/21/50 25/33/26 45/34/56 
f 47/19/58 46/20/58 39/11/58 
f 47/19/58 39/11/58 42/12/58 
f 38/35/29 27/38/29 26/37/29 
f 38/35/29 26/37/29 35/36/29 
f 31/24/59 36/40/60 28/39/30 
f 31/24/59 28/39/30 20/23/30 
f 28/44/35 36/43/61 35/42/32 
f 28/44/35 35/42/32 29/41/32 
f 44/47/36 43/46/36 24/45/36 
f 44/47/36 24/45/36 30/48/36 
f 29/49/29 35/36/29 26/37/29 
# 74 faces

