# 3ds Max Wavefront OBJ Exporter v0.97b - (c)2007 guruware
# File Created: 21.02.2011 11:32:01

#
# object sponza_356
#

v  -54.8139 33.6590 -13.1709
v  -54.6801 33.7362 -13.1760
v  -54.6452 33.7038 -11.8607
v  -54.8139 33.6064 -11.8616
v  -54.6801 33.8907 -13.1863
v  -54.6452 33.8985 -11.8588
v  -54.8139 33.9680 -13.1914
v  -54.8139 33.9959 -11.8579
v  -54.9476 33.8907 -13.1863
v  -54.9825 33.8985 -11.8588
v  -54.9476 33.7362 -13.1760
v  -54.9825 33.7038 -11.8607
v  -54.8139 33.6453 -13.2661
v  -54.6801 33.7216 -13.2781
v  -54.6801 33.8742 -13.3021
v  -54.8139 33.9504 -13.3141
v  -54.9476 33.8742 -13.3021
v  -54.9476 33.7216 -13.2781
v  -54.8139 33.6280 -13.3672
v  -54.6801 33.7037 -13.3824
v  -54.6801 33.8551 -13.4130
v  -54.8139 33.9308 -13.4282
v  -54.9476 33.8551 -13.4130
v  -54.9476 33.7037 -13.3824
v  -54.8139 33.6062 -13.4609
v  -54.6801 33.6807 -13.4817
v  -54.6801 33.8296 -13.5232
v  -54.8139 33.9040 -13.5440
v  -54.9476 33.8296 -13.5232
v  -54.9476 33.6807 -13.4817
v  -54.8139 33.5784 -13.5460
v  -54.6801 33.6503 -13.5745
v  -54.6801 33.7941 -13.6316
v  -54.8139 33.8660 -13.6601
v  -54.9476 33.7941 -13.6316
v  -54.9476 33.6503 -13.5745
v  -54.8139 33.5428 -13.6219
v  -54.6801 33.6102 -13.6599
v  -54.6801 33.7451 -13.7361
v  -54.8139 33.8125 -13.7742
v  -54.9476 33.7451 -13.7361
v  -54.9476 33.6102 -13.6599
v  -54.8139 33.4979 -13.6889
v  -54.6801 33.5583 -13.7375
v  -54.6801 33.6791 -13.8346
v  -54.8139 33.7395 -13.8832
v  -54.9476 33.6791 -13.8346
v  -54.9476 33.5583 -13.7375
v  -54.8139 33.4339 -13.7556
v  -54.6801 33.4881 -13.8106
v  -54.6801 33.5965 -13.9207
v  -54.8139 33.6507 -13.9757
v  -54.9476 33.5965 -13.9207
v  -54.9476 33.4881 -13.8106
v  -54.8139 33.3456 -13.8377
v  -54.6801 33.4007 -13.8919
v  -54.6801 33.5109 -14.0003
v  -54.8139 33.5660 -14.0545
v  -54.9476 33.5109 -14.0003
v  -54.9476 33.4007 -13.8919
v  -54.8139 33.2510 -13.9429
v  -54.6801 33.3117 -13.9909
v  -54.6801 33.4332 -14.0868
v  -54.8139 33.4939 -14.1347
v  -54.9476 33.4332 -14.0868
v  -54.9476 33.3117 -13.9909
v  -54.8139 33.1645 -14.0683
v  -54.6801 33.2316 -14.1069
v  -54.6801 33.3660 -14.1841
v  -54.8139 33.4332 -14.2227
v  -54.9476 33.3660 -14.1841
v  -54.9476 33.2316 -14.1069
v  -54.8139 33.0951 -14.2160
v  -54.6801 33.1682 -14.2419
v  -54.6801 33.3144 -14.2938
v  -54.8139 33.3876 -14.3198
v  -54.9476 33.3144 -14.2938
v  -54.9476 33.1682 -14.2419
v  -54.8139 33.0528 -14.3864
v  -54.6801 33.1297 -14.3971
v  -54.6801 33.2834 -14.4187
v  -54.8139 33.3603 -14.4294
v  -54.9476 33.2834 -14.4187
v  -54.9476 33.1297 -14.3971
v  -54.8139 33.0461 -14.5774
v  -54.6801 33.1236 -14.5723
v  -54.6801 33.2784 -14.5622
v  -54.8139 33.3559 -14.5572
v  -54.9476 33.2784 -14.5622
v  -54.9476 33.1236 -14.5723
v  -54.8139 33.0807 -14.7848
v  -54.6801 33.1559 -14.7663
v  -54.6801 33.3063 -14.7293
v  -54.8139 33.3815 -14.7107
v  -54.9476 33.3063 -14.7293
v  -54.9476 33.1559 -14.7663
v  -54.8139 33.1428 -14.9736
v  -54.6801 33.2142 -14.9433
v  -54.6801 33.3568 -14.8827
v  -54.8139 33.4281 -14.8525
v  -54.9476 33.3568 -14.8827
v  -54.9476 33.2142 -14.9433
v  -54.8139 33.2193 -15.1187
v  -54.6801 33.2834 -15.0747
v  -54.6801 33.4115 -14.9865
v  -54.8139 33.4756 -14.9425
v  -54.9476 33.4115 -14.9865
v  -54.9476 33.2834 -15.0747
v  -54.8139 33.3145 -15.2272
v  -54.6801 33.3651 -15.1678
v  -54.6801 33.4664 -15.0491
v  -54.8139 33.5170 -14.9897
v  -54.9476 33.4664 -15.0491
v  -54.9476 33.3651 -15.1678
v  -54.8139 33.4268 -15.2869
v  -54.6875 33.4569 -15.2196
v  -54.6875 33.5171 -15.0851
v  -54.8139 33.5473 -15.0179
v  -54.9403 33.5171 -15.0851
v  -54.9403 33.4569 -15.2196
v  -54.8139 33.5320 -15.3650
v  -54.6491 33.5491 -15.2709
v  -54.6491 33.5835 -15.0828
v  -54.8139 33.6007 -14.9888
v  -54.9786 33.5835 -15.0828
v  -54.9786 33.5491 -15.2709
v  -54.8139 33.6201 -15.3813
v  -54.6465 33.6315 -15.2852
v  -54.6465 33.6543 -15.0931
v  -54.8139 33.6656 -14.9970
v  -54.9812 33.6543 -15.0931
v  -54.9812 33.6315 -15.2852
v  -54.8139 33.7374 -15.3252
v  -54.6888 33.7360 -15.2530
v  -54.6888 33.7333 -15.1086
v  -54.8139 33.7319 -15.0365
v  -54.9389 33.7333 -15.1086
v  -54.9389 33.7360 -15.2530
v  -54.8198 33.7373 -15.3217
# 139 vertices

vn 0.0000 -0.9987 0.0506
vn 0.8767 -0.4807 0.0164
vn 0.8656 -0.4995 -0.0354
vn 0.0000 -0.9992 -0.0401
vn 0.8557 0.5151 -0.0494
vn 0.8657 0.5000 -0.0258
vn 0.0000 0.9967 -0.0812
vn 0.0000 0.9998 -0.0210
vn -0.8557 0.5150 -0.0494
vn -0.8657 0.4999 -0.0258
vn -0.8767 -0.4807 0.0164
vn -0.8656 -0.4995 -0.0353
vn -0.0000 -0.9878 0.1556
vn 0.8680 -0.4906 0.0773
vn 0.8641 0.4972 -0.0783
vn -0.0000 0.9878 -0.1556
vn -0.8641 0.4972 -0.0783
vn -0.8680 -0.4906 0.0773
vn -0.0000 -0.9803 0.1977
vn 0.8700 -0.4833 0.0974
vn 0.8621 0.4967 -0.1002
vn -0.0000 0.9803 -0.1977
vn -0.8621 0.4967 -0.1002
vn -0.8700 -0.4833 0.0974
vn -0.0000 -0.9632 0.2688
vn 0.8722 -0.4711 0.1315
vn 0.8600 0.4915 -0.1372
vn -0.0000 0.9632 -0.2688
vn -0.8600 0.4915 -0.1372
vn -0.8723 -0.4711 0.1315
vn -0.0000 -0.9296 0.3685
vn 0.8746 -0.4507 0.1787
vn 0.8578 0.4777 -0.1894
vn -0.0000 0.9296 -0.3685
vn -0.8579 0.4777 -0.1894
vn -0.8746 -0.4507 0.1787
vn -0.0000 -0.8706 0.4919
vn 0.8768 -0.4187 0.2366
vn 0.8559 0.4503 -0.2544
vn -0.0000 0.8706 -0.4919
vn -0.8559 0.4503 -0.2544
vn -0.8768 -0.4187 0.2366
vn -0.0000 -0.7792 0.6267
vn 0.8784 -0.3725 0.2996
vn 0.8545 0.4048 -0.3256
vn -0.0000 0.7793 -0.6267
vn -0.8545 0.4048 -0.3256
vn -0.8784 -0.3725 0.2996
vn -0.0000 -0.7017 0.7125
vn 0.8700 -0.3460 0.3512
vn 0.8621 0.3556 -0.3610
vn -0.0000 0.7017 -0.7125
vn -0.8621 0.3556 -0.3610
vn -0.8700 -0.3459 0.3512
vn -0.0000 -0.7129 0.7012
vn 0.8600 -0.3638 0.3579
vn 0.8723 0.3486 -0.3429
vn -0.0000 0.7129 -0.7012
vn -0.8723 0.3486 -0.3429
vn -0.8600 -0.3638 0.3578
vn -0.0000 -0.7848 0.6198
vn 0.8574 -0.4039 0.3189
vn 0.8751 0.3799 -0.3000
vn -0.0000 0.7848 -0.6198
vn -0.8751 0.3799 -0.3000
vn -0.8574 -0.4038 0.3189
vn -0.0000 -0.8670 0.4983
vn 0.8550 -0.4496 0.2584
vn 0.8778 0.4154 -0.2387
vn -0.0000 0.8670 -0.4983
vn -0.8778 0.4154 -0.2387
vn -0.8550 -0.4496 0.2584
vn -0.0000 -0.9424 0.3346
vn 0.8531 -0.4916 0.1745
vn 0.8799 0.4477 -0.1589
vn -0.0000 0.9424 -0.3345
vn -0.8799 0.4477 -0.1589
vn -0.8531 -0.4916 0.1745
vn -0.0000 -0.9903 0.1388
vn 0.8523 -0.5180 0.0726
vn 0.8809 0.4687 -0.0657
vn -0.0000 0.9903 -0.1387
vn -0.8809 0.4687 -0.0657
vn -0.8523 -0.5180 0.0726
vn -0.0000 -0.9979 -0.0651
vn 0.8528 -0.5211 -0.0340
vn 0.8803 0.4734 0.0309
vn -0.0000 0.9979 0.0651
vn -0.8803 0.4734 0.0309
vn -0.8528 -0.5211 -0.0340
vn -0.0000 -0.9710 -0.2393
vn 0.8558 -0.5022 -0.1238
vn 0.8768 0.4669 0.1150
vn -0.0000 0.9710 0.2393
vn -0.8768 0.4669 0.1150
vn -0.8559 -0.5022 -0.1237
vn -0.0000 -0.9205 -0.3908
vn 0.8549 -0.4775 -0.2027
vn 0.8779 0.4408 0.1871
vn -0.0000 0.9205 0.3908
vn -0.8779 0.4408 0.1871
vn -0.8549 -0.4775 -0.2027
vn -0.0000 -0.8239 -0.5667
vn 0.8507 -0.4331 -0.2979
vn 0.8828 0.3870 0.2662
vn -0.0000 0.8239 0.5667
vn -0.8829 0.3869 0.2662
vn -0.8507 -0.4331 -0.2979
vn -0.0000 -0.6222 -0.7828
vn 0.8474 -0.3138 -0.4282
vn 0.8830 0.3471 0.3158
vn -0.0000 0.7128 0.7014
vn -0.8830 0.3471 0.3158
vn -0.8475 -0.3138 -0.4282
vn 0.0073 -0.5404 -0.8414
vn 0.8175 -0.3850 -0.4283
vn 0.8591 -0.0832 0.5049
vn -0.0000 0.0504 0.9987
vn -0.8591 -0.0832 0.5049
vn -0.8210 -0.3899 -0.4171
vn 0.0046 -0.3903 -0.9207
vn 0.8362 -0.3130 -0.4503
vn 0.8352 -0.1696 0.5232
vn -0.0000 -0.1338 0.9910
vn -0.8352 -0.1696 0.5231
vn -0.8400 -0.3069 -0.4475
vn 0.0005 0.1098 -0.9940
vn 0.8367 0.1545 -0.5253
vn 0.8583 0.2513 0.4474
vn -0.0000 0.3054 0.9522
vn -0.8583 0.2513 0.4474
vn -0.8370 0.1550 -0.5249
vn -0.0000 0.7814 -0.6240
vn 0.5395 0.7854 -0.3035
vn 0.5177 0.7918 0.3240
vn -0.0000 0.7961 0.6051
vn -0.5177 0.7918 0.3240
vn -0.5395 0.7854 -0.3035
vn -0.2714 0.8487 -0.4540
# 139 vertex normals

vt 0.1725 0.8797 0.0000
vt 0.1731 0.8926 0.0000
vt 0.0035 0.8872 0.0000
vt 0.0036 0.8710 0.0000
vt 0.1745 0.9183 0.0000
vt 0.0033 0.9196 0.0000
vt 0.1751 0.9311 0.0000
vt 0.0032 0.9358 0.0000
vt 0.1848 0.8775 0.0000
vt 0.1863 0.8901 0.0000
vt 0.1894 0.9155 0.0000
vt 0.1910 0.9282 0.0000
vt 0.1978 0.8746 0.0000
vt 0.1998 0.8872 0.0000
vt 0.2037 0.9124 0.0000
vt 0.2057 0.9250 0.0000
vt 0.2099 0.8710 0.0000
vt 0.2126 0.8833 0.0000
vt 0.2179 0.9081 0.0000
vt 0.2206 0.9205 0.0000
vt 0.2209 0.8663 0.0000
vt 0.2245 0.8783 0.0000
vt 0.2319 0.9022 0.0000
vt 0.2356 0.9142 0.0000
vt 0.2306 0.8604 0.0000
vt 0.2355 0.8716 0.0000
vt 0.2454 0.8940 0.0000
vt 0.2503 0.9053 0.0000
vt 0.2393 0.8529 0.0000
vt 0.2455 0.8630 0.0000
vt 0.2581 0.8831 0.0000
vt 0.2643 0.8931 0.0000
vt 0.2479 0.8423 0.0000
vt 0.2550 0.8513 0.0000
vt 0.2692 0.8693 0.0000
vt 0.2763 0.8784 0.0000
vt 0.2585 0.8276 0.0000
vt 0.2655 0.8368 0.0000
vt 0.2794 0.8551 0.0000
vt 0.2864 0.8643 0.0000
vt 0.2720 0.8119 0.0000
vt 0.2782 0.8220 0.0000
vt 0.2906 0.8422 0.0000
vt 0.2968 0.8523 0.0000
vt 0.2882 0.7975 0.0000
vt 0.2932 0.8086 0.0000
vt 0.3031 0.8310 0.0000
vt 0.3081 0.8422 0.0000
vt 0.3073 0.7859 0.0000
vt 0.3106 0.7981 0.0000
vt 0.3173 0.8224 0.0000
vt 0.3206 0.8346 0.0000
vt 0.3292 0.7789 0.0000
vt 0.3306 0.7917 0.0000
vt 0.3334 0.8173 0.0000
vt 0.3348 0.8300 0.0000
vt 0.3539 0.7778 0.0000
vt 0.3532 0.7907 0.0000
vt 0.3519 0.8164 0.0000
vt 0.3513 0.8293 0.0000
vt 0.3806 0.7835 0.0000
vt 0.3782 0.7960 0.0000
vt 0.3734 0.8211 0.0000
vt 0.3711 0.8336 0.0000
vt 0.4049 0.7939 0.0000
vt 0.4010 0.8057 0.0000
vt 0.3932 0.8295 0.0000
vt 0.3893 0.8413 0.0000
vt 0.4237 0.8066 0.0000
vt 0.4180 0.8172 0.0000
vt 0.4066 0.8386 0.0000
vt 0.4009 0.8492 0.0000
vt 0.4377 0.8224 0.0000
vt 0.4300 0.8308 0.0000
vt 0.4147 0.8477 0.0000
vt 0.4070 0.8561 0.0000
vt 0.4454 0.8411 0.0000
vt 0.4367 0.8461 0.0000
vt 0.4193 0.8561 0.0000
vt 0.4107 0.8611 0.0000
vt 0.4554 0.8586 0.0000
vt 0.4433 0.8615 0.0000
vt 0.4190 0.8672 0.0000
vt 0.4069 0.8700 0.0000
vt 0.4575 0.8733 0.0000
vt 0.4451 0.8752 0.0000
vt 0.4204 0.8789 0.0000
vt 0.4080 0.8808 0.0000
vt 0.4497 0.8991 0.0000
vt 0.4410 0.8925 0.0000
vt 0.4224 0.8921 0.0000
vt 0.4125 0.8982 0.0000
vt 0.4492 0.8991 0.0000
# 93 texture coords

g sponza_356
f 1/1/1 2/2/2 3/3/3 
f 1/1/1 3/3/3 4/4/4 
f 2/2/2 5/5/5 6/6/6 
f 2/2/2 6/6/6 3/3/3 
f 5/5/5 7/7/7 8/8/8 
f 5/5/5 8/8/8 6/6/6 
f 7/7/7 9/5/9 10/6/10 
f 7/7/7 10/6/10 8/8/8 
f 10/6/10 9/5/9 11/2/11 
f 10/6/10 11/2/11 12/3/12 
f 11/2/11 1/1/1 4/4/4 
f 11/2/11 4/4/4 12/3/12 
f 1/1/1 13/9/13 14/10/14 
f 1/1/1 14/10/14 2/2/2 
f 2/2/2 14/10/14 15/11/15 
f 2/2/2 15/11/15 5/5/5 
f 5/5/5 15/11/15 16/12/16 
f 5/5/5 16/12/16 7/7/7 
f 16/12/16 17/11/17 9/5/9 
f 16/12/16 9/5/9 7/7/7 
f 17/11/17 18/10/18 11/2/11 
f 17/11/17 11/2/11 9/5/9 
f 18/10/18 13/9/13 1/1/1 
f 18/10/18 1/1/1 11/2/11 
f 19/13/19 20/14/20 14/10/14 
f 19/13/19 14/10/14 13/9/13 
f 20/14/20 21/15/21 15/11/15 
f 20/14/20 15/11/15 14/10/14 
f 21/15/21 22/16/22 16/12/16 
f 21/15/21 16/12/16 15/11/15 
f 22/16/22 23/15/23 17/11/17 
f 22/16/22 17/11/17 16/12/16 
f 17/11/17 23/15/23 24/14/24 
f 17/11/17 24/14/24 18/10/18 
f 24/14/24 19/13/19 13/9/13 
f 24/14/24 13/9/13 18/10/18 
f 25/17/25 26/18/26 20/14/20 
f 25/17/25 20/14/20 19/13/19 
f 26/18/26 27/19/27 21/15/21 
f 26/18/26 21/15/21 20/14/20 
f 27/19/27 28/20/28 22/16/22 
f 27/19/27 22/16/22 21/15/21 
f 28/20/28 29/19/29 23/15/23 
f 28/20/28 23/15/23 22/16/22 
f 23/15/23 29/19/29 30/18/30 
f 23/15/23 30/18/30 24/14/24 
f 30/18/30 25/17/25 19/13/19 
f 30/18/30 19/13/19 24/14/24 
f 31/21/31 32/22/32 26/18/26 
f 31/21/31 26/18/26 25/17/25 
f 32/22/32 33/23/33 27/19/27 
f 32/22/32 27/19/27 26/18/26 
f 33/23/33 34/24/34 28/20/28 
f 33/23/33 28/20/28 27/19/27 
f 34/24/34 35/23/35 29/19/29 
f 34/24/34 29/19/29 28/20/28 
f 29/19/29 35/23/35 36/22/36 
f 29/19/29 36/22/36 30/18/30 
f 36/22/36 31/21/31 25/17/25 
f 36/22/36 25/17/25 30/18/30 
f 37/25/37 38/26/38 32/22/32 
f 37/25/37 32/22/32 31/21/31 
f 38/26/38 39/27/39 33/23/33 
f 38/26/38 33/23/33 32/22/32 
f 39/27/39 40/28/40 34/24/34 
f 39/27/39 34/24/34 33/23/33 
f 40/28/40 41/27/41 35/23/35 
f 40/28/40 35/23/35 34/24/34 
f 35/23/35 41/27/41 42/26/42 
f 35/23/35 42/26/42 36/22/36 
f 42/26/42 37/25/37 31/21/31 
f 42/26/42 31/21/31 36/22/36 
f 43/29/43 44/30/44 38/26/38 
f 43/29/43 38/26/38 37/25/37 
f 44/30/44 45/31/45 39/27/39 
f 44/30/44 39/27/39 38/26/38 
f 45/31/45 46/32/46 40/28/40 
f 45/31/45 40/28/40 39/27/39 
f 46/32/46 47/31/47 41/27/41 
f 46/32/46 41/27/41 40/28/40 
f 41/27/41 47/31/47 48/30/48 
f 41/27/41 48/30/48 42/26/42 
f 48/30/48 43/29/43 37/25/37 
f 48/30/48 37/25/37 42/26/42 
f 43/29/43 49/33/49 50/34/50 
f 43/29/43 50/34/50 44/30/44 
f 44/30/44 50/34/50 51/35/51 
f 44/30/44 51/35/51 45/31/45 
f 45/31/45 51/35/51 52/36/52 
f 45/31/45 52/36/52 46/32/46 
f 52/36/52 53/35/53 47/31/47 
f 52/36/52 47/31/47 46/32/46 
f 53/35/53 54/34/54 48/30/48 
f 53/35/53 48/30/48 47/31/47 
f 54/34/54 49/33/49 43/29/43 
f 54/34/54 43/29/43 48/30/48 
f 49/33/49 55/37/55 56/38/56 
f 49/33/49 56/38/56 50/34/50 
f 50/34/50 56/38/56 57/39/57 
f 50/34/50 57/39/57 51/35/51 
f 51/35/51 57/39/57 58/40/58 
f 51/35/51 58/40/58 52/36/52 
f 58/40/58 59/39/59 53/35/53 
f 58/40/58 53/35/53 52/36/52 
f 59/39/59 60/38/60 54/34/54 
f 59/39/59 54/34/54 53/35/53 
f 60/38/60 55/37/55 49/33/49 
f 60/38/60 49/33/49 54/34/54 
f 61/41/61 62/42/62 56/38/56 
f 61/41/61 56/38/56 55/37/55 
f 56/38/56 62/42/62 63/43/63 
f 56/38/56 63/43/63 57/39/57 
f 63/43/63 64/44/64 58/40/58 
f 63/43/63 58/40/58 57/39/57 
f 64/44/64 65/43/65 59/39/59 
f 64/44/64 59/39/59 58/40/58 
f 65/43/65 66/42/66 60/38/60 
f 65/43/65 60/38/60 59/39/59 
f 66/42/66 61/41/61 55/37/55 
f 66/42/66 55/37/55 60/38/60 
f 67/45/67 68/46/68 62/42/62 
f 67/45/67 62/42/62 61/41/61 
f 62/42/62 68/46/68 69/47/69 
f 62/42/62 69/47/69 63/43/63 
f 69/47/69 70/48/70 64/44/64 
f 69/47/69 64/44/64 63/43/63 
f 70/48/70 71/47/71 65/43/65 
f 70/48/70 65/43/65 64/44/64 
f 71/47/71 72/46/72 66/42/66 
f 71/47/71 66/42/66 65/43/65 
f 72/46/72 67/45/67 61/41/61 
f 72/46/72 61/41/61 66/42/66 
f 73/49/73 74/50/74 68/46/68 
f 73/49/73 68/46/68 67/45/67 
f 68/46/68 74/50/74 75/51/75 
f 68/46/68 75/51/75 69/47/69 
f 75/51/75 76/52/76 70/48/70 
f 75/51/75 70/48/70 69/47/69 
f 76/52/76 77/51/77 71/47/71 
f 76/52/76 71/47/71 70/48/70 
f 77/51/77 78/50/78 72/46/72 
f 77/51/77 72/46/72 71/47/71 
f 78/50/78 73/49/73 67/45/67 
f 78/50/78 67/45/67 72/46/72 
f 79/53/79 80/54/80 74/50/74 
f 79/53/79 74/50/74 73/49/73 
f 80/54/80 81/55/81 75/51/75 
f 80/54/80 75/51/75 74/50/74 
f 81/55/81 82/56/82 76/52/76 
f 81/55/81 76/52/76 75/51/75 
f 82/56/82 83/55/83 77/51/77 
f 82/56/82 77/51/77 76/52/76 
f 83/55/83 84/54/84 78/50/78 
f 83/55/83 78/50/78 77/51/77 
f 84/54/84 79/53/79 73/49/73 
f 84/54/84 73/49/73 78/50/78 
f 85/57/85 86/58/86 80/54/80 
f 85/57/85 80/54/80 79/53/79 
f 86/58/86 87/59/87 81/55/81 
f 86/58/86 81/55/81 80/54/80 
f 87/59/87 88/60/88 82/56/82 
f 87/59/87 82/56/82 81/55/81 
f 88/60/88 89/59/89 83/55/83 
f 88/60/88 83/55/83 82/56/82 
f 89/59/89 90/58/90 84/54/84 
f 89/59/89 84/54/84 83/55/83 
f 90/58/90 85/57/85 79/53/79 
f 90/58/90 79/53/79 84/54/84 
f 91/61/91 92/62/92 86/58/86 
f 91/61/91 86/58/86 85/57/85 
f 92/62/92 93/63/93 87/59/87 
f 92/62/92 87/59/87 86/58/86 
f 93/63/93 94/64/94 88/60/88 
f 93/63/93 88/60/88 87/59/87 
f 88/60/88 94/64/94 95/63/95 
f 88/60/88 95/63/95 89/59/89 
f 89/59/89 95/63/95 96/62/96 
f 89/59/89 96/62/96 90/58/90 
f 90/58/90 96/62/96 91/61/91 
f 90/58/90 91/61/91 85/57/85 
f 97/65/97 98/66/98 92/62/92 
f 97/65/97 92/62/92 91/61/91 
f 98/66/98 99/67/99 93/63/93 
f 98/66/98 93/63/93 92/62/92 
f 99/67/99 100/68/100 94/64/94 
f 99/67/99 94/64/94 93/63/93 
f 100/68/100 101/67/101 95/63/95 
f 100/68/100 95/63/95 94/64/94 
f 101/67/101 102/66/102 96/62/96 
f 101/67/101 96/62/96 95/63/95 
f 102/66/102 97/65/97 91/61/91 
f 102/66/102 91/61/91 96/62/96 
f 97/65/97 103/69/103 104/70/104 
f 97/65/97 104/70/104 98/66/98 
f 98/66/98 104/70/104 105/71/105 
f 98/66/98 105/71/105 99/67/99 
f 99/67/99 105/71/105 106/72/106 
f 99/67/99 106/72/106 100/68/100 
f 106/72/106 107/71/107 101/67/101 
f 106/72/106 101/67/101 100/68/100 
f 107/71/107 108/70/108 102/66/102 
f 107/71/107 102/66/102 101/67/101 
f 108/70/108 103/69/103 97/65/97 
f 108/70/108 97/65/97 102/66/102 
f 103/69/103 109/73/109 110/74/110 
f 103/69/103 110/74/110 104/70/104 
f 104/70/104 110/74/110 111/75/111 
f 104/70/104 111/75/111 105/71/105 
f 105/71/105 111/75/111 112/76/112 
f 105/71/105 112/76/112 106/72/106 
f 112/76/112 113/75/113 107/71/107 
f 112/76/112 107/71/107 106/72/106 
f 113/75/113 114/74/114 108/70/108 
f 113/75/113 108/70/108 107/71/107 
f 114/74/114 109/73/109 103/69/103 
f 114/74/114 103/69/103 108/70/108 
f 115/77/115 116/78/116 110/74/110 
f 115/77/115 110/74/110 109/73/109 
f 116/78/116 117/79/117 111/75/111 
f 116/78/116 111/75/111 110/74/110 
f 117/79/117 118/80/118 112/76/112 
f 117/79/117 112/76/112 111/75/111 
f 112/76/112 118/80/118 119/79/119 
f 112/76/112 119/79/119 113/75/113 
f 113/75/113 119/79/119 120/78/120 
f 113/75/113 120/78/120 114/74/114 
f 114/74/114 120/78/120 115/77/115 
f 114/74/114 115/77/115 109/73/109 
f 121/81/121 122/82/122 116/78/116 
f 121/81/121 116/78/116 115/77/115 
f 116/78/116 122/82/122 123/83/123 
f 116/78/116 123/83/123 117/79/117 
f 117/79/117 123/83/123 124/84/124 
f 117/79/117 124/84/124 118/80/118 
f 124/84/124 125/83/125 119/79/119 
f 124/84/124 119/79/119 118/80/118 
f 125/83/125 126/82/126 120/78/120 
f 125/83/125 120/78/120 119/79/119 
f 126/82/126 121/81/121 115/77/115 
f 126/82/126 115/77/115 120/78/120 
f 127/85/127 128/86/128 122/82/122 
f 127/85/127 122/82/122 121/81/121 
f 122/82/122 128/86/128 129/87/129 
f 122/82/122 129/87/129 123/83/123 
f 123/83/123 129/87/129 130/88/130 
f 123/83/123 130/88/130 124/84/124 
f 130/88/130 131/87/131 125/83/125 
f 130/88/130 125/83/125 124/84/124 
f 131/87/131 132/86/132 126/82/126 
f 131/87/131 126/82/126 125/83/125 
f 132/86/132 127/85/127 121/81/121 
f 132/86/132 121/81/121 126/82/126 
f 133/89/133 134/90/134 128/86/128 
f 133/89/133 128/86/128 127/85/127 
f 134/90/134 135/91/135 129/87/129 
f 134/90/134 129/87/129 128/86/128 
f 135/91/135 136/92/136 130/88/130 
f 135/91/135 130/88/130 129/87/129 
f 130/88/130 136/92/136 137/91/137 
f 130/88/130 137/91/137 131/87/131 
f 131/87/131 137/91/137 138/90/138 
f 131/87/131 138/90/138 132/86/132 
f 132/86/132 138/90/138 139/93/139 
f 132/86/132 139/93/139 133/89/133 
f 132/86/132 133/89/133 127/85/127 
f 134/90/134 133/89/133 139/93/139 
f 134/90/134 139/93/139 136/92/136 
f 135/91/135 134/90/134 136/92/136 
f 139/93/139 138/90/138 137/91/137 
f 139/93/139 137/91/137 136/92/136 
# 270 faces

