# 3ds Max Wavefront OBJ Exporter v0.97b - (c)2007 guruware
# File Created: 21.02.2011 11:31:11

#
# object sponza_45
#

v  -92.6474 135.0058 -32.4027
v  -92.4815 134.5246 -32.4027
v  -92.4815 134.7221 -33.3558
v  -92.6474 135.1637 -33.1645
v  -92.8489 137.0363 -34.1700
v  -94.1761 137.0363 -34.1700
v  -94.1761 136.3245 -34.0696
v  -92.8489 136.3245 -34.0696
v  -92.6475 137.0457 -34.3153
v  -92.4815 137.0766 -34.7957
v  -92.4815 137.9459 -34.5714
v  -92.6475 137.7404 -34.1358
v  -92.4815 136.1127 -34.6598
v  -92.1270 135.9501 -35.1128
v  -92.1270 137.1075 -35.2760
v  -94.1761 135.9501 -35.1128
v  -94.1761 137.1075 -35.2760
v  -92.8489 138.6936 -32.4027
v  -94.1761 138.6936 -32.4027
v  -94.1761 138.5694 -33.0540
v  -92.8489 138.5694 -33.0540
v  -92.4815 139.3206 -32.4027
v  -92.4815 139.1525 -33.2846
v  -92.1270 139.6001 -33.4617
v  -92.1270 139.8019 -32.4027
v  -94.1761 139.6001 -33.4617
v  -94.1761 139.8019 -32.4027
v  -92.6474 135.1637 -31.6408
v  -92.4815 134.7221 -31.4495
v  -92.8489 136.3245 -30.7358
v  -94.1761 136.3245 -30.7358
v  -94.1761 137.0363 -30.6353
v  -92.8489 137.0363 -30.6353
v  -92.6475 137.7404 -30.6696
v  -92.4815 137.9459 -30.2340
v  -92.4815 137.0766 -30.0096
v  -92.6475 137.0457 -30.4901
v  -92.1270 135.9501 -29.6926
v  -92.4815 136.1127 -30.1456
v  -92.1270 137.1075 -29.5293
v  -94.1761 135.9501 -29.6926
v  -94.1761 137.1075 -29.5293
v  -92.8489 138.5694 -31.7513
v  -94.1761 138.5694 -31.7513
v  -92.1270 139.6001 -31.3437
v  -92.4815 139.1525 -31.5207
v  -94.1761 139.6001 -31.3437
v  -92.6474 135.6115 -33.8009
v  -92.4815 135.2823 -34.1519
v  -92.6474 136.2752 -34.2068
v  -92.8489 135.7112 -33.6945
v  -94.1761 135.7112 -33.6945
v  -94.1761 135.2975 -33.1066
v  -92.8489 135.2975 -33.1066
v  -92.6475 138.3205 -33.7135
v  -92.4815 138.6718 -34.0430
v  -92.6475 138.7046 -33.1075
v  -92.1270 134.2805 -33.5471
v  -92.1270 134.9531 -34.5030
v  -94.1761 134.2805 -33.5471
v  -94.1761 134.9531 -34.5030
v  -92.8489 138.2144 -33.6141
v  -94.1761 138.2144 -33.6141
v  -94.1761 137.6783 -34.0043
v  -92.8489 137.6783 -34.0043
v  -92.1270 138.1513 -35.0066
v  -92.1270 139.0229 -34.3722
v  -94.1761 138.1513 -35.0066
v  -94.1761 139.0229 -34.3722
v  -92.6474 135.6115 -31.0045
v  -92.6474 136.2752 -30.5986
v  -92.4815 135.2823 -30.6534
v  -92.8489 135.7112 -31.1108
v  -92.8489 135.2975 -31.6987
v  -94.1761 135.2975 -31.6987
v  -94.1761 135.7112 -31.1108
v  -92.6475 138.3205 -31.0918
v  -92.6475 138.7046 -31.6979
v  -92.4815 138.6718 -30.7624
v  -92.1270 134.9531 -30.3023
v  -92.1270 134.2805 -31.2582
v  -94.1761 134.9531 -30.3023
v  -94.1761 134.2805 -31.2582
v  -92.8489 138.2144 -31.1913
v  -92.8489 137.6783 -30.8010
v  -94.1761 137.6783 -30.8010
v  -94.1761 138.2144 -31.1913
v  -92.1270 139.0229 -30.4332
v  -92.1270 138.1513 -29.7987
v  -94.1761 139.0229 -30.4332
v  -94.1761 138.1513 -29.7987
v  -94.1761 135.1516 -32.4027
v  -92.8489 135.1516 -32.4027
v  -92.6475 138.8389 -32.4027
v  -92.1270 134.0433 -32.4027
v  -94.1761 134.0433 -32.4027
# 96 vertices

vn 0.8221 0.5694 -0.0000
vn 0.8773 0.4799 -0.0000
vn 0.8773 0.4404 0.1907
vn 0.8221 0.5225 0.2263
vn 0.3195 -0.0530 0.9461
vn 0.0000 -0.0562 0.9984
vn 0.0000 0.3377 0.9412
vn 0.3203 0.3199 0.8917
vn 0.8212 -0.0321 0.5697
vn 0.8776 -0.0267 0.4786
vn 0.8780 -0.2043 0.4329
vn 0.8203 -0.2441 0.5172
vn 0.8773 0.1621 0.4517
vn 0.8051 0.2003 0.5583
vn 0.8051 -0.0338 0.5922
vn 0.0000 0.0562 -0.9984
vn 0.0000 -0.3377 -0.9412
vn 0.3188 -0.9478 0.0000
vn 0.0000 -1.0000 0.0000
vn 0.0000 -0.9299 0.3678
vn 0.3188 -0.8814 0.3486
vn 0.8780 -0.4787 0.0000
vn 0.8780 -0.4452 0.1761
vn 0.8051 -0.5515 0.2181
vn 0.8051 -0.5931 0.0000
vn 0.0000 1.0000 -0.0000
vn 0.0000 0.9299 -0.3678
vn 0.8221 0.5225 -0.2263
vn 0.8773 0.4403 -0.1907
vn 0.3203 0.3199 -0.8916
vn 0.0000 0.3377 -0.9412
vn 0.0000 -0.0562 -0.9984
vn 0.3196 -0.0530 -0.9461
vn 0.8203 -0.2441 -0.5172
vn 0.8780 -0.2043 -0.4329
vn 0.8776 -0.0267 -0.4786
vn 0.8212 -0.0321 -0.5698
vn 0.8051 0.2003 -0.5582
vn 0.8773 0.1621 -0.4517
vn 0.8051 -0.0337 -0.5921
vn 0.0000 -0.3377 0.9412
vn 0.0000 0.0562 0.9984
vn 0.3188 -0.8814 -0.3486
vn 0.0000 -0.9299 -0.3678
vn 0.8051 -0.5515 -0.2181
vn 0.8780 -0.4452 -0.1761
vn 0.0000 0.9299 0.3678
vn 0.8221 0.3895 0.4153
vn 0.8773 0.3283 0.3501
vn 0.8221 0.1923 0.5359
vn 0.3203 0.6480 0.6910
vn 0.0000 0.6840 0.7295
vn 0.0000 0.9176 0.3975
vn 0.3203 0.8693 0.3765
vn 0.8203 -0.4172 0.3912
vn 0.8780 -0.3492 0.3275
vn 0.8203 -0.5318 0.2103
vn 0.8051 0.5442 0.2357
vn 0.8051 0.4057 0.4326
vn 0.0000 -0.6840 -0.7295
vn 0.0000 -0.9176 -0.3975
vn 0.3187 -0.6914 0.6484
vn 0.0000 -0.7295 0.6840
vn 0.0000 -0.4268 0.9044
vn 0.3188 -0.4045 0.8572
vn 0.8051 -0.2531 0.5364
vn 0.8051 -0.4326 0.4057
vn 0.0000 0.7295 -0.6840
vn 0.0000 0.4267 -0.9044
vn 0.8221 0.3895 -0.4153
vn 0.8221 0.1923 -0.5359
vn 0.8773 0.3283 -0.3501
vn 0.3203 0.6480 -0.6910
vn 0.3203 0.8693 -0.3765
vn 0.0000 0.9176 -0.3975
vn 0.0000 0.6840 -0.7295
vn 0.8203 -0.4172 -0.3912
vn 0.8203 -0.5318 -0.2103
vn 0.8780 -0.3492 -0.3275
vn 0.8051 0.4057 -0.4326
vn 0.8051 0.5442 -0.2357
vn 0.0000 -0.6840 0.7295
vn 0.0000 -0.9176 0.3975
vn 0.3188 -0.6914 -0.6483
vn 0.3188 -0.4045 -0.8572
vn 0.0000 -0.4267 -0.9044
vn 0.0000 -0.7295 -0.6840
vn 0.8051 -0.4326 -0.4057
vn 0.8051 -0.2531 -0.5364
vn 0.0000 0.7295 0.6840
vn 0.0000 0.4268 0.9044
vn 0.3203 0.9473 -0.0000
vn 0.8203 -0.5719 0.0000
vn 0.8051 0.5931 0.0000
vn 0.0000 -1.0000 -0.0000
# 95 vertex normals

vt 0.0033 0.1621 0.0000
vt 0.0033 0.1878 0.0000
vt 0.1275 0.1878 0.0000
vt 0.1275 0.1621 0.0000
vt 0.4999 0.1451 0.0000
vt 0.4999 0.0638 0.0000
vt 0.3758 0.0638 0.0000
vt 0.3758 0.1451 0.0000
vt 0.4999 0.1621 0.0000
vt 0.4999 0.1878 0.0000
vt 0.6143 0.1878 0.0000
vt 0.6143 0.1621 0.0000
vt 0.3758 0.1878 0.0000
vt 0.3758 0.2169 0.0000
vt 0.4999 0.2169 0.0000
vt 0.3758 0.3263 0.0000
vt 0.4999 0.3263 0.0000
vt 0.9575 0.1451 0.0000
vt 0.9575 0.0638 0.0000
vt 0.8431 0.0638 0.0000
vt 0.8431 0.1451 0.0000
vt 0.9575 0.1878 0.0000
vt 0.8431 0.1878 0.0000
vt 0.8431 0.2169 0.0000
vt 0.9575 0.2169 0.0000
vt 0.8431 0.3263 0.0000
vt 0.9575 0.3263 0.0000
vt 0.2516 0.1621 0.0000
vt 0.2516 0.1878 0.0000
vt 0.3758 0.1621 0.0000
vt 0.2516 0.1451 0.0000
vt 0.2516 0.0638 0.0000
vt 0.1275 0.0638 0.0000
vt 0.1275 0.1451 0.0000
vt 0.7287 0.1621 0.0000
vt 0.7287 0.1878 0.0000
vt 0.8431 0.1621 0.0000
vt 0.1275 0.2169 0.0000
vt 0.2516 0.2169 0.0000
vt 0.1275 0.3263 0.0000
vt 0.2516 0.3263 0.0000
vt 0.7287 0.1451 0.0000
vt 0.7287 0.0638 0.0000
vt 0.6143 0.0638 0.0000
vt 0.6143 0.1451 0.0000
vt 0.6143 0.2169 0.0000
vt 0.7287 0.2169 0.0000
vt 0.6143 0.3263 0.0000
vt 0.7287 0.3263 0.0000
vt 0.0033 0.0638 0.0000
vt 0.0033 0.1451 0.0000
vt 0.9575 0.1621 0.0000
vt 0.0033 0.2169 0.0000
vt 0.0033 0.3263 0.0000
# 54 texture coords

g sponza_45
f 1/1/1 2/2/2 3/3/3 
f 1/1/1 3/3/3 4/4/4 
f 5/5/5 6/6/6 7/7/7 
f 5/5/5 7/7/7 8/8/8 
f 9/9/9 10/10/10 11/11/11 
f 9/9/9 11/11/11 12/12/12 
f 10/10/10 13/13/13 14/14/14 
f 10/10/10 14/14/14 15/15/15 
f 15/15/16 14/14/17 16/16/17 
f 15/15/16 16/16/17 17/17/16 
f 18/18/18 19/19/19 20/20/20 
f 18/18/18 20/20/20 21/21/21 
f 22/22/22 23/23/23 24/24/24 
f 22/22/22 24/24/24 25/25/25 
f 25/25/26 24/24/27 26/26/27 
f 25/25/26 26/26/27 27/27/26 
f 28/4/28 29/3/29 2/2/2 
f 28/4/28 2/2/2 1/1/1 
f 30/8/30 31/7/31 32/6/32 
f 30/8/30 32/6/32 33/5/33 
f 34/12/34 35/11/35 36/10/36 
f 34/12/34 36/10/36 37/9/37 
f 38/14/38 39/13/39 36/10/36 
f 38/14/38 36/10/36 40/15/40 
f 41/16/41 38/14/41 40/15/42 
f 41/16/41 40/15/42 42/17/42 
f 43/21/43 44/20/44 19/19/19 
f 43/21/43 19/19/19 18/18/18 
f 45/24/45 46/23/46 22/22/22 
f 45/24/45 22/22/22 25/25/25 
f 47/26/47 45/24/47 25/25/26 
f 47/26/47 25/25/26 27/27/26 
f 48/28/48 49/29/49 13/13/13 
f 48/28/48 13/13/13 50/30/50 
f 51/31/51 52/32/52 53/33/53 
f 51/31/51 53/33/53 54/34/54 
f 55/35/55 56/36/56 23/23/23 
f 55/35/55 23/23/23 57/37/57 
f 49/29/49 3/3/3 58/38/58 
f 49/29/49 58/38/58 59/39/59 
f 59/39/60 58/38/61 60/40/61 
f 59/39/60 60/40/61 61/41/60 
f 62/42/62 63/43/63 64/44/64 
f 62/42/62 64/44/64 65/45/65 
f 56/36/56 11/11/11 66/46/66 
f 56/36/56 66/46/66 67/47/67 
f 67/47/68 66/46/69 68/48/69 
f 67/47/68 68/48/69 69/49/68 
f 70/28/70 71/30/71 39/13/39 
f 70/28/70 39/13/39 72/29/72 
f 73/31/73 74/34/74 75/33/75 
f 73/31/73 75/33/75 76/32/76 
f 77/35/77 78/37/78 46/23/46 
f 77/35/77 46/23/46 79/36/79 
f 80/39/80 81/38/81 29/3/29 
f 80/39/80 29/3/29 72/29/72 
f 82/41/82 83/40/83 81/38/83 
f 82/41/82 81/38/83 80/39/82 
f 84/42/84 85/45/85 86/44/86 
f 84/42/84 86/44/86 87/43/87 
f 88/47/88 89/46/89 35/11/35 
f 88/47/88 35/11/35 79/36/79 
f 90/49/90 91/48/91 89/46/91 
f 90/49/90 89/46/91 88/47/90 
f 4/4/4 3/3/3 49/29/49 
f 4/4/4 49/29/49 48/28/48 
f 8/8/8 7/7/7 52/32/52 
f 8/8/8 52/32/52 51/31/51 
f 12/12/12 11/11/11 56/36/56 
f 12/12/12 56/36/56 55/35/55 
f 13/13/13 49/29/49 59/39/59 
f 13/13/13 59/39/59 14/14/14 
f 14/14/17 59/39/60 61/41/60 
f 14/14/17 61/41/60 16/16/17 
f 21/21/21 20/20/20 63/43/63 
f 21/21/21 63/43/63 62/42/62 
f 23/23/23 56/36/56 67/47/67 
f 23/23/23 67/47/67 24/24/24 
f 24/24/27 67/47/68 69/49/68 
f 24/24/27 69/49/68 26/26/27 
f 28/4/28 70/28/70 72/29/72 
f 28/4/28 72/29/72 29/3/29 
f 30/8/30 73/31/73 76/32/76 
f 30/8/30 76/32/76 31/7/31 
f 34/12/34 77/35/77 79/36/79 
f 34/12/34 79/36/79 35/11/35 
f 38/14/38 80/39/80 72/29/72 
f 38/14/38 72/29/72 39/13/39 
f 41/16/41 82/41/82 80/39/82 
f 41/16/41 80/39/82 38/14/41 
f 43/21/43 84/42/84 87/43/87 
f 43/21/43 87/43/87 44/20/44 
f 45/24/45 88/47/88 79/36/79 
f 45/24/45 79/36/79 46/23/46 
f 47/26/47 90/49/90 88/47/90 
f 47/26/47 88/47/90 45/24/47 
f 50/30/50 13/13/13 10/10/10 
f 50/30/50 10/10/10 9/9/9 
f 54/34/54 53/33/53 92/50/26 
f 54/34/54 92/50/26 93/51/92 
f 57/37/57 23/23/23 22/22/22 
f 57/37/57 22/22/22 94/52/93 
f 3/3/3 2/2/2 95/53/94 
f 3/3/3 95/53/94 58/38/58 
f 58/38/61 95/53/95 96/54/95 
f 58/38/61 96/54/95 60/40/61 
f 65/45/65 64/44/64 6/6/6 
f 65/45/65 6/6/6 5/5/5 
f 11/11/11 10/10/10 15/15/15 
f 11/11/11 15/15/15 66/46/66 
f 66/46/69 15/15/16 17/17/16 
f 66/46/69 17/17/16 68/48/69 
f 71/30/71 37/9/37 36/10/36 
f 71/30/71 36/10/36 39/13/39 
f 74/34/74 93/51/92 92/50/26 
f 74/34/74 92/50/26 75/33/75 
f 78/37/78 94/52/93 22/22/22 
f 78/37/78 22/22/22 46/23/46 
f 81/38/81 95/53/94 2/2/2 
f 81/38/81 2/2/2 29/3/29 
f 83/40/83 96/54/95 95/53/95 
f 83/40/83 95/53/95 81/38/83 
f 85/45/85 33/5/33 32/6/32 
f 85/45/85 32/6/32 86/44/86 
f 89/46/89 40/15/40 36/10/36 
f 89/46/89 36/10/36 35/11/35 
f 91/48/91 42/17/42 40/15/42 
f 91/48/91 40/15/42 89/46/91 
f 8/8/8 50/30/50 9/9/9 
f 8/8/8 9/9/9 5/5/5 
f 21/21/21 57/37/57 94/52/93 
f 21/21/21 94/52/93 18/18/18 
f 33/5/33 37/9/37 71/30/71 
f 33/5/33 71/30/71 30/8/30 
f 18/18/18 94/52/93 78/37/78 
f 18/18/18 78/37/78 43/21/43 
f 54/34/54 4/4/4 48/28/48 
f 54/34/54 48/28/48 51/31/51 
f 65/45/65 12/12/12 55/35/55 
f 65/45/65 55/35/55 62/42/62 
f 73/31/73 70/28/70 28/4/28 
f 73/31/73 28/4/28 74/34/74 
f 84/42/84 77/35/77 34/12/34 
f 84/42/84 34/12/34 85/45/85 
f 51/31/51 48/28/48 50/30/50 
f 51/31/51 50/30/50 8/8/8 
f 62/42/62 55/35/55 57/37/57 
f 62/42/62 57/37/57 21/21/21 
f 30/8/30 71/30/71 70/28/70 
f 30/8/30 70/28/70 73/31/73 
f 43/21/43 78/37/78 77/35/77 
f 43/21/43 77/35/77 84/42/84 
f 93/51/92 1/1/1 4/4/4 
f 93/51/92 4/4/4 54/34/54 
f 5/5/5 9/9/9 12/12/12 
f 5/5/5 12/12/12 65/45/65 
f 74/34/74 28/4/28 1/1/1 
f 74/34/74 1/1/1 93/51/92 
f 85/45/85 34/12/34 37/9/37 
f 85/45/85 37/9/37 33/5/33 
# 160 faces

