# 3ds Max Wavefront OBJ Exporter v0.97b - (c)2007 guruware
# File Created: 21.02.2011 11:31:11

#
# object sponza_43
#

v  -57.3510 134.5698 -53.5734
v  -56.3979 134.3722 -53.5734
v  -56.3979 134.8535 -53.7392
v  -57.1597 135.0114 -53.7392
v  -58.0648 136.1721 -55.2680
v  -58.1652 136.8839 -55.2680
v  -58.1652 136.8839 -53.9408
v  -58.0648 136.1721 -53.9408
v  -58.5666 137.7935 -53.5734
v  -58.7910 136.9242 -53.5734
v  -58.3105 136.8933 -53.7393
v  -58.1310 137.5880 -53.7394
v  -59.1080 135.7978 -53.2188
v  -58.6550 135.9603 -53.5734
v  -59.2712 136.9551 -53.2188
v  -59.1080 135.7978 -55.2680
v  -59.2712 136.9551 -55.2680
v  -57.0492 138.4171 -55.2680
v  -56.3979 138.5412 -55.2680
v  -56.3979 138.5412 -53.9408
v  -57.0492 138.4171 -53.9408
v  -57.4569 139.4477 -53.2188
v  -57.2799 139.0001 -53.5734
v  -56.3979 139.1682 -53.5734
v  -56.3979 139.6495 -53.2188
v  -57.4569 139.4477 -55.2680
v  -56.3979 139.6495 -55.2680
v  -55.4447 134.5698 -53.5734
v  -55.6360 135.0114 -53.7392
v  -54.6306 136.8839 -55.2680
v  -54.7310 136.1721 -55.2680
v  -54.7310 136.1721 -53.9408
v  -54.6306 136.8839 -53.9408
v  -54.0048 136.9242 -53.5734
v  -54.2292 137.7935 -53.5734
v  -54.6648 137.5880 -53.7394
v  -54.4853 136.8933 -53.7393
v  -54.1408 135.9603 -53.5734
v  -53.6878 135.7978 -53.2188
v  -53.5245 136.9551 -53.2188
v  -53.6878 135.7978 -55.2680
v  -53.5245 136.9551 -55.2680
v  -55.7465 138.4171 -55.2680
v  -55.7465 138.4171 -53.9408
v  -55.5159 139.0001 -53.5734
v  -55.3389 139.4477 -53.2188
v  -55.3389 139.4477 -55.2680
v  -58.1471 135.1299 -53.5734
v  -57.7961 135.4591 -53.7392
v  -58.2020 136.1229 -53.7392
v  -57.1018 135.1451 -55.2680
v  -57.6897 135.5588 -55.2680
v  -57.6897 135.5588 -53.9408
v  -57.1018 135.1451 -53.9408
v  -58.0382 138.5195 -53.5734
v  -57.7087 138.1681 -53.7394
v  -57.1027 138.5522 -53.7394
v  -57.5423 134.1281 -53.2188
v  -58.4982 134.8007 -53.2188
v  -57.5423 134.1281 -55.2680
v  -58.4982 134.8007 -55.2680
v  -57.9995 137.5260 -55.2680
v  -57.6093 138.0621 -55.2680
v  -57.6093 138.0621 -53.9408
v  -57.9995 137.5260 -53.9408
v  -59.0018 137.9989 -53.2188
v  -58.3674 138.8705 -53.2188
v  -59.0018 137.9989 -55.2680
v  -58.3674 138.8705 -55.2680
v  -54.5938 136.1229 -53.7392
v  -54.9997 135.4591 -53.7392
v  -54.6486 135.1299 -53.5734
v  -55.6940 135.1451 -55.2680
v  -55.6940 135.1451 -53.9408
v  -55.1060 135.5588 -53.9408
v  -55.1060 135.5588 -55.2680
v  -55.6931 138.5522 -53.7394
v  -55.0871 138.1681 -53.7394
v  -54.7576 138.5195 -53.5734
v  -55.2534 134.1281 -53.2188
v  -54.2976 134.8007 -53.2188
v  -55.2534 134.1281 -55.2680
v  -54.2976 134.8007 -55.2680
v  -54.7963 137.5260 -55.2680
v  -54.7963 137.5260 -53.9408
v  -55.1865 138.0621 -53.9408
v  -55.1865 138.0621 -55.2680
v  -53.7939 137.9989 -53.2188
v  -54.4284 138.8705 -53.2188
v  -53.7939 137.9989 -55.2680
v  -54.4284 138.8705 -55.2680
v  -56.3979 134.9992 -55.2680
v  -56.3979 134.9992 -53.9408
v  -56.3979 138.6865 -53.7394
v  -56.3979 133.8909 -53.2188
v  -56.3979 133.8909 -55.2680
# 96 vertices

vn 0.1907 0.4403 0.8773
vn 0.0000 0.4799 0.8773
vn 0.0000 0.5694 0.8221
vn 0.2263 0.5225 0.8221
vn 0.9412 0.3377 -0.0000
vn 0.9984 -0.0562 -0.0000
vn 0.9461 -0.0530 0.3195
vn 0.8917 0.3199 0.3203
vn 0.4329 -0.2043 0.8780
vn 0.4786 -0.0267 0.8776
vn 0.5697 -0.0321 0.8212
vn 0.5172 -0.2441 0.8203
vn 0.5582 0.2003 0.8051
vn 0.4517 0.1621 0.8773
vn 0.5921 -0.0337 0.8051
vn -0.9412 -0.3377 -0.0000
vn -0.9984 0.0562 -0.0000
vn 0.3678 -0.9299 -0.0000
vn 0.0000 -1.0000 -0.0000
vn 0.0000 -0.9478 0.3188
vn 0.3486 -0.8814 0.3188
vn 0.2181 -0.5515 0.8051
vn 0.1761 -0.4452 0.8780
vn 0.0000 -0.4787 0.8780
vn 0.0000 -0.5931 0.8051
vn -0.3678 0.9299 -0.0000
vn -0.0000 1.0000 -0.0000
vn -0.1907 0.4403 0.8773
vn -0.2263 0.5225 0.8221
vn -0.9984 -0.0562 -0.0000
vn -0.9412 0.3377 -0.0000
vn -0.8917 0.3199 0.3203
vn -0.9461 -0.0530 0.3196
vn -0.4786 -0.0267 0.8776
vn -0.4329 -0.2043 0.8780
vn -0.5172 -0.2441 0.8203
vn -0.5698 -0.0321 0.8212
vn -0.4517 0.1621 0.8773
vn -0.5582 0.2003 0.8052
vn -0.5921 -0.0337 0.8051
vn 0.9984 0.0562 -0.0000
vn 0.9412 -0.3377 -0.0000
vn -0.3678 -0.9299 -0.0000
vn -0.3486 -0.8814 0.3188
vn -0.1761 -0.4452 0.8780
vn -0.2181 -0.5515 0.8051
vn 0.3678 0.9299 -0.0000
vn 0.3501 0.3283 0.8773
vn 0.4153 0.3895 0.8221
vn 0.5359 0.1923 0.8221
vn 0.3975 0.9176 -0.0000
vn 0.7295 0.6840 -0.0000
vn 0.6910 0.6480 0.3203
vn 0.3765 0.8693 0.3203
vn 0.3275 -0.3492 0.8780
vn 0.3912 -0.4172 0.8203
vn 0.2104 -0.5318 0.8203
vn 0.2357 0.5442 0.8051
vn 0.4326 0.4057 0.8051
vn -0.3975 -0.9176 -0.0000
vn -0.7295 -0.6840 -0.0000
vn 0.9044 -0.4267 -0.0000
vn 0.6840 -0.7295 -0.0000
vn 0.6484 -0.6914 0.3188
vn 0.8572 -0.4045 0.3188
vn 0.5364 -0.2531 0.8051
vn 0.4057 -0.4326 0.8051
vn -0.9044 0.4267 -0.0000
vn -0.6840 0.7295 -0.0000
vn -0.5359 0.1923 0.8221
vn -0.4153 0.3895 0.8221
vn -0.3501 0.3282 0.8773
vn -0.3975 0.9176 -0.0000
vn -0.3765 0.8693 0.3203
vn -0.6910 0.6480 0.3203
vn -0.7295 0.6840 -0.0000
vn -0.2103 -0.5318 0.8203
vn -0.3912 -0.4172 0.8203
vn -0.3275 -0.3492 0.8780
vn -0.2357 0.5442 0.8051
vn -0.4326 0.4057 0.8051
vn 0.3975 -0.9176 -0.0000
vn 0.7295 -0.6840 -0.0000
vn -0.9044 -0.4267 -0.0000
vn -0.8572 -0.4045 0.3188
vn -0.6483 -0.6914 0.3188
vn -0.6840 -0.7295 -0.0000
vn -0.5364 -0.2531 0.8051
vn -0.4057 -0.4326 0.8051
vn 0.9044 0.4268 -0.0000
vn 0.6840 0.7295 -0.0000
vn -0.0000 0.9473 0.3203
vn 0.0000 -0.5719 0.8203
vn 0.0000 0.5931 0.8051
vn -0.0000 -1.0000 -0.0000
# 95 vertex normals

vt 0.1275 0.1878 0.0000
vt 0.0033 0.1878 0.0000
vt 0.0033 0.1621 0.0000
vt 0.1275 0.1621 0.0000
vt 0.3758 0.0638 0.0000
vt 0.4999 0.0638 0.0000
vt 0.4999 0.1451 0.0000
vt 0.3758 0.1451 0.0000
vt 0.6143 0.1878 0.0000
vt 0.4999 0.1878 0.0000
vt 0.4999 0.1621 0.0000
vt 0.6143 0.1621 0.0000
vt 0.3758 0.2169 0.0000
vt 0.3758 0.1878 0.0000
vt 0.4999 0.2169 0.0000
vt 0.3758 0.3263 0.0000
vt 0.4999 0.3263 0.0000
vt 0.8431 0.0638 0.0000
vt 0.9575 0.0638 0.0000
vt 0.9575 0.1451 0.0000
vt 0.8431 0.1451 0.0000
vt 0.8431 0.2169 0.0000
vt 0.8431 0.1878 0.0000
vt 0.9575 0.1878 0.0000
vt 0.9575 0.2169 0.0000
vt 0.8431 0.3263 0.0000
vt 0.9575 0.3263 0.0000
vt 0.2516 0.1878 0.0000
vt 0.2516 0.1621 0.0000
vt 0.3758 0.1621 0.0000
vt 0.1275 0.0638 0.0000
vt 0.2516 0.0638 0.0000
vt 0.2516 0.1451 0.0000
vt 0.1275 0.1451 0.0000
vt 0.7287 0.1878 0.0000
vt 0.7287 0.1621 0.0000
vt 0.8431 0.1621 0.0000
vt 0.1275 0.2169 0.0000
vt 0.2516 0.2169 0.0000
vt 0.1275 0.3263 0.0000
vt 0.2516 0.3263 0.0000
vt 0.6143 0.0638 0.0000
vt 0.7287 0.0638 0.0000
vt 0.7287 0.1451 0.0000
vt 0.6143 0.1451 0.0000
vt 0.6143 0.2169 0.0000
vt 0.7287 0.2169 0.0000
vt 0.6143 0.3263 0.0000
vt 0.7287 0.3263 0.0000
vt 0.0033 0.0638 0.0000
vt 0.0033 0.1451 0.0000
vt 0.9575 0.1621 0.0000
vt 0.0033 0.2169 0.0000
vt 0.0033 0.3263 0.0000
# 54 texture coords

g sponza_43
f 1/1/1 2/2/2 3/3/3 
f 1/1/1 3/3/3 4/4/4 
f 5/5/5 6/6/6 7/7/7 
f 5/5/5 7/7/7 8/8/8 
f 9/9/9 10/10/10 11/11/11 
f 9/9/9 11/11/11 12/12/12 
f 13/13/13 14/14/14 10/10/10 
f 13/13/13 10/10/10 15/15/15 
f 16/16/16 13/13/16 15/15/17 
f 16/16/16 15/15/17 17/17/17 
f 18/18/18 19/19/19 20/20/20 
f 18/18/18 20/20/20 21/21/21 
f 22/22/22 23/23/23 24/24/24 
f 22/22/22 24/24/24 25/25/25 
f 26/26/26 22/22/26 25/25/27 
f 26/26/26 25/25/27 27/27/27 
f 2/2/2 28/1/28 29/4/29 
f 2/2/2 29/4/29 3/3/3 
f 30/6/30 31/5/31 32/8/32 
f 30/6/30 32/8/32 33/7/33 
f 34/10/34 35/9/35 36/12/36 
f 34/10/34 36/12/36 37/11/37 
f 34/10/34 38/14/38 39/13/39 
f 34/10/34 39/13/39 40/15/40 
f 40/15/41 39/13/42 41/16/42 
f 40/15/41 41/16/42 42/17/41 
f 19/19/19 43/18/43 44/21/44 
f 19/19/19 44/21/44 20/20/20 
f 24/24/24 45/23/45 46/22/46 
f 24/24/24 46/22/46 25/25/25 
f 25/25/27 46/22/47 47/26/47 
f 25/25/27 47/26/47 27/27/27 
f 14/14/14 48/28/48 49/29/49 
f 14/14/14 49/29/49 50/30/50 
f 51/31/51 52/32/52 53/33/53 
f 51/31/51 53/33/53 54/34/54 
f 23/23/23 55/35/55 56/36/56 
f 23/23/23 56/36/56 57/37/57 
f 58/38/58 1/1/1 48/28/48 
f 58/38/58 48/28/48 59/39/59 
f 60/40/60 58/38/60 59/39/61 
f 60/40/60 59/39/61 61/41/61 
f 62/42/62 63/43/63 64/44/64 
f 62/42/62 64/44/64 65/45/65 
f 66/46/66 9/9/9 55/35/55 
f 66/46/66 55/35/55 67/47/67 
f 68/48/68 66/46/68 67/47/69 
f 68/48/68 67/47/69 69/49/69 
f 38/14/38 70/30/70 71/29/71 
f 38/14/38 71/29/71 72/28/72 
f 73/31/73 74/34/74 75/33/75 
f 73/31/73 75/33/75 76/32/76 
f 45/23/45 77/37/77 78/36/78 
f 45/23/45 78/36/78 79/35/79 
f 28/1/28 80/38/80 81/39/81 
f 28/1/28 81/39/81 72/28/72 
f 80/38/82 82/40/82 83/41/83 
f 80/38/82 83/41/83 81/39/83 
f 84/42/84 85/45/85 86/44/86 
f 84/42/84 86/44/86 87/43/87 
f 35/9/35 88/46/88 89/47/89 
f 35/9/35 89/47/89 79/35/79 
f 88/46/90 90/48/90 91/49/91 
f 88/46/90 91/49/91 89/47/91 
f 48/28/48 1/1/1 4/4/4 
f 48/28/48 4/4/4 49/29/49 
f 52/32/52 5/5/5 8/8/8 
f 52/32/52 8/8/8 53/33/53 
f 55/35/55 9/9/9 12/12/12 
f 55/35/55 12/12/12 56/36/56 
f 59/39/59 48/28/48 14/14/14 
f 59/39/59 14/14/14 13/13/13 
f 61/41/61 59/39/61 13/13/16 
f 61/41/61 13/13/16 16/16/16 
f 63/43/63 18/18/18 21/21/21 
f 63/43/63 21/21/21 64/44/64 
f 67/47/67 55/35/55 23/23/23 
f 67/47/67 23/23/23 22/22/22 
f 69/49/69 67/47/69 22/22/26 
f 69/49/69 22/22/26 26/26/26 
f 72/28/72 71/29/71 29/4/29 
f 72/28/72 29/4/29 28/1/28 
f 76/32/76 75/33/75 32/8/32 
f 76/32/76 32/8/32 31/5/31 
f 79/35/79 78/36/78 36/12/36 
f 79/35/79 36/12/36 35/9/35 
f 72/28/72 81/39/81 39/13/39 
f 72/28/72 39/13/39 38/14/38 
f 81/39/83 83/41/83 41/16/42 
f 81/39/83 41/16/42 39/13/42 
f 87/43/87 86/44/86 44/21/44 
f 87/43/87 44/21/44 43/18/43 
f 79/35/79 89/47/89 46/22/46 
f 79/35/79 46/22/46 45/23/45 
f 89/47/91 91/49/91 47/26/47 
f 89/47/91 47/26/47 46/22/47 
f 10/10/10 14/14/14 50/30/50 
f 10/10/10 50/30/50 11/11/11 
f 92/50/27 51/31/51 54/34/54 
f 92/50/27 54/34/54 93/51/92 
f 24/24/24 23/23/23 57/37/57 
f 24/24/24 57/37/57 94/52/93 
f 95/53/94 2/2/2 1/1/1 
f 95/53/94 1/1/1 58/38/58 
f 96/54/95 95/53/95 58/38/60 
f 96/54/95 58/38/60 60/40/60 
f 6/6/6 62/42/62 65/45/65 
f 6/6/6 65/45/65 7/7/7 
f 15/15/15 10/10/10 9/9/9 
f 15/15/15 9/9/9 66/46/66 
f 17/17/17 15/15/17 66/46/68 
f 17/17/17 66/46/68 68/48/68 
f 34/10/34 37/11/37 70/30/70 
f 34/10/34 70/30/70 38/14/38 
f 92/50/27 93/51/92 74/34/74 
f 92/50/27 74/34/74 73/31/73 
f 24/24/24 94/52/93 77/37/77 
f 24/24/24 77/37/77 45/23/45 
f 2/2/2 95/53/94 80/38/80 
f 2/2/2 80/38/80 28/1/28 
f 95/53/95 96/54/95 82/40/82 
f 95/53/95 82/40/82 80/38/82 
f 30/6/30 33/7/33 85/45/85 
f 30/6/30 85/45/85 84/42/84 
f 34/10/34 40/15/40 88/46/88 
f 34/10/34 88/46/88 35/9/35 
f 40/15/41 42/17/41 90/48/90 
f 40/15/41 90/48/90 88/46/90 
f 11/11/11 50/30/50 8/8/8 
f 11/11/11 8/8/8 7/7/7 
f 94/52/93 57/37/57 21/21/21 
f 94/52/93 21/21/21 20/20/20 
f 70/30/70 37/11/37 33/7/33 
f 70/30/70 33/7/33 32/8/32 
f 77/37/77 94/52/93 20/20/20 
f 77/37/77 20/20/20 44/21/44 
f 49/29/49 4/4/4 54/34/54 
f 49/29/49 54/34/54 53/33/53 
f 56/36/56 12/12/12 65/45/65 
f 56/36/56 65/45/65 64/44/64 
f 29/4/29 71/29/71 75/33/75 
f 29/4/29 75/33/75 74/34/74 
f 36/12/36 78/36/78 86/44/86 
f 36/12/36 86/44/86 85/45/85 
f 50/30/50 49/29/49 53/33/53 
f 50/30/50 53/33/53 8/8/8 
f 57/37/57 56/36/56 64/44/64 
f 57/37/57 64/44/64 21/21/21 
f 71/29/71 70/30/70 32/8/32 
f 71/29/71 32/8/32 75/33/75 
f 78/36/78 77/37/77 44/21/44 
f 78/36/78 44/21/44 86/44/86 
f 4/4/4 3/3/3 93/51/92 
f 4/4/4 93/51/92 54/34/54 
f 12/12/12 11/11/11 7/7/7 
f 12/12/12 7/7/7 65/45/65 
f 3/3/3 29/4/29 74/34/74 
f 3/3/3 74/34/74 93/51/92 
f 37/11/37 36/12/36 85/45/85 
f 37/11/37 85/45/85 33/7/33 
# 160 faces

