# 3ds Max Wavefront OBJ Exporter v0.97b - (c)2007 guruware
# File Created: 21.02.2011 11:31:45

#
# object sponza_270
#

v  19.1726 95.4954 -9.0752
v  19.1726 96.5349 -12.9548
v  19.2852 96.5058 -12.9626
v  19.2852 95.4662 -9.0830
v  19.0901 95.5750 -9.0539
v  19.0901 96.6145 -12.9335
v  19.0600 95.6838 -9.0247
v  19.0600 96.7233 -12.9043
v  19.0901 95.7925 -8.9956
v  19.0901 96.8321 -12.8752
v  19.1726 95.8722 -8.9743
v  19.1726 96.9117 -12.8539
v  19.2852 95.9013 -8.9664
v  19.2852 96.9409 -12.8460
v  19.3978 95.8722 -8.9743
v  19.3978 96.9117 -12.8539
v  19.4802 95.7925 -8.9956
v  19.4802 96.8321 -12.8752
v  19.5104 95.6838 -9.0247
v  19.5104 96.7233 -12.9043
v  19.4802 95.5750 -9.0539
v  19.4802 96.6145 -12.9335
v  19.3978 95.4954 -9.0752
v  19.3978 96.5349 -12.9548
v  19.1726 97.5744 -16.8344
v  19.2852 97.5453 -16.8422
v  19.0901 97.6541 -16.8131
v  19.0600 97.7628 -16.7839
v  19.0901 97.8716 -16.7548
v  19.1726 97.9512 -16.7335
v  19.2852 97.9804 -16.7256
v  19.3978 97.9512 -16.7335
v  19.4802 97.8716 -16.7548
v  19.5104 97.7628 -16.7839
v  19.4802 97.6541 -16.8131
v  19.3978 97.5744 -16.8344
v  19.1726 98.6140 -20.7140
v  19.2852 98.5848 -20.7218
v  19.0901 98.6936 -20.6927
v  19.0600 98.8024 -20.6635
v  19.0901 98.9112 -20.6344
v  19.1726 98.9908 -20.6131
v  19.2852 99.0199 -20.6052
v  19.3978 98.9908 -20.6131
v  19.4802 98.9112 -20.6344
v  19.5104 98.8024 -20.6635
v  19.4802 98.6936 -20.6927
v  19.3978 98.6140 -20.7140
v  19.2324 100.7363 -28.1179
v  19.2852 100.7069 -28.1258
v  19.2547 100.7148 -28.1236
v  19.2324 100.7952 -28.1021
v  19.2547 100.8167 -28.0963
v  19.2852 100.8246 -28.0942
v  19.3156 100.8167 -28.0963
v  19.3380 100.7952 -28.1021
v  19.3380 100.7363 -28.1179
v  19.3461 100.7658 -28.1100
v  19.2242 100.7658 -28.1100
v  19.3156 100.7148 -28.1236
v  19.1726 99.8889 -25.4723
v  19.1306 99.9060 -25.8169
v  19.2852 99.8660 -25.8276
v  19.2852 99.8598 -25.4801
v  19.0901 99.9686 -25.4509
v  19.0174 100.0153 -25.7876
v  19.0600 100.0773 -25.4218
v  18.9760 100.1646 -25.7476
v  19.0901 100.1861 -25.3926
v  19.0174 100.3140 -25.7075
v  19.1726 100.2658 -25.3713
v  19.1306 100.4233 -25.6782
v  19.2852 100.2949 -25.3635
v  19.2852 100.4633 -25.6675
v  19.3978 100.2658 -25.3713
v  19.4398 100.4233 -25.6782
v  19.4802 100.1861 -25.3926
v  19.5530 100.3140 -25.7075
v  19.5104 100.0773 -25.4218
v  19.5944 100.1646 -25.7476
v  19.4802 99.9686 -25.4509
v  19.5530 100.0153 -25.7876
v  19.3978 99.8889 -25.4723
v  19.4398 99.9060 -25.8169
v  19.0919 100.1032 -26.8115
v  19.1203 100.3203 -27.4913
v  19.2852 100.2776 -27.5028
v  19.2852 100.0532 -26.8249
v  18.9505 100.2399 -26.7749
v  18.9996 100.4369 -27.4601
v  18.8987 100.4265 -26.7249
v  18.9554 100.5961 -27.4174
v  18.9505 100.6132 -26.6748
v  18.9996 100.7554 -27.3747
v  19.0919 100.7498 -26.6382
v  19.1203 100.8720 -27.3435
v  19.2852 100.7998 -26.6248
v  19.2852 100.9146 -27.3321
v  19.4784 100.7498 -26.6382
v  19.4501 100.8720 -27.3435
v  19.6199 100.6132 -26.6748
v  19.5708 100.7554 -27.3747
v  19.6717 100.4265 -26.7249
v  19.6149 100.5961 -27.4174
v  19.6199 100.2399 -26.7749
v  19.5708 100.4369 -27.4601
v  19.4784 100.1032 -26.8115
v  19.4501 100.3203 -27.4913
v  19.1323 99.9961 -26.1419
v  19.2852 99.9565 -26.1525
v  19.0203 100.1042 -26.1129
v  18.9793 100.2519 -26.0733
v  19.0203 100.3996 -26.0337
v  19.1323 100.5078 -26.0048
v  19.2852 100.5474 -25.9942
v  19.4381 100.5078 -26.0048
v  19.5501 100.3996 -26.0337
v  19.5910 100.2519 -26.0733
v  19.5501 100.1042 -26.1129
v  19.4381 99.9961 -26.1419
# 120 vertices

vn -0.5000 -0.8365 -0.2241
vn 0.0000 -0.9659 -0.2588
vn -0.8660 -0.4830 -0.1294
vn -1.0000 0.0000 -0.0000
vn -0.8660 0.4830 0.1294
vn -0.5000 0.8365 0.2241
vn 0.0000 0.9659 0.2588
vn 0.5000 0.8365 0.2241
vn 0.8660 0.4830 0.1294
vn 1.0000 0.0000 -0.0000
vn 0.8660 -0.4830 -0.1294
vn 0.5000 -0.8365 -0.2241
vn -0.0000 0.2588 -0.9659
vn 0.0000 0.2588 -0.9659
vn 0.0001 0.2588 -0.9659
vn -0.0001 0.2588 -0.9659
vn -0.4961 -0.8622 -0.1024
vn -0.4967 -0.8606 -0.1121
vn 0.0000 -0.9892 -0.1466
vn 0.0000 -0.9906 -0.1368
vn -0.8593 -0.5114 -0.0084
vn -0.8603 -0.5094 -0.0180
vn -0.9923 -0.0322 0.1200
vn -0.9934 -0.0296 0.1105
vn -0.8593 0.4471 0.2484
vn -0.8603 0.4502 0.2391
vn -0.4961 0.7979 0.3424
vn -0.4967 0.8014 0.3332
vn 0.0000 0.9263 0.3768
vn 0.0000 0.9300 0.3677
vn 0.4961 0.7979 0.3424
vn 0.4967 0.8014 0.3332
vn 0.8593 0.4471 0.2484
vn 0.8603 0.4502 0.2391
vn 0.9923 -0.0322 0.1200
vn 0.9934 -0.0296 0.1105
vn 0.8593 -0.5114 -0.0084
vn 0.8603 -0.5094 -0.0180
vn 0.4961 -0.8622 -0.1024
vn 0.4967 -0.8606 -0.1121
vn -0.5006 -0.8432 -0.1963
vn -0.4900 -0.7694 -0.4097
vn 0.0000 -0.8974 -0.4413
vn 0.0000 -0.9733 -0.2296
vn -0.8665 -0.4879 -0.1051
vn -0.8477 -0.4204 -0.3236
vn -0.9998 -0.0033 0.0192
vn -0.9770 0.0548 -0.2063
vn -0.8652 0.4805 0.1434
vn -0.8444 0.5282 -0.0894
vn -0.4992 0.8342 0.2342
vn -0.4868 0.8735 -0.0042
vn 0.0000 0.9636 0.2674
vn 0.0000 0.9996 0.0270
vn 0.4992 0.8342 0.2342
vn 0.4868 0.8735 -0.0042
vn 0.8652 0.4805 0.1434
vn 0.8444 0.5282 -0.0894
vn 0.9998 -0.0033 0.0192
vn 0.9770 0.0548 -0.2063
vn 0.8665 -0.4879 -0.1051
vn 0.8477 -0.4204 -0.3236
vn 0.5006 -0.8432 -0.1963
vn 0.4900 -0.7694 -0.4097
vn -0.4692 -0.7010 -0.5371
vn -0.0000 -0.8234 -0.5674
vn -0.8117 -0.3670 -0.4544
vn -0.9357 0.0880 -0.3416
vn -0.8089 0.5414 -0.2293
vn -0.4664 0.8722 -0.1473
vn -0.0000 0.9931 -0.1173
vn 0.4664 0.8722 -0.1473
vn 0.8089 0.5414 -0.2293
vn 0.9357 0.0880 -0.3416
vn 0.8117 -0.3670 -0.4544
vn 0.4692 -0.7010 -0.5371
vn -0.4992 -0.8495 -0.1706
vn 0.0000 -0.9787 -0.2052
vn -0.8647 -0.4965 -0.0760
vn -0.9985 -0.0142 0.0532
vn -0.8647 0.4680 0.1824
vn -0.4992 0.8210 0.2770
vn 0.0000 0.9502 0.3116
vn 0.4992 0.8210 0.2770
vn 0.8647 0.4680 0.1824
vn 0.9985 -0.0143 0.0532
vn 0.8647 -0.4965 -0.0760
vn 0.4992 -0.8495 -0.1706
# 88 vertex normals

vt 0.9633 0.0053 0.0000
vt 0.9633 0.5241 0.0000
vt 0.9876 0.5241 0.0000
vt 0.9876 0.0053 0.0000
vt 0.9391 0.0053 0.0000
vt 0.9391 0.5241 0.0000
vt 0.9148 0.0053 0.0000
vt 0.9148 0.5241 0.0000
vt 0.8906 0.0053 0.0000
vt 0.8906 0.5241 0.0000
vt 0.8663 0.0053 0.0000
vt 0.8663 0.5241 0.0000
vt 0.8421 0.0053 0.0000
vt 0.8421 0.5241 0.0000
vt 0.8178 0.0053 0.0000
vt 0.8178 0.5241 0.0000
vt 0.7936 0.0053 0.0000
vt 0.7936 0.5241 0.0000
vt 0.7694 0.0053 0.0000
vt 0.7694 0.5241 0.0000
vt 0.7451 0.0053 0.0000
vt 0.7451 0.5241 0.0000
vt 0.7209 0.0053 0.0000
vt 0.7209 0.5241 0.0000
vt 0.6966 0.0053 0.0000
vt 0.6966 0.5241 0.0000
vt 0.9918 0.0129 0.0000
vt 0.9633 0.6416 0.0000
vt 0.9633 0.6851 0.0000
vt 0.9876 0.6851 0.0000
vt 0.9876 0.6416 0.0000
vt 0.9391 0.6416 0.0000
vt 0.9391 0.6851 0.0000
vt 0.9148 0.6416 0.0000
vt 0.9148 0.6851 0.0000
vt 0.8906 0.6416 0.0000
vt 0.8906 0.6851 0.0000
vt 0.8663 0.6416 0.0000
vt 0.8663 0.6851 0.0000
vt 0.8421 0.6416 0.0000
vt 0.8421 0.6851 0.0000
vt 0.8178 0.6416 0.0000
vt 0.8178 0.6851 0.0000
vt 0.7936 0.6416 0.0000
vt 0.7936 0.6851 0.0000
vt 0.7694 0.6416 0.0000
vt 0.7694 0.6851 0.0000
vt 0.7451 0.6416 0.0000
vt 0.7451 0.6851 0.0000
vt 0.7209 0.6416 0.0000
vt 0.7209 0.6851 0.0000
vt 0.6966 0.6416 0.0000
vt 0.6966 0.6851 0.0000
vt 0.9633 0.8158 0.0000
vt 0.9633 0.9029 0.0000
vt 0.9876 0.9029 0.0000
vt 0.9876 0.8158 0.0000
vt 0.9391 0.8158 0.0000
vt 0.9391 0.9029 0.0000
vt 0.9148 0.8158 0.0000
vt 0.9148 0.9029 0.0000
vt 0.8906 0.8158 0.0000
vt 0.8906 0.9029 0.0000
vt 0.8663 0.8158 0.0000
vt 0.8663 0.9029 0.0000
vt 0.8421 0.8158 0.0000
vt 0.8421 0.9029 0.0000
vt 0.8178 0.8158 0.0000
vt 0.8178 0.9029 0.0000
vt 0.7936 0.8158 0.0000
vt 0.7936 0.9029 0.0000
vt 0.7694 0.8158 0.0000
vt 0.7694 0.9029 0.0000
vt 0.7451 0.8158 0.0000
vt 0.7451 0.9029 0.0000
vt 0.7209 0.8158 0.0000
vt 0.7209 0.9029 0.0000
vt 0.6966 0.8158 0.0000
vt 0.6966 0.9029 0.0000
vt 0.9633 0.9900 0.0000
vt 0.9876 0.9900 0.0000
vt 0.9391 0.9900 0.0000
vt 0.9148 0.9900 0.0000
vt 0.8906 0.9900 0.0000
vt 0.8663 0.9900 0.0000
vt 0.8421 0.9900 0.0000
vt 0.8178 0.9900 0.0000
vt 0.7936 0.9900 0.0000
vt 0.7694 0.9900 0.0000
vt 0.7451 0.9900 0.0000
vt 0.7209 0.9900 0.0000
vt 0.6966 0.9900 0.0000
vt 0.9633 0.7287 0.0000
vt 0.9876 0.7287 0.0000
vt 0.9391 0.7287 0.0000
vt 0.9148 0.7287 0.0000
vt 0.8906 0.7287 0.0000
vt 0.8663 0.7287 0.0000
vt 0.8421 0.7287 0.0000
vt 0.8178 0.7287 0.0000
vt 0.7936 0.7287 0.0000
vt 0.7694 0.7287 0.0000
vt 0.7451 0.7287 0.0000
vt 0.7209 0.7287 0.0000
vt 0.6966 0.7287 0.0000
# 105 texture coords

g sponza_270
f 1/1/1 2/2/1 3/3/2 
f 1/1/1 3/3/2 4/4/2 
f 5/5/3 6/6/3 2/2/1 
f 5/5/3 2/2/1 1/1/1 
f 7/7/4 8/8/4 6/6/3 
f 7/7/4 6/6/3 5/5/3 
f 9/9/5 10/10/5 8/8/4 
f 9/9/5 8/8/4 7/7/4 
f 11/11/6 12/12/6 10/10/5 
f 11/11/6 10/10/5 9/9/5 
f 13/13/7 14/14/7 12/12/6 
f 13/13/7 12/12/6 11/11/6 
f 15/15/8 16/16/8 14/14/7 
f 15/15/8 14/14/7 13/13/7 
f 17/17/9 18/18/9 16/16/8 
f 17/17/9 16/16/8 15/15/8 
f 19/19/10 20/20/10 18/18/9 
f 19/19/10 18/18/9 17/17/9 
f 21/21/11 22/22/11 20/20/10 
f 21/21/11 20/20/10 19/19/10 
f 23/23/12 24/24/12 22/22/11 
f 23/23/12 22/22/11 21/21/11 
f 4/25/2 3/26/2 24/24/12 
f 4/25/2 24/24/12 23/23/12 
f 2/1/1 25/2/1 26/3/2 
f 2/1/1 26/3/2 3/4/2 
f 6/5/3 27/6/3 25/2/1 
f 6/5/3 25/2/1 2/1/1 
f 8/7/4 28/8/4 27/6/3 
f 8/7/4 27/6/3 6/5/3 
f 10/9/5 29/10/5 28/8/4 
f 10/9/5 28/8/4 8/7/4 
f 12/11/6 30/12/6 29/10/5 
f 12/11/6 29/10/5 10/9/5 
f 14/13/7 31/14/7 30/12/6 
f 14/13/7 30/12/6 12/11/6 
f 16/15/8 32/16/8 31/14/7 
f 16/15/8 31/14/7 14/13/7 
f 18/17/9 33/18/9 32/16/8 
f 18/17/9 32/16/8 16/15/8 
f 20/19/10 34/20/10 33/18/9 
f 20/19/10 33/18/9 18/17/9 
f 22/21/11 35/22/11 34/20/10 
f 22/21/11 34/20/10 20/19/10 
f 24/23/12 36/24/12 35/22/11 
f 24/23/12 35/22/11 22/21/11 
f 3/25/2 26/26/2 36/24/12 
f 3/25/2 36/24/12 24/23/12 
f 25/1/1 37/2/1 38/3/2 
f 25/1/1 38/3/2 26/4/2 
f 27/5/3 39/6/3 37/2/1 
f 27/5/3 37/2/1 25/1/1 
f 28/7/4 40/8/4 39/6/3 
f 28/7/4 39/6/3 27/5/3 
f 29/9/5 41/10/5 40/8/4 
f 29/9/5 40/8/4 28/7/4 
f 30/11/6 42/12/6 41/10/5 
f 30/11/6 41/10/5 29/9/5 
f 31/13/7 43/14/7 42/12/6 
f 31/13/7 42/12/6 30/11/6 
f 32/15/8 44/16/8 43/14/7 
f 32/15/8 43/14/7 31/13/7 
f 33/17/9 45/18/9 44/16/8 
f 33/17/9 44/16/8 32/15/8 
f 34/19/10 46/20/10 45/18/9 
f 34/19/10 45/18/9 33/17/9 
f 35/21/11 47/22/11 46/20/10 
f 35/21/11 46/20/10 34/19/10 
f 36/23/12 48/24/12 47/22/11 
f 36/23/12 47/22/11 35/21/11 
f 26/25/2 38/26/2 48/24/12 
f 26/25/2 48/24/12 36/23/12 
f 49/27/13 50/27/14 51/27/13 
f 52/27/14 53/27/14 54/27/14 
f 52/27/14 54/27/14 49/27/13 
f 54/27/14 55/27/13 56/27/13 
f 54/27/14 56/27/13 57/27/14 
f 56/27/13 58/27/15 57/27/14 
f 57/27/14 50/27/14 49/27/13 
f 57/27/14 49/27/13 54/27/14 
f 59/27/16 52/27/14 49/27/13 
f 60/27/14 50/27/14 57/27/14 
f 61/28/17 62/29/18 63/30/19 
f 61/28/17 63/30/19 64/31/20 
f 65/32/21 66/33/22 62/29/18 
f 65/32/21 62/29/18 61/28/17 
f 67/34/23 68/35/24 66/33/22 
f 67/34/23 66/33/22 65/32/21 
f 69/36/25 70/37/26 68/35/24 
f 69/36/25 68/35/24 67/34/23 
f 71/38/27 72/39/28 70/37/26 
f 71/38/27 70/37/26 69/36/25 
f 73/40/29 74/41/30 72/39/28 
f 73/40/29 72/39/28 71/38/27 
f 75/42/31 76/43/32 74/41/30 
f 75/42/31 74/41/30 73/40/29 
f 77/44/33 78/45/34 76/43/32 
f 77/44/33 76/43/32 75/42/31 
f 79/46/35 80/47/36 78/45/34 
f 79/46/35 78/45/34 77/44/33 
f 81/48/37 82/49/38 80/47/36 
f 81/48/37 80/47/36 79/46/35 
f 83/50/39 84/51/40 82/49/38 
f 83/50/39 82/49/38 81/48/37 
f 64/52/20 63/53/19 84/51/40 
f 64/52/20 84/51/40 83/50/39 
f 85/54/41 86/55/42 87/56/43 
f 85/54/41 87/56/43 88/57/44 
f 85/54/41 89/58/45 90/59/46 
f 85/54/41 90/59/46 86/55/42 
f 89/58/45 91/60/47 92/61/48 
f 89/58/45 92/61/48 90/59/46 
f 91/60/47 93/62/49 94/63/50 
f 91/60/47 94/63/50 92/61/48 
f 93/62/49 95/64/51 96/65/52 
f 93/62/49 96/65/52 94/63/50 
f 97/66/53 98/67/54 96/65/52 
f 97/66/53 96/65/52 95/64/51 
f 99/68/55 100/69/56 98/67/54 
f 99/68/55 98/67/54 97/66/53 
f 101/70/57 102/71/58 100/69/56 
f 101/70/57 100/69/56 99/68/55 
f 103/72/59 104/73/60 102/71/58 
f 103/72/59 102/71/58 101/70/57 
f 105/74/61 106/75/62 104/73/60 
f 105/74/61 104/73/60 103/72/59 
f 107/76/63 108/77/64 106/75/62 
f 107/76/63 106/75/62 105/74/61 
f 88/78/44 87/79/43 108/77/64 
f 88/78/44 108/77/64 107/76/63 
f 86/55/42 51/80/65 50/81/66 
f 86/55/42 50/81/66 87/56/43 
f 90/59/46 49/82/67 51/80/65 
f 90/59/46 51/80/65 86/55/42 
f 90/59/46 92/61/48 59/83/68 
f 90/59/46 59/83/68 49/82/67 
f 92/61/48 94/63/50 52/84/69 
f 92/61/48 52/84/69 59/83/68 
f 96/65/52 53/85/70 52/84/69 
f 96/65/52 52/84/69 94/63/50 
f 98/67/54 54/86/71 53/85/70 
f 98/67/54 53/85/70 96/65/52 
f 100/69/56 55/87/72 54/86/71 
f 100/69/56 54/86/71 98/67/54 
f 102/71/58 56/88/73 55/87/72 
f 102/71/58 55/87/72 100/69/56 
f 104/73/60 58/89/74 56/88/73 
f 104/73/60 56/88/73 102/71/58 
f 106/75/62 57/90/75 58/89/74 
f 106/75/62 58/89/74 104/73/60 
f 108/77/64 60/91/76 57/90/75 
f 108/77/64 57/90/75 106/75/62 
f 87/79/43 50/92/66 60/91/76 
f 87/79/43 60/91/76 108/77/64 
f 109/93/77 85/54/41 88/57/44 
f 109/93/77 88/57/44 110/94/78 
f 111/95/79 89/58/45 85/54/41 
f 111/95/79 85/54/41 109/93/77 
f 112/96/80 91/60/47 89/58/45 
f 112/96/80 89/58/45 111/95/79 
f 113/97/81 93/62/49 91/60/47 
f 113/97/81 91/60/47 112/96/80 
f 114/98/82 95/64/51 93/62/49 
f 114/98/82 93/62/49 113/97/81 
f 115/99/83 97/66/53 95/64/51 
f 115/99/83 95/64/51 114/98/82 
f 116/100/84 99/68/55 97/66/53 
f 116/100/84 97/66/53 115/99/83 
f 117/101/85 101/70/57 99/68/55 
f 117/101/85 99/68/55 116/100/84 
f 118/102/86 103/72/59 101/70/57 
f 118/102/86 101/70/57 117/101/85 
f 119/103/87 105/74/61 103/72/59 
f 119/103/87 103/72/59 118/102/86 
f 120/104/88 107/76/63 105/74/61 
f 120/104/88 105/74/61 119/103/87 
f 110/105/78 88/78/44 107/76/63 
f 110/105/78 107/76/63 120/104/88 
f 62/29/18 109/93/77 110/94/78 
f 62/29/18 110/94/78 63/30/19 
f 66/33/22 111/95/79 109/93/77 
f 66/33/22 109/93/77 62/29/18 
f 68/35/24 112/96/80 111/95/79 
f 68/35/24 111/95/79 66/33/22 
f 70/37/26 113/97/81 112/96/80 
f 70/37/26 112/96/80 68/35/24 
f 72/39/28 114/98/82 113/97/81 
f 72/39/28 113/97/81 70/37/26 
f 74/41/30 115/99/83 114/98/82 
f 74/41/30 114/98/82 72/39/28 
f 76/43/32 116/100/84 115/99/83 
f 76/43/32 115/99/83 74/41/30 
f 78/45/34 117/101/85 116/100/84 
f 78/45/34 116/100/84 76/43/32 
f 80/47/36 118/102/86 117/101/85 
f 80/47/36 117/101/85 78/45/34 
f 82/49/38 119/103/87 118/102/86 
f 82/49/38 118/102/86 80/47/36 
f 84/51/40 120/104/88 119/103/87 
f 84/51/40 119/103/87 82/49/38 
f 63/53/19 110/105/78 120/104/88 
f 63/53/19 120/104/88 84/51/40 
f 37/1/1 61/28/17 64/31/20 
f 37/1/1 64/31/20 38/4/2 
f 39/5/3 65/32/21 61/28/17 
f 39/5/3 61/28/17 37/1/1 
f 40/7/4 67/34/23 65/32/21 
f 40/7/4 65/32/21 39/5/3 
f 41/9/5 69/36/25 67/34/23 
f 41/9/5 67/34/23 40/7/4 
f 42/11/6 71/38/27 69/36/25 
f 42/11/6 69/36/25 41/9/5 
f 43/13/7 73/40/29 71/38/27 
f 43/13/7 71/38/27 42/11/6 
f 44/15/8 75/42/31 73/40/29 
f 44/15/8 73/40/29 43/13/7 
f 45/17/9 77/44/33 75/42/31 
f 45/17/9 75/42/31 44/15/8 
f 46/19/10 79/46/35 77/44/33 
f 46/19/10 77/44/33 45/17/9 
f 47/21/11 81/48/37 79/46/35 
f 47/21/11 79/46/35 46/19/10 
f 48/23/12 83/50/39 81/48/37 
f 48/23/12 81/48/37 47/21/11 
f 38/25/2 64/52/20 83/50/39 
f 38/25/2 83/50/39 48/23/12 
# 226 faces

