# 3ds Max Wavefront OBJ Exporter v0.97b - (c)2007 guruware
# File Created: 21.02.2011 11:31:08

#
# object sponza_24
#

v  -21.2369 81.8330 -4.7750
v  -14.3514 81.8330 -4.7750
v  -14.2701 81.8330 -4.8564
v  -21.3182 81.8330 -11.7408
v  -14.2701 81.8330 -11.7408
v  -14.3514 81.8330 -11.8221
v  -21.2369 81.8330 -11.8221
v  -21.3182 81.8330 -4.8564
v  -15.0672 64.3350 -5.5048
v  -15.0746 78.3371 -5.5048
v  -20.5137 78.3371 -5.5048
v  -20.5211 64.3350 -5.5048
v  -15.0000 64.3350 -11.0252
v  -15.0000 78.3371 -11.0178
v  -15.0000 78.3371 -5.5794
v  -15.0000 64.3350 -5.5720
v  -20.5211 64.3350 -11.0923
v  -20.5137 78.3371 -11.0923
v  -15.0746 78.3371 -11.0923
v  -15.0672 64.3350 -11.0923
v  -20.5883 64.3350 -5.5720
v  -20.5883 78.3371 -5.5794
v  -20.5883 78.3371 -11.0178
v  -20.5883 64.3350 -11.0252
v  -14.9341 79.3704 -5.3703
v  -20.6542 79.3704 -5.3703
v  -20.5720 78.7239 -5.4479
v  -15.0163 78.7239 -5.4479
v  -14.8654 79.3704 -11.1583
v  -14.8654 79.3704 -5.4389
v  -14.9431 78.7239 -5.5211
v  -14.9431 78.7239 -11.0761
v  -20.6542 79.3704 -11.2269
v  -14.9341 79.3704 -11.2269
v  -15.0163 78.7239 -11.1493
v  -20.5720 78.7239 -11.1493
v  -20.7229 79.3704 -5.4389
v  -20.7229 79.3704 -11.1583
v  -20.6452 78.7239 -11.0761
v  -20.6452 78.7239 -5.5211
v  -14.3401 80.9604 -4.7750
v  -14.3437 81.3967 -4.7750
v  -21.2447 81.3967 -4.7750
v  -21.2482 80.9604 -4.7750
v  -14.2701 80.9604 -11.7521
v  -14.2701 81.3967 -11.7486
v  -14.2701 81.3967 -4.8486
v  -14.2701 80.9604 -4.8451
v  -21.2482 80.9604 -11.8221
v  -21.2447 81.3967 -11.8221
v  -14.3437 81.3967 -11.8221
v  -14.3401 80.9604 -11.8221
v  -21.3182 80.9604 -4.8451
v  -21.3182 81.3967 -4.8486
v  -21.3182 81.3967 -11.7486
v  -21.3182 80.9604 -11.7521
v  -14.8622 78.5305 -5.2852
v  -20.7261 78.5305 -5.2852
v  -14.7804 78.5305 -11.2301
v  -14.7804 78.5305 -5.3671
v  -20.7261 78.5305 -11.3119
v  -14.8622 78.5305 -11.3119
v  -20.8079 78.5305 -5.3671
v  -20.8079 78.5305 -11.2301
v  -14.1469 81.6149 -4.5705
v  -21.4415 81.6149 -4.5705
v  -14.0655 81.6149 -11.9454
v  -14.0655 81.6149 -4.6518
v  -21.4415 81.6149 -12.0267
v  -14.1469 81.6149 -12.0267
v  -21.5228 81.6149 -4.6518
v  -21.5228 81.6149 -11.9454
v  -20.9144 80.2703 -5.1074
v  -14.6739 80.2703 -5.1074
v  -14.6026 80.2703 -5.1788
v  -14.6026 80.2703 -11.4184
v  -14.6739 80.2703 -11.4897
v  -20.9144 80.2703 -11.4897
v  -20.9858 80.2703 -11.4184
v  -20.9858 80.2703 -5.1788
v  -20.6499 64.1772 -11.0853
v  -21.3437 63.4848 -11.7624
v  -21.3437 63.4848 -4.8348
v  -20.6499 64.1772 -5.5119
v  -20.5813 64.1772 -11.1539
v  -21.2585 63.4848 -11.8477
v  -15.0070 64.1772 -11.1539
v  -14.3298 63.4848 -11.8477
v  -14.9384 64.1772 -11.0853
v  -14.2446 63.4848 -11.7624
v  -14.9384 64.1772 -5.5119
v  -14.2446 63.4848 -4.8348
v  -15.0070 64.1772 -5.4433
v  -14.3298 63.4848 -4.7495
v  -20.5813 64.1772 -5.4433
v  -21.2585 63.4848 -4.7495
v  -21.4894 63.4848 -11.8227
v  -21.4894 63.2498 -11.8227
v  -21.4894 63.2498 -4.7744
v  -21.4894 63.4848 -4.7744
v  -21.3188 63.4848 -11.9933
v  -21.3188 63.2498 -11.9933
v  -14.2695 63.4848 -11.9933
v  -14.2695 63.2498 -11.9933
v  -14.0989 63.4848 -11.8227
v  -14.0989 63.2498 -11.8227
v  -14.0989 63.4848 -4.7745
v  -14.0989 63.2498 -4.7745
v  -14.2695 63.4848 -4.6038
v  -14.2695 63.2498 -4.6038
v  -21.3188 63.4848 -4.6038
v  -21.3188 63.2498 -4.6038
v  -20.7011 64.2561 -5.4619
v  -20.7011 64.2561 -11.1353
v  -20.6312 64.2561 -11.2051
v  -14.9571 64.2561 -11.2051
v  -14.8872 64.2561 -11.1353
v  -14.8872 64.2561 -5.4619
v  -14.9571 64.2561 -5.3921
v  -20.6312 64.2561 -5.3921
v  -21.3437 63.0147 -11.7624
v  -21.3437 63.0147 -4.8348
v  -21.3437 63.2498 -4.8348
v  -21.3437 63.2498 -11.7624
v  -21.2585 63.0147 -11.8477
v  -21.2585 63.2498 -11.8477
v  -14.3298 63.0147 -11.8477
v  -14.3298 63.2498 -11.8477
v  -14.2446 63.0147 -11.7624
v  -14.2446 63.2498 -11.7624
v  -14.2446 63.0147 -4.8348
v  -14.2446 63.2498 -4.8348
v  -14.3298 63.0147 -4.7495
v  -14.3298 63.2498 -4.7495
v  -21.2585 63.0147 -4.7495
v  -21.2585 63.2498 -4.7495
# 136 vertices

vn 0.0000 1.0000 -0.0000
vn 0.0000 0.0000 1.0000
vn 1.0000 0.0000 -0.0000
vn 0.0000 0.0000 -1.0000
vn -1.0000 0.0000 -0.0000
vn 0.0000 -0.2102 0.9777
vn 0.0000 -0.1192 0.9929
vn 0.9777 -0.2102 -0.0000
vn 0.9929 -0.1192 -0.0000
vn 0.0000 -0.2102 -0.9777
vn 0.0000 -0.1192 -0.9929
vn -0.9776 -0.2102 -0.0000
vn -0.9929 -0.1192 -0.0000
vn 0.0000 -0.7504 0.6610
vn 0.6609 -0.7505 -0.0000
vn 0.0000 -0.7504 -0.6610
vn -0.6609 -0.7504 -0.0000
vn 0.0000 0.6436 0.7653
vn 0.7653 0.6437 -0.0000
vn 0.0000 0.6436 -0.7653
vn -0.7653 0.6437 -0.0000
vn 0.0000 -0.6840 0.7295
vn 0.7294 -0.6841 -0.0000
vn 0.0000 -0.6840 -0.7295
vn -0.7295 -0.6840 -0.0000
vn 0.0000 0.6840 0.7295
vn 0.7294 0.6841 -0.0000
vn 0.0000 0.6840 -0.7295
vn -0.7295 0.6840 -0.0000
vn 0.0000 -0.4339 0.9009
vn 0.0000 -0.3743 0.9273
vn 0.9009 -0.4340 -0.0000
vn 0.9273 -0.3744 -0.0000
vn 0.0000 -0.4339 -0.9009
vn 0.0000 -0.3743 -0.9273
vn -0.9009 -0.4340 -0.0000
vn -0.9273 -0.3744 -0.0000
vn 0.7071 0.0004 0.7071
vn -0.5840 -0.5638 0.5841
vn -0.6223 -0.4746 0.6225
vn 0.7071 0.0004 -0.7071
vn -0.7070 0.0004 -0.7072
vn -0.7070 0.0004 -0.7073
vn 0.6965 -0.1722 0.6966
vn 0.6794 -0.2777 0.6792
vn -0.7070 0.0004 0.7073
vn -0.7070 0.0004 0.7072
vn 0.6965 -0.1722 -0.6966
vn 0.6794 -0.2777 -0.6792
vn -0.6965 -0.1722 -0.6966
vn -0.6792 -0.2777 -0.6794
vn -0.6965 -0.1722 -0.6965
vn -0.7070 0.0057 0.7072
vn 0.7071 0.0057 0.7071
vn 0.7071 0.0057 -0.7071
vn -0.7070 0.0057 -0.7072
vn -0.7070 0.0057 -0.7071
vn 0.4622 0.7568 0.4622
vn -0.4622 0.7568 0.4622
vn -0.4621 0.7568 0.4622
vn 0.4622 0.7568 -0.4622
vn 0.4621 0.7568 -0.4622
vn -0.4622 0.7568 -0.4622
vn -0.4621 0.7568 -0.4623
vn 0.3783 -0.8449 0.3783
vn -0.3782 -0.8449 0.3784
vn -0.3782 -0.8449 0.3783
vn 0.3783 -0.8449 -0.3783
vn -0.3782 -0.8449 -0.3784
vn -0.4309 -0.7928 0.4310
vn 0.4309 -0.7928 0.4310
vn 0.4310 -0.7928 0.4310
vn 0.4309 -0.7928 -0.4310
vn 0.4309 -0.7928 -0.4309
vn -0.4309 -0.7928 -0.4310
vn -0.4257 0.7984 0.4258
vn 0.4257 0.7984 0.4258
vn 0.4257 0.7984 0.4257
vn 0.4257 0.7984 -0.4258
vn 0.4258 0.7984 -0.4258
vn -0.4257 0.7984 -0.4258
vn -0.6792 -0.2777 0.6794
vn -0.6965 -0.1722 0.6965
vn -0.6965 -0.1722 0.6966
vn 0.6224 -0.4746 0.6224
vn 0.5840 -0.5638 0.5840
vn 0.6224 -0.4745 -0.6224
vn 0.5840 -0.5638 -0.5840
vn -0.6223 -0.4746 -0.6225
vn -0.5840 -0.5638 -0.5841
vn -0.7063 0.7079 -0.0000
vn -0.4110 0.8138 -0.4109
vn 0.0000 0.7078 -0.7064
vn 0.4110 0.8138 -0.4110
vn 0.4110 0.8138 -0.4109
vn 0.7063 0.7079 -0.0000
vn 0.4110 0.8138 0.4110
vn 0.0000 0.7078 0.7064
vn -0.4110 0.8138 0.4109
vn -0.4110 0.8138 0.4110
vn -0.7071 0.0000 -0.7071
vn 0.7071 0.0000 -0.7071
vn 0.7071 0.0000 0.7071
vn -0.7071 0.0000 0.7071
vn -0.8389 -0.5443 -0.0000
vn 0.0000 -0.5443 -0.8389
vn 0.8389 -0.5443 -0.0000
vn 0.0000 -0.5443 0.8389
vn -0.5240 -0.6715 0.5239
vn -0.5240 -0.6716 0.5239
vn -0.5241 -0.6715 0.5239
vn 0.5240 -0.6715 0.5239
vn 0.5240 -0.6716 0.5239
vn -0.5240 -0.6715 -0.5239
vn -0.5240 -0.6716 -0.5238
vn 0.5240 -0.6716 -0.5239
vn 0.5240 -0.6715 -0.5239
vn -0.4772 0.8686 0.1337
vn -0.4772 0.8686 -0.1337
vn -0.4187 0.8847 -0.2052
vn -0.4186 0.8847 0.2052
vn -0.1336 0.8685 -0.4773
vn 0.1336 0.8686 -0.4772
vn 0.2052 0.8847 -0.4186
vn -0.2052 0.8847 -0.4187
vn 0.4772 0.8686 -0.1336
vn 0.4772 0.8686 0.1336
vn 0.4187 0.8847 0.2052
vn 0.4187 0.8847 -0.2052
vn 0.1336 0.8686 0.4772
vn -0.1336 0.8685 0.4773
vn -0.2052 0.8847 0.4186
vn 0.2052 0.8847 0.4186
vn 0.0000 -1.0000 -0.0000
# 134 vertex normals

vt 0.1655 0.9938 0.0000
vt 0.0109 0.9938 0.0000
vt 0.0091 0.9924 0.0000
vt 0.1674 0.8760 0.0000
vt 0.0091 0.8760 0.0000
vt 0.0109 0.8746 0.0000
vt 0.1655 0.8746 0.0000
vt 0.1674 0.9924 0.0000
vt 0.7421 0.0122 0.0000
vt 0.7418 0.7672 0.0000
vt 0.5006 0.7672 0.0000
vt 0.5003 0.0122 0.0000
vt 0.9868 0.0122 0.0000
vt 0.9865 0.7672 0.0000
vt 0.7451 0.7672 0.0000
vt 0.7451 0.0122 0.0000
vt 0.2528 0.0122 0.0000
vt 0.2525 0.7672 0.0000
vt 0.0113 0.7672 0.0000
vt 0.0109 0.0122 0.0000
vt 0.4975 0.0122 0.0000
vt 0.4971 0.7672 0.0000
vt 0.2558 0.7672 0.0000
vt 0.2558 0.0122 0.0000
vt 0.3477 0.9089 0.0000
vt 0.1916 0.9089 0.0000
vt 0.1939 0.8885 0.0000
vt 0.3455 0.8885 0.0000
vt 0.5526 0.9084 0.0000
vt 0.3965 0.9084 0.0000
vt 0.3988 0.8881 0.0000
vt 0.5504 0.8881 0.0000
vt 0.7614 0.9100 0.0000
vt 0.6053 0.9100 0.0000
vt 0.6076 0.8897 0.0000
vt 0.7592 0.8897 0.0000
vt 0.9659 0.9096 0.0000
vt 0.8098 0.9096 0.0000
vt 0.8121 0.8892 0.0000
vt 0.9637 0.8892 0.0000
vt 0.3639 0.9589 0.0000
vt 0.3638 0.9726 0.0000
vt 0.1755 0.9726 0.0000
vt 0.1754 0.9589 0.0000
vt 0.5688 0.9584 0.0000
vt 0.5687 0.9721 0.0000
vt 0.3804 0.9721 0.0000
vt 0.3803 0.9584 0.0000
vt 0.7776 0.9600 0.0000
vt 0.7775 0.9737 0.0000
vt 0.5892 0.9737 0.0000
vt 0.5891 0.9600 0.0000
vt 0.9821 0.9596 0.0000
vt 0.9820 0.9733 0.0000
vt 0.7937 0.9733 0.0000
vt 0.7936 0.9596 0.0000
vt 0.7418 0.7790 0.0000
vt 0.5005 0.7793 0.0000
vt 0.9959 0.7791 0.0000
vt 0.7453 0.7792 0.0000
vt 0.2524 0.7790 0.0000
vt 0.0111 0.7790 0.0000
vt 0.4969 0.7793 0.0000
vt 0.2559 0.7790 0.0000
vt 0.1897 0.8825 0.0000
vt 0.3497 0.8825 0.0000
vt 0.3946 0.8820 0.0000
vt 0.5546 0.8820 0.0000
vt 0.6034 0.8836 0.0000
vt 0.7634 0.8836 0.0000
vt 0.8079 0.8832 0.0000
vt 0.9679 0.8832 0.0000
vt 0.3692 0.9794 0.0000
vt 0.1701 0.9794 0.0000
vt 0.5741 0.9790 0.0000
vt 0.3751 0.9790 0.0000
vt 0.7829 0.9806 0.0000
vt 0.5839 0.9806 0.0000
vt 0.9874 0.9801 0.0000
vt 0.7884 0.9801 0.0000
vt 0.3636 0.9863 0.0000
vt 0.1757 0.9863 0.0000
vt 0.5685 0.9859 0.0000
vt 0.3806 0.9859 0.0000
vt 0.7773 0.9875 0.0000
vt 0.5894 0.9875 0.0000
vt 0.9818 0.9870 0.0000
vt 0.7939 0.9870 0.0000
vt 0.1845 0.9372 0.0000
vt 0.3548 0.9372 0.0000
vt 0.3894 0.9367 0.0000
vt 0.5597 0.9367 0.0000
vt 0.5982 0.9383 0.0000
vt 0.7685 0.9383 0.0000
vt 0.8027 0.9379 0.0000
vt 0.9730 0.9379 0.0000
vt 0.9754 0.9368 0.0000
vt 0.9849 0.9589 0.0000
vt 0.0079 0.7672 0.0000
vt 0.0079 0.0122 0.0000
vt 0.3480 0.8895 0.0000
vt 0.3503 0.9083 0.0000
vt 0.6028 0.9094 0.0000
vt 0.6050 0.8907 0.0000
vt 0.8073 0.9090 0.0000
vt 0.8095 0.8902 0.0000
vt 0.9848 0.9721 0.0000
vt 0.3665 0.9582 0.0000
vt 0.3663 0.9714 0.0000
vt 0.5867 0.9726 0.0000
vt 0.5865 0.9593 0.0000
vt 0.7912 0.9721 0.0000
vt 0.7910 0.9589 0.0000
vt 0.3523 0.8850 0.0000
vt 0.9705 0.8857 0.0000
vt 0.9664 0.8902 0.0000
vt 0.6007 0.8862 0.0000
vt 0.8052 0.8857 0.0000
vt 0.0078 0.7789 0.0000
vt 0.9907 0.9801 0.0000
vt 0.3716 0.9794 0.0000
vt 0.5815 0.9806 0.0000
vt 0.7860 0.9801 0.0000
vt 0.9842 0.9896 0.0000
vt 0.3660 0.9889 0.0000
vt 0.5871 0.9900 0.0000
vt 0.7916 0.9896 0.0000
vt 0.9686 0.9090 0.0000
vt 0.3574 0.9360 0.0000
vt 0.5957 0.9372 0.0000
vt 0.8002 0.9367 0.0000
vt 0.7521 0.8673 0.0000
vt 0.7407 0.8440 0.0000
vt 0.9787 0.8440 0.0000
vt 0.9674 0.8673 0.0000
vt 0.7231 0.8673 0.0000
vt 0.7344 0.8440 0.0000
vt 0.5077 0.8685 0.0000
vt 0.4964 0.8440 0.0000
vt 0.4787 0.8685 0.0000
vt 0.4900 0.8440 0.0000
vt 0.2634 0.8683 0.0000
vt 0.2521 0.8440 0.0000
vt 0.2344 0.8683 0.0000
vt 0.2457 0.8440 0.0000
vt 0.0185 0.8682 0.0000
vt 0.0095 0.8447 0.0000
vt 0.9833 0.8433 0.0000
vt 0.9830 0.8665 0.0000
vt 0.7404 0.8398 0.0000
vt 0.7404 0.8318 0.0000
vt 0.9790 0.8318 0.0000
vt 0.9790 0.8398 0.0000
vt 0.7347 0.8398 0.0000
vt 0.7347 0.8318 0.0000
vt 0.4961 0.8398 0.0000
vt 0.4961 0.8318 0.0000
vt 0.4903 0.8398 0.0000
vt 0.4903 0.8318 0.0000
vt 0.2518 0.8398 0.0000
vt 0.2518 0.8318 0.0000
vt 0.2460 0.8398 0.0000
vt 0.2460 0.8318 0.0000
vt 0.0075 0.8398 0.0000
vt 0.0075 0.8318 0.0000
vt 0.9847 0.8318 0.0000
vt 0.9847 0.8398 0.0000
vt 0.9682 0.8705 0.0000
vt 0.7512 0.8699 0.0000
vt 0.7239 0.8699 0.0000
vt 0.5069 0.8711 0.0000
vt 0.4796 0.8711 0.0000
vt 0.2626 0.8709 0.0000
vt 0.2352 0.8709 0.0000
vt 0.0168 0.8708 0.0000
vt 0.9830 0.8702 0.0000
vt 0.7450 0.8179 0.0000
vt 0.5036 0.8179 0.0000
vt 0.5036 0.8097 0.0000
vt 0.7450 0.8097 0.0000
vt 0.7479 0.8179 0.0000
vt 0.7479 0.8097 0.0000
vt 0.9893 0.8179 0.0000
vt 0.9893 0.8097 0.0000
vt 0.9922 0.8179 0.0000
vt 0.9922 0.8097 0.0000
vt 0.2564 0.8179 0.0000
vt 0.0150 0.8179 0.0000
vt 0.0150 0.8097 0.0000
vt 0.2564 0.8097 0.0000
vt 0.2593 0.8179 0.0000
vt 0.2593 0.8097 0.0000
vt 0.5007 0.8179 0.0000
vt 0.5007 0.8097 0.0000
vt 0.2557 0.0062 0.0000
vt 0.4974 0.0062 0.0000
vt 0.0110 0.0062 0.0000
vt 0.2527 0.0062 0.0000
vt 0.7450 0.0062 0.0000
vt 0.9917 0.0062 0.0000
vt 0.5002 0.0062 0.0000
vt 0.7420 0.0062 0.0000
vt 0.0079 0.0062 0.0000
vt 0.9787 0.8276 0.0000
vt 0.7407 0.8276 0.0000
vt 0.9833 0.8276 0.0000
vt 0.2457 0.8276 0.0000
vt 0.0095 0.8276 0.0000
vt 0.2521 0.8276 0.0000
vt 0.4900 0.8276 0.0000
vt 0.4964 0.8276 0.0000
vt 0.7344 0.8276 0.0000
# 212 texture coords

g sponza_24
f 1/1/1 2/2/1 3/3/1 
f 1/1/1 3/3/1 4/4/1 
f 3/3/1 5/5/1 6/6/1 
f 3/3/1 6/6/1 4/4/1 
f 6/6/1 7/7/1 4/4/1 
f 8/8/1 1/1/1 4/4/1 
f 9/9/2 10/10/2 11/11/2 
f 9/9/2 11/11/2 12/12/2 
f 13/13/3 14/14/3 15/15/3 
f 13/13/3 15/15/3 16/16/3 
f 17/17/4 18/18/4 19/19/4 
f 17/17/4 19/19/4 20/20/4 
f 21/21/5 22/22/5 23/23/5 
f 21/21/5 23/23/5 24/24/5 
f 25/25/6 26/26/6 27/27/7 
f 25/25/6 27/27/7 28/28/7 
f 29/29/8 30/30/8 31/31/9 
f 29/29/8 31/31/9 32/32/9 
f 33/33/10 34/34/10 35/35/11 
f 33/33/10 35/35/11 36/36/11 
f 37/37/12 38/38/12 39/39/13 
f 37/37/12 39/39/13 40/40/13 
f 41/41/2 42/42/2 43/43/2 
f 41/41/2 43/43/2 44/44/2 
f 45/45/3 46/46/3 47/47/3 
f 45/45/3 47/47/3 48/48/3 
f 49/49/4 50/50/4 51/51/4 
f 49/49/4 51/51/4 52/52/4 
f 53/53/5 54/54/5 55/55/5 
f 53/53/5 55/55/5 56/56/5 
f 57/57/14 58/58/14 11/11/14 
f 57/57/14 11/11/14 10/10/14 
f 59/59/15 60/60/15 15/15/15 
f 59/59/15 15/15/15 14/14/15 
f 61/61/16 62/62/16 19/19/16 
f 61/61/16 19/19/16 18/18/16 
f 63/63/17 64/64/17 23/23/17 
f 63/63/17 23/23/17 22/22/17 
f 28/28/18 27/27/18 58/65/18 
f 28/28/18 58/65/18 57/66/18 
f 32/32/19 31/31/19 60/67/19 
f 32/32/19 60/67/19 59/68/19 
f 36/36/20 35/35/20 62/69/20 
f 36/36/20 62/69/20 61/70/20 
f 40/40/21 39/39/21 64/71/21 
f 40/40/21 64/71/21 63/72/21 
f 65/73/22 66/74/22 43/43/22 
f 65/73/22 43/43/22 42/42/22 
f 67/75/23 68/76/23 47/47/23 
f 67/75/23 47/47/23 46/46/23 
f 69/77/24 70/78/24 51/51/24 
f 69/77/24 51/51/24 50/50/24 
f 71/79/25 72/80/25 55/55/25 
f 71/79/25 55/55/25 54/54/25 
f 2/81/26 1/82/26 66/74/26 
f 2/81/26 66/74/26 65/73/26 
f 5/83/27 3/84/27 68/76/27 
f 5/83/27 68/76/27 67/75/27 
f 7/85/28 6/86/28 70/78/28 
f 7/85/28 70/78/28 69/77/28 
f 8/87/29 4/88/29 72/80/29 
f 8/87/29 72/80/29 71/79/29 
f 41/41/30 44/44/30 73/89/31 
f 41/41/30 73/89/31 74/90/31 
f 45/45/32 48/48/32 75/91/33 
f 45/45/32 75/91/33 76/92/33 
f 49/49/34 52/52/34 77/93/35 
f 49/49/34 77/93/35 78/94/35 
f 53/53/36 56/56/36 79/95/37 
f 53/53/36 79/95/37 80/96/37 
f 74/90/31 73/89/31 26/26/6 
f 74/90/31 26/26/6 25/25/6 
f 76/92/33 75/91/33 30/30/8 
f 76/92/33 30/30/8 29/29/8 
f 78/94/35 77/93/35 34/34/10 
f 78/94/35 34/34/10 33/33/10 
f 80/96/37 79/95/37 38/38/12 
f 80/96/37 38/38/12 37/37/12 
f 16/16/38 15/15/38 10/10/38 
f 16/16/38 10/10/38 9/9/38 
f 53/53/39 80/96/40 73/97/40 
f 53/53/39 73/97/40 44/98/39 
f 20/20/41 19/19/41 14/99/41 
f 20/20/41 14/99/41 13/100/41 
f 24/24/42 23/23/43 18/18/43 
f 24/24/42 18/18/43 17/17/42 
f 31/101/44 30/102/45 25/25/45 
f 31/101/44 25/25/45 28/28/44 
f 22/22/46 21/21/47 12/12/47 
f 22/22/46 12/12/47 11/11/46 
f 35/35/48 34/34/49 29/103/49 
f 35/35/48 29/103/49 32/104/48 
f 39/39/50 38/38/51 33/105/51 
f 39/39/50 33/105/51 36/106/52 
f 44/98/53 43/107/53 54/54/53 
f 44/98/53 54/54/53 53/53/53 
f 48/108/54 47/109/54 42/42/54 
f 48/108/54 42/42/54 41/41/54 
f 52/52/55 51/51/55 46/110/55 
f 52/52/55 46/110/55 45/111/55 
f 56/56/56 55/55/56 50/112/56 
f 56/56/56 50/112/56 49/113/57 
f 28/28/58 57/66/58 60/114/58 
f 28/28/58 60/114/58 31/101/58 
f 40/40/59 63/72/60 58/115/60 
f 40/40/59 58/115/60 27/116/59 
f 32/104/61 59/117/62 62/69/62 
f 32/104/61 62/69/62 35/35/61 
f 36/106/63 61/118/64 64/71/64 
f 36/106/63 64/71/64 39/39/63 
f 57/57/65 10/10/65 15/15/65 
f 57/57/65 15/15/65 60/60/65 
f 63/63/66 22/22/66 11/11/66 
f 63/63/66 11/11/66 58/58/67 
f 59/119/68 14/99/68 19/19/68 
f 59/119/68 19/19/68 62/62/68 
f 61/61/69 18/18/69 23/23/69 
f 61/61/69 23/23/69 64/64/69 
f 43/107/70 66/120/70 71/79/70 
f 43/107/70 71/79/70 54/54/70 
f 47/109/71 68/121/71 65/73/71 
f 47/109/71 65/73/71 42/42/72 
f 51/51/73 70/78/73 67/122/73 
f 51/51/73 67/122/73 46/110/74 
f 55/55/75 72/80/75 69/123/75 
f 55/55/75 69/123/75 50/112/75 
f 66/120/76 1/124/76 8/87/76 
f 66/120/76 8/87/76 71/79/76 
f 68/121/77 3/125/78 2/81/77 
f 68/121/77 2/81/77 65/73/77 
f 70/78/79 6/86/80 5/126/79 
f 70/78/79 5/126/79 67/122/79 
f 72/80/81 4/88/81 7/127/81 
f 72/80/81 7/127/81 69/123/81 
f 37/37/82 40/40/83 27/116/84 
f 37/37/82 27/116/84 26/128/82 
f 75/129/85 48/108/86 41/41/86 
f 75/129/85 41/41/86 74/90/85 
f 77/93/87 52/52/88 45/111/88 
f 77/93/87 45/111/88 76/130/87 
f 79/95/89 56/56/90 49/113/90 
f 79/95/89 49/113/90 78/131/89 
f 26/128/82 73/97/40 80/96/40 
f 26/128/82 80/96/40 37/37/82 
f 30/102/45 75/129/85 74/90/85 
f 30/102/45 74/90/85 25/25/45 
f 34/34/49 77/93/87 76/130/87 
f 34/34/49 76/130/87 29/103/49 
f 38/38/51 79/95/89 78/131/89 
f 38/38/51 78/131/89 33/105/51 
f 81/132/91 82/133/91 83/134/91 
f 81/132/91 83/134/91 84/135/91 
f 85/136/92 86/137/92 82/133/92 
f 85/136/92 82/133/92 81/132/92 
f 87/138/93 88/139/93 86/137/93 
f 87/138/93 86/137/93 85/136/93 
f 89/140/94 90/141/95 88/139/95 
f 89/140/94 88/139/95 87/138/94 
f 91/142/96 92/143/96 90/141/96 
f 91/142/96 90/141/96 89/140/96 
f 93/144/97 94/145/97 92/143/97 
f 93/144/97 92/143/97 91/142/97 
f 95/146/98 96/147/98 94/145/98 
f 95/146/98 94/145/98 93/144/98 
f 84/135/99 83/134/100 96/148/100 
f 84/135/99 96/148/100 95/149/99 
f 97/150/5 98/151/5 99/152/5 
f 97/150/5 99/152/5 100/153/5 
f 101/154/101 102/155/101 98/151/101 
f 101/154/101 98/151/101 97/150/101 
f 103/156/4 104/157/4 102/155/4 
f 103/156/4 102/155/4 101/154/4 
f 105/158/102 106/159/102 104/157/102 
f 105/158/102 104/157/102 103/156/102 
f 107/160/3 108/161/3 106/159/3 
f 107/160/3 106/159/3 105/158/3 
f 109/162/103 110/163/103 108/161/103 
f 109/162/103 108/161/103 107/160/103 
f 111/164/2 112/165/2 110/163/2 
f 111/164/2 110/163/2 109/162/2 
f 100/153/104 99/152/104 112/166/104 
f 100/153/104 112/166/104 111/167/104 
f 113/168/105 114/169/105 81/132/105 
f 113/168/105 81/132/105 84/135/105 
f 115/170/106 116/171/106 87/138/106 
f 115/170/106 87/138/106 85/136/106 
f 117/172/107 118/173/107 91/142/107 
f 117/172/107 91/142/107 89/140/107 
f 119/174/108 120/175/108 95/146/108 
f 119/174/108 95/146/108 93/144/108 
f 120/176/109 113/168/110 84/135/109 
f 120/176/109 84/135/109 95/149/111 
f 118/173/112 119/174/112 93/144/113 
f 118/173/112 93/144/113 91/142/113 
f 114/169/114 115/170/114 85/136/114 
f 114/169/114 85/136/114 81/132/115 
f 116/171/116 117/172/116 89/140/117 
f 116/171/116 89/140/117 87/138/117 
f 121/177/5 122/178/5 123/179/5 
f 121/177/5 123/179/5 124/180/5 
f 125/181/101 121/177/101 124/180/101 
f 125/181/101 124/180/101 126/182/101 
f 127/183/4 125/181/4 126/182/4 
f 127/183/4 126/182/4 128/184/4 
f 129/185/102 127/183/102 128/184/102 
f 129/185/102 128/184/102 130/186/102 
f 131/187/3 129/188/3 130/189/3 
f 131/187/3 130/189/3 132/190/3 
f 133/191/103 131/187/103 132/190/103 
f 133/191/103 132/190/103 134/192/103 
f 135/193/2 133/191/2 134/192/2 
f 135/193/2 134/192/2 136/194/2 
f 122/178/104 135/193/104 136/194/104 
f 122/178/104 136/194/104 123/179/104 
f 21/21/118 24/24/119 114/195/120 
f 21/21/118 114/195/120 113/196/121 
f 17/17/122 20/20/123 116/197/124 
f 17/17/122 116/197/124 115/198/125 
f 13/13/126 16/16/127 118/199/128 
f 13/13/126 118/199/128 117/200/129 
f 9/9/130 12/12/131 120/201/132 
f 9/9/130 120/201/132 119/202/133 
f 12/12/131 21/21/118 113/196/121 
f 12/12/131 113/196/121 120/201/132 
f 16/16/127 9/9/130 119/202/133 
f 16/16/127 119/202/133 118/199/128 
f 24/24/119 17/17/122 115/198/125 
f 24/24/119 115/198/125 114/195/120 
f 20/20/123 13/100/126 117/203/129 
f 20/20/123 117/203/129 116/197/124 
f 82/133/1 97/150/1 100/153/1 
f 82/133/1 100/153/1 83/134/1 
f 86/137/1 101/154/1 97/150/1 
f 86/137/1 97/150/1 82/133/1 
f 88/139/1 103/156/1 101/154/1 
f 88/139/1 101/154/1 86/137/1 
f 90/141/1 105/158/1 103/156/1 
f 90/141/1 103/156/1 88/139/1 
f 92/143/1 107/160/1 105/158/1 
f 92/143/1 105/158/1 90/141/1 
f 94/145/1 109/162/1 107/160/1 
f 94/145/1 107/160/1 92/143/1 
f 96/147/1 111/164/1 109/162/1 
f 96/147/1 109/162/1 94/145/1 
f 83/134/1 100/153/1 111/167/1 
f 83/134/1 111/167/1 96/148/1 
f 123/204/134 99/152/134 98/151/134 
f 123/204/134 98/151/134 124/205/134 
f 136/206/134 112/166/134 99/152/134 
f 136/206/134 99/152/134 123/204/134 
f 134/207/134 110/163/134 112/165/134 
f 134/207/134 112/165/134 136/208/134 
f 132/209/134 108/161/134 110/163/134 
f 132/209/134 110/163/134 134/207/134 
f 130/210/134 106/159/134 108/161/134 
f 130/210/134 108/161/134 132/209/134 
f 128/211/134 104/157/134 106/159/134 
f 128/211/134 106/159/134 130/210/134 
f 126/212/134 102/155/134 104/157/134 
f 126/212/134 104/157/134 128/211/134 
f 124/205/134 98/151/134 102/155/134 
f 124/205/134 102/155/134 126/212/134 
# 262 faces

