# 3ds Max Wavefront OBJ Exporter v0.97b - (c)2007 guruware
# File Created: 21.02.2011 11:31:20

#
# object sponza_107
#

v  -90.2056 30.9529 -92.9913
v  -90.2056 30.9529 -93.6023
v  -90.1157 31.5993 -93.6023
v  -90.1157 31.5993 -92.9091
v  -90.2903 30.9529 -92.9181
v  -90.1952 31.5993 -92.8405
v  -96.8157 31.5993 -92.8405
v  -96.7205 30.9529 -92.9181
v  -89.5118 33.6256 -92.2453
v  -97.4990 33.6256 -92.2453
v  -97.5031 33.1893 -92.2453
v  -89.5077 33.1893 -92.2453
v  -97.5841 33.6256 -92.3188
v  -97.5841 33.6256 -93.6023
v  -97.5841 33.1893 -93.6023
v  -97.5841 33.1893 -92.3153
v  -90.2715 30.5660 -93.0496
v  -90.2715 30.5660 -93.6023
v  -90.0173 30.7594 -93.6023
v  -90.0173 30.7594 -92.8373
v  -90.3578 30.5660 -92.9751
v  -90.1120 30.7594 -92.7555
v  -96.8988 30.7594 -92.7555
v  -96.6530 30.5660 -92.9751
v  -89.4267 33.6256 -92.3188
v  -89.4267 33.6256 -93.6023
v  -89.1899 33.8438 -93.6023
v  -89.1899 33.8438 -92.1220
v  -89.2840 33.8438 -92.0407
v  -97.7268 33.8438 -92.0407
v  -89.4267 34.0619 -93.6023
v  -89.4267 34.0619 -92.3266
v  -89.5208 34.0619 -92.2453
v  -97.4900 34.0619 -92.2453
v  -89.8114 32.4992 -92.6490
v  -89.8114 32.4992 -93.6023
v  -89.4267 33.1893 -93.6023
v  -89.4267 33.1893 -92.3153
v  -89.8941 32.4992 -92.5777
v  -97.1167 32.4992 -92.5777
v  -96.8951 31.5993 -92.9091
v  -96.8053 30.9529 -92.9913
v  -96.9935 30.7594 -92.8373
v  -96.7393 30.5660 -93.0496
v  -97.8209 33.8438 -92.1220
v  -97.5841 34.0619 -92.3266
v  -97.1994 32.4992 -92.6490
v  -97.5841 34.0619 -93.6023
v  -96.8951 31.5993 -93.6023
v  -96.8053 30.9529 -93.6023
v  -96.9936 30.7594 -93.6023
v  -96.7394 30.5660 -93.6023
v  -97.8209 33.8438 -93.6023
v  -97.1994 32.4992 -93.6023
# 54 vertices

vn 0.9905 -0.1376 -0.0000
vn 0.9732 -0.2300 -0.0000
vn 0.9705 -0.2409 -0.0000
vn 0.0000 -0.1192 0.9929
vn 0.0000 -0.2116 0.9774
vn 0.0000 0.0000 1.0000
vn -1.0000 0.0000 -0.0000
vn 0.6056 -0.7958 -0.0000
vn 0.0000 -0.7504 0.6610
vn 0.7166 0.6975 -0.0000
vn 0.0000 0.6436 0.7654
vn 0.6776 -0.7355 -0.0000
vn 0.0000 -0.6840 0.7295
vn 0.6776 0.7355 -0.0000
vn 0.0000 0.6840 0.7295
vn 0.9065 -0.4223 -0.0000
vn 0.9142 -0.4053 -0.0000
vn 0.8734 -0.4869 -0.0000
vn 0.0000 -0.3765 0.9264
vn 0.0000 -0.4339 0.9009
vn 0.6427 -0.1839 0.7438
vn 0.6242 -0.2980 0.7222
vn 0.6254 -0.2920 0.7236
vn -0.6253 -0.2920 0.7237
vn -0.6240 -0.2980 0.7223
vn -0.6425 -0.1839 0.7439
vn -0.6424 -0.1839 0.7439
vn 0.6537 0.0061 0.7567
vn 0.6538 0.0061 0.7567
vn -0.6536 0.0061 0.7568
vn -0.6538 0.0062 0.7567
vn 0.4106 0.7782 0.4753
vn 0.4106 0.7781 0.4753
vn -0.4105 0.7782 0.4753
vn -0.4106 0.7782 0.4753
vn 0.3329 -0.8606 0.3854
vn -0.3329 -0.8606 0.3854
vn -0.3329 -0.8606 0.3853
vn 0.3814 -0.8122 0.4415
vn -0.3815 -0.8122 0.4414
vn -0.3814 -0.8122 0.4415
vn -0.3813 -0.8122 0.4415
vn 0.3766 0.8174 0.4358
vn 0.3767 0.8174 0.4358
vn 0.3766 0.8174 0.4359
vn -0.3767 0.8174 0.4358
vn -0.3765 0.8174 0.4359
vn -0.3766 0.8174 0.4359
vn 0.5648 -0.5035 0.6538
vn 0.5279 -0.5898 0.6110
vn 0.5681 -0.4947 0.6576
vn -0.5279 -0.5899 0.6110
vn -0.5648 -0.5035 0.6538
vn -0.5681 -0.4947 0.6576
vn 0.0000 1.0000 -0.0000
vn -0.9905 -0.1377 -0.0000
vn -0.9705 -0.2409 -0.0000
vn -0.9732 -0.2300 -0.0000
vn 1.0000 0.0000 -0.0000
vn -0.6055 -0.7958 0.0000
vn -0.6056 -0.7958 0.0001
vn -0.7166 0.6975 0.0000
vn -0.7165 0.6975 -0.0000
vn -0.6776 -0.7354 -0.0000
vn -0.6776 0.7354 -0.0000
vn -0.9065 -0.4223 -0.0000
vn -0.8734 -0.4870 -0.0000
vn -0.9142 -0.4053 -0.0000
vn 0.0000 -1.0000 -0.0000
# 69 vertex normals

vt 0.5504 0.8881 0.0000
vt 0.5337 0.8881 0.0000
vt 0.5337 0.9084 0.0000
vt 0.5526 0.9084 0.0000
vt 0.6076 0.8897 0.0000
vt 0.6053 0.9100 0.0000
vt 0.7614 0.9100 0.0000
vt 0.7592 0.8897 0.0000
vt 0.5892 0.9737 0.0000
vt 0.7775 0.9737 0.0000
vt 0.7776 0.9600 0.0000
vt 0.5891 0.9600 0.0000
vt 0.7937 0.9733 0.0000
vt 0.8288 0.9733 0.0000
vt 0.8288 0.9596 0.0000
vt 0.7936 0.9596 0.0000
vt 0.9865 0.7672 0.0000
vt 0.9619 0.7672 0.0000
vt 0.9632 0.7791 0.0000
vt 0.9959 0.7791 0.0000
vt 0.0113 0.7672 0.0000
vt 0.0111 0.7790 0.0000
vt 0.2524 0.7790 0.0000
vt 0.2525 0.7672 0.0000
vt 0.5337 0.8820 0.0000
vt 0.5546 0.8820 0.0000
vt 0.6034 0.8836 0.0000
vt 0.7634 0.8836 0.0000
vt 0.5687 0.9721 0.0000
vt 0.5337 0.9721 0.0000
vt 0.5337 0.9790 0.0000
vt 0.5741 0.9790 0.0000
vt 0.5839 0.9806 0.0000
vt 0.7829 0.9806 0.0000
vt 0.5337 0.9859 0.0000
vt 0.5685 0.9859 0.0000
vt 0.5894 0.9875 0.0000
vt 0.7773 0.9875 0.0000
vt 0.5597 0.9367 0.0000
vt 0.5337 0.9367 0.0000
vt 0.5337 0.9584 0.0000
vt 0.5688 0.9584 0.0000
vt 0.5982 0.9383 0.0000
vt 0.7685 0.9383 0.0000
vt 0.6050 0.8907 0.0000
vt 0.6028 0.9094 0.0000
vt 0.8073 0.9090 0.0000
vt 0.8098 0.9096 0.0000
vt 0.8121 0.8892 0.0000
vt 0.8095 0.8902 0.0000
vt 0.5867 0.9726 0.0000
vt 0.5865 0.9593 0.0000
vt 0.7912 0.9721 0.0000
vt 0.7910 0.9589 0.0000
vt 0.6007 0.8862 0.0000
vt 0.8079 0.8832 0.0000
vt 0.8052 0.8857 0.0000
vt 0.0079 0.7672 0.0000
vt 0.0078 0.7789 0.0000
vt 0.2558 0.7672 0.0000
vt 0.2559 0.7790 0.0000
vt 0.5815 0.9806 0.0000
vt 0.7860 0.9801 0.0000
vt 0.7884 0.9801 0.0000
vt 0.5871 0.9900 0.0000
vt 0.7916 0.9896 0.0000
vt 0.7939 0.9870 0.0000
vt 0.5957 0.9372 0.0000
vt 0.8027 0.9379 0.0000
vt 0.8002 0.9367 0.0000
vt 0.1674 0.8760 0.0000
vt 0.1655 0.8746 0.0000
vt 0.0109 0.8746 0.0000
vt 0.0091 0.8976 0.0000
vt 0.0091 0.8760 0.0000
vt 0.1674 0.8976 0.0000
vt 0.8288 0.9096 0.0000
vt 0.8288 0.8892 0.0000
vt 0.2874 0.7790 0.0000
vt 0.2803 0.7672 0.0000
vt 0.8288 0.8832 0.0000
vt 0.8288 0.9801 0.0000
vt 0.8288 0.9870 0.0000
vt 0.8288 0.9379 0.0000
vt 0.4476 0.6911 0.0000
vt 0.2773 0.6911 0.0000
vt 0.2773 0.6742 0.0000
vt 0.4476 0.6742 0.0000
vt 0.4453 0.6933 0.0000
vt 0.2795 0.6933 0.0000
# 90 texture coords

g sponza_107
f 1/1/1 2/2/1 3/3/2 
f 1/1/1 3/3/2 4/4/3 
f 5/5/4 6/6/5 7/7/5 
f 5/5/4 7/7/5 8/8/4 
f 9/9/6 10/10/6 11/11/6 
f 9/9/6 11/11/6 12/12/6 
f 13/13/7 14/14/7 15/15/7 
f 13/13/7 15/15/7 16/16/7 
f 17/17/8 18/18/8 19/19/8 
f 17/17/8 19/19/8 20/20/8 
f 21/21/9 22/22/9 23/23/9 
f 21/21/9 23/23/9 24/24/9 
f 19/25/10 2/2/10 1/1/10 
f 19/25/10 1/1/10 20/26/10 
f 22/27/11 5/5/11 8/8/11 
f 22/27/11 8/8/11 23/28/11 
f 25/29/12 26/30/12 27/31/12 
f 25/29/12 27/31/12 28/32/12 
f 9/9/13 29/33/13 30/34/13 
f 9/9/13 30/34/13 10/10/13 
f 27/31/14 31/35/14 32/36/14 
f 27/31/14 32/36/14 28/32/14 
f 29/33/15 33/37/15 34/38/15 
f 29/33/15 34/38/15 30/34/15 
f 35/39/16 36/40/17 37/41/18 
f 35/39/16 37/41/18 38/42/18 
f 39/43/19 12/12/20 11/11/20 
f 39/43/19 11/11/20 40/44/19 
f 4/4/3 3/3/2 36/40/17 
f 4/4/3 36/40/17 35/39/16 
f 6/6/5 39/43/19 40/44/19 
f 6/6/5 40/44/19 7/7/5 
f 1/45/21 4/46/22 6/6/23 
f 1/45/21 6/6/23 5/5/21 
f 7/47/24 41/48/25 42/49/26 
f 7/47/24 42/49/26 8/50/27 
f 25/51/28 9/9/28 12/12/29 
f 25/51/28 12/12/29 38/52/29 
f 10/53/30 13/13/30 16/16/31 
f 10/53/30 16/16/31 11/54/31 
f 22/27/32 20/55/32 1/45/33 
f 22/27/32 1/45/33 5/5/33 
f 42/49/34 43/56/35 23/57/34 
f 42/49/34 23/57/34 8/50/34 
f 22/22/36 21/21/36 17/58/36 
f 22/22/36 17/58/36 20/59/36 
f 44/60/37 24/24/38 23/23/37 
f 44/60/37 23/23/37 43/61/37 
f 25/51/39 28/62/39 29/33/39 
f 25/51/39 29/33/39 9/9/39 
f 30/63/40 45/64/40 13/13/41 
f 30/63/40 13/13/41 10/53/42 
f 32/65/43 33/37/44 29/33/45 
f 32/65/43 29/33/45 28/62/45 
f 30/63/46 34/66/47 46/67/48 
f 30/63/46 46/67/48 45/64/46 
f 35/68/49 38/52/50 12/12/50 
f 35/68/49 12/12/50 39/43/51 
f 11/54/52 16/16/52 47/69/53 
f 11/54/52 47/69/53 40/70/54 
f 4/46/22 35/68/49 39/43/51 
f 4/46/22 39/43/51 6/6/23 
f 40/70/54 47/69/53 41/48/25 
f 40/70/54 41/48/25 7/47/24 
f 46/71/55 34/72/55 33/73/55 
f 46/71/55 33/73/55 31/74/55 
f 33/73/55 32/75/55 31/74/55 
f 48/76/55 46/71/55 31/74/55 
f 42/49/56 41/48/57 49/77/58 
f 42/49/56 49/77/58 50/78/56 
f 25/29/59 38/42/59 37/41/59 
f 25/29/59 37/41/59 26/30/59 
f 44/60/60 43/61/60 51/79/60 
f 44/60/60 51/79/60 52/80/61 
f 51/81/62 43/56/62 42/49/62 
f 51/81/62 42/49/62 50/78/63 
f 13/13/64 45/64/64 53/82/64 
f 13/13/64 53/82/64 14/14/64 
f 53/82/65 45/64/65 46/67/65 
f 53/82/65 46/67/65 48/83/65 
f 47/69/66 16/16/67 15/15/67 
f 47/69/66 15/15/67 54/84/68 
f 41/48/57 47/69/66 54/84/68 
f 41/48/57 54/84/68 49/77/58 
f 17/85/69 44/86/69 52/87/69 
f 17/85/69 52/87/69 18/88/69 
f 44/86/69 17/85/69 21/89/69 
f 44/86/69 21/89/69 24/90/69 
# 88 faces

