# 3ds Max Wavefront OBJ Exporter v0.97b - (c)2007 guruware
# File Created: 21.02.2011 11:31:13

#
# object sponza_58
#

v  39.3732 111.3803 -8.6268
v  39.3732 111.3803 -11.3946
v  39.3732 105.0371 -11.3946
v  39.3732 105.0371 -8.6268
v  41.8678 113.4368 -11.9736
v  42.1789 113.7479 -11.9736
v  42.1789 105.0371 -11.9736
v  41.8678 105.0371 -11.9736
v  42.1789 113.7479 -8.6268
v  42.1789 105.0371 -8.6268
v  41.3928 112.9618 -11.3946
v  41.3928 105.0371 -11.3946
v  37.5211 111.3803 -11.3946
v  37.5211 112.9618 -11.3946
v  37.5211 113.4368 -11.9736
v  37.5211 111.3803 -8.6268
v  37.5211 113.7479 -11.9736
v  37.5211 113.7479 -8.6268
v  35.6689 105.0371 -11.3946
v  35.6689 111.3803 -11.3946
v  35.6689 111.3803 -8.6268
v  35.6689 105.0371 -8.6268
v  33.1459 105.0371 -11.9736
v  33.1459 113.7479 -11.9736
v  33.4570 113.4368 -11.9736
v  33.4570 105.0371 -11.9736
v  33.1459 113.7479 -8.6268
v  33.1459 105.0371 -8.6268
v  33.9320 105.0371 -11.3946
v  33.9320 112.9618 -11.3946
# 30 vertices

vn -1.0000 -0.0000 -0.0000
vn 0.0000 0.0000 -1.0000
vn 1.0000 0.0000 -0.0000
vn -0.7731 0.0000 -0.6342
vn -0.0000 0.0000 -1.0000
vn 0.0000 -0.7731 -0.6342
vn 0.0000 -0.7732 -0.6342
vn 0.0000 -1.0000 -0.0000
vn 0.0000 1.0000 -0.0000
vn -0.0000 1.0000 -0.0000
vn 1.0000 -0.0000 -0.0000
vn 0.7731 0.0000 -0.6342
vn -0.0000 -0.7731 -0.6342
# 13 vertex normals

vt 0.7878 0.0638 0.0000
vt 0.7878 0.1543 0.0000
vt 0.9965 0.1543 0.0000
vt 0.9965 0.0638 0.0000
vt 0.7384 0.2067 0.0000
vt 0.7282 0.2169 0.0000
vt 0.9965 0.2169 0.0000
vt 0.9965 0.2067 0.0000
vt 0.7282 0.3263 0.0000
vt 0.9965 0.3263 0.0000
vt 0.7541 0.1878 0.0000
vt 0.9965 0.1878 0.0000
vt 0.8487 0.1543 0.0000
vt 0.8487 0.1878 0.0000
vt 0.8487 0.2067 0.0000
vt 0.8487 0.0638 0.0000
vt 0.8487 0.2169 0.0000
vt 0.8487 0.3263 0.0000
# 18 texture coords

g sponza_58
f 1/1/1 2/2/1 3/3/1 
f 1/1/1 3/3/1 4/4/1 
f 5/5/2 6/6/2 7/7/2 
f 5/5/2 7/7/2 8/8/2 
f 7/7/3 6/6/3 9/9/3 
f 7/7/3 9/9/3 10/10/3 
f 2/2/2 11/11/2 12/12/2 
f 2/2/2 12/12/2 3/3/2 
f 11/11/4 5/5/4 8/8/4 
f 11/11/4 8/8/4 12/12/4 
f 2/2/2 13/13/5 14/14/5 
f 2/2/2 14/14/5 11/11/2 
f 11/11/6 14/14/7 15/15/7 
f 11/11/6 15/15/7 5/5/6 
f 13/13/8 2/2/8 1/1/8 
f 13/13/8 1/1/8 16/16/8 
f 17/17/2 6/6/2 5/5/2 
f 17/17/2 5/5/2 15/15/2 
f 18/18/9 9/9/10 6/6/10 
f 18/18/9 6/6/10 17/17/9 
f 19/3/11 20/2/11 21/1/11 
f 19/3/11 21/1/11 22/4/11 
f 23/7/2 24/6/2 25/5/2 
f 23/7/2 25/5/2 26/8/2 
f 27/9/1 24/6/1 23/7/1 
f 27/9/1 23/7/1 28/10/1 
f 20/2/2 19/3/2 29/12/2 
f 20/2/2 29/12/2 30/11/2 
f 30/11/12 29/12/12 26/8/12 
f 30/11/12 26/8/12 25/5/12 
f 20/2/2 30/11/2 14/14/5 
f 20/2/2 14/14/5 13/13/5 
f 30/11/13 25/5/13 15/15/7 
f 30/11/13 15/15/7 14/14/7 
f 21/1/8 20/2/8 13/13/8 
f 21/1/8 13/13/8 16/16/8 
f 25/5/2 24/6/2 17/17/2 
f 25/5/2 17/17/2 15/15/2 
f 24/6/9 27/9/9 18/18/9 
f 24/6/9 18/18/9 17/17/9 
# 40 faces

