# 3ds Max Wavefront OBJ Exporter v0.97b - (c)2007 guruware
# File Created: 21.02.2011 11:31:22

#
# object sponza_116
#

v  -135.3121 12.4130 -92.8812
v  -135.3120 12.4130 28.0420
v  -135.3120 11.9628 28.0420
v  -135.3121 11.9628 -92.8812
v  136.8482 12.4130 28.0421
v  136.8482 12.4130 -92.7864
v  136.8482 11.9628 -92.7864
v  136.8482 11.9628 28.0421
v  8.3008 12.4130 -92.8312
v  8.3008 11.9628 -92.8312
v  -135.7674 12.8633 28.4974
v  -135.7674 12.8633 -93.3366
v  137.3036 12.8633 -93.2417
v  137.3036 12.8633 28.4974
v  8.2929 12.8633 -93.2865
v  -135.7674 12.4130 -93.3366
v  -135.7674 11.9628 -93.3366
v  -135.7674 11.9628 28.4974
v  -135.7674 12.4130 28.4974
v  137.3036 12.4130 28.4974
v  137.3036 11.9628 28.4974
v  137.3036 11.9628 -93.2417
v  137.3036 12.4130 -93.2417
v  -6.7852 12.4130 -93.2918
v  -6.7852 11.9628 -93.2918
v  -6.7852 12.8633 -93.2918
v  8.2929 11.9628 -93.2865
v  -6.7773 11.9628 -92.8364
v  -6.7773 12.4130 -92.8364
v  8.2929 12.4130 -93.2865
# 30 vertices

vn 1.0000 0.0000 -0.0000
vn -1.0000 0.0000 0.0000
vn -0.0003 0.0000 1.0000
vn 0.0000 0.0000 -1.0000
vn 0.4052 0.8196 -0.4052
vn 0.4051 0.8196 0.4052
vn -0.4052 0.8196 0.4051
vn -0.4052 0.8196 -0.4052
vn -0.0002 0.7111 0.7031
vn -1.0000 0.0000 -0.0000
vn 0.0003 0.0000 -1.0000
vn 0.0000 0.0000 1.0000
vn 0.0000 -1.0000 -0.0000
vn 0.0003 -0.0000 -1.0000
# 14 vertex normals

vt 8.3330 1.1986 0.0000
vt 14.8960 1.1986 0.0000
vt 14.8960 1.2605 0.0000
vt 8.3330 1.2605 0.0000
vt -12.9962 1.1986 0.0000
vt -6.4383 1.1986 0.0000
vt -6.4383 1.2605 0.0000
vt -12.9962 1.2605 0.0000
vt 0.5385 1.1986 0.0000
vt 0.5385 1.2605 0.0000
vt -27.7677 1.1986 0.0000
vt -27.7677 1.2605 0.0000
vt 14.9208 1.1367 0.0000
vt 8.3083 1.1367 0.0000
vt -6.4136 1.1367 0.0000
vt -13.0210 1.1367 0.0000
vt 0.5389 1.1367 0.0000
vt -6.4631 1.1367 0.0000
vt -12.9715 1.1367 0.0000
vt -27.7924 1.1367 0.0000
vt 8.3083 1.0748 0.0000
vt 8.3083 1.0128 0.0000
vt 14.9208 1.0128 0.0000
vt 14.9208 1.0748 0.0000
vt -13.0210 1.0748 0.0000
vt -13.0210 1.0128 0.0000
vt -6.4136 1.0128 0.0000
vt -6.4136 1.0748 0.0000
vt 1.3573 1.0748 0.0000
vt 1.3573 1.0128 0.0000
vt 8.3577 1.0128 0.0000
vt 8.3577 1.0748 0.0000
vt -27.7924 1.0748 0.0000
vt -27.7924 1.0128 0.0000
vt -12.9715 1.0128 0.0000
vt -12.9715 1.0748 0.0000
vt 8.3577 1.1367 0.0000
vt 1.3573 1.1367 0.0000
vt 14.9208 1.2734 0.0000
vt 8.3083 1.2734 0.0000
vt -6.4136 1.2734 0.0000
vt -13.0210 1.2734 0.0000
vt 0.5389 1.2733 0.0000
vt -6.4631 1.2720 0.0000
vt -12.9715 1.2734 0.0000
vt -27.7924 1.2734 0.0000
vt 1.3568 1.2605 0.0000
vt 1.3568 1.1986 0.0000
vt 8.3577 1.2747 0.0000
vt 1.3573 1.2735 0.0000
vt -6.4631 1.0748 0.0000
vt -6.4631 1.0128 0.0000
vt 0.5389 1.0128 0.0000
vt 0.5389 1.0748 0.0000
# 54 texture coords

g sponza_116
f 1/1/1 2/2/1 3/3/1 
f 1/1/1 3/3/1 4/4/1 
f 5/5/2 6/6/2 7/7/2 
f 5/5/2 7/7/2 8/8/2 
f 6/6/3 9/9/3 10/10/3 
f 6/6/3 10/10/3 7/7/3 
f 2/11/4 5/5/4 8/8/4 
f 2/11/4 8/8/4 3/12/4 
f 11/13/5 2/2/5 1/1/6 
f 11/13/5 1/1/6 12/14/6 
f 13/15/7 6/6/7 5/5/8 
f 13/15/7 5/5/8 14/16/8 
f 15/17/9 9/9/9 6/6/7 
f 15/17/9 6/6/7 13/18/7 
f 14/19/8 5/5/8 2/11/5 
f 14/19/8 2/11/5 11/20/5 
f 16/21/10 17/22/10 18/23/10 
f 16/21/10 18/23/10 19/24/10 
f 20/25/1 21/26/1 22/27/1 
f 20/25/1 22/27/1 23/28/1 
f 24/29/11 25/30/11 17/31/11 
f 24/29/11 17/31/11 16/32/11 
f 19/33/12 18/34/12 21/35/12 
f 19/33/12 21/35/12 20/36/12 
f 11/13/10 12/14/10 16/21/10 
f 11/13/10 16/21/10 19/24/10 
f 13/15/1 14/16/1 20/25/1 
f 13/15/1 20/25/1 23/28/1 
f 12/37/11 26/38/11 24/29/11 
f 12/37/11 24/29/11 16/32/11 
f 14/19/12 11/20/12 19/33/12 
f 14/19/12 19/33/12 20/36/12 
f 3/3/13 18/39/13 17/40/13 
f 3/3/13 17/40/13 4/4/13 
f 7/7/13 22/41/13 21/42/13 
f 7/7/13 21/42/13 8/8/13 
f 10/10/13 27/43/13 22/44/13 
f 10/10/13 22/44/13 7/7/13 
f 8/8/13 21/45/13 18/46/13 
f 8/8/13 18/46/13 3/12/13 
f 1/1/3 4/4/3 28/47/3 
f 1/1/3 28/47/3 29/48/3 
f 12/37/6 1/1/6 29/48/9 
f 12/37/6 29/48/9 26/38/9 
f 4/4/13 17/49/13 25/50/13 
f 4/4/13 25/50/13 28/47/13 
f 23/51/14 22/52/14 27/53/14 
f 23/51/14 27/53/14 30/54/14 
f 13/18/11 23/51/11 30/54/11 
f 13/18/11 30/54/11 15/17/11 
# 50 faces

