# 3ds Max Wavefront OBJ Exporter v0.97b - (c)2007 guruware
# File Created: 21.02.2011 11:31:39

#
# object sponza_230
#

v  -73.0559 78.8989 -6.1550
v  -73.0559 78.8989 -6.2873
v  -73.0559 78.9767 -6.4601
v  -73.0559 78.9767 -5.9615
v  -73.0559 79.3602 -5.8053
v  -73.0559 79.3602 -6.8016
v  -73.0559 79.5382 -6.6977
v  -73.0559 79.5382 -5.8480
v  -73.0559 79.7163 -6.5035
v  -73.0559 79.7163 -6.0011
v  -73.0559 79.1292 -6.5571
v  -73.0559 79.1590 -5.8338
v  -73.0559 78.4132 -6.9334
v  -73.0559 78.5729 -7.2198
v  -73.7435 79.5382 -5.8480
v  -73.7435 79.3602 -5.8053
v  -73.7435 79.7163 -6.0011
v  -73.7435 78.9767 -6.4601
v  -73.7435 79.1292 -6.5571
v  -73.7435 79.1590 -5.8338
v  -73.7435 78.9767 -5.9615
v  -73.7435 78.4132 -6.9334
v  -73.7435 78.5729 -7.2198
v  -73.7435 78.8989 -6.1550
v  -73.7435 78.8989 -6.2873
v  -73.7435 79.5382 -6.6977
v  -73.7435 79.3602 -6.8016
v  -73.7435 79.7163 -6.5035
# 28 vertices

vn 1.0000 0.0000 -0.0000
vn 0.0000 0.4552 0.8904
vn 0.0000 0.0474 0.9989
vn 0.0000 0.6519 0.7583
vn -0.0000 -0.7561 -0.6545
vn 0.0000 -0.5368 -0.8437
vn -0.0000 -0.5368 -0.8437
vn 0.0000 -0.3670 0.9302
vn 0.0000 -0.7832 0.6217
vn 0.0000 -0.4652 0.8852
vn 0.0000 -0.8733 -0.4871
vn -1.0000 0.0000 -0.0000
vn 0.0000 -0.9818 0.1900
vn -0.0000 -0.9777 -0.2099
vn 0.0000 -0.9777 -0.2099
# 15 vertex normals

vt 0.1992 0.5029 0.0000
vt 0.1937 0.4935 0.0000
vt 0.1809 0.4846 0.0000
vt 0.2019 0.5199 0.0000
vt 0.1813 0.5471 0.0000
vt 0.1394 0.4765 0.0000
vt 0.1311 0.4913 0.0000
vt 0.1669 0.5515 0.0000
vt 0.1267 0.5126 0.0000
vt 0.1478 0.5482 0.0000
vt 0.1660 0.4841 0.0000
vt 0.1943 0.5366 0.0000
vt 0.2009 0.4273 0.0000
vt 0.1776 0.4138 0.0000
vt 0.1179 0.2654 0.0000
vt 0.0646 0.2653 0.0000
vt 0.0645 0.2791 0.0000
vt 0.1179 0.2792 0.0000
vt 0.0646 0.2515 0.0000
vt 0.1180 0.2515 0.0000
vt 0.0645 0.3476 0.0000
vt 0.0645 0.3594 0.0000
vt 0.1178 0.3595 0.0000
vt 0.1178 0.3476 0.0000
vt 0.1179 0.2948 0.0000
vt 0.0645 0.2947 0.0000
vt 0.0645 0.3089 0.0000
vt 0.1179 0.3089 0.0000
vt 0.0644 0.4150 0.0000
vt 0.1178 0.4150 0.0000
vt 0.0644 0.4372 0.0000
vt 0.1177 0.4373 0.0000
vt 0.1564 0.5656 0.0000
vt 0.1415 0.5741 0.0000
vt 0.1821 0.5684 0.0000
vt 0.1671 0.5640 0.0000
vt 0.2079 0.6115 0.0000
vt 0.2144 0.5958 0.0000
vt 0.1331 0.6072 0.0000
vt 0.1386 0.6212 0.0000
vt 0.1941 0.6282 0.0000
vt 0.1531 0.6340 0.0000
vt 0.1918 0.5797 0.0000
vt 0.1331 0.5904 0.0000
vt 0.2395 0.5268 0.0000
vt 0.2143 0.5170 0.0000
vt 0.0645 0.3239 0.0000
vt 0.0645 0.3342 0.0000
vt 0.1179 0.3342 0.0000
vt 0.1179 0.3240 0.0000
# 50 texture coords

g sponza_230
f 1/1/1 2/2/1 3/3/1 
f 1/1/1 3/3/1 4/4/1 
f 5/5/1 6/6/1 7/7/1 
f 5/5/1 7/7/1 8/8/1 
f 8/8/1 7/7/1 9/9/1 
f 8/8/1 9/9/1 10/10/1 
f 11/11/1 6/6/1 5/5/1 
f 11/11/1 5/5/1 12/12/1 
f 4/4/1 3/3/1 11/11/1 
f 4/4/1 11/11/1 12/12/1 
f 11/11/1 13/13/1 14/14/1 
f 11/11/1 14/14/1 6/6/1 
f 8/15/2 15/16/2 16/17/3 
f 8/15/2 16/17/3 5/18/3 
f 17/19/4 15/16/2 8/15/2 
f 17/19/4 8/15/2 10/20/4 
f 18/21/5 19/22/6 11/23/7 
f 18/21/5 11/23/7 3/24/5 
f 12/25/8 20/26/8 21/27/9 
f 12/25/8 21/27/9 4/28/9 
f 11/23/10 19/22/10 22/29/10 
f 11/23/10 22/29/10 13/30/10 
f 13/30/11 22/29/11 23/31/11 
f 13/30/11 23/31/11 14/32/11 
f 24/33/12 21/34/12 18/35/12 
f 24/33/12 18/35/12 25/36/12 
f 26/37/12 27/38/12 16/39/12 
f 26/37/12 16/39/12 15/40/12 
f 28/41/12 26/37/12 15/40/12 
f 28/41/12 15/40/12 17/42/12 
f 16/39/12 27/38/12 19/43/12 
f 16/39/12 19/43/12 20/44/12 
f 21/34/12 20/44/12 19/43/12 
f 21/34/12 19/43/12 18/35/12 
f 19/43/12 27/38/12 23/45/12 
f 19/43/12 23/45/12 22/46/12 
f 24/47/13 25/48/14 2/49/15 
f 24/47/13 2/49/15 1/50/13 
f 21/27/9 24/47/13 1/50/13 
f 21/27/9 1/50/13 4/28/9 
f 16/17/3 20/26/8 12/25/8 
f 16/17/3 12/25/8 5/18/3 
f 25/48/14 18/21/5 3/24/5 
f 25/48/14 3/24/5 2/49/15 
# 44 faces

