# 3ds Max Wavefront OBJ Exporter v0.97b - (c)2007 guruware
# File Created: 21.02.2011 11:31:37

#
# object sponza_220
#

v  2.1409 79.7131 -8.8562
v  3.2997 79.7131 -8.8562
v  3.2997 79.7131 -7.9337
v  2.1409 79.7131 -7.9337
v  3.6410 81.0227 -7.9337
v  3.6410 81.0227 -8.8562
v  2.1409 81.0227 -8.8562
v  2.1409 81.0227 -7.9337
v  3.4164 79.9036 -7.9337
v  3.4164 79.9036 -8.8562
v  3.6410 80.0071 -7.9337
v  3.6410 80.0071 -8.8562
# 12 vertices

vn 0.0000 -1.0000 -0.0000
vn 0.0000 1.0000 -0.0000
vn 0.0000 0.0000 1.0000
vn 0.6642 -0.7475 0.0000
vn 0.6642 -0.7475 -0.0000
vn 0.8527 -0.5224 0.0000
vn 0.0000 0.0000 -1.0000
vn 1.0000 0.0000 -0.0000
vn 0.4185 -0.9082 -0.0000
# 9 vertex normals

vt 0.5979 0.9823 0.0000
vt 0.5979 0.9132 0.0000
vt 0.6529 0.9132 0.0000
vt 0.6529 0.9823 0.0000
vt 0.6529 0.8260 0.0000
vt 0.5979 0.8260 0.0000
vt 0.5979 0.7366 0.0000
vt 0.6529 0.7366 0.0000
vt 0.5153 0.8138 0.0000
vt 0.5266 0.8068 0.0000
vt 0.5153 0.8829 0.0000
vt 0.5979 0.8999 0.0000
vt 0.6529 0.8999 0.0000
vt 0.5866 0.9063 0.0000
vt 0.5933 0.8829 0.0000
vt 0.5933 0.7934 0.0000
vt 0.6529 0.8865 0.0000
vt 0.5979 0.8865 0.0000
vt 0.5198 0.9823 0.0000
vt 0.5199 0.8929 0.0000
vt 0.5328 0.7934 0.0000
vt 0.5804 0.8929 0.0000
# 22 texture coords

g sponza_220
f 1/1/1 2/2/1 3/3/1 
f 1/1/1 3/3/1 4/4/1 
f 5/5/2 6/6/2 7/7/2 
f 5/5/2 7/7/2 8/8/2 
f 3/9/3 9/10/3 4/11/3 
f 10/12/4 9/13/5 3/3/6 
f 10/12/4 3/3/6 2/2/6 
f 2/2/7 1/1/7 10/14/7 
f 8/15/3 4/11/3 9/10/3 
f 8/15/3 9/10/3 5/16/3 
f 5/5/8 11/17/8 12/18/8 
f 5/5/8 12/18/8 6/6/8 
f 7/19/7 6/20/7 10/14/7 
f 7/19/7 10/14/7 1/1/7 
f 5/16/3 9/10/3 11/21/3 
f 10/12/4 12/18/9 11/17/9 
f 10/12/4 11/17/9 9/13/5 
f 10/14/7 6/20/7 12/22/7 
# 18 faces

