# 3ds Max Wavefront OBJ Exporter v0.97b - (c)2007 guruware
# File Created: 21.02.2011 11:31:10

#
# object sponza_34
#

v  93.9493 81.6959 -10.3088
v  93.3175 81.6774 -10.3088
v  93.9493 104.4736 -10.3088
v  91.4270 88.6715 -10.3088
v  87.7253 91.9752 -10.3088
v  83.5065 94.1837 -10.3088
v  83.5065 104.4736 -10.3088
v  75.5859 88.6715 -10.3088
v  74.8116 104.4736 -10.3088
v  79.2876 91.9752 -10.3088
v  74.8116 85.8069 -10.3088
v  58.1963 88.7800 -10.3088
v  56.4520 104.4736 -10.3088
v  61.8979 92.3449 -10.3088
v  56.2532 84.0526 -10.3088
v  66.1168 104.4736 -10.3088
v  66.1168 94.1837 -10.3088
v  74.0373 88.6715 -10.3088
v  70.3356 91.9752 -10.3088
v  55.0779 86.7668 -10.3088
v  52.3603 90.7957 -10.3088
v  48.6520 93.3110 -10.3088
v  46.3113 94.3717 -10.3088
v  46.3113 104.4736 -10.3088
v  44.4231 93.7674 -10.3088
v  37.7065 104.4736 -10.3088
v  40.3788 90.9539 -10.3088
v  37.7065 87.5460 -10.3088
v  35.2292 89.9573 -10.3088
v  32.1276 92.5847 -10.3088
v  29.0259 93.8801 -10.3088
v  29.0259 104.4736 -10.3088
v  25.4529 92.2530 -10.3088
v  19.1963 104.4736 -10.3088
v  21.8798 88.9320 -10.3088
v  19.1963 83.4565 -10.3088
v  16.2128 89.9281 -10.3088
v  12.3239 92.6393 -10.3088
v  9.3403 94.1294 -10.3088
v  9.3403 104.4736 -10.3088
v  6.7186 92.8044 -10.3088
v  0.3985 104.4736 -10.3088
v  3.4031 90.4228 -10.3088
v  0.3987 87.4750 -10.3088
v  93.9493 81.7027 -11.7737
v  93.9493 104.4736 -32.5130
v  93.9493 90.9005 -28.6301
v  93.9493 93.6930 -22.7968
v  93.9493 104.4736 -22.7968
v  93.9493 90.9005 -16.9634
v  93.9493 87.1176 -31.5468
v  93.9493 87.1176 -14.0467
v  93.9493 85.6591 -32.5130
v  93.9493 81.6959 -54.8381
v  93.9493 104.4736 -54.8381
v  93.3175 81.6774 -54.8381
v  91.4270 88.6715 -54.8381
v  87.7253 91.9752 -54.8381
v  83.5065 104.4736 -54.8381
v  83.5065 94.1837 -54.8381
v  75.5859 88.6715 -54.8381
v  79.2876 91.9752 -54.8381
v  74.8116 104.4736 -54.8381
v  74.8116 85.8069 -54.8381
v  58.1963 88.7800 -54.8381
v  61.8979 92.3449 -54.8381
v  56.4520 104.4736 -54.8381
v  56.2532 84.0526 -54.8381
v  66.1168 94.1837 -54.8381
v  66.1168 104.4736 -54.8381
v  74.0373 88.6715 -54.8381
v  70.3356 91.9752 -54.8381
v  55.0779 86.7668 -54.8381
v  52.3603 90.7957 -54.8381
v  48.6520 93.3110 -54.8381
v  46.3113 104.4736 -54.8381
v  46.3113 94.3717 -54.8381
v  37.7065 104.4736 -54.8381
v  44.4231 93.7674 -54.8381
v  40.3788 90.9539 -54.8381
v  37.7065 87.5460 -54.8381
v  35.2292 89.9573 -54.8381
v  32.1276 92.5847 -54.8381
v  29.0259 104.4736 -54.8381
v  29.0259 93.8801 -54.8381
v  19.1963 104.4736 -54.8381
v  25.4529 92.2530 -54.8381
v  21.8798 88.9320 -54.8381
v  19.1963 83.4565 -54.8381
v  16.2128 89.9281 -54.8381
v  12.3239 92.6393 -54.8381
v  9.3403 104.4736 -54.8381
v  9.3403 94.1294 -54.8381
v  0.3987 104.4736 -54.8381
v  6.7186 92.8044 -54.8381
v  3.4031 90.4228 -54.8381
v  0.7760 87.4750 -54.8381
v  93.9493 81.7027 -52.9838
v  93.9493 93.6930 -42.2293
v  93.9493 90.9005 -36.3959
v  93.9493 104.4736 -42.2293
v  93.9493 90.9005 -48.0627
v  93.9493 87.1176 -33.4792
v  93.9493 87.1176 -50.9794
v  -93.1518 81.6959 -10.3088
v  -93.1518 104.4736 -10.3088
v  -92.5200 81.6774 -10.3088
v  -90.0638 88.6715 -10.3088
v  -86.9278 91.9752 -10.3088
v  -82.7090 104.4736 -10.3088
v  -82.7090 94.1837 -10.3088
v  -74.7884 88.6715 -10.3088
v  -78.4901 91.9752 -10.3088
v  -74.0141 104.4736 -10.3088
v  -74.0141 85.8069 -10.3088
v  -57.3988 88.7800 -10.3088
v  -61.1004 92.3449 -10.3088
v  -55.6545 104.4736 -10.3088
v  -54.7391 84.0526 -10.3088
v  -65.3193 94.1837 -10.3088
v  -65.3193 104.4736 -10.3088
v  -72.6171 88.6715 -10.3088
v  -69.5382 91.9752 -10.3088
v  -53.9351 86.7668 -10.3088
v  -51.3312 90.7957 -10.3088
v  -47.8545 93.3110 -10.3088
v  -45.5138 104.4736 -10.3088
v  -45.5138 94.3717 -10.3088
v  -36.9090 104.4736 -10.3088
v  -43.6256 93.7674 -10.3088
v  -39.5813 90.9539 -10.3088
v  -36.2074 87.5460 -10.3088
v  -34.4317 89.9573 -10.3088
v  -31.3301 92.5847 -10.3088
v  -28.2284 104.4736 -10.3088
v  -28.2284 93.8801 -10.3088
v  -18.3988 104.4736 -10.3088
v  -24.6554 92.2530 -10.3088
v  -21.0823 88.9320 -10.3088
v  -17.8380 83.4565 -10.3088
v  -14.9327 89.9281 -10.3088
v  -11.5264 92.6393 -10.3088
v  -8.5428 104.4736 -10.3088
v  -8.5428 94.1294 -10.3088
v  -5.9211 92.8044 -10.3088
v  -2.6056 90.4228 -10.3088
v  -93.1518 81.7027 -11.7737
v  -93.1518 93.6930 -22.7968
v  -93.1518 90.9005 -28.6301
v  -93.1518 104.4736 -32.5130
v  -93.1518 104.4736 -22.7968
v  -93.1518 90.9005 -16.9634
v  -93.1518 87.1176 -31.5468
v  -93.1518 87.1176 -14.0467
v  -93.1518 85.6591 -32.5130
v  -93.1518 81.6959 -54.8381
v  -92.5200 81.6774 -54.8381
v  -93.1518 104.4736 -54.8381
v  -90.1648 88.6715 -54.8381
v  -86.9278 91.9752 -54.8381
v  -82.7090 94.1837 -54.8381
v  -82.7090 104.4736 -54.8381
v  -74.7884 88.6715 -54.8381
v  -74.0141 104.4736 -54.8381
v  -78.4901 91.9752 -54.8381
v  -74.0141 85.8069 -54.8381
v  -57.3988 88.7800 -54.8381
v  -55.6545 104.4736 -54.8381
v  -61.1004 92.3449 -54.8381
v  -54.8268 84.0526 -54.8381
v  -65.3193 104.4736 -54.8381
v  -65.3193 94.1837 -54.8381
v  -72.5008 88.6715 -54.8381
v  -69.5382 91.9752 -54.8381
v  -53.9735 86.7668 -54.8381
v  -51.3536 90.7957 -54.8381
v  -47.8545 93.3110 -54.8381
v  -45.5138 94.3717 -54.8381
v  -45.5138 104.4736 -54.8381
v  -43.6256 93.7674 -54.8381
v  -36.9090 104.4736 -54.8381
v  -39.5813 90.9539 -54.8381
v  -36.1909 87.5460 -54.8381
v  -34.4317 89.9573 -54.8381
v  -31.3301 92.5847 -54.8381
v  -28.2284 93.8801 -54.8381
v  -28.2284 104.4736 -54.8381
v  -24.6554 92.2530 -54.8381
v  -18.3988 104.4736 -54.8381
v  -21.0823 88.9320 -54.8381
v  -17.9753 83.4565 -54.8381
v  -14.9538 89.9281 -54.8381
v  -11.5264 92.6393 -54.8381
v  -8.5428 94.1294 -54.8381
v  -8.5428 104.4736 -54.8381
v  -5.9211 92.8044 -54.8381
v  -2.6056 90.4228 -54.8381
v  -93.1518 81.7027 -52.9838
v  -93.1518 90.9005 -36.3959
v  -93.1518 93.6930 -42.2293
v  -93.1518 104.4736 -42.2293
v  -93.1518 90.9005 -48.0627
v  -93.1518 87.1176 -33.4792
v  -93.1518 87.1176 -50.9794
# 204 vertices

vn 0.0000 0.0000 -1.0000
vn -0.0000 0.0000 -1.0000
vn -1.0000 0.0000 -0.0000
vn 0.0000 0.0000 1.0000
vn 1.0000 0.0000 -0.0000
vn -0.0000 0.0000 1.0000
# 6 vertex normals

vt -0.0883 -0.4452 0.0000
vt -0.0570 -0.4461 0.0000
vt -0.0883 0.6814 0.0000
vt 0.0365 -0.1002 0.0000
vt 0.2196 0.0632 0.0000
vt 0.4282 0.1725 0.0000
vt 0.4282 0.6814 0.0000
vt 0.8200 -0.1002 0.0000
vt 0.8583 0.6814 0.0000
vt 0.6369 0.0632 0.0000
vt 0.8583 -0.2419 0.0000
vt 1.6801 -0.0948 0.0000
vt 1.7664 0.6814 0.0000
vt 1.4970 0.0815 0.0000
vt 1.7762 -0.3286 0.0000
vt 1.2883 0.6814 0.0000
vt 1.2883 0.1725 0.0000
vt 0.8966 -0.1002 0.0000
vt 1.0797 0.0632 0.0000
vt 1.8343 -0.1944 0.0000
vt 1.9688 0.0049 0.0000
vt 2.1522 0.1293 0.0000
vt 2.2680 0.1818 0.0000
vt 2.2680 0.6814 0.0000
vt 2.3614 0.1519 0.0000
vt 2.6936 0.6814 0.0000
vt 2.5614 0.0127 0.0000
vt 2.6936 -0.1558 0.0000
vt 2.8161 -0.0366 0.0000
vt 2.9695 0.0934 0.0000
vt 3.1229 0.1575 0.0000
vt 3.1229 0.6814 0.0000
vt 3.2996 0.0770 0.0000
vt 3.6091 0.6814 0.0000
vt 3.4764 -0.0873 0.0000
vt 3.6091 -0.3581 0.0000
vt 3.7567 -0.0380 0.0000
vt 3.9490 0.0961 0.0000
vt 4.0966 0.1698 0.0000
vt 4.0966 0.6814 0.0000
vt 4.2263 0.1042 0.0000
vt 4.5293 0.6814 0.0000
vt 4.3903 -0.0136 0.0000
vt 4.5293 -0.1556 0.0000
vt 22.7233 -0.4452 0.0000
vt 22.7233 0.6814 0.0000
vt 22.6734 -0.4449 0.0000
vt 21.6476 0.6814 0.0000
vt 21.8396 0.0101 0.0000
vt 22.1282 0.1482 0.0000
vt 22.1282 0.6814 0.0000
vt 22.4167 0.0101 0.0000
vt 21.6954 -0.1770 0.0000
vt 22.5609 -0.1770 0.0000
vt 21.6476 -0.2492 0.0000
vt 20.5718 -0.4452 0.0000
vt 20.5718 0.6814 0.0000
vt 20.5406 -0.4461 0.0000
vt 20.4471 -0.1002 0.0000
vt 20.2640 0.0632 0.0000
vt 20.0553 0.6814 0.0000
vt 20.0553 0.1725 0.0000
vt 19.6635 -0.1002 0.0000
vt 19.8466 0.0632 0.0000
vt 19.6252 0.6814 0.0000
vt 19.6252 -0.2419 0.0000
vt 18.8034 -0.0948 0.0000
vt 18.9865 0.0815 0.0000
vt 18.7172 0.6814 0.0000
vt 18.7073 -0.3286 0.0000
vt 19.1952 0.1725 0.0000
vt 19.1952 0.6814 0.0000
vt 19.5870 -0.1002 0.0000
vt 19.4039 0.0632 0.0000
vt 18.6492 -0.1944 0.0000
vt 18.5148 0.0049 0.0000
vt 18.3314 0.1293 0.0000
vt 18.2156 0.6814 0.0000
vt 18.2156 0.1818 0.0000
vt 17.7900 0.6814 0.0000
vt 18.1222 0.1519 0.0000
vt 17.9221 0.0127 0.0000
vt 17.7900 -0.1558 0.0000
vt 17.6674 -0.0366 0.0000
vt 17.5140 0.0934 0.0000
vt 17.3606 0.6814 0.0000
vt 17.3606 0.1575 0.0000
vt 16.8744 0.6814 0.0000
vt 17.1839 0.0770 0.0000
vt 17.0072 -0.0873 0.0000
vt 16.8744 -0.3581 0.0000
vt 16.7269 -0.0380 0.0000
vt 16.5345 0.0961 0.0000
vt 16.3869 0.6814 0.0000
vt 16.3869 0.1698 0.0000
vt 15.9542 0.6814 0.0000
vt 16.2573 0.1042 0.0000
vt 16.0933 -0.0136 0.0000
vt 15.9722 -0.1554 0.0000
vt 20.6351 -0.4449 0.0000
vt 21.1670 0.1482 0.0000
vt 21.4555 0.0101 0.0000
vt 21.1670 0.6814 0.0000
vt 20.8785 0.0101 0.0000
vt 21.5998 -0.1770 0.0000
vt 20.7342 -0.1770 0.0000
vt 0.0644 -0.1002 0.0000
vt 1.8117 -0.3286 0.0000
vt 0.9274 -0.1002 0.0000
vt 1.8514 -0.1944 0.0000
vt 1.9802 0.0049 0.0000
vt 2.7283 -0.1558 0.0000
vt 3.6368 -0.3581 0.0000
vt 3.7805 -0.0380 0.0000
vt 20.4241 -0.1002 0.0000
vt 18.6762 -0.3286 0.0000
vt 19.5504 -0.1002 0.0000
vt 18.6340 -0.1944 0.0000
vt 18.5044 0.0049 0.0000
vt 17.7545 -0.1558 0.0000
vt 16.8535 -0.3581 0.0000
vt 16.7040 -0.0380 0.0000
vt 15.9367 -0.1556 0.0000
# 123 texture coords

g sponza_34
f 1/1/1 2/2/1 3/3/1 
f 4/4/1 5/5/1 3/3/1 
f 2/2/1 4/4/1 3/3/1 
f 5/5/1 6/6/1 7/7/1 
f 5/5/1 7/7/1 3/3/1 
f 8/8/1 9/9/1 10/10/1 
f 7/7/1 6/6/1 10/10/1 
f 7/7/1 10/10/1 9/9/1 
f 9/9/1 8/8/1 11/11/1 
f 12/12/1 13/13/1 14/14/1 
f 15/15/1 13/13/1 12/12/1 
f 16/16/1 17/17/1 14/14/1 
f 16/16/1 14/14/1 13/13/1 
f 18/18/1 19/19/1 9/9/1 
f 19/19/1 17/17/1 16/16/1 
f 19/19/1 16/16/1 9/9/1 
f 11/11/1 18/18/1 9/9/1 
f 15/15/1 20/20/1 13/13/1 
f 21/21/1 22/22/1 13/13/1 
f 20/20/1 21/21/1 13/13/1 
f 22/22/1 23/23/1 24/24/1 
f 22/22/1 24/24/1 13/13/1 
f 24/24/1 23/23/1 25/25/1 
f 24/24/1 25/25/1 26/26/1 
f 25/25/1 27/27/1 26/26/1 
f 27/27/1 28/28/1 26/26/1 
f 28/28/1 29/29/1 26/26/1 
f 29/29/1 30/30/1 26/26/1 
f 30/30/1 31/31/1 32/32/1 
f 30/30/1 32/32/1 26/26/1 
f 32/32/1 31/31/1 33/33/1 
f 32/32/1 33/33/1 34/34/1 
f 35/35/2 36/36/1 34/34/1 
f 33/33/1 35/35/2 34/34/1 
f 36/36/1 37/37/1 34/34/1 
f 38/38/1 39/39/1 40/40/1 
f 38/38/1 40/40/1 34/34/1 
f 37/37/1 38/38/1 34/34/1 
f 40/40/1 39/39/1 41/41/1 
f 40/40/1 41/41/1 42/42/1 
f 43/43/1 44/44/1 42/42/1 
f 41/41/1 43/43/1 42/42/1 
f 1/45/3 3/46/3 45/47/3 
f 46/48/3 47/49/3 48/50/3 
f 46/48/3 48/50/3 49/51/3 
f 49/51/3 48/50/3 50/52/3 
f 49/51/3 50/52/3 3/46/3 
f 46/48/3 51/53/3 47/49/3 
f 3/46/3 50/52/3 52/54/3 
f 46/48/3 53/55/3 51/53/3 
f 3/46/3 52/54/3 45/47/3 
f 54/56/4 55/57/4 56/58/4 
f 57/59/4 55/57/4 58/60/4 
f 56/58/4 55/57/4 57/59/4 
f 59/61/4 60/62/4 58/60/4 
f 59/61/4 58/60/4 55/57/4 
f 61/63/4 62/64/4 63/65/4 
f 62/64/4 60/62/4 59/61/4 
f 62/64/4 59/61/4 63/65/4 
f 63/65/4 64/66/4 61/63/4 
f 65/67/4 66/68/4 67/69/4 
f 68/70/4 65/67/4 67/69/4 
f 66/68/4 69/71/4 70/72/4 
f 66/68/4 70/72/4 67/69/4 
f 71/73/4 63/65/4 72/74/4 
f 70/72/4 69/71/4 72/74/4 
f 70/72/4 72/74/4 63/65/4 
f 64/66/4 63/65/4 71/73/4 
f 68/70/4 67/69/4 73/75/4 
f 74/76/4 67/69/4 75/77/4 
f 73/75/4 67/69/4 74/76/4 
f 75/77/4 67/69/4 76/78/4 
f 75/77/4 76/78/4 77/79/4 
f 76/78/4 78/80/4 79/81/4 
f 76/78/4 79/81/4 77/79/4 
f 79/81/4 78/80/4 80/82/4 
f 80/82/4 78/80/4 81/83/4 
f 81/83/4 78/80/4 82/84/4 
f 82/84/4 78/80/4 83/85/4 
f 83/85/4 78/80/4 84/86/4 
f 83/85/4 84/86/4 85/87/4 
f 84/86/4 86/88/4 87/89/4 
f 84/86/4 87/89/4 85/87/4 
f 88/90/4 86/88/4 89/91/4 
f 87/89/4 86/88/4 88/90/4 
f 89/91/4 86/88/4 90/92/4 
f 91/93/4 86/88/4 92/94/4 
f 91/93/4 92/94/4 93/95/4 
f 90/92/4 86/88/4 91/93/4 
f 92/94/4 94/96/4 95/97/4 
f 92/94/4 95/97/4 93/95/4 
f 96/98/4 94/96/4 97/99/4 
f 95/97/4 94/96/4 96/98/4 
f 54/56/3 98/100/3 55/57/3 
f 99/101/3 100/102/3 46/48/3 
f 99/101/3 46/48/3 101/103/3 
f 102/104/3 99/101/3 101/103/3 
f 102/104/3 101/103/3 55/57/3 
f 100/102/3 103/105/3 46/48/3 
f 55/57/3 104/106/3 102/104/3 
f 103/105/3 53/55/3 46/48/3 
f 55/57/3 98/100/3 104/106/3 
f 105/1/1 106/3/1 107/2/1 
f 108/107/1 106/3/1 109/5/1 
f 107/2/1 106/3/1 108/107/1 
f 110/7/1 111/6/1 109/5/1 
f 110/7/1 109/5/1 106/3/1 
f 112/8/1 113/10/1 114/9/1 
f 113/10/1 111/6/1 110/7/1 
f 113/10/1 110/7/1 114/9/1 
f 114/9/1 115/11/1 112/8/1 
f 116/12/1 117/14/1 118/13/1 
f 119/108/1 116/12/1 118/13/1 
f 117/14/1 120/17/1 121/16/1 
f 117/14/1 121/16/1 118/13/1 
f 122/109/1 114/9/1 123/19/1 
f 121/16/1 120/17/1 123/19/1 
f 121/16/1 123/19/1 114/9/1 
f 115/11/1 114/9/1 122/109/1 
f 119/108/1 118/13/1 124/110/1 
f 125/111/1 118/13/1 126/22/1 
f 124/110/1 118/13/1 125/111/1 
f 126/22/1 118/13/1 127/24/1 
f 126/22/1 127/24/1 128/23/1 
f 127/24/1 129/26/1 130/25/1 
f 127/24/1 130/25/1 128/23/1 
f 130/25/1 129/26/1 131/27/2 
f 131/27/2 129/26/1 132/112/2 
f 132/112/2 129/26/1 133/29/1 
f 133/29/1 129/26/1 134/30/1 
f 134/30/1 129/26/1 135/32/1 
f 134/30/1 135/32/1 136/31/1 
f 135/32/1 137/34/1 138/33/1 
f 135/32/1 138/33/1 136/31/1 
f 139/35/1 137/34/1 140/113/1 
f 138/33/1 137/34/1 139/35/1 
f 140/113/1 137/34/1 141/114/2 
f 142/38/1 137/34/1 143/40/1 
f 142/38/1 143/40/1 144/39/2 
f 141/114/2 137/34/1 142/38/1 
f 143/40/1 42/42/1 145/41/1 
f 143/40/1 145/41/1 144/39/2 
f 146/43/1 42/42/1 44/44/1 
f 145/41/1 42/42/1 146/43/1 
f 105/45/5 147/47/5 106/46/5 
f 148/50/5 149/49/5 150/48/5 
f 148/50/5 150/48/5 151/51/5 
f 152/52/5 148/50/5 151/51/5 
f 152/52/5 151/51/5 106/46/5 
f 150/48/5 149/49/5 153/53/5 
f 106/46/5 154/54/5 152/52/5 
f 150/48/5 153/53/5 155/55/5 
f 106/46/5 147/47/5 154/54/5 
f 156/56/4 157/58/4 158/57/4 
f 159/115/4 160/60/4 158/57/4 
f 157/58/4 159/115/4 158/57/4 
f 160/60/4 161/62/4 162/61/4 
f 160/60/4 162/61/4 158/57/4 
f 163/63/4 164/65/4 165/64/4 
f 162/61/4 161/62/4 165/64/4 
f 162/61/4 165/64/4 164/65/4 
f 164/65/4 163/63/4 166/66/4 
f 167/67/4 168/69/4 169/68/4 
f 170/116/4 168/69/4 167/67/4 
f 171/72/4 172/71/4 169/68/4 
f 171/72/4 169/68/4 168/69/4 
f 173/117/4 174/74/4 164/65/4 
f 174/74/4 172/71/4 171/72/4 
f 174/74/4 171/72/4 164/65/4 
f 166/66/4 173/117/4 164/65/4 
f 170/116/4 175/118/4 168/69/4 
f 176/119/4 177/77/4 168/69/4 
f 175/118/4 176/119/4 168/69/4 
f 177/77/4 178/79/4 179/78/4 
f 177/77/4 179/78/4 168/69/4 
f 179/78/4 178/79/4 180/81/4 
f 179/78/4 180/81/4 181/80/4 
f 180/81/4 182/82/4 181/80/4 
f 182/82/4 183/120/6 181/80/4 
f 183/120/6 184/84/4 181/80/4 
f 184/84/4 185/85/4 181/80/4 
f 185/85/4 186/87/4 187/86/4 
f 185/85/4 187/86/4 181/80/4 
f 187/86/4 186/87/4 188/89/4 
f 187/86/4 188/89/4 189/88/4 
f 190/90/4 191/121/6 189/88/4 
f 188/89/4 190/90/4 189/88/4 
f 191/121/6 192/122/4 189/88/4 
f 193/93/4 194/95/6 195/94/4 
f 193/93/4 195/94/4 189/88/4 
f 192/122/4 193/93/4 189/88/4 
f 195/94/4 194/95/6 196/97/4 
f 195/94/4 196/97/4 94/96/4 
f 197/98/4 97/123/4 94/96/4 
f 196/97/4 197/98/4 94/96/4 
f 156/56/5 158/57/5 198/100/5 
f 150/48/5 199/102/5 200/101/5 
f 150/48/5 200/101/5 201/103/5 
f 201/103/5 200/101/5 202/104/5 
f 201/103/5 202/104/5 158/57/5 
f 199/102/5 150/48/5 203/105/5 
f 158/57/5 202/104/5 204/106/5 
f 203/105/5 150/48/5 155/55/5 
f 158/57/5 204/106/5 198/100/5 
# 204 faces

