# 3ds Max Wavefront OBJ Exporter v0.97b - (c)2007 guruware
# File Created: 21.02.2011 11:31:31

#
# object sponza_178
#

v  -76.2463 81.0199 -53.9420
v  -76.2885 81.0199 -53.9595
v  -76.3347 81.0199 -54.0057
v  -76.3522 81.0199 -59.7354
v  -76.3522 81.0199 -54.1236
v  -76.3522 81.0199 -59.6183
v  -76.3522 81.0199 -54.0479
v  -76.3347 81.0199 -59.7776
v  -76.2885 81.0199 -59.8239
v  -70.5482 81.0199 -59.8414
v  -76.1145 81.0199 -59.8414
v  -70.6455 81.0199 -59.8414
v  -76.2463 81.0199 -59.8414
v  -70.5060 81.0199 -59.8239
v  -70.4598 81.0199 -59.7776
v  -70.4423 81.0199 -54.0479
v  -70.4423 81.0199 -59.6203
v  -70.4423 81.0199 -54.1852
v  -70.4423 81.0199 -59.7354
v  -70.4598 81.0199 -54.0057
v  -70.5060 81.0199 -53.9595
v  -70.6764 81.0199 -53.9420
v  -76.2013 81.0199 -53.9420
v  -70.5482 81.0199 -53.9420
v  -70.4423 81.8674 -59.7354
v  -70.4598 81.8674 -59.7776
v  -70.5060 81.8674 -59.8239
v  -76.2463 81.8674 -59.8414
v  -70.6455 81.8674 -59.8414
v  -76.1145 81.8674 -59.8414
v  -70.5482 81.8674 -59.8414
v  -76.2885 81.8674 -59.8239
v  -76.3347 81.8674 -59.7776
v  -76.3522 81.8674 -54.0479
v  -76.3522 81.8674 -59.6183
v  -76.3522 81.8674 -54.1236
v  -76.3522 81.8674 -59.7354
v  -76.3347 81.8674 -54.0057
v  -76.2885 81.8674 -53.9595
v  -70.5482 81.8674 -53.9420
v  -76.2013 81.8674 -53.9420
v  -70.6764 81.8674 -53.9420
v  -76.2463 81.8674 -53.9420
v  -70.5060 81.8674 -53.9595
v  -70.4598 81.8674 -54.0057
v  -70.4423 81.8674 -54.1852
v  -70.4423 81.8674 -59.6203
v  -70.4423 81.8674 -54.0479
v  -70.5414 81.0546 -53.9073
v  -70.5414 81.6403 -53.9073
v  -70.6698 81.4439 -53.9073
v  -70.6698 81.2475 -53.9073
v  -76.3869 81.0546 -54.0410
v  -76.3869 81.6403 -54.0410
v  -76.3869 81.4439 -54.1169
v  -76.3869 81.2475 -54.1169
v  -76.3081 81.0546 -53.9301
v  -76.3081 81.8327 -53.9301
v  -76.3641 81.8327 -53.9861
v  -76.3641 81.0546 -53.9861
v  -70.4864 81.0546 -53.9301
v  -70.4304 81.0546 -53.9861
v  -70.4304 81.8327 -53.9861
v  -70.4864 81.8327 -53.9301
v  -76.3641 81.0546 -59.7973
v  -76.3641 81.8327 -59.7973
v  -76.3081 81.8327 -59.8533
v  -76.3081 81.0546 -59.8533
v  -76.2532 81.6403 -53.9073
v  -76.2532 81.8327 -53.9073
v  -76.2532 81.0546 -53.9073
v  -70.5414 81.8327 -53.9073
v  -76.3869 81.0546 -59.7423
v  -76.3869 81.6403 -59.7423
v  -76.3869 81.8327 -54.0410
v  -70.4076 81.0546 -54.0410
v  -70.4076 81.6403 -54.0410
v  -70.4076 81.8327 -54.0410
v  -76.2532 81.6403 -59.8761
v  -76.2532 81.0546 -59.8761
v  -76.3869 81.0546 -59.6249
v  -76.2081 81.0546 -53.9073
v  -70.6698 81.8327 -53.9073
v  -76.3869 81.8327 -54.1169
v  -76.2532 81.8327 -59.8761
v  -76.3869 81.8327 -59.7423
v  -76.1211 81.4439 -59.8761
v  -76.1211 81.2475 -59.8761
v  -70.4076 81.0546 -59.7423
v  -70.4076 81.6403 -59.7423
v  -70.4076 81.4439 -59.6269
v  -70.4076 81.2475 -59.6269
v  -70.4864 81.0546 -59.8533
v  -70.4864 81.8327 -59.8533
v  -70.4304 81.8327 -59.7973
v  -70.4304 81.0546 -59.7973
v  -70.5414 81.6403 -59.8761
v  -70.5414 81.8327 -59.8761
v  -70.5414 81.0546 -59.8761
v  -70.4076 81.8327 -59.7423
v  -70.4076 81.0546 -54.1786
v  -70.6389 81.0546 -59.8761
v  -76.1211 81.8327 -59.8761
v  -70.4076 81.8327 -59.6269
v  -76.2081 81.6403 -53.9073
v  -76.3869 81.6403 -59.6249
v  -76.3869 81.8327 -59.6249
v  -70.6389 81.6403 -59.8761
v  -70.4076 81.6403 -54.1786
v  -70.6698 81.0546 -53.9073
v  -70.7180 81.2475 -53.9073
v  -76.2081 81.8327 -53.9073
v  -70.6698 81.6403 -53.9073
v  -76.1407 81.6403 -53.9073
v  -76.2081 81.4439 -53.9073
v  -76.1407 81.4439 -54.1785
v  -76.2081 81.2475 -53.9073
v  -76.3869 81.2475 -59.6249
v  -76.3869 81.0546 -54.1169
v  -76.3869 81.6403 -59.5725
v  -76.3869 81.4439 -59.6249
v  -76.1920 81.4439 -59.5725
v  -76.3869 81.2475 -54.1894
v  -76.3869 81.6403 -54.1169
v  -70.6389 81.2475 -59.8761
v  -76.1211 81.0546 -59.8761
v  -70.6389 81.8327 -59.8761
v  -70.6959 81.6403 -59.8761
v  -70.6389 81.4439 -59.8761
v  -70.6959 81.4439 -59.6778
v  -76.0582 81.2475 -59.8761
v  -76.1211 81.6403 -59.8761
v  -70.4076 81.2475 -54.1786
v  -70.4076 81.0546 -59.6269
v  -70.4076 81.8327 -54.1786
v  -70.4076 81.6403 -54.2441
v  -70.4076 81.4439 -54.1786
v  -70.6528 81.4439 -54.2441
v  -70.4076 81.2475 -59.5765
v  -70.4076 81.6403 -59.6269
v  -70.7180 81.4439 -54.1785
v  -76.1920 81.4439 -54.1894
v  -76.0582 81.4439 -59.6778
v  -70.6528 81.4439 -59.5765
v  -70.4076 81.6403 -59.5765
v  -70.4076 81.2475 -54.2441
v  -76.0582 81.6403 -59.8761
v  -70.6959 81.2475 -59.8761
v  -76.3869 81.6403 -54.1894
v  -76.3869 81.2475 -59.5725
v  -70.7180 81.6403 -53.9073
v  -76.1407 81.2475 -53.9073
# 152 vertices

vn -0.0814 -0.9088 0.4092
vn -0.2318 -0.9088 0.3469
vn -0.3469 -0.9088 0.2318
vn -0.4092 -0.9088 -0.0814
vn -0.3827 -0.9239 -0.0000
vn -0.4092 -0.9088 0.0814
vn -0.3469 -0.9088 -0.2318
vn -0.2318 -0.9088 -0.3469
vn 0.0814 -0.9088 -0.4092
vn 0.0000 -0.9239 -0.3827
vn -0.0814 -0.9088 -0.4092
vn 0.2318 -0.9088 -0.3469
vn 0.3469 -0.9088 -0.2318
vn 0.4092 -0.9088 0.0814
vn 0.3827 -0.9239 -0.0000
vn 0.4092 -0.9088 -0.0814
vn 0.3470 -0.9088 0.2318
vn 0.2318 -0.9088 0.3469
vn 0.0000 -0.9239 0.3827
vn 0.0814 -0.9088 0.4092
vn 0.4092 0.9088 -0.0814
vn 0.3470 0.9088 -0.2318
vn 0.2318 0.9088 -0.3469
vn -0.0814 0.9088 -0.4092
vn 0.0000 0.9239 -0.3827
vn 0.0814 0.9088 -0.4092
vn -0.2318 0.9088 -0.3469
vn -0.3469 0.9088 -0.2318
vn -0.4092 0.9088 0.0814
vn -0.3827 0.9239 -0.0000
vn -0.4092 0.9088 -0.0814
vn -0.3470 0.9088 0.2318
vn -0.2318 0.9088 0.3469
vn 0.0814 0.9088 0.4092
vn 0.0000 0.9239 0.3827
vn -0.0814 0.9088 0.4092
vn 0.2318 0.9088 0.3469
vn 0.3469 0.9088 0.2318
vn 0.3827 0.9239 -0.0000
vn 0.4092 0.9088 0.0814
vn 0.1812 -0.3710 0.9108
vn 0.1951 0.0000 0.9808
vn 0.0000 0.0000 1.0000
vn -0.9108 -0.3710 0.1812
vn -0.9808 0.0000 0.1951
vn -1.0000 0.0000 -0.0000
vn -0.5159 -0.3710 0.7721
vn -0.5159 0.3710 0.7721
vn -0.7721 0.3710 0.5159
vn -0.7721 -0.3709 0.5159
vn 0.5159 -0.3710 0.7721
vn 0.7721 -0.3710 0.5159
vn 0.7721 0.3709 0.5159
vn 0.5159 0.3710 0.7721
vn -0.7721 -0.3710 -0.5159
vn -0.7721 0.3710 -0.5160
vn -0.5159 0.3710 -0.7721
vn -0.5159 -0.3710 -0.7721
vn -0.1951 0.0000 0.9808
vn -0.1812 0.3710 0.9108
vn -0.1812 -0.3710 0.9108
vn 0.1812 0.3710 0.9108
vn -0.9108 -0.3710 -0.1812
vn -0.9808 0.0000 -0.1951
vn -0.9108 0.3710 0.1812
vn 0.9108 -0.3710 0.1812
vn 0.9808 0.0000 0.1951
vn 0.9108 0.3710 0.1812
vn -0.1951 0.0000 -0.9808
vn -0.1812 -0.3710 -0.9108
vn -0.9239 -0.3827 -0.0000
vn 0.0000 -0.3827 0.9239
vn 0.0000 0.3827 0.9239
vn -0.9239 0.3827 -0.0000
vn -0.1812 0.3710 -0.9108
vn -0.9108 0.3710 -0.1812
vn 0.0000 0.0000 -1.0000
vn 0.9108 -0.3710 -0.1812
vn 0.9808 0.0000 -0.1951
vn 1.0000 0.0000 -0.0000
vn 0.5159 -0.3710 -0.7721
vn 0.5159 0.3710 -0.7721
vn 0.7721 0.3710 -0.5159
vn 0.7721 -0.3709 -0.5159
vn 0.1951 0.0000 -0.9808
vn 0.1812 0.3710 -0.9108
vn 0.1812 -0.3710 -0.9108
vn 0.9108 0.3710 -0.1812
vn 0.9239 -0.3827 -0.0000
vn 0.0000 -0.3827 -0.9239
vn 0.0000 0.3827 -0.9239
vn 0.9239 0.3827 -0.0000
vn 0.5172 -0.1774 0.8373
vn 0.8984 -0.0000 0.4391
vn 0.9705 -0.0000 0.2410
vn -0.9678 -0.2516 -0.0000
vn -0.8870 -0.1190 0.4463
vn -0.4134 -0.0000 0.9106
vn -0.2595 -0.0000 0.9657
vn -0.9678 0.2516 -0.0000
vn -0.4494 -0.1304 -0.8838
vn -0.8974 -0.0000 -0.4411
vn -0.9611 -0.0000 -0.2762
vn 0.8524 -0.1654 -0.4961
vn 0.4486 -0.0000 -0.8937
vn 0.2580 -0.0000 -0.9661
vn -0.9461 -0.0000 0.3239
vn -0.9846 -0.0000 0.1750
vn -0.5213 0.1280 0.8437
vn -0.5437 -0.0000 -0.8393
vn -0.3489 -0.0000 -0.9372
vn -0.8828 0.1627 -0.4406
vn 0.8773 -0.0000 -0.4800
vn 0.9532 -0.0000 -0.3023
vn 0.4478 0.1434 -0.8826
vn 0.3548 -0.0000 0.9349
vn 0.2014 -0.0000 0.9795
vn 0.8567 0.1282 0.4996
vn 0.6252 -0.7805 -0.0000
vn 0.8524 0.1654 -0.4961
vn 0.6252 0.7805 -0.0000
vn 0.8567 -0.1282 0.4996
vn 0.0000 -0.7105 -0.7037
vn -0.4494 0.1304 -0.8838
vn 0.0000 0.7105 -0.7037
vn 0.4478 -0.1434 -0.8826
vn -1.0000 -0.0000 -0.0000
vn -0.8870 0.1190 0.4462
vn -0.8828 -0.1627 -0.4406
vn 0.0000 -0.8099 0.5865
vn 0.5171 0.1774 0.8373
vn 0.0000 0.8099 0.5865
vn -0.5213 -0.1280 0.8437
# 133 vertex normals

vt 0.6734 0.6622 0.0000
vt 0.6713 0.6631 0.0000
vt 0.6687 0.6656 0.0000
vt 0.6678 0.9769 0.0000
vt 0.6678 0.6720 0.0000
vt 0.6678 0.9705 0.0000
vt 0.6678 0.6679 0.0000
vt 0.6687 0.9792 0.0000
vt 0.6713 0.9817 0.0000
vt 0.9831 0.9826 0.0000
vt 0.6807 0.9826 0.0000
vt 0.9778 0.9826 0.0000
vt 0.6736 0.9826 0.0000
vt 0.9853 0.9817 0.0000
vt 0.9879 0.9792 0.0000
vt 0.9888 0.6679 0.0000
vt 0.9888 0.9706 0.0000
vt 0.9888 0.6754 0.0000
vt 0.9888 0.9769 0.0000
vt 0.9879 0.6656 0.0000
vt 0.9853 0.6631 0.0000
vt 0.9761 0.6621 0.0000
vt 0.6758 0.6622 0.0000
vt 0.9831 0.6621 0.0000
vt 0.5631 0.6536 0.0000
vt 0.5626 0.6526 0.0000
vt 0.5616 0.6515 0.0000
vt 0.4276 0.6511 0.0000
vt 0.5583 0.6511 0.0000
vt 0.4307 0.6511 0.0000
vt 0.5606 0.6511 0.0000
vt 0.4266 0.6515 0.0000
vt 0.4256 0.6526 0.0000
vt 0.4252 0.7863 0.0000
vt 0.4252 0.6563 0.0000
vt 0.4252 0.7845 0.0000
vt 0.4252 0.6536 0.0000
vt 0.4256 0.7873 0.0000
vt 0.4266 0.7884 0.0000
vt 0.5606 0.7888 0.0000
vt 0.4286 0.7888 0.0000
vt 0.5577 0.7888 0.0000
vt 0.4276 0.7888 0.0000
vt 0.5616 0.7884 0.0000
vt 0.5626 0.7873 0.0000
vt 0.5631 0.7831 0.0000
vt 0.5631 0.6563 0.0000
vt 0.5631 0.7863 0.0000
vt 0.0143 0.6233 0.0000
vt 0.0450 0.6233 0.0000
vt 0.0347 0.6166 0.0000
vt 0.0244 0.6166 0.0000
vt 0.0143 0.3152 0.0000
vt 0.0450 0.3152 0.0000
vt 0.0347 0.3112 0.0000
vt 0.0244 0.3112 0.0000
vt 0.0143 0.3210 0.0000
vt 0.0551 0.3210 0.0000
vt 0.0551 0.3181 0.0000
vt 0.0143 0.3181 0.0000
vt 0.0143 0.6262 0.0000
vt 0.0143 0.6291 0.0000
vt 0.0551 0.6291 0.0000
vt 0.0551 0.6262 0.0000
vt 0.0143 0.0134 0.0000
vt 0.0551 0.0134 0.0000
vt 0.0551 0.0105 0.0000
vt 0.0143 0.0105 0.0000
vt 0.0450 0.3239 0.0000
vt 0.0551 0.3239 0.0000
vt 0.0143 0.3239 0.0000
vt 0.0551 0.6233 0.0000
vt 0.0143 0.0163 0.0000
vt 0.0450 0.0163 0.0000
vt 0.0551 0.3152 0.0000
vt 0.0143 0.6320 0.0000
vt 0.0450 0.6320 0.0000
vt 0.0551 0.6320 0.0000
vt 0.0450 0.0076 0.0000
vt 0.0143 0.0076 0.0000
vt 0.0124 0.0165 0.0000
vt 0.0124 0.0226 0.0000
vt 0.0143 0.0224 0.0000
vt 0.0125 0.3241 0.0000
vt 0.0125 0.3264 0.0000
vt 0.0143 0.3262 0.0000
vt 0.0569 0.6231 0.0000
vt 0.0569 0.6164 0.0000
vt 0.0551 0.6166 0.0000
vt 0.0570 0.3151 0.0000
vt 0.0570 0.3112 0.0000
vt 0.0551 0.3112 0.0000
vt 0.0125 0.6262 0.0000
vt 0.0125 0.6292 0.0000
vt 0.0126 0.3180 0.0000
vt 0.0126 0.3210 0.0000
vt 0.0125 0.0104 0.0000
vt 0.0122 0.0134 0.0000
vt 0.0572 0.6292 0.0000
vt 0.0569 0.6262 0.0000
vt 0.0568 0.3210 0.0000
vt 0.0570 0.3180 0.0000
vt 0.0572 0.0134 0.0000
vt 0.0572 0.0104 0.0000
vt 0.0126 0.6230 0.0000
vt 0.0576 0.0079 0.0000
vt 0.0551 0.0076 0.0000
vt 0.0126 0.6317 0.0000
vt 0.0125 0.3152 0.0000
vt 0.0126 0.0079 0.0000
vt 0.0571 0.6317 0.0000
vt 0.0569 0.3241 0.0000
vt 0.0551 0.0163 0.0000
vt 0.0572 0.0163 0.0000
vt 0.0347 0.6164 0.0000
vt 0.0244 0.6164 0.0000
vt 0.0347 0.3091 0.0000
vt 0.0244 0.3091 0.0000
vt 0.0124 0.0237 0.0000
vt 0.0143 0.0235 0.0000
vt 0.0125 0.3292 0.0000
vt 0.0143 0.3290 0.0000
vt 0.0569 0.6162 0.0000
vt 0.0551 0.6164 0.0000
vt 0.0570 0.3091 0.0000
vt 0.0551 0.3091 0.0000
vt 0.0450 0.3262 0.0000
vt 0.0450 0.0224 0.0000
vt 0.0551 0.0224 0.0000
vt 0.0450 0.3290 0.0000
vt 0.0450 0.0235 0.0000
vt 0.0143 0.6166 0.0000
vt 0.0244 0.6141 0.0000
vt 0.0126 0.6163 0.0000
vt 0.0569 0.3265 0.0000
vt 0.0551 0.3262 0.0000
vt 0.0450 0.6166 0.0000
vt 0.0450 0.3298 0.0000
vt 0.0347 0.3262 0.0000
vt 0.0347 0.3298 0.0000
vt 0.0244 0.3262 0.0000
vt 0.0244 0.0224 0.0000
vt 0.0125 0.3112 0.0000
vt 0.0143 0.3112 0.0000
vt 0.0572 0.0225 0.0000
vt 0.0450 0.0252 0.0000
vt 0.0347 0.0224 0.0000
vt 0.0347 0.0252 0.0000
vt 0.0244 0.3074 0.0000
vt 0.0450 0.3112 0.0000
vt 0.0244 0.3290 0.0000
vt 0.0126 0.6161 0.0000
vt 0.0143 0.6164 0.0000
vt 0.0551 0.3290 0.0000
vt 0.0569 0.3292 0.0000
vt 0.0450 0.3320 0.0000
vt 0.0347 0.3290 0.0000
vt 0.0347 0.3320 0.0000
vt 0.0244 0.6131 0.0000
vt 0.0450 0.6164 0.0000
vt 0.0244 0.0235 0.0000
vt 0.0125 0.3091 0.0000
vt 0.0143 0.3091 0.0000
vt 0.0551 0.0235 0.0000
vt 0.0572 0.0235 0.0000
vt 0.0450 0.0269 0.0000
vt 0.0347 0.0235 0.0000
vt 0.0347 0.0269 0.0000
vt 0.0244 0.3065 0.0000
vt 0.0450 0.3091 0.0000
vt 0.0347 0.6141 0.0000
vt 0.0347 0.3074 0.0000
vt 0.0347 0.6131 0.0000
vt 0.0347 0.3065 0.0000
vt 0.0450 0.3065 0.0000
vt 0.0244 0.0269 0.0000
vt 0.0450 0.6131 0.0000
vt 0.0244 0.3320 0.0000
vt 0.0450 0.3074 0.0000
vt 0.0244 0.0252 0.0000
vt 0.0450 0.6141 0.0000
vt 0.0244 0.3298 0.0000
# 182 texture coords

g sponza_178
f 1/1/1 2/2/2 3/3/3 
f 1/1/1 3/3/3 4/4/4 
f 5/5/5 6/6/5 3/3/3 
f 5/5/5 3/3/3 7/7/6 
f 3/3/3 6/6/5 4/4/4 
f 4/4/4 8/8/7 9/9/8 
f 4/4/4 9/9/8 10/10/9 
f 11/11/10 12/12/10 9/9/8 
f 11/11/10 9/9/8 13/13/11 
f 9/9/8 12/12/10 10/10/9 
f 10/10/9 14/14/12 15/15/13 
f 10/10/9 15/15/13 16/16/14 
f 17/17/15 18/18/15 15/15/13 
f 17/17/15 15/15/13 19/19/16 
f 15/15/13 18/18/15 16/16/14 
f 10/10/9 16/16/14 1/1/1 
f 10/10/9 1/1/1 4/4/4 
f 16/16/14 20/20/17 21/21/18 
f 16/16/14 21/21/18 1/1/1 
f 21/21/18 22/22/19 23/23/19 
f 21/21/18 23/23/19 1/1/1 
f 24/24/20 22/22/19 21/21/18 
f 25/25/21 26/26/22 27/27/23 
f 25/25/21 27/27/23 28/28/24 
f 29/29/25 30/30/25 27/27/23 
f 29/29/25 27/27/23 31/31/26 
f 27/27/23 30/30/25 28/28/24 
f 28/28/24 32/32/27 33/33/28 
f 28/28/24 33/33/28 34/34/29 
f 35/35/30 36/36/30 33/33/28 
f 35/35/30 33/33/28 37/37/31 
f 33/33/28 36/36/30 34/34/29 
f 34/34/29 38/38/32 39/39/33 
f 34/34/29 39/39/33 40/40/34 
f 41/41/35 42/42/35 39/39/33 
f 41/41/35 39/39/33 43/43/36 
f 39/39/33 42/42/35 40/40/34 
f 34/34/29 40/40/34 25/25/21 
f 34/34/29 25/25/21 28/28/24 
f 40/40/34 44/44/37 45/45/38 
f 40/40/34 45/45/38 25/25/21 
f 45/45/38 46/46/39 47/47/39 
f 45/45/38 47/47/39 25/25/21 
f 48/48/40 46/46/39 45/45/38 
f 49/49/41 50/50/42 51/51/43 
f 49/49/41 51/51/43 52/52/43 
f 53/53/44 54/54/45 55/55/46 
f 53/53/44 55/55/46 56/56/46 
f 57/57/47 58/58/48 59/59/49 
f 57/57/47 59/59/49 60/60/50 
f 61/61/51 62/62/52 63/63/53 
f 61/61/51 63/63/53 64/64/54 
f 65/65/55 66/66/56 67/67/57 
f 65/65/55 67/67/57 68/68/58 
f 69/69/59 70/70/60 58/58/48 
f 69/69/59 58/58/48 57/57/47 
f 71/71/61 69/69/59 57/57/47 
f 50/50/42 49/49/41 61/61/51 
f 50/50/42 61/61/51 64/64/54 
f 72/72/62 50/50/42 64/64/54 
f 65/65/55 73/73/63 74/74/64 
f 65/65/55 74/74/64 66/66/56 
f 54/54/45 53/53/44 59/59/49 
f 54/54/45 59/59/49 75/75/65 
f 60/60/50 59/59/49 53/53/44 
f 62/62/52 76/76/66 77/77/67 
f 62/62/52 77/77/67 63/63/53 
f 63/63/53 77/77/67 78/78/68 
f 68/68/58 67/67/57 79/79/69 
f 68/68/58 79/79/69 80/80/70 
f 4/81/4 6/82/5 81/83/71 
f 4/81/4 81/83/71 73/73/63 
f 1/84/1 23/85/19 82/86/72 
f 1/84/1 82/86/72 71/71/61 
f 40/87/34 42/88/35 83/89/73 
f 40/87/34 83/89/73 72/72/62 
f 34/90/29 36/91/30 84/92/74 
f 34/90/29 84/92/74 75/75/65 
f 61/61/51 21/93/18 20/94/17 
f 61/61/51 20/94/17 62/62/52 
f 60/60/50 3/95/3 2/96/2 
f 60/60/50 2/96/2 57/57/47 
f 68/68/58 9/97/8 8/98/7 
f 68/68/58 8/98/7 65/65/55 
f 63/63/53 45/99/38 44/100/37 
f 63/63/53 44/100/37 64/64/54 
f 58/58/48 39/101/33 38/102/32 
f 58/58/48 38/102/32 59/59/49 
f 66/66/56 33/103/28 32/104/27 
f 66/66/56 32/104/27 67/67/57 
f 49/49/41 24/105/20 21/93/18 
f 49/49/41 21/93/18 61/61/51 
f 57/57/47 2/96/2 1/84/1 
f 57/57/47 1/84/1 71/71/61 
f 65/65/55 8/98/7 4/81/4 
f 65/65/55 4/81/4 73/73/63 
f 64/64/54 44/100/37 40/87/34 
f 64/64/54 40/87/34 72/72/62 
f 59/59/49 38/102/32 34/90/29 
f 59/59/49 34/90/29 75/75/65 
f 67/67/57 32/104/27 28/106/24 
f 67/67/57 28/106/24 85/107/75 
f 62/62/52 20/94/17 16/108/14 
f 62/62/52 16/108/14 76/76/66 
f 53/53/44 7/109/6 3/95/3 
f 53/53/44 3/95/3 60/60/50 
f 80/80/70 13/110/11 9/97/8 
f 80/80/70 9/97/8 68/68/58 
f 78/78/68 48/111/40 45/99/38 
f 78/78/68 45/99/38 63/63/53 
f 70/70/60 43/112/36 39/101/33 
f 70/70/60 39/101/33 58/58/48 
f 86/113/76 37/114/31 33/103/28 
f 86/113/76 33/103/28 66/66/56 
f 80/49/70 79/50/69 87/115/77 
f 80/49/70 87/115/77 88/116/77 
f 89/53/78 90/54/79 91/117/80 
f 89/53/78 91/117/80 92/118/80 
f 93/57/81 94/58/82 95/59/83 
f 93/57/81 95/59/83 96/60/84 
f 97/69/85 98/70/86 94/58/82 
f 97/69/85 94/58/82 93/57/81 
f 99/71/87 97/69/85 93/57/81 
f 90/54/79 89/53/78 95/59/83 
f 90/54/79 95/59/83 100/75/88 
f 96/60/84 95/59/83 89/53/78 
f 16/81/14 18/119/15 101/120/89 
f 16/81/14 101/120/89 76/73/66 
f 10/84/9 12/121/10 102/122/90 
f 10/84/9 102/122/90 99/71/87 
f 28/87/24 30/123/25 103/124/91 
f 28/87/24 103/124/91 85/72/75 
f 25/90/21 47/125/39 104/126/92 
f 25/90/21 104/126/92 100/75/88 
f 96/60/84 15/95/13 14/96/12 
f 96/60/84 14/96/12 93/57/81 
f 94/58/82 27/101/23 26/102/22 
f 94/58/82 26/102/22 95/59/83 
f 93/57/81 14/96/12 10/84/9 
f 93/57/81 10/84/9 99/71/87 
f 95/59/83 26/102/22 25/90/21 
f 95/59/83 25/90/21 100/75/88 
f 89/53/78 19/109/16 15/95/13 
f 89/53/78 15/95/13 96/60/84 
f 98/70/86 31/112/26 27/101/23 
f 98/70/86 27/101/23 94/58/82 
f 69/69/59 105/127/43 70/70/60 
f 74/74/64 106/128/46 107/129/74 
f 74/74/64 107/129/74 86/113/76 
f 97/69/85 108/130/77 98/70/86 
f 77/74/67 109/131/80 78/113/68 
f 110/132/72 52/52/43 111/133/43 
f 110/132/72 22/134/19 24/105/20 
f 110/132/72 24/105/20 49/49/41 
f 42/88/35 41/135/35 112/136/73 
f 42/88/35 112/136/73 83/89/73 
f 83/89/73 113/137/43 72/72/62 
f 113/137/43 51/51/43 50/50/42 
f 23/85/19 22/134/19 110/132/72 
f 23/85/19 110/132/72 82/86/72 
f 112/136/73 105/127/43 114/138/43 
f 114/138/93 105/127/43 115/139/94 
f 114/138/93 115/139/94 116/140/95 
f 82/86/72 117/141/43 71/71/61 
f 112/136/73 41/135/35 43/112/36 
f 112/136/73 43/112/36 70/70/60 
f 81/83/71 118/142/46 73/73/63 
f 6/82/5 5/143/5 119/144/71 
f 6/82/5 119/144/71 81/83/71 
f 107/129/74 35/145/30 37/114/31 
f 107/129/74 37/114/31 86/113/76 
f 107/129/74 106/128/46 120/146/96 
f 120/146/97 106/128/46 121/147/98 
f 120/146/97 121/147/98 122/148/99 
f 119/144/71 56/56/46 123/149/100 
f 36/91/30 35/145/30 107/129/74 
f 36/91/30 107/129/74 84/92/74 
f 119/144/71 5/143/5 7/109/6 
f 119/144/71 7/109/6 53/53/44 
f 84/92/74 124/150/46 75/75/65 
f 124/150/46 55/55/46 54/54/45 
f 102/122/90 125/151/77 99/71/87 
f 12/121/10 11/152/10 126/153/90 
f 12/121/10 126/153/90 102/122/90 
f 127/154/91 29/155/25 31/112/26 
f 127/154/91 31/112/26 98/70/86 
f 127/154/91 108/130/77 128/156/77 
f 128/156/101 108/130/77 129/157/102 
f 128/156/101 129/157/102 130/158/103 
f 126/153/90 88/116/77 131/159/77 
f 30/123/25 29/155/25 127/154/91 
f 30/123/25 127/154/91 103/124/91 
f 126/153/90 11/152/10 13/105/11 
f 126/153/90 13/105/11 80/49/70 
f 103/124/91 132/160/77 79/50/69 
f 103/124/91 79/50/69 85/72/75 
f 132/160/77 87/115/77 79/50/69 
f 101/120/89 133/161/80 76/73/66 
f 18/119/15 17/162/15 134/163/89 
f 18/119/15 134/163/89 101/120/89 
f 135/164/92 46/165/39 48/114/40 
f 135/164/92 48/114/40 78/113/68 
f 135/164/92 109/131/80 136/166/80 
f 136/166/104 109/131/80 137/167/105 
f 136/166/104 137/167/105 138/168/106 
f 134/163/89 92/118/80 139/169/80 
f 47/125/39 46/165/39 135/164/92 
f 47/125/39 135/164/92 104/126/92 
f 134/163/89 17/162/15 19/109/16 
f 134/163/89 19/109/16 89/53/78 
f 104/126/92 140/170/80 100/75/88 
f 140/170/80 91/117/80 90/54/79 
f 51/51/107 141/171/108 111/133/109 
f 51/51/107 111/133/109 52/52/43 
f 55/55/110 142/172/111 123/149/112 
f 55/55/110 123/149/112 56/56/46 
f 87/115/113 143/173/114 131/159/115 
f 87/115/113 131/159/115 88/116/77 
f 91/117/116 144/174/117 139/169/118 
f 91/117/116 139/169/118 92/118/80 
f 136/166/119 138/168/119 144/174/119 
f 136/166/119 144/174/119 145/175/119 
f 146/176/120 138/168/106 137/167/105 
f 146/176/120 137/167/105 133/161/80 
f 139/169/121 144/174/121 138/168/121 
f 139/169/121 138/168/121 146/176/121 
f 145/175/122 144/174/117 91/117/116 
f 145/175/122 91/117/116 140/170/80 
f 128/156/123 130/158/123 143/173/123 
f 128/156/123 143/173/123 147/177/123 
f 148/178/124 130/158/103 129/157/102 
f 148/178/124 129/157/102 125/151/77 
f 131/159/125 143/173/125 130/158/125 
f 131/159/125 130/158/125 148/178/125 
f 147/177/126 143/173/114 87/115/113 
f 147/177/126 87/115/113 132/160/77 
f 120/146/96 122/148/127 142/172/127 
f 120/146/96 142/172/127 149/179/96 
f 150/180/128 122/148/99 121/147/98 
f 150/180/128 121/147/98 118/142/46 
f 123/149/100 142/172/127 122/148/127 
f 123/149/100 122/148/127 150/180/100 
f 149/179/129 142/172/111 55/55/110 
f 149/179/129 55/55/110 124/150/46 
f 114/138/130 116/140/130 141/171/130 
f 114/138/130 141/171/130 151/181/130 
f 152/182/131 116/140/95 115/139/94 
f 152/182/131 115/139/94 117/141/43 
f 111/133/132 141/171/132 116/140/132 
f 111/133/132 116/140/132 152/182/132 
f 151/181/133 141/171/108 51/51/107 
f 151/181/133 51/51/107 113/137/43 
f 69/69/59 115/139/43 105/127/43 
f 84/92/74 149/179/96 124/150/46 
f 119/144/71 123/149/100 150/180/100 
f 119/144/71 150/180/100 81/83/71 
f 112/136/73 114/138/43 151/181/43 
f 112/136/73 151/181/43 83/89/73 
f 82/86/72 152/182/43 117/141/43 
f 107/129/74 120/146/96 149/179/96 
f 107/129/74 149/179/96 84/92/74 
f 81/83/71 150/180/100 118/142/46 
f 74/74/64 121/147/46 106/128/46 
f 126/153/90 131/159/77 148/178/77 
f 126/153/90 148/178/77 102/122/90 
f 103/124/91 147/177/77 132/160/77 
f 127/154/91 128/156/77 147/177/77 
f 127/154/91 147/177/77 103/124/91 
f 97/69/85 129/157/77 108/130/77 
f 134/163/89 139/169/80 146/176/80 
f 134/163/89 146/176/80 101/120/89 
f 104/126/92 145/175/80 140/170/80 
f 102/122/90 148/178/77 125/151/77 
f 77/74/67 137/167/80 109/131/80 
f 83/89/73 151/181/43 113/137/43 
f 110/132/72 111/133/43 152/182/43 
f 110/132/72 152/182/43 82/86/72 
f 101/120/89 146/176/80 133/161/80 
f 135/164/92 136/166/80 145/175/80 
f 135/164/92 145/175/80 104/126/92 
f 53/53/44 56/56/46 119/144/71 
f 75/75/65 124/150/46 54/54/45 
f 70/70/60 105/127/43 112/136/73 
f 71/71/61 117/141/43 115/139/43 
f 71/71/61 115/139/43 69/69/59 
f 66/66/56 74/74/64 86/113/76 
f 79/79/69 67/67/57 85/107/75 
f 80/49/70 88/116/77 126/153/90 
f 73/73/63 118/142/46 121/147/46 
f 73/73/63 121/147/46 74/74/64 
f 100/75/88 140/170/80 90/54/79 
f 99/71/87 125/151/77 129/157/77 
f 99/71/87 129/157/77 97/69/85 
f 89/53/78 92/118/80 134/163/89 
f 98/70/86 108/130/77 127/154/91 
f 78/113/68 109/131/80 135/164/92 
f 72/72/62 113/137/43 50/50/42 
f 49/49/41 52/52/43 110/132/72 
f 76/73/66 133/161/80 137/167/80 
f 76/73/66 137/167/80 77/74/67 
# 300 faces

