# 3ds Max Wavefront OBJ Exporter v0.97b - (c)2007 guruware
# File Created: 21.02.2011 11:31:32

#
# object sponza_184
#

v  -33.9976 78.8989 -56.5728
v  -33.8042 78.9767 -56.5728
v  -34.3027 78.9767 -56.5728
v  -34.1299 78.8989 -56.5728
v  -34.5403 79.5382 -56.5728
v  -34.6442 79.3602 -56.5728
v  -33.6480 79.3602 -56.5728
v  -33.6907 79.5382 -56.5728
v  -34.3461 79.7163 -56.5728
v  -33.8437 79.7163 -56.5728
v  -34.3998 79.1292 -56.5728
v  -33.6764 79.1590 -56.5728
v  -35.0624 78.5729 -56.5728
v  -34.7761 78.4132 -56.5728
v  -33.6480 79.3602 -57.2605
v  -33.6907 79.5382 -57.2605
v  -33.8437 79.7163 -57.2605
v  -34.3998 79.1292 -57.2605
v  -34.3027 78.9767 -57.2605
v  -33.8042 78.9767 -57.2605
v  -33.6764 79.1590 -57.2605
v  -34.7761 78.4132 -57.2605
v  -35.0624 78.5729 -57.2605
v  -33.9976 78.8989 -57.2605
v  -34.1299 78.8989 -57.2605
v  -34.6442 79.3602 -57.2605
v  -34.5403 79.5382 -57.2605
v  -34.3461 79.7163 -57.2605
# 28 vertices

vn 0.0000 0.0000 1.0000
vn 0.9989 0.0474 -0.0000
vn 0.8904 0.4552 -0.0000
vn 0.7583 0.6519 -0.0000
vn -0.8437 -0.5369 -0.0000
vn -0.6545 -0.7561 -0.0000
vn 0.6217 -0.7832 -0.0000
vn 0.9302 -0.3670 -0.0000
vn 0.8852 -0.4652 -0.0000
vn -0.4871 -0.8733 -0.0000
vn 0.0000 -0.0000 -1.0000
vn 0.0000 0.0000 -1.0000
vn -0.2099 -0.9777 -0.0000
vn 0.1900 -0.9818 -0.0000
# 14 vertex normals

vt 0.2029 0.2838 0.0000
vt 0.2022 0.3010 0.0000
vt 0.1884 0.2623 0.0000
vt 0.1992 0.2736 0.0000
vt 0.1382 0.2595 0.0000
vt 0.1492 0.2465 0.0000
vt 0.1768 0.3237 0.0000
vt 0.1618 0.3254 0.0000
vt 0.1298 0.2795 0.0000
vt 0.1437 0.3184 0.0000
vt 0.1739 0.2590 0.0000
vt 0.1916 0.3160 0.0000
vt 0.1986 0.1922 0.0000
vt 0.2190 0.2100 0.0000
vt 0.1204 0.6012 0.0000
vt 0.1206 0.6150 0.0000
vt 0.0673 0.6159 0.0000
vt 0.0670 0.6020 0.0000
vt 0.1208 0.6289 0.0000
vt 0.0675 0.6297 0.0000
vt 0.0658 0.5218 0.0000
vt 0.1192 0.5209 0.0000
vt 0.1194 0.5328 0.0000
vt 0.0660 0.5336 0.0000
vt 0.1200 0.5715 0.0000
vt 0.1202 0.5856 0.0000
vt 0.0668 0.5864 0.0000
vt 0.0666 0.5723 0.0000
vt 0.1183 0.4654 0.0000
vt 0.0649 0.4662 0.0000
vt 0.1180 0.4431 0.0000
vt 0.0646 0.4440 0.0000
vt 0.1533 0.3311 0.0000
vt 0.1640 0.3294 0.0000
vt 0.1791 0.3335 0.0000
vt 0.1385 0.3399 0.0000
vt 0.1307 0.3731 0.0000
vt 0.2118 0.3603 0.0000
vt 0.2056 0.3762 0.0000
vt 0.1365 0.3870 0.0000
vt 0.1921 0.3931 0.0000
vt 0.1512 0.3996 0.0000
vt 0.1889 0.3447 0.0000
vt 0.1305 0.3564 0.0000
vt 0.2104 0.2816 0.0000
vt 0.2357 0.2909 0.0000
vt 0.0662 0.5470 0.0000
vt 0.1196 0.5462 0.0000
vt 0.1197 0.5564 0.0000
vt 0.0664 0.5573 0.0000
# 50 texture coords

g sponza_184
f 1/1/1 2/2/1 3/3/1 
f 1/1/1 3/3/1 4/4/1 
f 5/5/1 6/6/1 7/7/1 
f 5/5/1 7/7/1 8/8/1 
f 9/9/1 5/5/1 8/8/1 
f 9/9/1 8/8/1 10/10/1 
f 7/7/1 6/6/1 11/11/1 
f 7/7/1 11/11/1 12/12/1 
f 2/2/1 12/12/1 11/11/1 
f 2/2/1 11/11/1 3/3/1 
f 11/11/1 6/6/1 13/13/1 
f 11/11/1 13/13/1 14/14/1 
f 15/15/2 16/16/3 8/17/3 
f 15/15/2 8/17/3 7/18/2 
f 8/17/3 16/16/3 17/19/4 
f 8/17/3 17/19/4 10/20/4 
f 11/21/5 18/22/5 19/23/6 
f 11/21/5 19/23/6 3/24/6 
f 20/25/7 21/26/8 12/27/8 
f 20/25/7 12/27/8 2/28/7 
f 22/29/9 18/22/9 11/21/9 
f 22/29/9 11/21/9 14/30/9 
f 23/31/10 22/29/10 14/30/10 
f 23/31/10 14/30/10 13/32/10 
f 24/33/11 25/34/11 19/35/11 
f 24/33/11 19/35/11 20/36/11 
f 15/37/12 26/38/12 27/39/12 
f 15/37/12 27/39/12 16/40/12 
f 16/40/12 27/39/12 28/41/12 
f 16/40/12 28/41/12 17/42/12 
f 18/43/12 26/38/12 15/37/12 
f 18/43/12 15/37/12 21/44/12 
f 20/36/11 19/35/11 18/43/12 
f 20/36/11 18/43/12 21/44/12 
f 18/43/12 22/45/12 23/46/12 
f 18/43/12 23/46/12 26/38/12 
f 4/47/13 25/48/13 24/49/14 
f 4/47/13 24/49/14 1/50/14 
f 1/50/14 24/49/14 20/25/7 
f 1/50/14 20/25/7 2/28/7 
f 12/27/8 21/26/8 15/15/2 
f 12/27/8 15/15/2 7/18/2 
f 3/24/6 19/23/6 25/48/13 
f 3/24/6 25/48/13 4/47/13 
# 44 faces

