# 3ds Max Wavefront OBJ Exporter v0.97b - (c)2007 guruware
# File Created: 21.02.2011 11:31:13

#
# object sponza_57
#

v  2.6273 111.3803 -8.6268
v  2.6273 111.3803 -11.3946
v  2.6273 105.0371 -11.3946
v  2.6273 105.0371 -8.6268
v  5.1219 113.4368 -11.9736
v  5.4329 113.7479 -11.9736
v  5.4329 105.0371 -11.9736
v  5.1218 105.0371 -11.9736
v  5.4329 113.7479 -8.6268
v  5.4329 105.0371 -8.6268
v  4.6469 112.9618 -11.3946
v  4.6469 105.0371 -11.3946
v  0.7751 111.3803 -11.3946
v  0.7751 112.9618 -11.3946
v  0.7751 113.4368 -11.9736
v  0.7751 111.3803 -8.6268
v  0.7751 113.7479 -11.9736
v  0.7751 113.7479 -8.6268
v  -1.0770 105.0371 -11.3946
v  -1.0770 111.3803 -11.3946
v  -1.0770 111.3803 -8.6268
v  -1.0770 105.0371 -8.6268
v  -3.6000 105.0371 -11.9736
v  -3.6000 113.7479 -11.9736
v  -3.2889 113.4368 -11.9736
v  -3.2889 105.0371 -11.9736
v  -3.6000 113.7479 -8.6268
v  -3.6000 105.0371 -8.6268
v  -2.8140 105.0371 -11.3946
v  -2.8140 112.9618 -11.3946
# 30 vertices

vn -1.0000 -0.0000 -0.0000
vn 0.0000 0.0000 -1.0000
vn 1.0000 -0.0000 -0.0000
vn -0.7731 0.0000 -0.6342
vn -0.7732 0.0000 -0.6342
vn 0.0000 -0.7731 -0.6342
vn 0.0000 -1.0000 -0.0000
vn 0.0000 1.0000 -0.0000
vn -1.0000 0.0000 -0.0000
vn 0.7731 0.0000 -0.6342
vn 0.7732 0.0000 -0.6342
vn -0.0000 -0.7731 -0.6342
# 12 vertex normals

vt 0.7878 0.0638 0.0000
vt 0.7878 0.1543 0.0000
vt 0.9965 0.1543 0.0000
vt 0.9965 0.0638 0.0000
vt 0.7384 0.2067 0.0000
vt 0.7282 0.2169 0.0000
vt 0.9965 0.2169 0.0000
vt 0.9965 0.2067 0.0000
vt 0.7282 0.3263 0.0000
vt 0.9965 0.3263 0.0000
vt 0.7541 0.1878 0.0000
vt 0.9965 0.1878 0.0000
vt 0.8487 0.1543 0.0000
vt 0.8487 0.1878 0.0000
vt 0.8487 0.2067 0.0000
vt 0.8487 0.0638 0.0000
vt 0.8487 0.2169 0.0000
vt 0.8487 0.3263 0.0000
# 18 texture coords

g sponza_57
f 1/1/1 2/2/1 3/3/1 
f 1/1/1 3/3/1 4/4/1 
f 5/5/2 6/6/2 7/7/2 
f 5/5/2 7/7/2 8/8/2 
f 7/7/3 6/6/3 9/9/3 
f 7/7/3 9/9/3 10/10/3 
f 2/2/2 11/11/2 12/12/2 
f 2/2/2 12/12/2 3/3/2 
f 11/11/4 5/5/4 8/8/5 
f 11/11/4 8/8/5 12/12/5 
f 2/2/2 13/13/2 14/14/2 
f 2/2/2 14/14/2 11/11/2 
f 11/11/6 14/14/6 15/15/6 
f 11/11/6 15/15/6 5/5/6 
f 13/13/7 2/2/7 1/1/7 
f 13/13/7 1/1/7 16/16/7 
f 17/17/2 6/6/2 5/5/2 
f 17/17/2 5/5/2 15/15/2 
f 18/18/8 9/9/8 6/6/8 
f 18/18/8 6/6/8 17/17/8 
f 19/3/3 20/2/3 21/1/3 
f 19/3/3 21/1/3 22/4/3 
f 23/7/2 24/6/2 25/5/2 
f 23/7/2 25/5/2 26/8/2 
f 27/9/9 24/6/9 23/7/9 
f 27/9/9 23/7/9 28/10/9 
f 20/2/2 19/3/2 29/12/2 
f 20/2/2 29/12/2 30/11/2 
f 30/11/10 29/12/11 26/8/11 
f 30/11/10 26/8/11 25/5/10 
f 20/2/2 30/11/2 14/14/2 
f 20/2/2 14/14/2 13/13/2 
f 30/11/12 25/5/12 15/15/6 
f 30/11/12 15/15/6 14/14/6 
f 21/1/7 20/2/7 13/13/7 
f 21/1/7 13/13/7 16/16/7 
f 25/5/2 24/6/2 17/17/2 
f 25/5/2 17/17/2 15/15/2 
f 24/6/8 27/9/8 18/18/8 
f 24/6/8 18/18/8 17/17/8 
# 40 faces

