# 3ds Max Wavefront OBJ Exporter v0.97b - (c)2007 guruware
# File Created: 21.02.2011 11:31:14

#
# object sponza_61
#

v  -71.6939 105.0371 -53.6155
v  -71.6939 111.3803 -53.6155
v  -71.6939 111.3803 -56.3833
v  -71.6939 105.0371 -56.3833
v  -68.8882 105.0371 -53.0365
v  -68.8882 113.7479 -53.0365
v  -69.1993 113.4368 -53.0365
v  -69.1993 105.0371 -53.0365
v  -68.8882 113.7479 -56.3833
v  -68.8882 105.0371 -56.3833
v  -69.6743 105.0371 -53.6155
v  -69.6743 112.9618 -53.6155
v  -73.5460 112.9618 -53.6155
v  -73.5460 111.3803 -53.6155
v  -73.5460 113.4368 -53.0365
v  -73.5460 111.3803 -56.3833
v  -73.5460 113.7479 -53.0365
v  -73.5460 113.7479 -56.3833
v  -75.3982 111.3803 -56.3833
v  -75.3982 111.3803 -53.6155
v  -75.3982 105.0371 -53.6155
v  -75.3982 105.0371 -56.3833
v  -77.6101 113.4368 -53.0365
v  -77.9212 113.7479 -53.0365
v  -77.9212 105.0371 -53.0365
v  -77.6101 105.0371 -53.0365
v  -77.9212 113.7479 -56.3833
v  -77.9212 105.0371 -56.3833
v  -77.1351 112.9618 -53.6155
v  -77.1351 105.0371 -53.6155
# 30 vertices

vn -1.0000 -0.0000 -0.0000
vn 0.0000 0.0000 1.0000
vn 1.0000 0.0000 -0.0000
vn -0.7731 0.0000 0.6342
vn 0.0000 -0.7731 0.6342
vn -0.0000 -1.0000 -0.0000
vn 0.0000 -1.0000 -0.0000
vn -0.0000 1.0000 -0.0000
vn 0.0000 1.0000 -0.0000
vn 1.0000 -0.0000 -0.0000
vn 0.7731 0.0000 0.6342
vn 0.7732 0.0000 0.6342
# 12 vertex normals

vt 0.9965 0.1543 0.0000
vt 0.7878 0.1543 0.0000
vt 0.7878 0.0638 0.0000
vt 0.9965 0.0638 0.0000
vt 0.9965 0.2169 0.0000
vt 0.7282 0.2169 0.0000
vt 0.7384 0.2067 0.0000
vt 0.9965 0.2067 0.0000
vt 0.7282 0.3263 0.0000
vt 0.9965 0.3263 0.0000
vt 0.9965 0.1878 0.0000
vt 0.7541 0.1878 0.0000
vt 0.8487 0.1878 0.0000
vt 0.8487 0.1543 0.0000
vt 0.8487 0.2067 0.0000
vt 0.8487 0.0638 0.0000
vt 0.8487 0.2169 0.0000
vt 0.8487 0.3263 0.0000
# 18 texture coords

g sponza_61
f 1/1/1 2/2/1 3/3/1 
f 1/1/1 3/3/1 4/4/1 
f 5/5/2 6/6/2 7/7/2 
f 5/5/2 7/7/2 8/8/2 
f 9/9/3 6/6/3 5/5/3 
f 9/9/3 5/5/3 10/10/3 
f 2/2/2 1/1/2 11/11/2 
f 2/2/2 11/11/2 12/12/2 
f 12/12/4 11/11/4 8/8/4 
f 12/12/4 8/8/4 7/7/4 
f 2/2/2 12/12/2 13/13/2 
f 2/2/2 13/13/2 14/14/2 
f 12/12/5 7/7/5 15/15/5 
f 12/12/5 15/15/5 13/13/5 
f 3/3/6 2/2/6 14/14/7 
f 3/3/6 14/14/7 16/16/7 
f 7/7/2 6/6/2 17/17/2 
f 7/7/2 17/17/2 15/15/2 
f 6/6/8 9/9/8 18/18/9 
f 6/6/8 18/18/9 17/17/9 
f 19/3/10 20/2/10 21/1/10 
f 19/3/10 21/1/10 22/4/3 
f 23/7/2 24/6/2 25/5/2 
f 23/7/2 25/5/2 26/8/2 
f 25/5/1 24/6/1 27/9/1 
f 25/5/1 27/9/1 28/10/1 
f 20/2/2 29/12/2 30/11/2 
f 20/2/2 30/11/2 21/1/2 
f 29/12/11 23/7/11 26/8/12 
f 29/12/11 26/8/12 30/11/12 
f 20/2/2 14/14/2 13/13/2 
f 20/2/2 13/13/2 29/12/2 
f 29/12/5 13/13/5 15/15/5 
f 29/12/5 15/15/5 23/7/5 
f 14/14/7 20/2/7 19/3/7 
f 14/14/7 19/3/7 16/16/7 
f 17/17/2 24/6/2 23/7/2 
f 17/17/2 23/7/2 15/15/2 
f 18/18/9 27/9/9 24/6/9 
f 18/18/9 24/6/9 17/17/9 
# 40 faces

