# 3ds Max Wavefront OBJ Exporter v0.97b - (c)2007 guruware
# File Created: 21.02.2011 11:31:44

#
# object sponza_264
#

v  -17.6918 96.5058 -51.9924
v  -17.8044 96.5349 -52.0002
v  -17.8044 95.4954 -55.8798
v  -17.6918 95.4662 -55.8720
v  -17.8868 96.6145 -52.0215
v  -17.8868 95.5750 -55.9011
v  -17.9170 96.7233 -52.0507
v  -17.9170 95.6838 -55.9303
v  -17.8868 96.8321 -52.0798
v  -17.8868 95.7925 -55.9594
v  -17.8044 96.9117 -52.1011
v  -17.8044 95.8722 -55.9807
v  -17.6918 96.9409 -52.1089
v  -17.6918 95.9013 -55.9885
v  -17.5792 96.9117 -52.1011
v  -17.5792 95.8722 -55.9807
v  -17.4967 96.8321 -52.0798
v  -17.4967 95.7925 -55.9594
v  -17.4666 96.7233 -52.0507
v  -17.4666 95.6838 -55.9303
v  -17.4967 96.6145 -52.0215
v  -17.4967 95.5750 -55.9011
v  -17.5792 96.5349 -52.0002
v  -17.5792 95.4954 -55.8798
v  -17.6918 97.5453 -48.1128
v  -17.8044 97.5744 -48.1206
v  -17.8868 97.6541 -48.1419
v  -17.9170 97.7628 -48.1711
v  -17.8868 97.8716 -48.2002
v  -17.8044 97.9512 -48.2215
v  -17.6918 97.9804 -48.2293
v  -17.5792 97.9512 -48.2215
v  -17.4967 97.8716 -48.2002
v  -17.4666 97.7628 -48.1711
v  -17.4967 97.6541 -48.1419
v  -17.5792 97.5744 -48.1206
v  -17.6918 98.5848 -44.2332
v  -17.8044 98.6140 -44.2410
v  -17.8868 98.6936 -44.2623
v  -17.9170 98.8024 -44.2915
v  -17.8868 98.9112 -44.3206
v  -17.8044 98.9908 -44.3419
v  -17.6918 99.0199 -44.3497
v  -17.5792 98.9908 -44.3419
v  -17.4967 98.9112 -44.3206
v  -17.4666 98.8024 -44.2915
v  -17.4967 98.6936 -44.2623
v  -17.5792 98.6140 -44.2410
v  -17.7446 100.7363 -36.8371
v  -17.7223 100.7148 -36.8313
v  -17.6918 100.7069 -36.8292
v  -17.6390 100.7363 -36.8371
v  -17.7446 100.7952 -36.8529
v  -17.6309 100.7658 -36.8450
v  -17.6390 100.7952 -36.8529
v  -17.6613 100.8167 -36.8587
v  -17.6918 100.8246 -36.8608
v  -17.7223 100.8167 -36.8587
v  -17.7527 100.7658 -36.8450
v  -17.6613 100.7148 -36.8313
v  -17.6918 99.8660 -39.1274
v  -17.8464 99.9060 -39.1381
v  -17.8044 99.8889 -39.4827
v  -17.6918 99.8598 -39.4749
v  -17.9596 100.0153 -39.1674
v  -17.8868 99.9686 -39.5041
v  -18.0010 100.1646 -39.2074
v  -17.9170 100.0773 -39.5332
v  -17.9596 100.3140 -39.2474
v  -17.8868 100.1861 -39.5623
v  -17.8464 100.4233 -39.2767
v  -17.8044 100.2658 -39.5837
v  -17.6918 100.4633 -39.2875
v  -17.6918 100.2949 -39.5915
v  -17.5372 100.4233 -39.2767
v  -17.5792 100.2658 -39.5837
v  -17.4240 100.3140 -39.2474
v  -17.4967 100.1861 -39.5623
v  -17.3826 100.1646 -39.2074
v  -17.4666 100.0773 -39.5332
v  -17.4240 100.0153 -39.1674
v  -17.4967 99.9686 -39.5041
v  -17.5372 99.9060 -39.1381
v  -17.5792 99.8889 -39.4827
v  -17.6918 100.2776 -37.4522
v  -17.8567 100.3203 -37.4637
v  -17.8850 100.1032 -38.1435
v  -17.6918 100.0532 -38.1301
v  -17.9774 100.4369 -37.4949
v  -18.0265 100.2399 -38.1801
v  -18.0216 100.5961 -37.5376
v  -18.0783 100.4265 -38.2301
v  -17.9774 100.7554 -37.5802
v  -18.0265 100.6132 -38.2801
v  -17.8567 100.8720 -37.6115
v  -17.8850 100.7498 -38.3168
v  -17.6918 100.9146 -37.6229
v  -17.6918 100.7998 -38.3302
v  -17.5269 100.8720 -37.6115
v  -17.4986 100.7498 -38.3168
v  -17.4062 100.7554 -37.5802
v  -17.3571 100.6132 -38.2801
v  -17.3620 100.5961 -37.5376
v  -17.3053 100.4265 -38.2301
v  -17.4062 100.4369 -37.4949
v  -17.3571 100.2399 -38.1801
v  -17.5269 100.3203 -37.4637
v  -17.4986 100.1032 -38.1435
v  -17.8447 99.9961 -38.8131
v  -17.6918 99.9565 -38.8025
v  -17.9567 100.1042 -38.8421
v  -17.9977 100.2519 -38.8817
v  -17.9567 100.3996 -38.9212
v  -17.8447 100.5078 -38.9502
v  -17.6918 100.5474 -38.9608
v  -17.5389 100.5078 -38.9502
v  -17.4269 100.3996 -38.9212
v  -17.3860 100.2519 -38.8817
v  -17.4269 100.1042 -38.8421
v  -17.5389 99.9961 -38.8131
# 120 vertices

vn 0.0000 -0.9659 0.2588
vn -0.5000 -0.8365 0.2241
vn -0.8660 -0.4830 0.1294
vn -1.0000 0.0000 -0.0000
vn -0.8660 0.4830 -0.1294
vn -0.5000 0.8365 -0.2241
vn 0.0000 0.9659 -0.2588
vn 0.5000 0.8365 -0.2241
vn 0.8660 0.4830 -0.1294
vn 1.0000 0.0000 -0.0000
vn 0.8660 -0.4830 0.1294
vn 0.5000 -0.8365 0.2241
vn -0.0000 0.2588 0.9659
vn 0.0000 0.2588 0.9659
vn 0.0001 0.2588 0.9659
vn -0.0001 0.2588 0.9659
vn 0.0000 -0.9892 0.1466
vn -0.4967 -0.8606 0.1121
vn -0.4961 -0.8622 0.1024
vn 0.0000 -0.9906 0.1368
vn -0.8603 -0.5094 0.0180
vn -0.8593 -0.5114 0.0084
vn -0.9934 -0.0296 -0.1105
vn -0.9923 -0.0321 -0.1200
vn -0.8603 0.4502 -0.2391
vn -0.8593 0.4471 -0.2484
vn -0.4967 0.8014 -0.3332
vn -0.4961 0.7979 -0.3424
vn 0.0000 0.9300 -0.3677
vn 0.0000 0.9263 -0.3768
vn 0.4967 0.8014 -0.3332
vn 0.4961 0.7979 -0.3424
vn 0.8603 0.4502 -0.2391
vn 0.8593 0.4471 -0.2484
vn 0.9934 -0.0296 -0.1105
vn 0.9923 -0.0322 -0.1200
vn 0.8603 -0.5094 0.0180
vn 0.8593 -0.5114 0.0084
vn 0.4967 -0.8606 0.1121
vn 0.4961 -0.8622 0.1024
vn 0.0000 -0.8974 0.4413
vn -0.4900 -0.7694 0.4097
vn -0.5006 -0.8432 0.1963
vn 0.0000 -0.9733 0.2296
vn -0.8477 -0.4204 0.3236
vn -0.8665 -0.4879 0.1051
vn -0.9770 0.0548 0.2063
vn -0.9998 -0.0033 -0.0192
vn -0.8444 0.5282 0.0895
vn -0.8652 0.4805 -0.1434
vn -0.4868 0.8735 0.0042
vn -0.4992 0.8342 -0.2342
vn 0.0000 0.9996 -0.0270
vn 0.0000 0.9636 -0.2674
vn 0.4868 0.8735 0.0042
vn 0.4992 0.8342 -0.2342
vn 0.8444 0.5282 0.0895
vn 0.8652 0.4805 -0.1434
vn 0.9770 0.0548 0.2063
vn 0.9998 -0.0033 -0.0192
vn 0.8477 -0.4204 0.3236
vn 0.8665 -0.4879 0.1051
vn 0.4900 -0.7694 0.4097
vn 0.5006 -0.8432 0.1963
vn 0.0000 -0.8234 0.5674
vn -0.4692 -0.7010 0.5371
vn -0.8117 -0.3669 0.4543
vn -0.9357 0.0880 0.3416
vn -0.8089 0.5414 0.2293
vn -0.4664 0.8722 0.1473
vn 0.0000 0.9931 0.1173
vn 0.4664 0.8722 0.1473
vn 0.8089 0.5414 0.2293
vn 0.9357 0.0880 0.3416
vn 0.8117 -0.3670 0.4544
vn 0.4692 -0.7010 0.5371
vn -0.4992 -0.8495 0.1706
vn 0.0000 -0.9787 0.2052
vn -0.8647 -0.4965 0.0760
vn -0.9985 -0.0143 -0.0532
vn -0.8647 0.4680 -0.1824
vn -0.4992 0.8210 -0.2770
vn 0.0000 0.9502 -0.3116
vn 0.4992 0.8210 -0.2770
vn 0.8647 0.4680 -0.1824
vn 0.9985 -0.0143 -0.0532
vn 0.8647 -0.4965 0.0760
vn 0.4992 -0.8495 0.1706
# 88 vertex normals

vt 0.9876 0.5241 0.0000
vt 0.9633 0.5241 0.0000
vt 0.9633 0.0053 0.0000
vt 0.9876 0.0053 0.0000
vt 0.9391 0.5241 0.0000
vt 0.9391 0.0053 0.0000
vt 0.9148 0.5241 0.0000
vt 0.9148 0.0053 0.0000
vt 0.8906 0.5241 0.0000
vt 0.8906 0.0053 0.0000
vt 0.8663 0.5241 0.0000
vt 0.8663 0.0053 0.0000
vt 0.8421 0.5241 0.0000
vt 0.8421 0.0053 0.0000
vt 0.8178 0.5241 0.0000
vt 0.8178 0.0053 0.0000
vt 0.7936 0.5241 0.0000
vt 0.7936 0.0053 0.0000
vt 0.7694 0.5241 0.0000
vt 0.7694 0.0053 0.0000
vt 0.7451 0.5241 0.0000
vt 0.7451 0.0053 0.0000
vt 0.7209 0.5241 0.0000
vt 0.7209 0.0053 0.0000
vt 0.6966 0.5241 0.0000
vt 0.6966 0.0053 0.0000
vt 0.9918 0.0129 0.0000
vt 0.9876 0.6851 0.0000
vt 0.9633 0.6851 0.0000
vt 0.9633 0.6416 0.0000
vt 0.9876 0.6416 0.0000
vt 0.9391 0.6851 0.0000
vt 0.9391 0.6416 0.0000
vt 0.9148 0.6851 0.0000
vt 0.9148 0.6416 0.0000
vt 0.8906 0.6851 0.0000
vt 0.8906 0.6416 0.0000
vt 0.8663 0.6851 0.0000
vt 0.8663 0.6416 0.0000
vt 0.8421 0.6851 0.0000
vt 0.8421 0.6416 0.0000
vt 0.8178 0.6851 0.0000
vt 0.8178 0.6416 0.0000
vt 0.7936 0.6851 0.0000
vt 0.7936 0.6416 0.0000
vt 0.7694 0.6851 0.0000
vt 0.7694 0.6416 0.0000
vt 0.7451 0.6851 0.0000
vt 0.7451 0.6416 0.0000
vt 0.7209 0.6851 0.0000
vt 0.7209 0.6416 0.0000
vt 0.6966 0.6851 0.0000
vt 0.6966 0.6416 0.0000
vt 0.9876 0.9029 0.0000
vt 0.9633 0.9029 0.0000
vt 0.9633 0.8158 0.0000
vt 0.9876 0.8158 0.0000
vt 0.9391 0.9029 0.0000
vt 0.9391 0.8158 0.0000
vt 0.9148 0.9029 0.0000
vt 0.9148 0.8158 0.0000
vt 0.8906 0.9029 0.0000
vt 0.8906 0.8158 0.0000
vt 0.8663 0.9029 0.0000
vt 0.8663 0.8158 0.0000
vt 0.8421 0.9029 0.0000
vt 0.8421 0.8158 0.0000
vt 0.8178 0.9029 0.0000
vt 0.8178 0.8158 0.0000
vt 0.7936 0.9029 0.0000
vt 0.7936 0.8158 0.0000
vt 0.7694 0.9029 0.0000
vt 0.7694 0.8158 0.0000
vt 0.7451 0.9029 0.0000
vt 0.7451 0.8158 0.0000
vt 0.7209 0.9029 0.0000
vt 0.7209 0.8158 0.0000
vt 0.6966 0.9029 0.0000
vt 0.6966 0.8158 0.0000
vt 0.9876 0.9900 0.0000
vt 0.9633 0.9900 0.0000
vt 0.9391 0.9900 0.0000
vt 0.9148 0.9900 0.0000
vt 0.8906 0.9900 0.0000
vt 0.8663 0.9900 0.0000
vt 0.8421 0.9900 0.0000
vt 0.8178 0.9900 0.0000
vt 0.7936 0.9900 0.0000
vt 0.7694 0.9900 0.0000
vt 0.7451 0.9900 0.0000
vt 0.7209 0.9900 0.0000
vt 0.6966 0.9900 0.0000
vt 0.9633 0.7287 0.0000
vt 0.9876 0.7287 0.0000
vt 0.9391 0.7287 0.0000
vt 0.9148 0.7287 0.0000
vt 0.8906 0.7287 0.0000
vt 0.8663 0.7287 0.0000
vt 0.8421 0.7287 0.0000
vt 0.8178 0.7287 0.0000
vt 0.7936 0.7287 0.0000
vt 0.7694 0.7287 0.0000
vt 0.7451 0.7287 0.0000
vt 0.7209 0.7287 0.0000
vt 0.6966 0.7287 0.0000
# 105 texture coords

g sponza_264
f 1/1/1 2/2/2 3/3/2 
f 1/1/1 3/3/2 4/4/1 
f 2/2/2 5/5/3 6/6/3 
f 2/2/2 6/6/3 3/3/2 
f 5/5/3 7/7/4 8/8/4 
f 5/5/3 8/8/4 6/6/3 
f 7/7/4 9/9/5 10/10/5 
f 7/7/4 10/10/5 8/8/4 
f 9/9/5 11/11/6 12/12/6 
f 9/9/5 12/12/6 10/10/5 
f 11/11/6 13/13/7 14/14/7 
f 11/11/6 14/14/7 12/12/6 
f 13/13/7 15/15/8 16/16/8 
f 13/13/7 16/16/8 14/14/7 
f 15/15/8 17/17/9 18/18/9 
f 15/15/8 18/18/9 16/16/8 
f 17/17/9 19/19/10 20/20/10 
f 17/17/9 20/20/10 18/18/9 
f 19/19/10 21/21/11 22/22/11 
f 19/19/10 22/22/11 20/20/10 
f 21/21/11 23/23/12 24/24/12 
f 21/21/11 24/24/12 22/22/11 
f 23/23/12 1/25/1 4/26/1 
f 23/23/12 4/26/1 24/24/12 
f 25/1/1 26/2/2 2/3/2 
f 25/1/1 2/3/2 1/4/1 
f 26/2/2 27/5/3 5/6/3 
f 26/2/2 5/6/3 2/3/2 
f 27/5/3 28/7/4 7/8/4 
f 27/5/3 7/8/4 5/6/3 
f 28/7/4 29/9/5 9/10/5 
f 28/7/4 9/10/5 7/8/4 
f 29/9/5 30/11/6 11/12/6 
f 29/9/5 11/12/6 9/10/5 
f 30/11/6 31/13/7 13/14/7 
f 30/11/6 13/14/7 11/12/6 
f 31/13/7 32/15/8 15/16/8 
f 31/13/7 15/16/8 13/14/7 
f 32/15/8 33/17/9 17/18/9 
f 32/15/8 17/18/9 15/16/8 
f 33/17/9 34/19/10 19/20/10 
f 33/17/9 19/20/10 17/18/9 
f 34/19/10 35/21/11 21/22/11 
f 34/19/10 21/22/11 19/20/10 
f 35/21/11 36/23/12 23/24/12 
f 35/21/11 23/24/12 21/22/11 
f 36/23/12 25/25/1 1/26/1 
f 36/23/12 1/26/1 23/24/12 
f 37/1/1 38/2/2 26/3/2 
f 37/1/1 26/3/2 25/4/1 
f 38/2/2 39/5/3 27/6/3 
f 38/2/2 27/6/3 26/3/2 
f 39/5/3 40/7/4 28/8/4 
f 39/5/3 28/8/4 27/6/3 
f 40/7/4 41/9/5 29/10/5 
f 40/7/4 29/10/5 28/8/4 
f 41/9/5 42/11/6 30/12/6 
f 41/9/5 30/12/6 29/10/5 
f 42/11/6 43/13/7 31/14/7 
f 42/11/6 31/14/7 30/12/6 
f 43/13/7 44/15/8 32/16/8 
f 43/13/7 32/16/8 31/14/7 
f 44/15/8 45/17/9 33/18/9 
f 44/15/8 33/18/9 32/16/8 
f 45/17/9 46/19/10 34/20/10 
f 45/17/9 34/20/10 33/18/9 
f 46/19/10 47/21/11 35/22/11 
f 46/19/10 35/22/11 34/20/10 
f 47/21/11 48/23/12 36/24/12 
f 47/21/11 36/24/12 35/22/11 
f 48/23/12 37/25/1 25/26/1 
f 48/23/12 25/26/1 36/24/12 
f 49/27/13 50/27/13 51/27/14 
f 49/27/13 51/27/14 52/27/14 
f 49/27/13 52/27/14 53/27/13 
f 52/27/14 54/27/15 55/27/14 
f 52/27/14 55/27/14 53/27/13 
f 55/27/14 56/27/13 57/27/14 
f 55/27/14 57/27/14 53/27/13 
f 57/27/14 58/27/14 53/27/13 
f 59/27/16 49/27/13 53/27/13 
f 60/27/14 52/27/14 51/27/14 
f 61/28/17 62/29/18 63/30/19 
f 61/28/17 63/30/19 64/31/20 
f 62/29/18 65/32/21 66/33/22 
f 62/29/18 66/33/22 63/30/19 
f 65/32/21 67/34/23 68/35/24 
f 65/32/21 68/35/24 66/33/22 
f 67/34/23 69/36/25 70/37/26 
f 67/34/23 70/37/26 68/35/24 
f 69/36/25 71/38/27 72/39/28 
f 69/36/25 72/39/28 70/37/26 
f 71/38/27 73/40/29 74/41/30 
f 71/38/27 74/41/30 72/39/28 
f 73/40/29 75/42/31 76/43/32 
f 73/40/29 76/43/32 74/41/30 
f 75/42/31 77/44/33 78/45/34 
f 75/42/31 78/45/34 76/43/32 
f 77/44/33 79/46/35 80/47/36 
f 77/44/33 80/47/36 78/45/34 
f 79/46/35 81/48/37 82/49/38 
f 79/46/35 82/49/38 80/47/36 
f 81/48/37 83/50/39 84/51/40 
f 81/48/37 84/51/40 82/49/38 
f 83/50/39 61/52/17 64/53/20 
f 83/50/39 64/53/20 84/51/40 
f 85/54/41 86/55/42 87/56/43 
f 85/54/41 87/56/43 88/57/44 
f 87/56/43 86/55/42 89/58/45 
f 87/56/43 89/58/45 90/59/46 
f 90/59/46 89/58/45 91/60/47 
f 90/59/46 91/60/47 92/61/48 
f 92/61/48 91/60/47 93/62/49 
f 92/61/48 93/62/49 94/63/50 
f 94/63/50 93/62/49 95/64/51 
f 94/63/50 95/64/51 96/65/52 
f 95/64/51 97/66/53 98/67/54 
f 95/64/51 98/67/54 96/65/52 
f 97/66/53 99/68/55 100/69/56 
f 97/66/53 100/69/56 98/67/54 
f 99/68/55 101/70/57 102/71/58 
f 99/68/55 102/71/58 100/69/56 
f 101/70/57 103/72/59 104/73/60 
f 101/70/57 104/73/60 102/71/58 
f 103/72/59 105/74/61 106/75/62 
f 103/72/59 106/75/62 104/73/60 
f 105/74/61 107/76/63 108/77/64 
f 105/74/61 108/77/64 106/75/62 
f 107/76/63 85/78/41 88/79/44 
f 107/76/63 88/79/44 108/77/64 
f 51/80/65 50/81/66 86/55/42 
f 51/80/65 86/55/42 85/54/41 
f 50/81/66 49/82/67 89/58/45 
f 50/81/66 89/58/45 86/55/42 
f 89/58/45 49/82/67 59/83/68 
f 89/58/45 59/83/68 91/60/47 
f 91/60/47 59/83/68 53/84/69 
f 91/60/47 53/84/69 93/62/49 
f 53/84/69 58/85/70 95/64/51 
f 53/84/69 95/64/51 93/62/49 
f 58/85/70 57/86/71 97/66/53 
f 58/85/70 97/66/53 95/64/51 
f 57/86/71 56/87/72 99/68/55 
f 57/86/71 99/68/55 97/66/53 
f 56/87/72 55/88/73 101/70/57 
f 56/87/72 101/70/57 99/68/55 
f 55/88/73 54/89/74 103/72/59 
f 55/88/73 103/72/59 101/70/57 
f 54/89/74 52/90/75 105/74/61 
f 54/89/74 105/74/61 103/72/59 
f 52/90/75 60/91/76 107/76/63 
f 52/90/75 107/76/63 105/74/61 
f 60/91/76 51/92/65 85/78/41 
f 60/91/76 85/78/41 107/76/63 
f 88/57/44 87/56/43 109/93/77 
f 88/57/44 109/93/77 110/94/78 
f 87/56/43 90/59/46 111/95/79 
f 87/56/43 111/95/79 109/93/77 
f 90/59/46 92/61/48 112/96/80 
f 90/59/46 112/96/80 111/95/79 
f 92/61/48 94/63/50 113/97/81 
f 92/61/48 113/97/81 112/96/80 
f 94/63/50 96/65/52 114/98/82 
f 94/63/50 114/98/82 113/97/81 
f 96/65/52 98/67/54 115/99/83 
f 96/65/52 115/99/83 114/98/82 
f 98/67/54 100/69/56 116/100/84 
f 98/67/54 116/100/84 115/99/83 
f 100/69/56 102/71/58 117/101/85 
f 100/69/56 117/101/85 116/100/84 
f 102/71/58 104/73/60 118/102/86 
f 102/71/58 118/102/86 117/101/85 
f 104/73/60 106/75/62 119/103/87 
f 104/73/60 119/103/87 118/102/86 
f 106/75/62 108/77/64 120/104/88 
f 106/75/62 120/104/88 119/103/87 
f 108/77/64 88/79/44 110/105/78 
f 108/77/64 110/105/78 120/104/88 
f 110/94/78 109/93/77 62/29/18 
f 110/94/78 62/29/18 61/28/17 
f 109/93/77 111/95/79 65/32/21 
f 109/93/77 65/32/21 62/29/18 
f 111/95/79 112/96/80 67/34/23 
f 111/95/79 67/34/23 65/32/21 
f 112/96/80 113/97/81 69/36/25 
f 112/96/80 69/36/25 67/34/23 
f 113/97/81 114/98/82 71/38/27 
f 113/97/81 71/38/27 69/36/25 
f 114/98/82 115/99/83 73/40/29 
f 114/98/82 73/40/29 71/38/27 
f 115/99/83 116/100/84 75/42/31 
f 115/99/83 75/42/31 73/40/29 
f 116/100/84 117/101/85 77/44/33 
f 116/100/84 77/44/33 75/42/31 
f 117/101/85 118/102/86 79/46/35 
f 117/101/85 79/46/35 77/44/33 
f 118/102/86 119/103/87 81/48/37 
f 118/102/86 81/48/37 79/46/35 
f 119/103/87 120/104/88 83/50/39 
f 119/103/87 83/50/39 81/48/37 
f 120/104/88 110/105/78 61/52/17 
f 120/104/88 61/52/17 83/50/39 
f 64/31/20 63/30/19 38/3/2 
f 64/31/20 38/3/2 37/4/1 
f 63/30/19 66/33/22 39/6/3 
f 63/30/19 39/6/3 38/3/2 
f 66/33/22 68/35/24 40/8/4 
f 66/33/22 40/8/4 39/6/3 
f 68/35/24 70/37/26 41/10/5 
f 68/35/24 41/10/5 40/8/4 
f 70/37/26 72/39/28 42/12/6 
f 70/37/26 42/12/6 41/10/5 
f 72/39/28 74/41/30 43/14/7 
f 72/39/28 43/14/7 42/12/6 
f 74/41/30 76/43/32 44/16/8 
f 74/41/30 44/16/8 43/14/7 
f 76/43/32 78/45/34 45/18/9 
f 76/43/32 45/18/9 44/16/8 
f 78/45/34 80/47/36 46/20/10 
f 78/45/34 46/20/10 45/18/9 
f 80/47/36 82/49/38 47/22/11 
f 80/47/36 47/22/11 46/20/10 
f 82/49/38 84/51/40 48/24/12 
f 82/49/38 48/24/12 47/22/11 
f 84/51/40 64/53/20 37/26/1 
f 84/51/40 37/26/1 48/24/12 
# 226 faces

