# 3ds Max Wavefront OBJ Exporter v0.97b - (c)2007 guruware
# File Created: 21.02.2011 11:31:07

#
# object sponza_16
#

v  59.9787 34.4005 -60.5572
v  52.3033 34.4005 -60.5572
v  52.3033 34.4005 -52.8694
v  59.9787 34.4005 -52.8694
v  59.9787 33.5986 -52.8694
v  52.3033 33.5986 -52.8694
v  52.3033 33.0896 -52.8694
v  59.9787 33.0896 -52.8694
v  52.3033 33.5986 -60.5572
v  52.3033 33.0896 -60.5572
v  59.9787 33.5986 -60.5572
v  59.9787 33.0896 -60.5572
v  59.7600 32.7094 -53.0884
v  59.7600 32.7094 -60.3382
v  52.5220 32.7094 -60.3382
v  52.5220 32.7094 -53.0884
v  59.2073 32.4180 -53.6420
v  59.2073 32.4180 -59.7846
v  53.0746 32.4180 -59.7846
v  53.0746 32.4180 -53.6420
v  53.5412 30.9659 -57.8085
v  55.0519 30.9659 -59.3192
v  55.0519 12.0547 -59.3192
v  53.5412 12.0547 -57.8085
v  57.1884 30.9659 -59.3192
v  57.1884 12.0547 -59.3192
v  58.6990 30.9659 -57.8085
v  58.6990 12.0547 -57.8085
v  58.6990 30.9659 -55.6721
v  58.6990 12.0547 -55.6721
v  57.1884 30.9659 -54.1614
v  57.1884 12.0547 -54.1614
v  55.0519 30.9659 -54.1614
v  55.0519 12.0547 -54.1614
v  53.5412 30.9659 -55.6721
v  53.5412 12.0547 -55.6721
v  53.3838 31.5508 -57.8738
v  54.9867 31.5508 -59.4767
v  55.0519 31.4234 -59.3192
v  53.5412 31.4234 -57.8085
v  57.2536 31.5508 -59.4767
v  57.1884 31.4234 -59.3192
v  58.8565 31.5508 -57.8738
v  58.6990 31.4234 -57.8085
v  58.8565 31.5508 -55.6069
v  58.6990 31.4234 -55.6721
v  57.2536 31.5508 -54.0039
v  57.1884 31.4234 -54.1614
v  54.9867 31.5508 -54.0039
v  55.0519 31.4234 -54.1614
v  53.3838 31.5508 -55.6069
v  53.5412 31.4234 -55.6721
v  53.3167 32.2268 -57.9016
v  54.9589 32.2268 -59.5438
v  55.0318 31.9330 -59.3677
v  53.4927 31.9330 -57.8286
v  57.2814 32.2268 -59.5438
v  57.2084 31.9330 -59.3677
v  58.9236 32.2268 -57.9016
v  58.7475 31.9330 -57.8286
v  58.9236 32.2268 -55.5791
v  58.7475 31.9330 -55.6520
v  57.2814 32.2268 -53.9368
v  57.2084 31.9330 -54.1129
v  54.9589 32.2268 -53.9368
v  55.0318 31.9330 -54.1129
v  53.3167 32.2268 -55.5791
v  53.4927 31.9330 -55.6520
v  53.2917 31.1946 -57.9119
v  54.9485 31.1946 -59.5687
v  57.2917 31.1946 -59.5687
v  58.9486 31.1946 -57.9119
v  58.9486 31.1946 -55.5687
v  57.2917 31.1946 -53.9119
v  54.9485 31.1946 -53.9119
v  53.2917 31.1946 -55.5687
v  53.4788 31.6782 -57.8344
v  55.0261 31.6782 -59.3816
v  57.2142 31.6782 -59.3816
v  58.7614 31.6782 -57.8344
v  58.7614 31.6782 -55.6463
v  57.2142 31.6782 -54.0990
v  55.0261 31.6782 -54.0990
v  53.4788 31.6782 -55.6463
v  59.8858 33.8217 -52.9622
v  52.3961 33.8217 -52.9622
v  52.3961 33.5986 -52.9622
v  59.8858 33.5986 -52.9622
v  52.3961 33.8217 -60.4643
v  52.3961 33.5986 -60.4643
v  59.8858 33.8217 -60.4643
v  59.8858 33.5986 -60.4643
v  59.9787 33.8217 -52.8694
v  52.3033 33.8217 -52.8694
v  52.3033 33.8217 -60.5572
v  59.9787 33.8217 -60.5572
# 96 vertices

vn 0.0000 1.0000 -0.0000
vn 0.7071 0.0000 0.7071
vn -0.7071 0.0000 0.7071
vn -0.6756 -0.2951 0.6757
vn 0.6756 -0.2951 0.6757
vn -0.7071 0.0000 -0.7071
vn -0.6756 -0.2951 -0.6757
vn 0.7071 0.0000 -0.7071
vn 0.6756 -0.2951 -0.6757
vn 0.4627 -0.7564 0.4624
vn 0.4627 -0.7564 -0.4624
vn -0.4627 -0.7564 -0.4624
vn -0.4627 -0.7564 0.4624
vn 0.2165 -0.9520 0.2162
vn 0.2177 -0.9516 -0.2170
vn -0.2183 -0.9512 -0.2180
vn -0.2171 -0.9517 0.2172
vn -0.9239 0.0000 -0.3827
vn 0.0000 0.0000 -1.0000
vn 0.9239 0.0000 -0.3827
vn 0.9239 0.0000 0.3827
vn 0.0000 0.0000 1.0000
vn -0.9239 0.0000 0.3827
vn -0.5532 -0.8009 -0.2291
vn -0.2291 -0.8009 -0.5532
vn 0.2291 -0.8009 -0.5532
vn 0.2292 -0.8009 -0.5532
vn 0.5532 -0.8009 -0.2291
vn 0.5532 -0.8009 0.2291
vn 0.2291 -0.8009 0.5532
vn 0.2292 -0.8009 0.5532
vn -0.2291 -0.8009 0.5532
vn -0.2292 -0.8009 0.5532
vn -0.5532 -0.8009 0.2291
vn -0.6379 -0.7559 -0.1476
vn -0.1476 -0.7551 -0.6388
vn -0.3678 -0.2764 -0.8879
vn -0.8879 -0.2764 -0.3678
vn 0.1473 -0.7551 -0.6389
vn 0.3678 -0.2764 -0.8879
vn 0.6079 -0.7801 -0.1479
vn 0.8879 -0.2764 -0.3678
vn 0.6079 -0.7801 0.1475
vn 0.8879 -0.2764 0.3678
vn 0.1477 -0.7857 0.6008
vn 0.3678 -0.2764 0.8879
vn -0.1480 -0.7856 0.6007
vn -0.3678 -0.2764 0.8879
vn -0.6379 -0.7559 0.1472
vn -0.8879 -0.2764 0.3678
vn -0.5971 -0.7631 -0.2473
vn -0.2473 -0.7631 -0.5971
vn 0.2473 -0.7631 -0.5971
vn 0.5971 -0.7631 -0.2473
vn 0.5971 -0.7631 0.2473
vn 0.2473 -0.7631 0.5971
vn -0.2473 -0.7631 0.5971
vn -0.5971 -0.7631 0.2473
vn -0.5971 0.7631 -0.2473
vn -0.2473 0.7631 -0.5971
vn 0.2473 0.7631 -0.5971
vn 0.5971 0.7631 -0.2473
vn 0.5971 0.7631 0.2473
vn 0.2473 0.7631 0.5971
vn -0.2473 0.7631 0.5971
vn -0.5971 0.7631 0.2473
vn -0.8512 0.3886 -0.3526
vn -0.3526 0.3886 -0.8513
vn 0.3526 0.3886 -0.8513
vn 0.8513 0.3886 -0.3526
vn 0.8513 0.3886 0.3526
vn 0.3526 0.3886 0.8513
vn -0.3526 0.3886 0.8513
vn -0.8512 0.3886 0.3526
vn -0.7187 0.6284 -0.2977
vn -0.2977 0.6283 -0.7188
vn 0.2977 0.6283 -0.7187
vn 0.7187 0.6283 -0.2977
vn 0.7187 0.6283 0.2977
vn 0.2977 0.6283 0.7187
vn -0.2977 0.6283 0.7188
vn -0.7187 0.6284 0.2977
vn -1.0000 0.0000 -0.0000
vn 1.0000 0.0000 -0.0000
vn 0.0000 -1.0000 -0.0000
# 85 vertex normals

vt 0.2969 0.9050 0.0000
vt 0.2969 0.7136 0.0000
vt 0.1052 0.7136 0.0000
vt 0.1052 0.9050 0.0000
vt 0.0419 0.0149 0.0000
vt 0.0419 0.2559 0.0000
vt 0.0579 0.2559 0.0000
vt 0.0579 0.0149 0.0000
vt 0.0419 0.4944 0.0000
vt 0.0577 0.4944 0.0000
vt 0.0419 0.7325 0.0000
vt 0.0577 0.7325 0.0000
vt 0.0419 0.9740 0.0000
vt 0.0579 0.9740 0.0000
vt 0.0698 0.9671 0.0000
vt 0.0698 0.7394 0.0000
vt 0.0694 0.7257 0.0000
vt 0.0694 0.5012 0.0000
vt 0.0694 0.4876 0.0000
vt 0.0694 0.2627 0.0000
vt 0.0698 0.2491 0.0000
vt 0.0698 0.0217 0.0000
vt 0.0871 0.9497 0.0000
vt 0.0871 0.7568 0.0000
vt 0.0866 0.7086 0.0000
vt 0.0866 0.5183 0.0000
vt 0.0866 0.4704 0.0000
vt 0.0866 0.2799 0.0000
vt 0.0872 0.2317 0.0000
vt 0.0872 0.0391 0.0000
vt 0.8215 0.9003 0.0000
vt 0.8927 0.9003 0.0000
vt 0.8927 0.0086 0.0000
vt 0.8215 0.0086 0.0000
vt 0.9935 0.9003 0.0000
vt 0.9935 0.0086 0.0000
vt 0.3056 0.9003 0.0000
vt 0.3768 0.9003 0.0000
vt 0.3768 0.0086 0.0000
vt 0.3056 0.0086 0.0000
vt 0.4775 0.9003 0.0000
vt 0.4775 0.0086 0.0000
vt 0.5488 0.9003 0.0000
vt 0.5488 0.0086 0.0000
vt 0.6495 0.9003 0.0000
vt 0.6495 0.0086 0.0000
vt 0.7207 0.9003 0.0000
vt 0.7207 0.0086 0.0000
vt 0.1356 0.9493 0.5236
vt 0.2428 0.9493 0.5236
vt 0.2428 0.9414 0.4935
vt 0.1356 0.9414 0.4935
vt 0.3500 0.9493 0.5236
vt 0.3500 0.9414 0.4935
vt 0.4571 0.9493 0.5236
vt 0.4571 0.9414 0.4935
vt 0.5643 0.9493 0.5236
vt 0.5643 0.9414 0.4935
vt 0.6715 0.9493 0.5236
vt 0.6715 0.9414 0.4935
vt 0.7787 0.9493 0.5236
vt 0.7787 0.9414 0.4935
vt 0.8859 0.9493 0.5236
vt 0.8859 0.9414 0.4935
vt 0.9931 0.9493 0.5236
vt 0.9931 0.9414 0.4935
vt 0.1356 0.9908 0.5364
vt 0.2428 0.9908 0.5364
vt 0.2428 0.9727 0.5027
vt 0.1356 0.9727 0.5027
vt 0.3500 0.9908 0.5364
vt 0.3500 0.9727 0.5027
vt 0.4571 0.9908 0.5364
vt 0.4571 0.9727 0.5027
vt 0.5643 0.9908 0.5364
vt 0.5643 0.9727 0.5027
vt 0.6715 0.9908 0.5364
vt 0.6715 0.9727 0.5027
vt 0.7787 0.9908 0.5364
vt 0.7787 0.9727 0.5027
vt 0.8859 0.9908 0.5364
vt 0.8859 0.9727 0.5027
vt 0.9931 0.9908 0.5364
vt 0.9931 0.9727 0.5027
vt 0.0941 0.6488 0.0000
vt 0.0941 0.5768 0.0000
vt 0.1450 0.5258 0.0000
vt 0.0941 0.4120 0.0000
vt 0.0941 0.3400 0.0000
vt 0.1480 0.2241 0.0000
vt 0.0964 0.1725 0.0000
vt 0.0964 0.0996 0.0000
vt 0.1480 0.0480 0.0000
vt 0.0961 0.8889 0.0000
vt 0.0961 0.8159 0.0000
vt 0.1450 0.6998 0.0000
vt 0.1356 0.9133 0.4935
vt 0.1356 0.9274 0.5412
vt 0.2428 0.9274 0.5412
vt 0.2428 0.9133 0.4935
vt 0.3500 0.9274 0.5412
vt 0.3500 0.9133 0.4935
vt 0.4571 0.9274 0.5412
vt 0.4571 0.9133 0.4935
vt 0.5643 0.9274 0.5412
vt 0.5643 0.9133 0.4935
vt 0.6715 0.9274 0.5412
vt 0.6715 0.9133 0.4935
vt 0.7787 0.9274 0.5412
vt 0.7787 0.9133 0.4935
vt 0.8859 0.9274 0.5412
vt 0.8859 0.9133 0.4935
vt 0.9931 0.9274 0.5412
vt 0.9931 0.9133 0.4935
vt 0.1356 0.9571 0.5054
vt 0.2428 0.9571 0.5054
vt 0.3500 0.9571 0.5054
vt 0.4571 0.9571 0.5054
vt 0.5643 0.9571 0.5054
vt 0.6715 0.9571 0.5054
vt 0.7787 0.9571 0.5054
vt 0.8859 0.9571 0.5054
vt 0.9931 0.9571 0.5054
vt 0.0318 0.0178 0.0000
vt 0.0318 0.2559 0.0000
vt 0.0389 0.2559 0.0000
vt 0.0389 0.0178 0.0000
vt 0.0318 0.4944 0.0000
vt 0.0389 0.4944 0.0000
vt 0.0318 0.7325 0.0000
vt 0.0389 0.7325 0.0000
vt 0.0318 0.9710 0.0000
vt 0.0389 0.9710 0.0000
vt 0.0243 0.4945 0.0000
vt 0.0059 0.4945 0.0000
vt 0.0059 0.7385 0.0000
vt 0.0243 0.7385 0.0000
vt 0.0059 0.9829 0.0000
vt 0.0243 0.9829 0.0000
vt 0.0243 0.0061 0.0000
vt 0.0059 0.0061 0.0000
vt 0.0059 0.2501 0.0000
vt 0.0243 0.2501 0.0000
vt 0.0272 0.7355 0.0000
vt 0.0272 0.4974 0.0000
vt 0.0272 0.4915 0.0000
vt 0.0272 0.2530 0.0000
vt 0.0272 0.2471 0.0000
vt 0.0272 0.0090 0.0000
vt 0.0272 0.9799 0.0000
vt 0.0272 0.7414 0.0000
# 151 texture coords

g sponza_16
f 1/1/1 2/2/1 3/3/1 
f 1/1/1 3/3/1 4/4/1 
f 5/5/2 6/6/3 7/7/4 
f 5/5/2 7/7/4 8/8/5 
f 6/6/3 9/9/6 10/10/7 
f 6/6/3 10/10/7 7/7/4 
f 9/9/6 11/11/8 12/12/9 
f 9/9/6 12/12/9 10/10/7 
f 11/11/8 5/13/2 8/14/5 
f 11/11/8 8/14/5 12/12/9 
f 13/15/10 14/16/11 12/12/9 
f 13/15/10 12/12/9 8/14/5 
f 14/17/11 15/18/12 10/10/7 
f 14/17/11 10/10/7 12/12/9 
f 15/19/12 16/20/13 7/7/4 
f 15/19/12 7/7/4 10/10/7 
f 16/21/13 13/22/10 8/8/5 
f 16/21/13 8/8/5 7/7/4 
f 13/15/10 17/23/14 18/24/15 
f 13/15/10 18/24/15 14/16/11 
f 14/17/11 18/25/15 19/26/16 
f 14/17/11 19/26/16 15/18/12 
f 15/19/12 19/27/16 20/28/17 
f 15/19/12 20/28/17 16/20/13 
f 16/21/13 20/29/17 17/30/14 
f 16/21/13 17/30/14 13/22/10 
f 21/31/18 22/32/6 23/33/6 
f 21/31/18 23/33/6 24/34/18 
f 22/32/19 25/35/19 26/36/19 
f 22/32/19 26/36/19 23/33/19 
f 25/37/8 27/38/20 28/39/20 
f 25/37/8 28/39/20 26/40/8 
f 27/38/20 29/41/21 30/42/21 
f 27/38/20 30/42/21 28/39/20 
f 29/41/21 31/43/2 32/44/2 
f 29/41/21 32/44/2 30/42/21 
f 31/43/22 33/45/22 34/46/22 
f 31/43/22 34/46/22 32/44/22 
f 33/45/3 35/47/23 36/48/23 
f 33/45/3 36/48/23 34/46/3 
f 35/47/23 21/31/18 24/34/18 
f 35/47/23 24/34/18 36/48/23 
f 37/49/24 38/50/25 39/51/25 
f 37/49/24 39/51/25 40/52/24 
f 38/50/25 41/53/26 42/54/27 
f 38/50/25 42/54/27 39/51/25 
f 41/53/26 43/55/28 44/56/28 
f 41/53/26 44/56/28 42/54/27 
f 43/55/28 45/57/29 46/58/29 
f 43/55/28 46/58/29 44/56/28 
f 45/57/29 47/59/30 48/60/31 
f 45/57/29 48/60/31 46/58/29 
f 47/59/30 49/61/32 50/62/33 
f 47/59/30 50/62/33 48/60/31 
f 49/61/32 51/63/34 52/64/34 
f 49/61/32 52/64/34 50/62/33 
f 51/63/34 37/65/24 40/66/24 
f 51/63/34 40/66/24 52/64/34 
f 53/67/35 54/68/36 55/69/37 
f 53/67/35 55/69/37 56/70/38 
f 54/68/36 57/71/39 58/72/40 
f 54/68/36 58/72/40 55/69/37 
f 57/71/39 59/73/41 60/74/42 
f 57/71/39 60/74/42 58/72/40 
f 59/73/41 61/75/43 62/76/44 
f 59/73/41 62/76/44 60/74/42 
f 61/75/43 63/77/45 64/78/46 
f 61/75/43 64/78/46 62/76/44 
f 63/77/45 65/79/47 66/80/48 
f 63/77/45 66/80/48 64/78/46 
f 65/79/47 67/81/49 68/82/50 
f 65/79/47 68/82/50 66/80/48 
f 67/81/49 53/83/35 56/84/38 
f 67/81/49 56/84/38 68/82/50 
f 57/85/39 54/86/36 19/26/16 
f 57/85/39 19/26/16 18/25/15 
f 19/26/16 54/86/36 53/87/35 
f 19/27/16 53/88/35 67/89/49 
f 19/27/16 67/89/49 20/28/17 
f 20/29/17 67/90/49 65/91/47 
f 20/29/17 65/91/47 63/92/45 
f 20/29/17 63/92/45 17/30/14 
f 17/30/14 63/92/45 61/93/43 
f 61/94/43 59/95/41 18/24/15 
f 61/94/43 18/24/15 17/23/14 
f 18/25/15 59/96/41 57/85/39 
f 21/97/51 69/98/51 70/99/52 
f 21/97/51 70/99/52 22/100/52 
f 22/100/52 70/99/52 71/101/53 
f 22/100/52 71/101/53 25/102/53 
f 25/102/53 71/101/53 72/103/54 
f 25/102/53 72/103/54 27/104/54 
f 27/104/54 72/103/54 73/105/55 
f 27/104/54 73/105/55 29/106/55 
f 29/106/55 73/105/55 74/107/56 
f 29/106/55 74/107/56 31/108/56 
f 31/108/56 74/107/56 75/109/57 
f 31/108/56 75/109/57 33/110/57 
f 33/110/57 75/109/57 76/111/58 
f 33/110/57 76/111/58 35/112/58 
f 35/112/58 76/111/58 69/113/51 
f 35/112/58 69/113/51 21/114/51 
f 69/98/59 40/52/59 39/51/60 
f 69/98/59 39/51/60 70/99/60 
f 70/99/60 39/51/60 42/54/61 
f 70/99/60 42/54/61 71/101/61 
f 71/101/61 42/54/61 44/56/62 
f 71/101/61 44/56/62 72/103/62 
f 72/103/62 44/56/62 46/58/63 
f 72/103/62 46/58/63 73/105/63 
f 73/105/63 46/58/63 48/60/64 
f 73/105/63 48/60/64 74/107/64 
f 74/107/64 48/60/64 50/62/65 
f 74/107/64 50/62/65 75/109/65 
f 75/109/65 50/62/65 52/64/66 
f 75/109/65 52/64/66 76/111/66 
f 76/111/66 52/64/66 40/66/59 
f 76/111/66 40/66/59 69/113/59 
f 77/115/67 56/70/38 55/69/37 
f 77/115/67 55/69/37 78/116/68 
f 78/116/68 55/69/37 58/72/40 
f 78/116/68 58/72/40 79/117/69 
f 79/117/69 58/72/40 60/74/42 
f 79/117/69 60/74/42 80/118/70 
f 80/118/70 60/74/42 62/76/44 
f 80/118/70 62/76/44 81/119/71 
f 81/119/71 62/76/44 64/78/46 
f 81/119/71 64/78/46 82/120/72 
f 82/120/72 64/78/46 66/80/48 
f 82/120/72 66/80/48 83/121/73 
f 83/121/73 66/80/48 68/82/50 
f 83/121/73 68/82/50 84/122/74 
f 84/122/74 68/82/50 56/84/38 
f 84/122/74 56/84/38 77/123/67 
f 37/49/75 77/115/67 78/116/68 
f 37/49/75 78/116/68 38/50/76 
f 38/50/76 78/116/68 79/117/69 
f 38/50/76 79/117/69 41/53/77 
f 41/53/77 79/117/69 80/118/70 
f 41/53/77 80/118/70 43/55/78 
f 43/55/78 80/118/70 81/119/71 
f 43/55/78 81/119/71 45/57/79 
f 45/57/79 81/119/71 82/120/72 
f 45/57/79 82/120/72 47/59/80 
f 47/59/80 82/120/72 83/121/73 
f 47/59/80 83/121/73 49/61/81 
f 49/61/81 83/121/73 84/122/74 
f 49/61/81 84/122/74 51/63/82 
f 51/63/82 84/122/74 77/123/67 
f 51/63/82 77/123/67 37/65/75 
f 85/124/22 86/125/22 87/126/22 
f 85/124/22 87/126/22 88/127/22 
f 86/125/83 89/128/83 90/129/83 
f 86/125/83 90/129/83 87/126/83 
f 89/128/19 91/130/19 92/131/19 
f 89/128/19 92/131/19 90/129/19 
f 91/130/84 85/132/84 88/133/84 
f 91/130/84 88/133/84 92/131/84 
f 93/134/22 4/135/22 3/136/22 
f 93/134/22 3/136/22 94/137/22 
f 94/137/83 3/136/83 2/138/83 
f 94/137/83 2/138/83 95/139/83 
f 95/140/19 2/141/19 1/142/19 
f 95/140/19 1/142/19 96/143/19 
f 96/143/84 1/142/84 4/135/84 
f 96/143/84 4/135/84 93/134/84 
f 88/127/1 87/126/1 6/6/1 
f 88/127/1 6/6/1 5/5/1 
f 87/126/1 90/129/1 9/9/1 
f 87/126/1 9/9/1 6/6/1 
f 90/129/1 92/131/1 11/11/1 
f 90/129/1 11/11/1 9/9/1 
f 92/131/1 88/133/1 5/13/1 
f 92/131/1 5/13/1 11/11/1 
f 86/144/85 85/145/85 93/134/85 
f 86/144/85 93/134/85 94/137/85 
f 85/146/85 91/147/85 96/143/85 
f 85/146/85 96/143/85 93/134/85 
f 91/148/85 89/149/85 95/140/85 
f 91/148/85 95/140/85 96/143/85 
f 89/150/85 86/151/85 94/137/85 
f 89/150/85 94/137/85 95/139/85 
# 182 faces

