# 3ds Max Wavefront OBJ Exporter v0.97b - (c)2007 guruware
# File Created: 21.02.2011 11:31:14

#
# object sponza_62
#

v  -34.5912 105.0371 -53.6155
v  -34.5912 111.3803 -53.6155
v  -34.5912 111.3803 -56.3833
v  -34.5912 105.0371 -56.3833
v  -31.7856 105.0371 -53.0365
v  -31.7856 113.7479 -53.0365
v  -32.0966 113.4368 -53.0365
v  -32.0966 105.0371 -53.0365
v  -31.7856 113.7479 -56.3833
v  -31.7856 105.0371 -56.3833
v  -32.5716 105.0371 -53.6155
v  -32.5716 112.9618 -53.6155
v  -36.4434 112.9618 -53.6155
v  -36.4434 111.3803 -53.6155
v  -36.4434 113.4368 -53.0365
v  -36.4434 111.3803 -56.3833
v  -36.4434 113.7479 -53.0365
v  -36.4434 113.7479 -56.3833
v  -38.2955 111.3803 -56.3833
v  -38.2955 111.3803 -53.6155
v  -38.2955 105.0371 -53.6155
v  -38.2955 105.0371 -56.3833
v  -40.5074 113.4368 -53.0365
v  -40.8185 113.7479 -53.0365
v  -40.8185 105.0371 -53.0365
v  -40.5074 105.0371 -53.0365
v  -40.8185 113.7479 -56.3833
v  -40.8185 105.0371 -56.3833
v  -40.0324 112.9618 -53.6155
v  -40.0324 105.0371 -53.6155
# 30 vertices

vn -1.0000 -0.0000 -0.0000
vn 0.0000 0.0000 1.0000
vn 1.0000 -0.0000 -0.0000
vn -0.7731 0.0000 0.6342
vn 0.0000 -0.7731 0.6342
vn 0.0000 -1.0000 -0.0000
vn 0.0000 1.0000 -0.0000
vn -1.0000 0.0000 -0.0000
vn 0.7731 0.0000 0.6342
vn -0.0000 -0.7731 0.6342
# 10 vertex normals

vt 0.9965 0.1543 0.0000
vt 0.7878 0.1543 0.0000
vt 0.7878 0.0638 0.0000
vt 0.9965 0.0638 0.0000
vt 0.9965 0.2169 0.0000
vt 0.7282 0.2169 0.0000
vt 0.7384 0.2067 0.0000
vt 0.9965 0.2067 0.0000
vt 0.7282 0.3263 0.0000
vt 0.9965 0.3263 0.0000
vt 0.9965 0.1878 0.0000
vt 0.7541 0.1878 0.0000
vt 0.8487 0.1878 0.0000
vt 0.8487 0.1543 0.0000
vt 0.8487 0.2067 0.0000
vt 0.8487 0.0638 0.0000
vt 0.8487 0.2169 0.0000
vt 0.8487 0.3263 0.0000
# 18 texture coords

g sponza_62
f 1/1/1 2/2/1 3/3/1 
f 1/1/1 3/3/1 4/4/1 
f 5/5/2 6/6/2 7/7/2 
f 5/5/2 7/7/2 8/8/2 
f 9/9/3 6/6/3 5/5/3 
f 9/9/3 5/5/3 10/10/3 
f 2/2/2 1/1/2 11/11/2 
f 2/2/2 11/11/2 12/12/2 
f 12/12/4 11/11/4 8/8/4 
f 12/12/4 8/8/4 7/7/4 
f 2/2/2 12/12/2 13/13/2 
f 2/2/2 13/13/2 14/14/2 
f 12/12/5 7/7/5 15/15/5 
f 12/12/5 15/15/5 13/13/5 
f 3/3/6 2/2/6 14/14/6 
f 3/3/6 14/14/6 16/16/6 
f 7/7/2 6/6/2 17/17/2 
f 7/7/2 17/17/2 15/15/2 
f 6/6/7 9/9/7 18/18/7 
f 6/6/7 18/18/7 17/17/7 
f 19/3/3 20/2/3 21/1/3 
f 19/3/3 21/1/3 22/4/3 
f 23/7/2 24/6/2 25/5/2 
f 23/7/2 25/5/2 26/8/2 
f 25/5/8 24/6/8 27/9/8 
f 25/5/8 27/9/8 28/10/8 
f 20/2/2 29/12/2 30/11/2 
f 20/2/2 30/11/2 21/1/2 
f 29/12/9 23/7/9 26/8/9 
f 29/12/9 26/8/9 30/11/9 
f 20/2/2 14/14/2 13/13/2 
f 20/2/2 13/13/2 29/12/2 
f 29/12/10 13/13/5 15/15/5 
f 29/12/10 15/15/5 23/7/10 
f 14/14/6 20/2/6 19/3/6 
f 14/14/6 19/3/6 16/16/6 
f 17/17/2 24/6/2 23/7/2 
f 17/17/2 23/7/2 15/15/2 
f 18/18/7 27/9/7 24/6/7 
f 18/18/7 24/6/7 17/17/7 
# 40 faces

