# 3ds Max Wavefront OBJ Exporter v0.97b - (c)2007 guruware
# File Created: 21.02.2011 11:31:06

#
# object sponza_11
#

v  23.1259 34.4005 -12.1341
v  15.4381 34.4005 -12.1341
v  15.4381 34.4005 -4.4587
v  23.1259 34.4005 -4.4587
v  23.1259 33.0896 -12.1341
v  23.1259 33.5986 -12.1341
v  23.1259 33.5986 -4.4587
v  23.1259 33.0896 -4.4587
v  15.4381 33.0896 -12.1341
v  15.4381 33.5986 -12.1341
v  15.4381 33.0896 -4.4587
v  15.4381 33.5986 -4.4587
v  15.6572 32.7094 -4.6774
v  22.9069 32.7094 -4.6774
v  15.6572 32.7094 -11.9155
v  22.9069 32.7094 -11.9155
v  16.2107 32.4180 -5.2301
v  22.3534 32.4180 -5.2301
v  16.2107 32.4180 -11.3628
v  22.3534 32.4180 -11.3628
v  16.6761 12.0547 -9.3855
v  16.6761 30.9659 -9.3855
v  18.1868 30.9659 -10.8962
v  18.1868 12.0547 -10.8962
v  16.6761 12.0547 -7.2491
v  16.6761 30.9659 -7.2491
v  18.1868 12.0547 -5.7384
v  18.1868 30.9659 -5.7384
v  20.3232 12.0547 -5.7384
v  20.3232 30.9659 -5.7384
v  21.8339 12.0547 -7.2491
v  21.8339 30.9659 -7.2491
v  21.8339 12.0547 -9.3855
v  21.8339 30.9659 -9.3855
v  20.3232 12.0547 -10.8962
v  20.3232 30.9659 -10.8962
v  16.6761 31.4234 -9.3855
v  16.5186 31.5508 -9.4507
v  18.1216 31.5508 -11.0536
v  18.1868 31.4234 -10.8962
v  16.6761 31.4234 -7.2491
v  16.5186 31.5508 -7.1838
v  18.1868 31.4234 -5.7384
v  18.1216 31.5508 -5.5809
v  20.3232 31.4234 -5.7384
v  20.3884 31.5508 -5.5809
v  21.8339 31.4234 -7.2491
v  21.9914 31.5508 -7.1838
v  21.8339 31.4234 -9.3855
v  21.9914 31.5508 -9.4507
v  20.3232 31.4234 -10.8962
v  20.3884 31.5508 -11.0536
v  16.6276 31.9330 -9.4056
v  16.4515 32.2268 -9.4785
v  18.0938 32.2268 -11.1208
v  18.1667 31.9330 -10.9447
v  16.6276 31.9330 -7.2290
v  16.4515 32.2268 -7.1560
v  18.1667 31.9330 -5.6899
v  18.0938 32.2268 -5.5138
v  20.3433 31.9330 -5.6899
v  20.4162 32.2268 -5.5138
v  21.8824 31.9330 -7.2290
v  22.0585 32.2268 -7.1560
v  21.8824 31.9330 -9.4056
v  22.0585 32.2268 -9.4785
v  20.3433 31.9330 -10.9447
v  20.4162 32.2268 -11.1208
v  16.4266 31.1946 -9.4888
v  18.0834 31.1946 -11.1457
v  16.4266 31.1946 -7.1457
v  18.0834 31.1946 -5.4888
v  20.4266 31.1946 -5.4888
v  22.0834 31.1946 -7.1457
v  22.0834 31.1946 -9.4888
v  20.4266 31.1946 -11.1457
v  18.1609 31.6782 -10.9586
v  16.6137 31.6782 -9.4113
v  16.6137 31.6782 -7.2232
v  18.1609 31.6782 -5.6760
v  20.3491 31.6782 -5.6760
v  21.8963 31.6782 -7.2232
v  21.8963 31.6782 -9.4113
v  20.3491 31.6782 -10.9586
v  23.0331 33.5986 -12.0413
v  23.0331 33.8217 -12.0413
v  23.0331 33.8217 -4.5516
v  23.0331 33.5986 -4.5516
v  15.5310 33.5986 -12.0413
v  15.5310 33.8217 -12.0413
v  15.5310 33.5986 -4.5516
v  15.5310 33.8217 -4.5516
v  23.1259 33.8217 -4.4587
v  23.1259 33.8217 -12.1341
v  15.4381 33.8217 -12.1341
v  15.4381 33.8217 -4.4587
# 96 vertices

vn 0.0000 1.0000 -0.0000
vn 0.6757 -0.2951 -0.6756
vn 0.7071 0.0000 -0.7071
vn 0.7071 0.0000 0.7071
vn 0.6757 -0.2951 0.6756
vn -0.6757 -0.2951 -0.6756
vn -0.7071 0.0000 -0.7071
vn -0.6757 -0.2951 0.6756
vn -0.7071 0.0000 0.7071
vn -0.4624 -0.7564 0.4627
vn 0.4624 -0.7564 0.4627
vn -0.4624 -0.7564 -0.4627
vn 0.4624 -0.7564 -0.4627
vn -0.2170 -0.9516 0.2177
vn 0.2162 -0.9520 0.2165
vn -0.2180 -0.9512 -0.2183
vn 0.2172 -0.9517 -0.2171
vn -0.9239 0.0000 -0.3827
vn -1.0000 0.0000 -0.0000
vn -0.3827 0.0000 0.9239
vn 0.3827 0.0000 0.9239
vn 0.9239 0.0000 -0.3827
vn 1.0000 0.0000 -0.0000
vn 0.0000 0.0000 -1.0000
vn -0.5532 -0.8009 -0.2291
vn -0.2291 -0.8009 -0.5532
vn -0.5532 -0.8009 0.2292
vn -0.5532 -0.8009 0.2291
vn -0.2291 -0.8009 0.5532
vn 0.2291 -0.8009 0.5532
vn 0.5532 -0.8009 0.2292
vn 0.5532 -0.8009 0.2291
vn 0.5532 -0.8009 -0.2291
vn 0.2291 -0.8009 -0.5532
vn -0.8879 -0.2764 -0.3678
vn -0.6388 -0.7551 -0.1476
vn -0.1476 -0.7559 -0.6378
vn -0.3678 -0.2764 -0.8879
vn -0.8879 -0.2764 0.3678
vn -0.6389 -0.7551 0.1473
vn -0.3678 -0.2764 0.8879
vn -0.1479 -0.7801 0.6079
vn 0.3678 -0.2764 0.8879
vn 0.1475 -0.7802 0.6079
vn 0.8879 -0.2764 0.3678
vn 0.6008 -0.7857 0.1477
vn 0.8879 -0.2764 -0.3678
vn 0.6007 -0.7856 -0.1480
vn 0.3678 -0.2764 -0.8879
vn 0.1472 -0.7559 -0.6379
vn -0.5971 -0.7631 -0.2473
vn -0.2473 -0.7631 -0.5971
vn -0.5971 -0.7631 0.2473
vn -0.2473 -0.7631 0.5971
vn 0.2473 -0.7631 0.5971
vn 0.5971 -0.7631 0.2473
vn 0.5971 -0.7631 -0.2473
vn 0.2473 -0.7631 -0.5971
vn -0.5971 0.7631 -0.2473
vn -0.2473 0.7631 -0.5971
vn -0.5971 0.7631 0.2473
vn -0.2473 0.7631 0.5971
vn 0.2473 0.7631 0.5971
vn 0.5971 0.7631 0.2473
vn 0.5971 0.7631 -0.2473
vn 0.2473 0.7631 -0.5971
vn -0.3526 0.3886 -0.8513
vn -0.8513 0.3886 -0.3526
vn -0.8513 0.3886 0.3526
vn -0.3526 0.3886 0.8513
vn 0.3526 0.3886 0.8513
vn 0.8513 0.3886 0.3526
vn 0.8513 0.3886 -0.3526
vn 0.3526 0.3886 -0.8513
vn -0.2977 0.6283 -0.7187
vn -0.7187 0.6283 -0.2977
vn -0.7187 0.6283 0.2977
vn -0.2977 0.6283 0.7187
vn 0.2977 0.6283 0.7187
vn 0.7187 0.6283 0.2977
vn 0.7187 0.6283 -0.2977
vn 0.2977 0.6283 -0.7187
vn 0.0000 0.0000 1.0000
vn 0.0000 -1.0000 -0.0000
# 84 vertex normals

vt 0.1052 0.7136 0.0000
vt 0.2969 0.7136 0.0000
vt 0.2969 0.9050 0.0000
vt 0.1052 0.9050 0.0000
vt 0.0579 0.2559 0.0000
vt 0.0419 0.2559 0.0000
vt 0.0419 0.0149 0.0000
vt 0.0579 0.0149 0.0000
vt 0.0577 0.4944 0.0000
vt 0.0419 0.4944 0.0000
vt 0.0577 0.7325 0.0000
vt 0.0419 0.7325 0.0000
vt 0.0579 0.9740 0.0000
vt 0.0419 0.9740 0.0000
vt 0.0698 0.7394 0.0000
vt 0.0698 0.9671 0.0000
vt 0.0694 0.5012 0.0000
vt 0.0694 0.7257 0.0000
vt 0.0694 0.2627 0.0000
vt 0.0694 0.4876 0.0000
vt 0.0698 0.0217 0.0000
vt 0.0698 0.2491 0.0000
vt 0.0871 0.7568 0.0000
vt 0.0871 0.9497 0.0000
vt 0.0866 0.5183 0.0000
vt 0.0866 0.7086 0.0000
vt 0.0866 0.2799 0.0000
vt 0.0866 0.4704 0.0000
vt 0.0872 0.0391 0.0000
vt 0.0872 0.2317 0.0000
vt 0.8927 0.0086 0.0000
vt 0.8927 0.9003 0.0000
vt 0.8215 0.9003 0.0000
vt 0.8215 0.0086 0.0000
vt 0.9935 0.0086 0.0000
vt 0.9935 0.9003 0.0000
vt 0.3768 0.0086 0.0000
vt 0.3768 0.9003 0.0000
vt 0.3056 0.9003 0.0000
vt 0.3056 0.0086 0.0000
vt 0.4775 0.0086 0.0000
vt 0.4775 0.9003 0.0000
vt 0.5488 0.0086 0.0000
vt 0.5488 0.9003 0.0000
vt 0.6495 0.0086 0.0000
vt 0.6495 0.9003 0.0000
vt 0.7207 0.0086 0.0000
vt 0.7207 0.9003 0.0000
vt 0.2428 0.9414 0.4935
vt 0.2428 0.9493 0.5236
vt 0.1356 0.9493 0.5236
vt 0.1356 0.9414 0.4935
vt 0.3500 0.9414 0.4935
vt 0.3500 0.9493 0.5236
vt 0.4571 0.9414 0.4935
vt 0.4571 0.9493 0.5236
vt 0.5643 0.9414 0.4935
vt 0.5643 0.9493 0.5236
vt 0.6715 0.9414 0.4935
vt 0.6715 0.9493 0.5236
vt 0.7787 0.9414 0.4935
vt 0.7787 0.9493 0.5236
vt 0.8859 0.9414 0.4935
vt 0.8859 0.9493 0.5236
vt 0.9931 0.9414 0.4935
vt 0.9931 0.9493 0.5236
vt 0.2428 0.9727 0.5027
vt 0.2428 0.9908 0.5364
vt 0.1356 0.9908 0.5364
vt 0.1356 0.9727 0.5027
vt 0.3500 0.9727 0.5027
vt 0.3500 0.9908 0.5364
vt 0.4571 0.9727 0.5027
vt 0.4571 0.9908 0.5364
vt 0.5643 0.9727 0.5027
vt 0.5643 0.9908 0.5364
vt 0.6715 0.9727 0.5027
vt 0.6715 0.9908 0.5364
vt 0.7787 0.9727 0.5027
vt 0.7787 0.9908 0.5364
vt 0.8859 0.9727 0.5027
vt 0.8859 0.9908 0.5364
vt 0.9931 0.9727 0.5027
vt 0.9931 0.9908 0.5364
vt 0.0941 0.5768 0.0000
vt 0.0941 0.6488 0.0000
vt 0.1450 0.5258 0.0000
vt 0.0941 0.3400 0.0000
vt 0.0941 0.4120 0.0000
vt 0.0964 0.1725 0.0000
vt 0.1480 0.2241 0.0000
vt 0.0964 0.0996 0.0000
vt 0.1480 0.0480 0.0000
vt 0.0961 0.8159 0.0000
vt 0.0961 0.8889 0.0000
vt 0.1450 0.6998 0.0000
vt 0.2428 0.9274 0.5412
vt 0.1356 0.9274 0.5412
vt 0.1356 0.9133 0.4935
vt 0.2428 0.9133 0.4935
vt 0.3500 0.9274 0.5412
vt 0.3500 0.9133 0.4935
vt 0.4571 0.9274 0.5412
vt 0.4571 0.9133 0.4935
vt 0.5643 0.9274 0.5412
vt 0.5643 0.9133 0.4935
vt 0.6715 0.9274 0.5412
vt 0.6715 0.9133 0.4935
vt 0.7787 0.9274 0.5412
vt 0.7787 0.9133 0.4935
vt 0.8859 0.9274 0.5412
vt 0.8859 0.9133 0.4935
vt 0.9931 0.9274 0.5412
vt 0.9931 0.9133 0.4935
vt 0.1356 0.9571 0.5054
vt 0.2428 0.9571 0.5054
vt 0.3500 0.9571 0.5054
vt 0.4571 0.9571 0.5054
vt 0.5643 0.9571 0.5054
vt 0.6715 0.9571 0.5054
vt 0.7787 0.9571 0.5054
vt 0.8859 0.9571 0.5054
vt 0.9931 0.9571 0.5054
vt 0.0389 0.2559 0.0000
vt 0.0318 0.2559 0.0000
vt 0.0318 0.0178 0.0000
vt 0.0389 0.0178 0.0000
vt 0.0389 0.4944 0.0000
vt 0.0318 0.4944 0.0000
vt 0.0389 0.7325 0.0000
vt 0.0318 0.7325 0.0000
vt 0.0389 0.9710 0.0000
vt 0.0318 0.9710 0.0000
vt 0.0059 0.7385 0.0000
vt 0.0059 0.4945 0.0000
vt 0.0243 0.4945 0.0000
vt 0.0243 0.7385 0.0000
vt 0.0059 0.9829 0.0000
vt 0.0243 0.9829 0.0000
vt 0.0059 0.2501 0.0000
vt 0.0059 0.0061 0.0000
vt 0.0243 0.0061 0.0000
vt 0.0243 0.2501 0.0000
vt 0.0272 0.4974 0.0000
vt 0.0272 0.7355 0.0000
vt 0.0272 0.2530 0.0000
vt 0.0272 0.4915 0.0000
vt 0.0272 0.0090 0.0000
vt 0.0272 0.2471 0.0000
vt 0.0272 0.7414 0.0000
vt 0.0272 0.9799 0.0000
# 151 texture coords

g sponza_11
f 1/1/1 2/2/1 3/3/1 
f 1/1/1 3/3/1 4/4/1 
f 5/5/2 6/6/3 7/7/4 
f 5/5/2 7/7/4 8/8/5 
f 9/9/6 10/10/7 6/6/3 
f 9/9/6 6/6/3 5/5/2 
f 11/11/8 12/12/9 10/10/7 
f 11/11/8 10/10/7 9/9/6 
f 8/13/5 7/14/4 12/12/9 
f 8/13/5 12/12/9 11/11/8 
f 11/11/8 13/15/10 14/16/11 
f 11/11/8 14/16/11 8/13/5 
f 9/9/6 15/17/12 13/18/10 
f 9/9/6 13/18/10 11/11/8 
f 5/5/2 16/19/13 15/20/12 
f 5/5/2 15/20/12 9/9/6 
f 8/8/5 14/21/11 16/22/13 
f 8/8/5 16/22/13 5/5/2 
f 17/23/14 18/24/15 14/16/11 
f 17/23/14 14/16/11 13/15/10 
f 19/25/16 17/26/14 13/18/10 
f 19/25/16 13/18/10 15/17/12 
f 20/27/17 19/28/16 15/20/12 
f 20/27/17 15/20/12 16/19/13 
f 18/29/15 20/30/17 16/22/13 
f 18/29/15 16/22/13 14/21/11 
f 21/31/18 22/32/18 23/33/7 
f 21/31/18 23/33/7 24/34/7 
f 25/35/19 26/36/19 22/32/18 
f 25/35/19 22/32/18 21/31/18 
f 27/37/20 28/38/20 26/39/9 
f 27/37/20 26/39/9 25/40/9 
f 29/41/21 30/42/21 28/38/20 
f 29/41/21 28/38/20 27/37/20 
f 31/43/4 32/44/4 30/42/21 
f 31/43/4 30/42/21 29/41/21 
f 33/45/22 34/46/22 32/44/23 
f 33/45/22 32/44/23 31/43/23 
f 35/47/3 36/48/3 34/46/22 
f 35/47/3 34/46/22 33/45/22 
f 24/34/24 23/33/24 36/48/24 
f 24/34/24 36/48/24 35/47/24 
f 37/49/25 38/50/25 39/51/26 
f 37/49/25 39/51/26 40/52/26 
f 41/53/27 42/54/28 38/50/25 
f 41/53/27 38/50/25 37/49/25 
f 43/55/29 44/56/29 42/54/28 
f 43/55/29 42/54/28 41/53/27 
f 45/57/30 46/58/30 44/56/29 
f 45/57/30 44/56/29 43/55/29 
f 47/59/31 48/60/32 46/58/30 
f 47/59/31 46/58/30 45/57/30 
f 49/61/33 50/62/33 48/60/32 
f 49/61/33 48/60/32 47/59/31 
f 51/63/34 52/64/34 50/62/33 
f 51/63/34 50/62/33 49/61/33 
f 40/65/26 39/66/26 52/64/34 
f 40/65/26 52/64/34 51/63/34 
f 53/67/35 54/68/36 55/69/37 
f 53/67/35 55/69/37 56/70/38 
f 57/71/39 58/72/40 54/68/36 
f 57/71/39 54/68/36 53/67/35 
f 59/73/41 60/74/42 58/72/40 
f 59/73/41 58/72/40 57/71/39 
f 61/75/43 62/76/44 60/74/42 
f 61/75/43 60/74/42 59/73/41 
f 63/77/45 64/78/46 62/76/44 
f 63/77/45 62/76/44 61/75/43 
f 65/79/47 66/80/48 64/78/46 
f 65/79/47 64/78/46 63/77/45 
f 67/81/49 68/82/50 66/80/48 
f 67/81/49 66/80/48 65/79/47 
f 56/83/38 55/84/37 68/82/50 
f 56/83/38 68/82/50 67/81/49 
f 19/25/16 54/85/36 58/86/40 
f 19/25/16 58/86/40 17/26/14 
f 19/25/16 55/87/37 54/85/36 
f 19/28/16 20/27/17 68/88/50 
f 19/28/16 68/88/50 55/89/37 
f 20/30/17 66/90/48 68/91/50 
f 20/30/17 18/29/15 64/92/46 
f 20/30/17 64/92/46 66/90/48 
f 18/29/15 62/93/44 64/92/46 
f 17/23/14 60/94/42 62/95/44 
f 17/23/14 62/95/44 18/24/15 
f 17/26/14 58/86/40 60/96/42 
f 69/97/51 70/98/52 23/99/52 
f 69/97/51 23/99/52 22/100/51 
f 71/101/53 69/97/51 22/100/51 
f 71/101/53 22/100/51 26/102/53 
f 72/103/54 71/101/53 26/102/53 
f 72/103/54 26/102/53 28/104/54 
f 73/105/55 72/103/54 28/104/54 
f 73/105/55 28/104/54 30/106/55 
f 74/107/56 73/105/55 30/106/55 
f 74/107/56 30/106/55 32/108/56 
f 75/109/57 74/107/56 32/108/56 
f 75/109/57 32/108/56 34/110/57 
f 76/111/58 75/109/57 34/110/57 
f 76/111/58 34/110/57 36/112/58 
f 70/113/52 76/111/58 36/112/58 
f 70/113/52 36/112/58 23/114/52 
f 37/49/59 40/52/60 70/98/60 
f 37/49/59 70/98/60 69/97/59 
f 41/53/61 37/49/59 69/97/59 
f 41/53/61 69/97/59 71/101/61 
f 43/55/62 41/53/61 71/101/61 
f 43/55/62 71/101/61 72/103/62 
f 45/57/63 43/55/62 72/103/62 
f 45/57/63 72/103/62 73/105/63 
f 47/59/64 45/57/63 73/105/63 
f 47/59/64 73/105/63 74/107/64 
f 49/61/65 47/59/64 74/107/64 
f 49/61/65 74/107/64 75/109/65 
f 51/63/66 49/61/65 75/109/65 
f 51/63/66 75/109/65 76/111/66 
f 40/65/60 51/63/66 76/111/66 
f 40/65/60 76/111/66 70/113/60 
f 53/67/35 56/70/38 77/115/67 
f 53/67/35 77/115/67 78/116/68 
f 57/71/39 53/67/35 78/116/68 
f 57/71/39 78/116/68 79/117/69 
f 59/73/41 57/71/39 79/117/69 
f 59/73/41 79/117/69 80/118/70 
f 61/75/43 59/73/41 80/118/70 
f 61/75/43 80/118/70 81/119/71 
f 63/77/45 61/75/43 81/119/71 
f 63/77/45 81/119/71 82/120/72 
f 65/79/47 63/77/45 82/120/72 
f 65/79/47 82/120/72 83/121/73 
f 67/81/49 65/79/47 83/121/73 
f 67/81/49 83/121/73 84/122/74 
f 56/83/38 67/81/49 84/122/74 
f 56/83/38 84/122/74 77/123/67 
f 78/116/68 77/115/67 39/51/75 
f 78/116/68 39/51/75 38/50/76 
f 79/117/69 78/116/68 38/50/76 
f 79/117/69 38/50/76 42/54/77 
f 80/118/70 79/117/69 42/54/77 
f 80/118/70 42/54/77 44/56/78 
f 81/119/71 80/118/70 44/56/78 
f 81/119/71 44/56/78 46/58/79 
f 82/120/72 81/119/71 46/58/79 
f 82/120/72 46/58/79 48/60/80 
f 83/121/73 82/120/72 48/60/80 
f 83/121/73 48/60/80 50/62/81 
f 84/122/74 83/121/73 50/62/81 
f 84/122/74 50/62/81 52/64/82 
f 77/123/67 84/122/74 52/64/82 
f 77/123/67 52/64/82 39/66/75 
f 85/124/23 86/125/23 87/126/23 
f 85/124/23 87/126/23 88/127/23 
f 89/128/24 90/129/24 86/125/24 
f 89/128/24 86/125/24 85/124/24 
f 91/130/19 92/131/19 90/129/19 
f 91/130/19 90/129/19 89/128/19 
f 88/132/83 87/133/83 92/131/83 
f 88/132/83 92/131/83 91/130/83 
f 1/134/23 4/135/23 93/136/23 
f 1/134/23 93/136/23 94/137/23 
f 2/138/24 1/134/24 94/137/24 
f 2/138/24 94/137/24 95/139/24 
f 3/140/19 2/141/19 95/142/19 
f 3/140/19 95/142/19 96/143/19 
f 4/135/83 3/140/83 96/143/83 
f 4/135/83 96/143/83 93/136/83 
f 6/6/1 85/124/1 88/127/1 
f 6/6/1 88/127/1 7/7/1 
f 10/10/1 89/128/1 85/124/1 
f 10/10/1 85/124/1 6/6/1 
f 12/12/1 91/130/1 89/128/1 
f 12/12/1 89/128/1 10/10/1 
f 7/14/1 88/132/1 91/130/1 
f 7/14/1 91/130/1 12/12/1 
f 93/136/84 87/144/84 86/145/84 
f 93/136/84 86/145/84 94/137/84 
f 96/143/84 92/146/84 87/147/84 
f 96/143/84 87/147/84 93/136/84 
f 95/142/84 90/148/84 92/149/84 
f 95/142/84 92/149/84 96/143/84 
f 94/137/84 86/150/84 90/151/84 
f 94/137/84 90/151/84 95/139/84 
# 182 faces

