# 3ds Max Wavefront OBJ Exporter v0.97b - (c)2007 guruware
# File Created: 21.02.2011 11:31:22

#
# object sponza_118
#

v  -87.7110 34.4005 -11.9318
v  -90.9496 34.4005 -11.9318
v  -93.2793 34.4005 -9.6022
v  -93.2793 34.4005 -4.2440
v  -87.7110 34.4005 -4.2440
v  -87.7110 33.5986 -4.2440
v  -93.2793 33.5986 -4.2440
v  -93.2793 33.0896 -4.2440
v  -87.7110 33.0896 -4.2440
v  -87.7110 33.5986 -11.9318
v  -87.7110 33.0896 -11.9318
v  -87.9595 32.7094 -4.4631
v  -87.9595 32.7094 -11.7128
v  -91.1687 32.7094 -11.7128
v  -90.9496 33.0896 -11.9318
v  -88.5874 32.4180 -5.0166
v  -88.5874 32.4180 -11.1592
v  -93.2793 32.7094 -4.4631
v  -93.2793 32.4180 -5.0166
v  -90.8814 30.9659 -10.6939
v  -89.1649 30.9659 -9.1832
v  -89.1649 12.0547 -9.1832
v  -90.8814 12.0547 -10.6939
v  -89.1649 30.9659 -7.0467
v  -89.1649 12.0547 -7.0467
v  -90.8814 30.9659 -5.5360
v  -90.8814 12.0547 -5.5360
v  -93.2793 30.9659 -5.5360
v  -93.2793 12.0547 -5.5360
v  -90.8073 31.5508 -10.8513
v  -88.9860 31.5508 -9.2484
v  -89.1649 31.4234 -9.1832
v  -90.8814 31.4234 -10.6939
v  -88.9860 31.5508 -6.9815
v  -89.1649 31.4234 -7.0467
v  -90.8073 31.5508 -5.3786
v  -90.8814 31.4234 -5.5360
v  -93.2793 31.5508 -5.3786
v  -93.2793 31.4234 -5.5360
v  -90.7757 32.2268 -10.9184
v  -88.9098 32.2268 -9.2762
v  -89.1098 31.9330 -9.2033
v  -90.8586 31.9330 -10.7424
v  -88.9098 32.2268 -6.9537
v  -89.1098 31.9330 -7.0267
v  -90.7757 32.2268 -5.3115
v  -90.8586 31.9330 -5.4876
v  -93.2793 32.2268 -5.3115
v  -93.2793 31.9330 -5.4876
v  -91.9630 32.2268 -10.9184
v  -91.7222 32.4180 -11.1592
v  -92.1876 30.9659 -10.6939
v  -91.9381 31.1946 -10.9434
v  -90.7640 31.1946 -10.9434
v  -88.8814 31.1946 -9.2865
v  -88.8814 31.1946 -6.9434
v  -90.7640 31.1946 -5.2865
v  -92.1876 31.4234 -10.6939
v  -92.1252 31.6782 -10.7563
v  -92.1391 31.9330 -10.7424
v  -90.8520 31.6782 -10.7563
v  -89.0941 31.6782 -9.2090
v  -89.0941 31.6782 -7.0209
v  -90.8520 31.6782 -5.4737
v  -92.0301 31.5508 -10.8513
v  -87.8165 33.8217 -4.3369
v  -93.2793 33.8217 -4.3369
v  -93.2793 33.5986 -4.3369
v  -87.8165 33.5986 -4.3369
v  -87.8165 33.8217 -11.8390
v  -87.8165 33.5986 -11.8390
v  -90.9496 33.8217 -11.9318
v  -87.7110 33.8217 -11.9318
v  -87.7110 33.8217 -4.2440
v  -91.0425 33.8217 -11.8390
v  -93.2793 31.1946 -5.2865
v  -93.2793 31.6782 -5.4737
v  -93.2793 33.8217 -4.2440
v  -95.6772 30.9659 -5.5360
v  -95.6772 12.0547 -5.5360
v  -95.6772 31.4234 -5.5360
v  -95.7513 31.5508 -5.3786
v  -95.7000 31.9330 -5.4876
v  -95.7829 32.2268 -5.3115
v  -95.7946 31.1946 -5.2865
v  -96.7522 31.1946 -6.1293
v  -96.5645 30.9659 -6.3170
v  -96.5645 31.4234 -6.3170
v  -96.6010 31.9330 -6.2805
v  -96.6114 31.6782 -6.2701
v  -95.7065 31.6782 -5.4737
v  -96.6829 31.5508 -6.1985
v  -98.6374 33.0896 -4.2440
v  -98.4184 32.7094 -4.4631
v  -97.8649 32.4180 -5.0166
v  -97.8483 32.4072 -5.0332
v  -98.6374 34.4005 -4.2440
v  -98.6374 33.8217 -4.2440
v  -98.5446 33.8217 -4.3369
v  -90.9496 33.5986 -11.9318
v  -92.1876 12.0547 -10.6939
v  -91.0425 33.5986 -11.8390
v  -98.6374 33.5986 -4.2440
v  -96.5645 12.0547 -6.3170
v  -96.7334 32.2268 -6.1481
v  -98.5446 33.5986 -4.3369
v  -90.9496 34.4005 -15.1705
v  -98.6374 34.4005 -9.6022
v  -98.6374 34.4005 -15.1705
v  -98.6374 33.0896 -9.6022
v  -98.6374 33.5986 -9.6022
v  -98.6374 33.5986 -15.1705
v  -98.6374 33.0896 -15.1705
v  -90.9496 33.5986 -15.1705
v  -90.9496 33.0896 -15.1705
v  -91.1687 32.7094 -14.9220
v  -98.4184 32.7094 -14.9220
v  -91.7222 32.4180 -14.2941
v  -97.8649 32.4180 -14.2941
v  -97.8649 32.4180 -9.6022
v  -98.4184 32.7094 -9.6022
v  -93.6983 12.0547 -13.7165
v  -93.6983 30.9659 -13.7165
v  -92.1876 30.9659 -12.0000
v  -92.1876 12.0547 -12.0000
v  -95.8347 12.0547 -13.7165
v  -95.8347 30.9659 -13.7165
v  -97.3454 12.0547 -12.0000
v  -97.3454 30.9659 -12.0000
v  -97.3454 12.0547 -9.6022
v  -97.3454 30.9659 -9.6022
v  -93.6983 31.4234 -13.7165
v  -93.6330 31.5508 -13.8954
v  -92.0301 31.5508 -12.0742
v  -92.1876 31.4234 -12.0000
v  -95.8347 31.4234 -13.7165
v  -95.8999 31.5508 -13.8954
v  -97.3454 31.4234 -12.0000
v  -97.5029 31.5508 -12.0742
v  -97.3454 31.4234 -9.6022
v  -97.5029 31.5508 -9.6022
v  -93.6782 31.9330 -13.7716
v  -93.6053 32.2268 -13.9717
v  -91.9630 32.2268 -12.1057
v  -92.1391 31.9330 -12.0229
v  -95.8548 31.9330 -13.7717
v  -95.9277 32.2268 -13.9717
v  -97.3939 31.9330 -12.0229
v  -97.5700 32.2268 -12.1057
v  -97.3939 31.9330 -9.6022
v  -97.5700 32.2268 -9.6022
v  -91.9381 31.1946 -12.1175
v  -93.5949 31.1946 -14.0000
v  -95.9381 31.1946 -14.0000
v  -97.5949 31.1946 -12.1175
v  -92.1252 31.6782 -12.0294
v  -93.6724 31.6782 -13.7874
v  -95.8606 31.6782 -13.7874
v  -97.4078 31.6782 -12.0294
v  -98.5446 33.5986 -9.6022
v  -98.5446 33.8217 -9.6022
v  -98.5446 33.8217 -15.0650
v  -98.5446 33.5986 -15.0650
v  -91.0425 33.8217 -15.0650
v  -91.0425 33.5986 -15.0650
v  -90.9496 33.8217 -15.1705
v  -98.6374 33.8217 -15.1705
v  -97.5949 31.1946 -9.6022
v  -97.4078 31.6782 -9.6022
v  -98.6374 33.8217 -9.6022
v  -97.3454 30.9659 -7.2043
v  -97.3454 12.0547 -7.2043
v  -97.3454 31.4234 -7.2043
v  -97.5029 31.5508 -7.1302
v  -97.3939 31.9330 -7.1815
v  -97.5700 32.2268 -7.0986
v  -97.5949 31.1946 -7.0869
v  -97.4078 31.6782 -7.1749
# 178 vertices

vn 0.0000 1.0000 -0.0000
vn 0.7071 0.0000 0.7071
vn 0.0000 0.0000 1.0000
vn 0.0000 -0.2584 0.9660
vn 0.6761 -0.3073 0.6696
vn 0.7071 0.0000 -0.7071
vn 0.6761 -0.3073 -0.6696
vn 0.4376 -0.7728 0.4596
vn 0.4376 -0.7728 -0.4596
vn 0.3433 -0.8743 -0.3433
vn 0.6494 -0.3957 -0.6494
vn 0.1918 -0.9569 0.2180
vn 0.1928 -0.9566 -0.2187
vn 0.0000 -0.7204 0.6935
vn 0.0000 -0.8629 0.5054
vn 0.6607 0.0000 -0.7507
vn 1.0000 0.0000 -0.0000
vn 0.6607 0.0000 0.7507
vn 0.2152 -0.8062 -0.5511
vn 0.5102 -0.8306 -0.2231
vn 0.5028 -0.8298 -0.2421
vn 0.1983 -0.8055 -0.5584
vn 0.5102 -0.8306 0.2231
vn 0.5028 -0.8298 0.2421
vn 0.2152 -0.8062 0.5511
vn 0.1983 -0.8055 0.5584
vn 0.0000 -0.7774 0.6291
vn 0.1386 -0.7507 -0.6460
vn 0.5588 -0.8161 -0.1473
vn 0.8652 -0.3031 -0.3994
vn 0.3334 -0.2783 -0.9008
vn 0.5588 -0.8162 0.1469
vn 0.8652 -0.3031 0.3994
vn 0.1390 -0.7815 0.6082
vn 0.3334 -0.2783 0.9008
vn 0.0000 -0.6945 0.7195
vn 0.0000 -0.2404 0.9707
vn 0.4817 -0.7320 -0.4817
vn 0.3186 -0.8927 -0.3186
vn 0.2150 -0.7682 -0.6030
vn 0.3846 -0.8391 -0.3846
vn 0.2322 -0.7690 -0.5956
vn 0.5463 -0.7955 -0.2620
vn 0.5541 -0.7964 -0.2425
vn 0.5541 -0.7964 0.2425
vn 0.5463 -0.7955 0.2620
vn 0.2322 -0.7690 0.5956
vn 0.2150 -0.7682 0.6030
vn 0.3846 0.8391 -0.3846
vn 0.2150 0.7682 -0.6030
vn 0.2322 0.7690 -0.5956
vn 0.5463 0.7955 -0.2620
vn 0.5541 0.7964 -0.2425
vn 0.5463 0.7955 0.2620
vn 0.5541 0.7964 0.2425
vn 0.2322 0.7690 0.5956
vn 0.2150 0.7682 0.6030
vn 0.6549 0.3772 -0.6549
vn 0.6814 -0.2670 -0.6814
vn 0.3195 0.3911 -0.8631
vn 0.8227 0.4229 -0.3798
vn 0.8227 0.4229 0.3798
vn 0.3195 0.3911 0.8631
vn 0.4863 0.7259 -0.4864
vn 0.2794 0.6353 -0.7199
vn 0.6803 0.6692 -0.2990
vn 0.6803 0.6692 0.2990
vn 0.2794 0.6353 0.7199
vn 0.0000 0.0000 -1.0000
vn 0.0000 -1.0000 -0.0000
vn 0.0000 -0.7371 0.6757
vn 0.0000 0.7371 0.6758
vn 0.0000 0.3408 0.9401
vn 0.0000 0.5980 0.8015
vn -0.1983 -0.8055 0.5584
vn -0.2152 -0.8062 0.5511
vn -0.3334 -0.2783 0.9008
vn -0.1390 -0.7815 0.6082
vn -0.2150 -0.7682 0.6030
vn -0.2322 -0.7689 0.5956
vn -0.4616 -0.7575 0.4616
vn -0.2150 0.7682 0.6030
vn -0.4616 0.7575 0.4616
vn -0.2322 0.7689 0.5956
vn -0.6837 -0.2551 0.6837
vn -0.6595 0.3605 0.6596
vn -0.3195 0.3911 0.8631
vn -0.5538 0.6217 0.5538
vn -0.2794 0.6353 0.7199
vn -0.6756 -0.2953 0.6756
vn -0.4624 -0.7566 0.4624
vn -0.2598 -0.9301 0.2598
vn -0.2484 -0.9362 0.2488
vn 0.3511 -0.8680 -0.3512
vn 0.3512 -0.8680 -0.3512
vn -0.7071 0.0000 0.7071
vn -0.6607 0.0000 0.7507
vn -0.4281 -0.7959 0.4281
vn -0.3657 -0.8558 0.3657
vn -0.9660 -0.2584 -0.0000
vn -1.0000 0.0000 -0.0000
vn -0.7071 0.0000 -0.7071
vn -0.6696 -0.3073 -0.6761
vn 0.6696 -0.3073 -0.6761
vn 0.4596 -0.7728 -0.4376
vn -0.4596 -0.7728 -0.4376
vn 0.2187 -0.9566 -0.1928
vn -0.2180 -0.9569 -0.1918
vn -0.5055 -0.8629 -0.0000
vn -0.6935 -0.7204 -0.0000
vn 0.7507 0.0000 -0.6607
vn -0.7507 0.0000 -0.6607
vn 0.2420 -0.8298 -0.5028
vn 0.2231 -0.8306 -0.5102
vn 0.5511 -0.8062 -0.2151
vn 0.5584 -0.8055 -0.1983
vn -0.2421 -0.8298 -0.5028
vn -0.2231 -0.8306 -0.5103
vn -0.5585 -0.8055 -0.1983
vn -0.5511 -0.8062 -0.2152
vn -0.6291 -0.7774 -0.0000
vn 0.3994 -0.3031 -0.8652
vn 0.1473 -0.8161 -0.5588
vn 0.6460 -0.7507 -0.1386
vn 0.9008 -0.2783 -0.3334
vn -0.3994 -0.3031 -0.8652
vn -0.1469 -0.8162 -0.5588
vn -0.9008 -0.2783 -0.3334
vn -0.6082 -0.7815 -0.1390
vn -0.9707 -0.2404 -0.0000
vn -0.7195 -0.6945 -0.0000
vn 0.6030 -0.7682 -0.2150
vn 0.5956 -0.7690 -0.2322
vn 0.2620 -0.7955 -0.5463
vn 0.2425 -0.7964 -0.5541
vn -0.2425 -0.7963 -0.5541
vn -0.2621 -0.7955 -0.5463
vn -0.5956 -0.7690 -0.2322
vn -0.6030 -0.7682 -0.2150
vn 0.6030 0.7682 -0.2150
vn 0.5956 0.7690 -0.2322
vn 0.2620 0.7955 -0.5463
vn 0.2425 0.7964 -0.5541
vn -0.2620 0.7955 -0.5463
vn -0.2425 0.7963 -0.5541
vn -0.5956 0.7690 -0.2322
vn -0.6030 0.7682 -0.2150
vn 0.8631 0.3911 -0.3195
vn 0.3798 0.4229 -0.8227
vn -0.3798 0.4229 -0.8227
vn -0.8631 0.3911 -0.3195
vn 0.7199 0.6354 -0.2794
vn 0.2990 0.6692 -0.6803
vn -0.2990 0.6692 -0.6803
vn -0.7199 0.6353 -0.2794
vn -0.0000 0.0000 -1.0000
vn -0.6757 -0.7371 -0.0000
vn -0.6758 0.7371 -0.0000
vn -0.9401 0.3408 -0.0000
vn -0.8015 0.5980 -0.0000
vn -0.5585 -0.8055 0.1983
vn -0.5511 -0.8062 0.2152
vn -0.9008 -0.2783 0.3334
vn -0.6082 -0.7815 0.1390
vn -0.6030 -0.7682 0.2150
vn -0.5956 -0.7690 0.2322
vn -0.6030 0.7682 0.2150
vn -0.5956 0.7690 0.2322
vn -0.8631 0.3911 0.3195
vn -0.7199 0.6353 0.2794
vn -0.7507 0.0000 0.6607
# 171 vertex normals

vt 0.2969 0.9050 0.0000
vt 0.2969 0.8339 0.0000
vt 0.2388 0.7828 0.0000
vt 0.1052 0.7828 0.0000
vt 0.1052 0.9050 0.0000
vt 0.0419 0.0149 0.0000
vt 0.0419 0.1688 0.0000
vt 0.0579 0.1688 0.0000
vt 0.0579 0.0149 0.0000
vt 0.0419 0.7325 0.0000
vt 0.0419 0.9740 0.0000
vt 0.0579 0.9740 0.0000
vt 0.0577 0.7325 0.0000
vt 0.0698 0.9671 0.0000
vt 0.0698 0.7394 0.0000
vt 0.0694 0.7257 0.0000
vt 0.0694 0.6381 0.0000
vt 0.0577 0.6441 0.0000
vt 0.0871 0.9497 0.0000
vt 0.0871 0.7568 0.0000
vt 0.0698 0.1688 0.0000
vt 0.0872 0.1688 0.0000
vt 0.0872 0.0391 0.0000
vt 0.0698 0.0217 0.0000
vt 0.9967 0.9005 0.0000
vt 0.8929 0.9005 0.0000
vt 0.8929 0.0091 0.0000
vt 0.9967 0.0091 0.0000
vt 0.8048 0.9005 0.0000
vt 0.8048 0.0091 0.0000
vt 0.7184 0.9005 0.0000
vt 0.6490 0.9005 0.0000
vt 0.6490 0.0091 0.0000
vt 0.7184 0.0091 0.0000
vt 0.4750 0.9005 0.0000
vt 0.4750 0.0091 0.0000
vt 0.3500 0.9493 0.5236
vt 0.4571 0.9493 0.5236
vt 0.4571 0.9414 0.4935
vt 0.3500 0.9414 0.4935
vt 0.5643 0.9493 0.5236
vt 0.5643 0.9414 0.4935
vt 0.6715 0.9493 0.5236
vt 0.6715 0.9414 0.4935
vt 0.7744 0.9493 0.5236
vt 0.7774 0.9414 0.4935
vt 0.3500 0.9908 0.5364
vt 0.4571 0.9908 0.5364
vt 0.4571 0.9727 0.5027
vt 0.3500 0.9727 0.5027
vt 0.5643 0.9908 0.5364
vt 0.5643 0.9727 0.5027
vt 0.6715 0.9908 0.5364
vt 0.6715 0.9727 0.5027
vt 0.7732 0.9908 0.5364
vt 0.7764 0.9727 0.5027
vt 0.0941 0.6488 0.0000
vt 0.0941 0.6164 0.0000
vt 0.0866 0.6230 0.0000
vt 0.0866 0.7086 0.0000
vt 0.0964 0.0996 0.0000
vt 0.1480 0.0480 0.0000
vt 0.0961 0.8889 0.0000
vt 0.0961 0.8159 0.0000
vt 0.1450 0.6998 0.0000
vt 0.3500 0.9133 0.4935
vt 0.2923 0.9133 0.4935
vt 0.3027 0.9274 0.5412
vt 0.3500 0.9274 0.5412
vt 0.4571 0.9133 0.4935
vt 0.4571 0.9274 0.5412
vt 0.5643 0.9274 0.5412
vt 0.5643 0.9133 0.4935
vt 0.6715 0.9274 0.5412
vt 0.6715 0.9133 0.4935
vt 0.2923 0.9414 0.4935
vt 0.2951 0.9571 0.5054
vt 0.2945 0.9727 0.5027
vt 0.3500 0.9571 0.5054
vt 0.4571 0.9571 0.5054
vt 0.5643 0.9571 0.5054
vt 0.6715 0.9571 0.5054
vt 0.2991 0.9493 0.5236
vt 0.0318 0.0178 0.0000
vt 0.0318 0.1707 0.0000
vt 0.0389 0.1707 0.0000
vt 0.0389 0.0178 0.0000
vt 0.0318 0.7325 0.0000
vt 0.0318 0.9710 0.0000
vt 0.0389 0.9710 0.0000
vt 0.0389 0.7325 0.0000
vt 0.0243 0.1595 0.0000
vt 0.0059 0.1595 0.0000
vt 0.0059 0.2501 0.0000
vt 0.0243 0.2501 0.0000
vt 0.0059 0.4945 0.0000
vt 0.0243 0.4945 0.0000
vt 0.0272 0.4915 0.0000
vt 0.0272 0.2530 0.0000
vt 0.0272 0.2471 0.0000
vt 0.0272 0.1569 0.0000
vt 0.0964 0.1688 0.0000
vt 0.7728 0.9274 0.5412
vt 0.7774 0.9133 0.4935
vt 0.7761 0.9571 0.5054
vt 0.0243 0.6503 0.0000
vt 0.0059 0.6503 0.0000
vt 0.0272 0.6503 0.0000
vt 0.0272 0.4974 0.0000
vt 0.3698 0.9005 0.0000
vt 0.3698 0.0091 0.0000
vt 0.6170 0.9274 0.5412
vt 0.6161 0.9133 0.4935
vt 0.6161 0.9414 0.4935
vt 0.6163 0.9727 0.5027
vt 0.6163 0.9571 0.5054
vt 0.6167 0.9493 0.5236
vt 0.0579 0.0207 0.0000
vt 0.0698 0.0267 0.0000
vt 0.0872 0.0420 0.0000
vt 0.0877 0.0425 0.0000
vt 0.0059 0.5004 0.0000
vt 0.0243 0.5004 0.0000
vt 0.0272 0.5030 0.0000
vt 0.0419 0.6441 0.0000
vt 0.3563 0.9005 0.0000
vt 0.3177 0.9005 0.0000
vt 0.3177 0.0091 0.0000
vt 0.3563 0.0091 0.0000
vt 0.3017 0.9908 0.5364
vt 0.0318 0.6423 0.0000
vt 0.0389 0.6423 0.0000
vt 0.1052 0.9004 0.0000
vt 0.0419 0.0207 0.0000
vt 0.3161 0.0091 0.0000
vt 0.3161 0.9005 0.0000
vt 0.6169 0.9908 0.5364
vt 0.1227 0.0733 0.0000
vt 0.0389 0.0233 0.0000
vt 0.0318 0.0233 0.0000
vt 0.4800 0.0091 0.0000
vt 0.4800 0.9005 0.0000
vt 0.3800 0.9005 0.0000
vt 0.3800 0.0091 0.0000
vt 0.5472 0.0091 0.0000
vt 0.5472 0.9005 0.0000
vt 0.6467 0.0091 0.0000
vt 0.6467 0.9005 0.0000
vt 0.7432 0.0091 0.0000
vt 0.7432 0.9005 0.0000
vt 0.8931 0.9005 0.0000
vt 0.8931 0.0091 0.0000
vt 0.3314 0.9005 0.0000
vt 0.3314 0.0091 0.0000
vt 0.9972 0.0091 0.0000
vt 0.9972 0.9005 0.0000
# 156 texture coords

g sponza_118
f 1/1/1 2/2/1 3/3/1 
f 1/1/1 3/3/1 4/4/1 
f 5/5/1 1/1/1 4/4/1 
f 6/6/2 7/7/3 8/8/4 
f 6/6/2 8/8/4 9/9/5 
f 10/10/6 6/11/2 9/12/5 
f 10/10/6 9/12/5 11/13/7 
f 12/14/8 13/15/9 11/13/7 
f 12/14/8 11/13/7 9/12/5 
f 13/16/9 14/17/10 15/18/11 
f 13/16/9 15/18/11 11/13/7 
f 12/14/8 16/19/12 17/20/13 
f 12/14/8 17/20/13 13/15/9 
f 18/21/14 19/22/15 16/23/12 
f 18/21/14 16/23/12 12/24/8 
f 20/25/16 21/26/16 22/27/16 
f 20/25/16 22/27/16 23/28/16 
f 21/26/17 24/29/17 25/30/17 
f 21/26/17 25/30/17 22/27/17 
f 24/31/18 26/32/18 27/33/18 
f 24/31/18 27/33/18 25/34/18 
f 26/32/3 28/35/3 29/36/3 
f 26/32/3 29/36/3 27/33/3 
f 30/37/19 31/38/20 32/39/21 
f 30/37/19 32/39/21 33/40/22 
f 31/38/20 34/41/23 35/42/24 
f 31/38/20 35/42/24 32/39/21 
f 35/42/24 34/41/23 36/43/25 
f 35/42/24 36/43/25 37/44/26 
f 37/44/26 36/43/25 38/45/27 
f 37/44/26 38/45/27 39/46/27 
f 40/47/28 41/48/29 42/49/30 
f 40/47/28 42/49/30 43/50/31 
f 41/48/29 44/51/32 45/52/33 
f 41/48/29 45/52/33 42/49/30 
f 45/52/33 44/51/32 46/53/34 
f 45/52/33 46/53/34 47/54/35 
f 47/54/35 46/53/34 48/55/36 
f 47/54/35 48/55/36 49/56/37 
f 40/57/28 50/58/38 51/59/39 
f 40/57/28 51/59/39 17/60/13 
f 16/23/12 46/61/34 44/62/32 
f 44/63/32 41/64/29 17/20/13 
f 44/63/32 17/20/13 16/19/12 
f 17/60/13 41/65/29 40/57/28 
f 20/66/40 52/67/41 53/68/41 
f 20/66/40 53/68/41 54/69/42 
f 21/70/43 20/66/40 54/69/42 
f 21/70/43 54/69/42 55/71/44 
f 21/70/43 55/71/44 56/72/45 
f 21/70/43 56/72/45 24/73/46 
f 24/73/46 56/72/45 57/74/47 
f 24/73/46 57/74/47 26/75/48 
f 53/68/49 58/76/49 33/40/50 
f 53/68/49 33/40/50 54/69/51 
f 54/69/51 33/40/50 32/39/52 
f 54/69/51 32/39/52 55/71/53 
f 55/71/53 32/39/52 35/42/54 
f 55/71/53 35/42/54 56/72/55 
f 57/74/56 56/72/55 35/42/54 
f 57/74/56 35/42/54 37/44/57 
f 59/77/58 60/78/59 43/50/31 
f 59/77/58 43/50/31 61/79/60 
f 61/79/60 43/50/31 42/49/30 
f 61/79/60 42/49/30 62/80/61 
f 62/80/61 42/49/30 45/52/33 
f 62/80/61 45/52/33 63/81/62 
f 63/81/62 45/52/33 47/54/35 
f 63/81/62 47/54/35 64/82/63 
f 65/83/64 59/77/58 61/79/60 
f 65/83/64 61/79/60 30/37/65 
f 30/37/65 61/79/60 62/80/61 
f 30/37/65 62/80/61 31/38/66 
f 31/38/66 62/80/61 63/81/62 
f 31/38/66 63/81/62 34/41/67 
f 36/43/68 34/41/67 63/81/62 
f 36/43/68 63/81/62 64/82/63 
f 66/84/3 67/85/3 68/86/3 
f 66/84/3 68/86/3 69/87/3 
f 70/88/17 66/89/17 69/90/17 
f 70/88/17 69/90/17 71/91/17 
f 72/92/69 2/93/69 1/94/69 
f 72/92/69 1/94/69 73/95/69 
f 73/95/17 1/94/17 5/96/17 
f 73/95/17 5/96/17 74/97/17 
f 69/87/1 68/86/1 7/7/1 
f 69/87/1 7/7/1 6/6/1 
f 71/91/1 69/90/1 6/11/1 
f 71/91/1 6/11/1 10/10/1 
f 66/98/70 70/99/70 73/95/70 
f 66/98/70 73/95/70 74/97/70 
f 70/100/70 75/101/70 72/92/70 
f 70/100/70 72/92/70 73/95/70 
f 8/8/4 18/21/14 12/24/8 
f 8/8/4 12/24/8 9/9/5 
f 19/22/15 48/102/36 46/61/34 
f 19/22/15 46/61/34 16/23/12 
f 76/103/71 28/104/71 26/75/48 
f 76/103/71 26/75/48 57/74/47 
f 76/103/72 57/74/56 37/44/57 
f 76/103/72 37/44/57 39/46/72 
f 77/105/73 64/82/63 47/54/35 
f 77/105/73 47/54/35 49/56/37 
f 38/45/74 36/43/68 64/82/63 
f 38/45/74 64/82/63 77/105/73 
f 78/106/3 74/97/3 5/96/3 
f 78/106/3 5/96/3 4/107/3 
f 78/106/70 67/108/70 66/109/70 
f 78/106/70 66/109/70 74/97/70 
f 29/36/3 28/35/3 79/110/3 
f 29/36/3 79/110/3 80/111/3 
f 81/44/75 39/46/27 38/45/27 
f 81/44/75 38/45/27 82/43/76 
f 83/54/77 49/56/37 48/55/36 
f 83/54/77 48/55/36 84/53/78 
f 79/75/79 85/74/80 86/112/81 
f 79/75/79 86/112/81 87/113/81 
f 81/44/82 88/114/83 86/112/83 
f 81/44/82 86/112/83 85/74/84 
f 83/54/77 89/115/85 90/116/86 
f 83/54/77 90/116/86 91/82/87 
f 91/82/87 90/116/86 92/117/88 
f 91/82/87 92/117/88 82/43/89 
f 8/8/4 93/118/90 94/119/91 
f 8/8/4 94/119/91 18/21/14 
f 95/120/92 96/121/93 84/61/78 
f 95/120/92 84/61/78 48/102/36 
f 19/22/15 95/120/92 48/102/36 
f 76/103/71 85/74/80 79/75/79 
f 76/103/71 79/75/79 28/104/71 
f 81/44/82 85/74/84 76/103/72 
f 81/44/82 76/103/72 39/46/72 
f 83/54/77 91/82/87 77/105/73 
f 83/54/77 77/105/73 49/56/37 
f 91/82/87 82/43/89 38/45/74 
f 91/82/87 38/45/74 77/105/73 
f 97/122/3 98/123/3 78/106/3 
f 97/122/3 78/106/3 4/107/3 
f 78/106/70 98/123/70 99/124/70 
f 78/106/70 99/124/70 67/108/70 
f 100/125/6 10/10/6 11/13/7 
f 100/125/6 11/13/7 15/18/11 
f 14/17/10 13/16/9 17/60/13 
f 14/17/10 17/60/13 51/59/39 
f 52/126/69 20/127/69 23/128/69 
f 52/126/69 23/128/69 101/129/69 
f 65/83/94 30/37/19 33/40/22 
f 65/83/94 33/40/22 58/76/95 
f 50/130/38 40/47/28 43/50/31 
f 50/130/38 43/50/31 60/78/59 
f 75/131/69 70/88/69 71/91/69 
f 75/131/69 71/91/69 102/132/69 
f 100/125/1 102/132/1 71/91/1 
f 100/125/1 71/91/1 10/10/1 
f 3/3/1 97/133/1 4/4/1 
f 93/118/90 8/8/4 7/7/3 
f 93/118/90 7/7/3 103/134/96 
f 95/120/92 19/22/15 18/21/14 
f 95/120/92 18/21/14 94/119/91 
f 104/135/96 80/111/97 79/110/97 
f 104/135/96 79/110/97 87/136/96 
f 92/117/98 88/114/98 81/44/75 
f 92/117/98 81/44/75 82/43/76 
f 105/137/99 89/115/85 83/54/77 
f 105/137/99 83/54/77 84/53/78 
f 96/121/93 105/138/99 84/61/78 
f 106/139/3 68/86/3 67/85/3 
f 106/139/3 67/85/3 99/140/3 
f 106/139/1 103/134/1 7/7/1 
f 106/139/1 7/7/1 68/86/1 
f 3/3/1 2/2/1 107/1/1 
f 3/3/1 107/1/1 108/4/1 
f 109/5/1 108/4/1 107/1/1 
f 110/8/100 111/7/101 112/6/102 
f 110/8/100 112/6/102 113/9/103 
f 113/12/103 112/11/102 114/10/6 
f 113/12/103 114/10/6 115/13/104 
f 115/13/104 116/15/105 117/14/106 
f 115/13/104 117/14/106 113/12/103 
f 15/18/11 14/17/10 116/16/105 
f 15/18/11 116/16/105 115/13/104 
f 118/20/107 119/19/108 117/14/106 
f 118/20/107 117/14/106 116/15/105 
f 119/23/108 120/22/109 121/21/110 
f 119/23/108 121/21/110 117/24/106 
f 122/141/111 123/142/111 124/143/111 
f 122/141/111 124/143/111 125/144/111 
f 126/145/69 127/146/69 123/142/69 
f 126/145/69 123/142/69 122/141/69 
f 128/147/112 129/148/112 127/146/112 
f 128/147/112 127/146/112 126/145/112 
f 130/149/101 131/150/101 129/148/101 
f 130/149/101 129/148/101 128/147/101 
f 132/39/113 133/38/114 134/37/115 
f 132/39/113 134/37/115 135/40/116 
f 136/42/117 137/41/118 133/38/114 
f 136/42/117 133/38/114 132/39/113 
f 136/42/117 138/44/119 139/43/120 
f 136/42/117 139/43/120 137/41/118 
f 138/44/119 140/46/121 141/45/121 
f 138/44/119 141/45/121 139/43/120 
f 142/49/122 143/48/123 144/47/124 
f 142/49/122 144/47/124 145/50/125 
f 146/52/126 147/51/127 143/48/123 
f 146/52/126 143/48/123 142/49/122 
f 146/52/126 148/54/128 149/53/129 
f 146/52/126 149/53/129 147/51/127 
f 148/54/128 150/56/130 151/55/131 
f 148/54/128 151/55/131 149/53/129 
f 51/59/39 50/58/38 144/57/124 
f 51/59/39 144/57/124 118/60/107 
f 119/23/108 147/62/127 149/61/129 
f 118/20/107 143/64/123 147/63/127 
f 118/20/107 147/63/127 119/19/108 
f 118/60/107 144/57/124 143/65/123 
f 124/66/132 152/69/133 53/68/41 
f 124/66/132 53/68/41 52/67/41 
f 123/70/134 153/71/135 152/69/133 
f 123/70/134 152/69/133 124/66/132 
f 154/72/136 153/71/135 123/70/134 
f 154/72/136 123/70/134 127/73/137 
f 155/74/138 154/72/136 127/73/137 
f 155/74/138 127/73/137 129/75/139 
f 135/40/140 58/76/49 53/68/49 
f 135/40/140 53/68/49 152/69/141 
f 132/39/142 135/40/140 152/69/141 
f 132/39/142 152/69/141 153/71/143 
f 136/42/144 132/39/142 153/71/143 
f 136/42/144 153/71/143 154/72/145 
f 155/74/146 138/44/147 136/42/144 
f 155/74/146 136/42/144 154/72/145 
f 145/50/125 60/78/59 59/77/58 
f 145/50/125 59/77/58 156/79/148 
f 142/49/122 145/50/125 156/79/148 
f 142/49/122 156/79/148 157/80/149 
f 146/52/126 142/49/122 157/80/149 
f 146/52/126 157/80/149 158/81/150 
f 148/54/128 146/52/126 158/81/150 
f 148/54/128 158/81/150 159/82/151 
f 156/79/148 59/77/58 65/83/64 
f 156/79/148 65/83/64 134/37/152 
f 157/80/149 156/79/148 134/37/152 
f 157/80/149 134/37/152 133/38/153 
f 158/81/150 157/80/149 133/38/153 
f 158/81/150 133/38/153 137/41/154 
f 139/43/155 159/82/151 158/81/150 
f 139/43/155 158/81/150 137/41/154 
f 160/86/101 161/85/101 162/84/101 
f 160/86/101 162/84/101 163/87/101 
f 163/90/156 162/89/156 164/88/156 
f 163/90/156 164/88/156 165/91/156 
f 107/94/17 2/93/17 72/92/17 
f 107/94/17 72/92/17 166/95/17 
f 109/96/156 107/94/156 166/95/156 
f 109/96/156 166/95/156 167/97/156 
f 111/7/1 160/86/1 163/87/1 
f 111/7/1 163/87/1 112/6/1 
f 112/11/1 163/90/1 165/91/1 
f 112/11/1 165/91/1 114/10/1 
f 166/95/70 164/99/70 162/98/70 
f 166/95/70 162/98/70 167/97/70 
f 72/92/70 75/101/70 164/100/70 
f 72/92/70 164/100/70 166/95/70 
f 110/8/100 113/9/103 117/24/106 
f 110/8/100 117/24/106 121/21/110 
f 120/22/109 119/23/108 149/61/129 
f 120/22/109 149/61/129 151/102/131 
f 168/103/157 155/74/138 129/75/139 
f 168/103/157 129/75/139 131/104/157 
f 138/44/147 155/74/146 168/103/158 
f 138/44/147 168/103/158 140/46/158 
f 148/54/128 159/82/151 169/105/159 
f 148/54/128 169/105/159 150/56/130 
f 159/82/151 139/43/155 141/45/160 
f 159/82/151 141/45/160 169/105/159 
f 109/96/101 167/97/101 170/106/101 
f 109/96/101 170/106/101 108/107/101 
f 170/106/70 167/97/70 162/109/70 
f 170/106/70 162/109/70 161/108/70 
f 171/151/101 131/150/101 130/149/101 
f 171/151/101 130/149/101 172/152/101 
f 173/44/161 174/43/162 141/45/121 
f 173/44/161 141/45/121 140/46/121 
f 175/54/163 176/53/164 151/55/131 
f 175/54/163 151/55/131 150/56/130 
f 171/75/165 87/113/81 86/112/81 
f 171/75/165 86/112/81 177/74/166 
f 86/112/83 88/114/83 173/44/167 
f 86/112/83 173/44/167 177/74/168 
f 90/116/86 89/115/85 175/54/163 
f 90/116/86 175/54/163 178/82/169 
f 92/117/88 90/116/86 178/82/169 
f 92/117/88 178/82/169 174/43/170 
f 110/8/100 121/21/110 94/119/91 
f 110/8/100 94/119/91 93/118/90 
f 176/61/164 96/121/93 95/120/92 
f 176/61/164 95/120/92 151/102/131 
f 120/22/109 151/102/131 95/120/92 
f 168/103/157 131/104/157 171/75/165 
f 168/103/157 171/75/165 177/74/166 
f 168/103/158 177/74/168 173/44/167 
f 168/103/158 173/44/167 140/46/158 
f 169/105/159 178/82/169 175/54/163 
f 169/105/159 175/54/163 150/56/130 
f 141/45/160 174/43/170 178/82/169 
f 141/45/160 178/82/169 169/105/159 
f 170/106/101 98/123/101 97/122/101 
f 170/106/101 97/122/101 108/107/101 
f 170/106/70 161/108/70 99/124/70 
f 170/106/70 99/124/70 98/123/70 
f 115/13/104 114/10/6 100/125/6 
f 115/13/104 100/125/6 15/18/11 
f 118/60/107 116/16/105 14/17/10 
f 118/60/107 14/17/10 51/59/39 
f 125/144/17 124/143/17 52/153/17 
f 125/144/17 52/153/17 101/154/17 
f 135/40/116 134/37/115 65/83/94 
f 135/40/116 65/83/94 58/76/95 
f 145/50/125 144/47/124 50/130/38 
f 145/50/125 50/130/38 60/78/59 
f 165/91/17 164/88/17 75/131/17 
f 165/91/17 75/131/17 102/132/17 
f 100/125/1 114/10/1 165/91/1 
f 100/125/1 165/91/1 102/132/1 
f 3/3/1 108/4/1 97/133/1 
f 111/7/101 110/8/100 93/118/90 
f 111/7/101 93/118/90 103/134/96 
f 121/21/110 120/22/109 95/120/92 
f 121/21/110 95/120/92 94/119/91 
f 171/151/171 172/152/171 104/155/96 
f 171/151/171 104/155/96 87/156/96 
f 92/117/98 174/43/162 173/44/161 
f 92/117/98 173/44/161 88/114/98 
f 105/137/99 176/53/164 175/54/163 
f 105/137/99 175/54/163 89/115/85 
f 96/121/93 176/61/164 105/138/99 
f 161/85/101 160/86/101 106/139/101 
f 161/85/101 106/139/101 99/140/101 
f 106/139/1 160/86/1 111/7/1 
f 106/139/1 111/7/1 103/134/1 
# 340 faces

