# 3ds Max Wavefront OBJ Exporter v0.97b - (c)2007 guruware
# File Created: 21.02.2011 11:31:21

#
# object sponza_109
#

v  21.6610 30.9529 -92.9913
v  21.6610 30.9529 -93.6023
v  21.7241 31.5993 -93.6023
v  21.7241 31.5993 -92.9091
v  21.6014 30.9529 -92.9181
v  21.6683 31.5993 -92.8405
v  17.0120 31.5993 -92.8405
v  17.0789 30.9529 -92.9181
v  22.1489 33.6256 -92.2453
v  16.5313 33.6256 -92.2453
v  16.5285 33.1893 -92.2453
v  22.1517 33.1893 -92.2453
v  16.4715 33.6256 -92.3188
v  16.4715 33.6256 -93.6023
v  16.4715 33.1893 -93.6023
v  16.4715 33.1893 -92.3153
v  21.6146 30.5660 -93.0496
v  21.6146 30.5660 -93.6023
v  21.7934 30.7594 -93.6023
v  21.7934 30.7594 -92.8373
v  21.5539 30.5660 -92.9751
v  21.7268 30.7594 -92.7555
v  16.9535 30.7594 -92.7555
v  17.1263 30.5660 -92.9751
v  22.2087 33.6256 -92.3188
v  22.2087 33.6256 -93.6023
v  22.3753 33.8438 -93.6023
v  22.3753 33.8438 -92.1220
v  22.3090 33.8438 -92.0407
v  16.3712 33.8438 -92.0407
v  22.2087 34.0619 -93.6023
v  22.2087 34.0619 -92.3266
v  22.1425 34.0619 -92.2453
v  16.5377 34.0619 -92.2453
v  21.9381 32.4992 -92.6490
v  21.9381 32.4992 -93.6023
v  22.2087 33.1893 -93.6023
v  22.2087 33.1893 -92.3153
v  21.8800 32.4992 -92.5777
v  16.8002 32.4992 -92.5777
v  16.9561 31.5993 -92.9091
v  17.0193 30.9529 -92.9913
v  16.8869 30.7594 -92.8373
v  17.0656 30.5660 -93.0496
v  16.3050 33.8438 -92.1220
v  16.4715 34.0619 -92.3266
v  16.7421 32.4992 -92.6490
v  16.4715 34.0619 -93.6023
v  16.9561 31.5993 -93.6023
v  17.0193 30.9529 -93.6023
v  16.8868 30.7594 -93.6023
v  17.0656 30.5660 -93.6023
v  16.3050 33.8438 -93.6023
v  16.7421 32.4992 -93.6023
# 54 vertices

vn 0.9953 -0.0973 -0.0000
vn 0.9863 -0.1647 -0.0000
vn 0.9849 -0.1729 -0.0000
vn 0.0000 -0.1192 0.9929
vn 0.0000 -0.2085 0.9780
vn 0.0000 0.0000 1.0000
vn -1.0000 0.0000 -0.0000
vn 0.7344 -0.6788 -0.0000
vn 0.0000 -0.7504 0.6610
vn 0.8252 0.5649 -0.0000
vn 0.0000 0.6436 0.7654
vn 0.7948 -0.6068 -0.0000
vn 0.0000 -0.6840 0.7295
vn 0.7948 0.6068 -0.0000
vn 0.0000 0.6840 0.7295
vn 0.9497 -0.3131 -0.0000
vn 0.9543 -0.2989 -0.0000
vn 0.9310 -0.3651 -0.0000
vn 0.0000 -0.3716 0.9284
vn 0.0000 -0.4339 0.9009
vn 0.7515 -0.2473 0.6116
vn 0.7502 -0.2535 0.6106
vn 0.7662 -0.1542 0.6238
vn -0.7662 -0.1542 0.6238
vn -0.7501 -0.2535 0.6108
vn -0.7514 -0.2473 0.6118
vn 0.7755 0.0051 0.6313
vn 0.7756 0.0051 0.6312
vn -0.7755 0.0051 0.6313
vn -0.7755 0.0051 0.6314
vn -0.7754 0.0051 0.6314
vn 0.5392 0.7187 0.4390
vn -0.5392 0.7187 0.4390
vn 0.4486 -0.8157 0.3652
vn 0.4486 -0.8157 0.3653
vn -0.4487 -0.8157 0.3653
vn -0.4487 -0.8157 0.3652
vn -0.4487 -0.8156 0.3653
vn 0.5059 -0.7578 0.4120
vn 0.5060 -0.7578 0.4119
vn -0.5061 -0.7578 0.4119
vn 0.5003 0.7640 0.4075
vn 0.5004 0.7640 0.4073
vn 0.5004 0.7640 0.4074
vn -0.5004 0.7639 0.4074
vn -0.5005 0.7639 0.4073
vn -0.5005 0.7640 0.4073
vn 0.6623 -0.5204 0.5390
vn 0.6966 -0.4395 0.5672
vn 0.7003 -0.4294 0.5702
vn -0.6966 -0.4395 0.5672
vn -0.6622 -0.5204 0.5392
vn -0.7003 -0.4294 0.5702
vn 0.0000 1.0000 -0.0000
vn -0.9953 -0.0973 -0.0000
vn -0.9849 -0.1729 -0.0000
vn -0.9863 -0.1647 -0.0000
vn 1.0000 0.0000 -0.0000
vn -0.7344 -0.6788 0.0000
vn -0.8251 0.5650 0.0000
vn -0.8252 0.5649 0.0000
vn -0.8251 0.5649 0.0000
vn -0.8251 0.5650 -0.0000
vn -0.7949 -0.6067 -0.0000
vn -0.7949 0.6067 -0.0000
vn -0.9497 -0.3131 -0.0000
vn -0.9310 -0.3651 -0.0000
vn -0.9543 -0.2989 -0.0000
vn 0.0000 -1.0000 -0.0000
# 69 vertex normals

vt 0.5504 0.8881 0.0000
vt 0.5337 0.8881 0.0000
vt 0.5337 0.9084 0.0000
vt 0.5526 0.9084 0.0000
vt 0.6076 0.8897 0.0000
vt 0.6053 0.9100 0.0000
vt 0.7614 0.9100 0.0000
vt 0.7592 0.8897 0.0000
vt 0.5892 0.9737 0.0000
vt 0.7775 0.9737 0.0000
vt 0.7776 0.9600 0.0000
vt 0.5891 0.9600 0.0000
vt 0.7937 0.9733 0.0000
vt 0.8288 0.9733 0.0000
vt 0.8288 0.9596 0.0000
vt 0.7936 0.9596 0.0000
vt 0.9865 0.7672 0.0000
vt 0.9619 0.7672 0.0000
vt 0.9632 0.7791 0.0000
vt 0.9959 0.7791 0.0000
vt 0.0113 0.7672 0.0000
vt 0.0111 0.7790 0.0000
vt 0.2524 0.7790 0.0000
vt 0.2525 0.7672 0.0000
vt 0.5337 0.8820 0.0000
vt 0.5546 0.8820 0.0000
vt 0.6034 0.8836 0.0000
vt 0.7634 0.8836 0.0000
vt 0.5687 0.9721 0.0000
vt 0.5337 0.9721 0.0000
vt 0.5337 0.9790 0.0000
vt 0.5741 0.9790 0.0000
vt 0.5839 0.9806 0.0000
vt 0.7829 0.9806 0.0000
vt 0.5337 0.9859 0.0000
vt 0.5685 0.9859 0.0000
vt 0.5894 0.9875 0.0000
vt 0.7773 0.9875 0.0000
vt 0.5597 0.9367 0.0000
vt 0.5337 0.9367 0.0000
vt 0.5337 0.9584 0.0000
vt 0.5688 0.9584 0.0000
vt 0.5982 0.9383 0.0000
vt 0.7685 0.9383 0.0000
vt 0.6028 0.9094 0.0000
vt 0.6050 0.8907 0.0000
vt 0.8095 0.8902 0.0000
vt 0.8073 0.9090 0.0000
vt 0.8098 0.9096 0.0000
vt 0.8121 0.8892 0.0000
vt 0.5867 0.9726 0.0000
vt 0.5865 0.9593 0.0000
vt 0.7912 0.9721 0.0000
vt 0.7910 0.9589 0.0000
vt 0.6007 0.8862 0.0000
vt 0.8079 0.8832 0.0000
vt 0.8052 0.8857 0.0000
vt 0.0079 0.7672 0.0000
vt 0.0078 0.7789 0.0000
vt 0.2559 0.7790 0.0000
vt 0.2558 0.7672 0.0000
vt 0.5815 0.9806 0.0000
vt 0.7860 0.9801 0.0000
vt 0.7884 0.9801 0.0000
vt 0.5871 0.9900 0.0000
vt 0.7916 0.9896 0.0000
vt 0.7939 0.9870 0.0000
vt 0.5957 0.9372 0.0000
vt 0.8002 0.9367 0.0000
vt 0.8027 0.9379 0.0000
vt 0.1674 0.8760 0.0000
vt 0.1655 0.8746 0.0000
vt 0.0109 0.8746 0.0000
vt 0.0091 0.8976 0.0000
vt 0.0091 0.8760 0.0000
vt 0.1674 0.8976 0.0000
vt 0.8288 0.9096 0.0000
vt 0.8288 0.8892 0.0000
vt 0.2874 0.7790 0.0000
vt 0.2803 0.7672 0.0000
vt 0.8288 0.8832 0.0000
vt 0.8288 0.9801 0.0000
vt 0.8288 0.9870 0.0000
vt 0.8288 0.9379 0.0000
vt 0.4476 0.6911 0.0000
vt 0.2773 0.6911 0.0000
vt 0.2773 0.6742 0.0000
vt 0.4476 0.6742 0.0000
vt 0.4453 0.6933 0.0000
vt 0.2795 0.6933 0.0000
# 90 texture coords

g sponza_109
f 1/1/1 2/2/1 3/3/2 
f 1/1/1 3/3/2 4/4/3 
f 5/5/4 6/6/5 7/7/5 
f 5/5/4 7/7/5 8/8/4 
f 9/9/6 10/10/6 11/11/6 
f 9/9/6 11/11/6 12/12/6 
f 13/13/7 14/14/7 15/15/7 
f 13/13/7 15/15/7 16/16/7 
f 17/17/8 18/18/8 19/19/8 
f 17/17/8 19/19/8 20/20/8 
f 21/21/9 22/22/9 23/23/9 
f 21/21/9 23/23/9 24/24/9 
f 19/25/10 2/2/10 1/1/10 
f 19/25/10 1/1/10 20/26/10 
f 22/27/11 5/5/11 8/8/11 
f 22/27/11 8/8/11 23/28/11 
f 25/29/12 26/30/12 27/31/12 
f 25/29/12 27/31/12 28/32/12 
f 9/9/13 29/33/13 30/34/13 
f 9/9/13 30/34/13 10/10/13 
f 27/31/14 31/35/14 32/36/14 
f 27/31/14 32/36/14 28/32/14 
f 29/33/15 33/37/15 34/38/15 
f 29/33/15 34/38/15 30/34/15 
f 35/39/16 36/40/17 37/41/18 
f 35/39/16 37/41/18 38/42/18 
f 39/43/19 12/12/20 11/11/20 
f 39/43/19 11/11/20 40/44/19 
f 4/4/3 3/3/2 36/40/17 
f 4/4/3 36/40/17 35/39/16 
f 6/6/5 39/43/19 40/44/19 
f 6/6/5 40/44/19 7/7/5 
f 4/45/21 6/6/22 5/5/23 
f 4/45/21 5/5/23 1/46/23 
f 8/47/24 7/48/25 41/49/26 
f 8/47/24 41/49/26 42/50/24 
f 25/51/27 9/9/27 12/12/28 
f 25/51/27 12/12/28 38/52/28 
f 10/53/29 13/13/29 16/16/30 
f 10/53/29 16/16/30 11/54/31 
f 5/5/32 22/27/32 20/55/32 
f 5/5/32 20/55/32 1/46/32 
f 43/56/33 23/57/33 8/47/33 
f 43/56/33 8/47/33 42/50/33 
f 21/21/34 17/58/34 20/59/35 
f 21/21/34 20/59/35 22/22/35 
f 43/60/36 44/61/37 24/24/37 
f 43/60/36 24/24/37 23/23/38 
f 28/62/39 29/33/39 9/9/40 
f 28/62/39 9/9/40 25/51/40 
f 10/53/41 30/63/41 45/64/41 
f 10/53/41 45/64/41 13/13/41 
f 28/62/42 32/65/43 33/37/44 
f 28/62/42 33/37/44 29/33/42 
f 34/66/45 46/67/45 45/64/46 
f 34/66/45 45/64/46 30/63/47 
f 38/52/48 12/12/48 39/43/49 
f 38/52/48 39/43/49 35/68/50 
f 40/69/51 11/54/52 16/16/52 
f 40/69/51 16/16/52 47/70/53 
f 35/68/50 39/43/49 6/6/22 
f 35/68/50 6/6/22 4/45/21 
f 7/48/25 40/69/51 47/70/53 
f 7/48/25 47/70/53 41/49/26 
f 46/71/54 34/72/54 33/73/54 
f 46/71/54 33/73/54 31/74/54 
f 33/73/54 32/75/54 31/74/54 
f 48/76/54 46/71/54 31/74/54 
f 42/50/55 41/49/56 49/77/57 
f 42/50/55 49/77/57 50/78/55 
f 25/29/58 38/42/58 37/41/58 
f 25/29/58 37/41/58 26/30/58 
f 44/61/59 43/60/59 51/79/59 
f 44/61/59 51/79/59 52/80/59 
f 51/81/60 43/56/61 42/50/62 
f 51/81/60 42/50/62 50/78/63 
f 13/13/64 45/64/64 53/82/64 
f 13/13/64 53/82/64 14/14/64 
f 53/82/65 45/64/65 46/67/65 
f 53/82/65 46/67/65 48/83/65 
f 47/70/66 16/16/67 15/15/67 
f 47/70/66 15/15/67 54/84/68 
f 41/49/56 47/70/66 54/84/68 
f 41/49/56 54/84/68 49/77/57 
f 17/85/69 44/86/69 52/87/69 
f 17/85/69 52/87/69 18/88/69 
f 44/86/69 17/85/69 21/89/69 
f 44/86/69 21/89/69 24/90/69 
# 88 faces

