# 3ds Max Wavefront OBJ Exporter v0.97b - (c)2007 guruware
# File Created: 21.02.2011 11:31:34

#
# object sponza_201
#

v  72.8213 64.0409 -10.3935
v  72.7957 63.9440 -10.4190
v  72.7957 63.9440 -6.4361
v  72.8213 64.0409 -6.4616
v  72.8352 63.9440 -6.3966
v  72.8607 64.0409 -6.4222
v  72.4458 63.4893 -6.0861
v  72.2781 63.3643 -5.9184
v  72.3176 63.3643 -5.8789
v  72.4853 63.4893 -6.0467
v  72.7505 63.7847 -6.3119
v  72.8045 63.8716 -6.3659
v  72.7651 63.8716 -6.4054
v  72.7110 63.7847 -6.3514
v  72.6245 63.6687 -6.2648
v  72.5458 63.5811 -6.1861
v  72.5853 63.5811 -6.1467
v  72.6639 63.6687 -6.2253
v  72.6245 63.6687 -10.5903
v  72.5458 63.5811 -10.6689
v  72.7651 63.8716 -10.4497
v  72.8352 63.9440 -10.4585
v  72.8607 64.0409 -10.4329
v  72.3176 63.3643 -10.9762
v  72.2781 63.3643 -10.9367
v  72.4458 63.4893 -10.7689
v  72.4853 63.4893 -10.8084
v  72.8045 63.8716 -10.4891
v  72.7505 63.7847 -10.5431
v  72.7110 63.7847 -10.5037
v  72.5853 63.5811 -10.7084
v  72.6639 63.6687 -10.6297
v  77.3349 63.3643 -10.9762
v  77.1671 63.4893 -10.8084
v  76.9019 63.7847 -10.5431
v  76.8479 63.8716 -10.4891
v  76.9885 63.6687 -10.6297
v  77.0671 63.5811 -10.7084
v  76.8173 63.9440 -10.4585
v  76.8312 64.0409 -10.3935
v  76.8567 63.9440 -10.4190
v  76.7917 64.0409 -10.4329
v  77.2066 63.4893 -10.7689
v  77.3743 63.3643 -10.9367
v  76.8874 63.8716 -10.4497
v  76.9414 63.7847 -10.5037
v  77.0280 63.6687 -10.5903
v  77.1066 63.5811 -10.6689
v  72.2781 63.2813 -5.9184
v  72.3176 63.2813 -5.8789
v  72.2781 63.2813 -10.9367
v  77.3349 63.2813 -10.9762
v  72.3176 63.2813 -10.9762
v  77.3743 63.2813 -10.9367
v  72.0792 63.2813 -5.7225
v  72.1217 63.2813 -5.6800
v  72.0792 63.2813 -11.1326
v  77.5307 63.2813 -11.1751
v  72.1217 63.2813 -11.1751
v  77.5732 63.2813 -11.1326
v  72.0792 62.9641 -5.7225
v  72.1217 62.9641 -5.6800
v  72.0792 62.9641 -11.1326
v  77.5307 62.9641 -11.1751
v  72.1217 62.9641 -11.1751
v  77.5732 62.9641 -11.1326
v  76.8312 64.0409 -6.4616
v  76.8567 63.9440 -6.4361
v  77.0280 63.6687 -6.2648
v  77.1066 63.5811 -6.1861
v  76.8874 63.8716 -6.4054
v  76.8173 63.9440 -6.3966
v  76.7917 64.0409 -6.4222
v  77.3349 63.3643 -5.8789
v  77.3743 63.3643 -5.9184
v  77.2066 63.4893 -6.0861
v  77.1671 63.4893 -6.0467
v  76.8479 63.8716 -6.3659
v  76.9019 63.7847 -6.3119
v  76.9414 63.7847 -6.3514
v  77.0671 63.5811 -6.1467
v  76.9885 63.6687 -6.2253
v  77.3743 63.2813 -5.9184
v  77.3349 63.2813 -5.8789
v  77.5732 63.2813 -5.7225
v  77.5307 63.2813 -5.6800
v  77.5732 62.9641 -5.7225
v  77.5307 62.9641 -5.6800
# 88 vertices

vn -0.8878 0.3211 -0.3298
vn -0.8483 0.4106 -0.3343
vn -0.8483 0.4106 0.3343
vn -0.8878 0.3211 0.3298
vn -0.3343 0.4106 0.8483
vn -0.3299 0.3211 0.8877
vn -0.5035 0.8445 0.1825
vn -0.4365 0.8737 0.2147
vn -0.2147 0.8737 0.4364
vn -0.1825 0.8445 0.5035
vn -0.2649 0.6653 0.6980
vn -0.2968 0.5643 0.7703
vn -0.7704 0.5643 0.2968
vn -0.6980 0.6653 0.2649
vn -0.6399 0.7303 0.2390
vn -0.5751 0.7903 0.2114
vn -0.2114 0.7904 0.5750
vn -0.2390 0.7304 0.6399
vn -0.6399 0.7303 -0.2390
vn -0.5750 0.7903 -0.2114
vn -0.7704 0.5643 -0.2968
vn -0.3343 0.4106 -0.8483
vn -0.3298 0.3212 -0.8877
vn -0.2147 0.8737 -0.4364
vn -0.4365 0.8737 -0.2147
vn -0.5035 0.8445 -0.1825
vn -0.1824 0.8445 -0.5035
vn -0.2968 0.5643 -0.7703
vn -0.2649 0.6653 -0.6980
vn -0.6980 0.6653 -0.2649
vn -0.2114 0.7904 -0.5750
vn -0.2390 0.7304 -0.6399
vn 0.2147 0.8737 -0.4364
vn 0.1824 0.8445 -0.5035
vn 0.2649 0.6653 -0.6980
vn 0.2968 0.5643 -0.7703
vn 0.2390 0.7304 -0.6399
vn 0.2114 0.7904 -0.5750
vn 0.3343 0.4106 -0.8483
vn 0.8878 0.3211 -0.3298
vn 0.8483 0.4106 -0.3343
vn 0.3298 0.3212 -0.8877
vn 0.5035 0.8445 -0.1825
vn 0.4365 0.8737 -0.2147
vn 0.7704 0.5643 -0.2968
vn 0.6980 0.6653 -0.2649
vn 0.6399 0.7304 -0.2390
vn 0.5751 0.7903 -0.2114
vn -0.9239 -0.0000 0.3827
vn -0.7071 -0.0000 0.7071
vn -0.7071 0.0000 0.7071
vn -0.9239 0.0000 -0.3827
vn 0.0000 0.0000 -1.0000
vn -0.7071 0.0000 -0.7071
vn 0.9239 0.0000 -0.3827
vn 0.7071 0.0000 -0.7071
vn 0.0000 1.0000 -0.0000
vn 0.0000 1.0000 0.0000
vn -0.0000 1.0000 0.0000
vn -0.9239 0.0000 0.3827
vn -1.0000 0.0000 -0.0000
vn -0.0000 0.0000 -1.0000
vn -0.3827 0.0000 -0.9239
vn 0.7072 0.0000 -0.7071
vn 0.8878 0.3211 0.3298
vn 0.8483 0.4106 0.3343
vn 0.6399 0.7303 0.2390
vn 0.5751 0.7903 0.2114
vn 0.7704 0.5643 0.2968
vn 0.3343 0.4106 0.8483
vn 0.3299 0.3211 0.8877
vn 0.2147 0.8737 0.4364
vn 0.4365 0.8737 0.2147
vn 0.5035 0.8445 0.1825
vn 0.1825 0.8445 0.5035
vn 0.2968 0.5643 0.7703
vn 0.2649 0.6653 0.6980
vn 0.6980 0.6653 0.2649
vn 0.2114 0.7904 0.5750
vn 0.2390 0.7304 0.6399
vn 0.9239 0.0000 0.3827
vn 0.0000 0.0000 1.0000
vn 0.3827 0.0000 0.9239
vn -0.0000 1.0000 -0.0000
vn 1.0000 0.0000 -0.0000
vn 0.7071 0.0000 0.7071
# 86 vertex normals

vt 0.2734 0.7237 0.0000
vt 0.2788 0.7224 0.0000
vt 0.2788 0.9490 0.0000
vt 0.2733 0.9476 0.0000
vt 0.2778 0.9519 0.0000
vt 0.2712 0.9499 0.0000
vt 0.3052 0.9689 0.0000
vt 0.3147 0.9785 0.0000
vt 0.3144 0.9807 0.0000
vt 0.3029 0.9712 0.0000
vt 0.2860 0.9566 0.0000
vt 0.2816 0.9534 0.0000
vt 0.2829 0.9508 0.0000
vt 0.2879 0.9539 0.0000
vt 0.2945 0.9588 0.0000
vt 0.2995 0.9633 0.0000
vt 0.2972 0.9656 0.0000
vt 0.2922 0.9615 0.0000
vt 0.2945 0.7126 0.0000
vt 0.2995 0.7081 0.0000
vt 0.2829 0.7206 0.0000
vt 0.2725 0.7161 0.0000
vt 0.2755 0.7168 0.0000
vt 0.2711 0.7216 0.0000
vt 0.3020 0.6802 0.0000
vt 0.3045 0.6818 0.0000
vt 0.2947 0.6920 0.0000
vt 0.2924 0.6897 0.0000
vt 0.2768 0.7135 0.0000
vt 0.2743 0.7119 0.0000
vt 0.2773 0.7070 0.0000
vt 0.2801 0.7089 0.0000
vt 0.2867 0.6954 0.0000
vt 0.2891 0.6976 0.0000
vt 0.2850 0.7026 0.0000
vt 0.2823 0.7004 0.0000
vt 0.0164 0.6802 0.0000
vt 0.0260 0.6897 0.0000
vt 0.0411 0.7070 0.0000
vt 0.0441 0.7119 0.0000
vt 0.0361 0.7004 0.0000
vt 0.0317 0.6953 0.0000
vt 0.0459 0.7161 0.0000
vt 0.0451 0.7238 0.0000
vt 0.0440 0.7173 0.0000
vt 0.0473 0.7216 0.0000
vt 0.0237 0.6920 0.0000
vt 0.0140 0.6812 0.0000
vt 0.0416 0.7135 0.0000
vt 0.0383 0.7089 0.0000
vt 0.0334 0.7026 0.0000
vt 0.0293 0.6976 0.0000
vt 0.3052 0.7024 0.0000
vt 0.3147 0.6929 0.0000
vt 0.2879 0.7175 0.0000
vt 0.3194 0.9785 0.0000
vt 0.3184 0.9812 0.0000
vt 0.3194 0.6929 0.0000
vt 0.0164 0.6754 0.0000
vt 0.3020 0.6754 0.0000
vt 0.3048 0.6767 0.0000
vt 0.0138 0.6766 0.0000
vt 0.3307 0.9896 0.0000
vt 0.3283 0.9921 0.0000
vt 0.3307 0.6817 0.0000
vt 0.0053 0.6641 0.0000
vt 0.3131 0.6641 0.0000
vt 0.3160 0.6653 0.0000
vt 0.0029 0.6653 0.0000
vt 0.3488 0.9896 0.0000
vt 0.3488 0.9921 0.0000
vt 0.3307 0.9921 0.0000
vt 0.3488 0.6817 0.0000
vt 0.0053 0.6461 0.0000
vt 0.3131 0.6461 0.0000
vt 0.3155 0.6461 0.0000
vt 0.0029 0.6461 0.0000
vt 0.0473 0.9498 0.0000
vt 0.0451 0.9476 0.0000
# 79 texture coords

g sponza_201
f 1/1/1 2/2/2 3/3/3 
f 1/1/1 3/3/3 4/4/4 
f 4/4/4 3/3/3 5/5/5 
f 4/4/4 5/5/5 6/6/6 
f 7/7/7 8/8/8 9/9/9 
f 7/7/7 9/9/9 10/10/10 
f 11/11/11 12/12/12 13/13/13 
f 11/11/11 13/13/13 14/14/14 
f 15/15/15 16/16/16 17/17/17 
f 15/15/15 17/17/17 18/18/18 
f 16/16/16 7/7/7 10/10/10 
f 16/16/16 10/10/10 17/17/17 
f 18/18/18 11/11/11 14/14/14 
f 18/18/18 14/14/14 15/15/15 
f 12/12/12 5/5/5 3/3/3 
f 12/12/12 3/3/3 13/13/13 
f 19/19/19 20/20/20 16/16/16 
f 19/19/19 16/16/16 15/15/15 
f 2/2/2 21/21/21 13/13/13 
f 2/2/2 13/13/13 3/3/3 
f 22/22/22 2/23/2 1/1/1 
f 22/22/22 1/1/1 23/24/23 
f 24/25/24 25/26/25 26/27/26 
f 24/25/24 26/27/26 27/28/27 
f 21/29/21 28/30/28 29/31/29 
f 21/29/21 29/31/29 30/32/30 
f 31/33/31 20/34/20 19/35/19 
f 31/33/31 19/35/19 32/36/32 
f 27/28/27 26/27/26 20/34/20 
f 27/28/27 20/34/20 31/33/31 
f 30/32/30 29/31/29 32/36/32 
f 30/32/30 32/36/32 19/35/19 
f 2/23/2 22/22/22 28/30/28 
f 2/23/2 28/30/28 21/29/21 
f 33/37/33 24/25/24 27/28/27 
f 33/37/33 27/28/27 34/38/34 
f 35/39/35 29/31/29 28/30/28 
f 35/39/35 28/30/28 36/40/36 
f 31/33/31 32/36/32 37/41/37 
f 31/33/31 37/41/37 38/42/38 
f 37/41/37 32/36/32 29/31/29 
f 37/41/37 29/31/29 35/39/35 
f 34/38/34 27/28/27 31/33/31 
f 34/38/34 31/33/31 38/42/38 
f 36/40/36 28/30/28 22/22/22 
f 36/40/36 22/22/22 39/43/39 
f 40/44/40 41/45/41 39/43/39 
f 40/44/40 39/43/39 42/46/42 
f 43/47/43 44/48/44 33/37/33 
f 43/47/43 33/37/33 34/38/34 
f 35/39/35 36/40/36 45/49/45 
f 35/39/35 45/49/45 46/50/46 
f 47/51/47 48/52/48 38/42/38 
f 47/51/47 38/42/38 37/41/37 
f 48/52/48 43/47/43 34/38/34 
f 48/52/48 34/38/34 38/42/38 
f 37/41/37 35/39/35 46/50/46 
f 37/41/37 46/50/46 47/51/47 
f 36/40/36 39/43/39 41/45/41 
f 36/40/36 41/45/41 45/49/45 
f 22/22/22 23/24/23 42/46/42 
f 22/22/22 42/46/42 39/43/39 
f 26/53/26 25/54/25 8/8/8 
f 26/53/26 8/8/8 7/7/7 
f 21/21/21 30/55/30 14/14/14 
f 21/21/21 14/14/14 13/13/13 
f 30/55/30 19/19/19 15/15/15 
f 30/55/30 15/15/15 14/14/14 
f 20/20/20 26/53/26 7/7/7 
f 20/20/20 7/7/7 16/16/16 
f 8/8/49 49/56/49 50/57/50 
f 8/8/49 50/57/50 9/9/51 
f 51/58/52 49/56/49 8/8/49 
f 51/58/52 8/8/49 25/54/52 
f 33/37/53 52/59/53 53/60/53 
f 33/37/53 53/60/53 24/25/53 
f 24/25/54 53/60/54 51/61/52 
f 24/25/54 51/61/52 25/26/52 
f 44/48/55 54/62/55 52/59/56 
f 44/48/55 52/59/56 33/37/56 
f 49/56/57 55/63/57 56/64/57 
f 49/56/57 56/64/57 50/57/57 
f 51/58/58 57/65/58 55/63/57 
f 51/58/58 55/63/57 49/56/57 
f 52/59/59 58/66/59 59/67/58 
f 52/59/59 59/67/58 53/60/58 
f 53/60/58 59/67/58 57/68/58 
f 53/60/58 57/68/58 51/61/58 
f 54/62/59 60/69/59 58/66/59 
f 54/62/59 58/66/59 52/59/59 
f 61/70/60 62/71/51 56/72/51 
f 61/70/60 56/72/51 55/63/60 
f 63/73/61 61/70/60 55/63/60 
f 63/73/61 55/63/60 57/65/61 
f 64/74/62 65/75/63 59/67/63 
f 64/74/62 59/67/63 58/66/62 
f 65/75/63 63/76/54 57/68/54 
f 65/75/63 57/68/54 59/67/63 
f 66/77/55 64/74/64 58/66/64 
f 66/77/55 58/66/64 60/69/55 
f 67/1/65 68/2/66 41/3/41 
f 67/1/65 41/3/41 40/4/40 
f 69/19/67 70/20/68 48/16/48 
f 69/19/67 48/16/48 47/15/47 
f 68/2/66 71/21/69 45/13/45 
f 68/2/66 45/13/45 41/3/41 
f 72/22/70 68/23/66 67/1/65 
f 72/22/70 67/1/65 73/24/71 
f 74/25/72 75/26/73 76/27/74 
f 74/25/72 76/27/74 77/28/75 
f 71/29/69 78/30/76 79/31/77 
f 71/29/69 79/31/77 80/32/78 
f 81/33/79 70/34/68 69/35/67 
f 81/33/79 69/35/67 82/36/80 
f 77/28/75 76/27/74 70/34/68 
f 77/28/75 70/34/68 81/33/79 
f 80/32/78 79/31/77 82/36/80 
f 80/32/78 82/36/80 69/35/67 
f 68/23/66 72/22/70 78/30/76 
f 68/23/66 78/30/76 71/29/69 
f 9/37/9 74/25/72 77/28/75 
f 9/37/9 77/28/75 10/38/10 
f 11/39/11 79/31/77 78/30/76 
f 11/39/11 78/30/76 12/40/12 
f 81/33/79 82/36/80 18/41/18 
f 81/33/79 18/41/18 17/42/17 
f 18/41/18 82/36/80 79/31/77 
f 18/41/18 79/31/77 11/39/11 
f 10/38/10 77/28/75 81/33/79 
f 10/38/10 81/33/79 17/42/17 
f 12/40/12 78/30/76 72/22/70 
f 12/40/12 72/22/70 5/43/5 
f 72/22/70 73/24/71 6/46/6 
f 72/22/70 6/46/6 5/43/5 
f 76/53/74 75/54/73 44/8/44 
f 76/53/74 44/8/44 43/7/43 
f 71/21/69 80/55/78 46/14/46 
f 71/21/69 46/14/46 45/13/45 
f 80/55/78 69/19/67 47/15/47 
f 80/55/78 47/15/47 46/14/46 
f 70/20/68 76/53/74 43/7/43 
f 70/20/68 43/7/43 48/16/48 
f 83/58/81 54/56/55 44/8/55 
f 83/58/81 44/8/55 75/54/81 
f 9/37/82 50/59/82 84/60/83 
f 9/37/82 84/60/83 74/25/83 
f 74/25/83 84/60/83 83/61/81 
f 74/25/83 83/61/81 75/26/81 
f 83/58/84 85/65/84 60/63/59 
f 83/58/84 60/63/59 54/56/59 
f 50/59/57 56/66/57 86/67/84 
f 50/59/57 86/67/84 84/60/84 
f 84/60/84 86/67/84 85/68/84 
f 84/60/84 85/68/84 83/61/84 
f 87/73/85 66/70/55 60/63/55 
f 87/73/85 60/63/55 85/65/85 
f 62/74/82 88/75/83 86/67/83 
f 62/74/82 86/67/83 56/66/82 
f 88/75/83 87/76/86 85/68/86 
f 88/75/83 85/68/86 86/67/83 
f 40/44/57 42/46/57 73/78/57 
f 40/44/57 73/78/57 67/79/57 
f 73/78/57 42/46/57 4/4/57 
f 73/78/57 4/4/57 6/6/57 
f 4/4/57 42/46/57 23/24/57 
f 4/4/57 23/24/57 1/1/57 
# 166 faces

