# 3ds Max Wavefront OBJ Exporter v0.97b - (c)2007 guruware
# File Created: 21.02.2011 11:31:05

#
# object sponza_06
#

v  -17.5808 34.4495 -10.8925
v  -20.8059 45.2265 -10.8925
v  -17.5808 61.8697 -10.8925
v  -26.7327 50.5476 -10.8925
v  -36.3943 52.9427 -10.8925
v  -36.3943 61.8697 -10.8925
v  -54.6981 34.4495 -10.8925
v  -54.6981 61.8697 -10.8925
v  -52.1704 45.1868 -10.8925
v  -45.5462 50.4440 -10.8925
v  19.0267 34.4495 -10.8925
v  15.8016 45.2265 -10.8925
v  19.0267 61.8697 -10.8925
v  9.8748 50.5476 -10.8925
v  0.7230 52.9427 -10.8925
v  0.7230 61.8697 -10.8925
v  -14.3612 45.1868 -10.8925
v  -8.4289 50.4440 -10.8925
v  56.3123 34.4495 -10.8925
v  56.3123 61.8697 -10.8925
v  59.5374 45.2265 -10.8925
v  65.4642 50.5476 -10.8925
v  74.6161 61.8697 -10.8925
v  74.6161 52.9427 -10.8925
v  94.0197 34.4495 -10.8925
v  89.7003 45.1868 -10.8925
v  94.0197 61.8697 -10.8925
v  83.7680 50.4440 -10.8925
v  22.9299 45.2265 -10.8925
v  28.8567 50.5476 -10.8925
v  38.0086 61.8697 -10.8925
v  38.0086 52.9427 -10.8925
v  53.0927 45.1868 -10.8925
v  47.1605 50.4440 -10.8925
v  -58.6052 45.2265 -10.8925
v  -64.1698 50.0944 -10.8925
v  -73.4268 52.9427 -10.8925
v  -73.4268 61.8697 -10.8925
v  -92.7672 34.4495 -10.8925
v  -92.7672 61.8697 -10.8925
v  -88.5110 45.1868 -10.8925
v  -82.5787 50.4440 -10.8925
v  -92.7672 43.7012 -16.9577
v  -92.7672 47.7706 -22.8230
v  -92.7672 50.4171 -28.6883
v  -92.7672 50.4772 -32.4399
v  -92.7672 61.8697 -32.4399
v  94.0197 43.7012 -16.9577
v  94.0197 47.7706 -22.8230
v  94.0197 50.4171 -28.6883
v  94.0197 61.8697 -32.4399
v  94.0197 50.4772 -32.4399
v  -17.5808 34.4495 -53.9873
v  -17.5808 61.8697 -53.9873
v  -20.8059 45.2265 -53.9873
v  -26.7327 50.5476 -53.9873
v  -36.3943 61.8697 -53.9873
v  -36.3943 52.9427 -53.9873
v  -54.6981 34.4495 -53.9873
v  -52.1704 45.1868 -53.9873
v  -54.6981 61.8697 -53.9873
v  -45.5462 50.4440 -53.9873
v  19.0267 34.4495 -53.9873
v  19.0267 61.8697 -53.9873
v  15.8016 45.2265 -53.9873
v  9.8748 50.5476 -53.9873
v  0.7230 61.8697 -53.9873
v  0.7230 52.9427 -53.9873
v  -14.3612 45.1868 -53.9873
v  -8.4289 50.4440 -53.9873
v  56.3123 34.4495 -53.9873
v  59.5374 45.2265 -53.9873
v  56.3123 61.8697 -53.9873
v  65.4642 50.5476 -53.9873
v  74.6161 52.9427 -53.9873
v  74.6161 61.8697 -53.9873
v  94.0197 34.4495 -53.9873
v  94.0197 61.8697 -53.9873
v  89.7003 45.1868 -53.9873
v  83.7680 50.4440 -53.9873
v  22.9299 45.2265 -53.9873
v  28.8567 50.5476 -53.9873
v  38.0086 52.9427 -53.9873
v  38.0086 61.8697 -53.9873
v  53.0927 45.1868 -53.9873
v  47.1605 50.4440 -53.9873
v  -58.6052 45.2265 -53.9873
v  -64.1698 50.0944 -53.9873
v  -73.4268 61.8697 -53.9873
v  -73.4268 52.9427 -53.9873
v  -92.7672 34.4495 -53.9873
v  -88.5110 45.1868 -53.9873
v  -92.7672 61.8697 -53.9873
v  -82.5787 50.4440 -53.9873
v  -92.7672 43.7012 -47.9221
v  -92.7672 47.7706 -42.0568
v  -92.7672 50.4171 -36.1914
v  94.0197 43.7012 -47.9221
v  94.0197 47.7706 -42.0568
v  94.0197 50.4171 -36.1914
# 100 vertices

vn 0.0000 0.0000 -1.0000
vn 1.0000 0.0000 -0.0000
vn -1.0000 0.0000 -0.0000
vn 0.0000 0.0000 1.0000
# 4 vertex normals

vt 5.1804 -0.5572 0.0000
vt 5.3397 -0.0248 0.0000
vt 5.1804 0.7972 0.0000
vt 5.6324 0.2380 0.0000
vt 6.1097 0.3563 0.0000
vt 6.1097 0.7972 0.0000
vt 7.0137 -0.5572 0.0000
vt 7.0137 0.7972 0.0000
vt 6.8889 -0.0268 0.0000
vt 6.5617 0.2329 0.0000
vt 3.3722 -0.5572 0.0000
vt 3.5315 -0.0248 0.0000
vt 3.3722 0.7972 0.0000
vt 3.8243 0.2380 0.0000
vt 4.2763 0.3563 0.0000
vt 4.2763 0.7972 0.0000
vt 5.0214 -0.0268 0.0000
vt 4.7284 0.2329 0.0000
vt 1.5306 -0.5572 0.0000
vt 1.5306 0.7972 0.0000
vt 1.3713 -0.0248 0.0000
vt 1.0785 0.2380 0.0000
vt 0.6265 0.7972 0.0000
vt 0.6265 0.3563 0.0000
vt -0.2776 -0.5572 0.0000
vt -0.1186 -0.0268 0.0000
vt -0.2721 0.7954 0.0000
vt 0.1745 0.2329 0.0000
vt 3.1794 -0.0248 0.0000
vt 2.8867 0.2380 0.0000
vt 2.4347 0.7972 0.0000
vt 2.4347 0.3563 0.0000
vt 1.6896 -0.0268 0.0000
vt 1.9826 0.2329 0.0000
vt 7.2067 -0.0248 0.0000
vt 7.4816 0.2156 0.0000
vt 7.9388 0.3563 0.0000
vt 7.9386 0.7972 0.0000
vt 8.8594 -0.5571 0.0000
vt 8.8564 0.7965 0.0000
vt 8.6832 -0.0270 0.0000
vt 8.3907 0.2328 0.0000
vt 9.1283 -0.1002 0.0000
vt 9.4180 0.1008 0.0000
vt 9.7077 0.2315 0.0000
vt 9.8931 0.2345 0.0000
vt 9.8931 0.7972 0.0000
vt 8.8288 -0.5572 0.0000
vt 8.8288 0.7972 0.0000
vt -0.2741 0.7950 0.0000
vt 8.8554 0.7966 0.0000
# 51 texture coords

g sponza_06
f 1/1/1 2/2/1 3/3/1 
f 4/4/1 5/5/1 6/6/1 
f 4/4/1 6/6/1 3/3/1 
f 2/2/1 4/4/1 3/3/1 
f 7/7/1 8/8/1 9/9/1 
f 10/10/1 8/8/1 6/6/1 
f 10/10/1 6/6/1 5/5/1 
f 9/9/1 8/8/1 10/10/1 
f 11/11/1 12/12/1 13/13/1 
f 14/14/1 15/15/1 16/16/1 
f 14/14/1 16/16/1 13/13/1 
f 12/12/1 14/14/1 13/13/1 
f 1/1/1 3/3/1 17/17/1 
f 18/18/1 3/3/1 16/16/1 
f 18/18/1 16/16/1 15/15/1 
f 17/17/1 3/3/1 18/18/1 
f 19/19/1 20/20/1 21/21/1 
f 22/22/1 20/20/1 23/23/1 
f 22/22/1 23/23/1 24/24/1 
f 21/21/1 20/20/1 22/22/1 
f 25/25/1 26/26/1 27/27/1 
f 28/28/1 24/24/1 23/23/1 
f 28/28/1 23/23/1 27/27/1 
f 26/26/1 28/28/1 27/27/1 
f 11/11/1 13/13/1 29/29/1 
f 30/30/1 13/13/1 31/31/1 
f 30/30/1 31/31/1 32/32/1 
f 29/29/1 13/13/1 30/30/1 
f 19/19/1 33/33/1 20/20/1 
f 34/34/1 32/32/1 31/31/1 
f 34/34/1 31/31/1 20/20/1 
f 33/33/1 34/34/1 20/20/1 
f 7/7/1 35/35/1 8/8/1 
f 36/36/1 37/37/1 38/38/1 
f 36/36/1 38/38/1 8/8/1 
f 35/35/1 36/36/1 8/8/1 
f 39/39/1 40/40/1 41/41/1 
f 42/42/1 40/40/1 38/38/1 
f 42/42/1 38/38/1 37/37/1 
f 41/41/1 40/40/1 42/42/1 
f 39/39/2 43/43/2 40/40/2 
f 44/44/2 45/45/2 40/40/2 
f 43/43/2 44/44/2 40/40/2 
f 45/45/2 46/46/2 47/47/2 
f 45/45/2 47/47/2 40/40/2 
f 25/48/3 27/49/3 48/43/3 
f 49/44/3 27/49/3 50/45/3 
f 48/43/3 27/49/3 49/44/3 
f 50/45/3 27/49/3 51/47/3 
f 50/45/3 51/47/3 52/46/3 
f 53/1/4 54/3/4 55/2/4 
f 56/4/4 54/3/4 57/6/4 
f 56/4/4 57/6/4 58/5/4 
f 55/2/4 54/3/4 56/4/4 
f 59/7/4 60/9/4 61/8/4 
f 62/10/4 58/5/4 57/6/4 
f 62/10/4 57/6/4 61/8/4 
f 60/9/4 62/10/4 61/8/4 
f 63/11/4 64/13/4 65/12/4 
f 66/14/4 64/13/4 67/16/4 
f 66/14/4 67/16/4 68/15/4 
f 65/12/4 64/13/4 66/14/4 
f 53/1/4 69/17/4 54/3/4 
f 70/18/4 68/15/4 67/16/4 
f 70/18/4 67/16/4 54/3/4 
f 69/17/4 70/18/4 54/3/4 
f 71/19/4 72/21/4 73/20/4 
f 74/22/4 75/24/4 76/23/4 
f 74/22/4 76/23/4 73/20/4 
f 72/21/4 74/22/4 73/20/4 
f 77/25/4 78/50/4 79/26/4 
f 80/28/4 78/50/4 76/23/4 
f 80/28/4 76/23/4 75/24/4 
f 79/26/4 78/50/4 80/28/4 
f 63/11/4 81/29/4 64/13/4 
f 82/30/4 83/32/4 84/31/4 
f 82/30/4 84/31/4 64/13/4 
f 81/29/4 82/30/4 64/13/4 
f 71/19/4 73/20/4 85/33/4 
f 86/34/4 73/20/4 84/31/4 
f 86/34/4 84/31/4 83/32/4 
f 85/33/4 73/20/4 86/34/4 
f 59/7/4 61/8/4 87/35/4 
f 88/36/4 61/8/4 89/38/4 
f 88/36/4 89/38/4 90/37/4 
f 87/35/4 61/8/4 88/36/4 
f 91/39/4 92/41/4 93/51/4 
f 94/42/4 90/37/4 89/38/4 
f 94/42/4 89/38/4 93/51/4 
f 92/41/4 94/42/4 93/51/4 
f 91/39/2 93/51/2 95/43/2 
f 96/44/2 93/51/2 97/45/2 
f 95/43/2 93/51/2 96/44/2 
f 97/45/2 93/51/2 47/47/2 
f 97/45/2 47/47/2 46/46/2 
f 77/48/3 98/43/3 78/49/3 
f 99/44/3 100/45/3 78/49/3 
f 98/43/3 99/44/3 78/49/3 
f 100/45/3 52/46/3 51/47/3 
f 100/45/3 51/47/3 78/49/3 
# 100 faces

