# 3ds Max Wavefront OBJ Exporter v0.97b - (c)2007 guruware
# File Created: 21.02.2011 11:31:26

#
# object sponza_145
#

v  77.7337 81.0199 -59.8239
v  77.7799 81.0199 -59.7776
v  77.7974 81.0199 -59.7354
v  71.9934 81.0199 -59.8414
v  77.7799 81.0199 -54.0057
v  77.7974 81.0199 -59.5982
v  77.7974 81.0199 -54.1631
v  77.7974 81.0199 -54.0479
v  77.6915 81.0199 -53.9420
v  77.7337 81.0199 -53.9595
v  71.9512 81.0199 -53.9595
v  77.5942 81.0199 -53.9420
v  72.1252 81.0199 -53.9420
v  71.9934 81.0199 -53.9420
v  71.8875 81.0199 -54.0479
v  71.9050 81.0199 -54.0057
v  71.9050 81.0199 -59.7776
v  71.8875 81.0199 -54.1651
v  71.8875 81.0199 -59.6598
v  71.8875 81.0199 -59.7354
v  71.9512 81.0199 -59.8239
v  72.0384 81.0199 -59.8414
v  77.5634 81.0199 -59.8414
v  77.6915 81.0199 -59.8414
v  77.7799 81.8674 -59.7776
v  77.7337 81.8674 -59.8239
v  77.6915 81.8674 -59.8414
v  77.7974 81.8674 -54.0479
v  71.9512 81.8674 -59.8239
v  77.5634 81.8674 -59.8414
v  72.0384 81.8674 -59.8414
v  71.9934 81.8674 -59.8414
v  71.8875 81.8674 -59.7354
v  71.9050 81.8674 -59.7776
v  71.9050 81.8674 -54.0057
v  71.8875 81.8674 -59.6598
v  71.8875 81.8674 -54.1651
v  71.8875 81.8674 -54.0479
v  71.9934 81.8674 -53.9420
v  71.9512 81.8674 -53.9595
v  77.7337 81.8674 -53.9595
v  72.1252 81.8674 -53.9420
v  77.5942 81.8674 -53.9420
v  77.6915 81.8674 -53.9420
v  77.7799 81.8674 -54.0057
v  77.7974 81.8674 -54.1631
v  77.7974 81.8674 -59.5982
v  77.7974 81.8674 -59.7354
v  77.5700 81.4439 -59.8761
v  77.6984 81.6403 -59.8761
v  77.6984 81.0546 -59.8761
v  77.5700 81.2475 -59.8761
v  71.8528 81.4439 -59.6665
v  71.8528 81.6403 -59.7423
v  71.8528 81.0546 -59.7423
v  71.8528 81.2475 -59.6665
v  71.8756 81.8327 -59.7973
v  71.9316 81.8327 -59.8533
v  71.9316 81.0546 -59.8533
v  71.8756 81.0546 -59.7973
v  77.8093 81.8327 -59.7973
v  77.8093 81.0546 -59.7973
v  77.7533 81.0546 -59.8533
v  77.7533 81.8327 -59.8533
v  71.9316 81.8327 -53.9301
v  71.8756 81.8327 -53.9861
v  71.8756 81.0546 -53.9861
v  71.9316 81.0546 -53.9301
v  71.9865 81.8327 -59.8761
v  71.9865 81.6403 -59.8761
v  71.9865 81.0546 -59.8761
v  77.6984 81.8327 -59.8761
v  71.8528 81.6403 -54.0410
v  71.8528 81.0546 -54.0410
v  71.8528 81.8327 -59.7423
v  77.8321 81.6403 -59.7423
v  77.8321 81.0546 -59.7423
v  77.8321 81.8327 -59.7423
v  71.9865 81.6403 -53.9073
v  71.9865 81.0546 -53.9073
v  71.8528 81.0546 -54.1585
v  72.0316 81.0546 -59.8761
v  77.5700 81.8327 -59.8761
v  71.8528 81.8327 -59.6665
v  71.9865 81.8327 -53.9073
v  71.8528 81.8327 -54.0410
v  72.1187 81.4439 -53.9073
v  72.1187 81.2475 -53.9073
v  77.8321 81.4439 -54.1565
v  77.8321 81.6403 -54.0410
v  77.8321 81.0546 -54.0410
v  77.8321 81.2475 -54.1565
v  77.8093 81.8327 -53.9861
v  77.7533 81.8327 -53.9301
v  77.7533 81.0546 -53.9301
v  77.8093 81.0546 -53.9861
v  77.6984 81.8327 -53.9073
v  77.6984 81.6403 -53.9073
v  77.6984 81.0546 -53.9073
v  77.8321 81.8327 -54.0410
v  77.8321 81.0546 -59.6048
v  77.6009 81.0546 -53.9073
v  72.1187 81.8327 -53.9073
v  77.8321 81.8327 -54.1565
v  72.0316 81.6403 -59.8761
v  71.8528 81.8327 -54.1585
v  71.8528 81.6403 -54.1585
v  77.6009 81.6403 -53.9073
v  77.8321 81.6403 -59.6048
v  77.5700 81.0546 -59.8761
v  77.5217 81.2475 -59.8761
v  72.0316 81.8327 -59.8761
v  77.5700 81.6403 -59.8761
v  72.0990 81.6403 -59.8761
v  72.0990 81.4439 -59.6048
v  72.0316 81.4439 -59.8761
v  72.0316 81.2475 -59.8761
v  71.8528 81.2475 -54.1585
v  71.8528 81.0546 -59.6665
v  71.8528 81.6403 -54.2109
v  72.0477 81.4439 -54.2109
v  71.8528 81.4439 -54.1585
v  71.8528 81.2475 -59.5940
v  71.8528 81.6403 -59.6665
v  77.6009 81.2475 -53.9073
v  72.1187 81.0546 -53.9073
v  77.6009 81.8327 -53.9073
v  77.5439 81.6403 -53.9073
v  77.5439 81.4439 -54.1056
v  77.6009 81.4439 -53.9073
v  72.1815 81.2475 -53.9073
v  72.1187 81.6403 -53.9073
v  77.8321 81.2475 -59.6048
v  77.8321 81.0546 -54.1565
v  77.8321 81.8327 -59.6048
v  77.8321 81.6403 -59.5393
v  77.5869 81.4439 -59.5393
v  77.8321 81.4439 -59.6048
v  77.8321 81.2475 -54.2069
v  77.8321 81.6403 -54.1565
v  77.5217 81.4439 -59.6048
v  72.0477 81.4439 -59.5940
v  72.1815 81.4439 -54.1056
v  77.5869 81.4439 -54.2069
v  77.8321 81.6403 -54.2069
v  77.8321 81.2475 -59.5393
v  72.1815 81.6403 -53.9073
v  77.5439 81.2475 -53.9073
v  71.8528 81.6403 -59.5940
v  71.8528 81.2475 -54.2109
v  77.5217 81.6403 -59.8761
v  72.0990 81.2475 -59.8761
# 152 vertices

vn 0.2318 -0.9088 -0.3469
vn 0.3469 -0.9088 -0.2318
vn 0.4092 -0.9088 -0.0814
vn -0.0814 -0.9088 -0.4092
vn 0.3469 -0.9088 0.2318
vn 0.3827 -0.9239 -0.0000
vn 0.4092 -0.9088 0.0814
vn 0.0814 -0.9088 0.4092
vn 0.2318 -0.9088 0.3469
vn -0.2318 -0.9088 0.3469
vn 0.0000 -0.9239 0.3827
vn -0.0814 -0.9088 0.4092
vn -0.4092 -0.9088 0.0814
vn -0.3469 -0.9088 0.2318
vn -0.3469 -0.9088 -0.2318
vn -0.3827 -0.9239 -0.0000
vn -0.4092 -0.9088 -0.0814
vn -0.2318 -0.9088 -0.3469
vn 0.0000 -0.9239 -0.3827
vn 0.0814 -0.9088 -0.4092
vn 0.3469 0.9088 -0.2318
vn 0.2318 0.9088 -0.3469
vn 0.0814 0.9088 -0.4092
vn 0.4092 0.9088 0.0814
vn -0.2318 0.9088 -0.3469
vn 0.0000 0.9239 -0.3827
vn -0.0814 0.9088 -0.4092
vn -0.4092 0.9088 -0.0814
vn -0.3469 0.9088 -0.2318
vn -0.3469 0.9088 0.2318
vn -0.3827 0.9239 -0.0000
vn -0.4092 0.9088 0.0814
vn -0.0814 0.9088 0.4092
vn -0.2318 0.9088 0.3469
vn 0.2318 0.9088 0.3469
vn 0.0000 0.9239 0.3827
vn 0.0814 0.9088 0.4092
vn 0.3469 0.9088 0.2318
vn 0.3827 0.9239 -0.0000
vn 0.4092 0.9088 -0.0814
vn 0.0000 0.0000 -1.0000
vn 0.1951 0.0000 -0.9808
vn 0.1812 -0.3710 -0.9108
vn -1.0000 0.0000 -0.0000
vn -0.9808 0.0000 -0.1951
vn -0.9108 -0.3710 -0.1812
vn -0.7721 0.3710 -0.5159
vn -0.5159 0.3710 -0.7721
vn -0.5159 -0.3710 -0.7721
vn -0.7721 -0.3710 -0.5159
vn 0.7721 0.3710 -0.5159
vn 0.7721 -0.3710 -0.5159
vn 0.5159 -0.3710 -0.7721
vn 0.5159 0.3710 -0.7721
vn -0.5159 0.3710 0.7721
vn -0.7721 0.3710 0.5159
vn -0.7721 -0.3710 0.5159
vn -0.5159 -0.3710 0.7721
vn -0.1812 0.3710 -0.9108
vn -0.1951 0.0000 -0.9808
vn -0.1812 -0.3710 -0.9108
vn 0.1812 0.3710 -0.9108
vn -0.9808 0.0000 0.1951
vn -0.9108 -0.3710 0.1812
vn -0.9108 0.3710 -0.1812
vn 0.9808 0.0000 -0.1951
vn 0.9108 -0.3710 -0.1811
vn 0.9108 0.3710 -0.1811
vn -0.1951 0.0000 0.9808
vn -0.1812 -0.3710 0.9108
vn -0.9239 -0.3827 -0.0000
vn 0.0000 -0.3827 -0.9239
vn 0.0000 0.3827 -0.9239
vn -0.9239 0.3827 -0.0000
vn -0.1812 0.3710 0.9108
vn -0.9108 0.3710 0.1812
vn 0.0000 0.0000 1.0000
vn 1.0000 0.0000 -0.0000
vn 0.9808 0.0000 0.1951
vn 0.9108 -0.3710 0.1811
vn 0.7721 0.3710 0.5159
vn 0.5159 0.3710 0.7721
vn 0.5159 -0.3710 0.7721
vn 0.7721 -0.3710 0.5159
vn 0.1812 0.3710 0.9108
vn 0.1951 0.0000 0.9808
vn 0.1812 -0.3710 0.9108
vn 0.9108 0.3710 0.1811
vn 0.9239 -0.3827 -0.0000
vn 0.0000 -0.3827 0.9239
vn 0.0000 0.3827 0.9239
vn 0.9239 0.3827 -0.0000
vn 0.5172 -0.1774 -0.8373
vn 0.9705 -0.0000 -0.2410
vn 0.8984 -0.0000 -0.4391
vn -0.9678 -0.2516 -0.0000
vn -0.8870 -0.1190 -0.4463
vn -0.2595 -0.0000 -0.9657
vn -0.4134 -0.0000 -0.9106
vn -0.9678 0.2516 -0.0000
vn -0.4494 -0.1304 0.8838
vn -0.9611 -0.0000 0.2762
vn -0.8974 -0.0000 0.4412
vn 0.8524 -0.1654 0.4961
vn 0.2580 -0.0000 0.9661
vn 0.4486 -0.0000 0.8937
vn -0.5213 0.1280 -0.8437
vn -0.9846 -0.0000 -0.1751
vn -0.9461 -0.0000 -0.3239
vn -0.8828 0.1627 0.4406
vn -0.3488 -0.0000 0.9372
vn -0.5437 -0.0000 0.8393
vn 0.4478 0.1434 0.8826
vn 0.9532 -0.0000 0.3023
vn 0.8773 -0.0000 0.4800
vn 0.8567 0.1282 -0.4996
vn 0.2014 -0.0000 -0.9795
vn 0.3548 -0.0000 -0.9349
vn 0.6252 -0.7805 -0.0000
vn 0.8524 0.1654 0.4961
vn 0.6252 0.7805 -0.0000
vn 0.8567 -0.1282 -0.4996
vn 0.0000 -0.7105 0.7037
vn -0.4494 0.1304 0.8838
vn 0.0000 0.7105 0.7037
vn 0.4478 -0.1434 0.8826
vn -1.0000 -0.0000 -0.0000
vn -0.8870 0.1190 -0.4462
vn -0.8828 -0.1627 0.4406
vn 0.0000 -0.8099 -0.5865
vn 0.5171 0.1774 -0.8373
vn 0.0000 0.8099 -0.5865
vn -0.5213 -0.1280 -0.8437
# 133 vertex normals

vt 0.9853 0.6631 0.0000
vt 0.9879 0.6656 0.0000
vt 0.9888 0.6679 0.0000
vt 0.6734 0.6622 0.0000
vt 0.9879 0.9792 0.0000
vt 0.9888 0.6754 0.0000
vt 0.9888 0.9706 0.0000
vt 0.9888 0.9769 0.0000
vt 0.9831 0.9826 0.0000
vt 0.9853 0.9817 0.0000
vt 0.6713 0.9817 0.0000
vt 0.9778 0.9826 0.0000
vt 0.6807 0.9826 0.0000
vt 0.6736 0.9826 0.0000
vt 0.6678 0.9769 0.0000
vt 0.6687 0.9792 0.0000
vt 0.6687 0.6656 0.0000
vt 0.6678 0.9705 0.0000
vt 0.6678 0.6720 0.0000
vt 0.6678 0.6679 0.0000
vt 0.6713 0.6631 0.0000
vt 0.6758 0.6622 0.0000
vt 0.9761 0.6621 0.0000
vt 0.9831 0.6621 0.0000
vt 0.5626 0.7873 0.0000
vt 0.5616 0.7884 0.0000
vt 0.5606 0.7888 0.0000
vt 0.5631 0.6536 0.0000
vt 0.4266 0.7884 0.0000
vt 0.5577 0.7888 0.0000
vt 0.4286 0.7888 0.0000
vt 0.4276 0.7888 0.0000
vt 0.4252 0.7863 0.0000
vt 0.4256 0.7873 0.0000
vt 0.4256 0.6526 0.0000
vt 0.4252 0.7845 0.0000
vt 0.4252 0.6563 0.0000
vt 0.4252 0.6536 0.0000
vt 0.4276 0.6511 0.0000
vt 0.4266 0.6515 0.0000
vt 0.5616 0.6515 0.0000
vt 0.4307 0.6511 0.0000
vt 0.5583 0.6511 0.0000
vt 0.5606 0.6511 0.0000
vt 0.5626 0.6526 0.0000
vt 0.5631 0.6563 0.0000
vt 0.5631 0.7831 0.0000
vt 0.5631 0.7863 0.0000
vt 0.0347 0.6166 0.0000
vt 0.0450 0.6233 0.0000
vt 0.0143 0.6233 0.0000
vt 0.0244 0.6166 0.0000
vt 0.0347 0.3112 0.0000
vt 0.0450 0.3152 0.0000
vt 0.0143 0.3152 0.0000
vt 0.0244 0.3112 0.0000
vt 0.0551 0.3181 0.0000
vt 0.0551 0.3210 0.0000
vt 0.0143 0.3210 0.0000
vt 0.0143 0.3181 0.0000
vt 0.0551 0.6291 0.0000
vt 0.0143 0.6291 0.0000
vt 0.0143 0.6262 0.0000
vt 0.0551 0.6262 0.0000
vt 0.0551 0.0105 0.0000
vt 0.0551 0.0134 0.0000
vt 0.0143 0.0134 0.0000
vt 0.0143 0.0105 0.0000
vt 0.0551 0.3239 0.0000
vt 0.0450 0.3239 0.0000
vt 0.0143 0.3239 0.0000
vt 0.0551 0.6233 0.0000
vt 0.0450 0.0163 0.0000
vt 0.0143 0.0163 0.0000
vt 0.0551 0.3152 0.0000
vt 0.0450 0.6320 0.0000
vt 0.0143 0.6320 0.0000
vt 0.0551 0.6320 0.0000
vt 0.0450 0.0076 0.0000
vt 0.0143 0.0076 0.0000
vt 0.0124 0.0165 0.0000
vt 0.0143 0.0224 0.0000
vt 0.0124 0.0226 0.0000
vt 0.0125 0.3241 0.0000
vt 0.0143 0.3262 0.0000
vt 0.0125 0.3264 0.0000
vt 0.0569 0.6231 0.0000
vt 0.0551 0.6166 0.0000
vt 0.0569 0.6164 0.0000
vt 0.0570 0.3151 0.0000
vt 0.0551 0.3112 0.0000
vt 0.0570 0.3112 0.0000
vt 0.0125 0.6292 0.0000
vt 0.0125 0.6262 0.0000
vt 0.0126 0.3210 0.0000
vt 0.0126 0.3180 0.0000
vt 0.0122 0.0134 0.0000
vt 0.0125 0.0104 0.0000
vt 0.0569 0.6262 0.0000
vt 0.0572 0.6292 0.0000
vt 0.0570 0.3180 0.0000
vt 0.0568 0.3210 0.0000
vt 0.0572 0.0104 0.0000
vt 0.0572 0.0134 0.0000
vt 0.0126 0.6230 0.0000
vt 0.0576 0.0079 0.0000
vt 0.0551 0.0076 0.0000
vt 0.0126 0.6317 0.0000
vt 0.0125 0.3152 0.0000
vt 0.0126 0.0079 0.0000
vt 0.0571 0.6317 0.0000
vt 0.0569 0.3241 0.0000
vt 0.0572 0.0163 0.0000
vt 0.0551 0.0163 0.0000
vt 0.0347 0.6164 0.0000
vt 0.0244 0.6164 0.0000
vt 0.0347 0.3091 0.0000
vt 0.0244 0.3091 0.0000
vt 0.0143 0.0235 0.0000
vt 0.0124 0.0237 0.0000
vt 0.0143 0.3290 0.0000
vt 0.0125 0.3292 0.0000
vt 0.0551 0.6164 0.0000
vt 0.0569 0.6162 0.0000
vt 0.0551 0.3091 0.0000
vt 0.0570 0.3091 0.0000
vt 0.0450 0.3262 0.0000
vt 0.0551 0.0224 0.0000
vt 0.0450 0.0224 0.0000
vt 0.0450 0.3290 0.0000
vt 0.0450 0.0235 0.0000
vt 0.0143 0.6166 0.0000
vt 0.0244 0.6141 0.0000
vt 0.0126 0.6163 0.0000
vt 0.0551 0.3262 0.0000
vt 0.0569 0.3265 0.0000
vt 0.0450 0.6166 0.0000
vt 0.0450 0.3298 0.0000
vt 0.0347 0.3298 0.0000
vt 0.0347 0.3262 0.0000
vt 0.0244 0.3262 0.0000
vt 0.0244 0.0224 0.0000
vt 0.0143 0.3112 0.0000
vt 0.0125 0.3112 0.0000
vt 0.0572 0.0225 0.0000
vt 0.0450 0.0252 0.0000
vt 0.0347 0.0252 0.0000
vt 0.0347 0.0224 0.0000
vt 0.0244 0.3074 0.0000
vt 0.0450 0.3112 0.0000
vt 0.0244 0.3290 0.0000
vt 0.0143 0.6164 0.0000
vt 0.0126 0.6161 0.0000
vt 0.0551 0.3290 0.0000
vt 0.0569 0.3292 0.0000
vt 0.0450 0.3320 0.0000
vt 0.0347 0.3320 0.0000
vt 0.0347 0.3290 0.0000
vt 0.0244 0.6131 0.0000
vt 0.0450 0.6164 0.0000
vt 0.0244 0.0235 0.0000
vt 0.0143 0.3091 0.0000
vt 0.0125 0.3091 0.0000
vt 0.0551 0.0235 0.0000
vt 0.0572 0.0235 0.0000
vt 0.0450 0.0269 0.0000
vt 0.0347 0.0269 0.0000
vt 0.0347 0.0235 0.0000
vt 0.0244 0.3065 0.0000
vt 0.0450 0.3091 0.0000
vt 0.0347 0.6141 0.0000
vt 0.0347 0.3074 0.0000
vt 0.0347 0.6131 0.0000
vt 0.0347 0.3065 0.0000
vt 0.0450 0.3065 0.0000
vt 0.0244 0.0269 0.0000
vt 0.0450 0.6131 0.0000
vt 0.0244 0.3320 0.0000
vt 0.0450 0.3074 0.0000
vt 0.0244 0.0252 0.0000
vt 0.0450 0.6141 0.0000
vt 0.0244 0.3298 0.0000
# 182 texture coords

g sponza_145
f 1/1/1 2/2/2 3/3/3 
f 1/1/1 3/3/3 4/4/4 
f 5/5/5 6/6/6 7/7/6 
f 5/5/5 7/7/6 8/8/7 
f 6/6/6 5/5/5 9/9/8 
f 6/6/6 9/9/8 3/3/3 
f 5/5/5 10/10/9 9/9/8 
f 11/11/10 12/12/11 13/13/11 
f 11/11/10 13/13/11 14/14/12 
f 12/12/11 11/11/10 15/15/13 
f 12/12/11 15/15/13 9/9/8 
f 11/11/10 16/16/14 15/15/13 
f 9/9/8 15/15/13 4/4/4 
f 9/9/8 4/4/4 3/3/3 
f 17/17/15 18/18/16 19/19/16 
f 17/17/15 19/19/16 20/20/17 
f 18/18/16 17/17/15 4/4/4 
f 18/18/16 4/4/4 15/15/13 
f 17/17/15 21/21/18 4/4/4 
f 22/22/19 23/23/19 1/1/1 
f 22/22/19 1/1/1 4/4/4 
f 24/24/20 1/1/1 23/23/19 
f 25/25/21 26/26/22 27/27/23 
f 25/25/21 27/27/23 28/28/24 
f 29/29/25 30/30/26 31/31/26 
f 29/29/25 31/31/26 32/32/27 
f 30/30/26 29/29/25 33/33/28 
f 30/30/26 33/33/28 27/27/23 
f 29/29/25 34/34/29 33/33/28 
f 35/35/30 36/36/31 37/37/31 
f 35/35/30 37/37/31 38/38/32 
f 36/36/31 35/35/30 39/39/33 
f 36/36/31 39/39/33 33/33/28 
f 35/35/30 40/40/34 39/39/33 
f 33/33/28 39/39/33 28/28/24 
f 33/33/28 28/28/24 27/27/23 
f 41/41/35 42/42/36 43/43/36 
f 41/41/35 43/43/36 44/44/37 
f 42/42/36 41/41/35 28/28/24 
f 42/42/36 28/28/24 39/39/33 
f 41/41/35 45/45/38 28/28/24 
f 46/46/39 47/47/39 25/25/21 
f 46/46/39 25/25/21 28/28/24 
f 48/48/40 25/25/21 47/47/39 
f 49/49/41 50/50/42 51/51/43 
f 49/49/41 51/51/43 52/52/41 
f 53/53/44 54/54/45 55/55/46 
f 53/53/44 55/55/46 56/56/44 
f 57/57/47 58/58/48 59/59/49 
f 57/57/47 59/59/49 60/60/50 
f 61/61/51 62/62/52 63/63/53 
f 61/61/51 63/63/53 64/64/54 
f 65/65/55 66/66/56 67/67/57 
f 65/65/55 67/67/57 68/68/58 
f 58/58/48 69/69/59 70/70/60 
f 58/58/48 70/70/60 59/59/49 
f 71/71/61 59/59/49 70/70/60 
f 63/63/53 51/51/43 50/50/42 
f 63/63/53 50/50/42 64/64/54 
f 72/72/62 64/64/54 50/50/42 
f 67/67/57 66/66/56 73/73/63 
f 67/67/57 73/73/63 74/74/64 
f 57/57/47 55/55/46 54/54/45 
f 57/57/47 54/54/45 75/75/65 
f 60/60/50 55/55/46 57/57/47 
f 76/76/66 77/77/67 61/61/51 
f 76/76/66 61/61/51 78/78/68 
f 61/61/51 77/77/67 62/62/52 
f 79/79/69 65/65/55 68/68/58 
f 79/79/69 68/68/58 80/80/70 
f 15/81/13 74/74/64 81/82/71 
f 15/81/13 81/82/71 18/83/16 
f 4/84/4 71/71/61 82/85/72 
f 4/84/4 82/85/72 22/86/19 
f 27/87/23 72/72/62 83/88/73 
f 27/87/23 83/88/73 30/89/26 
f 33/90/28 75/75/65 84/91/74 
f 33/90/28 84/91/74 36/92/31 
f 2/93/2 1/94/1 63/63/53 
f 2/93/2 63/63/53 62/62/52 
f 21/95/18 17/96/15 60/60/50 
f 21/95/18 60/60/50 59/59/49 
f 16/97/14 11/98/10 68/68/58 
f 16/97/14 68/68/58 67/67/57 
f 26/99/22 25/100/21 61/61/51 
f 26/99/22 61/61/51 64/64/54 
f 34/101/29 29/102/25 58/58/48 
f 34/101/29 58/58/48 57/57/47 
f 40/103/34 35/104/30 66/66/56 
f 40/103/34 66/66/56 65/65/55 
f 1/94/1 24/105/20 51/51/43 
f 1/94/1 51/51/43 63/63/53 
f 4/84/4 21/95/18 59/59/49 
f 4/84/4 59/59/49 71/71/61 
f 15/81/13 16/97/14 67/67/57 
f 15/81/13 67/67/57 74/74/64 
f 27/87/23 26/99/22 64/64/54 
f 27/87/23 64/64/54 72/72/62 
f 33/90/28 34/101/29 57/57/47 
f 33/90/28 57/57/47 75/75/65 
f 39/106/33 40/103/34 65/65/55 
f 39/106/33 65/65/55 85/107/75 
f 3/108/3 2/93/2 62/62/52 
f 3/108/3 62/62/52 77/77/67 
f 17/96/15 20/109/17 55/55/46 
f 17/96/15 55/55/46 60/60/50 
f 11/98/10 14/110/12 80/80/70 
f 11/98/10 80/80/70 68/68/58 
f 25/100/21 48/111/40 78/78/68 
f 25/100/21 78/78/68 61/61/51 
f 29/102/25 32/112/27 69/69/59 
f 29/102/25 69/69/59 58/58/48 
f 35/104/30 38/113/32 86/114/76 
f 35/104/30 86/114/76 66/66/56 
f 87/115/77 79/50/69 80/51/70 
f 87/115/77 80/51/70 88/116/77 
f 89/117/78 90/54/79 91/55/80 
f 89/117/78 91/55/80 92/118/78 
f 93/57/81 94/58/82 95/59/83 
f 93/57/81 95/59/83 96/60/84 
f 94/58/82 97/69/85 98/70/86 
f 94/58/82 98/70/86 95/59/83 
f 99/71/87 95/59/83 98/70/86 
f 93/57/81 91/55/80 90/54/79 
f 93/57/81 90/54/79 100/75/88 
f 96/60/84 91/55/80 93/57/81 
f 3/81/3 77/74/67 101/119/89 
f 3/81/3 101/119/89 6/120/6 
f 9/84/8 99/71/87 102/121/90 
f 9/84/8 102/121/90 12/122/11 
f 39/87/33 85/72/75 103/123/91 
f 39/87/33 103/123/91 42/124/36 
f 28/90/24 100/75/88 104/125/92 
f 28/90/24 104/125/92 46/126/39 
f 10/95/9 5/96/5 96/60/84 
f 10/95/9 96/60/84 95/59/83 
f 45/101/38 41/102/35 94/58/82 
f 45/101/38 94/58/82 93/57/81 
f 9/84/8 10/95/9 95/59/83 
f 9/84/8 95/59/83 99/71/87 
f 28/90/24 45/101/38 93/57/81 
f 28/90/24 93/57/81 100/75/88 
f 5/96/5 8/109/7 91/55/80 
f 5/96/5 91/55/80 96/60/84 
f 41/102/35 44/112/37 97/69/85 
f 41/102/35 97/69/85 94/58/82 
f 70/70/60 69/69/59 105/127/41 
f 106/128/74 107/129/44 73/73/63 
f 106/128/74 73/73/63 86/114/76 
f 98/70/86 97/69/85 108/130/77 
f 76/73/66 78/114/68 109/131/78 
f 110/132/72 111/133/41 52/52/41 
f 110/132/72 51/51/43 24/105/20 
f 110/132/72 24/105/20 23/134/19 
f 112/135/73 31/136/26 30/89/26 
f 112/135/73 30/89/26 83/88/73 
f 83/88/73 72/72/62 113/137/41 
f 113/137/41 50/50/42 49/49/41 
f 110/132/72 23/134/19 22/86/19 
f 110/132/72 22/86/19 82/85/72 
f 112/135/73 114/138/41 105/127/41 
f 114/138/93 115/139/94 116/140/95 
f 114/138/93 116/140/95 105/127/41 
f 82/85/72 71/71/61 117/141/41 
f 112/135/73 69/69/59 32/112/27 
f 112/135/73 32/112/27 31/136/26 
f 81/82/71 74/74/64 118/142/44 
f 119/143/71 19/144/16 18/83/16 
f 119/143/71 18/83/16 81/82/71 
f 106/128/74 86/114/76 38/113/32 
f 106/128/74 38/113/32 37/145/31 
f 106/128/74 120/146/96 107/129/44 
f 120/146/97 121/147/98 122/148/99 
f 120/146/97 122/148/99 107/129/44 
f 119/143/71 123/149/100 56/56/44 
f 106/128/74 37/145/31 36/92/31 
f 106/128/74 36/92/31 84/91/74 
f 119/143/71 55/55/46 20/109/17 
f 119/143/71 20/109/17 19/144/16 
f 84/91/74 75/75/65 124/150/44 
f 124/150/44 54/54/45 53/53/44 
f 102/121/90 99/71/87 125/151/77 
f 126/152/90 13/153/11 12/122/11 
f 126/152/90 12/122/11 102/121/90 
f 127/154/91 97/69/85 44/112/37 
f 127/154/91 44/112/37 43/155/36 
f 127/154/91 128/156/77 108/130/77 
f 128/156/101 129/157/102 130/158/103 
f 128/156/101 130/158/103 108/130/77 
f 126/152/90 131/159/77 88/116/77 
f 127/154/91 43/155/36 42/124/36 
f 127/154/91 42/124/36 103/123/91 
f 126/152/90 80/51/70 14/105/12 
f 126/152/90 14/105/12 13/153/11 
f 79/50/69 132/160/77 103/123/91 
f 79/50/69 103/123/91 85/72/75 
f 132/160/77 79/50/69 87/115/77 
f 101/119/89 77/74/67 133/161/78 
f 134/162/89 7/163/6 6/120/6 
f 134/162/89 6/120/6 101/119/89 
f 135/164/92 78/114/68 48/113/40 
f 135/164/92 48/113/40 47/165/39 
f 135/164/92 136/166/78 109/131/78 
f 136/166/104 137/167/105 138/168/106 
f 136/166/104 138/168/106 109/131/78 
f 134/162/89 139/169/78 92/118/78 
f 135/164/92 47/165/39 46/126/39 
f 135/164/92 46/126/39 104/125/92 
f 134/162/89 91/55/80 8/109/7 
f 134/162/89 8/109/7 7/163/6 
f 104/125/92 100/75/88 140/170/78 
f 140/170/78 90/54/79 89/117/78 
f 111/133/107 141/171/108 49/49/109 
f 111/133/107 49/49/109 52/52/41 
f 123/149/110 142/172/111 53/53/112 
f 123/149/110 53/53/112 56/56/44 
f 131/159/113 143/173/114 87/115/115 
f 131/159/113 87/115/115 88/116/77 
f 139/169/116 144/174/117 89/117/118 
f 139/169/116 89/117/118 92/118/78 
f 144/174/119 137/167/119 136/166/119 
f 144/174/119 136/166/119 145/175/119 
f 138/168/106 137/167/105 146/176/120 
f 138/168/106 146/176/120 133/161/78 
f 137/167/121 144/174/121 139/169/121 
f 137/167/121 139/169/121 146/176/121 
f 89/117/118 144/174/117 145/175/122 
f 89/117/118 145/175/122 140/170/78 
f 143/173/123 129/157/123 128/156/123 
f 143/173/123 128/156/123 147/177/123 
f 130/158/103 129/157/102 148/178/124 
f 130/158/103 148/178/124 125/151/77 
f 129/157/125 143/173/125 131/159/125 
f 129/157/125 131/159/125 148/178/125 
f 87/115/115 143/173/114 147/177/126 
f 87/115/115 147/177/126 132/160/77 
f 142/172/127 121/147/127 120/146/96 
f 142/172/127 120/146/96 149/179/96 
f 122/148/99 121/147/98 150/180/128 
f 122/148/99 150/180/128 118/142/44 
f 121/147/127 142/172/127 123/149/100 
f 121/147/127 123/149/100 150/180/100 
f 53/53/112 142/172/111 149/179/129 
f 53/53/112 149/179/129 124/150/44 
f 141/171/130 115/139/130 114/138/130 
f 141/171/130 114/138/130 151/181/130 
f 116/140/95 115/139/94 152/182/131 
f 116/140/95 152/182/131 117/141/41 
f 115/139/132 141/171/132 111/133/132 
f 115/139/132 111/133/132 152/182/132 
f 49/49/109 141/171/108 151/181/133 
f 49/49/109 151/181/133 113/137/41 
f 70/70/60 105/127/41 116/140/41 
f 84/91/74 124/150/44 149/179/96 
f 150/180/100 123/149/100 119/143/71 
f 150/180/100 119/143/71 81/82/71 
f 151/181/41 114/138/41 112/135/73 
f 151/181/41 112/135/73 83/88/73 
f 82/85/72 117/141/41 152/182/41 
f 149/179/96 120/146/96 106/128/74 
f 149/179/96 106/128/74 84/91/74 
f 81/82/71 118/142/44 150/180/100 
f 73/73/63 107/129/44 122/148/44 
f 148/178/77 131/159/77 126/152/90 
f 148/178/77 126/152/90 102/121/90 
f 103/123/91 132/160/77 147/177/77 
f 147/177/77 128/156/77 127/154/91 
f 147/177/77 127/154/91 103/123/91 
f 98/70/86 108/130/77 130/158/77 
f 146/176/78 139/169/78 134/162/89 
f 146/176/78 134/162/89 101/119/89 
f 104/125/92 140/170/78 145/175/78 
f 102/121/90 125/151/77 148/178/77 
f 76/73/66 109/131/78 138/168/78 
f 83/88/73 113/137/41 151/181/41 
f 152/182/41 111/133/41 110/132/72 
f 152/182/41 110/132/72 82/85/72 
f 101/119/89 133/161/78 146/176/78 
f 145/175/78 136/166/78 135/164/92 
f 145/175/78 135/164/92 104/125/92 
f 55/55/46 119/143/71 56/56/44 
f 75/75/65 54/54/45 124/150/44 
f 69/69/59 112/135/73 105/127/41 
f 116/140/41 117/141/41 71/71/61 
f 116/140/41 71/71/61 70/70/60 
f 66/66/56 86/114/76 73/73/63 
f 79/79/69 85/107/75 65/65/55 
f 80/51/70 126/152/90 88/116/77 
f 122/148/44 118/142/44 74/74/64 
f 122/148/44 74/74/64 73/73/63 
f 100/75/88 90/54/79 140/170/78 
f 130/158/77 125/151/77 99/71/87 
f 130/158/77 99/71/87 98/70/86 
f 91/55/80 134/162/89 92/118/78 
f 97/69/85 127/154/91 108/130/77 
f 78/114/68 135/164/92 109/131/78 
f 72/72/62 50/50/42 113/137/41 
f 51/51/43 110/132/72 52/52/41 
f 138/168/78 133/161/78 77/74/67 
f 138/168/78 77/74/67 76/73/66 
# 300 faces

