# 3ds Max Wavefront OBJ Exporter v0.97b - (c)2007 guruware
# File Created: 21.02.2011 11:31:05

#
# object sponza_05
#

v  98.5646 53.6919 -59.9190
v  98.5646 61.7060 -59.9190
v  98.5647 61.7060 -5.0376
v  98.5647 53.6919 -5.0376
v  -97.4895 53.6919 -59.9190
v  -97.4895 61.7060 -59.9190
v  -97.4895 53.6919 -5.0376
v  -97.4895 61.7060 -5.0376
# 8 vertices

vn 1.0000 0.0000 -0.0000
vn 0.0000 0.0000 -1.0000
vn -1.0000 0.0000 -0.0000
vn 0.0000 0.0000 1.0000
# 4 vertex normals

vt 16.4555 0.3608 0.0000
vt 16.4555 0.6819 0.0000
vt 18.6031 0.6819 0.0000
vt 18.6031 0.3608 0.0000
vt 8.6439 0.3609 0.0000
vt 8.6439 0.6819 0.0000
vt 6.4963 0.3609 0.0000
vt 6.4963 0.6819 0.0000
vt -1.3153 0.3609 0.0000
vt -1.3153 0.6819 0.0000
# 10 texture coords

g sponza_05
f 1/1/1 2/2/1 3/3/1 
f 1/1/1 3/3/1 4/4/1 
f 5/5/2 6/6/2 2/2/2 
f 5/5/2 2/2/2 1/1/2 
f 5/5/3 7/7/3 8/8/3 
f 5/5/3 8/8/3 6/6/3 
f 7/7/4 4/9/4 3/10/4 
f 7/7/4 3/10/4 8/8/4 
# 8 faces

