# 3ds Max Wavefront OBJ Exporter v0.97b - (c)2007 guruware
# File Created: 21.02.2011 11:31:26

#
# object sponza_142
#

v  75.1838 78.8989 -59.1493
v  75.1838 78.9767 -59.3427
v  75.1838 78.9767 -58.8442
v  75.1838 78.8989 -59.0170
v  75.1838 79.5382 -58.6066
v  75.1838 79.3602 -58.5026
v  75.1838 79.3602 -59.4989
v  75.1838 79.5382 -59.4562
v  75.1838 79.7163 -58.8008
v  75.1838 79.7163 -59.3032
v  75.1838 79.1292 -58.7471
v  75.1838 79.1590 -59.4705
v  75.1838 78.5729 -58.0845
v  75.1838 78.4132 -58.3708
v  74.4962 79.3602 -59.4989
v  74.4962 79.5382 -59.4562
v  74.4962 79.7163 -59.3032
v  74.4962 79.1292 -58.7471
v  74.4962 78.9767 -58.8442
v  74.4962 78.9767 -59.3427
v  74.4962 79.1590 -59.4705
v  74.4962 78.4132 -58.3708
v  74.4962 78.5729 -58.0845
v  74.4962 78.8989 -59.1493
v  74.4962 78.8989 -59.0170
v  74.4962 79.3602 -58.5026
v  74.4962 79.5382 -58.6066
v  74.4962 79.7163 -58.8008
# 28 vertices

vn 1.0000 0.0000 -0.0000
vn 0.0000 0.0474 -0.9989
vn 0.0000 0.4552 -0.8904
vn 0.0000 0.6519 -0.7583
vn 0.0000 0.6518 -0.7583
vn 0.0000 -0.5369 0.8437
vn 0.0000 -0.7561 0.6545
vn 0.0000 -0.7832 -0.6217
vn 0.0000 -0.3670 -0.9302
vn 0.0000 -0.4652 -0.8852
vn 0.0000 -0.8733 0.4871
vn -1.0000 0.0000 -0.0000
vn 0.0000 -0.9777 0.2099
vn 0.0000 -0.9818 -0.1900
# 14 vertex normals

vt 0.1992 0.5029 0.0000
vt 0.2019 0.5199 0.0000
vt 0.1809 0.4846 0.0000
vt 0.1937 0.4935 0.0000
vt 0.1311 0.4913 0.0000
vt 0.1394 0.4765 0.0000
vt 0.1813 0.5471 0.0000
vt 0.1669 0.5515 0.0000
vt 0.1267 0.5126 0.0000
vt 0.1478 0.5482 0.0000
vt 0.1660 0.4841 0.0000
vt 0.1943 0.5366 0.0000
vt 0.1776 0.4138 0.0000
vt 0.2009 0.4273 0.0000
vt 0.0645 0.2791 0.0000
vt 0.0646 0.2653 0.0000
vt 0.1179 0.2654 0.0000
vt 0.1179 0.2792 0.0000
vt 0.0646 0.2515 0.0000
vt 0.1180 0.2515 0.0000
vt 0.1178 0.3595 0.0000
vt 0.0645 0.3594 0.0000
vt 0.0645 0.3476 0.0000
vt 0.1178 0.3476 0.0000
vt 0.0645 0.3089 0.0000
vt 0.0645 0.2947 0.0000
vt 0.1179 0.2948 0.0000
vt 0.1179 0.3089 0.0000
vt 0.0644 0.4150 0.0000
vt 0.1178 0.4150 0.0000
vt 0.0644 0.4372 0.0000
vt 0.1177 0.4373 0.0000
vt 0.1564 0.5656 0.0000
vt 0.1671 0.5640 0.0000
vt 0.1821 0.5684 0.0000
vt 0.1415 0.5741 0.0000
vt 0.1331 0.6072 0.0000
vt 0.2144 0.5958 0.0000
vt 0.2079 0.6115 0.0000
vt 0.1386 0.6212 0.0000
vt 0.1941 0.6282 0.0000
vt 0.1531 0.6340 0.0000
vt 0.1918 0.5797 0.0000
vt 0.1331 0.5904 0.0000
vt 0.2143 0.5170 0.0000
vt 0.2395 0.5268 0.0000
vt 0.1179 0.3342 0.0000
vt 0.0645 0.3342 0.0000
vt 0.0645 0.3239 0.0000
vt 0.1179 0.3240 0.0000
# 50 texture coords

g sponza_142
f 1/1/1 2/2/1 3/3/1 
f 1/1/1 3/3/1 4/4/1 
f 5/5/1 6/6/1 7/7/1 
f 5/5/1 7/7/1 8/8/1 
f 9/9/1 5/5/1 8/8/1 
f 9/9/1 8/8/1 10/10/1 
f 7/7/1 6/6/1 11/11/1 
f 7/7/1 11/11/1 12/12/1 
f 2/2/1 12/12/1 11/11/1 
f 2/2/1 11/11/1 3/3/1 
f 11/11/1 6/6/1 13/13/1 
f 11/11/1 13/13/1 14/14/1 
f 15/15/2 16/16/3 8/17/3 
f 15/15/2 8/17/3 7/18/2 
f 8/17/3 16/16/3 17/19/4 
f 8/17/3 17/19/4 10/20/5 
f 11/21/6 18/22/6 19/23/7 
f 11/21/6 19/23/7 3/24/7 
f 20/25/8 21/26/9 12/27/9 
f 20/25/8 12/27/9 2/28/8 
f 22/29/10 18/22/10 11/21/10 
f 22/29/10 11/21/10 14/30/10 
f 23/31/11 22/29/11 14/30/11 
f 23/31/11 14/30/11 13/32/11 
f 24/33/12 25/34/12 19/35/12 
f 24/33/12 19/35/12 20/36/12 
f 15/37/12 26/38/12 27/39/12 
f 15/37/12 27/39/12 16/40/12 
f 16/40/12 27/39/12 28/41/12 
f 16/40/12 28/41/12 17/42/12 
f 18/43/12 26/38/12 15/37/12 
f 18/43/12 15/37/12 21/44/12 
f 20/36/12 19/35/12 18/43/12 
f 20/36/12 18/43/12 21/44/12 
f 18/43/12 22/45/12 23/46/12 
f 18/43/12 23/46/12 26/38/12 
f 4/47/13 25/48/13 24/49/14 
f 4/47/13 24/49/14 1/50/14 
f 1/50/14 24/49/14 20/25/8 
f 1/50/14 20/25/8 2/28/8 
f 12/27/9 21/26/9 15/15/2 
f 12/27/9 15/15/2 7/18/2 
f 3/24/7 19/23/7 25/48/13 
f 3/24/7 25/48/13 4/47/13 
# 44 faces

