# 3ds Max Wavefront OBJ Exporter v0.97b - (c)2007 guruware
# File Created: 21.02.2011 11:31:09

#
# object sponza_29
#

v  -58.1908 81.8330 -53.1986
v  -51.3054 81.8330 -53.1986
v  -51.2241 81.8330 -53.2799
v  -58.2721 81.8330 -60.1644
v  -51.2241 81.8330 -60.1644
v  -51.3054 81.8330 -60.2457
v  -58.1908 81.8330 -60.2457
v  -58.2721 81.8330 -53.2799
v  -52.0211 64.3350 -53.9284
v  -52.0286 78.3371 -53.9284
v  -57.4677 78.3371 -53.9284
v  -57.4751 64.3350 -53.9284
v  -51.9540 64.3350 -59.4488
v  -51.9540 78.3371 -59.4413
v  -51.9540 78.3371 -54.0030
v  -51.9540 64.3350 -53.9956
v  -57.4751 64.3350 -59.5159
v  -57.4677 78.3371 -59.5159
v  -52.0286 78.3371 -59.5159
v  -52.0211 64.3350 -59.5159
v  -57.5423 64.3350 -53.9956
v  -57.5423 78.3371 -54.0030
v  -57.5423 78.3371 -59.4413
v  -57.5423 64.3350 -59.4488
v  -51.8880 79.3704 -53.7939
v  -57.6082 79.3704 -53.7939
v  -57.5260 78.7239 -53.8715
v  -51.9702 78.7239 -53.8715
v  -51.8194 79.3704 -59.5819
v  -51.8194 79.3704 -53.8625
v  -51.8970 78.7239 -53.9447
v  -51.8970 78.7239 -59.4997
v  -57.6082 79.3704 -59.6505
v  -51.8880 79.3704 -59.6505
v  -51.9702 78.7239 -59.5729
v  -57.5260 78.7239 -59.5729
v  -57.6768 79.3704 -53.8625
v  -57.6768 79.3704 -59.5819
v  -57.5992 78.7239 -59.4997
v  -57.5992 78.7239 -53.9447
v  -51.2941 80.9604 -53.1986
v  -51.2976 81.3967 -53.1986
v  -58.1986 81.3967 -53.1986
v  -58.2021 80.9604 -53.1986
v  -51.2241 80.9604 -60.1757
v  -51.2241 81.3967 -60.1722
v  -51.2241 81.3967 -53.2722
v  -51.2241 80.9604 -53.2686
v  -58.2021 80.9604 -60.2457
v  -58.1986 81.3967 -60.2457
v  -51.2976 81.3967 -60.2457
v  -51.2941 80.9604 -60.2457
v  -58.2721 80.9604 -53.2686
v  -58.2721 81.3967 -53.2722
v  -58.2721 81.3967 -60.1722
v  -58.2721 80.9604 -60.1757
v  -51.8162 78.5305 -53.7088
v  -57.6801 78.5305 -53.7088
v  -51.7343 78.5305 -59.6537
v  -51.7343 78.5305 -53.7906
v  -57.6801 78.5305 -59.7355
v  -51.8162 78.5305 -59.7355
v  -57.7619 78.5305 -53.7906
v  -57.7619 78.5305 -59.6537
v  -51.1008 81.6149 -52.9941
v  -58.3954 81.6149 -52.9941
v  -51.0195 81.6149 -60.3689
v  -51.0195 81.6149 -53.0754
v  -58.3954 81.6149 -60.4503
v  -51.1008 81.6149 -60.4503
v  -58.4767 81.6149 -53.0754
v  -58.4767 81.6149 -60.3689
v  -57.8683 80.2703 -53.5310
v  -51.6279 80.2703 -53.5310
v  -51.5565 80.2703 -53.6024
v  -51.5565 80.2703 -59.8419
v  -51.6279 80.2703 -59.9133
v  -57.8683 80.2703 -59.9133
v  -57.9397 80.2703 -59.8419
v  -57.9397 80.2703 -53.6024
v  -57.6038 64.1772 -59.5089
v  -58.2977 63.4848 -60.1860
v  -58.2977 63.4848 -53.2584
v  -57.6038 64.1772 -53.9354
v  -57.5353 64.1772 -59.5775
v  -58.2124 63.4848 -60.2713
v  -51.9610 64.1772 -59.5775
v  -51.2838 63.4848 -60.2713
v  -51.8924 64.1772 -59.5089
v  -51.1985 63.4848 -60.1860
v  -51.8924 64.1772 -53.9354
v  -51.1985 63.4848 -53.2584
v  -51.9610 64.1772 -53.8669
v  -51.2838 63.4848 -53.1731
v  -57.5353 64.1772 -53.8669
v  -58.2124 63.4848 -53.1731
v  -58.4434 63.4848 -60.2463
v  -58.4434 63.2498 -60.2463
v  -58.4434 63.2498 -53.1980
v  -58.4434 63.4848 -53.1980
v  -58.2728 63.4848 -60.4169
v  -58.2728 63.2498 -60.4169
v  -51.2235 63.4848 -60.4169
v  -51.2235 63.2498 -60.4169
v  -51.0529 63.4848 -60.2463
v  -51.0529 63.2498 -60.2463
v  -51.0529 63.4848 -53.1980
v  -51.0529 63.2498 -53.1980
v  -51.2235 63.4848 -53.0274
v  -51.2235 63.2498 -53.0274
v  -58.2728 63.4848 -53.0274
v  -58.2728 63.2498 -53.0274
v  -57.6550 64.2561 -53.8855
v  -57.6550 64.2561 -59.5588
v  -57.5852 64.2561 -59.6287
v  -51.9110 64.2561 -59.6287
v  -51.8412 64.2561 -59.5588
v  -51.8412 64.2561 -53.8855
v  -51.9110 64.2561 -53.8157
v  -57.5852 64.2561 -53.8157
v  -58.2977 63.0147 -60.1860
v  -58.2977 63.0147 -53.2584
v  -58.2977 63.2498 -53.2584
v  -58.2977 63.2498 -60.1860
v  -58.2124 63.0147 -60.2713
v  -58.2124 63.2498 -60.2713
v  -51.2838 63.0147 -60.2713
v  -51.2838 63.2498 -60.2713
v  -51.1985 63.0147 -60.1860
v  -51.1985 63.2498 -60.1860
v  -51.1985 63.0147 -53.2584
v  -51.1985 63.2498 -53.2584
v  -51.2838 63.0147 -53.1731
v  -51.2838 63.2498 -53.1731
v  -58.2124 63.0147 -53.1731
v  -58.2124 63.2498 -53.1731
# 136 vertices

vn 0.0000 1.0000 -0.0000
vn 0.0000 0.0000 1.0000
vn 1.0000 0.0000 -0.0000
vn 0.0000 0.0000 -1.0000
vn -1.0000 0.0000 -0.0000
vn 0.0000 -0.2102 0.9777
vn 0.0000 -0.1192 0.9929
vn 0.9777 -0.2102 -0.0000
vn 0.9929 -0.1192 -0.0000
vn 0.0000 -0.2102 -0.9777
vn 0.0000 -0.1192 -0.9929
vn -0.9776 -0.2102 -0.0000
vn -0.9929 -0.1192 -0.0000
vn 0.0000 -0.7504 0.6610
vn 0.6609 -0.7504 -0.0000
vn 0.0000 -0.7504 -0.6610
vn -0.6609 -0.7504 -0.0000
vn 0.0000 0.6436 0.7654
vn 0.7653 0.6436 -0.0000
vn 0.0000 0.6436 -0.7654
vn -0.7653 0.6437 -0.0000
vn 0.0000 -0.6840 0.7295
vn 0.7295 -0.6840 -0.0000
vn 0.0000 -0.6840 -0.7295
vn -0.7294 -0.6841 -0.0000
vn 0.0000 0.6840 0.7295
vn 0.7295 0.6840 -0.0000
vn 0.0000 0.6840 -0.7295
vn -0.7294 0.6841 -0.0000
vn 0.0000 -0.4339 0.9009
vn 0.0000 -0.3743 0.9273
vn 0.9009 -0.4340 -0.0000
vn 0.9273 -0.3744 -0.0000
vn 0.0000 -0.4339 -0.9009
vn 0.0000 -0.3743 -0.9273
vn -0.9009 -0.4340 -0.0000
vn -0.9273 -0.3743 -0.0000
vn 0.7071 0.0004 0.7071
vn -0.5841 -0.5638 0.5839
vn -0.6223 -0.4745 0.6225
vn 0.7071 0.0004 -0.7071
vn -0.7070 0.0004 -0.7072
vn -0.7071 0.0004 -0.7071
vn 0.6965 -0.1722 0.6966
vn 0.6793 -0.2777 0.6793
vn -0.7071 0.0004 0.7071
vn -0.7070 0.0004 0.7072
vn 0.6965 -0.1722 -0.6966
vn 0.6793 -0.2777 -0.6793
vn -0.6966 -0.1722 -0.6965
vn -0.6793 -0.2777 -0.6793
vn -0.7072 0.0057 0.7070
vn -0.7071 0.0057 0.7071
vn 0.7071 0.0057 0.7071
vn 0.7071 0.0057 -0.7071
vn -0.7072 0.0057 -0.7070
vn -0.7071 0.0057 -0.7071
vn 0.4622 0.7568 0.4622
vn 0.4621 0.7568 0.4623
vn -0.4622 0.7568 0.4622
vn 0.4621 0.7568 -0.4622
vn 0.4622 0.7568 -0.4622
vn -0.4622 0.7568 -0.4622
vn 0.3783 -0.8449 0.3783
vn -0.3783 -0.8449 0.3783
vn 0.3783 -0.8449 -0.3783
vn -0.3783 -0.8449 -0.3783
vn -0.4310 -0.7928 0.4309
vn -0.4309 -0.7928 0.4310
vn 0.4310 -0.7928 0.4310
vn 0.4309 -0.7928 0.4310
vn 0.4310 -0.7928 0.4309
vn 0.4310 -0.7928 -0.4309
vn 0.4309 -0.7928 -0.4310
vn 0.4310 -0.7928 -0.4310
vn -0.4310 -0.7928 -0.4309
vn -0.4309 -0.7928 -0.4310
vn -0.4257 0.7984 0.4257
vn -0.4258 0.7984 0.4257
vn -0.4257 0.7984 0.4258
vn 0.4257 0.7984 0.4258
vn 0.4257 0.7984 -0.4258
vn -0.4257 0.7984 -0.4258
vn -0.4258 0.7984 -0.4257
vn -0.6793 -0.2777 0.6793
vn -0.6966 -0.1722 0.6965
vn 0.6224 -0.4746 0.6224
vn 0.5840 -0.5638 0.5840
vn 0.6224 -0.4746 -0.6224
vn 0.5840 -0.5638 -0.5840
vn -0.6223 -0.4746 -0.6225
vn -0.5841 -0.5638 -0.5839
vn -0.5841 -0.5638 -0.5840
vn -0.7063 0.7079 -0.0000
vn -0.4110 0.8138 -0.4109
vn -0.4110 0.8138 -0.4110
vn 0.0000 0.7078 -0.7064
vn 0.4109 0.8138 -0.4110
vn 0.7063 0.7079 -0.0000
vn 0.4109 0.8138 0.4110
vn 0.0000 0.7078 0.7064
vn -0.4110 0.8138 0.4109
vn -0.7071 0.0000 -0.7071
vn 0.7071 0.0000 -0.7071
vn 0.7071 0.0000 0.7071
vn -0.7071 0.0000 0.7071
vn -0.8389 -0.5443 -0.0000
vn 0.0000 -0.5443 -0.8389
vn 0.8389 -0.5443 -0.0000
vn 0.0000 -0.5443 0.8389
vn -0.5240 -0.6716 0.5238
vn 0.5239 -0.6716 0.5239
vn -0.5240 -0.6716 -0.5238
vn 0.5239 -0.6716 -0.5239
vn 0.5240 -0.6716 -0.5239
vn 0.7070 0.0000 -0.7072
vn 0.7071 0.0000 0.7072
vn -0.7072 0.0000 0.7071
vn -0.4772 0.8686 0.1337
vn -0.4772 0.8686 -0.1336
vn -0.4187 0.8846 -0.2052
vn -0.4187 0.8847 0.2052
vn -0.1336 0.8686 -0.4773
vn 0.1336 0.8686 -0.4772
vn 0.2052 0.8847 -0.4186
vn -0.2052 0.8847 -0.4186
vn 0.4772 0.8686 -0.1336
vn 0.4772 0.8686 0.1336
vn 0.4186 0.8847 0.2052
vn 0.4186 0.8847 -0.2052
vn 0.1336 0.8686 0.4772
vn -0.1336 0.8685 0.4773
vn -0.2052 0.8847 0.4186
vn 0.2052 0.8847 0.4186
vn 0.0000 -1.0000 -0.0000
# 135 vertex normals

vt 0.1655 0.9938 0.0000
vt 0.0109 0.9938 0.0000
vt 0.0091 0.9924 0.0000
vt 0.1674 0.8760 0.0000
vt 0.0091 0.8760 0.0000
vt 0.0109 0.8746 0.0000
vt 0.1655 0.8746 0.0000
vt 0.1674 0.9924 0.0000
vt 0.7421 0.0122 0.0000
vt 0.7418 0.7672 0.0000
vt 0.5006 0.7672 0.0000
vt 0.5003 0.0122 0.0000
vt 0.9868 0.0122 0.0000
vt 0.9865 0.7672 0.0000
vt 0.7451 0.7672 0.0000
vt 0.7451 0.0122 0.0000
vt 0.2528 0.0122 0.0000
vt 0.2525 0.7672 0.0000
vt 0.0113 0.7672 0.0000
vt 0.0109 0.0122 0.0000
vt 0.4975 0.0122 0.0000
vt 0.4971 0.7672 0.0000
vt 0.2558 0.7672 0.0000
vt 0.2558 0.0122 0.0000
vt 0.3477 0.9089 0.0000
vt 0.1916 0.9089 0.0000
vt 0.1939 0.8885 0.0000
vt 0.3455 0.8885 0.0000
vt 0.5526 0.9084 0.0000
vt 0.3965 0.9084 0.0000
vt 0.3988 0.8881 0.0000
vt 0.5504 0.8881 0.0000
vt 0.7614 0.9100 0.0000
vt 0.6053 0.9100 0.0000
vt 0.6076 0.8897 0.0000
vt 0.7592 0.8897 0.0000
vt 0.9659 0.9096 0.0000
vt 0.8098 0.9096 0.0000
vt 0.8121 0.8892 0.0000
vt 0.9637 0.8892 0.0000
vt 0.3639 0.9589 0.0000
vt 0.3638 0.9726 0.0000
vt 0.1755 0.9726 0.0000
vt 0.1754 0.9589 0.0000
vt 0.5688 0.9584 0.0000
vt 0.5687 0.9721 0.0000
vt 0.3804 0.9721 0.0000
vt 0.3803 0.9584 0.0000
vt 0.7776 0.9600 0.0000
vt 0.7775 0.9737 0.0000
vt 0.5892 0.9737 0.0000
vt 0.5891 0.9600 0.0000
vt 0.9821 0.9596 0.0000
vt 0.9820 0.9733 0.0000
vt 0.7937 0.9733 0.0000
vt 0.7936 0.9596 0.0000
vt 0.7418 0.7790 0.0000
vt 0.5005 0.7793 0.0000
vt 0.9959 0.7791 0.0000
vt 0.7453 0.7792 0.0000
vt 0.2524 0.7790 0.0000
vt 0.0111 0.7790 0.0000
vt 0.4969 0.7793 0.0000
vt 0.2559 0.7790 0.0000
vt 0.1897 0.8825 0.0000
vt 0.3497 0.8825 0.0000
vt 0.3946 0.8820 0.0000
vt 0.5546 0.8820 0.0000
vt 0.6034 0.8836 0.0000
vt 0.7634 0.8836 0.0000
vt 0.8079 0.8832 0.0000
vt 0.9679 0.8832 0.0000
vt 0.3692 0.9794 0.0000
vt 0.1701 0.9794 0.0000
vt 0.5741 0.9790 0.0000
vt 0.3751 0.9790 0.0000
vt 0.7829 0.9806 0.0000
vt 0.5839 0.9806 0.0000
vt 0.9874 0.9801 0.0000
vt 0.7884 0.9801 0.0000
vt 0.3636 0.9863 0.0000
vt 0.1757 0.9863 0.0000
vt 0.5685 0.9859 0.0000
vt 0.3806 0.9859 0.0000
vt 0.7773 0.9875 0.0000
vt 0.5894 0.9875 0.0000
vt 0.9818 0.9870 0.0000
vt 0.7939 0.9870 0.0000
vt 0.1845 0.9372 0.0000
vt 0.3548 0.9372 0.0000
vt 0.3894 0.9367 0.0000
vt 0.5597 0.9367 0.0000
vt 0.5982 0.9383 0.0000
vt 0.7685 0.9383 0.0000
vt 0.8027 0.9379 0.0000
vt 0.9730 0.9379 0.0000
vt 0.9754 0.9368 0.0000
vt 0.9849 0.9589 0.0000
vt 0.0079 0.7672 0.0000
vt 0.0079 0.0122 0.0000
vt 0.3480 0.8895 0.0000
vt 0.3503 0.9083 0.0000
vt 0.6028 0.9094 0.0000
vt 0.6050 0.8907 0.0000
vt 0.8073 0.9090 0.0000
vt 0.8095 0.8902 0.0000
vt 0.9848 0.9721 0.0000
vt 0.3665 0.9582 0.0000
vt 0.3663 0.9714 0.0000
vt 0.5867 0.9726 0.0000
vt 0.5865 0.9593 0.0000
vt 0.7912 0.9721 0.0000
vt 0.7910 0.9589 0.0000
vt 0.3523 0.8850 0.0000
vt 0.9705 0.8857 0.0000
vt 0.9664 0.8902 0.0000
vt 0.6007 0.8862 0.0000
vt 0.8052 0.8857 0.0000
vt 0.0078 0.7789 0.0000
vt 0.9907 0.9801 0.0000
vt 0.3716 0.9794 0.0000
vt 0.5815 0.9806 0.0000
vt 0.7860 0.9801 0.0000
vt 0.9842 0.9896 0.0000
vt 0.3660 0.9889 0.0000
vt 0.5871 0.9900 0.0000
vt 0.7916 0.9896 0.0000
vt 0.9686 0.9090 0.0000
vt 0.3574 0.9360 0.0000
vt 0.5957 0.9372 0.0000
vt 0.8002 0.9367 0.0000
vt 0.7521 0.8673 0.0000
vt 0.7407 0.8440 0.0000
vt 0.9787 0.8440 0.0000
vt 0.9674 0.8673 0.0000
vt 0.7231 0.8673 0.0000
vt 0.7344 0.8440 0.0000
vt 0.5077 0.8685 0.0000
vt 0.4964 0.8440 0.0000
vt 0.4787 0.8685 0.0000
vt 0.4900 0.8440 0.0000
vt 0.2634 0.8683 0.0000
vt 0.2521 0.8440 0.0000
vt 0.2344 0.8683 0.0000
vt 0.2457 0.8440 0.0000
vt 0.0185 0.8682 0.0000
vt 0.0095 0.8447 0.0000
vt 0.9833 0.8433 0.0000
vt 0.9830 0.8665 0.0000
vt 0.7404 0.8398 0.0000
vt 0.7404 0.8318 0.0000
vt 0.9790 0.8318 0.0000
vt 0.9790 0.8398 0.0000
vt 0.7347 0.8398 0.0000
vt 0.7347 0.8318 0.0000
vt 0.4961 0.8398 0.0000
vt 0.4961 0.8318 0.0000
vt 0.4903 0.8398 0.0000
vt 0.4903 0.8318 0.0000
vt 0.2518 0.8398 0.0000
vt 0.2518 0.8318 0.0000
vt 0.2460 0.8398 0.0000
vt 0.2460 0.8318 0.0000
vt 0.0075 0.8398 0.0000
vt 0.0075 0.8318 0.0000
vt 0.9847 0.8318 0.0000
vt 0.9847 0.8398 0.0000
vt 0.9682 0.8705 0.0000
vt 0.7512 0.8699 0.0000
vt 0.7239 0.8699 0.0000
vt 0.5069 0.8711 0.0000
vt 0.4796 0.8711 0.0000
vt 0.2626 0.8709 0.0000
vt 0.2352 0.8709 0.0000
vt 0.0168 0.8708 0.0000
vt 0.9830 0.8702 0.0000
vt 0.7450 0.8179 0.0000
vt 0.5036 0.8179 0.0000
vt 0.5036 0.8097 0.0000
vt 0.7450 0.8097 0.0000
vt 0.7479 0.8179 0.0000
vt 0.7479 0.8097 0.0000
vt 0.9893 0.8179 0.0000
vt 0.9893 0.8097 0.0000
vt 0.9922 0.8179 0.0000
vt 0.9922 0.8097 0.0000
vt 0.2564 0.8179 0.0000
vt 0.0150 0.8179 0.0000
vt 0.0150 0.8097 0.0000
vt 0.2564 0.8097 0.0000
vt 0.2593 0.8179 0.0000
vt 0.2593 0.8097 0.0000
vt 0.5007 0.8179 0.0000
vt 0.5007 0.8097 0.0000
vt 0.2557 0.0062 0.0000
vt 0.4974 0.0062 0.0000
vt 0.0110 0.0062 0.0000
vt 0.2527 0.0062 0.0000
vt 0.7450 0.0062 0.0000
vt 0.9917 0.0062 0.0000
vt 0.5002 0.0062 0.0000
vt 0.7420 0.0062 0.0000
vt 0.0079 0.0062 0.0000
vt 0.9787 0.8276 0.0000
vt 0.7407 0.8276 0.0000
vt 0.9833 0.8276 0.0000
vt 0.2457 0.8276 0.0000
vt 0.0095 0.8276 0.0000
vt 0.2521 0.8276 0.0000
vt 0.4900 0.8276 0.0000
vt 0.4964 0.8276 0.0000
vt 0.7344 0.8276 0.0000
# 212 texture coords

g sponza_29
f 1/1/1 2/2/1 3/3/1 
f 1/1/1 3/3/1 4/4/1 
f 3/3/1 5/5/1 6/6/1 
f 3/3/1 6/6/1 4/4/1 
f 6/6/1 7/7/1 4/4/1 
f 8/8/1 1/1/1 4/4/1 
f 9/9/2 10/10/2 11/11/2 
f 9/9/2 11/11/2 12/12/2 
f 13/13/3 14/14/3 15/15/3 
f 13/13/3 15/15/3 16/16/3 
f 17/17/4 18/18/4 19/19/4 
f 17/17/4 19/19/4 20/20/4 
f 21/21/5 22/22/5 23/23/5 
f 21/21/5 23/23/5 24/24/5 
f 25/25/6 26/26/6 27/27/7 
f 25/25/6 27/27/7 28/28/7 
f 29/29/8 30/30/8 31/31/9 
f 29/29/8 31/31/9 32/32/9 
f 33/33/10 34/34/10 35/35/11 
f 33/33/10 35/35/11 36/36/11 
f 37/37/12 38/38/12 39/39/13 
f 37/37/12 39/39/13 40/40/13 
f 41/41/2 42/42/2 43/43/2 
f 41/41/2 43/43/2 44/44/2 
f 45/45/3 46/46/3 47/47/3 
f 45/45/3 47/47/3 48/48/3 
f 49/49/4 50/50/4 51/51/4 
f 49/49/4 51/51/4 52/52/4 
f 53/53/5 54/54/5 55/55/5 
f 53/53/5 55/55/5 56/56/5 
f 57/57/14 58/58/14 11/11/14 
f 57/57/14 11/11/14 10/10/14 
f 59/59/15 60/60/15 15/15/15 
f 59/59/15 15/15/15 14/14/15 
f 61/61/16 62/62/16 19/19/16 
f 61/61/16 19/19/16 18/18/16 
f 63/63/17 64/64/17 23/23/17 
f 63/63/17 23/23/17 22/22/17 
f 28/28/18 27/27/18 58/65/18 
f 28/28/18 58/65/18 57/66/18 
f 32/32/19 31/31/19 60/67/19 
f 32/32/19 60/67/19 59/68/19 
f 36/36/20 35/35/20 62/69/20 
f 36/36/20 62/69/20 61/70/20 
f 40/40/21 39/39/21 64/71/21 
f 40/40/21 64/71/21 63/72/21 
f 65/73/22 66/74/22 43/43/22 
f 65/73/22 43/43/22 42/42/22 
f 67/75/23 68/76/23 47/47/23 
f 67/75/23 47/47/23 46/46/23 
f 69/77/24 70/78/24 51/51/24 
f 69/77/24 51/51/24 50/50/24 
f 71/79/25 72/80/25 55/55/25 
f 71/79/25 55/55/25 54/54/25 
f 2/81/26 1/82/26 66/74/26 
f 2/81/26 66/74/26 65/73/26 
f 5/83/27 3/84/27 68/76/27 
f 5/83/27 68/76/27 67/75/27 
f 7/85/28 6/86/28 70/78/28 
f 7/85/28 70/78/28 69/77/28 
f 8/87/29 4/88/29 72/80/29 
f 8/87/29 72/80/29 71/79/29 
f 41/41/30 44/44/30 73/89/31 
f 41/41/30 73/89/31 74/90/31 
f 45/45/32 48/48/32 75/91/33 
f 45/45/32 75/91/33 76/92/33 
f 49/49/34 52/52/34 77/93/35 
f 49/49/34 77/93/35 78/94/35 
f 53/53/36 56/56/36 79/95/37 
f 53/53/36 79/95/37 80/96/37 
f 74/90/31 73/89/31 26/26/6 
f 74/90/31 26/26/6 25/25/6 
f 76/92/33 75/91/33 30/30/8 
f 76/92/33 30/30/8 29/29/8 
f 78/94/35 77/93/35 34/34/10 
f 78/94/35 34/34/10 33/33/10 
f 80/96/37 79/95/37 38/38/12 
f 80/96/37 38/38/12 37/37/12 
f 16/16/38 15/15/38 10/10/38 
f 16/16/38 10/10/38 9/9/38 
f 53/53/39 80/96/40 73/97/40 
f 53/53/39 73/97/40 44/98/39 
f 20/20/41 19/19/41 14/99/41 
f 20/20/41 14/99/41 13/100/41 
f 24/24/42 23/23/43 18/18/43 
f 24/24/42 18/18/43 17/17/42 
f 31/101/44 30/102/45 25/25/45 
f 31/101/44 25/25/45 28/28/44 
f 22/22/46 21/21/47 12/12/47 
f 22/22/46 12/12/47 11/11/46 
f 35/35/48 34/34/49 29/103/49 
f 35/35/48 29/103/49 32/104/48 
f 39/39/50 38/38/51 33/105/51 
f 39/39/50 33/105/51 36/106/50 
f 44/98/52 43/107/53 54/54/53 
f 44/98/52 54/54/53 53/53/52 
f 48/108/54 47/109/54 42/42/54 
f 48/108/54 42/42/54 41/41/54 
f 52/52/55 51/51/55 46/110/55 
f 52/52/55 46/110/55 45/111/55 
f 56/56/56 55/55/57 50/112/57 
f 56/56/56 50/112/57 49/113/56 
f 28/28/58 57/66/58 60/114/58 
f 28/28/58 60/114/58 31/101/59 
f 40/40/60 63/72/60 58/115/60 
f 40/40/60 58/115/60 27/116/60 
f 32/104/61 59/117/62 62/69/62 
f 32/104/61 62/69/62 35/35/61 
f 36/106/63 61/118/63 64/71/63 
f 36/106/63 64/71/63 39/39/63 
f 57/57/64 10/10/64 15/15/64 
f 57/57/64 15/15/64 60/60/64 
f 63/63/65 22/22/65 11/11/65 
f 63/63/65 11/11/65 58/58/65 
f 59/119/66 14/99/66 19/19/66 
f 59/119/66 19/19/66 62/62/66 
f 61/61/67 18/18/67 23/23/67 
f 61/61/67 23/23/67 64/64/67 
f 43/107/68 66/120/69 71/79/69 
f 43/107/68 71/79/69 54/54/68 
f 47/109/70 68/121/71 65/73/71 
f 47/109/70 65/73/71 42/42/72 
f 51/51/73 70/78/74 67/122/75 
f 51/51/73 67/122/75 46/110/73 
f 55/55/76 72/80/77 69/123/77 
f 55/55/76 69/123/77 50/112/76 
f 66/120/78 1/124/79 8/87/79 
f 66/120/78 8/87/79 71/79/80 
f 68/121/81 3/125/81 2/81/81 
f 68/121/81 2/81/81 65/73/81 
f 70/78/82 6/86/82 5/126/82 
f 70/78/82 5/126/82 67/122/82 
f 72/80/83 4/88/84 7/127/84 
f 72/80/83 7/127/84 69/123/83 
f 37/37/85 40/40/86 27/116/86 
f 37/37/85 27/116/86 26/128/85 
f 75/129/87 48/108/88 41/41/88 
f 75/129/87 41/41/88 74/90/87 
f 77/93/89 52/52/90 45/111/90 
f 77/93/89 45/111/90 76/130/89 
f 79/95/91 56/56/92 49/113/93 
f 79/95/91 49/113/93 78/131/91 
f 26/128/85 73/97/40 80/96/40 
f 26/128/85 80/96/40 37/37/85 
f 30/102/45 75/129/87 74/90/87 
f 30/102/45 74/90/87 25/25/45 
f 34/34/49 77/93/89 76/130/89 
f 34/34/49 76/130/89 29/103/49 
f 38/38/51 79/95/91 78/131/91 
f 38/38/51 78/131/91 33/105/51 
f 81/132/94 82/133/94 83/134/94 
f 81/132/94 83/134/94 84/135/94 
f 85/136/95 86/137/96 82/133/96 
f 85/136/95 82/133/96 81/132/95 
f 87/138/97 88/139/97 86/137/97 
f 87/138/97 86/137/97 85/136/97 
f 89/140/98 90/141/98 88/139/98 
f 89/140/98 88/139/98 87/138/98 
f 91/142/99 92/143/99 90/141/99 
f 91/142/99 90/141/99 89/140/99 
f 93/144/100 94/145/100 92/143/100 
f 93/144/100 92/143/100 91/142/100 
f 95/146/101 96/147/101 94/145/101 
f 95/146/101 94/145/101 93/144/101 
f 84/135/102 83/134/102 96/148/102 
f 84/135/102 96/148/102 95/149/102 
f 97/150/5 98/151/5 99/152/5 
f 97/150/5 99/152/5 100/153/5 
f 101/154/103 102/155/103 98/151/103 
f 101/154/103 98/151/103 97/150/103 
f 103/156/4 104/157/4 102/155/4 
f 103/156/4 102/155/4 101/154/4 
f 105/158/104 106/159/104 104/157/104 
f 105/158/104 104/157/104 103/156/104 
f 107/160/3 108/161/3 106/159/3 
f 107/160/3 106/159/3 105/158/3 
f 109/162/105 110/163/105 108/161/105 
f 109/162/105 108/161/105 107/160/105 
f 111/164/2 112/165/2 110/163/2 
f 111/164/2 110/163/2 109/162/2 
f 100/153/106 99/152/106 112/166/106 
f 100/153/106 112/166/106 111/167/106 
f 113/168/107 114/169/107 81/132/107 
f 113/168/107 81/132/107 84/135/107 
f 115/170/108 116/171/108 87/138/108 
f 115/170/108 87/138/108 85/136/108 
f 117/172/109 118/173/109 91/142/109 
f 117/172/109 91/142/109 89/140/109 
f 119/174/110 120/175/110 95/146/110 
f 119/174/110 95/146/110 93/144/110 
f 120/176/111 113/168/111 84/135/111 
f 120/176/111 84/135/111 95/149/111 
f 118/173/112 119/174/112 93/144/112 
f 118/173/112 93/144/112 91/142/112 
f 114/169/113 115/170/113 85/136/113 
f 114/169/113 85/136/113 81/132/113 
f 116/171/114 117/172/115 89/140/114 
f 116/171/114 89/140/114 87/138/114 
f 121/177/5 122/178/5 123/179/5 
f 121/177/5 123/179/5 124/180/5 
f 125/181/103 121/177/103 124/180/103 
f 125/181/103 124/180/103 126/182/103 
f 127/183/4 125/181/4 126/182/4 
f 127/183/4 126/182/4 128/184/4 
f 129/185/116 127/183/116 128/184/116 
f 129/185/116 128/184/116 130/186/116 
f 131/187/3 129/188/3 130/189/3 
f 131/187/3 130/189/3 132/190/3 
f 133/191/117 131/187/117 132/190/117 
f 133/191/117 132/190/117 134/192/117 
f 135/193/2 133/191/2 134/192/2 
f 135/193/2 134/192/2 136/194/2 
f 122/178/118 135/193/118 136/194/118 
f 122/178/118 136/194/118 123/179/118 
f 21/21/119 24/24/120 114/195/121 
f 21/21/119 114/195/121 113/196/122 
f 17/17/123 20/20/124 116/197/125 
f 17/17/123 116/197/125 115/198/126 
f 13/13/127 16/16/128 118/199/129 
f 13/13/127 118/199/129 117/200/130 
f 9/9/131 12/12/132 120/201/133 
f 9/9/131 120/201/133 119/202/134 
f 12/12/132 21/21/119 113/196/122 
f 12/12/132 113/196/122 120/201/133 
f 16/16/128 9/9/131 119/202/134 
f 16/16/128 119/202/134 118/199/129 
f 24/24/120 17/17/123 115/198/126 
f 24/24/120 115/198/126 114/195/121 
f 20/20/124 13/100/127 117/203/130 
f 20/20/124 117/203/130 116/197/125 
f 82/133/1 97/150/1 100/153/1 
f 82/133/1 100/153/1 83/134/1 
f 86/137/1 101/154/1 97/150/1 
f 86/137/1 97/150/1 82/133/1 
f 88/139/1 103/156/1 101/154/1 
f 88/139/1 101/154/1 86/137/1 
f 90/141/1 105/158/1 103/156/1 
f 90/141/1 103/156/1 88/139/1 
f 92/143/1 107/160/1 105/158/1 
f 92/143/1 105/158/1 90/141/1 
f 94/145/1 109/162/1 107/160/1 
f 94/145/1 107/160/1 92/143/1 
f 96/147/1 111/164/1 109/162/1 
f 96/147/1 109/162/1 94/145/1 
f 83/134/1 100/153/1 111/167/1 
f 83/134/1 111/167/1 96/148/1 
f 123/204/135 99/152/135 98/151/135 
f 123/204/135 98/151/135 124/205/135 
f 136/206/135 112/166/135 99/152/135 
f 136/206/135 99/152/135 123/204/135 
f 134/207/135 110/163/135 112/165/135 
f 134/207/135 112/165/135 136/208/135 
f 132/209/135 108/161/135 110/163/135 
f 132/209/135 110/163/135 134/207/135 
f 130/210/135 106/159/135 108/161/135 
f 130/210/135 108/161/135 132/209/135 
f 128/211/135 104/157/135 106/159/135 
f 128/211/135 106/159/135 130/210/135 
f 126/212/135 102/155/135 104/157/135 
f 126/212/135 104/157/135 128/211/135 
f 124/205/135 98/151/135 102/155/135 
f 124/205/135 102/155/135 126/212/135 
# 262 faces

