# 3ds Max Wavefront OBJ Exporter v0.97b - (c)2007 guruware
# File Created: 21.02.2011 11:31:22

#
# object sponza_119
#

v  -93.2793 34.4005 -55.2343
v  -90.9496 34.4005 -52.9046
v  -87.7110 34.4005 -52.9046
v  -93.2793 34.4005 -60.5924
v  -87.7110 34.4005 -60.5924
v  -93.2793 33.0896 -60.5924
v  -93.2793 33.5986 -60.5924
v  -87.7110 33.5986 -60.5924
v  -87.7110 33.0896 -60.5924
v  -87.7110 33.5986 -52.9046
v  -87.7110 33.0896 -52.9046
v  -87.9595 32.7094 -53.1237
v  -87.9595 32.7094 -60.3734
v  -90.9496 33.0896 -52.9046
v  -91.1687 32.7094 -53.1237
v  -88.5874 32.4180 -53.6772
v  -88.5874 32.4180 -59.8198
v  -93.2793 32.4180 -59.8198
v  -93.2793 32.7094 -60.3734
v  -89.1649 12.0547 -55.6533
v  -89.1649 30.9659 -55.6533
v  -90.8814 30.9659 -54.1426
v  -90.8814 12.0547 -54.1426
v  -89.1649 12.0547 -57.7897
v  -89.1649 30.9659 -57.7897
v  -90.8814 12.0547 -59.3004
v  -90.8814 30.9659 -59.3004
v  -93.2793 12.0547 -59.3004
v  -93.2793 30.9659 -59.3004
v  -89.1649 31.4234 -55.6533
v  -88.9860 31.5508 -55.5881
v  -90.8073 31.5508 -53.9851
v  -90.8814 31.4234 -54.1426
v  -89.1649 31.4234 -57.7897
v  -88.9860 31.5508 -57.8549
v  -90.8814 31.4234 -59.3004
v  -90.8073 31.5508 -59.4579
v  -93.2793 31.4234 -59.3004
v  -93.2793 31.5508 -59.4579
v  -89.1098 31.9330 -55.6332
v  -88.9098 32.2268 -55.5603
v  -90.7757 32.2268 -53.9180
v  -90.8586 31.9330 -54.0941
v  -89.1098 31.9330 -57.8098
v  -88.9098 32.2268 -57.8827
v  -90.8586 31.9330 -59.3489
v  -90.7757 32.2268 -59.5250
v  -93.2793 31.9330 -59.3489
v  -93.2793 32.2268 -59.5250
v  -91.7222 32.4180 -53.6772
v  -91.9630 32.2268 -53.9180
v  -90.7640 31.1946 -53.8931
v  -91.9381 31.1946 -53.8931
v  -92.1876 30.9659 -54.1426
v  -88.8814 31.1946 -55.5499
v  -88.8814 31.1946 -57.8931
v  -90.7640 31.1946 -59.5499
v  -92.1876 31.4234 -54.1426
v  -92.1391 31.9330 -54.0941
v  -92.1252 31.6782 -54.0802
v  -90.8520 31.6782 -54.0802
v  -89.0941 31.6782 -55.6274
v  -89.0941 31.6782 -57.8156
v  -90.8520 31.6782 -59.3628
v  -92.0301 31.5508 -53.9851
v  -93.2793 33.5986 -60.4996
v  -93.2793 33.8217 -60.4996
v  -87.8165 33.8217 -60.4996
v  -87.8165 33.5986 -60.4996
v  -87.8165 33.8217 -52.9975
v  -87.8165 33.5986 -52.9975
v  -90.9496 33.8217 -52.9046
v  -87.7110 33.8217 -52.9046
v  -87.7110 33.8217 -60.5924
v  -91.0425 33.8217 -52.9975
v  -93.2793 31.1946 -59.5499
v  -93.2793 31.6782 -59.3628
v  -93.2793 33.8217 -60.5924
v  -95.6772 30.9659 -59.3004
v  -95.6772 12.0547 -59.3004
v  -95.6772 31.4234 -59.3004
v  -95.7513 31.5508 -59.4579
v  -95.7000 31.9330 -59.3489
v  -95.7829 32.2268 -59.5250
v  -96.5645 30.9659 -58.5195
v  -96.7522 31.1946 -58.7072
v  -95.7946 31.1946 -59.5499
v  -96.5645 31.4234 -58.5195
v  -96.6114 31.6782 -58.5664
v  -96.6010 31.9330 -58.5560
v  -95.7065 31.6782 -59.3628
v  -96.6829 31.5508 -58.6379
v  -98.4184 32.7094 -60.3734
v  -98.6374 33.0896 -60.5924
v  -97.8483 32.4072 -59.8033
v  -97.8649 32.4180 -59.8198
v  -98.6374 33.8217 -60.5924
v  -98.6374 34.4005 -60.5924
v  -98.5446 33.8217 -60.4996
v  -90.9496 33.5986 -52.9046
v  -92.1876 12.0547 -54.1426
v  -91.0425 33.5986 -52.9975
v  -98.6374 33.5986 -60.5924
v  -96.5645 12.0547 -58.5195
v  -96.7334 32.2268 -58.6884
v  -98.5446 33.5986 -60.4996
v  -90.9496 34.4005 -49.6660
v  -98.6374 34.4005 -55.2343
v  -98.6374 34.4005 -49.6660
v  -98.6374 33.5986 -49.6660
v  -98.6374 33.5986 -55.2343
v  -98.6374 33.0896 -55.2343
v  -98.6374 33.0896 -49.6660
v  -90.9496 33.5986 -49.6660
v  -90.9496 33.0896 -49.6660
v  -98.4184 32.7094 -49.9145
v  -91.1687 32.7094 -49.9145
v  -97.8649 32.4180 -50.5424
v  -91.7222 32.4180 -50.5424
v  -98.4184 32.7094 -55.2343
v  -97.8649 32.4180 -55.2343
v  -92.1876 30.9659 -52.8364
v  -93.6983 30.9659 -51.1199
v  -93.6983 12.0547 -51.1199
v  -92.1876 12.0547 -52.8364
v  -95.8347 30.9659 -51.1199
v  -95.8347 12.0547 -51.1199
v  -97.3454 30.9659 -52.8364
v  -97.3454 12.0547 -52.8364
v  -97.3454 30.9659 -55.2343
v  -97.3454 12.0547 -55.2343
v  -92.0301 31.5508 -52.7623
v  -93.6330 31.5508 -50.9410
v  -93.6983 31.4234 -51.1199
v  -92.1876 31.4234 -52.8364
v  -95.8999 31.5508 -50.9410
v  -95.8347 31.4234 -51.1199
v  -97.5029 31.5508 -52.7623
v  -97.3454 31.4234 -52.8364
v  -97.5029 31.5508 -55.2343
v  -97.3454 31.4234 -55.2343
v  -91.9630 32.2268 -52.7307
v  -93.6053 32.2268 -50.8648
v  -93.6782 31.9330 -51.0648
v  -92.1391 31.9330 -52.8136
v  -95.9277 32.2268 -50.8648
v  -95.8548 31.9330 -51.0648
v  -97.5700 32.2268 -52.7307
v  -97.3939 31.9330 -52.8136
v  -97.5700 32.2268 -55.2343
v  -97.3939 31.9330 -55.2343
v  -91.9381 31.1946 -52.7190
v  -93.5949 31.1946 -50.8364
v  -95.9381 31.1946 -50.8364
v  -97.5949 31.1946 -52.7190
v  -92.1252 31.6782 -52.8070
v  -93.6724 31.6782 -51.0490
v  -95.8606 31.6782 -51.0490
v  -97.4078 31.6782 -52.8070
v  -98.5446 33.8217 -49.7715
v  -98.5446 33.8217 -55.2343
v  -98.5446 33.5986 -55.2343
v  -98.5446 33.5986 -49.7715
v  -91.0425 33.8217 -49.7715
v  -91.0425 33.5986 -49.7715
v  -90.9496 33.8217 -49.6660
v  -98.6374 33.8217 -49.6660
v  -97.5949 31.1946 -55.2343
v  -97.4078 31.6782 -55.2343
v  -98.6374 33.8217 -55.2343
v  -97.3454 30.9659 -57.6322
v  -97.3454 12.0547 -57.6322
v  -97.3454 31.4234 -57.6322
v  -97.5029 31.5508 -57.7063
v  -97.3939 31.9330 -57.6550
v  -97.5700 32.2268 -57.7378
v  -97.5949 31.1946 -57.7496
v  -97.4078 31.6782 -57.6615
# 178 vertices

vn 0.0000 1.0000 -0.0000
vn 0.0000 -0.2584 -0.9660
vn 0.0000 0.0000 -1.0000
vn 0.7071 0.0000 -0.7071
vn 0.6761 -0.3073 -0.6696
vn 0.7071 0.0000 0.7071
vn 0.6761 -0.3073 0.6696
vn 0.4376 -0.7728 0.4596
vn 0.4376 -0.7728 -0.4596
vn 0.6494 -0.3957 0.6494
vn 0.3433 -0.8743 0.3433
vn 0.1928 -0.9566 0.2187
vn 0.1918 -0.9569 -0.2180
vn 0.0000 -0.8629 -0.5054
vn 0.0000 -0.7204 -0.6935
vn 0.6607 0.0000 0.7507
vn 1.0000 0.0000 -0.0000
vn 0.6607 0.0000 -0.7507
vn 0.5028 -0.8298 0.2421
vn 0.5102 -0.8306 0.2231
vn 0.2152 -0.8062 0.5511
vn 0.1983 -0.8055 0.5584
vn 0.5028 -0.8298 -0.2421
vn 0.5102 -0.8306 -0.2231
vn 0.1983 -0.8055 -0.5584
vn 0.2152 -0.8062 -0.5511
vn 0.0000 -0.7774 -0.6291
vn 0.8652 -0.3031 0.3994
vn 0.5588 -0.8161 0.1473
vn 0.1386 -0.7507 0.6460
vn 0.3334 -0.2783 0.9008
vn 0.8652 -0.3031 -0.3994
vn 0.5588 -0.8162 -0.1469
vn 0.3334 -0.2783 -0.9008
vn 0.1390 -0.7815 -0.6082
vn 0.0000 -0.2404 -0.9707
vn 0.0000 -0.6945 -0.7195
vn 0.3186 -0.8927 0.3186
vn 0.4817 -0.7320 0.4817
vn 0.2150 -0.7682 0.6030
vn 0.2322 -0.7690 0.5956
vn 0.3846 -0.8391 0.3846
vn 0.5463 -0.7955 0.2620
vn 0.5541 -0.7964 0.2425
vn 0.5541 -0.7964 -0.2425
vn 0.5463 -0.7955 -0.2620
vn 0.2322 -0.7690 -0.5956
vn 0.2150 -0.7682 -0.6030
vn 0.2150 0.7682 0.6030
vn 0.3846 0.8391 0.3846
vn 0.2322 0.7690 0.5956
vn 0.5463 0.7955 0.2620
vn 0.5541 0.7964 0.2425
vn 0.5463 0.7955 -0.2620
vn 0.5541 0.7964 -0.2425
vn 0.2322 0.7690 -0.5956
vn 0.2150 0.7682 -0.6030
vn 0.6814 -0.2670 0.6814
vn 0.6549 0.3772 0.6549
vn 0.3195 0.3911 0.8631
vn 0.8227 0.4229 0.3798
vn 0.8227 0.4229 -0.3798
vn 0.3195 0.3911 -0.8631
vn 0.4863 0.7259 0.4864
vn 0.2794 0.6353 0.7199
vn 0.6803 0.6692 0.2990
vn 0.6803 0.6692 -0.2990
vn 0.2794 0.6353 -0.7199
vn 0.0000 0.0000 1.0000
vn 0.0000 -1.0000 -0.0000
vn 0.0000 -0.7371 -0.6757
vn 0.0000 0.7371 -0.6758
vn 0.0000 0.3408 -0.9401
vn 0.0000 0.5980 -0.8015
vn -0.1983 -0.8055 -0.5584
vn -0.2152 -0.8062 -0.5511
vn -0.3334 -0.2783 -0.9008
vn -0.1390 -0.7815 -0.6082
vn -0.2150 -0.7682 -0.6030
vn -0.4616 -0.7575 -0.4616
vn -0.2322 -0.7689 -0.5956
vn -0.4616 0.7575 -0.4616
vn -0.2150 0.7682 -0.6030
vn -0.2322 0.7689 -0.5956
vn -0.6595 0.3605 -0.6596
vn -0.6837 -0.2551 -0.6837
vn -0.3195 0.3911 -0.8631
vn -0.5538 0.6217 -0.5538
vn -0.2794 0.6353 -0.7199
vn -0.4624 -0.7566 -0.4624
vn -0.6756 -0.2953 -0.6756
vn -0.2484 -0.9362 -0.2488
vn -0.2598 -0.9301 -0.2598
vn 0.3511 -0.8680 0.3512
vn 0.3512 -0.8680 0.3512
vn -0.7071 0.0000 -0.7071
vn -0.6607 0.0000 -0.7507
vn -0.4281 -0.7959 -0.4281
vn -0.3657 -0.8558 -0.3657
vn -0.7071 0.0000 0.7071
vn -1.0000 0.0000 -0.0000
vn -0.9660 -0.2584 -0.0000
vn -0.6696 -0.3073 0.6761
vn 0.6696 -0.3073 0.6761
vn -0.4596 -0.7728 0.4376
vn 0.4596 -0.7728 0.4376
vn -0.2180 -0.9569 0.1918
vn 0.2187 -0.9566 0.1928
vn -0.6935 -0.7204 -0.0000
vn -0.5055 -0.8629 -0.0000
vn 0.7507 0.0000 0.6607
vn -0.7507 0.0000 0.6607
vn 0.5511 -0.8062 0.2151
vn 0.2231 -0.8306 0.5102
vn 0.2420 -0.8298 0.5028
vn 0.5584 -0.8055 0.1983
vn -0.2231 -0.8306 0.5103
vn -0.2421 -0.8298 0.5028
vn -0.5511 -0.8062 0.2152
vn -0.5585 -0.8055 0.1983
vn -0.6291 -0.7774 -0.0000
vn 0.6460 -0.7507 0.1386
vn 0.1473 -0.8161 0.5588
vn 0.3994 -0.3031 0.8652
vn 0.9008 -0.2783 0.3334
vn -0.1469 -0.8162 0.5588
vn -0.3994 -0.3031 0.8652
vn -0.6082 -0.7815 0.1390
vn -0.9008 -0.2783 0.3334
vn -0.7195 -0.6945 -0.0000
vn -0.9707 -0.2404 -0.0000
vn 0.6030 -0.7682 0.2150
vn 0.5956 -0.7690 0.2322
vn 0.2620 -0.7955 0.5463
vn 0.2425 -0.7964 0.5541
vn -0.2425 -0.7963 0.5541
vn -0.2621 -0.7955 0.5463
vn -0.5956 -0.7690 0.2322
vn -0.6030 -0.7682 0.2150
vn 0.6030 0.7682 0.2150
vn 0.5956 0.7690 0.2322
vn 0.2620 0.7955 0.5463
vn 0.2425 0.7964 0.5541
vn -0.2620 0.7955 0.5463
vn -0.2425 0.7963 0.5541
vn -0.5956 0.7690 0.2322
vn -0.6030 0.7682 0.2150
vn 0.8631 0.3911 0.3195
vn 0.3798 0.4229 0.8227
vn -0.3798 0.4229 0.8227
vn -0.8631 0.3911 0.3195
vn 0.7199 0.6354 0.2794
vn 0.2990 0.6692 0.6803
vn -0.2990 0.6692 0.6803
vn -0.7199 0.6353 0.2794
vn -0.0000 0.0000 1.0000
vn -0.6757 -0.7371 -0.0000
vn -0.6758 0.7371 -0.0000
vn -0.9401 0.3408 -0.0000
vn -0.8015 0.5980 -0.0000
vn -0.5585 -0.8055 -0.1983
vn -0.5511 -0.8062 -0.2152
vn -0.9008 -0.2783 -0.3334
vn -0.6082 -0.7815 -0.1390
vn -0.6030 -0.7682 -0.2150
vn -0.5956 -0.7690 -0.2322
vn -0.6030 0.7682 -0.2150
vn -0.5956 0.7690 -0.2322
vn -0.8631 0.3911 -0.3195
vn -0.7199 0.6353 -0.2794
vn -0.7507 0.0000 -0.6607
# 171 vertex normals

vt 0.2388 0.7828 0.0000
vt 0.2969 0.8339 0.0000
vt 0.2969 0.9050 0.0000
vt 0.1052 0.7828 0.0000
vt 0.1052 0.9050 0.0000
vt 0.0579 0.1688 0.0000
vt 0.0419 0.1688 0.0000
vt 0.0419 0.0149 0.0000
vt 0.0579 0.0149 0.0000
vt 0.0579 0.9740 0.0000
vt 0.0419 0.9740 0.0000
vt 0.0419 0.7325 0.0000
vt 0.0577 0.7325 0.0000
vt 0.0698 0.7394 0.0000
vt 0.0698 0.9671 0.0000
vt 0.0577 0.6441 0.0000
vt 0.0694 0.6381 0.0000
vt 0.0694 0.7257 0.0000
vt 0.0871 0.7568 0.0000
vt 0.0871 0.9497 0.0000
vt 0.0872 0.0391 0.0000
vt 0.0872 0.1688 0.0000
vt 0.0698 0.1688 0.0000
vt 0.0698 0.0217 0.0000
vt 0.8929 0.0091 0.0000
vt 0.8929 0.9005 0.0000
vt 0.9967 0.9005 0.0000
vt 0.9967 0.0091 0.0000
vt 0.8048 0.0091 0.0000
vt 0.8048 0.9005 0.0000
vt 0.6490 0.0091 0.0000
vt 0.6490 0.9005 0.0000
vt 0.7184 0.9005 0.0000
vt 0.7184 0.0091 0.0000
vt 0.4750 0.0091 0.0000
vt 0.4750 0.9005 0.0000
vt 0.4571 0.9414 0.4935
vt 0.4571 0.9493 0.5236
vt 0.3500 0.9493 0.5236
vt 0.3500 0.9414 0.4935
vt 0.5643 0.9414 0.4935
vt 0.5643 0.9493 0.5236
vt 0.6715 0.9414 0.4935
vt 0.6715 0.9493 0.5236
vt 0.7774 0.9414 0.4935
vt 0.7744 0.9493 0.5236
vt 0.4571 0.9727 0.5027
vt 0.4571 0.9908 0.5364
vt 0.3500 0.9908 0.5364
vt 0.3500 0.9727 0.5027
vt 0.5643 0.9727 0.5027
vt 0.5643 0.9908 0.5364
vt 0.6715 0.9727 0.5027
vt 0.6715 0.9908 0.5364
vt 0.7764 0.9727 0.5027
vt 0.7732 0.9908 0.5364
vt 0.0866 0.6230 0.0000
vt 0.0941 0.6164 0.0000
vt 0.0941 0.6488 0.0000
vt 0.0866 0.7086 0.0000
vt 0.1480 0.0480 0.0000
vt 0.0964 0.0996 0.0000
vt 0.0961 0.8159 0.0000
vt 0.0961 0.8889 0.0000
vt 0.1450 0.6998 0.0000
vt 0.3500 0.9133 0.4935
vt 0.3500 0.9274 0.5412
vt 0.3027 0.9274 0.5412
vt 0.2923 0.9133 0.4935
vt 0.4571 0.9133 0.4935
vt 0.4571 0.9274 0.5412
vt 0.5643 0.9274 0.5412
vt 0.5643 0.9133 0.4935
vt 0.6715 0.9274 0.5412
vt 0.6715 0.9133 0.4935
vt 0.2923 0.9414 0.4935
vt 0.2945 0.9727 0.5027
vt 0.2951 0.9571 0.5054
vt 0.3500 0.9571 0.5054
vt 0.4571 0.9571 0.5054
vt 0.5643 0.9571 0.5054
vt 0.6715 0.9571 0.5054
vt 0.2991 0.9493 0.5236
vt 0.0389 0.1707 0.0000
vt 0.0318 0.1707 0.0000
vt 0.0318 0.0178 0.0000
vt 0.0389 0.0178 0.0000
vt 0.0389 0.9710 0.0000
vt 0.0318 0.9710 0.0000
vt 0.0318 0.7325 0.0000
vt 0.0389 0.7325 0.0000
vt 0.0059 0.2501 0.0000
vt 0.0059 0.1595 0.0000
vt 0.0243 0.1595 0.0000
vt 0.0243 0.2501 0.0000
vt 0.0059 0.4945 0.0000
vt 0.0243 0.4945 0.0000
vt 0.0272 0.2530 0.0000
vt 0.0272 0.4915 0.0000
vt 0.0272 0.1569 0.0000
vt 0.0272 0.2471 0.0000
vt 0.0964 0.1688 0.0000
vt 0.7728 0.9274 0.5412
vt 0.7774 0.9133 0.4935
vt 0.7761 0.9571 0.5054
vt 0.0243 0.6503 0.0000
vt 0.0059 0.6503 0.0000
vt 0.0272 0.4974 0.0000
vt 0.0272 0.6503 0.0000
vt 0.3698 0.9005 0.0000
vt 0.3698 0.0091 0.0000
vt 0.6161 0.9133 0.4935
vt 0.6170 0.9274 0.5412
vt 0.6161 0.9414 0.4935
vt 0.6163 0.9571 0.5054
vt 0.6163 0.9727 0.5027
vt 0.6167 0.9493 0.5236
vt 0.0698 0.0267 0.0000
vt 0.0579 0.0207 0.0000
vt 0.0877 0.0425 0.0000
vt 0.0872 0.0420 0.0000
vt 0.0243 0.5004 0.0000
vt 0.0059 0.5004 0.0000
vt 0.0272 0.5030 0.0000
vt 0.0419 0.6441 0.0000
vt 0.3177 0.0091 0.0000
vt 0.3177 0.9005 0.0000
vt 0.3373 0.9005 0.0000
vt 0.3373 0.0091 0.0000
vt 0.3017 0.9908 0.5364
vt 0.0318 0.6423 0.0000
vt 0.0389 0.6423 0.0000
vt 0.1052 0.9004 0.0000
vt 0.0419 0.0207 0.0000
vt 0.3161 0.0091 0.0000
vt 0.3161 0.9005 0.0000
vt 0.6169 0.9908 0.5364
vt 0.1227 0.0733 0.0000
vt 0.0389 0.0233 0.0000
vt 0.0318 0.0233 0.0000
vt 0.3800 0.9005 0.0000
vt 0.4800 0.9005 0.0000
vt 0.4800 0.0091 0.0000
vt 0.3800 0.0091 0.0000
vt 0.5472 0.9005 0.0000
vt 0.5472 0.0091 0.0000
vt 0.6467 0.9005 0.0000
vt 0.6467 0.0091 0.0000
vt 0.7432 0.9005 0.0000
vt 0.7432 0.0091 0.0000
vt 0.8931 0.9005 0.0000
vt 0.8931 0.0091 0.0000
vt 0.9972 0.0091 0.0000
vt 0.9972 0.9005 0.0000
# 154 texture coords

g sponza_119
f 1/1/1 2/2/1 3/3/1 
f 1/1/1 3/3/1 4/4/1 
f 5/5/1 4/4/1 3/3/1 
f 6/6/2 7/7/3 8/8/4 
f 6/6/2 8/8/4 9/9/5 
f 9/10/5 8/11/4 10/12/6 
f 9/10/5 10/12/6 11/13/7 
f 11/13/7 12/14/8 13/15/9 
f 11/13/7 13/15/9 9/10/5 
f 14/16/10 15/17/11 12/18/8 
f 14/16/10 12/18/8 11/13/7 
f 16/19/12 17/20/13 13/15/9 
f 16/19/12 13/15/9 12/14/8 
f 17/21/13 18/22/14 19/23/15 
f 17/21/13 19/23/15 13/24/9 
f 20/25/16 21/26/16 22/27/16 
f 20/25/16 22/27/16 23/28/16 
f 24/29/17 25/30/17 21/26/17 
f 24/29/17 21/26/17 20/25/17 
f 26/31/18 27/32/18 25/33/18 
f 26/31/18 25/33/18 24/34/18 
f 28/35/3 29/36/3 27/32/3 
f 28/35/3 27/32/3 26/31/3 
f 30/37/19 31/38/20 32/39/21 
f 30/37/19 32/39/21 33/40/22 
f 34/41/23 35/42/24 31/38/20 
f 34/41/23 31/38/20 30/37/19 
f 34/41/23 36/43/25 37/44/26 
f 34/41/23 37/44/26 35/42/24 
f 36/43/25 38/45/27 39/46/27 
f 36/43/25 39/46/27 37/44/26 
f 40/47/28 41/48/29 42/49/30 
f 40/47/28 42/49/30 43/50/31 
f 44/51/32 45/52/33 41/48/29 
f 44/51/32 41/48/29 40/47/28 
f 44/51/32 46/53/34 47/54/35 
f 44/51/32 47/54/35 45/52/33 
f 46/53/34 48/55/36 49/56/37 
f 46/53/34 49/56/37 47/54/35 
f 50/57/38 51/58/39 42/59/30 
f 50/57/38 42/59/30 16/60/12 
f 17/21/13 45/61/33 47/62/35 
f 16/19/12 41/63/29 45/64/33 
f 16/19/12 45/64/33 17/20/13 
f 16/60/12 42/59/30 41/65/29 
f 22/66/40 52/67/41 53/68/42 
f 22/66/40 53/68/42 54/69/42 
f 21/70/43 55/71/44 52/67/41 
f 21/70/43 52/67/41 22/66/40 
f 56/72/45 55/71/44 21/70/43 
f 56/72/45 21/70/43 25/73/46 
f 57/74/47 56/72/45 25/73/46 
f 57/74/47 25/73/46 27/75/48 
f 33/40/49 58/76/50 53/68/50 
f 33/40/49 53/68/50 52/67/51 
f 30/37/52 33/40/49 52/67/51 
f 30/37/52 52/67/51 55/71/53 
f 34/41/54 30/37/52 55/71/53 
f 34/41/54 55/71/53 56/72/55 
f 57/74/56 36/43/57 34/41/54 
f 57/74/56 34/41/54 56/72/55 
f 43/50/31 59/77/58 60/78/59 
f 43/50/31 60/78/59 61/79/60 
f 40/47/28 43/50/31 61/79/60 
f 40/47/28 61/79/60 62/80/61 
f 44/51/32 40/47/28 62/80/61 
f 44/51/32 62/80/61 63/81/62 
f 46/53/34 44/51/32 63/81/62 
f 46/53/34 63/81/62 64/82/63 
f 61/79/60 60/78/59 65/83/64 
f 61/79/60 65/83/64 32/39/65 
f 62/80/61 61/79/60 32/39/65 
f 62/80/61 32/39/65 31/38/66 
f 63/81/62 62/80/61 31/38/66 
f 63/81/62 31/38/66 35/42/67 
f 37/44/68 64/82/63 63/81/62 
f 37/44/68 63/81/62 35/42/67 
f 66/84/3 67/85/3 68/86/3 
f 66/84/3 68/86/3 69/87/3 
f 69/88/17 68/89/17 70/90/17 
f 69/88/17 70/90/17 71/91/17 
f 3/92/69 2/93/69 72/94/69 
f 3/92/69 72/94/69 73/95/69 
f 5/96/17 3/92/17 73/95/17 
f 5/96/17 73/95/17 74/97/17 
f 7/7/1 66/84/1 69/87/1 
f 7/7/1 69/87/1 8/8/1 
f 8/11/1 69/88/1 71/91/1 
f 8/11/1 71/91/1 10/12/1 
f 73/95/70 70/98/70 68/99/70 
f 73/95/70 68/99/70 74/97/70 
f 72/94/70 75/100/70 70/101/70 
f 72/94/70 70/101/70 73/95/70 
f 6/6/2 9/9/5 13/24/9 
f 6/6/2 13/24/9 19/23/15 
f 18/22/14 17/21/13 47/62/35 
f 18/22/14 47/62/35 49/102/37 
f 76/103/71 57/74/47 27/75/48 
f 76/103/71 27/75/48 29/104/71 
f 36/43/57 57/74/56 76/103/72 
f 36/43/57 76/103/72 38/45/72 
f 46/53/34 64/82/63 77/105/73 
f 46/53/34 77/105/73 48/55/36 
f 64/82/63 37/44/68 39/46/74 
f 64/82/63 39/46/74 77/105/73 
f 5/96/3 74/97/3 78/106/3 
f 5/96/3 78/106/3 4/107/3 
f 78/106/70 74/97/70 68/108/70 
f 78/106/70 68/108/70 67/109/70 
f 79/110/3 29/36/3 28/35/3 
f 79/110/3 28/35/3 80/111/3 
f 81/43/75 82/44/76 39/46/27 
f 81/43/75 39/46/27 38/45/27 
f 83/53/77 84/54/78 49/56/37 
f 83/53/77 49/56/37 48/55/36 
f 79/75/79 85/112/80 86/113/80 
f 79/75/79 86/113/80 87/74/81 
f 86/113/82 88/114/82 81/43/83 
f 86/113/82 81/43/83 87/74/84 
f 89/115/85 90/116/86 83/53/77 
f 89/115/85 83/53/77 91/82/87 
f 92/117/88 89/115/85 91/82/87 
f 92/117/88 91/82/87 82/44/89 
f 6/6/2 19/23/15 93/118/90 
f 6/6/2 93/118/90 94/119/91 
f 84/62/78 95/120/92 96/121/93 
f 84/62/78 96/121/93 49/102/37 
f 18/22/14 49/102/37 96/121/93 
f 76/103/71 29/104/71 79/75/79 
f 76/103/71 79/75/79 87/74/81 
f 76/103/72 87/74/84 81/43/83 
f 76/103/72 81/43/83 38/45/72 
f 77/105/73 91/82/87 83/53/77 
f 77/105/73 83/53/77 48/55/36 
f 39/46/74 82/44/89 91/82/87 
f 39/46/74 91/82/87 77/105/73 
f 78/106/3 97/122/3 98/123/3 
f 78/106/3 98/123/3 4/107/3 
f 78/106/70 67/109/70 99/124/70 
f 78/106/70 99/124/70 97/122/70 
f 11/13/7 10/12/6 100/125/6 
f 11/13/7 100/125/6 14/16/10 
f 16/60/12 12/18/8 15/17/11 
f 16/60/12 15/17/11 50/57/38 
f 23/126/69 22/127/69 54/128/69 
f 23/126/69 54/128/69 101/129/69 
f 33/40/22 32/39/21 65/83/94 
f 33/40/22 65/83/94 58/76/95 
f 43/50/31 42/49/30 51/130/39 
f 43/50/31 51/130/39 59/77/58 
f 71/91/69 70/90/69 75/131/69 
f 71/91/69 75/131/69 102/132/69 
f 100/125/1 10/12/1 71/91/1 
f 100/125/1 71/91/1 102/132/1 
f 1/1/1 4/4/1 98/133/1 
f 7/7/3 6/6/2 94/119/91 
f 7/7/3 94/119/91 103/134/96 
f 19/23/15 18/22/14 96/121/93 
f 19/23/15 96/121/93 93/118/90 
f 79/110/97 80/111/97 104/135/96 
f 79/110/97 104/135/96 85/136/96 
f 92/117/98 82/44/76 81/43/75 
f 92/117/98 81/43/75 88/114/98 
f 105/137/99 84/54/78 83/53/77 
f 105/137/99 83/53/77 90/116/86 
f 95/120/92 84/62/78 105/138/99 
f 67/85/3 66/84/3 106/139/3 
f 67/85/3 106/139/3 99/140/3 
f 106/139/1 66/84/1 7/7/1 
f 106/139/1 7/7/1 103/134/1 
f 107/3/1 2/2/1 1/1/1 
f 107/3/1 1/1/1 108/4/1 
f 109/5/1 107/3/1 108/4/1 
f 110/8/100 111/7/101 112/6/102 
f 110/8/100 112/6/102 113/9/103 
f 114/12/6 110/11/100 113/10/103 
f 114/12/6 113/10/103 115/13/104 
f 116/15/105 117/14/106 115/13/104 
f 116/15/105 115/13/104 113/10/103 
f 117/18/106 15/17/11 14/16/10 
f 117/18/106 14/16/10 115/13/104 
f 116/15/105 118/20/107 119/19/108 
f 116/15/105 119/19/108 117/14/106 
f 120/23/109 121/22/110 118/21/107 
f 120/23/109 118/21/107 116/24/105 
f 122/141/111 123/142/111 124/143/111 
f 122/141/111 124/143/111 125/144/111 
f 123/142/69 126/145/69 127/146/69 
f 123/142/69 127/146/69 124/143/69 
f 126/145/112 128/147/112 129/148/112 
f 126/145/112 129/148/112 127/146/112 
f 128/147/101 130/149/101 131/150/101 
f 128/147/101 131/150/101 129/148/101 
f 132/39/113 133/38/114 134/37/115 
f 132/39/113 134/37/115 135/40/116 
f 133/38/114 136/42/117 137/41/118 
f 133/38/114 137/41/118 134/37/115 
f 137/41/118 136/42/117 138/44/119 
f 137/41/118 138/44/119 139/43/120 
f 139/43/120 138/44/119 140/46/121 
f 139/43/120 140/46/121 141/45/121 
f 142/49/122 143/48/123 144/47/124 
f 142/49/122 144/47/124 145/50/125 
f 143/48/123 146/52/126 147/51/127 
f 143/48/123 147/51/127 144/47/124 
f 147/51/127 146/52/126 148/54/128 
f 147/51/127 148/54/128 149/53/129 
f 149/53/129 148/54/128 150/56/130 
f 149/53/129 150/56/130 151/55/131 
f 142/59/122 51/58/39 50/57/38 
f 142/59/122 50/57/38 119/60/108 
f 118/21/107 148/62/128 146/61/126 
f 146/64/126 143/63/123 119/19/108 
f 146/64/126 119/19/108 118/20/107 
f 119/60/108 143/65/123 142/59/122 
f 122/66/132 54/69/42 53/68/42 
f 122/66/132 53/68/42 152/67/133 
f 123/70/134 122/66/132 152/67/133 
f 123/70/134 152/67/133 153/71/135 
f 123/70/134 153/71/135 154/72/136 
f 123/70/134 154/72/136 126/73/137 
f 126/73/137 154/72/136 155/74/138 
f 126/73/137 155/74/138 128/75/139 
f 53/68/50 58/76/50 135/40/140 
f 53/68/50 135/40/140 152/67/141 
f 152/67/141 135/40/140 134/37/142 
f 152/67/141 134/37/142 153/71/143 
f 153/71/143 134/37/142 137/41/144 
f 153/71/143 137/41/144 154/72/145 
f 155/74/146 154/72/145 137/41/144 
f 155/74/146 137/41/144 139/43/147 
f 60/78/59 59/77/58 145/50/125 
f 60/78/59 145/50/125 156/79/148 
f 156/79/148 145/50/125 144/47/124 
f 156/79/148 144/47/124 157/80/149 
f 157/80/149 144/47/124 147/51/127 
f 157/80/149 147/51/127 158/81/150 
f 158/81/150 147/51/127 149/53/129 
f 158/81/150 149/53/129 159/82/151 
f 65/83/64 60/78/59 156/79/148 
f 65/83/64 156/79/148 132/39/152 
f 132/39/152 156/79/148 157/80/149 
f 132/39/152 157/80/149 133/38/153 
f 133/38/153 157/80/149 158/81/150 
f 133/38/153 158/81/150 136/42/154 
f 138/44/155 136/42/154 158/81/150 
f 138/44/155 158/81/150 159/82/151 
f 160/86/101 161/85/101 162/84/101 
f 160/86/101 162/84/101 163/87/101 
f 164/90/156 160/89/156 163/88/156 
f 164/90/156 163/88/156 165/91/156 
f 72/94/17 2/93/17 107/92/17 
f 72/94/17 107/92/17 166/95/17 
f 166/95/156 107/92/156 109/96/156 
f 166/95/156 109/96/156 167/97/156 
f 163/87/1 162/84/1 111/7/1 
f 163/87/1 111/7/1 110/8/1 
f 165/91/1 163/88/1 110/11/1 
f 165/91/1 110/11/1 114/12/1 
f 160/99/70 164/98/70 166/95/70 
f 160/99/70 166/95/70 167/97/70 
f 164/101/70 75/100/70 72/94/70 
f 164/101/70 72/94/70 166/95/70 
f 112/6/102 120/23/109 116/24/105 
f 112/6/102 116/24/105 113/9/103 
f 121/22/110 150/102/130 148/62/128 
f 121/22/110 148/62/128 118/21/107 
f 168/103/157 130/104/157 128/75/139 
f 168/103/157 128/75/139 155/74/138 
f 168/103/158 155/74/146 139/43/147 
f 168/103/158 139/43/147 141/45/158 
f 169/105/159 159/82/151 149/53/129 
f 169/105/159 149/53/129 151/55/131 
f 140/46/160 138/44/155 159/82/151 
f 140/46/160 159/82/151 169/105/159 
f 170/106/101 167/97/101 109/96/101 
f 170/106/101 109/96/101 108/107/101 
f 170/106/70 161/109/70 160/108/70 
f 170/106/70 160/108/70 167/97/70 
f 131/150/101 130/149/101 171/151/101 
f 131/150/101 171/151/101 172/152/101 
f 173/43/161 141/45/121 140/46/121 
f 173/43/161 140/46/121 174/44/162 
f 175/53/163 151/55/131 150/56/130 
f 175/53/163 150/56/130 176/54/164 
f 171/75/165 177/74/166 86/113/80 
f 171/75/165 86/113/80 85/112/80 
f 173/43/167 88/114/82 86/113/82 
f 173/43/167 86/113/82 177/74/168 
f 175/53/163 90/116/86 89/115/85 
f 175/53/163 89/115/85 178/82/169 
f 178/82/169 89/115/85 92/117/88 
f 178/82/169 92/117/88 174/44/170 
f 112/6/102 94/119/91 93/118/90 
f 112/6/102 93/118/90 120/23/109 
f 96/121/93 95/120/92 176/62/164 
f 96/121/93 176/62/164 150/102/130 
f 121/22/110 96/121/93 150/102/130 
f 168/103/157 177/74/166 171/75/165 
f 168/103/157 171/75/165 130/104/157 
f 173/43/167 177/74/168 168/103/158 
f 173/43/167 168/103/158 141/45/158 
f 175/53/163 178/82/169 169/105/159 
f 175/53/163 169/105/159 151/55/131 
f 178/82/169 174/44/170 140/46/160 
f 178/82/169 140/46/160 169/105/159 
f 98/123/101 97/122/101 170/106/101 
f 98/123/101 170/106/101 108/107/101 
f 170/106/70 97/122/70 99/124/70 
f 170/106/70 99/124/70 161/109/70 
f 100/125/6 114/12/6 115/13/104 
f 100/125/6 115/13/104 14/16/10 
f 15/17/11 117/18/106 119/60/108 
f 15/17/11 119/60/108 50/57/38 
f 54/128/17 122/141/17 125/144/17 
f 54/128/17 125/144/17 101/129/17 
f 65/83/94 132/39/113 135/40/116 
f 65/83/94 135/40/116 58/76/95 
f 51/130/39 142/49/122 145/50/125 
f 51/130/39 145/50/125 59/77/58 
f 75/131/17 164/90/17 165/91/17 
f 75/131/17 165/91/17 102/132/17 
f 100/125/1 102/132/1 165/91/1 
f 100/125/1 165/91/1 114/12/1 
f 1/1/1 98/133/1 108/4/1 
f 94/119/91 112/6/102 111/7/101 
f 94/119/91 111/7/101 103/134/96 
f 96/121/93 121/22/110 120/23/109 
f 96/121/93 120/23/109 93/118/90 
f 104/153/96 172/152/171 171/151/171 
f 104/153/96 171/151/171 85/154/96 
f 92/117/98 88/114/98 173/43/161 
f 92/117/98 173/43/161 174/44/162 
f 105/137/99 90/116/86 175/53/163 
f 105/137/99 175/53/163 176/54/164 
f 95/120/92 105/138/99 176/62/164 
f 106/139/101 162/84/101 161/85/101 
f 106/139/101 161/85/101 99/140/101 
f 106/139/1 103/134/1 111/7/1 
f 106/139/1 111/7/1 162/84/1 
# 340 faces

