# 3ds Max Wavefront OBJ Exporter v0.97b - (c)2007 guruware
# File Created: 21.02.2011 11:32:06

#
# object sponza_382
#

v  145.1449 0.7028 -107.1575
v  145.1449 0.7028 38.5702
v  -143.3623 0.7028 38.5702
v  -143.3623 0.7028 -107.1575
v  145.1449 139.4045 38.5702
v  -143.3623 139.4045 38.5702
v  145.1449 139.4045 -107.1575
v  -143.3623 139.4045 -107.1575
# 8 vertices

vn 0.0000 -1.0000 -0.0000
vn 0.0000 0.0000 1.0000
vn 1.0000 0.0000 -0.0000
vn 0.0000 0.0000 -1.0000
vn -1.0000 0.0000 -0.0000
# 5 vertex normals

vt -3.6432 0.0000 0.0000
vt -3.6432 -3.6432 0.0000
vt -10.8559 -3.6432 0.0000
vt -10.8559 0.0000 0.0000
vt -0.0000 3.5588 0.0000
vt 7.2127 3.5588 0.0000
vt 7.2127 -0.0000 0.0000
vt -0.0000 0.0000 0.0000
vt -3.6432 3.5588 0.0000
vt -10.8559 3.5588 0.0000
vt -14.4991 3.5588 0.0000
vt -14.4991 0.0000 0.0000
# 12 texture coords

g sponza_382
f 1/1/1 2/2/1 3/3/1 
f 1/1/1 3/3/1 4/4/1 
f 5/5/2 6/6/2 3/7/2 
f 5/5/2 3/7/2 2/8/2 
f 7/9/3 5/5/3 2/8/3 
f 7/9/3 2/8/3 1/1/3 
f 8/10/4 7/9/4 1/1/4 
f 8/10/4 1/1/4 4/4/4 
f 6/11/5 8/10/5 4/4/5 
f 6/11/5 4/4/5 3/12/5 
# 10 faces

