#
# Exported by OpenBRF -- marco tarini
#
s falchion
newmtl weapons1
usemtl weapons1
v -9.7e-05 0.002784 0.620212
v -9.7e-05 0.003095 0.564032
v -0.071159 0 0.564032
v -0.067943 0 0.630441
v -9.7e-05 -0.003094 0.564032
v -9.7e-05 -0.002784 0.620212
v 0.037454 -0.003456 0.564
v 0.038963 -0.003456 0.615888
v 0.038963 0.003456 0.615888
v 0.037454 0.003456 0.564
v 0.043321 0.002145 0.713546
v 0.043321 -0.002144 0.713546
v 0.003146 -2.7e-05 0.712288
v -0.042916 0 0.679575
v 0.043827 -2e-06 0.719509
v 0.027485 -0.00432 0.221805
v 0.024137 -0.004 0.071645
v 0.024137 0.004 0.071645
v 0.027485 0.00432 0.221805
v 0.031788 0.004032 0.369289
v 0.031788 -0.004032 0.369289
v -9.7e-05 0.004 0.079043
v -9.7e-05 0.00432 0.219283
v -9.7e-05 0.004032 0.36692
v -9.7e-05 -0.00432 0.219283
v -9.7e-05 -0.004 0.079043
v -9.7e-05 -0.004032 0.36692
v -0.030378 0 0.219283
v -0.024149 0 0.071645
v -0.046695 0 0.36692
v -0.000133 -0.011208 0.079043
v 0.024191 -0.011208 0.071645
v 0.024191 0.011208 0.071645
v -0.000133 0.011208 0.079043
v -0.024204 -0.011208 0.071645
v -0.024204 0.011208 0.071645
v -0.051837 0.011827 0.070775
v -0.05172 0 0.070775
v -0.051837 -0.011827 0.070775
v 0.051708 0 0.070775
v 0.051825 0.011827 0.070775
v 0.051825 -0.011827 0.070775
v 0.084917 -0.008643 0.081952
v 0.088503 0 0.081952
v 0.084917 0.008643 0.081952
v -0.088516 0 0.081952
v -0.084929 -0.008643 0.081952
v -0.084929 0.008643 0.081952
v 0.077924 0 0.057609
v 0.074766 0.008643 0.057609
v -0.051837 0.011827 0.057607
v -0.074778 0.008643 0.057609
v -0.077936 0 0.057609
v -0.074778 -0.008643 0.057609
v -0.051837 -0.011827 0.057607
v 0.051825 0.011827 0.057607
v 0.074766 -0.008643 0.057609
v 0.051825 -0.011827 0.057607
v 0.024191 -0.011208 0.057607
v 0.024191 0.011208 0.057607
v -0.024204 -0.011208 0.057607
v -0.024204 0.011208 0.057607
v -0.000133 0.013783 0.057608
v -0.000133 -0.013783 0.057608
v 0.017013 -0.008158 0.056839
v 0.017013 0.008158 0.056839
v -0.017026 0.008159 0.056839
v -0.017026 -0.008158 0.056839
v -0.0001 -0.011503 0.056841
v -0.0001 0.011503 0.056841
v -9.8e-05 0.01263 0.045682
v -0.017424 0.008958 0.04568
v -0.017424 -0.008958 0.04568
v -9.8e-05 -0.01263 0.045682
v 0.017412 0.008958 0.04568
v 0.017412 -0.008958 0.04568
v 0.018394 -0.009463 0.001483
v 0.018394 0.009463 0.001483
v -0.018406 0.009463 0.001483
v -0.018406 -0.009463 0.001483
v -0.000103 -0.013342 0.001484
v -0.000103 0.013342 0.001484
v -6.9e-05 0.009606 -0.079724
v -0.011929 0.004769 -0.079725
v -0.011929 -0.004769 -0.079725
v -6.9e-05 -0.009606 -0.079724
v 0.011917 0.004769 -0.079725
v 0.011917 -0.004769 -0.079725
v 0.021816 -0.008982 -0.086906
v 0.021816 0.008982 -0.086906
v -0.021829 0.008982 -0.086906
v -0.021829 -0.008982 -0.086906
v -0.000121 -0.018092 -0.086905
v -0.000121 0.018092 -0.086905
v -0.000125 0.021751 -0.116583
v -0.025097 0.009256 -0.116584
v -0.025097 -0.009256 -0.116584
v -0.000125 -0.021751 -0.116583
v 0.025112 0.009256 -0.116584
v 0.025112 -0.009256 -0.116584
v 0.025078 -0.009256 -0.12613
v 0.025078 0.009256 -0.12613
v -0.025131 0.009256 -0.12613
v -0.025131 -0.009256 -0.12613
v -0.000158 -0.021751 -0.126129
v -0.000158 0.021751 -0.126129
v -9.8e-05 0.015819 -0.132932
v -0.018259 0.006732 -0.132933
v -0.018259 -0.006732 -0.132933
v -9.8e-05 -0.015819 -0.132932
v 0.018256 0.006732 -0.132933
v 0.018256 -0.006732 -0.132933
v 0 0 -0.136804
v -9.7e-05 0.003563 0.465476
v -0.058927 0 0.465476
v -9.7e-05 -0.003563 0.465476
v 0.034621 -0.003744 0.466644
v 0.034621 0.003744 0.466644
vn -0.027988 0.99949 0.015364
vt 0.144675 0.134878
vn -0.032552 0.999457 0.00514
vt 0.143735 0.121971
vn -0.051984 0.998635 0.005136
vt 0.125796 0.123277
vn -0.041834 -0.999111 0.005138
vt 0.125796 0.123277
vn -0.04079 0.99909 0.012458
vt 0.127719 0.138475
vn -0.038227 -0.999101 0.018353
vt 0.127719 0.138475
vn -0.025732 -0.999658 0.004761
vt 0.143735 0.121971
vn -0.025431 -0.999577 0.014091
vt 0.144675 0.134878
vn 0.70344 -0.710538 -0.017548
vt 0.153214 0.121273
vn 0.702264 -0.711657 -0.019214
vt 0.154463 0.133167
vn 0.701491 0.712556 -0.013228
vt 0.154463 0.133167
vn 0.70221 0.711766 -0.017039
vt 0.153214 0.121273
vn 0.701241 0.707306 0.089326
vt 0.157196 0.155524
vn 0.701393 -0.707933 0.082934
vt 0.157196 0.155524
vn -0.038203 0.990432 0.132608
vt 0.147034 0.155973
vn -0.037801 -0.990707 0.130655
vt 0.147034 0.155973
vn -0.038073 0.999087 0.019392
vt 0.134859 0.149303
vn -0.036283 -0.998855 0.031179
vt 0.134859 0.149303
vn 0.693579 -0.694681 0.1907
vt 0.157424 0.156884
vn 0.693136 0.694932 0.191394
vt 0.157424 0.156884
vn 0.824638 -0.000336 0.565661
vt 0.157424 0.156884
vn 0.706721 -0.707256 -0.018311
vt 0.144974 0.042837
vn 0.400586 -0.296203 0.867061
vt 0.141617 0.00839901
vn 0.400586 -0.296203 0.867061
vt 0.277316 0.055279
vn 0.400719 0.295172 0.867351
vt 0.141617 0.00839901
vn 0.400719 0.295172 0.867351
vt 0.277315 0.055279
vn 0.706731 0.707247 -0.018254
vt 0.144974 0.042837
vn 0.706768 0.707194 -0.01886
vt 0.148527 0.076642
vn 0.706753 -0.707225 -0.018225
vt 0.148527 0.076642
vn -0.060152 0.719287 0.692104
vt 0.135623 0.010544
vn -0.060152 0.719287 0.692104
vt 0.284854 0.056439
vn -0.06274 0.998025 -0.002993
vt 0.137969 0.042764
vn -0.043234 0.999065 3.2e-05
vt 0.140438 0.076684
vn -0.062405 -0.99805 -0.001307
vt 0.137969 0.042764
vn -0.059683 -0.720855 0.690512
vt 0.135623 0.010544
vn -0.059683 -0.720855 0.690512
vt 0.284854 0.056439
vn -0.043266 -0.999063 -0.000511
vt 0.140438 0.076684
vn -0.124194 -0.992255 -0.002448
vt 0.130325 0.043321
vn -0.124888 0.992153 -0.005894
vt 0.130325 0.043321
vn -0.197813 -0.240261 0.950339
vt 0.129427 0.00928599
vn -0.197933 0.23985 0.950418
vt 0.129427 0.00928599
vn -0.242668 -0.000102 0.970109
vt 0.292335 0.055279
vn -0.086203 -0.996268 -0.004377
vt 0.128675 0.07754
vn -0.086206 0.996274 -0.002394
vt 0.128675 0.07754
vn 0.012108 -0.700126 0.713916
vt 0.284865 0.056439
vn 0.116439 -0.688014 0.716295
vt 0.277299 0.055279
vn 0.107089 0.710346 0.695658
vt 0.277299 0.055279
vn -0.013517 0.699441 0.714563
vt 0.284865 0.056439
vn -0.107726 -0.710559 0.695343
vt 0.292352 0.055279
vn -0.11728 0.687494 0.716657
vt 0.292352 0.055279
vn 0.067863 0.690328 0.720307
vt 0.300948 0.055143
vn 0.141486 -0.035466 0.989305
vt 0.300912 0.055143
vn 0.06155 -0.720997 0.690199
vt 0.300948 0.055143
vn -0.104329 -0.024974 0.994229
vt 0.268739 0.055143
vn -0.053396 0.701646 0.710522
vt 0.268703 0.055143
vn -0.076791 -0.714086 0.695833
vt 0.268703 0.055143
vn -0.160575 -0.716 0.679382
vt 0.258409 0.05543
vn 0.5646 -0.797703 -0.211891
vt 0.258409 0.05543
vn 0.396238 -0.842364 0.365264
vt 0.258409 0.05543
vn -0.304691 -0.061566 0.950459
vt 0.257293 0.05543
vn 0.919845 -0.021226 -0.391707
vt 0.257293 0.05543
vn -0.120549 0.692498 0.711277
vt 0.258409 0.05543
vn 0.590197 0.765897 -0.255087
vt 0.258409 0.05543
vn 0.485431 0.80208 0.347885
vt 0.258409 0.05543
vn 0.31047 -0.069826 0.948015
vt 0.312357 0.05543
vn -0.919925 -0.019205 -0.391623
vt 0.312357 0.05543
vn 0.131863 -0.73151 0.668959
vt 0.311242 0.05543
vn -0.422345 -0.842156 0.335259
vt 0.311242 0.05543
vn -0.565572 -0.787573 -0.244658
vt 0.311242 0.05543
vn 0.149402 0.667058 0.729872
vt 0.311242 0.05543
vn -0.463958 0.796898 0.386906
vt 0.311242 0.05543
vn -0.597033 0.772829 -0.215143
vt 0.311242 0.05543
vn 0.534591 -0.012321 -0.845021
vt 0.260584 0.053079
vn 0.460531 0.59758 -0.656361
vt 0.261567 0.053079
vn -0.031999 0.552544 -0.832869
vt 0.300948 0.053079
vn -0.47176 0.61062 -0.636071
vt 0.308084 0.053079
vn -0.534656 -0.011157 -0.844996
vt 0.309067 0.053079
vn -0.443433 -0.617453 -0.649706
vt 0.308084 0.053079
vn -0.031093 -0.697278 -0.716126
vt 0.300948 0.053079
vn 0.031536 0.545001 -0.837842
vt 0.268703 0.053079
vn 0.446759 -0.631137 -0.634092
vt 0.261567 0.053079
vn 0.026001 -0.706009 -0.707725
vt 0.268703 0.053079
vn 0.042159 -0.633056 -0.772957
vt 0.277299 0.053079
vn 0.028322 0.593958 -0.803998
vt 0.277299 0.053079
vn -0.028371 -0.593877 -0.804055
vt 0.292352 0.053079
vn -0.042339 0.632863 -0.773105
vt 0.292352 0.053079
vn -0.016102 0.811092 -0.584697
vt 0.284865 0.053079
vn 0.015834 -0.811185 -0.584575
vt 0.284865 0.053079
vn 0.513386 -0.500159 -0.697335
vt 0.279082 0.052923
vn 0.513386 -0.500159 -0.697335
vt 0.819809 0.095544
vn 0.513491 0.458289 -0.725464
vt 0.279082 0.052923
vn 0.513491 0.458289 -0.725464
vt 0.819809 0.095544
vn -0.51411 0.499505 -0.69727
vt 0.290569 0.052923
vn -0.51411 0.499505 -0.69727
vt 0.830408 0.095544
vn -0.514196 -0.457834 -0.725252
vt 0.290569 0.052923
vn -0.514196 -0.457834 -0.725252
vt 0.830408 0.095544
vn 0.003404 -0.815874 -0.57822
vt 0.284857 0.052923
vn 0.003404 -0.815874 -0.57822
vt 0.825138 0.095544
vn -0.004896 0.815758 -0.578373
vt 0.284857 0.052923
vn -0.004896 0.815758 -0.578373
vt 0.825138 0.095544
vn -0.000957 0.998602 0.052856
vt 0.825137 0.092689
vn -0.774136 0.630575 0.055576
vt 0.830542 0.092688
vn -0.77417 -0.631109 0.048601
vt 0.830542 0.092688
vn -0.001145 -0.998599 0.052897
vt 0.825137 0.092689
vn 0.773505 0.631923 0.048616
vt 0.819675 0.092688
vn 0.773471 -0.631384 0.055648
vt 0.819675 0.092688
vn 0.7757 -0.630486 -0.027858
vt 0.819132 0.081142
vn 0.775685 0.630045 -0.036839
vt 0.819132 0.081142
vn -0.77637 0.629661 -0.02787
vt 0.831086 0.081142
vn -0.776355 -0.629219 -0.036839
vt 0.831086 0.081142
vn -0.000974 -0.999756 -0.022053
vt 0.82514 0.081142
vn -0.001147 0.999756 -0.022056
vt 0.82514 0.081142
vn -3e-06 0.92209 0.386976
vt 0.825131 0.059927
vn -3e-06 0.92209 0.386976
vt 0.160611 0.074255
vn -0.690533 0.540476 0.480677
vt 0.829412 0.059927
vn -0.690533 0.540476 0.480677
vt 0.154882 0.073913
vn -0.694354 -0.545403 0.469476
vt 0.829412 0.059927
vn -0.694354 -0.545403 0.469476
vt 0.154882 0.073913
vn -0.002229 -0.922076 0.387002
vt 0.825131 0.059927
vn -0.002229 -0.922076 0.387002
vt 0.160611 0.074255
vn 0.693455 0.546623 0.469385
vt 0.820805 0.059927
vn 0.693455 0.546623 0.469385
vt 0.1664 0.074602
vn 0.689639 -0.541667 0.48062
vt 0.820805 0.059927
vn 0.689639 -0.541667 0.48062
vt 0.1664 0.074602
vn 0.686006 -0.478091 0.548475
vt 0.169767 0.077953
vn 0.693835 0.486936 0.530552
vt 0.169767 0.077953
vn -0.687215 0.476687 0.548183
vt 0.151139 0.076838
vn -0.695042 -0.485479 0.530308
vt 0.151139 0.076838
vn -0.003267 -0.884936 0.465702
vt 0.160404 0.077392
vn 0.000265 0.884965 0.465658
vt 0.160404 0.077392
vn -0.001439 0.998978 0.045165
vt 0.159627 0.090362
vn -0.840087 0.538216 0.067657
vt 0.148968 0.089725
vn -0.84053 -0.539523 0.049234
vt 0.148968 0.089725
vn -0.002522 -0.998975 0.045191
vt 0.159627 0.090362
vn 0.839556 0.541277 0.04653
vt 0.170398 0.091007
vn 0.839157 -0.53999 0.065011
vt 0.170398 0.091007
vn 0.768511 -0.492961 -0.407898
vt 0.170134 0.095178
vn 0.768511 0.492961 -0.407898
vt 0.170134 0.095178
vn -0.769978 0.491601 -0.40677
vt 0.148704 0.093896
vn -0.769979 -0.491601 -0.40677
vt 0.148704 0.093896
vn -0.001644 -0.933427 -0.358765
vt 0.159363 0.094533
vn -0.001643 0.933427 -0.358764
vt 0.159363 0.094533
vn -0.00066 0.512012 -0.858978
vt 0.159211 0.097507
vn -0.376013 0.255772 -0.890615
vt 0.151459 0.097044
vn -0.376016 -0.255777 -0.890612
vt 0.151459 0.097044
vn -0.000661 -0.512019 -0.858974
vt 0.159211 0.097507
vn 0.376459 0.257414 -0.889953
vt 0.167044 0.097976
vn 0.376461 -0.257418 -0.889951
vt 0.167044 0.097976
vn -0.000182 -6e-06 -1
vt 0.159151 0.099202
vn -0.039151 0.999224 0.004304
vt 0.142087 0.099327
vn -0.073338 0.997296 0.004743
vt 0.127236 0.100408
vn -0.064868 -0.997889 -0.002974
vt 0.127236 0.100408
vn -0.03494 -0.999389 0.000512
vt 0.142087 0.099327
vn 0.705085 -0.708899 -0.017789
vt 0.15087 0.098958
vn 0.705108 0.708875 -0.017886
vt 0.15087 0.098958
f 1/1/1 2/2/2 3/3/3
f 3/3/3 4/5/5 1/1/1
f 5/7/7 6/8/8 4/6/6
f 4/6/6 3/4/4 5/7/7
f 6/8/8 5/7/7 7/9/9
f 7/9/9 8/10/10 6/8/8
f 2/2/2 1/1/1 9/11/11
f 9/11/11 10/12/12 2/2/2
f 10/12/12 9/11/11 8/10/10
f 8/10/10 7/9/9 10/12/12
f 8/10/10 9/11/11 11/13/13
f 11/13/13 12/14/14 8/10/10
f 9/11/11 1/1/1 13/15/15
f 13/15/15 11/13/13 9/11/11
f 6/8/8 8/10/10 12/14/14
f 12/14/14 13/16/16 6/8/8
f 1/1/1 4/5/5 14/17/17
f 14/17/17 13/15/15 1/1/1
f 4/6/6 6/8/8 13/16/16
f 13/16/16 14/18/18 4/6/6
f 13/16/16 12/14/14 15/19/19
f 11/13/13 13/15/15 15/20/20
f 12/14/14 11/13/13 15/21/21
f 16/22/22 17/23/23 18/25/25
f 18/25/25 19/27/27 16/22/22
f 19/27/27 20/28/28 21/29/29
f 21/29/29 16/22/22 19/27/27
f 19/27/27 18/25/25 22/30/30
f 22/30/30 23/32/32 19/27/27
f 23/32/32 24/33/33 20/28/28
f 20/28/28 19/27/27 23/32/32
f 25/34/34 26/35/35 17/23/23
f 17/23/23 16/22/22 25/34/34
f 16/22/22 21/29/29 27/37/37
f 27/37/37 25/34/34 16/22/22
f 28/38/38 29/40/40 26/35/35
f 26/35/35 25/34/34 28/38/38
f 25/34/34 27/37/37 30/43/43
f 30/43/43 28/38/38 25/34/34
f 23/32/32 22/30/30 29/41/41
f 29/41/41 28/39/39 23/32/32
f 28/39/39 30/44/44 24/33/33
f 24/33/33 23/32/32 28/39/39
f 17/24/24 26/36/36 31/45/45
f 31/45/45 32/46/46 17/24/24
f 22/31/31 18/26/26 33/47/47
f 33/47/47 34/48/48 22/31/31
f 26/36/36 29/42/42 35/49/49
f 35/49/49 31/45/45 26/36/36
f 29/42/42 22/31/31 34/48/48
f 34/48/48 36/50/50 29/42/42
f 36/50/50 37/51/51 38/52/52
f 38/52/52 29/42/42 36/50/50
f 35/49/49 29/42/42 38/52/52
f 38/52/52 39/53/53 35/49/49
f 18/26/26 40/54/54 41/55/55
f 41/55/55 33/47/47 18/26/26
f 17/24/24 32/46/46 42/56/56
f 42/56/56 40/54/54 17/24/24
f 18/26/26 17/24/24 40/54/54
f 40/54/54 42/56/56 43/57/57
f 43/57/57 44/60/60 40/54/54
f 40/54/54 44/60/60 45/62/62
f 45/62/62 41/55/55 40/54/54
f 39/53/53 38/52/52 46/65/65
f 46/65/65 47/67/67 39/53/53
f 37/51/51 48/70/70 46/65/65
f 46/65/65 38/52/52 37/51/51
f 44/61/61 49/73/73 50/74/74
f 50/74/74 45/63/63 44/61/61
f 37/51/51 51/75/75 52/76/76
f 52/76/76 48/71/71 37/51/51
f 48/72/72 52/76/76 53/77/77
f 53/77/77 46/66/66 48/72/72
f 39/53/53 47/68/68 54/78/78
f 54/78/78 55/79/79 39/53/53
f 47/69/69 46/66/66 53/77/77
f 53/77/77 54/78/78 47/69/69
f 45/64/64 50/74/74 56/80/80
f 56/80/80 41/55/55 45/64/64
f 44/61/61 43/58/58 57/81/81
f 57/81/81 49/73/73 44/61/61
f 43/59/59 42/56/56 58/82/82
f 58/82/82 57/81/81 43/59/59
f 42/56/56 32/46/46 59/83/83
f 59/83/83 58/82/82 42/56/56
f 41/55/55 56/80/80 60/84/84
f 60/84/84 33/47/47 41/55/55
f 35/49/49 39/53/53 55/79/79
f 55/79/79 61/85/85 35/49/49
f 36/50/50 62/86/86 51/75/75
f 51/75/75 37/51/51 36/50/50
f 36/50/50 34/48/48 63/87/87
f 63/87/87 62/86/86 36/50/50
f 31/45/45 35/49/49 61/85/85
f 61/85/85 64/88/88 31/45/45
f 34/48/48 33/47/47 60/84/84
f 60/84/84 63/87/87 34/48/48
f 32/46/46 31/45/45 64/88/88
f 64/88/88 59/83/83 32/46/46
f 55/79/79 51/75/75 62/86/86
f 62/86/86 61/85/85 55/79/79
f 56/80/80 58/82/82 59/83/83
f 59/83/83 60/84/84 56/80/80
f 60/84/84 59/83/83 65/89/89
f 65/89/89 66/91/91 60/84/84
f 61/85/85 62/86/86 67/93/93
f 67/93/93 68/95/95 61/85/85
f 59/83/83 64/88/88 69/97/97
f 69/97/97 65/89/89 59/83/83
f 63/87/87 60/84/84 66/91/91
f 66/91/91 70/99/99 63/87/87
f 64/88/88 61/85/85 68/95/95
f 68/95/95 69/97/97 64/88/88
f 62/86/86 63/87/87 70/99/99
f 70/99/99 67/93/93 62/86/86
f 67/94/94 70/100/100 71/101/101
f 71/101/101 72/102/102 67/94/94
f 69/98/98 68/96/96 73/103/103
f 73/103/103 74/104/104 69/98/98
f 70/100/100 66/92/92 75/105/105
f 75/105/105 71/101/101 70/100/100
f 65/90/90 69/98/98 74/104/104
f 74/104/104 76/106/106 65/90/90
f 68/96/96 67/94/94 72/102/102
f 72/102/102 73/103/103 68/96/96
f 66/92/92 65/90/90 76/106/106
f 76/106/106 75/105/105 66/92/92
f 75/105/105 76/106/106 77/107/107
f 77/107/107 78/108/108 75/105/105
f 73/103/103 72/102/102 79/109/109
f 79/109/109 80/110/110 73/103/103
f 76/106/106 74/104/104 81/111/111
f 81/111/111 77/107/107 76/106/106
f 71/101/101 75/105/105 78/108/108
f 78/108/108 82/112/112 71/101/101
f 74/104/104 73/103/103 80/110/110
f 80/110/110 81/111/111 74/104/104
f 72/102/102 71/101/101 82/112/112
f 82/112/112 79/109/109 72/102/102
f 79/109/109 82/112/112 83/113/113
f 83/113/113 84/115/115 79/109/109
f 81/111/111 80/110/110 85/117/117
f 85/117/117 86/119/119 81/111/111
f 82/112/112 78/108/108 87/121/121
f 87/121/121 83/113/113 82/112/112
f 77/107/107 81/111/111 86/119/119
f 86/119/119 88/123/123 77/107/107
f 80/110/110 79/109/109 84/115/115
f 84/115/115 85/117/117 80/110/110
f 78/108/108 77/107/107 88/123/123
f 88/123/123 87/121/121 78/108/108
f 52/76/76 51/75/75 53/77/77
f 54/78/78 53/77/77 51/75/75
f 51/75/75 55/79/79 54/78/78
f 50/74/74 49/73/73 56/80/80
f 57/81/81 58/82/82 56/80/80
f 56/80/80 49/73/73 57/81/81
f 87/122/122 88/124/124 89/125/125
f 89/125/125 90/126/126 87/122/122
f 85/118/118 84/116/116 91/127/127
f 91/127/127 92/128/128 85/118/118
f 88/124/124 86/120/120 93/129/129
f 93/129/129 89/125/125 88/124/124
f 83/114/114 87/122/122 90/126/126
f 90/126/126 94/130/130 83/114/114
f 86/120/120 85/118/118 92/128/128
f 92/128/128 93/129/129 86/120/120
f 84/116/116 83/114/114 94/130/130
f 94/130/130 91/127/127 84/116/116
f 91/127/127 94/130/130 95/131/131
f 95/131/131 96/132/132 91/127/127
f 93/129/129 92/128/128 97/133/133
f 97/133/133 98/134/134 93/129/129
f 94/130/130 90/126/126 99/135/135
f 99/135/135 95/131/131 94/130/130
f 89/125/125 93/129/129 98/134/134
f 98/134/134 100/136/136 89/125/125
f 92/128/128 91/127/127 96/132/132
f 96/132/132 97/133/133 92/128/128
f 90/126/126 89/125/125 100/136/136
f 100/136/136 99/135/135 90/126/126
f 99/135/135 100/136/136 101/137/137
f 101/137/137 102/138/138 99/135/135
f 97/133/133 96/132/132 103/139/139
f 103/139/139 104/140/140 97/133/133
f 100/136/136 98/134/134 105/141/141
f 105/141/141 101/137/137 100/136/136
f 95/131/131 99/135/135 102/138/138
f 102/138/138 106/142/142 95/131/131
f 98/134/134 97/133/133 104/140/140
f 104/140/140 105/141/141 98/134/134
f 96/132/132 95/131/131 106/142/142
f 106/142/142 103/139/139 96/132/132
f 103/139/139 106/142/142 107/143/143
f 107/143/143 108/144/144 103/139/139
f 105/141/141 104/140/140 109/145/145
f 109/145/145 110/146/146 105/141/141
f 106/142/142 102/138/138 111/147/147
f 111/147/147 107/143/143 106/142/142
f 101/137/137 105/141/141 110/146/146
f 110/146/146 112/148/148 101/137/137
f 104/140/140 103/139/139 108/144/144
f 108/144/144 109/145/145 104/140/140
f 102/138/138 101/137/137 112/148/148
f 112/148/148 111/147/147 102/138/138
f 111/147/147 112/148/148 113/149/149
f 109/145/145 108/144/144 113/149/149
f 112/148/148 110/146/146 113/149/149
f 107/143/143 111/147/147 113/149/149
f 110/146/146 109/145/145 113/149/149
f 108/144/144 107/143/143 113/149/149
f 114/150/150 24/33/33 30/44/44
f 30/44/44 115/151/151 114/150/150
f 2/2/2 114/150/150 115/151/151
f 115/151/151 3/3/3 2/2/2
f 115/152/152 30/43/43 27/37/37
f 27/37/37 116/153/153 115/152/152
f 116/153/153 5/7/7 3/4/4
f 3/4/4 115/152/152 116/153/153
f 116/153/153 27/37/37 21/29/29
f 21/29/29 117/154/154 116/153/153
f 117/154/154 7/9/9 5/7/7
f 5/7/7 116/153/153 117/154/154
f 118/155/155 20/28/28 24/33/33
f 24/33/33 114/150/150 118/155/155
f 114/150/150 2/2/2 10/12/12
f 10/12/12 118/155/155 114/150/150
f 117/154/154 21/29/29 20/28/28
f 20/28/28 118/155/155 117/154/154
f 118/155/155 10/12/12 7/9/9
f 7/9/9 117/154/154 118/155/155
