#
# Exported by OpenBRF -- marco tarini
#
s great_ax
newmtl weapons1
usemtl weapons1
v -0.026999 -0.003226 0.996106
v -0.06666 -0.010041 0.996106
v -0.06666 0.0127 0.996106
v -0.026998 0.005871 0.996106
v -0.026999 -0.003226 1.10402
v -0.026999 0.005871 1.10402
v -0.06666 0.0127 1.10402
v -0.06666 -0.010041 1.10402
v 0.001931 0.019515 0.996106
v 0.00211 0.026745 0.996106
v 0.001931 0.019515 1.10402
v 0.00211 0.026745 1.10402
v 0.014306 0.010419 0.996106
v 0.021547 0.014726 0.996106
v 0.014306 0.010419 1.10402
v 0.021547 0.014726 1.10402
v 0.014306 -0.007774 0.996106
v 0.021547 -0.012082 0.996106
v 0.014306 -0.007774 1.10402
v 0.021547 -0.012082 1.10402
v 0.001931 -0.016871 0.996106
v 0.00211 -0.0241 0.996106
v 0.001931 -0.016871 1.10402
v 0.00211 -0.0241 1.10402
v -0.095637 0.010027 0.989598
v -0.095637 0.010027 1.10403
v -0.095637 -0.007369 1.10403
v -0.095637 -0.007369 0.989598
v -0.024968 -0.003226 1.1322
v -0.024968 0.005871 1.1322
v 0.001931 0.019515 1.1322
v 0.014306 0.010419 1.1322
v 0.014306 -0.007774 1.1322
v 0.001931 -0.016871 1.1322
v -0.004836 -0.009593 1.14679
v -0.018738 -0.001407 1.14134
v 0.007341 -0.004136 1.14243
v 0.007341 0.00678 1.14243
v -0.004836 0.012238 1.14679
v -0.018738 0.004051 1.14134
v -0.027871 -0.003226 0.897513
v 0.000569 -0.016871 0.886002
v 0.012734 -0.007774 0.881079
v 0.012734 0.010419 0.881079
v 0.000569 0.019515 0.886002
v -0.027871 0.005871 0.897513
v -0.023963 0.005202 0.297526
v -0.023963 -0.002557 0.297526
v 0.000714 0.016841 0.297526
v 0.01127 0.009082 0.297526
v 0.01127 -0.006437 0.297526
v 0.000714 -0.014196 0.297526
v -0.016876 -0.002134 -0.140896
v -0.016876 0.004779 -0.140896
v -0.018121 0.005512 -0.344524
v -0.018122 -0.002868 -0.344524
v 0.004778 0.015149 -0.13261
v 0.008529 0.018082 -0.344017
v 0.01404 0.008236 -0.129066
v 0.019929 0.009702 -0.3438
v 0.01404 -0.005591 -0.129066
v 0.019929 -0.007058 -0.3438
v 0.004778 -0.012505 -0.13261
v 0.008529 -0.015438 -0.344017
v -0.011102 0.004255 -0.362298
v -0.011102 -0.001611 -0.362298
v 0.00985 0.013054 -0.361899
v 0.018467 0.007188 -0.356005
v 0.018467 -0.004544 -0.356005
v 0.00985 -0.01041 -0.361899
v -0.123995 0.007001 1.10408
v -0.127749 0.007001 0.948633
v -0.127749 -0.004343 0.948633
v -0.123995 -0.004343 1.10408
v -0.151319 0.005983 0.873971
v -0.151319 -0.003325 0.873971
v -0.170683 0.005983 1.10567
v -0.269254 0.002638 1.10571
v -0.269254 1.8e-05 1.10571
v -0.170683 -0.003325 1.10567
v -0.145724 -0.003325 0.800524
v -0.145724 0.005983 0.800524
v -0.234355 0.002635 0.818658
v -0.201376 0.00264 0.739299
v -0.234355 1.8e-05 0.81865
v -0.201376 1.8e-05 0.739299
v -0.168092 0.005983 1.0315
v -0.27045 0.002637 1.03407
v -0.168092 -0.003325 1.0315
v -0.27045 1.8e-05 1.03406
v -0.260571 0.002636 0.927059
v -0.260571 1.8e-05 0.927053
v -0.174687 0.00264 0.683288
v -0.174687 1.8e-05 0.683288
v -0.127741 -0.003325 0.724973
v -0.127741 0.005983 0.724973
vn -0.546945 -0.346765 -0.761974
vt 0.67131 0.173141
vn -0.546945 -0.346765 -0.761974
vt 0.834798 0.128195
vn -0.020431 -0.552978 -0.832945
vt 0.674927 0.173363
vn -0.02038 0.552985 -0.832942
vt 0.674927 0.173363
vn -0.547184 0.346922 -0.761731
vt 0.67131 0.173141
vn -0.547184 0.346922 -0.761731
vt 0.834798 0.128195
vn -0.528227 -0.335391 0.780057
vt 0.670609 0.184537
vn -0.528227 -0.335391 0.780057
vt 0.834798 0.140515
vn -0.535609 0.329355 0.777591
vt 0.670609 0.184537
vn -0.535609 0.329355 0.777591
vt 0.834798 0.140515
vn -0.080966 0.548173 0.832437
vt 0.674226 0.18476
vn -0.081017 -0.548163 0.832438
vt 0.674226 0.18476
vn 0.062783 0.648075 -0.758984
vt 0.66613 0.172822
vn 0.062783 0.648075 -0.758984
vt 0.826923 0.128195
vn 0.119325 0.670293 -0.732441
vt 0.666098 0.17282
vn 0.052847 0.640019 0.766539
vt 0.665428 0.184219
vn 0.052847 0.640019 0.766539
vt 0.826923 0.140515
vn 0.119325 0.670293 0.73244
vt 0.665396 0.184217
vn 0.59043 0.298789 -0.749745
vt 0.663914 0.172686
vn 0.59043 0.298789 -0.749745
vt 0.823555 0.128195
vn 0.574624 0.320284 -0.753144
vt 0.662617 0.172606
vn 0.594042 0.300605 0.746158
vt 0.663212 0.184082
vn 0.594042 0.300605 0.746158
vt 0.823555 0.140515
vn 0.574624 0.320284 0.753144
vt 0.661916 0.184002
vn 0.590557 -0.298854 -0.749619
vt 0.663914 0.172686
vn 0.590557 -0.298854 -0.749619
vt 0.823555 0.128195
vn 0.574623 -0.320285 -0.753144
vt 0.662617 0.172606
vn 0.594042 -0.300605 0.746158
vt 0.663212 0.184082
vn 0.594042 -0.300605 0.746158
vt 0.823555 0.140515
vn 0.574623 -0.320285 0.753144
vt 0.661916 0.184002
vn 0.062769 -0.64794 -0.7591
vt 0.66613 0.172822
vn 0.062769 -0.64794 -0.7591
vt 0.826923 0.128195
vn 0.119258 -0.670291 -0.732453
vt 0.666098 0.17282
vn 0.062368 -0.642812 0.763481
vt 0.665428 0.184219
vn 0.062368 -0.642812 0.763481
vt 0.826923 0.140515
vn 0.119258 -0.670291 0.732453
vt 0.665396 0.184217
vn 0.302241 0.74425 -0.595602
vt 0.679494 0.172932
vn -0.069278 0.703661 0.707151
vt 0.678749 0.185039
vn -0.064931 -0.704086 0.70714
vt 0.678749 0.185039
vn 0.306302 -0.74342 -0.594563
vt 0.679494 0.172932
vn -0.825358 -0.509703 0.242873
vt 0.834246 0.143732
vn -0.828007 0.442582 0.344277
vt 0.834246 0.143732
vn 0.019392 0.937221 0.348197
vt 0.826923 0.143732
vn 0.844632 0.425081 0.325427
vt 0.823555 0.143732
vn 0.84469 -0.422725 0.328333
vt 0.823555 0.143732
vn 0.035654 -0.972186 0.23148
vt 0.826923 0.143732
vn -0.025705 -0.493534 0.869347
vt 0.828765 0.145397
vn -0.685488 -0.324704 0.65167
vt 0.83255 0.144776
vn 0.606722 -0.238806 0.758195
vt 0.825451 0.1449
vn 0.607985 0.242327 0.756064
vt 0.825451 0.1449
vn -0.032896 0.40147 0.915281
vt 0.828765 0.145397
vn -0.642033 0.229984 0.731369
vt 0.83255 0.144776
vn -0.845639 -0.533755 0.000673
vt 0.835036 0.11694
vn 0.096183 -0.995359 -0.003173
vt 0.827294 0.115626
vn 0.893029 -0.449935 -0.007558
vt 0.823983 0.115064
vn 0.893034 0.449922 -0.007728
vt 0.823983 0.115064
vn 0.096162 0.995361 -0.00302
vt 0.827294 0.115626
vn -0.845652 0.533734 0.001008
vt 0.835036 0.11694
vn -0.845602 0.533716 -0.010242
vt 0.833972 0.08622
vn -0.84559 -0.533737 -0.010079
vt 0.833972 0.08622
vn 0.096169 0.995358 -0.003757
vt 0.827255 0.08622
vn 0.893063 0.449931 0.00086
vt 0.824381 0.08622
vn 0.893057 -0.449943 0.000766
vt 0.824381 0.08622
vn 0.09619 -0.995356 -0.003693
vt 0.827255 0.08622
vn -0.844571 -0.535433 -0.003482
vt 0.832043 0.043149
vn -0.844561 0.535446 -0.0038
vt 0.832043 0.043149
vn -0.826053 0.531043 -0.188757
vt 0.832382 0.018376
vn -0.827441 -0.534083 -0.173484
vt 0.832382 0.018376
vn 0.096296 0.995333 0.006218
vt 0.826149 0.044095
vn 0.09915 0.985143 -0.140224
vt 0.825128 0.018434
vn 0.892101 0.451543 0.01627
vt 0.823627 0.044499
vn 0.890563 0.446939 -0.084518
vt 0.822024 0.018458
vn 0.892102 -0.451544 0.016205
vt 0.823627 0.044499
vn 0.890864 -0.448844 -0.070008
vt 0.822024 0.018458
vn 0.096293 -0.995332 0.006463
vt 0.826149 0.044095
vn 0.098774 -0.988996 -0.11014
vt 0.825128 0.018434
vn -0.578028 0.382555 -0.720788
vt 0.830471 0.016347
vn -0.587897 -0.392247 -0.707474
vt 0.830471 0.016347
vn 0.256045 0.559336 -0.788406
vt 0.824768 0.016392
vn 0.834427 0.305372 -0.45878
vt 0.822422 0.017065
vn 0.841743 -0.310806 -0.441439
vt 0.822422 0.017065
vn 0.261827 -0.579445 -0.771809
vt 0.824768 0.016392
vn -0.032209 0.831189 0.555056
vt 0.683514 0.185338
vn 0.591563 0.732459 -0.336982
vt 0.683598 0.170785
vn 0.589039 -0.734242 -0.337522
vt 0.683598 0.170785
vn -0.035083 -0.831075 0.555052
vt 0.683514 0.185338
vn 0.525205 0.848464 -0.065326
vt 0.686793 0.166268
vn 0.411008 -0.90987 -0.056647
vt 0.686793 0.166268
vn -0.007531 0.707085 0.707089
vt 0.68833 0.185637
vn -0.586794 0.567495 0.5776
vt 0.700497 0.186388
vn -0.587122 -0.567812 0.576956
vt 0.700497 0.186388
vn -0.007527 -0.70739 0.706784
vt 0.68833 0.185637
vn 0.685428 -0.721311 0.099497
vt 0.687281 0.160689
vn 0.682165 0.723446 0.10619
vt 0.687281 0.160689
vn -0.684129 0.696164 -0.21754
vt 0.698332 0.162848
vn -0.66214 0.692335 -0.28678
vt 0.695327 0.156192
vn -0.68313 -0.695422 -0.222983
vt 0.698332 0.162847
vn -0.658354 -0.693125 -0.29351
vt 0.695327 0.156192
vn -0.028963 0.99958 -0.001222
vt 0.688433 0.179595
vn -0.717768 0.695756 -0.027053
vt 0.700978 0.180576
vn -0.033669 -0.999433 -0.001063
vt 0.688433 0.179595
vn -0.717718 -0.695778 -0.027798
vt 0.700978 0.180576
vn -0.708042 0.696552 -0.11615
vt 0.700238 0.171805
vn -0.708524 -0.695754 -0.117984
vt 0.700238 0.171804
vn -0.181307 0.632479 -0.753059
vt 0.692437 0.151123
vn -0.175652 -0.630905 -0.755715
vt 0.692437 0.151123
vn 0.8156 -0.510092 -0.273134
vt 0.686221 0.154786
vn 0.8151 0.512263 -0.270554
vt 0.686221 0.154786
f 1/1/1 2/3/3 3/4/4
f 3/4/4 4/5/5 1/1/1
f 5/7/7 6/9/9 7/11/11
f 7/11/11 8/12/12 5/7/7
f 9/13/13 4/5/5 3/4/4
f 3/4/4 10/15/15 9/13/13
f 6/9/9 11/16/16 12/18/18
f 12/18/18 7/11/11 6/9/9
f 13/19/19 9/13/13 10/15/15
f 10/15/15 14/21/21 13/19/19
f 11/16/16 15/22/22 16/24/24
f 16/24/24 12/18/18 11/16/16
f 17/25/25 13/19/19 14/21/21
f 14/21/21 18/27/27 17/25/25
f 15/22/22 19/28/28 20/30/30
f 20/30/30 16/24/24 15/22/22
f 21/31/31 17/25/25 18/27/27
f 18/27/27 22/33/33 21/31/31
f 19/28/28 23/34/34 24/36/36
f 24/36/36 20/30/30 19/28/28
f 1/1/1 21/31/31 22/33/33
f 22/33/33 2/3/3 1/1/1
f 23/34/34 5/7/7 8/12/12
f 8/12/12 24/36/36 23/34/34
f 8/12/12 2/3/3 22/33/33
f 22/33/33 24/36/36 8/12/12
f 24/36/36 22/33/33 18/27/27
f 18/27/27 20/30/30 24/36/36
f 20/30/30 18/27/27 14/21/21
f 14/21/21 16/24/24 20/30/30
f 16/24/24 14/21/21 10/15/15
f 10/15/15 12/18/18 16/24/24
f 12/18/18 10/15/15 3/4/4
f 3/4/4 7/11/11 12/18/18
f 7/11/11 3/4/4 25/37/37
f 25/37/37 26/38/38 7/11/11
f 2/3/3 8/12/12 27/39/39
f 27/39/39 28/40/40 2/3/3
f 8/12/12 7/11/11 26/38/38
f 26/38/38 27/39/39 8/12/12
f 2/3/3 28/40/40 25/37/37
f 25/37/37 3/4/4 2/3/3
f 5/8/8 29/41/41 30/42/42
f 30/42/42 6/10/10 5/8/8
f 6/10/10 30/42/42 31/43/43
f 31/43/43 11/17/17 6/10/10
f 11/17/17 31/43/43 32/44/44
f 32/44/44 15/23/23 11/17/17
f 15/23/23 32/44/44 33/45/45
f 33/45/45 19/29/29 15/23/23
f 19/29/29 33/45/45 34/46/46
f 34/46/46 23/35/35 19/29/29
f 29/41/41 5/8/8 23/35/35
f 23/35/35 34/46/46 29/41/41
f 34/46/46 35/47/47 36/48/48
f 36/48/48 29/41/41 34/46/46
f 33/45/45 37/49/49 35/47/47
f 35/47/47 34/46/46 33/45/45
f 32/44/44 38/50/50 37/49/49
f 37/49/49 33/45/45 32/44/44
f 31/43/43 39/51/51 38/50/50
f 38/50/50 32/44/44 31/43/43
f 30/42/42 40/52/52 39/51/51
f 39/51/51 31/43/43 30/42/42
f 29/41/41 36/48/48 40/52/52
f 40/52/52 30/42/42 29/41/41
f 35/47/47 37/49/49 38/50/50
f 38/50/50 39/51/51 35/47/47
f 36/48/48 35/47/47 39/51/51
f 39/51/51 40/52/52 36/48/48
f 21/32/32 1/2/2 41/53/53
f 41/53/53 42/54/54 21/32/32
f 17/26/26 21/32/32 42/54/54
f 42/54/54 43/55/55 17/26/26
f 13/20/20 17/26/26 43/55/55
f 43/55/55 44/56/56 13/20/20
f 9/14/14 13/20/20 44/56/56
f 44/56/56 45/57/57 9/14/14
f 4/6/6 9/14/14 45/57/57
f 45/57/57 46/58/58 4/6/6
f 4/6/6 46/58/58 41/53/53
f 41/53/53 1/2/2 4/6/6
f 46/58/58 47/59/59 48/60/60
f 48/60/60 41/53/53 46/58/58
f 46/58/58 45/57/57 49/61/61
f 49/61/61 47/59/59 46/58/58
f 45/57/57 44/56/56 50/62/62
f 50/62/62 49/61/61 45/57/57
f 44/56/56 43/55/55 51/63/63
f 51/63/63 50/62/62 44/56/56
f 43/55/55 42/54/54 52/64/64
f 52/64/64 51/63/63 43/55/55
f 42/54/54 41/53/53 48/60/60
f 48/60/60 52/64/64 42/54/54
f 53/65/65 54/66/66 55/67/67
f 55/67/67 56/68/68 53/65/65
f 54/66/66 53/65/65 48/60/60
f 48/60/60 47/59/59 54/66/66
f 57/69/69 58/70/70 55/67/67
f 55/67/67 54/66/66 57/69/69
f 54/66/66 47/59/59 49/61/61
f 49/61/61 57/69/69 54/66/66
f 59/71/71 60/72/72 58/70/70
f 58/70/70 57/69/69 59/71/71
f 57/69/69 49/61/61 50/62/62
f 50/62/62 59/71/71 57/69/69
f 61/73/73 62/74/74 60/72/72
f 60/72/72 59/71/71 61/73/73
f 59/71/71 50/62/62 51/63/63
f 51/63/63 61/73/73 59/71/71
f 63/75/75 64/76/76 62/74/74
f 62/74/74 61/73/73 63/75/75
f 61/73/73 51/63/63 52/64/64
f 52/64/64 63/75/75 61/73/73
f 53/65/65 56/68/68 64/76/76
f 64/76/76 63/75/75 53/65/65
f 63/75/75 52/64/64 48/60/60
f 48/60/60 53/65/65 63/75/75
f 55/67/67 65/77/77 66/78/78
f 66/78/78 56/68/68 55/67/67
f 55/67/67 58/70/70 67/79/79
f 67/79/79 65/77/77 55/67/67
f 58/70/70 60/72/72 68/80/80
f 68/80/80 67/79/79 58/70/70
f 60/72/72 62/74/74 69/81/81
f 69/81/81 68/80/80 60/72/72
f 62/74/74 64/76/76 70/82/82
f 70/82/82 69/81/81 62/74/74
f 64/76/76 56/68/68 66/78/78
f 66/78/78 70/82/82 64/76/76
f 66/78/78 65/77/77 67/79/79
f 67/79/79 70/82/82 66/78/78
f 70/82/82 67/79/79 68/80/80
f 68/80/80 69/81/81 70/82/82
f 71/83/83 26/38/38 25/37/37
f 25/37/37 72/84/84 71/83/83
f 73/85/85 28/40/40 27/39/39
f 27/39/39 74/86/86 73/85/85
f 74/86/86 27/39/39 26/38/38
f 26/38/38 71/83/83 74/86/86
f 72/84/84 25/37/37 28/40/40
f 28/40/40 73/85/85 72/84/84
f 75/87/87 72/84/84 73/85/85
f 73/85/85 76/88/88 75/87/87
f 77/89/89 78/90/90 79/91/91
f 79/91/91 80/92/92 77/89/89
f 80/92/92 74/86/86 71/83/83
f 71/83/83 77/89/89 80/92/92
f 75/87/87 76/88/88 81/93/93
f 81/93/93 82/94/94 75/87/87
f 83/95/95 75/87/87 82/94/94
f 82/94/94 84/96/96 83/95/95
f 76/88/88 85/97/97 86/98/98
f 86/98/98 81/93/93 76/88/88
f 85/97/97 83/95/95 84/96/96
f 84/96/96 86/98/98 85/97/97
f 87/99/99 77/89/89 71/83/83
f 87/99/99 71/83/83 72/84/84
f 72/84/84 75/87/87 87/99/99
f 88/100/100 78/90/90 77/89/89
f 77/89/89 87/99/99 88/100/100
f 89/101/101 80/92/92 79/91/91
f 79/91/91 90/102/102 89/101/101
f 79/91/91 78/90/90 88/100/100
f 88/100/100 90/102/102 79/91/91
f 89/101/101 74/86/86 80/92/92
f 76/88/88 73/85/85 74/86/86
f 74/86/86 89/101/101 76/88/88
f 91/103/103 88/100/100 87/99/99
f 91/103/103 87/99/99 75/87/87
f 75/87/87 83/95/95 91/103/103
f 92/104/104 85/97/97 76/88/88
f 92/104/104 76/88/88 89/101/101
f 89/101/101 90/102/102 92/104/104
f 83/95/95 85/97/97 92/104/104
f 92/104/104 91/103/103 83/95/95
f 90/102/102 88/100/100 91/103/103
f 91/103/103 92/104/104 90/102/102
f 86/98/98 84/96/96 93/105/105
f 93/105/105 94/106/106 86/98/98
f 81/93/93 86/98/98 94/106/106
f 94/106/106 95/107/107 81/93/93
f 84/96/96 82/94/94 96/108/108
f 96/108/108 93/105/105 84/96/96
f 82/94/94 81/93/93 95/107/107
f 95/107/107 96/108/108 82/94/94
f 95/107/107 94/106/106 93/105/105
f 93/105/105 96/108/108 95/107/107
