#
# Exported by OpenBRF -- marco tarini
#
s voulge
newmtl weapons1
usemtl weapons1
v -0.144212 0.003415 0.843349
v -0.144021 0.003416 0.812411
v -0.064735 -0.000448 0.808073
v -0.060687 -0.000448 0.838818
v -0.060686 0.00728 0.838818
v -0.064735 0.00728 0.808073
v -0.143633 0.003415 0.88
v -0.058605 0.00777 0.874599
v -0.058605 -0.000939 0.874599
v -0.061805 -0.000448 0.713339
v -0.061805 0.00728 0.713339
v -0.139854 0.003416 0.686949
v -0.126925 0.003416 0.671722
v -0.06201 -0.000448 0.67186
v -0.06201 0.00728 0.67186
v -0.044372 -0.002149 0.958269
v -0.151927 0.003415 0.969663
v -0.044372 0.00898 0.958269
v -0.031292 0.00898 1.01186
v -0.031292 -0.002149 1.01186
v -0.139569 0.003415 1.05904
v -0.019105 -0.002149 1.04255
v -0.10416 0.003415 1.13359
v -0.019105 0.00898 1.04255
v 0.008186 0.007867 1.08724
v 0.008186 -0.001036 1.08724
v -0.059785 0.003415 1.16951
v 0.044477 0.000198 1.13099
v 0.003273 0.003415 1.18254
v 0.044477 0.006633 1.13099
v 0.08918 0.003416 1.16937
v -0.047931 0.007458 0.843537
v 0.008796 0.013568 0.841082
v 0.008796 -0.006737 0.841082
v -0.047931 -0.000627 0.843537
v -0.046435 0.007971 0.868295
v 0.010885 0.013568 0.873968
v -0.046435 -0.00114 0.868296
v 0.010885 -0.006737 0.873968
v -0.039264 -0.001108 0.69706
v 0.000825 -0.006388 0.700652
v 0.000825 0.01322 0.700652
v -0.039264 0.00794 0.69706
v -0.000964 -0.006388 0.672475
v -0.000964 0.01322 0.672475
v 0.0639 0.013568 0.837582
v 0.065989 0.013568 0.870468
v 0.065989 -0.006737 0.870468
v 0.0639 -0.006737 0.837582
v 0.038437 -0.016889 0.872218
v 0.036348 -0.016889 0.839332
v 0.038437 0.02372 0.872218
v 0.036348 0.02372 0.839332
v 0.055709 0.009346 0.832432
v 0.03599 0.015277 0.833684
v 0.016271 0.009346 0.834937
v 0.016271 -0.002515 0.834937
v 0.03599 -0.008446 0.833684
v 0.055709 -0.002515 0.832432
v 0.038796 0.022175 0.877866
v 0.064251 0.012795 0.876249
v 0.013341 0.012795 0.879483
v 0.013341 -0.005964 0.879483
v 0.038796 -0.015343 0.877866
v 0.064251 -0.005964 0.876249
v 0.052249 0.01322 0.669095
v 0.054039 0.01322 0.697272
v 0.054039 -0.006388 0.697272
v 0.052249 -0.006388 0.669095
v 0.027432 -0.016192 0.698962
v 0.025642 -0.016192 0.670785
v 0.027432 0.023023 0.698962
v 0.025642 0.023023 0.670785
v 0.044894 0.009181 0.664704
v 0.025335 0.014947 0.665946
v 0.005775 0.009181 0.667189
v 0.005775 -0.00235 0.667189
v 0.025335 -0.008116 0.665946
v 0.044894 -0.00235 0.664704
v 0.027739 0.014396 0.703801
v 0.046781 0.009143 0.702586
v 0.009115 0.008906 0.704984
v 0.009115 -0.002075 0.704984
v 0.027739 -0.008039 0.703796
v 0.046781 -0.002311 0.702586
v 0.021277 0.022251 -0.302204
v 0.044537 0.012833 -0.294029
v 0.022421 0.003402 -0.311214
v -0.001984 0.012833 -0.305462
v -0.001984 -0.006002 -0.305462
v 0.021277 -0.015419 -0.302204
v 0.044537 -0.006002 -0.294029
v 0.039001 0.003416 0.881097
v 0.039826 0.009328 0.450393
v 0.039826 -0.002497 0.450393
v 0.025774 -0.002084 0.245036
v 0.025774 0.008915 0.245036
v 0.024149 -0.00476 0.046842
v 0.024149 0.011592 0.046842
v 0.019761 -0.008409 0.451529
v 0.004515 -0.011044 0.240549
v 0.002207 -0.012936 0.043302
v -0.000484 -0.002055 0.455294
v -0.020055 -0.003814 0.241118
v -0.019735 -0.00476 0.039762
v -0.000484 0.008886 0.455294
v -0.020055 0.010646 0.241118
v -0.019735 0.011592 0.039762
v 0.019761 0.015241 0.451529
v 0.004515 0.017876 0.240549
v 0.002207 0.019768 0.043302
vn -0.047749 -0.998843 -0.005638
vt 0.592165 0.167647
vn -0.04603 0.998934 0.003386
vt 0.592165 0.167647
vn -0.048729 -0.998812 -0.000961
vt 0.588537 0.167901
vn -0.047324 0.998877 0.002267
vt 0.588537 0.167901
vn 0.687472 -0.725274 -0.036877
vt 0.588619 0.17729
vn 0.357222 -0.877585 -0.319746
vt 0.592256 0.177537
vn 0.362156 0.877424 -0.314596
vt 0.592256 0.177537
vn 0.688046 0.724846 -0.03451
vt 0.588619 0.17729
vn -0.048813 0.998806 -0.002014
vt 0.59647 0.16744
vn -0.049154 -0.998757 -0.008325
vt 0.59647 0.16744
vn 0.398823 0.892798 0.209409
vt 0.59647 0.177514
vn 0.395505 -0.894969 0.206411
vt 0.59647 0.177514
vn 0.427692 -0.8728 0.235158
vt 0.577525 0.178345
vn 0.424059 0.871997 0.244532
vt 0.577525 0.178345
vn -0.049147 0.998791 -0.000631
vt 0.573847 0.169333
vn -0.043596 -0.998902 -0.017122
vt 0.573847 0.169333
vn -0.025247 -0.694992 -0.718574
vt 0.572156 0.170973
vn -0.033521 0.706363 -0.707056
vt 0.572156 0.170973
vn -0.082836 4.2e-05 -0.996563
vt 0.572156 0.170973
vn -0.042086 -0.827396 -0.56004
vt 0.572656 0.178632
vn -0.05498 0.831034 -0.553498
vt 0.572656 0.178632
vn 0.673465 -0.724954 -0.144523
vt 0.606393 0.178567
vn -0.050935 -0.998697 0.003308
vt 0.606929 0.165789
vn -0.051187 0.998688 0.001141
vt 0.606929 0.165789
vn 0.673207 0.724882 -0.146079
vt 0.606393 0.178567
vn 0.655957 0.724964 -0.210112
vt 0.612779 0.179708
vn 0.655944 -0.72521 -0.209304
vt 0.612779 0.179708
vn -0.046728 0.998815 0.013622
vt 0.617507 0.166578
vn -0.047061 -0.998782 0.014835
vt 0.617507 0.166578
vn 0.621113 -0.72327 -0.301825
vt 0.616471 0.180916
vn -0.033593 -0.999035 0.02828
vt 0.626518 0.170197
vn -0.035341 0.998997 0.027485
vt 0.626518 0.170197
vn 0.620219 0.723721 -0.302581
vt 0.616471 0.180916
vn 0.57252 0.721456 -0.389516
vt 0.621918 0.183802
vn 0.572122 -0.721614 -0.389808
vt 0.621918 0.183802
vn -0.018842 0.999003 0.04047
vt 0.631064 0.175165
vn -0.019527 -0.999003 0.040156
vt 0.631064 0.175165
vn 0.512292 -0.722141 -0.464832
vt 0.627322 0.187756
vn -0.00238 -0.998425 0.056061
vt 0.633063 0.182508
vn 0.000669 0.998283 0.058576
vt 0.633063 0.182508
vn 0.514369 0.721909 -0.462895
vt 0.627322 0.187756
vn 0.737269 0 -0.6756
vt 0.632158 0.192744
vn 0.479631 0.722374 -0.498126
vt 0.632158 0.192744
vn 0.479632 -0.722373 -0.498127
vt 0.632158 0.192744
vn 0.066665 0.710817 -0.70021
vt 0.592905 0.179007
vn -0.352698 0.649885 -0.673241
vt 0.59304 0.185719
vn -0.352698 0.649885 -0.673241
vt 0.618249 0.155828
vn -0.358034 -0.67315 -0.647055
vt 0.59304 0.185719
vn -0.358034 -0.67315 -0.647055
vt 0.621636 0.155828
vn 0.062412 -0.714884 -0.696452
vt 0.592905 0.179007
vn 0.089445 0.729072 0.678568
vt 0.595821 0.178998
vn -0.475087 0.75762 0.447554
vt 0.596914 0.185719
vn -0.475087 0.75762 0.447554
vt 0.618249 0.161047
vn 0.084298 -0.725446 0.683098
vt 0.595821 0.178998
vn -0.4737 -0.755832 0.452025
vt 0.596914 0.185719
vn -0.4737 -0.755832 0.452025
vt 0.621636 0.161047
vn 0.13604 -0.733153 0.666318
vt 0.575783 0.181127
vn -0.285933 -0.633425 0.719038
vt 0.576503 0.185831
vn -0.285933 -0.633425 0.719038
vt 0.621636 0.135447
vn -0.296306 0.647813 0.701812
vt 0.576503 0.185831
vn -0.296306 0.647813 0.701812
vt 0.618249 0.135447
vn 0.123665 0.733289 0.668577
vt 0.575783 0.181127
vn -0.335978 -0.66972 -0.662264
vt 0.573184 0.185831
vn -0.335978 -0.66972 -0.662264
vt 0.621636 0.129353
vn -0.33977 0.644344 -0.685111
vt 0.573184 0.185831
vn -0.33977 0.644344 -0.685111
vt 0.618249 0.129353
vn 0.658129 0.514512 -0.549676
vt 0.606538 0.155828
vn 0.813085 0.567038 0.131756
vt 0.606538 0.161047
vn 0.813086 -0.567038 0.131757
vt 0.603151 0.161047
vn 0.653047 -0.488887 -0.578376
vt 0.603151 0.155828
vn 0.008444 -0.991091 0.13292
vt 0.597296 0.161047
vn 0.008444 -0.991091 0.13292
vt 0.627491 0.161047
vn -0.036704 -0.890871 -0.452771
vt 0.597296 0.155828
vn -0.036704 -0.890871 -0.452771
vt 0.627491 0.155828
vn 0.008443 0.991091 0.132918
vt 0.612394 0.161047
vn -0.02088 0.890872 -0.453775
vt 0.612394 0.155828
vn 0.639734 0.52922 -0.557375
vt 0.60657 0.154974
vn -0.025583 0.892543 -0.450236
vt 0.612394 0.154974
vn -0.706339 0.499743 -0.501341
vt 0.618217 0.154974
vn -0.712559 -0.521357 -0.469517
vt 0.621667 0.154974
vn -0.04137 -0.891773 -0.450588
vt 0.627491 0.154974
vn -0.04137 -0.891773 -0.450588
vt 0.597296 0.154974
vn 0.639297 -0.499373 -0.584744
vt 0.60312 0.154974
vn 0.047688 0.658873 0.750741
vt 0.612394 0.161902
vn 0.514656 0.342706 0.785927
vt 0.606538 0.161902
vn -0.411077 0.342707 0.844729
vt 0.618249 0.161902
vn -0.411076 -0.342707 0.84473
vt 0.621636 0.161902
vn 0.047689 -0.658872 0.750742
vt 0.627491 0.161902
vn 0.047689 -0.658872 0.750742
vt 0.597296 0.161902
vn 0.514657 -0.342705 0.785927
vt 0.603151 0.161902
vn 0.514657 -0.342705 0.785927
vt 0.620225 0.164556
vn 0.650473 0.507662 -0.564946
vt 0.606538 0.129353
vn 0.706792 0.474409 0.524768
vt 0.606538 0.135447
vn 0.710636 -0.50469 0.490188
vt 0.603151 0.135447
vn 0.645312 -0.478822 -0.595233
vt 0.603151 0.129353
vn 0.035806 -0.87705 0.479064
vt 0.597296 0.135447
vn 0.035806 -0.87705 0.479064
vt 0.627491 0.135447
vn -0.038932 -0.879862 -0.473632
vt 0.597296 0.129353
vn -0.038932 -0.879862 -0.473632
vt 0.627491 0.129353
vn 0.020353 0.870789 0.491236
vt 0.612394 0.135447
vn -0.02131 0.879863 -0.47475
vt 0.612394 0.129353
vn 0.643259 0.524685 -0.557606
vt 0.606538 0.128621
vn -0.021069 0.882686 -0.469491
vt 0.612394 0.128621
vn -0.69715 0.486894 -0.526228
vt 0.618249 0.128621
vn -0.699015 -0.516047 -0.495049
vt 0.621636 0.128621
vn -0.038487 -0.882886 -0.468008
vt 0.627491 0.128621
vn -0.038487 -0.882886 -0.468008
vt 0.597296 0.128621
vn 0.638354 -0.495772 -0.588824
vt 0.603151 0.128621
vn 0.015057 0.875153 0.483611
vt 0.612394 0.136179
vn 0.690518 0.490314 0.531768
vt 0.60657 0.136178
vn -0.623423 0.51487 0.588432
vt 0.618249 0.136179
vn -0.627295 -0.48795 0.606964
vt 0.621636 0.136179
vn 0.030441 -0.880363 0.473322
vt 0.627491 0.136178
vn 0.030441 -0.880363 0.473322
vt 0.597296 0.136178
vn 0.699209 -0.516678 0.494116
vt 0.60312 0.136178
vn 0.122424 0.841007 -0.526991
vt 0.612394 0.00371897
vn 0.769695 0.424664 -0.476686
vt 0.606538 0.00371897
vn 0.22295 -0.000175 -0.97483
vt 0.603078 0.00246799
vn 0.22295 -0.000175 -0.97483
vt 0.627449 0.00239497
vn -0.571459 0.469976 -0.672724
vt 0.618249 0.00371897
vn -0.571183 -0.469941 -0.672982
vt 0.621636 0.00371897
vn 0.12227 -0.841149 -0.526801
vt 0.627491 0.00371897
vn 0.12227 -0.841149 -0.526801
vt 0.597296 0.00371897
vn 0.769796 -0.424981 -0.476242
vt 0.603151 0.00371897
vn 0.063394 0 0.997989
vt 0.620167 0.163496
vn 0.817613 0.574462 -0.038755
vt 0.606538 0.098311
vn 0.81735 -0.575072 -0.035104
vt 0.603151 0.098311
vn 0.832926 -0.55281 -0.025199
vt 0.603151 0.06678
vn 0.833287 0.552011 -0.030268
vt 0.606538 0.06678
vn 0.829334 -0.558128 0.026439
vt 0.603151 0.03525
vn 0.829575 0.557859 0.02446
vt 0.606538 0.03525
vn 0.028978 -0.999567 0.005115
vt 0.597296 0.098311
vn 0.028978 -0.999567 0.005115
vt 0.627491 0.098311
vn 0.056984 -0.998323 0.010244
vt 0.597296 0.06678
vn 0.056984 -0.998323 0.010244
vt 0.627491 0.06678
vn 0.026305 -0.999615 0.008786
vt 0.597296 0.03525
vn 0.026305 -0.999615 0.008786
vt 0.627491 0.03525
vn -0.799116 -0.599024 0.050827
vt 0.621636 0.098311
vn -0.799453 -0.599235 0.042328
vt 0.621636 0.06678
vn -0.814891 -0.579356 -0.017286
vt 0.621636 0.03525
vn -0.799166 0.599034 0.049915
vt 0.618249 0.098311
vn -0.799572 0.599283 0.039294
vt 0.618249 0.06678
vn -0.814914 0.579261 -0.01929
vt 0.618249 0.03525
vn 0.029486 0.999565 0.001191
vt 0.612394 0.098311
vn 0.057725 0.998327 0.003164
vt 0.612394 0.06678
vn 0.026565 0.999633 0.005289
vt 0.612394 0.03525
f 1/1/1 2/3/3 3/5/5
f 3/5/5 4/6/6 1/1/1
f 1/2/2 5/7/7 6/8/8
f 6/8/8 2/4/4 1/2/2
f 3/5/5 6/8/8 5/7/7
f 5/7/7 4/6/6 3/5/5
f 5/7/7 1/2/2 7/9/9
f 7/9/9 8/11/11 5/7/7
f 1/1/1 4/6/6 9/12/12
f 9/12/12 7/10/10 1/1/1
f 6/8/8 3/5/5 10/13/13
f 10/13/13 11/14/14 6/8/8
f 2/4/4 6/8/8 11/14/14
f 11/14/14 12/15/15 2/4/4
f 3/5/5 2/3/3 12/16/16
f 12/16/16 10/13/13 3/5/5
f 10/13/13 12/16/16 13/17/17
f 13/17/17 14/20/20 10/13/13
f 12/15/15 11/14/14 15/21/21
f 15/21/21 13/18/18 12/15/15
f 13/19/19 15/21/21 14/20/20
f 7/10/10 9/12/12 16/22/22
f 16/22/22 17/23/23 7/10/10
f 8/11/11 7/9/9 17/24/24
f 17/24/24 18/25/25 8/11/11
f 9/12/12 8/11/11 18/25/25
f 18/25/25 16/22/22 9/12/12
f 16/22/22 18/25/25 19/26/26
f 19/26/26 20/27/27 16/22/22
f 18/25/25 17/24/24 21/28/28
f 21/28/28 19/26/26 18/25/25
f 17/23/23 16/22/22 20/27/27
f 20/27/27 21/29/29 17/23/23
f 21/29/29 20/27/27 22/30/30
f 22/30/30 23/31/31 21/29/29
f 19/26/26 21/28/28 23/32/32
f 23/32/32 24/33/33 19/26/26
f 20/27/27 19/26/26 24/33/33
f 24/33/33 22/30/30 20/27/27
f 22/30/30 24/33/33 25/34/34
f 25/34/34 26/35/35 22/30/30
f 24/33/33 23/32/32 27/36/36
f 27/36/36 25/34/34 24/33/33
f 23/31/31 22/30/30 26/35/35
f 26/35/35 27/37/37 23/31/31
f 27/37/37 26/35/35 28/38/38
f 28/38/38 29/39/39 27/37/37
f 25/34/34 27/36/36 29/40/40
f 29/40/40 30/41/41 25/34/34
f 26/35/35 25/34/34 30/41/41
f 30/41/41 28/38/38 26/35/35
f 28/38/38 30/41/41 31/42/42
f 30/41/41 29/40/40 31/43/43
f 29/39/39 28/38/38 31/44/44
f 32/45/45 33/46/46 34/48/48
f 34/48/48 35/50/50 32/45/45
f 5/7/7 32/45/45 35/50/50
f 35/50/50 4/6/6 5/7/7
f 33/46/46 32/45/45 36/51/51
f 36/51/51 37/52/52 33/46/46
f 32/45/45 5/7/7 8/11/11
f 8/11/11 36/51/51 32/45/45
f 38/54/54 39/55/55 37/52/52
f 37/52/52 36/51/51 38/54/54
f 36/51/51 8/11/11 9/12/12
f 9/12/12 38/54/54 36/51/51
f 35/50/50 34/48/48 39/55/55
f 39/55/55 38/54/54 35/50/50
f 38/54/54 9/12/12 4/6/6
f 4/6/6 35/50/50 38/54/54
f 40/57/57 41/58/58 42/60/60
f 42/60/60 43/62/62 40/57/57
f 43/62/62 11/14/14 10/13/13
f 10/13/13 40/57/57 43/62/62
f 14/20/20 44/63/63 41/58/58
f 41/58/58 40/57/57 14/20/20
f 40/57/57 10/13/13 14/20/20
f 43/62/62 42/60/60 45/65/65
f 45/65/65 15/21/21 43/62/62
f 15/21/21 11/14/14 43/62/62
f 44/63/63 14/20/20 15/21/21
f 15/21/21 45/65/65 44/63/63
f 46/67/67 47/68/68 48/69/69
f 48/69/69 49/70/70 46/67/67
f 49/70/70 48/69/69 50/71/71
f 50/71/71 51/73/73 49/70/70
f 51/74/74 50/72/72 39/56/56
f 39/56/56 34/49/49 51/74/74
f 33/47/47 37/53/53 52/75/75
f 52/75/75 53/76/76 33/47/47
f 47/68/68 46/67/67 53/76/76
f 53/76/76 52/75/75 47/68/68
f 46/67/67 54/77/77 55/78/78
f 55/78/78 53/76/76 46/67/67
f 53/76/76 55/78/78 56/79/79
f 56/79/79 33/47/47 53/76/76
f 33/47/47 56/79/79 57/80/80
f 57/80/80 34/49/49 33/47/47
f 34/49/49 57/80/80 58/81/81
f 58/81/81 51/74/74 34/49/49
f 51/73/73 58/82/82 59/83/83
f 59/83/83 49/70/70 51/73/73
f 54/77/77 46/67/67 49/70/70
f 49/70/70 59/83/83 54/77/77
f 52/75/75 60/84/84 61/85/85
f 61/85/85 47/68/68 52/75/75
f 37/53/53 62/86/86 60/84/84
f 60/84/84 52/75/75 37/53/53
f 39/56/56 63/87/87 62/86/86
f 62/86/86 37/53/53 39/56/56
f 50/72/72 64/88/88 63/87/87
f 63/87/87 39/56/56 50/72/72
f 48/69/69 65/90/90 64/89/89
f 64/89/89 50/71/71 48/69/69
f 47/68/68 61/85/85 65/90/90
f 65/90/90 48/69/69 47/68/68
f 66/92/92 67/93/93 68/94/94
f 68/94/94 69/95/95 66/92/92
f 69/95/95 68/94/94 70/96/96
f 70/96/96 71/98/98 69/95/95
f 71/99/99 70/97/97 41/59/59
f 41/59/59 44/64/64 71/99/99
f 45/66/66 42/61/61 72/100/100
f 72/100/100 73/101/101 45/66/66
f 67/93/93 66/92/92 73/101/101
f 73/101/101 72/100/100 67/93/93
f 66/92/92 74/102/102 75/103/103
f 75/103/103 73/101/101 66/92/92
f 73/101/101 75/103/103 76/104/104
f 76/104/104 45/66/66 73/101/101
f 45/66/66 76/104/104 77/105/105
f 77/105/105 44/64/64 45/66/66
f 44/64/64 77/105/105 78/106/106
f 78/106/106 71/99/99 44/64/64
f 71/98/98 78/107/107 79/108/108
f 79/108/108 69/95/95 71/98/98
f 69/95/95 79/108/108 74/102/102
f 74/102/102 66/92/92 69/95/95
f 72/100/100 80/109/109 81/110/110
f 81/110/110 67/93/93 72/100/100
f 42/61/61 82/111/111 80/109/109
f 80/109/109 72/100/100 42/61/61
f 41/59/59 83/112/112 82/111/111
f 82/111/111 42/61/61 41/59/59
f 70/97/97 84/113/113 83/112/112
f 83/112/112 41/59/59 70/97/97
f 68/94/94 85/115/115 84/114/114
f 84/114/114 70/96/96 68/94/94
f 67/93/93 81/110/110 85/115/115
f 85/115/115 68/94/94 67/93/93
f 59/83/83 85/115/115 81/110/110
f 81/110/110 54/77/77 59/83/83
f 58/82/82 84/114/114 85/115/115
f 85/115/115 59/83/83 58/82/82
f 57/80/80 83/112/112 84/113/113
f 84/113/113 58/81/81 57/80/80
f 56/79/79 82/111/111 83/112/112
f 83/112/112 57/80/80 56/79/79
f 55/78/78 80/109/109 82/111/111
f 82/111/111 56/79/79 55/78/78
f 54/77/77 81/110/110 80/109/109
f 80/109/109 55/78/78 54/77/77
f 86/116/116 87/117/117 88/118/118
f 86/116/116 88/118/118 89/120/120
f 89/120/120 88/119/119 90/121/121
f 90/121/121 88/119/119 91/122/122
f 91/123/123 88/118/118 92/124/124
f 92/124/124 88/118/118 87/117/117
f 65/91/91 61/85/85 93/125/125
f 64/88/88 65/91/91 93/125/125
f 63/87/87 64/88/88 93/125/125
f 62/86/86 63/87/87 93/125/125
f 60/84/84 62/86/86 93/125/125
f 61/85/85 60/84/84 93/125/125
f 94/126/126 74/102/102 79/108/108
f 79/108/108 95/127/127 94/126/126
f 95/127/127 96/128/128 97/129/129
f 97/129/129 94/126/126 95/127/127
f 98/130/130 92/124/124 87/117/117
f 87/117/117 99/131/131 98/130/130
f 99/131/131 97/129/129 96/128/128
f 96/128/128 98/130/130 99/131/131
f 95/127/127 79/108/108 78/107/107
f 78/107/107 100/132/132 95/127/127
f 100/132/132 101/134/134 96/128/128
f 96/128/128 95/127/127 100/132/132
f 102/136/136 91/123/123 92/124/124
f 92/124/124 98/130/130 102/136/136
f 98/130/130 96/128/128 101/134/134
f 101/134/134 102/136/136 98/130/130
f 100/133/133 78/106/106 77/105/105
f 77/105/105 103/138/138 100/133/133
f 103/138/138 104/139/139 101/135/135
f 101/135/135 100/133/133 103/138/138
f 105/140/140 90/121/121 91/122/122
f 91/122/122 102/137/137 105/140/140
f 102/137/137 101/135/135 104/139/139
f 104/139/139 105/140/140 102/137/137
f 103/138/138 77/105/105 76/104/104
f 76/104/104 106/141/141 103/138/138
f 106/141/141 107/142/142 104/139/139
f 104/139/139 103/138/138 106/141/141
f 108/143/143 89/120/120 90/121/121
f 90/121/121 105/140/140 108/143/143
f 105/140/140 104/139/139 107/142/142
f 107/142/142 108/143/143 105/140/140
f 106/141/141 76/104/104 75/103/103
f 75/103/103 109/144/144 106/141/141
f 109/144/144 110/145/145 107/142/142
f 107/142/142 106/141/141 109/144/144
f 111/146/146 86/116/116 89/120/120
f 89/120/120 108/143/143 111/146/146
f 108/143/143 107/142/142 110/145/145
f 110/145/145 111/146/146 108/143/143
f 109/144/144 75/103/103 74/102/102
f 74/102/102 94/126/126 109/144/144
f 94/126/126 97/129/129 110/145/145
f 110/145/145 109/144/144 94/126/126
f 99/131/131 87/117/117 86/116/116
f 86/116/116 111/146/146 99/131/131
f 111/146/146 110/145/145 97/129/129
f 97/129/129 99/131/131 111/146/146
