# 3ds Max Wavefront OBJ Exporter v0.97b - (c)2007 guruware
# File Created: 04.02.2013 17:54:02

#
# object Box01
#

v  0.4000 0.0000 -0.0500
v  0.4000 0.0000 0.0500
v  -0.4000 0.0000 0.0500
v  -0.4000 0.0000 -0.0500
v  -0.4500 2.1000 0.0500
v  0.4500 2.1000 0.0500
v  0.4500 2.1000 -0.0500
v  -0.4500 2.1000 -0.0500
v  0.4000 0.0000 0.1500
v  0.4000 0.0086 0.1500
v  -0.4000 0.0086 0.1500
v  -0.4000 0.0000 0.1500
v  0.4500 0.0000 0.0500
v  0.4500 0.0000 -0.0500
v  -0.4000 0.0000 -0.1500
v  -0.4000 0.0086 -0.1500
v  0.4000 0.0086 -0.1500
v  0.4000 0.0000 -0.1500
v  -0.4500 0.0000 -0.0500
v  -0.4500 0.0000 0.0500
v  0.4500 0.0000 0.0900
v  0.4500 2.1000 0.0900
v  0.4000 2.0500 0.0900
v  0.4000 0.0000 0.0900
v  -0.4500 2.1000 0.0900
v  -0.4000 2.0500 0.0900
v  -0.4500 0.0000 0.0900
v  -0.4000 0.0000 0.0900
v  -0.4500 0.0000 -0.0900
v  -0.4500 2.1000 -0.0900
v  -0.4000 2.0500 -0.0900
v  -0.4000 0.0000 -0.0900
v  0.4500 2.1000 -0.0900
v  0.4000 2.0500 -0.0900
v  0.4500 0.0000 -0.0900
v  0.4000 0.0000 -0.0900
v  -0.4000 0.0314 0.0500
v  -0.4000 2.0500 0.0500
v  0.4000 2.0500 0.0500
v  0.4000 0.0314 0.0500
v  0.4000 0.0314 -0.0500
v  0.4000 2.0500 -0.0500
v  -0.4000 2.0500 -0.0500
v  -0.4000 0.0314 -0.0500
# 44 vertices

vn 0.0000 -1.0000 -0.0000
vn 0.0000 1.0000 -0.0000
vn 0.0000 0.0000 1.0000
vn 1.0000 0.0000 -0.0000
vn 0.0000 0.0000 -1.0000
vn -1.0000 0.0000 -0.0000
vn 0.0000 0.9749 0.2228
vn 0.0000 0.9749 -0.2228
# 8 vertex normals

vt 0.8889 0.0349 0.3335
vt 0.8889 0.0349 0.6665
vt 0.1111 0.0349 0.6665
vt 0.1111 0.0349 0.3335
vt 0.0556 0.9651 0.6665
vt 0.9444 0.9651 0.6665
vt 0.9444 0.9651 0.3335
vt 0.0556 0.9651 0.3335
vt 0.8889 0.0349 0.9995
vt 0.8889 0.0389 0.9995
vt 0.1111 0.0389 0.9995
vt 0.1111 0.0349 0.9995
vt 0.9444 0.0349 0.6665
vt 0.9444 0.0349 0.3335
vt 0.1111 0.0349 0.0005
vt 0.1111 0.0389 0.0005
vt 0.8889 0.0389 0.0005
vt 0.8889 0.0349 0.0005
vt 0.0556 0.0349 0.3335
vt 0.0556 0.0349 0.6665
vt 0.9444 0.0349 0.7997
vt 0.9444 0.9651 0.7997
vt 0.8889 0.9419 0.7997
vt 0.8889 0.0349 0.7997
vt 0.0556 0.9651 0.7997
vt 0.1111 0.9419 0.7997
vt 0.0556 0.0349 0.7997
vt 0.1111 0.0349 0.7997
vt 0.0556 0.0349 0.2003
vt 0.0556 0.9651 0.2003
vt 0.1111 0.9419 0.2003
vt 0.1111 0.0349 0.2003
vt 0.9444 0.9651 0.2003
vt 0.8889 0.9419 0.2003
vt 0.9444 0.0349 0.2003
vt 0.8889 0.0349 0.2003
vt 0.1111 0.0495 0.6665
vt 0.1111 0.9419 0.6665
vt 0.8889 0.9419 0.6665
vt 0.8889 0.0495 0.6665
vt 0.8889 0.0495 0.3335
vt 0.8889 0.9419 0.3335
vt 0.1111 0.9419 0.3335
vt 0.1111 0.0495 0.3335
# 44 texture coords

g Box01
f 1/1/1 2/2/1 3/3/1 
f 3/3/1 4/4/1 1/1/1 
f 5/5/2 6/6/2 7/7/2 
f 7/7/2 8/8/2 5/5/2 
f 9/9/3 10/10/3 11/11/3 
f 11/11/3 12/12/3 9/9/3 
f 13/13/4 14/14/4 7/7/4 
f 7/7/4 6/6/4 13/13/4 
f 15/15/5 16/16/5 17/17/5 
f 17/17/5 18/18/5 15/15/5 
f 19/19/6 20/20/6 5/5/6 
f 5/5/6 8/8/6 19/19/6 
f 21/21/3 22/22/3 23/23/3 
f 23/23/3 24/24/3 21/21/3 
f 22/22/3 25/25/3 26/26/3 
f 26/26/3 23/23/3 22/22/3 
f 25/25/3 27/27/3 28/28/3 
f 28/28/3 26/26/3 25/25/3 
f 29/29/5 30/30/5 31/31/5 
f 31/31/5 32/32/5 29/29/5 
f 30/30/5 33/33/5 34/34/5 
f 34/34/5 31/31/5 30/30/5 
f 33/33/5 35/35/5 36/36/5 
f 36/36/5 34/34/5 33/33/5 
f 6/6/2 5/5/2 25/25/2 
f 25/25/2 22/22/2 6/6/2 
f 5/5/6 20/20/6 27/27/6 
f 27/27/6 25/25/6 5/5/6 
f 20/20/1 3/3/1 28/28/1 
f 28/28/1 27/27/1 20/20/1 
f 37/37/4 38/38/4 26/26/4 
f 3/3/4 37/37/4 26/26/4 
f 3/3/4 26/26/4 28/28/4 
f 38/38/1 39/39/1 23/23/1 
f 23/23/1 26/26/1 38/38/1 
f 40/40/6 2/2/6 24/24/6 
f 39/39/6 40/40/6 24/24/6 
f 39/39/6 24/24/6 23/23/6 
f 2/2/1 13/13/1 21/21/1 
f 21/21/1 24/24/1 2/2/1 
f 13/13/4 6/6/4 22/22/4 
f 22/22/4 21/21/4 13/13/4 
f 8/8/2 7/7/2 33/33/2 
f 33/33/2 30/30/2 8/8/2 
f 7/7/4 14/14/4 35/35/4 
f 35/35/4 33/33/4 7/7/4 
f 14/14/1 1/1/1 36/36/1 
f 36/36/1 35/35/1 14/14/1 
f 41/41/6 42/42/6 34/34/6 
f 1/1/6 41/41/6 34/34/6 
f 1/1/6 34/34/6 36/36/6 
f 42/42/1 43/43/1 31/31/1 
f 31/31/1 34/34/1 42/42/1 
f 44/44/4 4/4/4 32/32/4 
f 43/43/4 44/44/4 32/32/4 
f 43/43/4 32/32/4 31/31/4 
f 4/4/1 19/19/1 29/29/1 
f 29/29/1 32/32/1 4/4/1 
f 19/19/6 8/8/6 30/30/6 
f 30/30/6 29/29/6 19/19/6 
f 14/14/1 13/13/1 2/2/1 
f 2/2/1 1/1/1 14/14/1 
f 20/20/1 19/19/1 4/4/1 
f 4/4/1 3/3/1 20/20/1 
f 39/39/3 38/38/3 37/37/3 
f 37/37/3 40/40/3 39/39/3 
f 43/43/5 42/42/5 41/41/5 
f 41/41/5 44/44/5 43/43/5 
f 3/3/1 2/2/1 9/9/1 
f 9/9/1 12/12/1 3/3/1 
f 2/2/4 40/40/4 10/10/4 
f 10/10/4 9/9/4 2/2/4 
f 40/40/7 37/37/7 11/11/7 
f 11/11/7 10/10/7 40/40/7 
f 37/37/6 3/3/6 12/12/6 
f 12/12/6 11/11/6 37/37/6 
f 1/1/1 4/4/1 15/15/1 
f 15/15/1 18/18/1 1/1/1 
f 4/4/6 44/44/6 16/16/6 
f 16/16/6 15/15/6 4/4/6 
f 44/44/8 41/41/8 17/17/8 
f 17/17/8 16/16/8 44/44/8 
f 41/41/4 1/1/4 18/18/4 
f 18/18/4 17/17/4 41/41/4 
# 84 faces

